G04 #@! TF.GenerationSoftware,KiCad,Pcbnew,5.1.5-52549c5~84~ubuntu18.04.1*
G04 #@! TF.CreationDate,2020-03-01T16:02:55-05:00*
G04 #@! TF.ProjectId,cropdroid-reservoir,63726f70-6472-46f6-9964-2d7265736572,0.6a*
G04 #@! TF.SameCoordinates,Original*
G04 #@! TF.FileFunction,Soldermask,Bot*
G04 #@! TF.FilePolarity,Negative*
%FSLAX46Y46*%
G04 Gerber Fmt 4.6, Leading zero omitted, Abs format (unit mm)*
G04 Created by KiCad (PCBNEW 5.1.5-52549c5~84~ubuntu18.04.1) date 2020-03-01 16:02:55*
%MOMM*%
%LPD*%
G04 APERTURE LIST*
%ADD10C,0.010000*%
%ADD11C,0.100000*%
%ADD12C,3.101600*%
%ADD13C,0.801600*%
%ADD14C,1.309600*%
%ADD15C,1.625600*%
%ADD16C,1.982600*%
%ADD17R,1.982600X1.982600*%
%ADD18O,1.701600X1.701600*%
%ADD19C,1.701600*%
%ADD20C,1.331600*%
%ADD21R,1.331600X1.331600*%
%ADD22C,3.391600*%
%ADD23C,3.191600*%
%ADD24R,1.861600X1.861600*%
%ADD25C,1.861600*%
%ADD26C,3.657600*%
%ADD27R,3.657600X3.657600*%
%ADD28R,1.701600X1.701600*%
%ADD29C,3.601600*%
%ADD30R,2.801600X2.801600*%
%ADD31C,2.801600*%
%ADD32R,2.701600X2.101600*%
%ADD33R,2.101600X2.701600*%
%ADD34O,2.301600X2.301600*%
%ADD35R,2.301600X2.301600*%
%ADD36R,1.901600X1.901600*%
%ADD37C,1.901600*%
G04 APERTURE END LIST*
D10*
G36*
X321150000Y-210537560D02*
G01*
X321150000Y-213640000D01*
X319242750Y-213640000D01*
X319242750Y-210537560D01*
X321150000Y-210537560D01*
G37*
X321150000Y-210537560D02*
X321150000Y-213640000D01*
X319242750Y-213640000D01*
X319242750Y-210537560D01*
X321150000Y-210537560D01*
G36*
X328450000Y-210538610D02*
G01*
X328450000Y-213640000D01*
X326552430Y-213640000D01*
X326552430Y-210538610D01*
X328450000Y-210538610D01*
G37*
X328450000Y-210538610D02*
X328450000Y-213640000D01*
X326552430Y-213640000D01*
X326552430Y-210538610D01*
X328450000Y-210538610D01*
G36*
X302100000Y-210537560D02*
G01*
X302100000Y-213640000D01*
X300192750Y-213640000D01*
X300192750Y-210537560D01*
X302100000Y-210537560D01*
G37*
X302100000Y-210537560D02*
X302100000Y-213640000D01*
X300192750Y-213640000D01*
X300192750Y-210537560D01*
X302100000Y-210537560D01*
G36*
X309400000Y-210538610D02*
G01*
X309400000Y-213640000D01*
X307502430Y-213640000D01*
X307502430Y-210538610D01*
X309400000Y-210538610D01*
G37*
X309400000Y-210538610D02*
X309400000Y-213640000D01*
X307502430Y-213640000D01*
X307502430Y-210538610D01*
X309400000Y-210538610D01*
D11*
X161719184Y-209346800D02*
G75*
G03X161719184Y-209346800I-860984J0D01*
G01*
X159179184Y-209346800D02*
G75*
G03X159179184Y-209346800I-860984J0D01*
G01*
X161719184Y-206806800D02*
G75*
G03X161719184Y-206806800I-860984J0D01*
G01*
X159179184Y-206806800D02*
G75*
G03X159179184Y-206806800I-860984J0D01*
G01*
X161719184Y-204266800D02*
G75*
G03X161719184Y-204266800I-860984J0D01*
G01*
X159179184Y-204266800D02*
G75*
G03X159179184Y-204266800I-860984J0D01*
G01*
X161719184Y-201726800D02*
G75*
G03X161719184Y-201726800I-860984J0D01*
G01*
X159179184Y-201726800D02*
G75*
G03X159179184Y-201726800I-860984J0D01*
G01*
X161719184Y-199186800D02*
G75*
G03X161719184Y-199186800I-860984J0D01*
G01*
X159179184Y-199186800D02*
G75*
G03X159179184Y-199186800I-860984J0D01*
G01*
X161719184Y-196646800D02*
G75*
G03X161719184Y-196646800I-860984J0D01*
G01*
X159179184Y-196646800D02*
G75*
G03X159179184Y-196646800I-860984J0D01*
G01*
X161719184Y-194106800D02*
G75*
G03X161719184Y-194106800I-860984J0D01*
G01*
X159179184Y-194106800D02*
G75*
G03X159179184Y-194106800I-860984J0D01*
G01*
X161719184Y-191566800D02*
G75*
G03X161719184Y-191566800I-860984J0D01*
G01*
X159179184Y-191566800D02*
G75*
G03X159179184Y-191566800I-860984J0D01*
G01*
X161719184Y-189026800D02*
G75*
G03X161719184Y-189026800I-860984J0D01*
G01*
X159179184Y-189026800D02*
G75*
G03X159179184Y-189026800I-860984J0D01*
G01*
X161719184Y-186486800D02*
G75*
G03X161719184Y-186486800I-860984J0D01*
G01*
X159179184Y-186486800D02*
G75*
G03X159179184Y-186486800I-860984J0D01*
G01*
X161719184Y-183946800D02*
G75*
G03X161719184Y-183946800I-860984J0D01*
G01*
X159179184Y-183946800D02*
G75*
G03X159179184Y-183946800I-860984J0D01*
G01*
X161719184Y-181406800D02*
G75*
G03X161719184Y-181406800I-860984J0D01*
G01*
X159179184Y-181406800D02*
G75*
G03X159179184Y-181406800I-860984J0D01*
G01*
X161719184Y-178866800D02*
G75*
G03X161719184Y-178866800I-860984J0D01*
G01*
X159179184Y-178866800D02*
G75*
G03X159179184Y-178866800I-860984J0D01*
G01*
X161719184Y-176326800D02*
G75*
G03X161719184Y-176326800I-860984J0D01*
G01*
X159179184Y-176326800D02*
G75*
G03X159179184Y-176326800I-860984J0D01*
G01*
X161719184Y-173786800D02*
G75*
G03X161719184Y-173786800I-860984J0D01*
G01*
X159179184Y-173786800D02*
G75*
G03X159179184Y-173786800I-860984J0D01*
G01*
X161719184Y-171246800D02*
G75*
G03X161719184Y-171246800I-860984J0D01*
G01*
X159179184Y-171246800D02*
G75*
G03X159179184Y-171246800I-860984J0D01*
G01*
X161719184Y-168706800D02*
G75*
G03X161719184Y-168706800I-860984J0D01*
G01*
X159179184Y-168706800D02*
G75*
G03X159179184Y-168706800I-860984J0D01*
G01*
X161719184Y-166166800D02*
G75*
G03X161719184Y-166166800I-860984J0D01*
G01*
X159179184Y-166166800D02*
G75*
G03X159179184Y-166166800I-860984J0D01*
G01*
D12*
X357200200Y-202615800D03*
X315798200Y-99491800D03*
X79832200Y-150291800D03*
X97358200Y-71551800D03*
D13*
X320200000Y-212090000D03*
X327500000Y-212090000D03*
D14*
X322250000Y-207040000D03*
X324650000Y-208240000D03*
X323050000Y-208240000D03*
X325450000Y-207040000D03*
X323850000Y-207040000D03*
D13*
X301150000Y-212090000D03*
X308450000Y-212090000D03*
D14*
X303200000Y-207040000D03*
X305600000Y-208240000D03*
X304000000Y-208240000D03*
X306400000Y-207040000D03*
X304800000Y-207040000D03*
D15*
X362288200Y-182651800D03*
X362288200Y-188151800D03*
X300788200Y-179151800D03*
X300788200Y-188151800D03*
D16*
X313512200Y-133527800D03*
X313512200Y-143687800D03*
X359232200Y-123367800D03*
D17*
X359232200Y-143687800D03*
D18*
X231076500Y-135826500D03*
D19*
X220916500Y-135826500D03*
D20*
X218658500Y-128460500D03*
D21*
X222158500Y-128460500D03*
D22*
X235140500Y-97726500D03*
D23*
X217360500Y-100266500D03*
D24*
X221170500Y-112966500D03*
D25*
X231330500Y-112966500D03*
D22*
X133540500Y-97726500D03*
D23*
X115760500Y-100266500D03*
D24*
X119570500Y-112966500D03*
D25*
X129730500Y-112966500D03*
D26*
X127000000Y-60530000D03*
X133350000Y-56340000D03*
D27*
X120650000Y-56340000D03*
D18*
X153238200Y-141782800D03*
D19*
X153238200Y-151942800D03*
X215468200Y-175945800D03*
X207848200Y-175945800D03*
X215468200Y-158165800D03*
X215468200Y-160705800D03*
X215468200Y-163245800D03*
X215468200Y-165785800D03*
X215468200Y-168325800D03*
X215468200Y-170865800D03*
X215468200Y-173405800D03*
X207848200Y-173405800D03*
X207848200Y-170865800D03*
X207848200Y-168325800D03*
X207848200Y-165785800D03*
X207848200Y-163245800D03*
X207848200Y-160705800D03*
D28*
X207848200Y-158165800D03*
D29*
X358912200Y-90220000D03*
X358912200Y-50720000D03*
D30*
X351612200Y-77470000D03*
D31*
X351612200Y-70470000D03*
X351612200Y-63470000D03*
D32*
X279400000Y-208105000D03*
X279400000Y-202105000D03*
D33*
X284100000Y-205105000D03*
D32*
X254000000Y-208105000D03*
X254000000Y-202105000D03*
D33*
X258700000Y-205105000D03*
D32*
X234950000Y-208105000D03*
X234950000Y-202105000D03*
D33*
X239650000Y-205105000D03*
D32*
X215900000Y-208105000D03*
X215900000Y-202105000D03*
D33*
X220600000Y-205105000D03*
D32*
X190500000Y-208105000D03*
X190500000Y-202105000D03*
D33*
X195200000Y-205105000D03*
D32*
X171450000Y-208105000D03*
X171450000Y-202105000D03*
D33*
X176150000Y-205105000D03*
D26*
X177800000Y-60530000D03*
X184150000Y-56340000D03*
D27*
X171450000Y-56340000D03*
D18*
X280746200Y-135813800D03*
D19*
X270586200Y-135813800D03*
X233756200Y-157149800D03*
X241376200Y-157149800D03*
X233756200Y-174929800D03*
X233756200Y-172389800D03*
X233756200Y-169849800D03*
X233756200Y-167309800D03*
X233756200Y-164769800D03*
X233756200Y-162229800D03*
X233756200Y-159689800D03*
X241376200Y-159689800D03*
X241376200Y-162229800D03*
X241376200Y-164769800D03*
X241376200Y-167309800D03*
X241376200Y-169849800D03*
X241376200Y-172389800D03*
D28*
X241376200Y-174929800D03*
D22*
X285940500Y-97726500D03*
D23*
X268160500Y-100266500D03*
D24*
X271970500Y-112966500D03*
D25*
X282130500Y-112966500D03*
D26*
X279400000Y-60530000D03*
X285750000Y-56340000D03*
D27*
X273050000Y-56340000D03*
D20*
X268582200Y-128447800D03*
D21*
X272082200Y-128447800D03*
D34*
X261696200Y-112953800D03*
D35*
X261696200Y-123113800D03*
D18*
X178752500Y-135826500D03*
D19*
X168592500Y-135826500D03*
D20*
X116296500Y-128460500D03*
D21*
X119796500Y-128460500D03*
D18*
X127952500Y-135826500D03*
D19*
X117792500Y-135826500D03*
D20*
X166588500Y-128460500D03*
D21*
X170088500Y-128460500D03*
D36*
X277241000Y-182118000D03*
D37*
X277241000Y-187198000D03*
X277241000Y-189738000D03*
X277241000Y-192278000D03*
X282321000Y-192278000D03*
X282321000Y-189738000D03*
X282321000Y-187198000D03*
X282321000Y-182118000D03*
D18*
X143205200Y-141782800D03*
D19*
X143205200Y-151942800D03*
D22*
X184340500Y-97726500D03*
D23*
X166560500Y-100266500D03*
D24*
X170370500Y-112966500D03*
D25*
X180530500Y-112966500D03*
D26*
X228600000Y-60530000D03*
X234950000Y-56340000D03*
D27*
X222250000Y-56340000D03*
D34*
X210502500Y-112966500D03*
D35*
X210502500Y-123126500D03*
D34*
X160210500Y-112966500D03*
D35*
X160210500Y-123126500D03*
D34*
X109410500Y-112712500D03*
D35*
X109410500Y-122872500D03*
M02*
