G04 #@! TF.GenerationSoftware,KiCad,Pcbnew,5.1.5-52549c5~84~ubuntu18.04.1*
G04 #@! TF.CreationDate,2020-03-01T16:02:55-05:00*
G04 #@! TF.ProjectId,cropdroid-reservoir,63726f70-6472-46f6-9964-2d7265736572,0.6a*
G04 #@! TF.SameCoordinates,Original*
G04 #@! TF.FileFunction,Paste,Top*
G04 #@! TF.FilePolarity,Positive*
%FSLAX46Y46*%
G04 Gerber Fmt 4.6, Leading zero omitted, Abs format (unit mm)*
G04 Created by KiCad (PCBNEW 5.1.5-52549c5~84~ubuntu18.04.1) date 2020-03-01 16:02:55*
%MOMM*%
%LPD*%
G04 APERTURE LIST*
%ADD10C,0.000100*%
G04 APERTURE END LIST*
D10*
G36*
X321050000Y-212090000D02*
G01*
X321050000Y-212690000D01*
X321048835Y-212734486D01*
X321045344Y-212778849D01*
X321039535Y-212822969D01*
X321031425Y-212866725D01*
X321021037Y-212909996D01*
X321008398Y-212952664D01*
X320993543Y-212994613D01*
X320976514Y-213035726D01*
X320957356Y-213075892D01*
X320936122Y-213115000D01*
X320912870Y-213152943D01*
X320887664Y-213189617D01*
X320860574Y-213224922D01*
X320831673Y-213258761D01*
X320801041Y-213291041D01*
X320768761Y-213321673D01*
X320734922Y-213350574D01*
X320699617Y-213377664D01*
X320662943Y-213402870D01*
X320625000Y-213426122D01*
X320585892Y-213447356D01*
X320545726Y-213466514D01*
X320504613Y-213483543D01*
X320462664Y-213498398D01*
X320419996Y-213511037D01*
X320376725Y-213521425D01*
X320332969Y-213529535D01*
X320288849Y-213535344D01*
X320244486Y-213538835D01*
X320200000Y-213540000D01*
X320200000Y-213040000D01*
X320218318Y-213039520D01*
X320236585Y-213038083D01*
X320254752Y-213035691D01*
X320272769Y-213032352D01*
X320290587Y-213028074D01*
X320308156Y-213022870D01*
X320325429Y-213016753D01*
X320342358Y-213009741D01*
X320358897Y-213001852D01*
X320375000Y-212993109D01*
X320390624Y-212983535D01*
X320405725Y-212973156D01*
X320420262Y-212962001D01*
X320434196Y-212950101D01*
X320447487Y-212937487D01*
X320460101Y-212924196D01*
X320472001Y-212910262D01*
X320483156Y-212895725D01*
X320493535Y-212880624D01*
X320503109Y-212865000D01*
X320511852Y-212848897D01*
X320519741Y-212832358D01*
X320526753Y-212815429D01*
X320532870Y-212798156D01*
X320538074Y-212780587D01*
X320542352Y-212762769D01*
X320545691Y-212744752D01*
X320548083Y-212726585D01*
X320549520Y-212708318D01*
X320550000Y-212690000D01*
X320550000Y-212090000D01*
X321050000Y-212090000D01*
G37*
X321050000Y-212090000D02*
X321050000Y-212690000D01*
X321048835Y-212734486D01*
X321045344Y-212778849D01*
X321039535Y-212822969D01*
X321031425Y-212866725D01*
X321021037Y-212909996D01*
X321008398Y-212952664D01*
X320993543Y-212994613D01*
X320976514Y-213035726D01*
X320957356Y-213075892D01*
X320936122Y-213115000D01*
X320912870Y-213152943D01*
X320887664Y-213189617D01*
X320860574Y-213224922D01*
X320831673Y-213258761D01*
X320801041Y-213291041D01*
X320768761Y-213321673D01*
X320734922Y-213350574D01*
X320699617Y-213377664D01*
X320662943Y-213402870D01*
X320625000Y-213426122D01*
X320585892Y-213447356D01*
X320545726Y-213466514D01*
X320504613Y-213483543D01*
X320462664Y-213498398D01*
X320419996Y-213511037D01*
X320376725Y-213521425D01*
X320332969Y-213529535D01*
X320288849Y-213535344D01*
X320244486Y-213538835D01*
X320200000Y-213540000D01*
X320200000Y-213040000D01*
X320218318Y-213039520D01*
X320236585Y-213038083D01*
X320254752Y-213035691D01*
X320272769Y-213032352D01*
X320290587Y-213028074D01*
X320308156Y-213022870D01*
X320325429Y-213016753D01*
X320342358Y-213009741D01*
X320358897Y-213001852D01*
X320375000Y-212993109D01*
X320390624Y-212983535D01*
X320405725Y-212973156D01*
X320420262Y-212962001D01*
X320434196Y-212950101D01*
X320447487Y-212937487D01*
X320460101Y-212924196D01*
X320472001Y-212910262D01*
X320483156Y-212895725D01*
X320493535Y-212880624D01*
X320503109Y-212865000D01*
X320511852Y-212848897D01*
X320519741Y-212832358D01*
X320526753Y-212815429D01*
X320532870Y-212798156D01*
X320538074Y-212780587D01*
X320542352Y-212762769D01*
X320545691Y-212744752D01*
X320548083Y-212726585D01*
X320549520Y-212708318D01*
X320550000Y-212690000D01*
X320550000Y-212090000D01*
X321050000Y-212090000D01*
G36*
X319350000Y-212090000D02*
G01*
X319350000Y-212690000D01*
X319351165Y-212734486D01*
X319354656Y-212778849D01*
X319360465Y-212822969D01*
X319368575Y-212866725D01*
X319378963Y-212909996D01*
X319391602Y-212952664D01*
X319406457Y-212994613D01*
X319423486Y-213035726D01*
X319442644Y-213075892D01*
X319463878Y-213115000D01*
X319487130Y-213152943D01*
X319512336Y-213189617D01*
X319539426Y-213224922D01*
X319568327Y-213258761D01*
X319598959Y-213291041D01*
X319631239Y-213321673D01*
X319665078Y-213350574D01*
X319700383Y-213377664D01*
X319737057Y-213402870D01*
X319775000Y-213426122D01*
X319814108Y-213447356D01*
X319854274Y-213466514D01*
X319895387Y-213483543D01*
X319937336Y-213498398D01*
X319980004Y-213511037D01*
X320023275Y-213521425D01*
X320067031Y-213529535D01*
X320111151Y-213535344D01*
X320155514Y-213538835D01*
X320200000Y-213540000D01*
X320200000Y-213040000D01*
X320181682Y-213039520D01*
X320163415Y-213038083D01*
X320145248Y-213035691D01*
X320127231Y-213032352D01*
X320109413Y-213028074D01*
X320091844Y-213022870D01*
X320074571Y-213016753D01*
X320057642Y-213009741D01*
X320041103Y-213001852D01*
X320025000Y-212993109D01*
X320009376Y-212983535D01*
X319994275Y-212973156D01*
X319979738Y-212962001D01*
X319965804Y-212950101D01*
X319952513Y-212937487D01*
X319939899Y-212924196D01*
X319927999Y-212910262D01*
X319916844Y-212895725D01*
X319906465Y-212880624D01*
X319896891Y-212865000D01*
X319888148Y-212848897D01*
X319880259Y-212832358D01*
X319873247Y-212815429D01*
X319867130Y-212798156D01*
X319861926Y-212780587D01*
X319857648Y-212762769D01*
X319854309Y-212744752D01*
X319851917Y-212726585D01*
X319850480Y-212708318D01*
X319850000Y-212690000D01*
X319850000Y-212090000D01*
X319350000Y-212090000D01*
G37*
X319350000Y-212090000D02*
X319350000Y-212690000D01*
X319351165Y-212734486D01*
X319354656Y-212778849D01*
X319360465Y-212822969D01*
X319368575Y-212866725D01*
X319378963Y-212909996D01*
X319391602Y-212952664D01*
X319406457Y-212994613D01*
X319423486Y-213035726D01*
X319442644Y-213075892D01*
X319463878Y-213115000D01*
X319487130Y-213152943D01*
X319512336Y-213189617D01*
X319539426Y-213224922D01*
X319568327Y-213258761D01*
X319598959Y-213291041D01*
X319631239Y-213321673D01*
X319665078Y-213350574D01*
X319700383Y-213377664D01*
X319737057Y-213402870D01*
X319775000Y-213426122D01*
X319814108Y-213447356D01*
X319854274Y-213466514D01*
X319895387Y-213483543D01*
X319937336Y-213498398D01*
X319980004Y-213511037D01*
X320023275Y-213521425D01*
X320067031Y-213529535D01*
X320111151Y-213535344D01*
X320155514Y-213538835D01*
X320200000Y-213540000D01*
X320200000Y-213040000D01*
X320181682Y-213039520D01*
X320163415Y-213038083D01*
X320145248Y-213035691D01*
X320127231Y-213032352D01*
X320109413Y-213028074D01*
X320091844Y-213022870D01*
X320074571Y-213016753D01*
X320057642Y-213009741D01*
X320041103Y-213001852D01*
X320025000Y-212993109D01*
X320009376Y-212983535D01*
X319994275Y-212973156D01*
X319979738Y-212962001D01*
X319965804Y-212950101D01*
X319952513Y-212937487D01*
X319939899Y-212924196D01*
X319927999Y-212910262D01*
X319916844Y-212895725D01*
X319906465Y-212880624D01*
X319896891Y-212865000D01*
X319888148Y-212848897D01*
X319880259Y-212832358D01*
X319873247Y-212815429D01*
X319867130Y-212798156D01*
X319861926Y-212780587D01*
X319857648Y-212762769D01*
X319854309Y-212744752D01*
X319851917Y-212726585D01*
X319850480Y-212708318D01*
X319850000Y-212690000D01*
X319850000Y-212090000D01*
X319350000Y-212090000D01*
G36*
X319350000Y-212090000D02*
G01*
X319350000Y-211490000D01*
X319351165Y-211445514D01*
X319354656Y-211401151D01*
X319360465Y-211357031D01*
X319368575Y-211313275D01*
X319378963Y-211270004D01*
X319391602Y-211227336D01*
X319406457Y-211185387D01*
X319423486Y-211144274D01*
X319442644Y-211104108D01*
X319463878Y-211065000D01*
X319487130Y-211027057D01*
X319512336Y-210990383D01*
X319539426Y-210955078D01*
X319568327Y-210921239D01*
X319598959Y-210888959D01*
X319631239Y-210858327D01*
X319665078Y-210829426D01*
X319700383Y-210802336D01*
X319737057Y-210777130D01*
X319775000Y-210753878D01*
X319814108Y-210732644D01*
X319854274Y-210713486D01*
X319895387Y-210696457D01*
X319937336Y-210681602D01*
X319980004Y-210668963D01*
X320023275Y-210658575D01*
X320067031Y-210650465D01*
X320111151Y-210644656D01*
X320155514Y-210641165D01*
X320200000Y-210640000D01*
X320200000Y-211140000D01*
X320181682Y-211140480D01*
X320163415Y-211141917D01*
X320145248Y-211144309D01*
X320127231Y-211147648D01*
X320109413Y-211151926D01*
X320091844Y-211157130D01*
X320074571Y-211163247D01*
X320057642Y-211170259D01*
X320041103Y-211178148D01*
X320025000Y-211186891D01*
X320009376Y-211196465D01*
X319994275Y-211206844D01*
X319979738Y-211217999D01*
X319965804Y-211229899D01*
X319952513Y-211242513D01*
X319939899Y-211255804D01*
X319927999Y-211269738D01*
X319916844Y-211284275D01*
X319906465Y-211299376D01*
X319896891Y-211315000D01*
X319888148Y-211331103D01*
X319880259Y-211347642D01*
X319873247Y-211364571D01*
X319867130Y-211381844D01*
X319861926Y-211399413D01*
X319857648Y-211417231D01*
X319854309Y-211435248D01*
X319851917Y-211453415D01*
X319850480Y-211471682D01*
X319850000Y-211490000D01*
X319850000Y-212090000D01*
X319350000Y-212090000D01*
G37*
X319350000Y-212090000D02*
X319350000Y-211490000D01*
X319351165Y-211445514D01*
X319354656Y-211401151D01*
X319360465Y-211357031D01*
X319368575Y-211313275D01*
X319378963Y-211270004D01*
X319391602Y-211227336D01*
X319406457Y-211185387D01*
X319423486Y-211144274D01*
X319442644Y-211104108D01*
X319463878Y-211065000D01*
X319487130Y-211027057D01*
X319512336Y-210990383D01*
X319539426Y-210955078D01*
X319568327Y-210921239D01*
X319598959Y-210888959D01*
X319631239Y-210858327D01*
X319665078Y-210829426D01*
X319700383Y-210802336D01*
X319737057Y-210777130D01*
X319775000Y-210753878D01*
X319814108Y-210732644D01*
X319854274Y-210713486D01*
X319895387Y-210696457D01*
X319937336Y-210681602D01*
X319980004Y-210668963D01*
X320023275Y-210658575D01*
X320067031Y-210650465D01*
X320111151Y-210644656D01*
X320155514Y-210641165D01*
X320200000Y-210640000D01*
X320200000Y-211140000D01*
X320181682Y-211140480D01*
X320163415Y-211141917D01*
X320145248Y-211144309D01*
X320127231Y-211147648D01*
X320109413Y-211151926D01*
X320091844Y-211157130D01*
X320074571Y-211163247D01*
X320057642Y-211170259D01*
X320041103Y-211178148D01*
X320025000Y-211186891D01*
X320009376Y-211196465D01*
X319994275Y-211206844D01*
X319979738Y-211217999D01*
X319965804Y-211229899D01*
X319952513Y-211242513D01*
X319939899Y-211255804D01*
X319927999Y-211269738D01*
X319916844Y-211284275D01*
X319906465Y-211299376D01*
X319896891Y-211315000D01*
X319888148Y-211331103D01*
X319880259Y-211347642D01*
X319873247Y-211364571D01*
X319867130Y-211381844D01*
X319861926Y-211399413D01*
X319857648Y-211417231D01*
X319854309Y-211435248D01*
X319851917Y-211453415D01*
X319850480Y-211471682D01*
X319850000Y-211490000D01*
X319850000Y-212090000D01*
X319350000Y-212090000D01*
G36*
X321050000Y-212090000D02*
G01*
X321050000Y-211490000D01*
X321048835Y-211445514D01*
X321045344Y-211401151D01*
X321039535Y-211357031D01*
X321031425Y-211313275D01*
X321021037Y-211270004D01*
X321008398Y-211227336D01*
X320993543Y-211185387D01*
X320976514Y-211144274D01*
X320957356Y-211104108D01*
X320936122Y-211065000D01*
X320912870Y-211027057D01*
X320887664Y-210990383D01*
X320860574Y-210955078D01*
X320831673Y-210921239D01*
X320801041Y-210888959D01*
X320768761Y-210858327D01*
X320734922Y-210829426D01*
X320699617Y-210802336D01*
X320662943Y-210777130D01*
X320625000Y-210753878D01*
X320585892Y-210732644D01*
X320545726Y-210713486D01*
X320504613Y-210696457D01*
X320462664Y-210681602D01*
X320419996Y-210668963D01*
X320376725Y-210658575D01*
X320332969Y-210650465D01*
X320288849Y-210644656D01*
X320244486Y-210641165D01*
X320200000Y-210640000D01*
X320200000Y-211140000D01*
X320218318Y-211140480D01*
X320236585Y-211141917D01*
X320254752Y-211144309D01*
X320272769Y-211147648D01*
X320290587Y-211151926D01*
X320308156Y-211157130D01*
X320325429Y-211163247D01*
X320342358Y-211170259D01*
X320358897Y-211178148D01*
X320375000Y-211186891D01*
X320390624Y-211196465D01*
X320405725Y-211206844D01*
X320420262Y-211217999D01*
X320434196Y-211229899D01*
X320447487Y-211242513D01*
X320460101Y-211255804D01*
X320472001Y-211269738D01*
X320483156Y-211284275D01*
X320493535Y-211299376D01*
X320503109Y-211315000D01*
X320511852Y-211331103D01*
X320519741Y-211347642D01*
X320526753Y-211364571D01*
X320532870Y-211381844D01*
X320538074Y-211399413D01*
X320542352Y-211417231D01*
X320545691Y-211435248D01*
X320548083Y-211453415D01*
X320549520Y-211471682D01*
X320550000Y-211490000D01*
X320550000Y-212090000D01*
X321050000Y-212090000D01*
G37*
X321050000Y-212090000D02*
X321050000Y-211490000D01*
X321048835Y-211445514D01*
X321045344Y-211401151D01*
X321039535Y-211357031D01*
X321031425Y-211313275D01*
X321021037Y-211270004D01*
X321008398Y-211227336D01*
X320993543Y-211185387D01*
X320976514Y-211144274D01*
X320957356Y-211104108D01*
X320936122Y-211065000D01*
X320912870Y-211027057D01*
X320887664Y-210990383D01*
X320860574Y-210955078D01*
X320831673Y-210921239D01*
X320801041Y-210888959D01*
X320768761Y-210858327D01*
X320734922Y-210829426D01*
X320699617Y-210802336D01*
X320662943Y-210777130D01*
X320625000Y-210753878D01*
X320585892Y-210732644D01*
X320545726Y-210713486D01*
X320504613Y-210696457D01*
X320462664Y-210681602D01*
X320419996Y-210668963D01*
X320376725Y-210658575D01*
X320332969Y-210650465D01*
X320288849Y-210644656D01*
X320244486Y-210641165D01*
X320200000Y-210640000D01*
X320200000Y-211140000D01*
X320218318Y-211140480D01*
X320236585Y-211141917D01*
X320254752Y-211144309D01*
X320272769Y-211147648D01*
X320290587Y-211151926D01*
X320308156Y-211157130D01*
X320325429Y-211163247D01*
X320342358Y-211170259D01*
X320358897Y-211178148D01*
X320375000Y-211186891D01*
X320390624Y-211196465D01*
X320405725Y-211206844D01*
X320420262Y-211217999D01*
X320434196Y-211229899D01*
X320447487Y-211242513D01*
X320460101Y-211255804D01*
X320472001Y-211269738D01*
X320483156Y-211284275D01*
X320493535Y-211299376D01*
X320503109Y-211315000D01*
X320511852Y-211331103D01*
X320519741Y-211347642D01*
X320526753Y-211364571D01*
X320532870Y-211381844D01*
X320538074Y-211399413D01*
X320542352Y-211417231D01*
X320545691Y-211435248D01*
X320548083Y-211453415D01*
X320549520Y-211471682D01*
X320550000Y-211490000D01*
X320550000Y-212090000D01*
X321050000Y-212090000D01*
G36*
X328350000Y-212090000D02*
G01*
X328350000Y-212690000D01*
X328348835Y-212734486D01*
X328345344Y-212778849D01*
X328339535Y-212822969D01*
X328331425Y-212866725D01*
X328321037Y-212909996D01*
X328308398Y-212952664D01*
X328293543Y-212994613D01*
X328276514Y-213035726D01*
X328257356Y-213075892D01*
X328236122Y-213115000D01*
X328212870Y-213152943D01*
X328187664Y-213189617D01*
X328160574Y-213224922D01*
X328131673Y-213258761D01*
X328101041Y-213291041D01*
X328068761Y-213321673D01*
X328034922Y-213350574D01*
X327999617Y-213377664D01*
X327962943Y-213402870D01*
X327925000Y-213426122D01*
X327885892Y-213447356D01*
X327845726Y-213466514D01*
X327804613Y-213483543D01*
X327762664Y-213498398D01*
X327719996Y-213511037D01*
X327676725Y-213521425D01*
X327632969Y-213529535D01*
X327588849Y-213535344D01*
X327544486Y-213538835D01*
X327500000Y-213540000D01*
X327500000Y-213040000D01*
X327518318Y-213039520D01*
X327536585Y-213038083D01*
X327554752Y-213035691D01*
X327572769Y-213032352D01*
X327590587Y-213028074D01*
X327608156Y-213022870D01*
X327625429Y-213016753D01*
X327642358Y-213009741D01*
X327658897Y-213001852D01*
X327675000Y-212993109D01*
X327690624Y-212983535D01*
X327705725Y-212973156D01*
X327720262Y-212962001D01*
X327734196Y-212950101D01*
X327747487Y-212937487D01*
X327760101Y-212924196D01*
X327772001Y-212910262D01*
X327783156Y-212895725D01*
X327793535Y-212880624D01*
X327803109Y-212865000D01*
X327811852Y-212848897D01*
X327819741Y-212832358D01*
X327826753Y-212815429D01*
X327832870Y-212798156D01*
X327838074Y-212780587D01*
X327842352Y-212762769D01*
X327845691Y-212744752D01*
X327848083Y-212726585D01*
X327849520Y-212708318D01*
X327850000Y-212690000D01*
X327850000Y-212090000D01*
X328350000Y-212090000D01*
G37*
X328350000Y-212090000D02*
X328350000Y-212690000D01*
X328348835Y-212734486D01*
X328345344Y-212778849D01*
X328339535Y-212822969D01*
X328331425Y-212866725D01*
X328321037Y-212909996D01*
X328308398Y-212952664D01*
X328293543Y-212994613D01*
X328276514Y-213035726D01*
X328257356Y-213075892D01*
X328236122Y-213115000D01*
X328212870Y-213152943D01*
X328187664Y-213189617D01*
X328160574Y-213224922D01*
X328131673Y-213258761D01*
X328101041Y-213291041D01*
X328068761Y-213321673D01*
X328034922Y-213350574D01*
X327999617Y-213377664D01*
X327962943Y-213402870D01*
X327925000Y-213426122D01*
X327885892Y-213447356D01*
X327845726Y-213466514D01*
X327804613Y-213483543D01*
X327762664Y-213498398D01*
X327719996Y-213511037D01*
X327676725Y-213521425D01*
X327632969Y-213529535D01*
X327588849Y-213535344D01*
X327544486Y-213538835D01*
X327500000Y-213540000D01*
X327500000Y-213040000D01*
X327518318Y-213039520D01*
X327536585Y-213038083D01*
X327554752Y-213035691D01*
X327572769Y-213032352D01*
X327590587Y-213028074D01*
X327608156Y-213022870D01*
X327625429Y-213016753D01*
X327642358Y-213009741D01*
X327658897Y-213001852D01*
X327675000Y-212993109D01*
X327690624Y-212983535D01*
X327705725Y-212973156D01*
X327720262Y-212962001D01*
X327734196Y-212950101D01*
X327747487Y-212937487D01*
X327760101Y-212924196D01*
X327772001Y-212910262D01*
X327783156Y-212895725D01*
X327793535Y-212880624D01*
X327803109Y-212865000D01*
X327811852Y-212848897D01*
X327819741Y-212832358D01*
X327826753Y-212815429D01*
X327832870Y-212798156D01*
X327838074Y-212780587D01*
X327842352Y-212762769D01*
X327845691Y-212744752D01*
X327848083Y-212726585D01*
X327849520Y-212708318D01*
X327850000Y-212690000D01*
X327850000Y-212090000D01*
X328350000Y-212090000D01*
G36*
X326650000Y-212090000D02*
G01*
X326650000Y-212690000D01*
X326651165Y-212734486D01*
X326654656Y-212778849D01*
X326660465Y-212822969D01*
X326668575Y-212866725D01*
X326678963Y-212909996D01*
X326691602Y-212952664D01*
X326706457Y-212994613D01*
X326723486Y-213035726D01*
X326742644Y-213075892D01*
X326763878Y-213115000D01*
X326787130Y-213152943D01*
X326812336Y-213189617D01*
X326839426Y-213224922D01*
X326868327Y-213258761D01*
X326898959Y-213291041D01*
X326931239Y-213321673D01*
X326965078Y-213350574D01*
X327000383Y-213377664D01*
X327037057Y-213402870D01*
X327075000Y-213426122D01*
X327114108Y-213447356D01*
X327154274Y-213466514D01*
X327195387Y-213483543D01*
X327237336Y-213498398D01*
X327280004Y-213511037D01*
X327323275Y-213521425D01*
X327367031Y-213529535D01*
X327411151Y-213535344D01*
X327455514Y-213538835D01*
X327500000Y-213540000D01*
X327500000Y-213040000D01*
X327481682Y-213039520D01*
X327463415Y-213038083D01*
X327445248Y-213035691D01*
X327427231Y-213032352D01*
X327409413Y-213028074D01*
X327391844Y-213022870D01*
X327374571Y-213016753D01*
X327357642Y-213009741D01*
X327341103Y-213001852D01*
X327325000Y-212993109D01*
X327309376Y-212983535D01*
X327294275Y-212973156D01*
X327279738Y-212962001D01*
X327265804Y-212950101D01*
X327252513Y-212937487D01*
X327239899Y-212924196D01*
X327227999Y-212910262D01*
X327216844Y-212895725D01*
X327206465Y-212880624D01*
X327196891Y-212865000D01*
X327188148Y-212848897D01*
X327180259Y-212832358D01*
X327173247Y-212815429D01*
X327167130Y-212798156D01*
X327161926Y-212780587D01*
X327157648Y-212762769D01*
X327154309Y-212744752D01*
X327151917Y-212726585D01*
X327150480Y-212708318D01*
X327150000Y-212690000D01*
X327150000Y-212090000D01*
X326650000Y-212090000D01*
G37*
X326650000Y-212090000D02*
X326650000Y-212690000D01*
X326651165Y-212734486D01*
X326654656Y-212778849D01*
X326660465Y-212822969D01*
X326668575Y-212866725D01*
X326678963Y-212909996D01*
X326691602Y-212952664D01*
X326706457Y-212994613D01*
X326723486Y-213035726D01*
X326742644Y-213075892D01*
X326763878Y-213115000D01*
X326787130Y-213152943D01*
X326812336Y-213189617D01*
X326839426Y-213224922D01*
X326868327Y-213258761D01*
X326898959Y-213291041D01*
X326931239Y-213321673D01*
X326965078Y-213350574D01*
X327000383Y-213377664D01*
X327037057Y-213402870D01*
X327075000Y-213426122D01*
X327114108Y-213447356D01*
X327154274Y-213466514D01*
X327195387Y-213483543D01*
X327237336Y-213498398D01*
X327280004Y-213511037D01*
X327323275Y-213521425D01*
X327367031Y-213529535D01*
X327411151Y-213535344D01*
X327455514Y-213538835D01*
X327500000Y-213540000D01*
X327500000Y-213040000D01*
X327481682Y-213039520D01*
X327463415Y-213038083D01*
X327445248Y-213035691D01*
X327427231Y-213032352D01*
X327409413Y-213028074D01*
X327391844Y-213022870D01*
X327374571Y-213016753D01*
X327357642Y-213009741D01*
X327341103Y-213001852D01*
X327325000Y-212993109D01*
X327309376Y-212983535D01*
X327294275Y-212973156D01*
X327279738Y-212962001D01*
X327265804Y-212950101D01*
X327252513Y-212937487D01*
X327239899Y-212924196D01*
X327227999Y-212910262D01*
X327216844Y-212895725D01*
X327206465Y-212880624D01*
X327196891Y-212865000D01*
X327188148Y-212848897D01*
X327180259Y-212832358D01*
X327173247Y-212815429D01*
X327167130Y-212798156D01*
X327161926Y-212780587D01*
X327157648Y-212762769D01*
X327154309Y-212744752D01*
X327151917Y-212726585D01*
X327150480Y-212708318D01*
X327150000Y-212690000D01*
X327150000Y-212090000D01*
X326650000Y-212090000D01*
G36*
X326650000Y-212090000D02*
G01*
X326650000Y-211490000D01*
X326651165Y-211445514D01*
X326654656Y-211401151D01*
X326660465Y-211357031D01*
X326668575Y-211313275D01*
X326678963Y-211270004D01*
X326691602Y-211227336D01*
X326706457Y-211185387D01*
X326723486Y-211144274D01*
X326742644Y-211104108D01*
X326763878Y-211065000D01*
X326787130Y-211027057D01*
X326812336Y-210990383D01*
X326839426Y-210955078D01*
X326868327Y-210921239D01*
X326898959Y-210888959D01*
X326931239Y-210858327D01*
X326965078Y-210829426D01*
X327000383Y-210802336D01*
X327037057Y-210777130D01*
X327075000Y-210753878D01*
X327114108Y-210732644D01*
X327154274Y-210713486D01*
X327195387Y-210696457D01*
X327237336Y-210681602D01*
X327280004Y-210668963D01*
X327323275Y-210658575D01*
X327367031Y-210650465D01*
X327411151Y-210644656D01*
X327455514Y-210641165D01*
X327500000Y-210640000D01*
X327500000Y-211140000D01*
X327481682Y-211140480D01*
X327463415Y-211141917D01*
X327445248Y-211144309D01*
X327427231Y-211147648D01*
X327409413Y-211151926D01*
X327391844Y-211157130D01*
X327374571Y-211163247D01*
X327357642Y-211170259D01*
X327341103Y-211178148D01*
X327325000Y-211186891D01*
X327309376Y-211196465D01*
X327294275Y-211206844D01*
X327279738Y-211217999D01*
X327265804Y-211229899D01*
X327252513Y-211242513D01*
X327239899Y-211255804D01*
X327227999Y-211269738D01*
X327216844Y-211284275D01*
X327206465Y-211299376D01*
X327196891Y-211315000D01*
X327188148Y-211331103D01*
X327180259Y-211347642D01*
X327173247Y-211364571D01*
X327167130Y-211381844D01*
X327161926Y-211399413D01*
X327157648Y-211417231D01*
X327154309Y-211435248D01*
X327151917Y-211453415D01*
X327150480Y-211471682D01*
X327150000Y-211490000D01*
X327150000Y-212090000D01*
X326650000Y-212090000D01*
G37*
X326650000Y-212090000D02*
X326650000Y-211490000D01*
X326651165Y-211445514D01*
X326654656Y-211401151D01*
X326660465Y-211357031D01*
X326668575Y-211313275D01*
X326678963Y-211270004D01*
X326691602Y-211227336D01*
X326706457Y-211185387D01*
X326723486Y-211144274D01*
X326742644Y-211104108D01*
X326763878Y-211065000D01*
X326787130Y-211027057D01*
X326812336Y-210990383D01*
X326839426Y-210955078D01*
X326868327Y-210921239D01*
X326898959Y-210888959D01*
X326931239Y-210858327D01*
X326965078Y-210829426D01*
X327000383Y-210802336D01*
X327037057Y-210777130D01*
X327075000Y-210753878D01*
X327114108Y-210732644D01*
X327154274Y-210713486D01*
X327195387Y-210696457D01*
X327237336Y-210681602D01*
X327280004Y-210668963D01*
X327323275Y-210658575D01*
X327367031Y-210650465D01*
X327411151Y-210644656D01*
X327455514Y-210641165D01*
X327500000Y-210640000D01*
X327500000Y-211140000D01*
X327481682Y-211140480D01*
X327463415Y-211141917D01*
X327445248Y-211144309D01*
X327427231Y-211147648D01*
X327409413Y-211151926D01*
X327391844Y-211157130D01*
X327374571Y-211163247D01*
X327357642Y-211170259D01*
X327341103Y-211178148D01*
X327325000Y-211186891D01*
X327309376Y-211196465D01*
X327294275Y-211206844D01*
X327279738Y-211217999D01*
X327265804Y-211229899D01*
X327252513Y-211242513D01*
X327239899Y-211255804D01*
X327227999Y-211269738D01*
X327216844Y-211284275D01*
X327206465Y-211299376D01*
X327196891Y-211315000D01*
X327188148Y-211331103D01*
X327180259Y-211347642D01*
X327173247Y-211364571D01*
X327167130Y-211381844D01*
X327161926Y-211399413D01*
X327157648Y-211417231D01*
X327154309Y-211435248D01*
X327151917Y-211453415D01*
X327150480Y-211471682D01*
X327150000Y-211490000D01*
X327150000Y-212090000D01*
X326650000Y-212090000D01*
G36*
X328350000Y-212090000D02*
G01*
X328350000Y-211490000D01*
X328348835Y-211445514D01*
X328345344Y-211401151D01*
X328339535Y-211357031D01*
X328331425Y-211313275D01*
X328321037Y-211270004D01*
X328308398Y-211227336D01*
X328293543Y-211185387D01*
X328276514Y-211144274D01*
X328257356Y-211104108D01*
X328236122Y-211065000D01*
X328212870Y-211027057D01*
X328187664Y-210990383D01*
X328160574Y-210955078D01*
X328131673Y-210921239D01*
X328101041Y-210888959D01*
X328068761Y-210858327D01*
X328034922Y-210829426D01*
X327999617Y-210802336D01*
X327962943Y-210777130D01*
X327925000Y-210753878D01*
X327885892Y-210732644D01*
X327845726Y-210713486D01*
X327804613Y-210696457D01*
X327762664Y-210681602D01*
X327719996Y-210668963D01*
X327676725Y-210658575D01*
X327632969Y-210650465D01*
X327588849Y-210644656D01*
X327544486Y-210641165D01*
X327500000Y-210640000D01*
X327500000Y-211140000D01*
X327518318Y-211140480D01*
X327536585Y-211141917D01*
X327554752Y-211144309D01*
X327572769Y-211147648D01*
X327590587Y-211151926D01*
X327608156Y-211157130D01*
X327625429Y-211163247D01*
X327642358Y-211170259D01*
X327658897Y-211178148D01*
X327675000Y-211186891D01*
X327690624Y-211196465D01*
X327705725Y-211206844D01*
X327720262Y-211217999D01*
X327734196Y-211229899D01*
X327747487Y-211242513D01*
X327760101Y-211255804D01*
X327772001Y-211269738D01*
X327783156Y-211284275D01*
X327793535Y-211299376D01*
X327803109Y-211315000D01*
X327811852Y-211331103D01*
X327819741Y-211347642D01*
X327826753Y-211364571D01*
X327832870Y-211381844D01*
X327838074Y-211399413D01*
X327842352Y-211417231D01*
X327845691Y-211435248D01*
X327848083Y-211453415D01*
X327849520Y-211471682D01*
X327850000Y-211490000D01*
X327850000Y-212090000D01*
X328350000Y-212090000D01*
G37*
X328350000Y-212090000D02*
X328350000Y-211490000D01*
X328348835Y-211445514D01*
X328345344Y-211401151D01*
X328339535Y-211357031D01*
X328331425Y-211313275D01*
X328321037Y-211270004D01*
X328308398Y-211227336D01*
X328293543Y-211185387D01*
X328276514Y-211144274D01*
X328257356Y-211104108D01*
X328236122Y-211065000D01*
X328212870Y-211027057D01*
X328187664Y-210990383D01*
X328160574Y-210955078D01*
X328131673Y-210921239D01*
X328101041Y-210888959D01*
X328068761Y-210858327D01*
X328034922Y-210829426D01*
X327999617Y-210802336D01*
X327962943Y-210777130D01*
X327925000Y-210753878D01*
X327885892Y-210732644D01*
X327845726Y-210713486D01*
X327804613Y-210696457D01*
X327762664Y-210681602D01*
X327719996Y-210668963D01*
X327676725Y-210658575D01*
X327632969Y-210650465D01*
X327588849Y-210644656D01*
X327544486Y-210641165D01*
X327500000Y-210640000D01*
X327500000Y-211140000D01*
X327518318Y-211140480D01*
X327536585Y-211141917D01*
X327554752Y-211144309D01*
X327572769Y-211147648D01*
X327590587Y-211151926D01*
X327608156Y-211157130D01*
X327625429Y-211163247D01*
X327642358Y-211170259D01*
X327658897Y-211178148D01*
X327675000Y-211186891D01*
X327690624Y-211196465D01*
X327705725Y-211206844D01*
X327720262Y-211217999D01*
X327734196Y-211229899D01*
X327747487Y-211242513D01*
X327760101Y-211255804D01*
X327772001Y-211269738D01*
X327783156Y-211284275D01*
X327793535Y-211299376D01*
X327803109Y-211315000D01*
X327811852Y-211331103D01*
X327819741Y-211347642D01*
X327826753Y-211364571D01*
X327832870Y-211381844D01*
X327838074Y-211399413D01*
X327842352Y-211417231D01*
X327845691Y-211435248D01*
X327848083Y-211453415D01*
X327849520Y-211471682D01*
X327850000Y-211490000D01*
X327850000Y-212090000D01*
X328350000Y-212090000D01*
G36*
X302000000Y-212090000D02*
G01*
X302000000Y-212690000D01*
X301998835Y-212734486D01*
X301995344Y-212778849D01*
X301989535Y-212822969D01*
X301981425Y-212866725D01*
X301971037Y-212909996D01*
X301958398Y-212952664D01*
X301943543Y-212994613D01*
X301926514Y-213035726D01*
X301907356Y-213075892D01*
X301886122Y-213115000D01*
X301862870Y-213152943D01*
X301837664Y-213189617D01*
X301810574Y-213224922D01*
X301781673Y-213258761D01*
X301751041Y-213291041D01*
X301718761Y-213321673D01*
X301684922Y-213350574D01*
X301649617Y-213377664D01*
X301612943Y-213402870D01*
X301575000Y-213426122D01*
X301535892Y-213447356D01*
X301495726Y-213466514D01*
X301454613Y-213483543D01*
X301412664Y-213498398D01*
X301369996Y-213511037D01*
X301326725Y-213521425D01*
X301282969Y-213529535D01*
X301238849Y-213535344D01*
X301194486Y-213538835D01*
X301150000Y-213540000D01*
X301150000Y-213040000D01*
X301168318Y-213039520D01*
X301186585Y-213038083D01*
X301204752Y-213035691D01*
X301222769Y-213032352D01*
X301240587Y-213028074D01*
X301258156Y-213022870D01*
X301275429Y-213016753D01*
X301292358Y-213009741D01*
X301308897Y-213001852D01*
X301325000Y-212993109D01*
X301340624Y-212983535D01*
X301355725Y-212973156D01*
X301370262Y-212962001D01*
X301384196Y-212950101D01*
X301397487Y-212937487D01*
X301410101Y-212924196D01*
X301422001Y-212910262D01*
X301433156Y-212895725D01*
X301443535Y-212880624D01*
X301453109Y-212865000D01*
X301461852Y-212848897D01*
X301469741Y-212832358D01*
X301476753Y-212815429D01*
X301482870Y-212798156D01*
X301488074Y-212780587D01*
X301492352Y-212762769D01*
X301495691Y-212744752D01*
X301498083Y-212726585D01*
X301499520Y-212708318D01*
X301500000Y-212690000D01*
X301500000Y-212090000D01*
X302000000Y-212090000D01*
G37*
X302000000Y-212090000D02*
X302000000Y-212690000D01*
X301998835Y-212734486D01*
X301995344Y-212778849D01*
X301989535Y-212822969D01*
X301981425Y-212866725D01*
X301971037Y-212909996D01*
X301958398Y-212952664D01*
X301943543Y-212994613D01*
X301926514Y-213035726D01*
X301907356Y-213075892D01*
X301886122Y-213115000D01*
X301862870Y-213152943D01*
X301837664Y-213189617D01*
X301810574Y-213224922D01*
X301781673Y-213258761D01*
X301751041Y-213291041D01*
X301718761Y-213321673D01*
X301684922Y-213350574D01*
X301649617Y-213377664D01*
X301612943Y-213402870D01*
X301575000Y-213426122D01*
X301535892Y-213447356D01*
X301495726Y-213466514D01*
X301454613Y-213483543D01*
X301412664Y-213498398D01*
X301369996Y-213511037D01*
X301326725Y-213521425D01*
X301282969Y-213529535D01*
X301238849Y-213535344D01*
X301194486Y-213538835D01*
X301150000Y-213540000D01*
X301150000Y-213040000D01*
X301168318Y-213039520D01*
X301186585Y-213038083D01*
X301204752Y-213035691D01*
X301222769Y-213032352D01*
X301240587Y-213028074D01*
X301258156Y-213022870D01*
X301275429Y-213016753D01*
X301292358Y-213009741D01*
X301308897Y-213001852D01*
X301325000Y-212993109D01*
X301340624Y-212983535D01*
X301355725Y-212973156D01*
X301370262Y-212962001D01*
X301384196Y-212950101D01*
X301397487Y-212937487D01*
X301410101Y-212924196D01*
X301422001Y-212910262D01*
X301433156Y-212895725D01*
X301443535Y-212880624D01*
X301453109Y-212865000D01*
X301461852Y-212848897D01*
X301469741Y-212832358D01*
X301476753Y-212815429D01*
X301482870Y-212798156D01*
X301488074Y-212780587D01*
X301492352Y-212762769D01*
X301495691Y-212744752D01*
X301498083Y-212726585D01*
X301499520Y-212708318D01*
X301500000Y-212690000D01*
X301500000Y-212090000D01*
X302000000Y-212090000D01*
G36*
X300300000Y-212090000D02*
G01*
X300300000Y-212690000D01*
X300301165Y-212734486D01*
X300304656Y-212778849D01*
X300310465Y-212822969D01*
X300318575Y-212866725D01*
X300328963Y-212909996D01*
X300341602Y-212952664D01*
X300356457Y-212994613D01*
X300373486Y-213035726D01*
X300392644Y-213075892D01*
X300413878Y-213115000D01*
X300437130Y-213152943D01*
X300462336Y-213189617D01*
X300489426Y-213224922D01*
X300518327Y-213258761D01*
X300548959Y-213291041D01*
X300581239Y-213321673D01*
X300615078Y-213350574D01*
X300650383Y-213377664D01*
X300687057Y-213402870D01*
X300725000Y-213426122D01*
X300764108Y-213447356D01*
X300804274Y-213466514D01*
X300845387Y-213483543D01*
X300887336Y-213498398D01*
X300930004Y-213511037D01*
X300973275Y-213521425D01*
X301017031Y-213529535D01*
X301061151Y-213535344D01*
X301105514Y-213538835D01*
X301150000Y-213540000D01*
X301150000Y-213040000D01*
X301131682Y-213039520D01*
X301113415Y-213038083D01*
X301095248Y-213035691D01*
X301077231Y-213032352D01*
X301059413Y-213028074D01*
X301041844Y-213022870D01*
X301024571Y-213016753D01*
X301007642Y-213009741D01*
X300991103Y-213001852D01*
X300975000Y-212993109D01*
X300959376Y-212983535D01*
X300944275Y-212973156D01*
X300929738Y-212962001D01*
X300915804Y-212950101D01*
X300902513Y-212937487D01*
X300889899Y-212924196D01*
X300877999Y-212910262D01*
X300866844Y-212895725D01*
X300856465Y-212880624D01*
X300846891Y-212865000D01*
X300838148Y-212848897D01*
X300830259Y-212832358D01*
X300823247Y-212815429D01*
X300817130Y-212798156D01*
X300811926Y-212780587D01*
X300807648Y-212762769D01*
X300804309Y-212744752D01*
X300801917Y-212726585D01*
X300800480Y-212708318D01*
X300800000Y-212690000D01*
X300800000Y-212090000D01*
X300300000Y-212090000D01*
G37*
X300300000Y-212090000D02*
X300300000Y-212690000D01*
X300301165Y-212734486D01*
X300304656Y-212778849D01*
X300310465Y-212822969D01*
X300318575Y-212866725D01*
X300328963Y-212909996D01*
X300341602Y-212952664D01*
X300356457Y-212994613D01*
X300373486Y-213035726D01*
X300392644Y-213075892D01*
X300413878Y-213115000D01*
X300437130Y-213152943D01*
X300462336Y-213189617D01*
X300489426Y-213224922D01*
X300518327Y-213258761D01*
X300548959Y-213291041D01*
X300581239Y-213321673D01*
X300615078Y-213350574D01*
X300650383Y-213377664D01*
X300687057Y-213402870D01*
X300725000Y-213426122D01*
X300764108Y-213447356D01*
X300804274Y-213466514D01*
X300845387Y-213483543D01*
X300887336Y-213498398D01*
X300930004Y-213511037D01*
X300973275Y-213521425D01*
X301017031Y-213529535D01*
X301061151Y-213535344D01*
X301105514Y-213538835D01*
X301150000Y-213540000D01*
X301150000Y-213040000D01*
X301131682Y-213039520D01*
X301113415Y-213038083D01*
X301095248Y-213035691D01*
X301077231Y-213032352D01*
X301059413Y-213028074D01*
X301041844Y-213022870D01*
X301024571Y-213016753D01*
X301007642Y-213009741D01*
X300991103Y-213001852D01*
X300975000Y-212993109D01*
X300959376Y-212983535D01*
X300944275Y-212973156D01*
X300929738Y-212962001D01*
X300915804Y-212950101D01*
X300902513Y-212937487D01*
X300889899Y-212924196D01*
X300877999Y-212910262D01*
X300866844Y-212895725D01*
X300856465Y-212880624D01*
X300846891Y-212865000D01*
X300838148Y-212848897D01*
X300830259Y-212832358D01*
X300823247Y-212815429D01*
X300817130Y-212798156D01*
X300811926Y-212780587D01*
X300807648Y-212762769D01*
X300804309Y-212744752D01*
X300801917Y-212726585D01*
X300800480Y-212708318D01*
X300800000Y-212690000D01*
X300800000Y-212090000D01*
X300300000Y-212090000D01*
G36*
X300300000Y-212090000D02*
G01*
X300300000Y-211490000D01*
X300301165Y-211445514D01*
X300304656Y-211401151D01*
X300310465Y-211357031D01*
X300318575Y-211313275D01*
X300328963Y-211270004D01*
X300341602Y-211227336D01*
X300356457Y-211185387D01*
X300373486Y-211144274D01*
X300392644Y-211104108D01*
X300413878Y-211065000D01*
X300437130Y-211027057D01*
X300462336Y-210990383D01*
X300489426Y-210955078D01*
X300518327Y-210921239D01*
X300548959Y-210888959D01*
X300581239Y-210858327D01*
X300615078Y-210829426D01*
X300650383Y-210802336D01*
X300687057Y-210777130D01*
X300725000Y-210753878D01*
X300764108Y-210732644D01*
X300804274Y-210713486D01*
X300845387Y-210696457D01*
X300887336Y-210681602D01*
X300930004Y-210668963D01*
X300973275Y-210658575D01*
X301017031Y-210650465D01*
X301061151Y-210644656D01*
X301105514Y-210641165D01*
X301150000Y-210640000D01*
X301150000Y-211140000D01*
X301131682Y-211140480D01*
X301113415Y-211141917D01*
X301095248Y-211144309D01*
X301077231Y-211147648D01*
X301059413Y-211151926D01*
X301041844Y-211157130D01*
X301024571Y-211163247D01*
X301007642Y-211170259D01*
X300991103Y-211178148D01*
X300975000Y-211186891D01*
X300959376Y-211196465D01*
X300944275Y-211206844D01*
X300929738Y-211217999D01*
X300915804Y-211229899D01*
X300902513Y-211242513D01*
X300889899Y-211255804D01*
X300877999Y-211269738D01*
X300866844Y-211284275D01*
X300856465Y-211299376D01*
X300846891Y-211315000D01*
X300838148Y-211331103D01*
X300830259Y-211347642D01*
X300823247Y-211364571D01*
X300817130Y-211381844D01*
X300811926Y-211399413D01*
X300807648Y-211417231D01*
X300804309Y-211435248D01*
X300801917Y-211453415D01*
X300800480Y-211471682D01*
X300800000Y-211490000D01*
X300800000Y-212090000D01*
X300300000Y-212090000D01*
G37*
X300300000Y-212090000D02*
X300300000Y-211490000D01*
X300301165Y-211445514D01*
X300304656Y-211401151D01*
X300310465Y-211357031D01*
X300318575Y-211313275D01*
X300328963Y-211270004D01*
X300341602Y-211227336D01*
X300356457Y-211185387D01*
X300373486Y-211144274D01*
X300392644Y-211104108D01*
X300413878Y-211065000D01*
X300437130Y-211027057D01*
X300462336Y-210990383D01*
X300489426Y-210955078D01*
X300518327Y-210921239D01*
X300548959Y-210888959D01*
X300581239Y-210858327D01*
X300615078Y-210829426D01*
X300650383Y-210802336D01*
X300687057Y-210777130D01*
X300725000Y-210753878D01*
X300764108Y-210732644D01*
X300804274Y-210713486D01*
X300845387Y-210696457D01*
X300887336Y-210681602D01*
X300930004Y-210668963D01*
X300973275Y-210658575D01*
X301017031Y-210650465D01*
X301061151Y-210644656D01*
X301105514Y-210641165D01*
X301150000Y-210640000D01*
X301150000Y-211140000D01*
X301131682Y-211140480D01*
X301113415Y-211141917D01*
X301095248Y-211144309D01*
X301077231Y-211147648D01*
X301059413Y-211151926D01*
X301041844Y-211157130D01*
X301024571Y-211163247D01*
X301007642Y-211170259D01*
X300991103Y-211178148D01*
X300975000Y-211186891D01*
X300959376Y-211196465D01*
X300944275Y-211206844D01*
X300929738Y-211217999D01*
X300915804Y-211229899D01*
X300902513Y-211242513D01*
X300889899Y-211255804D01*
X300877999Y-211269738D01*
X300866844Y-211284275D01*
X300856465Y-211299376D01*
X300846891Y-211315000D01*
X300838148Y-211331103D01*
X300830259Y-211347642D01*
X300823247Y-211364571D01*
X300817130Y-211381844D01*
X300811926Y-211399413D01*
X300807648Y-211417231D01*
X300804309Y-211435248D01*
X300801917Y-211453415D01*
X300800480Y-211471682D01*
X300800000Y-211490000D01*
X300800000Y-212090000D01*
X300300000Y-212090000D01*
G36*
X302000000Y-212090000D02*
G01*
X302000000Y-211490000D01*
X301998835Y-211445514D01*
X301995344Y-211401151D01*
X301989535Y-211357031D01*
X301981425Y-211313275D01*
X301971037Y-211270004D01*
X301958398Y-211227336D01*
X301943543Y-211185387D01*
X301926514Y-211144274D01*
X301907356Y-211104108D01*
X301886122Y-211065000D01*
X301862870Y-211027057D01*
X301837664Y-210990383D01*
X301810574Y-210955078D01*
X301781673Y-210921239D01*
X301751041Y-210888959D01*
X301718761Y-210858327D01*
X301684922Y-210829426D01*
X301649617Y-210802336D01*
X301612943Y-210777130D01*
X301575000Y-210753878D01*
X301535892Y-210732644D01*
X301495726Y-210713486D01*
X301454613Y-210696457D01*
X301412664Y-210681602D01*
X301369996Y-210668963D01*
X301326725Y-210658575D01*
X301282969Y-210650465D01*
X301238849Y-210644656D01*
X301194486Y-210641165D01*
X301150000Y-210640000D01*
X301150000Y-211140000D01*
X301168318Y-211140480D01*
X301186585Y-211141917D01*
X301204752Y-211144309D01*
X301222769Y-211147648D01*
X301240587Y-211151926D01*
X301258156Y-211157130D01*
X301275429Y-211163247D01*
X301292358Y-211170259D01*
X301308897Y-211178148D01*
X301325000Y-211186891D01*
X301340624Y-211196465D01*
X301355725Y-211206844D01*
X301370262Y-211217999D01*
X301384196Y-211229899D01*
X301397487Y-211242513D01*
X301410101Y-211255804D01*
X301422001Y-211269738D01*
X301433156Y-211284275D01*
X301443535Y-211299376D01*
X301453109Y-211315000D01*
X301461852Y-211331103D01*
X301469741Y-211347642D01*
X301476753Y-211364571D01*
X301482870Y-211381844D01*
X301488074Y-211399413D01*
X301492352Y-211417231D01*
X301495691Y-211435248D01*
X301498083Y-211453415D01*
X301499520Y-211471682D01*
X301500000Y-211490000D01*
X301500000Y-212090000D01*
X302000000Y-212090000D01*
G37*
X302000000Y-212090000D02*
X302000000Y-211490000D01*
X301998835Y-211445514D01*
X301995344Y-211401151D01*
X301989535Y-211357031D01*
X301981425Y-211313275D01*
X301971037Y-211270004D01*
X301958398Y-211227336D01*
X301943543Y-211185387D01*
X301926514Y-211144274D01*
X301907356Y-211104108D01*
X301886122Y-211065000D01*
X301862870Y-211027057D01*
X301837664Y-210990383D01*
X301810574Y-210955078D01*
X301781673Y-210921239D01*
X301751041Y-210888959D01*
X301718761Y-210858327D01*
X301684922Y-210829426D01*
X301649617Y-210802336D01*
X301612943Y-210777130D01*
X301575000Y-210753878D01*
X301535892Y-210732644D01*
X301495726Y-210713486D01*
X301454613Y-210696457D01*
X301412664Y-210681602D01*
X301369996Y-210668963D01*
X301326725Y-210658575D01*
X301282969Y-210650465D01*
X301238849Y-210644656D01*
X301194486Y-210641165D01*
X301150000Y-210640000D01*
X301150000Y-211140000D01*
X301168318Y-211140480D01*
X301186585Y-211141917D01*
X301204752Y-211144309D01*
X301222769Y-211147648D01*
X301240587Y-211151926D01*
X301258156Y-211157130D01*
X301275429Y-211163247D01*
X301292358Y-211170259D01*
X301308897Y-211178148D01*
X301325000Y-211186891D01*
X301340624Y-211196465D01*
X301355725Y-211206844D01*
X301370262Y-211217999D01*
X301384196Y-211229899D01*
X301397487Y-211242513D01*
X301410101Y-211255804D01*
X301422001Y-211269738D01*
X301433156Y-211284275D01*
X301443535Y-211299376D01*
X301453109Y-211315000D01*
X301461852Y-211331103D01*
X301469741Y-211347642D01*
X301476753Y-211364571D01*
X301482870Y-211381844D01*
X301488074Y-211399413D01*
X301492352Y-211417231D01*
X301495691Y-211435248D01*
X301498083Y-211453415D01*
X301499520Y-211471682D01*
X301500000Y-211490000D01*
X301500000Y-212090000D01*
X302000000Y-212090000D01*
G36*
X309300000Y-212090000D02*
G01*
X309300000Y-212690000D01*
X309298835Y-212734486D01*
X309295344Y-212778849D01*
X309289535Y-212822969D01*
X309281425Y-212866725D01*
X309271037Y-212909996D01*
X309258398Y-212952664D01*
X309243543Y-212994613D01*
X309226514Y-213035726D01*
X309207356Y-213075892D01*
X309186122Y-213115000D01*
X309162870Y-213152943D01*
X309137664Y-213189617D01*
X309110574Y-213224922D01*
X309081673Y-213258761D01*
X309051041Y-213291041D01*
X309018761Y-213321673D01*
X308984922Y-213350574D01*
X308949617Y-213377664D01*
X308912943Y-213402870D01*
X308875000Y-213426122D01*
X308835892Y-213447356D01*
X308795726Y-213466514D01*
X308754613Y-213483543D01*
X308712664Y-213498398D01*
X308669996Y-213511037D01*
X308626725Y-213521425D01*
X308582969Y-213529535D01*
X308538849Y-213535344D01*
X308494486Y-213538835D01*
X308450000Y-213540000D01*
X308450000Y-213040000D01*
X308468318Y-213039520D01*
X308486585Y-213038083D01*
X308504752Y-213035691D01*
X308522769Y-213032352D01*
X308540587Y-213028074D01*
X308558156Y-213022870D01*
X308575429Y-213016753D01*
X308592358Y-213009741D01*
X308608897Y-213001852D01*
X308625000Y-212993109D01*
X308640624Y-212983535D01*
X308655725Y-212973156D01*
X308670262Y-212962001D01*
X308684196Y-212950101D01*
X308697487Y-212937487D01*
X308710101Y-212924196D01*
X308722001Y-212910262D01*
X308733156Y-212895725D01*
X308743535Y-212880624D01*
X308753109Y-212865000D01*
X308761852Y-212848897D01*
X308769741Y-212832358D01*
X308776753Y-212815429D01*
X308782870Y-212798156D01*
X308788074Y-212780587D01*
X308792352Y-212762769D01*
X308795691Y-212744752D01*
X308798083Y-212726585D01*
X308799520Y-212708318D01*
X308800000Y-212690000D01*
X308800000Y-212090000D01*
X309300000Y-212090000D01*
G37*
X309300000Y-212090000D02*
X309300000Y-212690000D01*
X309298835Y-212734486D01*
X309295344Y-212778849D01*
X309289535Y-212822969D01*
X309281425Y-212866725D01*
X309271037Y-212909996D01*
X309258398Y-212952664D01*
X309243543Y-212994613D01*
X309226514Y-213035726D01*
X309207356Y-213075892D01*
X309186122Y-213115000D01*
X309162870Y-213152943D01*
X309137664Y-213189617D01*
X309110574Y-213224922D01*
X309081673Y-213258761D01*
X309051041Y-213291041D01*
X309018761Y-213321673D01*
X308984922Y-213350574D01*
X308949617Y-213377664D01*
X308912943Y-213402870D01*
X308875000Y-213426122D01*
X308835892Y-213447356D01*
X308795726Y-213466514D01*
X308754613Y-213483543D01*
X308712664Y-213498398D01*
X308669996Y-213511037D01*
X308626725Y-213521425D01*
X308582969Y-213529535D01*
X308538849Y-213535344D01*
X308494486Y-213538835D01*
X308450000Y-213540000D01*
X308450000Y-213040000D01*
X308468318Y-213039520D01*
X308486585Y-213038083D01*
X308504752Y-213035691D01*
X308522769Y-213032352D01*
X308540587Y-213028074D01*
X308558156Y-213022870D01*
X308575429Y-213016753D01*
X308592358Y-213009741D01*
X308608897Y-213001852D01*
X308625000Y-212993109D01*
X308640624Y-212983535D01*
X308655725Y-212973156D01*
X308670262Y-212962001D01*
X308684196Y-212950101D01*
X308697487Y-212937487D01*
X308710101Y-212924196D01*
X308722001Y-212910262D01*
X308733156Y-212895725D01*
X308743535Y-212880624D01*
X308753109Y-212865000D01*
X308761852Y-212848897D01*
X308769741Y-212832358D01*
X308776753Y-212815429D01*
X308782870Y-212798156D01*
X308788074Y-212780587D01*
X308792352Y-212762769D01*
X308795691Y-212744752D01*
X308798083Y-212726585D01*
X308799520Y-212708318D01*
X308800000Y-212690000D01*
X308800000Y-212090000D01*
X309300000Y-212090000D01*
G36*
X307600000Y-212090000D02*
G01*
X307600000Y-212690000D01*
X307601165Y-212734486D01*
X307604656Y-212778849D01*
X307610465Y-212822969D01*
X307618575Y-212866725D01*
X307628963Y-212909996D01*
X307641602Y-212952664D01*
X307656457Y-212994613D01*
X307673486Y-213035726D01*
X307692644Y-213075892D01*
X307713878Y-213115000D01*
X307737130Y-213152943D01*
X307762336Y-213189617D01*
X307789426Y-213224922D01*
X307818327Y-213258761D01*
X307848959Y-213291041D01*
X307881239Y-213321673D01*
X307915078Y-213350574D01*
X307950383Y-213377664D01*
X307987057Y-213402870D01*
X308025000Y-213426122D01*
X308064108Y-213447356D01*
X308104274Y-213466514D01*
X308145387Y-213483543D01*
X308187336Y-213498398D01*
X308230004Y-213511037D01*
X308273275Y-213521425D01*
X308317031Y-213529535D01*
X308361151Y-213535344D01*
X308405514Y-213538835D01*
X308450000Y-213540000D01*
X308450000Y-213040000D01*
X308431682Y-213039520D01*
X308413415Y-213038083D01*
X308395248Y-213035691D01*
X308377231Y-213032352D01*
X308359413Y-213028074D01*
X308341844Y-213022870D01*
X308324571Y-213016753D01*
X308307642Y-213009741D01*
X308291103Y-213001852D01*
X308275000Y-212993109D01*
X308259376Y-212983535D01*
X308244275Y-212973156D01*
X308229738Y-212962001D01*
X308215804Y-212950101D01*
X308202513Y-212937487D01*
X308189899Y-212924196D01*
X308177999Y-212910262D01*
X308166844Y-212895725D01*
X308156465Y-212880624D01*
X308146891Y-212865000D01*
X308138148Y-212848897D01*
X308130259Y-212832358D01*
X308123247Y-212815429D01*
X308117130Y-212798156D01*
X308111926Y-212780587D01*
X308107648Y-212762769D01*
X308104309Y-212744752D01*
X308101917Y-212726585D01*
X308100480Y-212708318D01*
X308100000Y-212690000D01*
X308100000Y-212090000D01*
X307600000Y-212090000D01*
G37*
X307600000Y-212090000D02*
X307600000Y-212690000D01*
X307601165Y-212734486D01*
X307604656Y-212778849D01*
X307610465Y-212822969D01*
X307618575Y-212866725D01*
X307628963Y-212909996D01*
X307641602Y-212952664D01*
X307656457Y-212994613D01*
X307673486Y-213035726D01*
X307692644Y-213075892D01*
X307713878Y-213115000D01*
X307737130Y-213152943D01*
X307762336Y-213189617D01*
X307789426Y-213224922D01*
X307818327Y-213258761D01*
X307848959Y-213291041D01*
X307881239Y-213321673D01*
X307915078Y-213350574D01*
X307950383Y-213377664D01*
X307987057Y-213402870D01*
X308025000Y-213426122D01*
X308064108Y-213447356D01*
X308104274Y-213466514D01*
X308145387Y-213483543D01*
X308187336Y-213498398D01*
X308230004Y-213511037D01*
X308273275Y-213521425D01*
X308317031Y-213529535D01*
X308361151Y-213535344D01*
X308405514Y-213538835D01*
X308450000Y-213540000D01*
X308450000Y-213040000D01*
X308431682Y-213039520D01*
X308413415Y-213038083D01*
X308395248Y-213035691D01*
X308377231Y-213032352D01*
X308359413Y-213028074D01*
X308341844Y-213022870D01*
X308324571Y-213016753D01*
X308307642Y-213009741D01*
X308291103Y-213001852D01*
X308275000Y-212993109D01*
X308259376Y-212983535D01*
X308244275Y-212973156D01*
X308229738Y-212962001D01*
X308215804Y-212950101D01*
X308202513Y-212937487D01*
X308189899Y-212924196D01*
X308177999Y-212910262D01*
X308166844Y-212895725D01*
X308156465Y-212880624D01*
X308146891Y-212865000D01*
X308138148Y-212848897D01*
X308130259Y-212832358D01*
X308123247Y-212815429D01*
X308117130Y-212798156D01*
X308111926Y-212780587D01*
X308107648Y-212762769D01*
X308104309Y-212744752D01*
X308101917Y-212726585D01*
X308100480Y-212708318D01*
X308100000Y-212690000D01*
X308100000Y-212090000D01*
X307600000Y-212090000D01*
G36*
X307600000Y-212090000D02*
G01*
X307600000Y-211490000D01*
X307601165Y-211445514D01*
X307604656Y-211401151D01*
X307610465Y-211357031D01*
X307618575Y-211313275D01*
X307628963Y-211270004D01*
X307641602Y-211227336D01*
X307656457Y-211185387D01*
X307673486Y-211144274D01*
X307692644Y-211104108D01*
X307713878Y-211065000D01*
X307737130Y-211027057D01*
X307762336Y-210990383D01*
X307789426Y-210955078D01*
X307818327Y-210921239D01*
X307848959Y-210888959D01*
X307881239Y-210858327D01*
X307915078Y-210829426D01*
X307950383Y-210802336D01*
X307987057Y-210777130D01*
X308025000Y-210753878D01*
X308064108Y-210732644D01*
X308104274Y-210713486D01*
X308145387Y-210696457D01*
X308187336Y-210681602D01*
X308230004Y-210668963D01*
X308273275Y-210658575D01*
X308317031Y-210650465D01*
X308361151Y-210644656D01*
X308405514Y-210641165D01*
X308450000Y-210640000D01*
X308450000Y-211140000D01*
X308431682Y-211140480D01*
X308413415Y-211141917D01*
X308395248Y-211144309D01*
X308377231Y-211147648D01*
X308359413Y-211151926D01*
X308341844Y-211157130D01*
X308324571Y-211163247D01*
X308307642Y-211170259D01*
X308291103Y-211178148D01*
X308275000Y-211186891D01*
X308259376Y-211196465D01*
X308244275Y-211206844D01*
X308229738Y-211217999D01*
X308215804Y-211229899D01*
X308202513Y-211242513D01*
X308189899Y-211255804D01*
X308177999Y-211269738D01*
X308166844Y-211284275D01*
X308156465Y-211299376D01*
X308146891Y-211315000D01*
X308138148Y-211331103D01*
X308130259Y-211347642D01*
X308123247Y-211364571D01*
X308117130Y-211381844D01*
X308111926Y-211399413D01*
X308107648Y-211417231D01*
X308104309Y-211435248D01*
X308101917Y-211453415D01*
X308100480Y-211471682D01*
X308100000Y-211490000D01*
X308100000Y-212090000D01*
X307600000Y-212090000D01*
G37*
X307600000Y-212090000D02*
X307600000Y-211490000D01*
X307601165Y-211445514D01*
X307604656Y-211401151D01*
X307610465Y-211357031D01*
X307618575Y-211313275D01*
X307628963Y-211270004D01*
X307641602Y-211227336D01*
X307656457Y-211185387D01*
X307673486Y-211144274D01*
X307692644Y-211104108D01*
X307713878Y-211065000D01*
X307737130Y-211027057D01*
X307762336Y-210990383D01*
X307789426Y-210955078D01*
X307818327Y-210921239D01*
X307848959Y-210888959D01*
X307881239Y-210858327D01*
X307915078Y-210829426D01*
X307950383Y-210802336D01*
X307987057Y-210777130D01*
X308025000Y-210753878D01*
X308064108Y-210732644D01*
X308104274Y-210713486D01*
X308145387Y-210696457D01*
X308187336Y-210681602D01*
X308230004Y-210668963D01*
X308273275Y-210658575D01*
X308317031Y-210650465D01*
X308361151Y-210644656D01*
X308405514Y-210641165D01*
X308450000Y-210640000D01*
X308450000Y-211140000D01*
X308431682Y-211140480D01*
X308413415Y-211141917D01*
X308395248Y-211144309D01*
X308377231Y-211147648D01*
X308359413Y-211151926D01*
X308341844Y-211157130D01*
X308324571Y-211163247D01*
X308307642Y-211170259D01*
X308291103Y-211178148D01*
X308275000Y-211186891D01*
X308259376Y-211196465D01*
X308244275Y-211206844D01*
X308229738Y-211217999D01*
X308215804Y-211229899D01*
X308202513Y-211242513D01*
X308189899Y-211255804D01*
X308177999Y-211269738D01*
X308166844Y-211284275D01*
X308156465Y-211299376D01*
X308146891Y-211315000D01*
X308138148Y-211331103D01*
X308130259Y-211347642D01*
X308123247Y-211364571D01*
X308117130Y-211381844D01*
X308111926Y-211399413D01*
X308107648Y-211417231D01*
X308104309Y-211435248D01*
X308101917Y-211453415D01*
X308100480Y-211471682D01*
X308100000Y-211490000D01*
X308100000Y-212090000D01*
X307600000Y-212090000D01*
G36*
X309300000Y-212090000D02*
G01*
X309300000Y-211490000D01*
X309298835Y-211445514D01*
X309295344Y-211401151D01*
X309289535Y-211357031D01*
X309281425Y-211313275D01*
X309271037Y-211270004D01*
X309258398Y-211227336D01*
X309243543Y-211185387D01*
X309226514Y-211144274D01*
X309207356Y-211104108D01*
X309186122Y-211065000D01*
X309162870Y-211027057D01*
X309137664Y-210990383D01*
X309110574Y-210955078D01*
X309081673Y-210921239D01*
X309051041Y-210888959D01*
X309018761Y-210858327D01*
X308984922Y-210829426D01*
X308949617Y-210802336D01*
X308912943Y-210777130D01*
X308875000Y-210753878D01*
X308835892Y-210732644D01*
X308795726Y-210713486D01*
X308754613Y-210696457D01*
X308712664Y-210681602D01*
X308669996Y-210668963D01*
X308626725Y-210658575D01*
X308582969Y-210650465D01*
X308538849Y-210644656D01*
X308494486Y-210641165D01*
X308450000Y-210640000D01*
X308450000Y-211140000D01*
X308468318Y-211140480D01*
X308486585Y-211141917D01*
X308504752Y-211144309D01*
X308522769Y-211147648D01*
X308540587Y-211151926D01*
X308558156Y-211157130D01*
X308575429Y-211163247D01*
X308592358Y-211170259D01*
X308608897Y-211178148D01*
X308625000Y-211186891D01*
X308640624Y-211196465D01*
X308655725Y-211206844D01*
X308670262Y-211217999D01*
X308684196Y-211229899D01*
X308697487Y-211242513D01*
X308710101Y-211255804D01*
X308722001Y-211269738D01*
X308733156Y-211284275D01*
X308743535Y-211299376D01*
X308753109Y-211315000D01*
X308761852Y-211331103D01*
X308769741Y-211347642D01*
X308776753Y-211364571D01*
X308782870Y-211381844D01*
X308788074Y-211399413D01*
X308792352Y-211417231D01*
X308795691Y-211435248D01*
X308798083Y-211453415D01*
X308799520Y-211471682D01*
X308800000Y-211490000D01*
X308800000Y-212090000D01*
X309300000Y-212090000D01*
G37*
X309300000Y-212090000D02*
X309300000Y-211490000D01*
X309298835Y-211445514D01*
X309295344Y-211401151D01*
X309289535Y-211357031D01*
X309281425Y-211313275D01*
X309271037Y-211270004D01*
X309258398Y-211227336D01*
X309243543Y-211185387D01*
X309226514Y-211144274D01*
X309207356Y-211104108D01*
X309186122Y-211065000D01*
X309162870Y-211027057D01*
X309137664Y-210990383D01*
X309110574Y-210955078D01*
X309081673Y-210921239D01*
X309051041Y-210888959D01*
X309018761Y-210858327D01*
X308984922Y-210829426D01*
X308949617Y-210802336D01*
X308912943Y-210777130D01*
X308875000Y-210753878D01*
X308835892Y-210732644D01*
X308795726Y-210713486D01*
X308754613Y-210696457D01*
X308712664Y-210681602D01*
X308669996Y-210668963D01*
X308626725Y-210658575D01*
X308582969Y-210650465D01*
X308538849Y-210644656D01*
X308494486Y-210641165D01*
X308450000Y-210640000D01*
X308450000Y-211140000D01*
X308468318Y-211140480D01*
X308486585Y-211141917D01*
X308504752Y-211144309D01*
X308522769Y-211147648D01*
X308540587Y-211151926D01*
X308558156Y-211157130D01*
X308575429Y-211163247D01*
X308592358Y-211170259D01*
X308608897Y-211178148D01*
X308625000Y-211186891D01*
X308640624Y-211196465D01*
X308655725Y-211206844D01*
X308670262Y-211217999D01*
X308684196Y-211229899D01*
X308697487Y-211242513D01*
X308710101Y-211255804D01*
X308722001Y-211269738D01*
X308733156Y-211284275D01*
X308743535Y-211299376D01*
X308753109Y-211315000D01*
X308761852Y-211331103D01*
X308769741Y-211347642D01*
X308776753Y-211364571D01*
X308782870Y-211381844D01*
X308788074Y-211399413D01*
X308792352Y-211417231D01*
X308795691Y-211435248D01*
X308798083Y-211453415D01*
X308799520Y-211471682D01*
X308800000Y-211490000D01*
X308800000Y-212090000D01*
X309300000Y-212090000D01*
M02*
