G04 #@! TF.GenerationSoftware,KiCad,Pcbnew,5.1.5-52549c5~84~ubuntu18.04.1*
G04 #@! TF.CreationDate,2020-02-03T02:30:07-05:00*
G04 #@! TF.ProjectId,cropdroid-reservoir,63726f70-6472-46f6-9964-2d7265736572,v1*
G04 #@! TF.SameCoordinates,Original*
G04 #@! TF.FileFunction,Copper,L2,Bot*
G04 #@! TF.FilePolarity,Positive*
%FSLAX46Y46*%
G04 Gerber Fmt 4.6, Leading zero omitted, Abs format (unit mm)*
G04 Created by KiCad (PCBNEW 5.1.5-52549c5~84~ubuntu18.04.1) date 2020-02-03 02:30:07*
%MOMM*%
%LPD*%
G04 APERTURE LIST*
%ADD10R,2.500000X2.500000*%
%ADD11C,2.500000*%
%ADD12R,1.800000X2.500000*%
%ADD13R,2.500000X1.800000*%
%ADD14C,2.100000*%
%ADD15C,1.620010*%
%ADD16R,2.600000X2.000000*%
%ADD17R,2.000000X2.600000*%
%ADD18C,1.760000*%
%ADD19R,1.760000X1.760000*%
%ADD20C,3.090000*%
%ADD21C,3.290000*%
%ADD22R,1.600000X1.600000*%
%ADD23C,1.600000*%
%ADD24O,1.400000X1.400000*%
%ADD25C,1.400000*%
%ADD26C,1.800000*%
%ADD27R,1.800000X1.800000*%
%ADD28C,0.254000*%
%ADD29C,2.794000*%
%ADD30C,0.762000*%
G04 APERTURE END LIST*
D10*
X117856000Y-67056000D03*
D11*
X112856000Y-67056000D03*
D12*
X106506000Y-120396000D03*
X116506000Y-120396000D03*
D13*
X111506000Y-125396000D03*
X127000000Y-125396000D03*
D12*
X132000000Y-120396000D03*
X122000000Y-120396000D03*
X137494000Y-120396000D03*
X147494000Y-120396000D03*
D13*
X142494000Y-125396000D03*
D12*
X152734000Y-120396000D03*
X162734000Y-120396000D03*
D13*
X157734000Y-125396000D03*
X173482000Y-125142000D03*
D12*
X178482000Y-120142000D03*
X168482000Y-120142000D03*
D14*
X201422000Y-113792000D03*
X203962000Y-113792000D03*
X206502000Y-113792000D03*
D11*
X144606000Y-67310000D03*
D10*
X149606000Y-67310000D03*
X181102000Y-67056000D03*
D11*
X176102000Y-67056000D03*
D15*
X66802000Y-74930000D03*
X69342000Y-74930000D03*
X66802000Y-77470000D03*
X69342000Y-77470000D03*
X66802000Y-80010000D03*
X69342000Y-80010000D03*
X66802000Y-82550000D03*
X69342000Y-82550000D03*
X66802000Y-85090000D03*
X69342000Y-85090000D03*
X66802000Y-87630000D03*
X69342000Y-87630000D03*
X66802000Y-90170000D03*
X69342000Y-90170000D03*
X66802000Y-92710000D03*
X69342000Y-92710000D03*
X66802000Y-95250000D03*
X69342000Y-95250000D03*
X66802000Y-97790000D03*
X69342000Y-97790000D03*
X66802000Y-100330000D03*
X69342000Y-100330000D03*
X66802000Y-102870000D03*
X69342000Y-102870000D03*
X66802000Y-105410000D03*
X69342000Y-105410000D03*
X66802000Y-107950000D03*
X69342000Y-107950000D03*
X66802000Y-110490000D03*
X69342000Y-110490000D03*
X66802000Y-113030000D03*
X69342000Y-113030000D03*
X66802000Y-115570000D03*
X69342000Y-115570000D03*
X66802000Y-118110000D03*
X69342000Y-118110000D03*
D16*
X226314000Y-102998000D03*
D17*
X229314000Y-98298000D03*
X223314000Y-98298000D03*
D18*
X119380000Y-100076000D03*
D19*
X109220000Y-100076000D03*
D20*
X105410000Y-87376000D03*
D21*
X123190000Y-84836000D03*
X154940000Y-84836000D03*
D20*
X137160000Y-87376000D03*
D19*
X140970000Y-100076000D03*
D18*
X151130000Y-100076000D03*
X182880000Y-100076000D03*
D19*
X172720000Y-100076000D03*
D20*
X168910000Y-87376000D03*
D21*
X186690000Y-84836000D03*
D22*
X82550000Y-78740000D03*
D23*
X82550000Y-81280000D03*
X82550000Y-83820000D03*
X82550000Y-86360000D03*
X82550000Y-88900000D03*
X82550000Y-91440000D03*
X82550000Y-93980000D03*
X90170000Y-93980000D03*
X90170000Y-91440000D03*
X90170000Y-88900000D03*
X90170000Y-86360000D03*
X90170000Y-83820000D03*
X90170000Y-81280000D03*
X90170000Y-78740000D03*
X82550000Y-96520000D03*
X90170000Y-96520000D03*
D24*
X90170000Y-112522000D03*
D25*
X90170000Y-104902000D03*
X90170000Y-118110000D03*
D24*
X90170000Y-125730000D03*
X200660000Y-123190000D03*
D25*
X208280000Y-123190000D03*
X114808000Y-114808000D03*
D24*
X107188000Y-114808000D03*
D26*
X200914000Y-98298000D03*
X200914000Y-93218000D03*
X200914000Y-90678000D03*
X200914000Y-88138000D03*
X205994000Y-88138000D03*
X205994000Y-90678000D03*
X205994000Y-93218000D03*
D27*
X205994000Y-98298000D03*
D28*
X222139802Y-88138000D02*
X207266792Y-88138000D01*
X231092010Y-97090208D02*
X222139802Y-88138000D01*
X231092010Y-106006277D02*
X231092010Y-97090208D01*
X210802286Y-126296000D02*
X231092010Y-106006277D01*
X174986000Y-126296000D02*
X210802286Y-126296000D01*
X207266792Y-88138000D02*
X205994000Y-88138000D01*
X173832000Y-125142000D02*
X174986000Y-126296000D01*
X173482000Y-125142000D02*
X173832000Y-125142000D01*
X200014001Y-92318001D02*
X200914000Y-93218000D01*
X199632999Y-91936999D02*
X200014001Y-92318001D01*
X199632999Y-87523119D02*
X199632999Y-91936999D01*
X204712999Y-86856999D02*
X200299119Y-86856999D01*
X200299119Y-86856999D02*
X199632999Y-87523119D01*
X205994000Y-88138000D02*
X204712999Y-86856999D01*
D29*
X120259999Y-100955999D02*
X119380000Y-100076000D01*
X124953001Y-105649001D02*
X120259999Y-100955999D01*
X229314000Y-105269802D02*
X228934801Y-105649001D01*
X229314000Y-98298000D02*
X229314000Y-105269802D01*
D28*
X152009999Y-105527999D02*
X152146000Y-105664000D01*
X151130000Y-100076000D02*
X152009999Y-100955999D01*
X182880000Y-100076000D02*
X182880000Y-105410000D01*
X182880000Y-105410000D02*
X182626000Y-105664000D01*
D29*
X228934801Y-105649001D02*
X182626000Y-105664000D01*
D28*
X126018999Y-107661001D02*
X128016000Y-105664000D01*
X127000000Y-124242000D02*
X126018999Y-123260999D01*
X127000000Y-125396000D02*
X127000000Y-124242000D01*
X126018999Y-123260999D02*
X126018999Y-107661001D01*
D29*
X128016000Y-105664000D02*
X124953001Y-105649001D01*
D28*
X143510000Y-123226000D02*
X143510000Y-105664000D01*
X142494000Y-125396000D02*
X142494000Y-124242000D01*
X142494000Y-124242000D02*
X143510000Y-123226000D01*
D29*
X152146000Y-105664000D02*
X143510000Y-105664000D01*
X143510000Y-105664000D02*
X128016000Y-105664000D01*
D28*
X156752999Y-124764999D02*
X156752999Y-106391001D01*
X156752999Y-106391001D02*
X157480000Y-105664000D01*
X157384000Y-125396000D02*
X156752999Y-124764999D01*
D29*
X182626000Y-105664000D02*
X157480000Y-105664000D01*
D28*
X157734000Y-125396000D02*
X157384000Y-125396000D01*
D29*
X157480000Y-105664000D02*
X152146000Y-105664000D01*
D28*
X118500001Y-99196001D02*
X119380000Y-100076000D01*
X90170000Y-96520000D02*
X90969999Y-97319999D01*
X90170000Y-96520000D02*
X90170000Y-105156000D01*
D30*
X115824000Y-96520000D02*
X90170000Y-96520000D01*
X119380000Y-100076000D02*
X115824000Y-96520000D01*
D28*
X152146000Y-101092000D02*
X151130000Y-100076000D01*
X152146000Y-105664000D02*
X152146000Y-101092000D01*
G36*
X233022273Y-133960000D02*
G01*
X64162279Y-133960000D01*
X64183608Y-127774363D01*
X105271000Y-127774363D01*
X105271000Y-128017637D01*
X105318460Y-128256236D01*
X105411557Y-128480992D01*
X105546713Y-128683267D01*
X105718733Y-128855287D01*
X105921008Y-128990443D01*
X106145764Y-129083540D01*
X106384363Y-129131000D01*
X106627637Y-129131000D01*
X106866236Y-129083540D01*
X107090992Y-128990443D01*
X107293267Y-128855287D01*
X107465287Y-128683267D01*
X107600443Y-128480992D01*
X107693540Y-128256236D01*
X107741000Y-128017637D01*
X107741000Y-127774363D01*
X115271000Y-127774363D01*
X115271000Y-128017637D01*
X115318460Y-128256236D01*
X115411557Y-128480992D01*
X115546713Y-128683267D01*
X115718733Y-128855287D01*
X115921008Y-128990443D01*
X116145764Y-129083540D01*
X116384363Y-129131000D01*
X116627637Y-129131000D01*
X116866236Y-129083540D01*
X117090992Y-128990443D01*
X117293267Y-128855287D01*
X117465287Y-128683267D01*
X117600443Y-128480992D01*
X117693540Y-128256236D01*
X117741000Y-128017637D01*
X117741000Y-127774363D01*
X120765000Y-127774363D01*
X120765000Y-128017637D01*
X120812460Y-128256236D01*
X120905557Y-128480992D01*
X121040713Y-128683267D01*
X121212733Y-128855287D01*
X121415008Y-128990443D01*
X121639764Y-129083540D01*
X121878363Y-129131000D01*
X122121637Y-129131000D01*
X122360236Y-129083540D01*
X122584992Y-128990443D01*
X122787267Y-128855287D01*
X122959287Y-128683267D01*
X123094443Y-128480992D01*
X123187540Y-128256236D01*
X123235000Y-128017637D01*
X123235000Y-127774363D01*
X130765000Y-127774363D01*
X130765000Y-128017637D01*
X130812460Y-128256236D01*
X130905557Y-128480992D01*
X131040713Y-128683267D01*
X131212733Y-128855287D01*
X131415008Y-128990443D01*
X131639764Y-129083540D01*
X131878363Y-129131000D01*
X132121637Y-129131000D01*
X132360236Y-129083540D01*
X132584992Y-128990443D01*
X132787267Y-128855287D01*
X132959287Y-128683267D01*
X133094443Y-128480992D01*
X133187540Y-128256236D01*
X133235000Y-128017637D01*
X133235000Y-127774363D01*
X136259000Y-127774363D01*
X136259000Y-128017637D01*
X136306460Y-128256236D01*
X136399557Y-128480992D01*
X136534713Y-128683267D01*
X136706733Y-128855287D01*
X136909008Y-128990443D01*
X137133764Y-129083540D01*
X137372363Y-129131000D01*
X137615637Y-129131000D01*
X137854236Y-129083540D01*
X138078992Y-128990443D01*
X138281267Y-128855287D01*
X138453287Y-128683267D01*
X138588443Y-128480992D01*
X138681540Y-128256236D01*
X138729000Y-128017637D01*
X138729000Y-127774363D01*
X146259000Y-127774363D01*
X146259000Y-128017637D01*
X146306460Y-128256236D01*
X146399557Y-128480992D01*
X146534713Y-128683267D01*
X146706733Y-128855287D01*
X146909008Y-128990443D01*
X147133764Y-129083540D01*
X147372363Y-129131000D01*
X147615637Y-129131000D01*
X147854236Y-129083540D01*
X148078992Y-128990443D01*
X148281267Y-128855287D01*
X148453287Y-128683267D01*
X148588443Y-128480992D01*
X148681540Y-128256236D01*
X148729000Y-128017637D01*
X148729000Y-127774363D01*
X151499000Y-127774363D01*
X151499000Y-128017637D01*
X151546460Y-128256236D01*
X151639557Y-128480992D01*
X151774713Y-128683267D01*
X151946733Y-128855287D01*
X152149008Y-128990443D01*
X152373764Y-129083540D01*
X152612363Y-129131000D01*
X152855637Y-129131000D01*
X153094236Y-129083540D01*
X153318992Y-128990443D01*
X153521267Y-128855287D01*
X153693287Y-128683267D01*
X153828443Y-128480992D01*
X153921540Y-128256236D01*
X153969000Y-128017637D01*
X153969000Y-127774363D01*
X161499000Y-127774363D01*
X161499000Y-128017637D01*
X161546460Y-128256236D01*
X161639557Y-128480992D01*
X161774713Y-128683267D01*
X161946733Y-128855287D01*
X162149008Y-128990443D01*
X162373764Y-129083540D01*
X162612363Y-129131000D01*
X162855637Y-129131000D01*
X163094236Y-129083540D01*
X163318992Y-128990443D01*
X163521267Y-128855287D01*
X163693287Y-128683267D01*
X163828443Y-128480992D01*
X163921540Y-128256236D01*
X163969000Y-128017637D01*
X163969000Y-127774363D01*
X163921540Y-127535764D01*
X163915161Y-127520363D01*
X167247000Y-127520363D01*
X167247000Y-127763637D01*
X167294460Y-128002236D01*
X167387557Y-128226992D01*
X167522713Y-128429267D01*
X167694733Y-128601287D01*
X167897008Y-128736443D01*
X168121764Y-128829540D01*
X168360363Y-128877000D01*
X168603637Y-128877000D01*
X168842236Y-128829540D01*
X169066992Y-128736443D01*
X169269267Y-128601287D01*
X169441287Y-128429267D01*
X169576443Y-128226992D01*
X169669540Y-128002236D01*
X169717000Y-127763637D01*
X169717000Y-127520363D01*
X169669540Y-127281764D01*
X169576443Y-127057008D01*
X169441287Y-126854733D01*
X169269267Y-126682713D01*
X169066992Y-126547557D01*
X168842236Y-126454460D01*
X168603637Y-126407000D01*
X168360363Y-126407000D01*
X168121764Y-126454460D01*
X167897008Y-126547557D01*
X167694733Y-126682713D01*
X167522713Y-126854733D01*
X167387557Y-127057008D01*
X167294460Y-127281764D01*
X167247000Y-127520363D01*
X163915161Y-127520363D01*
X163828443Y-127311008D01*
X163693287Y-127108733D01*
X163521267Y-126936713D01*
X163318992Y-126801557D01*
X163094236Y-126708460D01*
X162855637Y-126661000D01*
X162612363Y-126661000D01*
X162373764Y-126708460D01*
X162149008Y-126801557D01*
X161946733Y-126936713D01*
X161774713Y-127108733D01*
X161639557Y-127311008D01*
X161546460Y-127535764D01*
X161499000Y-127774363D01*
X153969000Y-127774363D01*
X153921540Y-127535764D01*
X153828443Y-127311008D01*
X153693287Y-127108733D01*
X153521267Y-126936713D01*
X153318992Y-126801557D01*
X153094236Y-126708460D01*
X152855637Y-126661000D01*
X152612363Y-126661000D01*
X152373764Y-126708460D01*
X152149008Y-126801557D01*
X151946733Y-126936713D01*
X151774713Y-127108733D01*
X151639557Y-127311008D01*
X151546460Y-127535764D01*
X151499000Y-127774363D01*
X148729000Y-127774363D01*
X148681540Y-127535764D01*
X148588443Y-127311008D01*
X148453287Y-127108733D01*
X148281267Y-126936713D01*
X148078992Y-126801557D01*
X147854236Y-126708460D01*
X147615637Y-126661000D01*
X147372363Y-126661000D01*
X147133764Y-126708460D01*
X146909008Y-126801557D01*
X146706733Y-126936713D01*
X146534713Y-127108733D01*
X146399557Y-127311008D01*
X146306460Y-127535764D01*
X146259000Y-127774363D01*
X138729000Y-127774363D01*
X138681540Y-127535764D01*
X138588443Y-127311008D01*
X138453287Y-127108733D01*
X138281267Y-126936713D01*
X138078992Y-126801557D01*
X137854236Y-126708460D01*
X137615637Y-126661000D01*
X137372363Y-126661000D01*
X137133764Y-126708460D01*
X136909008Y-126801557D01*
X136706733Y-126936713D01*
X136534713Y-127108733D01*
X136399557Y-127311008D01*
X136306460Y-127535764D01*
X136259000Y-127774363D01*
X133235000Y-127774363D01*
X133187540Y-127535764D01*
X133094443Y-127311008D01*
X132959287Y-127108733D01*
X132787267Y-126936713D01*
X132584992Y-126801557D01*
X132360236Y-126708460D01*
X132121637Y-126661000D01*
X131878363Y-126661000D01*
X131639764Y-126708460D01*
X131415008Y-126801557D01*
X131212733Y-126936713D01*
X131040713Y-127108733D01*
X130905557Y-127311008D01*
X130812460Y-127535764D01*
X130765000Y-127774363D01*
X123235000Y-127774363D01*
X123187540Y-127535764D01*
X123094443Y-127311008D01*
X122959287Y-127108733D01*
X122787267Y-126936713D01*
X122584992Y-126801557D01*
X122360236Y-126708460D01*
X122121637Y-126661000D01*
X121878363Y-126661000D01*
X121639764Y-126708460D01*
X121415008Y-126801557D01*
X121212733Y-126936713D01*
X121040713Y-127108733D01*
X120905557Y-127311008D01*
X120812460Y-127535764D01*
X120765000Y-127774363D01*
X117741000Y-127774363D01*
X117693540Y-127535764D01*
X117600443Y-127311008D01*
X117465287Y-127108733D01*
X117293267Y-126936713D01*
X117090992Y-126801557D01*
X116866236Y-126708460D01*
X116627637Y-126661000D01*
X116384363Y-126661000D01*
X116145764Y-126708460D01*
X115921008Y-126801557D01*
X115718733Y-126936713D01*
X115546713Y-127108733D01*
X115411557Y-127311008D01*
X115318460Y-127535764D01*
X115271000Y-127774363D01*
X107741000Y-127774363D01*
X107693540Y-127535764D01*
X107600443Y-127311008D01*
X107465287Y-127108733D01*
X107293267Y-126936713D01*
X107090992Y-126801557D01*
X106866236Y-126708460D01*
X106627637Y-126661000D01*
X106384363Y-126661000D01*
X106145764Y-126708460D01*
X105921008Y-126801557D01*
X105718733Y-126936713D01*
X105546713Y-127108733D01*
X105411557Y-127311008D01*
X105318460Y-127535764D01*
X105271000Y-127774363D01*
X64183608Y-127774363D01*
X64189508Y-126063330D01*
X88877278Y-126063330D01*
X88967147Y-126309123D01*
X89103241Y-126532660D01*
X89280330Y-126725351D01*
X89491608Y-126879792D01*
X89728956Y-126990047D01*
X89836671Y-127022716D01*
X90043000Y-126899374D01*
X90043000Y-125857000D01*
X90297000Y-125857000D01*
X90297000Y-126899374D01*
X90503329Y-127022716D01*
X90611044Y-126990047D01*
X90848392Y-126879792D01*
X91059670Y-126725351D01*
X91236759Y-126532660D01*
X91372853Y-126309123D01*
X91462722Y-126063330D01*
X91340201Y-125857000D01*
X90297000Y-125857000D01*
X90043000Y-125857000D01*
X88999799Y-125857000D01*
X88877278Y-126063330D01*
X64189508Y-126063330D01*
X64191806Y-125396670D01*
X88877278Y-125396670D01*
X88999799Y-125603000D01*
X90043000Y-125603000D01*
X90043000Y-124560626D01*
X90297000Y-124560626D01*
X90297000Y-125603000D01*
X91340201Y-125603000D01*
X91462722Y-125396670D01*
X91418004Y-125274363D01*
X105271000Y-125274363D01*
X105271000Y-125517637D01*
X105318460Y-125756236D01*
X105411557Y-125980992D01*
X105546713Y-126183267D01*
X105718733Y-126355287D01*
X105921008Y-126490443D01*
X106145764Y-126583540D01*
X106384363Y-126631000D01*
X106627637Y-126631000D01*
X106866236Y-126583540D01*
X107090992Y-126490443D01*
X107293267Y-126355287D01*
X107352554Y-126296000D01*
X109617928Y-126296000D01*
X109630188Y-126420482D01*
X109666498Y-126540180D01*
X109725463Y-126650494D01*
X109804815Y-126747185D01*
X109901506Y-126826537D01*
X110011820Y-126885502D01*
X110131518Y-126921812D01*
X110256000Y-126934072D01*
X111220250Y-126931000D01*
X111379000Y-126772250D01*
X111379000Y-125523000D01*
X111633000Y-125523000D01*
X111633000Y-126772250D01*
X111791750Y-126931000D01*
X112756000Y-126934072D01*
X112880482Y-126921812D01*
X113000180Y-126885502D01*
X113110494Y-126826537D01*
X113207185Y-126747185D01*
X113286537Y-126650494D01*
X113345502Y-126540180D01*
X113381812Y-126420482D01*
X113394072Y-126296000D01*
X113391000Y-125681750D01*
X113232250Y-125523000D01*
X111633000Y-125523000D01*
X111379000Y-125523000D01*
X109779750Y-125523000D01*
X109621000Y-125681750D01*
X109617928Y-126296000D01*
X107352554Y-126296000D01*
X107465287Y-126183267D01*
X107600443Y-125980992D01*
X107693540Y-125756236D01*
X107741000Y-125517637D01*
X107741000Y-125274363D01*
X115271000Y-125274363D01*
X115271000Y-125517637D01*
X115318460Y-125756236D01*
X115411557Y-125980992D01*
X115546713Y-126183267D01*
X115718733Y-126355287D01*
X115921008Y-126490443D01*
X116145764Y-126583540D01*
X116384363Y-126631000D01*
X116627637Y-126631000D01*
X116866236Y-126583540D01*
X117090992Y-126490443D01*
X117293267Y-126355287D01*
X117465287Y-126183267D01*
X117600443Y-125980992D01*
X117693540Y-125756236D01*
X117741000Y-125517637D01*
X117741000Y-125274363D01*
X120765000Y-125274363D01*
X120765000Y-125517637D01*
X120812460Y-125756236D01*
X120905557Y-125980992D01*
X121040713Y-126183267D01*
X121212733Y-126355287D01*
X121415008Y-126490443D01*
X121639764Y-126583540D01*
X121878363Y-126631000D01*
X122121637Y-126631000D01*
X122360236Y-126583540D01*
X122584992Y-126490443D01*
X122787267Y-126355287D01*
X122959287Y-126183267D01*
X123094443Y-125980992D01*
X123187540Y-125756236D01*
X123235000Y-125517637D01*
X123235000Y-125274363D01*
X123187540Y-125035764D01*
X123094443Y-124811008D01*
X122959287Y-124608733D01*
X122787267Y-124436713D01*
X122584992Y-124301557D01*
X122360236Y-124208460D01*
X122121637Y-124161000D01*
X121878363Y-124161000D01*
X121639764Y-124208460D01*
X121415008Y-124301557D01*
X121212733Y-124436713D01*
X121040713Y-124608733D01*
X120905557Y-124811008D01*
X120812460Y-125035764D01*
X120765000Y-125274363D01*
X117741000Y-125274363D01*
X117693540Y-125035764D01*
X117600443Y-124811008D01*
X117465287Y-124608733D01*
X117293267Y-124436713D01*
X117090992Y-124301557D01*
X116866236Y-124208460D01*
X116627637Y-124161000D01*
X116384363Y-124161000D01*
X116145764Y-124208460D01*
X115921008Y-124301557D01*
X115718733Y-124436713D01*
X115546713Y-124608733D01*
X115411557Y-124811008D01*
X115318460Y-125035764D01*
X115271000Y-125274363D01*
X107741000Y-125274363D01*
X107693540Y-125035764D01*
X107600443Y-124811008D01*
X107465287Y-124608733D01*
X107352554Y-124496000D01*
X109617928Y-124496000D01*
X109621000Y-125110250D01*
X109779750Y-125269000D01*
X111379000Y-125269000D01*
X111379000Y-124019750D01*
X111633000Y-124019750D01*
X111633000Y-125269000D01*
X113232250Y-125269000D01*
X113391000Y-125110250D01*
X113394072Y-124496000D01*
X113381812Y-124371518D01*
X113345502Y-124251820D01*
X113286537Y-124141506D01*
X113207185Y-124044815D01*
X113110494Y-123965463D01*
X113000180Y-123906498D01*
X112880482Y-123870188D01*
X112756000Y-123857928D01*
X111791750Y-123861000D01*
X111633000Y-124019750D01*
X111379000Y-124019750D01*
X111220250Y-123861000D01*
X110256000Y-123857928D01*
X110131518Y-123870188D01*
X110011820Y-123906498D01*
X109901506Y-123965463D01*
X109804815Y-124044815D01*
X109725463Y-124141506D01*
X109666498Y-124251820D01*
X109630188Y-124371518D01*
X109617928Y-124496000D01*
X107352554Y-124496000D01*
X107293267Y-124436713D01*
X107090992Y-124301557D01*
X106866236Y-124208460D01*
X106627637Y-124161000D01*
X106384363Y-124161000D01*
X106145764Y-124208460D01*
X105921008Y-124301557D01*
X105718733Y-124436713D01*
X105546713Y-124608733D01*
X105411557Y-124811008D01*
X105318460Y-125035764D01*
X105271000Y-125274363D01*
X91418004Y-125274363D01*
X91372853Y-125150877D01*
X91236759Y-124927340D01*
X91059670Y-124734649D01*
X90848392Y-124580208D01*
X90611044Y-124469953D01*
X90503329Y-124437284D01*
X90297000Y-124560626D01*
X90043000Y-124560626D01*
X89836671Y-124437284D01*
X89728956Y-124469953D01*
X89491608Y-124580208D01*
X89280330Y-124734649D01*
X89103241Y-124927340D01*
X88967147Y-125150877D01*
X88877278Y-125396670D01*
X64191806Y-125396670D01*
X64366321Y-74787679D01*
X65356995Y-74787679D01*
X65356995Y-75072321D01*
X65412526Y-75351492D01*
X65521453Y-75614467D01*
X65679591Y-75851137D01*
X65880863Y-76052409D01*
X66101748Y-76200000D01*
X65880863Y-76347591D01*
X65679591Y-76548863D01*
X65521453Y-76785533D01*
X65412526Y-77048508D01*
X65356995Y-77327679D01*
X65356995Y-77612321D01*
X65412526Y-77891492D01*
X65521453Y-78154467D01*
X65679591Y-78391137D01*
X65880863Y-78592409D01*
X66101748Y-78740000D01*
X65880863Y-78887591D01*
X65679591Y-79088863D01*
X65521453Y-79325533D01*
X65412526Y-79588508D01*
X65356995Y-79867679D01*
X65356995Y-80152321D01*
X65412526Y-80431492D01*
X65521453Y-80694467D01*
X65679591Y-80931137D01*
X65880863Y-81132409D01*
X66101748Y-81280000D01*
X65880863Y-81427591D01*
X65679591Y-81628863D01*
X65521453Y-81865533D01*
X65412526Y-82128508D01*
X65356995Y-82407679D01*
X65356995Y-82692321D01*
X65412526Y-82971492D01*
X65521453Y-83234467D01*
X65679591Y-83471137D01*
X65880863Y-83672409D01*
X66101748Y-83820000D01*
X65880863Y-83967591D01*
X65679591Y-84168863D01*
X65521453Y-84405533D01*
X65412526Y-84668508D01*
X65356995Y-84947679D01*
X65356995Y-85232321D01*
X65412526Y-85511492D01*
X65521453Y-85774467D01*
X65679591Y-86011137D01*
X65880863Y-86212409D01*
X66101748Y-86360000D01*
X65880863Y-86507591D01*
X65679591Y-86708863D01*
X65521453Y-86945533D01*
X65412526Y-87208508D01*
X65356995Y-87487679D01*
X65356995Y-87772321D01*
X65412526Y-88051492D01*
X65521453Y-88314467D01*
X65679591Y-88551137D01*
X65880863Y-88752409D01*
X66101748Y-88900000D01*
X65880863Y-89047591D01*
X65679591Y-89248863D01*
X65521453Y-89485533D01*
X65412526Y-89748508D01*
X65356995Y-90027679D01*
X65356995Y-90312321D01*
X65412526Y-90591492D01*
X65521453Y-90854467D01*
X65679591Y-91091137D01*
X65880863Y-91292409D01*
X66101748Y-91440000D01*
X65880863Y-91587591D01*
X65679591Y-91788863D01*
X65521453Y-92025533D01*
X65412526Y-92288508D01*
X65356995Y-92567679D01*
X65356995Y-92852321D01*
X65412526Y-93131492D01*
X65521453Y-93394467D01*
X65679591Y-93631137D01*
X65880863Y-93832409D01*
X66101748Y-93980000D01*
X65880863Y-94127591D01*
X65679591Y-94328863D01*
X65521453Y-94565533D01*
X65412526Y-94828508D01*
X65356995Y-95107679D01*
X65356995Y-95392321D01*
X65412526Y-95671492D01*
X65521453Y-95934467D01*
X65679591Y-96171137D01*
X65880863Y-96372409D01*
X66101748Y-96520000D01*
X65880863Y-96667591D01*
X65679591Y-96868863D01*
X65521453Y-97105533D01*
X65412526Y-97368508D01*
X65356995Y-97647679D01*
X65356995Y-97932321D01*
X65412526Y-98211492D01*
X65521453Y-98474467D01*
X65679591Y-98711137D01*
X65880863Y-98912409D01*
X66101748Y-99060000D01*
X65880863Y-99207591D01*
X65679591Y-99408863D01*
X65521453Y-99645533D01*
X65412526Y-99908508D01*
X65356995Y-100187679D01*
X65356995Y-100472321D01*
X65412526Y-100751492D01*
X65521453Y-101014467D01*
X65679591Y-101251137D01*
X65880863Y-101452409D01*
X66101748Y-101600000D01*
X65880863Y-101747591D01*
X65679591Y-101948863D01*
X65521453Y-102185533D01*
X65412526Y-102448508D01*
X65356995Y-102727679D01*
X65356995Y-103012321D01*
X65412526Y-103291492D01*
X65521453Y-103554467D01*
X65679591Y-103791137D01*
X65880863Y-103992409D01*
X66101748Y-104140000D01*
X65880863Y-104287591D01*
X65679591Y-104488863D01*
X65521453Y-104725533D01*
X65412526Y-104988508D01*
X65356995Y-105267679D01*
X65356995Y-105552321D01*
X65412526Y-105831492D01*
X65521453Y-106094467D01*
X65679591Y-106331137D01*
X65880863Y-106532409D01*
X66101748Y-106680000D01*
X65880863Y-106827591D01*
X65679591Y-107028863D01*
X65521453Y-107265533D01*
X65412526Y-107528508D01*
X65356995Y-107807679D01*
X65356995Y-108092321D01*
X65412526Y-108371492D01*
X65521453Y-108634467D01*
X65679591Y-108871137D01*
X65880863Y-109072409D01*
X66101748Y-109220000D01*
X65880863Y-109367591D01*
X65679591Y-109568863D01*
X65521453Y-109805533D01*
X65412526Y-110068508D01*
X65356995Y-110347679D01*
X65356995Y-110632321D01*
X65412526Y-110911492D01*
X65521453Y-111174467D01*
X65679591Y-111411137D01*
X65880863Y-111612409D01*
X66101748Y-111760000D01*
X65880863Y-111907591D01*
X65679591Y-112108863D01*
X65521453Y-112345533D01*
X65412526Y-112608508D01*
X65356995Y-112887679D01*
X65356995Y-113172321D01*
X65412526Y-113451492D01*
X65521453Y-113714467D01*
X65679591Y-113951137D01*
X65880863Y-114152409D01*
X66101748Y-114300000D01*
X65880863Y-114447591D01*
X65679591Y-114648863D01*
X65521453Y-114885533D01*
X65412526Y-115148508D01*
X65356995Y-115427679D01*
X65356995Y-115712321D01*
X65412526Y-115991492D01*
X65521453Y-116254467D01*
X65679591Y-116491137D01*
X65880863Y-116692409D01*
X66101748Y-116840000D01*
X65880863Y-116987591D01*
X65679591Y-117188863D01*
X65521453Y-117425533D01*
X65412526Y-117688508D01*
X65356995Y-117967679D01*
X65356995Y-118252321D01*
X65412526Y-118531492D01*
X65521453Y-118794467D01*
X65679591Y-119031137D01*
X65880863Y-119232409D01*
X66117533Y-119390547D01*
X66380508Y-119499474D01*
X66659679Y-119555005D01*
X66944321Y-119555005D01*
X67223492Y-119499474D01*
X67486467Y-119390547D01*
X67723137Y-119232409D01*
X67924409Y-119031137D01*
X68072000Y-118810252D01*
X68219591Y-119031137D01*
X68420863Y-119232409D01*
X68657533Y-119390547D01*
X68920508Y-119499474D01*
X69199679Y-119555005D01*
X69484321Y-119555005D01*
X69763492Y-119499474D01*
X70026467Y-119390547D01*
X70263137Y-119232409D01*
X70464409Y-119031137D01*
X70622547Y-118794467D01*
X70731474Y-118531492D01*
X70787005Y-118252321D01*
X70787005Y-117978514D01*
X88835000Y-117978514D01*
X88835000Y-118241486D01*
X88886304Y-118499405D01*
X88986939Y-118742359D01*
X89133038Y-118961013D01*
X89318987Y-119146962D01*
X89537641Y-119293061D01*
X89780595Y-119393696D01*
X90038514Y-119445000D01*
X90301486Y-119445000D01*
X90559405Y-119393696D01*
X90802359Y-119293061D01*
X91021013Y-119146962D01*
X91021975Y-119146000D01*
X104967928Y-119146000D01*
X104967928Y-121646000D01*
X104980188Y-121770482D01*
X105016498Y-121890180D01*
X105075463Y-122000494D01*
X105154815Y-122097185D01*
X105251506Y-122176537D01*
X105361820Y-122235502D01*
X105481518Y-122271812D01*
X105606000Y-122284072D01*
X107406000Y-122284072D01*
X107530482Y-122271812D01*
X107650180Y-122235502D01*
X107760494Y-122176537D01*
X107857185Y-122097185D01*
X107936537Y-122000494D01*
X107995502Y-121890180D01*
X108031812Y-121770482D01*
X108044072Y-121646000D01*
X108044072Y-120274363D01*
X110271000Y-120274363D01*
X110271000Y-120517637D01*
X110318460Y-120756236D01*
X110411557Y-120980992D01*
X110546713Y-121183267D01*
X110718733Y-121355287D01*
X110921008Y-121490443D01*
X111145764Y-121583540D01*
X111384363Y-121631000D01*
X111627637Y-121631000D01*
X111866236Y-121583540D01*
X112090992Y-121490443D01*
X112293267Y-121355287D01*
X112465287Y-121183267D01*
X112600443Y-120980992D01*
X112693540Y-120756236D01*
X112741000Y-120517637D01*
X112741000Y-120274363D01*
X112693540Y-120035764D01*
X112600443Y-119811008D01*
X112465287Y-119608733D01*
X112293267Y-119436713D01*
X112090992Y-119301557D01*
X111866236Y-119208460D01*
X111627637Y-119161000D01*
X111384363Y-119161000D01*
X111145764Y-119208460D01*
X110921008Y-119301557D01*
X110718733Y-119436713D01*
X110546713Y-119608733D01*
X110411557Y-119811008D01*
X110318460Y-120035764D01*
X110271000Y-120274363D01*
X108044072Y-120274363D01*
X108044072Y-119146000D01*
X114967928Y-119146000D01*
X114967928Y-121646000D01*
X114980188Y-121770482D01*
X115016498Y-121890180D01*
X115075463Y-122000494D01*
X115154815Y-122097185D01*
X115251506Y-122176537D01*
X115361820Y-122235502D01*
X115481518Y-122271812D01*
X115606000Y-122284072D01*
X117406000Y-122284072D01*
X117530482Y-122271812D01*
X117650180Y-122235502D01*
X117760494Y-122176537D01*
X117857185Y-122097185D01*
X117936537Y-122000494D01*
X117995502Y-121890180D01*
X118031812Y-121770482D01*
X118044072Y-121646000D01*
X118044072Y-119146000D01*
X120461928Y-119146000D01*
X120461928Y-121646000D01*
X120474188Y-121770482D01*
X120510498Y-121890180D01*
X120569463Y-122000494D01*
X120648815Y-122097185D01*
X120745506Y-122176537D01*
X120855820Y-122235502D01*
X120975518Y-122271812D01*
X121100000Y-122284072D01*
X122900000Y-122284072D01*
X123024482Y-122271812D01*
X123144180Y-122235502D01*
X123254494Y-122176537D01*
X123351185Y-122097185D01*
X123430537Y-122000494D01*
X123489502Y-121890180D01*
X123525812Y-121770482D01*
X123538072Y-121646000D01*
X123538072Y-119146000D01*
X123525812Y-119021518D01*
X123489502Y-118901820D01*
X123430537Y-118791506D01*
X123351185Y-118694815D01*
X123254494Y-118615463D01*
X123144180Y-118556498D01*
X123024482Y-118520188D01*
X122900000Y-118507928D01*
X121100000Y-118507928D01*
X120975518Y-118520188D01*
X120855820Y-118556498D01*
X120745506Y-118615463D01*
X120648815Y-118694815D01*
X120569463Y-118791506D01*
X120510498Y-118901820D01*
X120474188Y-119021518D01*
X120461928Y-119146000D01*
X118044072Y-119146000D01*
X118031812Y-119021518D01*
X117995502Y-118901820D01*
X117936537Y-118791506D01*
X117857185Y-118694815D01*
X117760494Y-118615463D01*
X117650180Y-118556498D01*
X117530482Y-118520188D01*
X117406000Y-118507928D01*
X115606000Y-118507928D01*
X115481518Y-118520188D01*
X115361820Y-118556498D01*
X115251506Y-118615463D01*
X115154815Y-118694815D01*
X115075463Y-118791506D01*
X115016498Y-118901820D01*
X114980188Y-119021518D01*
X114967928Y-119146000D01*
X108044072Y-119146000D01*
X108031812Y-119021518D01*
X107995502Y-118901820D01*
X107936537Y-118791506D01*
X107857185Y-118694815D01*
X107760494Y-118615463D01*
X107650180Y-118556498D01*
X107530482Y-118520188D01*
X107406000Y-118507928D01*
X105606000Y-118507928D01*
X105481518Y-118520188D01*
X105361820Y-118556498D01*
X105251506Y-118615463D01*
X105154815Y-118694815D01*
X105075463Y-118791506D01*
X105016498Y-118901820D01*
X104980188Y-119021518D01*
X104967928Y-119146000D01*
X91021975Y-119146000D01*
X91206962Y-118961013D01*
X91353061Y-118742359D01*
X91453696Y-118499405D01*
X91505000Y-118241486D01*
X91505000Y-117978514D01*
X91453696Y-117720595D01*
X91353061Y-117477641D01*
X91206962Y-117258987D01*
X91021013Y-117073038D01*
X90802359Y-116926939D01*
X90559405Y-116826304D01*
X90301486Y-116775000D01*
X90038514Y-116775000D01*
X89780595Y-116826304D01*
X89537641Y-116926939D01*
X89318987Y-117073038D01*
X89133038Y-117258987D01*
X88986939Y-117477641D01*
X88886304Y-117720595D01*
X88835000Y-117978514D01*
X70787005Y-117978514D01*
X70787005Y-117967679D01*
X70731474Y-117688508D01*
X70622547Y-117425533D01*
X70464409Y-117188863D01*
X70263137Y-116987591D01*
X70042252Y-116840000D01*
X70263137Y-116692409D01*
X70464409Y-116491137D01*
X70622547Y-116254467D01*
X70731474Y-115991492D01*
X70787005Y-115712321D01*
X70787005Y-115427679D01*
X70731474Y-115148508D01*
X70622547Y-114885533D01*
X70482885Y-114676514D01*
X105853000Y-114676514D01*
X105853000Y-114939486D01*
X105904304Y-115197405D01*
X106004939Y-115440359D01*
X106151038Y-115659013D01*
X106336987Y-115844962D01*
X106555641Y-115991061D01*
X106798595Y-116091696D01*
X107056514Y-116143000D01*
X107319486Y-116143000D01*
X107577405Y-116091696D01*
X107820359Y-115991061D01*
X108039013Y-115844962D01*
X108224962Y-115659013D01*
X108371061Y-115440359D01*
X108471696Y-115197405D01*
X108523000Y-114939486D01*
X108523000Y-114676514D01*
X113473000Y-114676514D01*
X113473000Y-114939486D01*
X113524304Y-115197405D01*
X113624939Y-115440359D01*
X113771038Y-115659013D01*
X113956987Y-115844962D01*
X114175641Y-115991061D01*
X114418595Y-116091696D01*
X114676514Y-116143000D01*
X114939486Y-116143000D01*
X115197405Y-116091696D01*
X115440359Y-115991061D01*
X115659013Y-115844962D01*
X115844962Y-115659013D01*
X115991061Y-115440359D01*
X116091696Y-115197405D01*
X116143000Y-114939486D01*
X116143000Y-114676514D01*
X116091696Y-114418595D01*
X115991061Y-114175641D01*
X115844962Y-113956987D01*
X115659013Y-113771038D01*
X115440359Y-113624939D01*
X115197405Y-113524304D01*
X114939486Y-113473000D01*
X114676514Y-113473000D01*
X114418595Y-113524304D01*
X114175641Y-113624939D01*
X113956987Y-113771038D01*
X113771038Y-113956987D01*
X113624939Y-114175641D01*
X113524304Y-114418595D01*
X113473000Y-114676514D01*
X108523000Y-114676514D01*
X108471696Y-114418595D01*
X108371061Y-114175641D01*
X108224962Y-113956987D01*
X108039013Y-113771038D01*
X107820359Y-113624939D01*
X107577405Y-113524304D01*
X107319486Y-113473000D01*
X107056514Y-113473000D01*
X106798595Y-113524304D01*
X106555641Y-113624939D01*
X106336987Y-113771038D01*
X106151038Y-113956987D01*
X106004939Y-114175641D01*
X105904304Y-114418595D01*
X105853000Y-114676514D01*
X70482885Y-114676514D01*
X70464409Y-114648863D01*
X70263137Y-114447591D01*
X70042252Y-114300000D01*
X70263137Y-114152409D01*
X70464409Y-113951137D01*
X70622547Y-113714467D01*
X70731474Y-113451492D01*
X70787005Y-113172321D01*
X70787005Y-112887679D01*
X70731474Y-112608508D01*
X70641179Y-112390514D01*
X88835000Y-112390514D01*
X88835000Y-112653486D01*
X88886304Y-112911405D01*
X88986939Y-113154359D01*
X89133038Y-113373013D01*
X89318987Y-113558962D01*
X89537641Y-113705061D01*
X89780595Y-113805696D01*
X90038514Y-113857000D01*
X90301486Y-113857000D01*
X90559405Y-113805696D01*
X90802359Y-113705061D01*
X91021013Y-113558962D01*
X91206962Y-113373013D01*
X91353061Y-113154359D01*
X91453696Y-112911405D01*
X91505000Y-112653486D01*
X91505000Y-112390514D01*
X91453696Y-112132595D01*
X91353061Y-111889641D01*
X91206962Y-111670987D01*
X91021013Y-111485038D01*
X90802359Y-111338939D01*
X90559405Y-111238304D01*
X90301486Y-111187000D01*
X90038514Y-111187000D01*
X89780595Y-111238304D01*
X89537641Y-111338939D01*
X89318987Y-111485038D01*
X89133038Y-111670987D01*
X88986939Y-111889641D01*
X88886304Y-112132595D01*
X88835000Y-112390514D01*
X70641179Y-112390514D01*
X70622547Y-112345533D01*
X70464409Y-112108863D01*
X70263137Y-111907591D01*
X70042252Y-111760000D01*
X70263137Y-111612409D01*
X70464409Y-111411137D01*
X70622547Y-111174467D01*
X70731474Y-110911492D01*
X70787005Y-110632321D01*
X70787005Y-110347679D01*
X70731474Y-110068508D01*
X70622547Y-109805533D01*
X70464409Y-109568863D01*
X70263137Y-109367591D01*
X70042252Y-109220000D01*
X70263137Y-109072409D01*
X70464409Y-108871137D01*
X70622547Y-108634467D01*
X70731474Y-108371492D01*
X70787005Y-108092321D01*
X70787005Y-107807679D01*
X70731474Y-107528508D01*
X70622547Y-107265533D01*
X70464409Y-107028863D01*
X70263137Y-106827591D01*
X70042252Y-106680000D01*
X70263137Y-106532409D01*
X70464409Y-106331137D01*
X70622547Y-106094467D01*
X70731474Y-105831492D01*
X70787005Y-105552321D01*
X70787005Y-105267679D01*
X70731474Y-104988508D01*
X70622547Y-104725533D01*
X70464409Y-104488863D01*
X70263137Y-104287591D01*
X70042252Y-104140000D01*
X70263137Y-103992409D01*
X70464409Y-103791137D01*
X70622547Y-103554467D01*
X70731474Y-103291492D01*
X70787005Y-103012321D01*
X70787005Y-102727679D01*
X70731474Y-102448508D01*
X70622547Y-102185533D01*
X70464409Y-101948863D01*
X70263137Y-101747591D01*
X70042252Y-101600000D01*
X70263137Y-101452409D01*
X70464409Y-101251137D01*
X70622547Y-101014467D01*
X70731474Y-100751492D01*
X70787005Y-100472321D01*
X70787005Y-100187679D01*
X70731474Y-99908508D01*
X70622547Y-99645533D01*
X70464409Y-99408863D01*
X70263137Y-99207591D01*
X70042252Y-99060000D01*
X70263137Y-98912409D01*
X70464409Y-98711137D01*
X70622547Y-98474467D01*
X70731474Y-98211492D01*
X70787005Y-97932321D01*
X70787005Y-97647679D01*
X70760157Y-97512702D01*
X81736903Y-97512702D01*
X81808486Y-97756671D01*
X82063996Y-97877571D01*
X82338184Y-97946300D01*
X82620512Y-97960217D01*
X82900130Y-97918787D01*
X83166292Y-97823603D01*
X83291514Y-97756671D01*
X83363097Y-97512702D01*
X82550000Y-96699605D01*
X81736903Y-97512702D01*
X70760157Y-97512702D01*
X70731474Y-97368508D01*
X70622547Y-97105533D01*
X70464409Y-96868863D01*
X70263137Y-96667591D01*
X70147781Y-96590512D01*
X81109783Y-96590512D01*
X81151213Y-96870130D01*
X81246397Y-97136292D01*
X81313329Y-97261514D01*
X81557298Y-97333097D01*
X82370395Y-96520000D01*
X82729605Y-96520000D01*
X83542702Y-97333097D01*
X83786671Y-97261514D01*
X83907571Y-97006004D01*
X83976300Y-96731816D01*
X83990217Y-96449488D01*
X83948787Y-96169870D01*
X83853603Y-95903708D01*
X83786671Y-95778486D01*
X83542702Y-95706903D01*
X82729605Y-96520000D01*
X82370395Y-96520000D01*
X81557298Y-95706903D01*
X81313329Y-95778486D01*
X81192429Y-96033996D01*
X81123700Y-96308184D01*
X81109783Y-96590512D01*
X70147781Y-96590512D01*
X70042252Y-96520000D01*
X70263137Y-96372409D01*
X70464409Y-96171137D01*
X70622547Y-95934467D01*
X70731474Y-95671492D01*
X70787005Y-95392321D01*
X70787005Y-95107679D01*
X70731474Y-94828508D01*
X70622547Y-94565533D01*
X70464409Y-94328863D01*
X70263137Y-94127591D01*
X70042252Y-93980000D01*
X70263137Y-93832409D01*
X70464409Y-93631137D01*
X70622547Y-93394467D01*
X70731474Y-93131492D01*
X70787005Y-92852321D01*
X70787005Y-92567679D01*
X70731474Y-92288508D01*
X70622547Y-92025533D01*
X70464409Y-91788863D01*
X70263137Y-91587591D01*
X70042252Y-91440000D01*
X70263137Y-91292409D01*
X70464409Y-91091137D01*
X70622547Y-90854467D01*
X70731474Y-90591492D01*
X70787005Y-90312321D01*
X70787005Y-90027679D01*
X70731474Y-89748508D01*
X70622547Y-89485533D01*
X70464409Y-89248863D01*
X70263137Y-89047591D01*
X70042252Y-88900000D01*
X70263137Y-88752409D01*
X70464409Y-88551137D01*
X70622547Y-88314467D01*
X70731474Y-88051492D01*
X70787005Y-87772321D01*
X70787005Y-87487679D01*
X70731474Y-87208508D01*
X70622547Y-86945533D01*
X70464409Y-86708863D01*
X70263137Y-86507591D01*
X70042252Y-86360000D01*
X70263137Y-86212409D01*
X70464409Y-86011137D01*
X70622547Y-85774467D01*
X70731474Y-85511492D01*
X70787005Y-85232321D01*
X70787005Y-84947679D01*
X70731474Y-84668508D01*
X70622547Y-84405533D01*
X70464409Y-84168863D01*
X70263137Y-83967591D01*
X70042252Y-83820000D01*
X70263137Y-83672409D01*
X70464409Y-83471137D01*
X70622547Y-83234467D01*
X70731474Y-82971492D01*
X70787005Y-82692321D01*
X70787005Y-82407679D01*
X70731474Y-82128508D01*
X70622547Y-81865533D01*
X70464409Y-81628863D01*
X70263137Y-81427591D01*
X70042252Y-81280000D01*
X70263137Y-81132409D01*
X70464409Y-80931137D01*
X70622547Y-80694467D01*
X70731474Y-80431492D01*
X70787005Y-80152321D01*
X70787005Y-79867679D01*
X70731474Y-79588508D01*
X70622547Y-79325533D01*
X70464409Y-79088863D01*
X70263137Y-78887591D01*
X70042252Y-78740000D01*
X70263137Y-78592409D01*
X70464409Y-78391137D01*
X70622547Y-78154467D01*
X70711381Y-77940000D01*
X81111928Y-77940000D01*
X81111928Y-79540000D01*
X81124188Y-79664482D01*
X81160498Y-79784180D01*
X81219463Y-79894494D01*
X81298815Y-79991185D01*
X81395506Y-80070537D01*
X81505820Y-80129502D01*
X81625518Y-80165812D01*
X81633961Y-80166643D01*
X81435363Y-80365241D01*
X81278320Y-80600273D01*
X81170147Y-80861426D01*
X81115000Y-81138665D01*
X81115000Y-81421335D01*
X81170147Y-81698574D01*
X81278320Y-81959727D01*
X81435363Y-82194759D01*
X81635241Y-82394637D01*
X81867759Y-82550000D01*
X81635241Y-82705363D01*
X81435363Y-82905241D01*
X81278320Y-83140273D01*
X81170147Y-83401426D01*
X81115000Y-83678665D01*
X81115000Y-83961335D01*
X81170147Y-84238574D01*
X81278320Y-84499727D01*
X81435363Y-84734759D01*
X81635241Y-84934637D01*
X81867759Y-85090000D01*
X81635241Y-85245363D01*
X81435363Y-85445241D01*
X81278320Y-85680273D01*
X81170147Y-85941426D01*
X81115000Y-86218665D01*
X81115000Y-86501335D01*
X81170147Y-86778574D01*
X81278320Y-87039727D01*
X81435363Y-87274759D01*
X81635241Y-87474637D01*
X81867759Y-87630000D01*
X81635241Y-87785363D01*
X81435363Y-87985241D01*
X81278320Y-88220273D01*
X81170147Y-88481426D01*
X81115000Y-88758665D01*
X81115000Y-89041335D01*
X81170147Y-89318574D01*
X81278320Y-89579727D01*
X81435363Y-89814759D01*
X81635241Y-90014637D01*
X81867759Y-90170000D01*
X81635241Y-90325363D01*
X81435363Y-90525241D01*
X81278320Y-90760273D01*
X81170147Y-91021426D01*
X81115000Y-91298665D01*
X81115000Y-91581335D01*
X81170147Y-91858574D01*
X81278320Y-92119727D01*
X81435363Y-92354759D01*
X81635241Y-92554637D01*
X81867759Y-92710000D01*
X81635241Y-92865363D01*
X81435363Y-93065241D01*
X81278320Y-93300273D01*
X81170147Y-93561426D01*
X81115000Y-93838665D01*
X81115000Y-94121335D01*
X81170147Y-94398574D01*
X81278320Y-94659727D01*
X81435363Y-94894759D01*
X81635241Y-95094637D01*
X81869128Y-95250915D01*
X81808486Y-95283329D01*
X81736903Y-95527298D01*
X82550000Y-96340395D01*
X83363097Y-95527298D01*
X83291514Y-95283329D01*
X83227008Y-95252806D01*
X83229727Y-95251680D01*
X83464759Y-95094637D01*
X83664637Y-94894759D01*
X83821680Y-94659727D01*
X83929853Y-94398574D01*
X83985000Y-94121335D01*
X83985000Y-93838665D01*
X83929853Y-93561426D01*
X83821680Y-93300273D01*
X83664637Y-93065241D01*
X83464759Y-92865363D01*
X83232241Y-92710000D01*
X83464759Y-92554637D01*
X83664637Y-92354759D01*
X83821680Y-92119727D01*
X83929853Y-91858574D01*
X83985000Y-91581335D01*
X83985000Y-91298665D01*
X83929853Y-91021426D01*
X83821680Y-90760273D01*
X83664637Y-90525241D01*
X83464759Y-90325363D01*
X83232241Y-90170000D01*
X83464759Y-90014637D01*
X83664637Y-89814759D01*
X83821680Y-89579727D01*
X83929853Y-89318574D01*
X83985000Y-89041335D01*
X83985000Y-88758665D01*
X83929853Y-88481426D01*
X83821680Y-88220273D01*
X83664637Y-87985241D01*
X83464759Y-87785363D01*
X83232241Y-87630000D01*
X83464759Y-87474637D01*
X83664637Y-87274759D01*
X83821680Y-87039727D01*
X83929853Y-86778574D01*
X83985000Y-86501335D01*
X83985000Y-86218665D01*
X83929853Y-85941426D01*
X83821680Y-85680273D01*
X83664637Y-85445241D01*
X83464759Y-85245363D01*
X83232241Y-85090000D01*
X83464759Y-84934637D01*
X83664637Y-84734759D01*
X83821680Y-84499727D01*
X83929853Y-84238574D01*
X83985000Y-83961335D01*
X83985000Y-83678665D01*
X83929853Y-83401426D01*
X83821680Y-83140273D01*
X83664637Y-82905241D01*
X83464759Y-82705363D01*
X83232241Y-82550000D01*
X83464759Y-82394637D01*
X83664637Y-82194759D01*
X83821680Y-81959727D01*
X83929853Y-81698574D01*
X83985000Y-81421335D01*
X83985000Y-81138665D01*
X83929853Y-80861426D01*
X83821680Y-80600273D01*
X83664637Y-80365241D01*
X83466039Y-80166643D01*
X83474482Y-80165812D01*
X83594180Y-80129502D01*
X83704494Y-80070537D01*
X83801185Y-79991185D01*
X83880537Y-79894494D01*
X83939502Y-79784180D01*
X83975812Y-79664482D01*
X83988072Y-79540000D01*
X83988072Y-78598665D01*
X88735000Y-78598665D01*
X88735000Y-78881335D01*
X88790147Y-79158574D01*
X88898320Y-79419727D01*
X89055363Y-79654759D01*
X89255241Y-79854637D01*
X89487759Y-80010000D01*
X89255241Y-80165363D01*
X89055363Y-80365241D01*
X88898320Y-80600273D01*
X88790147Y-80861426D01*
X88735000Y-81138665D01*
X88735000Y-81421335D01*
X88790147Y-81698574D01*
X88898320Y-81959727D01*
X89055363Y-82194759D01*
X89255241Y-82394637D01*
X89487759Y-82550000D01*
X89255241Y-82705363D01*
X89055363Y-82905241D01*
X88898320Y-83140273D01*
X88790147Y-83401426D01*
X88735000Y-83678665D01*
X88735000Y-83961335D01*
X88790147Y-84238574D01*
X88898320Y-84499727D01*
X89055363Y-84734759D01*
X89255241Y-84934637D01*
X89487759Y-85090000D01*
X89255241Y-85245363D01*
X89055363Y-85445241D01*
X88898320Y-85680273D01*
X88790147Y-85941426D01*
X88735000Y-86218665D01*
X88735000Y-86501335D01*
X88790147Y-86778574D01*
X88898320Y-87039727D01*
X89055363Y-87274759D01*
X89255241Y-87474637D01*
X89487759Y-87630000D01*
X89255241Y-87785363D01*
X89055363Y-87985241D01*
X88898320Y-88220273D01*
X88790147Y-88481426D01*
X88735000Y-88758665D01*
X88735000Y-89041335D01*
X88790147Y-89318574D01*
X88898320Y-89579727D01*
X89055363Y-89814759D01*
X89255241Y-90014637D01*
X89487759Y-90170000D01*
X89255241Y-90325363D01*
X89055363Y-90525241D01*
X88898320Y-90760273D01*
X88790147Y-91021426D01*
X88735000Y-91298665D01*
X88735000Y-91581335D01*
X88790147Y-91858574D01*
X88898320Y-92119727D01*
X89055363Y-92354759D01*
X89255241Y-92554637D01*
X89487759Y-92710000D01*
X89255241Y-92865363D01*
X89055363Y-93065241D01*
X88898320Y-93300273D01*
X88790147Y-93561426D01*
X88735000Y-93838665D01*
X88735000Y-94121335D01*
X88790147Y-94398574D01*
X88898320Y-94659727D01*
X89055363Y-94894759D01*
X89255241Y-95094637D01*
X89487759Y-95250000D01*
X89255241Y-95405363D01*
X89055363Y-95605241D01*
X88898320Y-95840273D01*
X88790147Y-96101426D01*
X88735000Y-96378665D01*
X88735000Y-96661335D01*
X88790147Y-96938574D01*
X88898320Y-97199727D01*
X89055363Y-97434759D01*
X89255241Y-97634637D01*
X89408000Y-97736707D01*
X89408001Y-103805561D01*
X89318987Y-103865038D01*
X89133038Y-104050987D01*
X88986939Y-104269641D01*
X88886304Y-104512595D01*
X88835000Y-104770514D01*
X88835000Y-105033486D01*
X88886304Y-105291405D01*
X88986939Y-105534359D01*
X89133038Y-105753013D01*
X89318987Y-105938962D01*
X89537641Y-106085061D01*
X89780595Y-106185696D01*
X90038514Y-106237000D01*
X90301486Y-106237000D01*
X90559405Y-106185696D01*
X90802359Y-106085061D01*
X91021013Y-105938962D01*
X91206962Y-105753013D01*
X91353061Y-105534359D01*
X91453696Y-105291405D01*
X91505000Y-105033486D01*
X91505000Y-104770514D01*
X91453696Y-104512595D01*
X91353061Y-104269641D01*
X91206962Y-104050987D01*
X91021013Y-103865038D01*
X90932000Y-103805562D01*
X90932000Y-99196000D01*
X107701928Y-99196000D01*
X107701928Y-100956000D01*
X107714188Y-101080482D01*
X107750498Y-101200180D01*
X107809463Y-101310494D01*
X107888815Y-101407185D01*
X107985506Y-101486537D01*
X108095820Y-101545502D01*
X108215518Y-101581812D01*
X108340000Y-101594072D01*
X110100000Y-101594072D01*
X110224482Y-101581812D01*
X110344180Y-101545502D01*
X110454494Y-101486537D01*
X110551185Y-101407185D01*
X110630537Y-101310494D01*
X110689502Y-101200180D01*
X110725812Y-101080482D01*
X110738072Y-100956000D01*
X110738072Y-99196000D01*
X110725812Y-99071518D01*
X110689502Y-98951820D01*
X110630537Y-98841506D01*
X110551185Y-98744815D01*
X110454494Y-98665463D01*
X110344180Y-98606498D01*
X110224482Y-98570188D01*
X110100000Y-98557928D01*
X108340000Y-98557928D01*
X108215518Y-98570188D01*
X108095820Y-98606498D01*
X107985506Y-98665463D01*
X107888815Y-98744815D01*
X107809463Y-98841506D01*
X107750498Y-98951820D01*
X107714188Y-99071518D01*
X107701928Y-99196000D01*
X90932000Y-99196000D01*
X90932000Y-98081942D01*
X90969998Y-98085685D01*
X91119377Y-98070972D01*
X91263014Y-98027400D01*
X91395391Y-97956643D01*
X91511420Y-97861420D01*
X91606643Y-97745391D01*
X91677400Y-97613014D01*
X91700762Y-97536000D01*
X115403160Y-97536000D01*
X117416368Y-99549209D01*
X117377403Y-99677660D01*
X117338169Y-100076000D01*
X117377403Y-100474340D01*
X117493594Y-100857374D01*
X117682280Y-101210381D01*
X117872579Y-101442260D01*
X118752578Y-102322259D01*
X123442055Y-107011737D01*
X123502156Y-107085706D01*
X123583210Y-107152892D01*
X123586740Y-107156422D01*
X123660215Y-107216722D01*
X123810321Y-107341145D01*
X123814730Y-107343530D01*
X123818619Y-107346721D01*
X123990851Y-107438780D01*
X124162399Y-107531558D01*
X124167199Y-107533040D01*
X124171626Y-107535406D01*
X124358290Y-107592030D01*
X124544859Y-107649624D01*
X124549857Y-107650141D01*
X124554660Y-107651598D01*
X124748938Y-107670733D01*
X124843236Y-107680487D01*
X124848216Y-107680511D01*
X124953000Y-107690832D01*
X125047859Y-107681489D01*
X125255431Y-107682506D01*
X125257000Y-107698434D01*
X125256999Y-123223576D01*
X125253313Y-123260999D01*
X125256999Y-123298422D01*
X125256999Y-123298424D01*
X125268025Y-123410376D01*
X125311597Y-123554013D01*
X125338277Y-123603928D01*
X125382354Y-123686391D01*
X125417854Y-123729648D01*
X125477577Y-123802421D01*
X125506653Y-123826283D01*
X125568004Y-123887635D01*
X125505820Y-123906498D01*
X125395506Y-123965463D01*
X125298815Y-124044815D01*
X125219463Y-124141506D01*
X125160498Y-124251820D01*
X125124188Y-124371518D01*
X125111928Y-124496000D01*
X125111928Y-126296000D01*
X125124188Y-126420482D01*
X125160498Y-126540180D01*
X125219463Y-126650494D01*
X125298815Y-126747185D01*
X125395506Y-126826537D01*
X125505820Y-126885502D01*
X125625518Y-126921812D01*
X125750000Y-126934072D01*
X128250000Y-126934072D01*
X128374482Y-126921812D01*
X128494180Y-126885502D01*
X128604494Y-126826537D01*
X128701185Y-126747185D01*
X128780537Y-126650494D01*
X128839502Y-126540180D01*
X128875812Y-126420482D01*
X128888072Y-126296000D01*
X128888072Y-125274363D01*
X130765000Y-125274363D01*
X130765000Y-125517637D01*
X130812460Y-125756236D01*
X130905557Y-125980992D01*
X131040713Y-126183267D01*
X131212733Y-126355287D01*
X131415008Y-126490443D01*
X131639764Y-126583540D01*
X131878363Y-126631000D01*
X132121637Y-126631000D01*
X132360236Y-126583540D01*
X132584992Y-126490443D01*
X132787267Y-126355287D01*
X132959287Y-126183267D01*
X133094443Y-125980992D01*
X133187540Y-125756236D01*
X133235000Y-125517637D01*
X133235000Y-125274363D01*
X136259000Y-125274363D01*
X136259000Y-125517637D01*
X136306460Y-125756236D01*
X136399557Y-125980992D01*
X136534713Y-126183267D01*
X136706733Y-126355287D01*
X136909008Y-126490443D01*
X137133764Y-126583540D01*
X137372363Y-126631000D01*
X137615637Y-126631000D01*
X137854236Y-126583540D01*
X138078992Y-126490443D01*
X138281267Y-126355287D01*
X138453287Y-126183267D01*
X138588443Y-125980992D01*
X138681540Y-125756236D01*
X138729000Y-125517637D01*
X138729000Y-125274363D01*
X138681540Y-125035764D01*
X138588443Y-124811008D01*
X138453287Y-124608733D01*
X138281267Y-124436713D01*
X138078992Y-124301557D01*
X137854236Y-124208460D01*
X137615637Y-124161000D01*
X137372363Y-124161000D01*
X137133764Y-124208460D01*
X136909008Y-124301557D01*
X136706733Y-124436713D01*
X136534713Y-124608733D01*
X136399557Y-124811008D01*
X136306460Y-125035764D01*
X136259000Y-125274363D01*
X133235000Y-125274363D01*
X133187540Y-125035764D01*
X133094443Y-124811008D01*
X132959287Y-124608733D01*
X132787267Y-124436713D01*
X132584992Y-124301557D01*
X132360236Y-124208460D01*
X132121637Y-124161000D01*
X131878363Y-124161000D01*
X131639764Y-124208460D01*
X131415008Y-124301557D01*
X131212733Y-124436713D01*
X131040713Y-124608733D01*
X130905557Y-124811008D01*
X130812460Y-125035764D01*
X130765000Y-125274363D01*
X128888072Y-125274363D01*
X128888072Y-124496000D01*
X128875812Y-124371518D01*
X128839502Y-124251820D01*
X128780537Y-124141506D01*
X128701185Y-124044815D01*
X128604494Y-123965463D01*
X128494180Y-123906498D01*
X128374482Y-123870188D01*
X128250000Y-123857928D01*
X127658731Y-123857928D01*
X127639719Y-123822359D01*
X127636645Y-123816607D01*
X127565279Y-123729648D01*
X127541422Y-123700578D01*
X127512351Y-123676721D01*
X126780999Y-122945369D01*
X126780999Y-121611633D01*
X126878363Y-121631000D01*
X127121637Y-121631000D01*
X127360236Y-121583540D01*
X127584992Y-121490443D01*
X127787267Y-121355287D01*
X127959287Y-121183267D01*
X128094443Y-120980992D01*
X128187540Y-120756236D01*
X128235000Y-120517637D01*
X128235000Y-120274363D01*
X128187540Y-120035764D01*
X128094443Y-119811008D01*
X127959287Y-119608733D01*
X127787267Y-119436713D01*
X127584992Y-119301557D01*
X127360236Y-119208460D01*
X127121637Y-119161000D01*
X126878363Y-119161000D01*
X126780999Y-119180367D01*
X126780999Y-119146000D01*
X130461928Y-119146000D01*
X130461928Y-121646000D01*
X130474188Y-121770482D01*
X130510498Y-121890180D01*
X130569463Y-122000494D01*
X130648815Y-122097185D01*
X130745506Y-122176537D01*
X130855820Y-122235502D01*
X130975518Y-122271812D01*
X131100000Y-122284072D01*
X132900000Y-122284072D01*
X133024482Y-122271812D01*
X133144180Y-122235502D01*
X133254494Y-122176537D01*
X133351185Y-122097185D01*
X133430537Y-122000494D01*
X133489502Y-121890180D01*
X133525812Y-121770482D01*
X133538072Y-121646000D01*
X133538072Y-119146000D01*
X135955928Y-119146000D01*
X135955928Y-121646000D01*
X135968188Y-121770482D01*
X136004498Y-121890180D01*
X136063463Y-122000494D01*
X136142815Y-122097185D01*
X136239506Y-122176537D01*
X136349820Y-122235502D01*
X136469518Y-122271812D01*
X136594000Y-122284072D01*
X138394000Y-122284072D01*
X138518482Y-122271812D01*
X138638180Y-122235502D01*
X138748494Y-122176537D01*
X138845185Y-122097185D01*
X138924537Y-122000494D01*
X138983502Y-121890180D01*
X139019812Y-121770482D01*
X139032072Y-121646000D01*
X139032072Y-119146000D01*
X139019812Y-119021518D01*
X138983502Y-118901820D01*
X138924537Y-118791506D01*
X138845185Y-118694815D01*
X138748494Y-118615463D01*
X138638180Y-118556498D01*
X138518482Y-118520188D01*
X138394000Y-118507928D01*
X136594000Y-118507928D01*
X136469518Y-118520188D01*
X136349820Y-118556498D01*
X136239506Y-118615463D01*
X136142815Y-118694815D01*
X136063463Y-118791506D01*
X136004498Y-118901820D01*
X135968188Y-119021518D01*
X135955928Y-119146000D01*
X133538072Y-119146000D01*
X133525812Y-119021518D01*
X133489502Y-118901820D01*
X133430537Y-118791506D01*
X133351185Y-118694815D01*
X133254494Y-118615463D01*
X133144180Y-118556498D01*
X133024482Y-118520188D01*
X132900000Y-118507928D01*
X131100000Y-118507928D01*
X130975518Y-118520188D01*
X130855820Y-118556498D01*
X130745506Y-118615463D01*
X130648815Y-118694815D01*
X130569463Y-118791506D01*
X130510498Y-118901820D01*
X130474188Y-119021518D01*
X130461928Y-119146000D01*
X126780999Y-119146000D01*
X126780999Y-107976631D01*
X127066257Y-107691373D01*
X127911217Y-107695511D01*
X127916184Y-107696000D01*
X128011112Y-107696000D01*
X128105864Y-107696464D01*
X128110824Y-107696000D01*
X142748001Y-107696000D01*
X142748000Y-119187329D01*
X142615637Y-119161000D01*
X142372363Y-119161000D01*
X142133764Y-119208460D01*
X141909008Y-119301557D01*
X141706733Y-119436713D01*
X141534713Y-119608733D01*
X141399557Y-119811008D01*
X141306460Y-120035764D01*
X141259000Y-120274363D01*
X141259000Y-120517637D01*
X141306460Y-120756236D01*
X141399557Y-120980992D01*
X141534713Y-121183267D01*
X141706733Y-121355287D01*
X141909008Y-121490443D01*
X142133764Y-121583540D01*
X142372363Y-121631000D01*
X142615637Y-121631000D01*
X142748000Y-121604672D01*
X142748000Y-122910369D01*
X141981649Y-123676721D01*
X141952579Y-123700578D01*
X141928722Y-123729648D01*
X141928721Y-123729649D01*
X141857355Y-123816608D01*
X141835269Y-123857928D01*
X141244000Y-123857928D01*
X141119518Y-123870188D01*
X140999820Y-123906498D01*
X140889506Y-123965463D01*
X140792815Y-124044815D01*
X140713463Y-124141506D01*
X140654498Y-124251820D01*
X140618188Y-124371518D01*
X140605928Y-124496000D01*
X140605928Y-126296000D01*
X140618188Y-126420482D01*
X140654498Y-126540180D01*
X140713463Y-126650494D01*
X140792815Y-126747185D01*
X140889506Y-126826537D01*
X140999820Y-126885502D01*
X141119518Y-126921812D01*
X141244000Y-126934072D01*
X143744000Y-126934072D01*
X143868482Y-126921812D01*
X143988180Y-126885502D01*
X144098494Y-126826537D01*
X144195185Y-126747185D01*
X144274537Y-126650494D01*
X144333502Y-126540180D01*
X144369812Y-126420482D01*
X144382072Y-126296000D01*
X144382072Y-125274363D01*
X146259000Y-125274363D01*
X146259000Y-125517637D01*
X146306460Y-125756236D01*
X146399557Y-125980992D01*
X146534713Y-126183267D01*
X146706733Y-126355287D01*
X146909008Y-126490443D01*
X147133764Y-126583540D01*
X147372363Y-126631000D01*
X147615637Y-126631000D01*
X147854236Y-126583540D01*
X148078992Y-126490443D01*
X148281267Y-126355287D01*
X148453287Y-126183267D01*
X148588443Y-125980992D01*
X148681540Y-125756236D01*
X148729000Y-125517637D01*
X148729000Y-125274363D01*
X151499000Y-125274363D01*
X151499000Y-125517637D01*
X151546460Y-125756236D01*
X151639557Y-125980992D01*
X151774713Y-126183267D01*
X151946733Y-126355287D01*
X152149008Y-126490443D01*
X152373764Y-126583540D01*
X152612363Y-126631000D01*
X152855637Y-126631000D01*
X153094236Y-126583540D01*
X153318992Y-126490443D01*
X153521267Y-126355287D01*
X153693287Y-126183267D01*
X153828443Y-125980992D01*
X153921540Y-125756236D01*
X153969000Y-125517637D01*
X153969000Y-125274363D01*
X153921540Y-125035764D01*
X153828443Y-124811008D01*
X153693287Y-124608733D01*
X153521267Y-124436713D01*
X153318992Y-124301557D01*
X153094236Y-124208460D01*
X152855637Y-124161000D01*
X152612363Y-124161000D01*
X152373764Y-124208460D01*
X152149008Y-124301557D01*
X151946733Y-124436713D01*
X151774713Y-124608733D01*
X151639557Y-124811008D01*
X151546460Y-125035764D01*
X151499000Y-125274363D01*
X148729000Y-125274363D01*
X148681540Y-125035764D01*
X148588443Y-124811008D01*
X148453287Y-124608733D01*
X148281267Y-124436713D01*
X148078992Y-124301557D01*
X147854236Y-124208460D01*
X147615637Y-124161000D01*
X147372363Y-124161000D01*
X147133764Y-124208460D01*
X146909008Y-124301557D01*
X146706733Y-124436713D01*
X146534713Y-124608733D01*
X146399557Y-124811008D01*
X146306460Y-125035764D01*
X146259000Y-125274363D01*
X144382072Y-125274363D01*
X144382072Y-124496000D01*
X144369812Y-124371518D01*
X144333502Y-124251820D01*
X144274537Y-124141506D01*
X144195185Y-124044815D01*
X144098494Y-123965463D01*
X143988180Y-123906498D01*
X143925996Y-123887635D01*
X144022353Y-123791278D01*
X144051422Y-123767422D01*
X144097346Y-123711463D01*
X144146645Y-123651393D01*
X144185123Y-123579405D01*
X144217402Y-123519015D01*
X144260974Y-123375378D01*
X144272000Y-123263426D01*
X144272000Y-123263423D01*
X144275686Y-123226000D01*
X144272000Y-123188577D01*
X144272000Y-119146000D01*
X145955928Y-119146000D01*
X145955928Y-121646000D01*
X145968188Y-121770482D01*
X146004498Y-121890180D01*
X146063463Y-122000494D01*
X146142815Y-122097185D01*
X146239506Y-122176537D01*
X146349820Y-122235502D01*
X146469518Y-122271812D01*
X146594000Y-122284072D01*
X148394000Y-122284072D01*
X148518482Y-122271812D01*
X148638180Y-122235502D01*
X148748494Y-122176537D01*
X148845185Y-122097185D01*
X148924537Y-122000494D01*
X148983502Y-121890180D01*
X149019812Y-121770482D01*
X149032072Y-121646000D01*
X149032072Y-119146000D01*
X151195928Y-119146000D01*
X151195928Y-121646000D01*
X151208188Y-121770482D01*
X151244498Y-121890180D01*
X151303463Y-122000494D01*
X151382815Y-122097185D01*
X151479506Y-122176537D01*
X151589820Y-122235502D01*
X151709518Y-122271812D01*
X151834000Y-122284072D01*
X153634000Y-122284072D01*
X153758482Y-122271812D01*
X153878180Y-122235502D01*
X153988494Y-122176537D01*
X154085185Y-122097185D01*
X154164537Y-122000494D01*
X154223502Y-121890180D01*
X154259812Y-121770482D01*
X154272072Y-121646000D01*
X154272072Y-119146000D01*
X154259812Y-119021518D01*
X154223502Y-118901820D01*
X154164537Y-118791506D01*
X154085185Y-118694815D01*
X153988494Y-118615463D01*
X153878180Y-118556498D01*
X153758482Y-118520188D01*
X153634000Y-118507928D01*
X151834000Y-118507928D01*
X151709518Y-118520188D01*
X151589820Y-118556498D01*
X151479506Y-118615463D01*
X151382815Y-118694815D01*
X151303463Y-118791506D01*
X151244498Y-118901820D01*
X151208188Y-119021518D01*
X151195928Y-119146000D01*
X149032072Y-119146000D01*
X149019812Y-119021518D01*
X148983502Y-118901820D01*
X148924537Y-118791506D01*
X148845185Y-118694815D01*
X148748494Y-118615463D01*
X148638180Y-118556498D01*
X148518482Y-118520188D01*
X148394000Y-118507928D01*
X146594000Y-118507928D01*
X146469518Y-118520188D01*
X146349820Y-118556498D01*
X146239506Y-118615463D01*
X146142815Y-118694815D01*
X146063463Y-118791506D01*
X146004498Y-118901820D01*
X145968188Y-119021518D01*
X145955928Y-119146000D01*
X144272000Y-119146000D01*
X144272000Y-107696000D01*
X155991000Y-107696000D01*
X155990999Y-124095768D01*
X155953463Y-124141506D01*
X155894498Y-124251820D01*
X155858188Y-124371518D01*
X155845928Y-124496000D01*
X155845928Y-126296000D01*
X155858188Y-126420482D01*
X155894498Y-126540180D01*
X155953463Y-126650494D01*
X156032815Y-126747185D01*
X156129506Y-126826537D01*
X156239820Y-126885502D01*
X156359518Y-126921812D01*
X156484000Y-126934072D01*
X158984000Y-126934072D01*
X159108482Y-126921812D01*
X159228180Y-126885502D01*
X159338494Y-126826537D01*
X159435185Y-126747185D01*
X159514537Y-126650494D01*
X159573502Y-126540180D01*
X159609812Y-126420482D01*
X159622072Y-126296000D01*
X159622072Y-125274363D01*
X161499000Y-125274363D01*
X161499000Y-125517637D01*
X161546460Y-125756236D01*
X161639557Y-125980992D01*
X161774713Y-126183267D01*
X161946733Y-126355287D01*
X162149008Y-126490443D01*
X162373764Y-126583540D01*
X162612363Y-126631000D01*
X162855637Y-126631000D01*
X163094236Y-126583540D01*
X163318992Y-126490443D01*
X163521267Y-126355287D01*
X163693287Y-126183267D01*
X163828443Y-125980992D01*
X163921540Y-125756236D01*
X163969000Y-125517637D01*
X163969000Y-125274363D01*
X163921540Y-125035764D01*
X163915161Y-125020363D01*
X167247000Y-125020363D01*
X167247000Y-125263637D01*
X167294460Y-125502236D01*
X167387557Y-125726992D01*
X167522713Y-125929267D01*
X167694733Y-126101287D01*
X167897008Y-126236443D01*
X168121764Y-126329540D01*
X168360363Y-126377000D01*
X168603637Y-126377000D01*
X168842236Y-126329540D01*
X169066992Y-126236443D01*
X169269267Y-126101287D01*
X169441287Y-125929267D01*
X169576443Y-125726992D01*
X169669540Y-125502236D01*
X169717000Y-125263637D01*
X169717000Y-125020363D01*
X169669540Y-124781764D01*
X169576443Y-124557008D01*
X169441287Y-124354733D01*
X169269267Y-124182713D01*
X169066992Y-124047557D01*
X168842236Y-123954460D01*
X168603637Y-123907000D01*
X168360363Y-123907000D01*
X168121764Y-123954460D01*
X167897008Y-124047557D01*
X167694733Y-124182713D01*
X167522713Y-124354733D01*
X167387557Y-124557008D01*
X167294460Y-124781764D01*
X167247000Y-125020363D01*
X163915161Y-125020363D01*
X163828443Y-124811008D01*
X163693287Y-124608733D01*
X163521267Y-124436713D01*
X163318992Y-124301557D01*
X163094236Y-124208460D01*
X162855637Y-124161000D01*
X162612363Y-124161000D01*
X162373764Y-124208460D01*
X162149008Y-124301557D01*
X161946733Y-124436713D01*
X161774713Y-124608733D01*
X161639557Y-124811008D01*
X161546460Y-125035764D01*
X161499000Y-125274363D01*
X159622072Y-125274363D01*
X159622072Y-124496000D01*
X159609812Y-124371518D01*
X159573502Y-124251820D01*
X159514537Y-124141506D01*
X159435185Y-124044815D01*
X159338494Y-123965463D01*
X159228180Y-123906498D01*
X159108482Y-123870188D01*
X158984000Y-123857928D01*
X157514999Y-123857928D01*
X157514999Y-123058514D01*
X199325000Y-123058514D01*
X199325000Y-123321486D01*
X199376304Y-123579405D01*
X199476939Y-123822359D01*
X199623038Y-124041013D01*
X199808987Y-124226962D01*
X200027641Y-124373061D01*
X200270595Y-124473696D01*
X200528514Y-124525000D01*
X200791486Y-124525000D01*
X201049405Y-124473696D01*
X201292359Y-124373061D01*
X201511013Y-124226962D01*
X201696962Y-124041013D01*
X201843061Y-123822359D01*
X201943696Y-123579405D01*
X201995000Y-123321486D01*
X201995000Y-123058514D01*
X206945000Y-123058514D01*
X206945000Y-123321486D01*
X206996304Y-123579405D01*
X207096939Y-123822359D01*
X207243038Y-124041013D01*
X207428987Y-124226962D01*
X207647641Y-124373061D01*
X207890595Y-124473696D01*
X208148514Y-124525000D01*
X208411486Y-124525000D01*
X208669405Y-124473696D01*
X208912359Y-124373061D01*
X209131013Y-124226962D01*
X209316962Y-124041013D01*
X209463061Y-123822359D01*
X209563696Y-123579405D01*
X209615000Y-123321486D01*
X209615000Y-123058514D01*
X209563696Y-122800595D01*
X209463061Y-122557641D01*
X209316962Y-122338987D01*
X209131013Y-122153038D01*
X208912359Y-122006939D01*
X208669405Y-121906304D01*
X208411486Y-121855000D01*
X208148514Y-121855000D01*
X207890595Y-121906304D01*
X207647641Y-122006939D01*
X207428987Y-122153038D01*
X207243038Y-122338987D01*
X207096939Y-122557641D01*
X206996304Y-122800595D01*
X206945000Y-123058514D01*
X201995000Y-123058514D01*
X201943696Y-122800595D01*
X201843061Y-122557641D01*
X201696962Y-122338987D01*
X201511013Y-122153038D01*
X201292359Y-122006939D01*
X201049405Y-121906304D01*
X200791486Y-121855000D01*
X200528514Y-121855000D01*
X200270595Y-121906304D01*
X200027641Y-122006939D01*
X199808987Y-122153038D01*
X199623038Y-122338987D01*
X199476939Y-122557641D01*
X199376304Y-122800595D01*
X199325000Y-123058514D01*
X157514999Y-123058514D01*
X157514999Y-121611633D01*
X157612363Y-121631000D01*
X157855637Y-121631000D01*
X158094236Y-121583540D01*
X158318992Y-121490443D01*
X158521267Y-121355287D01*
X158693287Y-121183267D01*
X158828443Y-120980992D01*
X158921540Y-120756236D01*
X158969000Y-120517637D01*
X158969000Y-120274363D01*
X158921540Y-120035764D01*
X158828443Y-119811008D01*
X158693287Y-119608733D01*
X158521267Y-119436713D01*
X158318992Y-119301557D01*
X158094236Y-119208460D01*
X157855637Y-119161000D01*
X157612363Y-119161000D01*
X157514999Y-119180367D01*
X157514999Y-119146000D01*
X161195928Y-119146000D01*
X161195928Y-121646000D01*
X161208188Y-121770482D01*
X161244498Y-121890180D01*
X161303463Y-122000494D01*
X161382815Y-122097185D01*
X161479506Y-122176537D01*
X161589820Y-122235502D01*
X161709518Y-122271812D01*
X161834000Y-122284072D01*
X163634000Y-122284072D01*
X163758482Y-122271812D01*
X163878180Y-122235502D01*
X163988494Y-122176537D01*
X164085185Y-122097185D01*
X164164537Y-122000494D01*
X164223502Y-121890180D01*
X164259812Y-121770482D01*
X164272072Y-121646000D01*
X164272072Y-119146000D01*
X164259812Y-119021518D01*
X164223502Y-118901820D01*
X164218254Y-118892000D01*
X166943928Y-118892000D01*
X166943928Y-121392000D01*
X166956188Y-121516482D01*
X166992498Y-121636180D01*
X167051463Y-121746494D01*
X167130815Y-121843185D01*
X167227506Y-121922537D01*
X167337820Y-121981502D01*
X167457518Y-122017812D01*
X167582000Y-122030072D01*
X169382000Y-122030072D01*
X169506482Y-122017812D01*
X169626180Y-121981502D01*
X169736494Y-121922537D01*
X169833185Y-121843185D01*
X169912537Y-121746494D01*
X169971502Y-121636180D01*
X170007812Y-121516482D01*
X170020072Y-121392000D01*
X170020072Y-120020363D01*
X172247000Y-120020363D01*
X172247000Y-120263637D01*
X172294460Y-120502236D01*
X172387557Y-120726992D01*
X172522713Y-120929267D01*
X172694733Y-121101287D01*
X172897008Y-121236443D01*
X173121764Y-121329540D01*
X173360363Y-121377000D01*
X173603637Y-121377000D01*
X173842236Y-121329540D01*
X174066992Y-121236443D01*
X174269267Y-121101287D01*
X174441287Y-120929267D01*
X174576443Y-120726992D01*
X174669540Y-120502236D01*
X174717000Y-120263637D01*
X174717000Y-120020363D01*
X174669540Y-119781764D01*
X174576443Y-119557008D01*
X174441287Y-119354733D01*
X174269267Y-119182713D01*
X174066992Y-119047557D01*
X173842236Y-118954460D01*
X173603637Y-118907000D01*
X173360363Y-118907000D01*
X173121764Y-118954460D01*
X172897008Y-119047557D01*
X172694733Y-119182713D01*
X172522713Y-119354733D01*
X172387557Y-119557008D01*
X172294460Y-119781764D01*
X172247000Y-120020363D01*
X170020072Y-120020363D01*
X170020072Y-118892000D01*
X176943928Y-118892000D01*
X176943928Y-121392000D01*
X176956188Y-121516482D01*
X176992498Y-121636180D01*
X177051463Y-121746494D01*
X177130815Y-121843185D01*
X177227506Y-121922537D01*
X177337820Y-121981502D01*
X177457518Y-122017812D01*
X177582000Y-122030072D01*
X179382000Y-122030072D01*
X179506482Y-122017812D01*
X179626180Y-121981502D01*
X179736494Y-121922537D01*
X179833185Y-121843185D01*
X179912537Y-121746494D01*
X179971502Y-121636180D01*
X180007812Y-121516482D01*
X180020072Y-121392000D01*
X180020072Y-118892000D01*
X180007812Y-118767518D01*
X179971502Y-118647820D01*
X179912537Y-118537506D01*
X179833185Y-118440815D01*
X179736494Y-118361463D01*
X179626180Y-118302498D01*
X179506482Y-118266188D01*
X179382000Y-118253928D01*
X177582000Y-118253928D01*
X177457518Y-118266188D01*
X177337820Y-118302498D01*
X177227506Y-118361463D01*
X177130815Y-118440815D01*
X177051463Y-118537506D01*
X176992498Y-118647820D01*
X176956188Y-118767518D01*
X176943928Y-118892000D01*
X170020072Y-118892000D01*
X170007812Y-118767518D01*
X169971502Y-118647820D01*
X169912537Y-118537506D01*
X169833185Y-118440815D01*
X169736494Y-118361463D01*
X169626180Y-118302498D01*
X169506482Y-118266188D01*
X169382000Y-118253928D01*
X167582000Y-118253928D01*
X167457518Y-118266188D01*
X167337820Y-118302498D01*
X167227506Y-118361463D01*
X167130815Y-118440815D01*
X167051463Y-118537506D01*
X166992498Y-118647820D01*
X166956188Y-118767518D01*
X166943928Y-118892000D01*
X164218254Y-118892000D01*
X164164537Y-118791506D01*
X164085185Y-118694815D01*
X163988494Y-118615463D01*
X163878180Y-118556498D01*
X163758482Y-118520188D01*
X163634000Y-118507928D01*
X161834000Y-118507928D01*
X161709518Y-118520188D01*
X161589820Y-118556498D01*
X161479506Y-118615463D01*
X161382815Y-118694815D01*
X161303463Y-118791506D01*
X161244498Y-118901820D01*
X161208188Y-119021518D01*
X161195928Y-119146000D01*
X157514999Y-119146000D01*
X157514999Y-113626042D01*
X199737000Y-113626042D01*
X199737000Y-113957958D01*
X199801754Y-114283496D01*
X199928772Y-114590147D01*
X200113175Y-114866125D01*
X200347875Y-115100825D01*
X200623853Y-115285228D01*
X200930504Y-115412246D01*
X201256042Y-115477000D01*
X201587958Y-115477000D01*
X201913496Y-115412246D01*
X202220147Y-115285228D01*
X202496125Y-115100825D01*
X202692000Y-114904950D01*
X202887875Y-115100825D01*
X203163853Y-115285228D01*
X203470504Y-115412246D01*
X203796042Y-115477000D01*
X204127958Y-115477000D01*
X204453496Y-115412246D01*
X204760147Y-115285228D01*
X205036125Y-115100825D01*
X205173884Y-114963066D01*
X205510539Y-114963066D01*
X205612339Y-115232579D01*
X205910477Y-115378463D01*
X206231346Y-115463380D01*
X206562617Y-115484066D01*
X206891557Y-115439728D01*
X207205527Y-115332069D01*
X207391661Y-115232579D01*
X207493461Y-114963066D01*
X206502000Y-113971605D01*
X205510539Y-114963066D01*
X205173884Y-114963066D01*
X205270825Y-114866125D01*
X205327042Y-114781991D01*
X205330934Y-114783461D01*
X206322395Y-113792000D01*
X206681605Y-113792000D01*
X207673066Y-114783461D01*
X207942579Y-114681661D01*
X208088463Y-114383523D01*
X208173380Y-114062654D01*
X208194066Y-113731383D01*
X208149728Y-113402443D01*
X208042069Y-113088473D01*
X207942579Y-112902339D01*
X207673066Y-112800539D01*
X206681605Y-113792000D01*
X206322395Y-113792000D01*
X205330934Y-112800539D01*
X205327042Y-112802009D01*
X205270825Y-112717875D01*
X205173884Y-112620934D01*
X205510539Y-112620934D01*
X206502000Y-113612395D01*
X207493461Y-112620934D01*
X207391661Y-112351421D01*
X207093523Y-112205537D01*
X206772654Y-112120620D01*
X206441383Y-112099934D01*
X206112443Y-112144272D01*
X205798473Y-112251931D01*
X205612339Y-112351421D01*
X205510539Y-112620934D01*
X205173884Y-112620934D01*
X205036125Y-112483175D01*
X204760147Y-112298772D01*
X204453496Y-112171754D01*
X204127958Y-112107000D01*
X203796042Y-112107000D01*
X203470504Y-112171754D01*
X203163853Y-112298772D01*
X202887875Y-112483175D01*
X202692000Y-112679050D01*
X202496125Y-112483175D01*
X202220147Y-112298772D01*
X201913496Y-112171754D01*
X201587958Y-112107000D01*
X201256042Y-112107000D01*
X200930504Y-112171754D01*
X200623853Y-112298772D01*
X200347875Y-112483175D01*
X200113175Y-112717875D01*
X199928772Y-112993853D01*
X199801754Y-113300504D01*
X199737000Y-113626042D01*
X157514999Y-113626042D01*
X157514999Y-107696000D01*
X182526517Y-107696000D01*
X182526843Y-107696032D01*
X182625639Y-107696000D01*
X182725816Y-107696000D01*
X182726147Y-107695967D01*
X228339463Y-107681193D01*
X210486656Y-125534000D01*
X179656383Y-125534000D01*
X179669540Y-125502236D01*
X179717000Y-125263637D01*
X179717000Y-125020363D01*
X179669540Y-124781764D01*
X179576443Y-124557008D01*
X179441287Y-124354733D01*
X179269267Y-124182713D01*
X179066992Y-124047557D01*
X178842236Y-123954460D01*
X178603637Y-123907000D01*
X178360363Y-123907000D01*
X178121764Y-123954460D01*
X177897008Y-124047557D01*
X177694733Y-124182713D01*
X177522713Y-124354733D01*
X177387557Y-124557008D01*
X177294460Y-124781764D01*
X177247000Y-125020363D01*
X177247000Y-125263637D01*
X177294460Y-125502236D01*
X177307617Y-125534000D01*
X175370072Y-125534000D01*
X175370072Y-124242000D01*
X175357812Y-124117518D01*
X175321502Y-123997820D01*
X175262537Y-123887506D01*
X175183185Y-123790815D01*
X175086494Y-123711463D01*
X174976180Y-123652498D01*
X174856482Y-123616188D01*
X174732000Y-123603928D01*
X172232000Y-123603928D01*
X172107518Y-123616188D01*
X171987820Y-123652498D01*
X171877506Y-123711463D01*
X171780815Y-123790815D01*
X171701463Y-123887506D01*
X171642498Y-123997820D01*
X171606188Y-124117518D01*
X171593928Y-124242000D01*
X171593928Y-126042000D01*
X171606188Y-126166482D01*
X171642498Y-126286180D01*
X171701463Y-126396494D01*
X171780815Y-126493185D01*
X171877506Y-126572537D01*
X171987820Y-126631502D01*
X172107518Y-126667812D01*
X172232000Y-126680072D01*
X174292441Y-126680072D01*
X174420721Y-126808352D01*
X174444578Y-126837422D01*
X174560608Y-126932645D01*
X174692985Y-127003402D01*
X174836622Y-127046974D01*
X174948574Y-127058000D01*
X174948576Y-127058000D01*
X174985999Y-127061686D01*
X175023422Y-127058000D01*
X177387146Y-127058000D01*
X177294460Y-127281764D01*
X177247000Y-127520363D01*
X177247000Y-127763637D01*
X177294460Y-128002236D01*
X177387557Y-128226992D01*
X177522713Y-128429267D01*
X177694733Y-128601287D01*
X177897008Y-128736443D01*
X178121764Y-128829540D01*
X178360363Y-128877000D01*
X178603637Y-128877000D01*
X178842236Y-128829540D01*
X179066992Y-128736443D01*
X179269267Y-128601287D01*
X179441287Y-128429267D01*
X179576443Y-128226992D01*
X179669540Y-128002236D01*
X179717000Y-127763637D01*
X179717000Y-127520363D01*
X179669540Y-127281764D01*
X179576854Y-127058000D01*
X210764863Y-127058000D01*
X210802286Y-127061686D01*
X210839709Y-127058000D01*
X210839712Y-127058000D01*
X210951664Y-127046974D01*
X211095301Y-127003402D01*
X211227678Y-126932645D01*
X211343708Y-126837422D01*
X211367570Y-126808346D01*
X231604363Y-106571555D01*
X231633432Y-106547699D01*
X231728655Y-106431669D01*
X231799412Y-106299292D01*
X231842984Y-106155655D01*
X231854010Y-106043703D01*
X231854010Y-106043701D01*
X231857696Y-106006278D01*
X231854010Y-105968855D01*
X231854010Y-97127631D01*
X231857696Y-97090208D01*
X231853096Y-97043506D01*
X231842984Y-96940830D01*
X231799412Y-96797193D01*
X231747250Y-96699605D01*
X231728655Y-96664815D01*
X231657289Y-96577856D01*
X231633432Y-96548786D01*
X231604362Y-96524929D01*
X222705086Y-87625654D01*
X222681224Y-87596578D01*
X222565194Y-87501355D01*
X222432817Y-87430598D01*
X222289180Y-87387026D01*
X222177228Y-87376000D01*
X222177225Y-87376000D01*
X222139802Y-87372314D01*
X222102379Y-87376000D01*
X207330976Y-87376000D01*
X207186312Y-87159495D01*
X206972505Y-86945688D01*
X206721095Y-86777701D01*
X206441743Y-86661989D01*
X206145184Y-86603000D01*
X205842816Y-86603000D01*
X205587430Y-86653799D01*
X205278283Y-86344653D01*
X205254421Y-86315577D01*
X205138391Y-86220354D01*
X205006014Y-86149597D01*
X204862377Y-86106025D01*
X204750425Y-86094999D01*
X204750422Y-86094999D01*
X204712999Y-86091313D01*
X204675576Y-86094999D01*
X200336542Y-86094999D01*
X200299119Y-86091313D01*
X200261696Y-86094999D01*
X200261693Y-86094999D01*
X200149741Y-86106025D01*
X200006104Y-86149597D01*
X199944483Y-86182534D01*
X199873726Y-86220354D01*
X199849147Y-86240526D01*
X199757697Y-86315577D01*
X199733839Y-86344648D01*
X199120652Y-86957836D01*
X199091577Y-86981697D01*
X199053265Y-87028381D01*
X198996354Y-87097727D01*
X198968406Y-87150015D01*
X198925597Y-87230105D01*
X198882025Y-87373742D01*
X198873037Y-87465000D01*
X198867313Y-87523119D01*
X198870999Y-87560542D01*
X198871000Y-91899566D01*
X198867313Y-91936999D01*
X198882026Y-92086377D01*
X198925598Y-92230014D01*
X198996354Y-92362391D01*
X199067720Y-92449350D01*
X199091578Y-92478421D01*
X199120648Y-92502278D01*
X199429799Y-92811429D01*
X199379000Y-93066816D01*
X199379000Y-93369184D01*
X199437989Y-93665743D01*
X199553701Y-93945095D01*
X199721688Y-94196505D01*
X199935495Y-94410312D01*
X200186905Y-94578299D01*
X200466257Y-94694011D01*
X200762816Y-94753000D01*
X201065184Y-94753000D01*
X201361743Y-94694011D01*
X201641095Y-94578299D01*
X201892505Y-94410312D01*
X202106312Y-94196505D01*
X202274299Y-93945095D01*
X202390011Y-93665743D01*
X202449000Y-93369184D01*
X202449000Y-93066816D01*
X204459000Y-93066816D01*
X204459000Y-93369184D01*
X204517989Y-93665743D01*
X204633701Y-93945095D01*
X204801688Y-94196505D01*
X205015495Y-94410312D01*
X205266905Y-94578299D01*
X205546257Y-94694011D01*
X205842816Y-94753000D01*
X206145184Y-94753000D01*
X206441743Y-94694011D01*
X206721095Y-94578299D01*
X206972505Y-94410312D01*
X207186312Y-94196505D01*
X207354299Y-93945095D01*
X207470011Y-93665743D01*
X207529000Y-93369184D01*
X207529000Y-93066816D01*
X207470011Y-92770257D01*
X207354299Y-92490905D01*
X207186312Y-92239495D01*
X206972505Y-92025688D01*
X206818895Y-91923049D01*
X206878475Y-91742080D01*
X205994000Y-90857605D01*
X205109525Y-91742080D01*
X205169105Y-91923049D01*
X205015495Y-92025688D01*
X204801688Y-92239495D01*
X204633701Y-92490905D01*
X204517989Y-92770257D01*
X204459000Y-93066816D01*
X202449000Y-93066816D01*
X202390011Y-92770257D01*
X202274299Y-92490905D01*
X202106312Y-92239495D01*
X201892505Y-92025688D01*
X201776237Y-91948000D01*
X201892505Y-91870312D01*
X202106312Y-91656505D01*
X202274299Y-91405095D01*
X202390011Y-91125743D01*
X202449000Y-90829184D01*
X202449000Y-90744553D01*
X204453009Y-90744553D01*
X204495603Y-91043907D01*
X204595778Y-91329199D01*
X204675739Y-91478792D01*
X204929920Y-91562475D01*
X205814395Y-90678000D01*
X206173605Y-90678000D01*
X207058080Y-91562475D01*
X207312261Y-91478792D01*
X207443158Y-91206225D01*
X207518365Y-90913358D01*
X207534991Y-90611447D01*
X207492397Y-90312093D01*
X207392222Y-90026801D01*
X207312261Y-89877208D01*
X207058080Y-89793525D01*
X206173605Y-90678000D01*
X205814395Y-90678000D01*
X204929920Y-89793525D01*
X204675739Y-89877208D01*
X204544842Y-90149775D01*
X204469635Y-90442642D01*
X204453009Y-90744553D01*
X202449000Y-90744553D01*
X202449000Y-90526816D01*
X202390011Y-90230257D01*
X202274299Y-89950905D01*
X202106312Y-89699495D01*
X201892505Y-89485688D01*
X201776237Y-89408000D01*
X201892505Y-89330312D01*
X202106312Y-89116505D01*
X202274299Y-88865095D01*
X202390011Y-88585743D01*
X202449000Y-88289184D01*
X202449000Y-87986816D01*
X202390011Y-87690257D01*
X202360495Y-87618999D01*
X204397369Y-87618999D01*
X204509799Y-87731430D01*
X204459000Y-87986816D01*
X204459000Y-88289184D01*
X204517989Y-88585743D01*
X204633701Y-88865095D01*
X204801688Y-89116505D01*
X205015495Y-89330312D01*
X205169105Y-89432951D01*
X205109525Y-89613920D01*
X205994000Y-90498395D01*
X206878475Y-89613920D01*
X206818895Y-89432951D01*
X206972505Y-89330312D01*
X207186312Y-89116505D01*
X207330976Y-88900000D01*
X221824172Y-88900000D01*
X229192324Y-96268153D01*
X228915659Y-96295402D01*
X228702945Y-96359928D01*
X228314000Y-96359928D01*
X228189518Y-96372188D01*
X228069820Y-96408498D01*
X227959506Y-96467463D01*
X227862815Y-96546815D01*
X227783463Y-96643506D01*
X227724498Y-96753820D01*
X227688188Y-96873518D01*
X227675928Y-96998000D01*
X227675928Y-97090937D01*
X227616280Y-97163619D01*
X227427594Y-97516626D01*
X227311402Y-97899660D01*
X227282000Y-98198185D01*
X227282000Y-101359928D01*
X225014000Y-101359928D01*
X224889518Y-101372188D01*
X224769820Y-101408498D01*
X224659506Y-101467463D01*
X224562815Y-101546815D01*
X224483463Y-101643506D01*
X224424498Y-101753820D01*
X224388188Y-101873518D01*
X224375928Y-101998000D01*
X224375928Y-103618478D01*
X183642000Y-103631671D01*
X183642000Y-101388922D01*
X183845756Y-101252777D01*
X184056777Y-101041756D01*
X184222575Y-100793621D01*
X184336779Y-100517909D01*
X184395000Y-100225214D01*
X184395000Y-99926786D01*
X184336779Y-99634091D01*
X184222575Y-99358379D01*
X184056777Y-99110244D01*
X183845756Y-98899223D01*
X183597621Y-98733425D01*
X183321909Y-98619221D01*
X183029214Y-98561000D01*
X182730786Y-98561000D01*
X182438091Y-98619221D01*
X182162379Y-98733425D01*
X181914244Y-98899223D01*
X181703223Y-99110244D01*
X181537425Y-99358379D01*
X181423221Y-99634091D01*
X181365000Y-99926786D01*
X181365000Y-100225214D01*
X181423221Y-100517909D01*
X181537425Y-100793621D01*
X181703223Y-101041756D01*
X181914244Y-101252777D01*
X182118000Y-101388922D01*
X182118001Y-103632000D01*
X152908000Y-103632000D01*
X152908000Y-101129423D01*
X152911686Y-101092000D01*
X152908000Y-101054574D01*
X152896974Y-100942622D01*
X152853402Y-100798985D01*
X152807252Y-100712645D01*
X152782645Y-100666607D01*
X152711279Y-100579648D01*
X152687422Y-100550578D01*
X152658351Y-100526721D01*
X152597192Y-100465561D01*
X152645000Y-100225214D01*
X152645000Y-99926786D01*
X152586779Y-99634091D01*
X152472575Y-99358379D01*
X152364078Y-99196000D01*
X171201928Y-99196000D01*
X171201928Y-100956000D01*
X171214188Y-101080482D01*
X171250498Y-101200180D01*
X171309463Y-101310494D01*
X171388815Y-101407185D01*
X171485506Y-101486537D01*
X171595820Y-101545502D01*
X171715518Y-101581812D01*
X171840000Y-101594072D01*
X173600000Y-101594072D01*
X173724482Y-101581812D01*
X173844180Y-101545502D01*
X173954494Y-101486537D01*
X174051185Y-101407185D01*
X174130537Y-101310494D01*
X174189502Y-101200180D01*
X174225812Y-101080482D01*
X174238072Y-100956000D01*
X174238072Y-99196000D01*
X174225812Y-99071518D01*
X174189502Y-98951820D01*
X174130537Y-98841506D01*
X174051185Y-98744815D01*
X173954494Y-98665463D01*
X173844180Y-98606498D01*
X173724482Y-98570188D01*
X173600000Y-98557928D01*
X171840000Y-98557928D01*
X171715518Y-98570188D01*
X171595820Y-98606498D01*
X171485506Y-98665463D01*
X171388815Y-98744815D01*
X171309463Y-98841506D01*
X171250498Y-98951820D01*
X171214188Y-99071518D01*
X171201928Y-99196000D01*
X152364078Y-99196000D01*
X152306777Y-99110244D01*
X152095756Y-98899223D01*
X151847621Y-98733425D01*
X151571909Y-98619221D01*
X151279214Y-98561000D01*
X150980786Y-98561000D01*
X150688091Y-98619221D01*
X150412379Y-98733425D01*
X150164244Y-98899223D01*
X149953223Y-99110244D01*
X149787425Y-99358379D01*
X149673221Y-99634091D01*
X149615000Y-99926786D01*
X149615000Y-100225214D01*
X149673221Y-100517909D01*
X149787425Y-100793621D01*
X149953223Y-101041756D01*
X150164244Y-101252777D01*
X150412379Y-101418575D01*
X150688091Y-101532779D01*
X150980786Y-101591000D01*
X151279214Y-101591000D01*
X151384001Y-101570156D01*
X151384000Y-103632000D01*
X128020802Y-103632000D01*
X125798801Y-103621119D01*
X121626259Y-99448578D01*
X121373681Y-99196000D01*
X139451928Y-99196000D01*
X139451928Y-100956000D01*
X139464188Y-101080482D01*
X139500498Y-101200180D01*
X139559463Y-101310494D01*
X139638815Y-101407185D01*
X139735506Y-101486537D01*
X139845820Y-101545502D01*
X139965518Y-101581812D01*
X140090000Y-101594072D01*
X141850000Y-101594072D01*
X141974482Y-101581812D01*
X142094180Y-101545502D01*
X142204494Y-101486537D01*
X142301185Y-101407185D01*
X142380537Y-101310494D01*
X142439502Y-101200180D01*
X142475812Y-101080482D01*
X142488072Y-100956000D01*
X142488072Y-99196000D01*
X142475812Y-99071518D01*
X142439502Y-98951820D01*
X142380537Y-98841506D01*
X142301185Y-98744815D01*
X142204494Y-98665463D01*
X142094180Y-98606498D01*
X141974482Y-98570188D01*
X141850000Y-98557928D01*
X140090000Y-98557928D01*
X139965518Y-98570188D01*
X139845820Y-98606498D01*
X139735506Y-98665463D01*
X139638815Y-98744815D01*
X139559463Y-98841506D01*
X139500498Y-98951820D01*
X139464188Y-99071518D01*
X139451928Y-99196000D01*
X121373681Y-99196000D01*
X120746260Y-98568579D01*
X120514381Y-98378280D01*
X120161374Y-98189594D01*
X120020353Y-98146816D01*
X199379000Y-98146816D01*
X199379000Y-98449184D01*
X199437989Y-98745743D01*
X199553701Y-99025095D01*
X199721688Y-99276505D01*
X199935495Y-99490312D01*
X200186905Y-99658299D01*
X200466257Y-99774011D01*
X200762816Y-99833000D01*
X201065184Y-99833000D01*
X201361743Y-99774011D01*
X201641095Y-99658299D01*
X201892505Y-99490312D01*
X202106312Y-99276505D01*
X202274299Y-99025095D01*
X202390011Y-98745743D01*
X202449000Y-98449184D01*
X202449000Y-98146816D01*
X202390011Y-97850257D01*
X202274299Y-97570905D01*
X202158768Y-97398000D01*
X204455928Y-97398000D01*
X204455928Y-99198000D01*
X204468188Y-99322482D01*
X204504498Y-99442180D01*
X204563463Y-99552494D01*
X204642815Y-99649185D01*
X204739506Y-99728537D01*
X204849820Y-99787502D01*
X204969518Y-99823812D01*
X205094000Y-99836072D01*
X206894000Y-99836072D01*
X207018482Y-99823812D01*
X207138180Y-99787502D01*
X207248494Y-99728537D01*
X207345185Y-99649185D01*
X207387191Y-99598000D01*
X221675928Y-99598000D01*
X221688188Y-99722482D01*
X221724498Y-99842180D01*
X221783463Y-99952494D01*
X221862815Y-100049185D01*
X221959506Y-100128537D01*
X222069820Y-100187502D01*
X222189518Y-100223812D01*
X222314000Y-100236072D01*
X223028250Y-100233000D01*
X223187000Y-100074250D01*
X223187000Y-98425000D01*
X223441000Y-98425000D01*
X223441000Y-100074250D01*
X223599750Y-100233000D01*
X224314000Y-100236072D01*
X224438482Y-100223812D01*
X224558180Y-100187502D01*
X224668494Y-100128537D01*
X224765185Y-100049185D01*
X224844537Y-99952494D01*
X224903502Y-99842180D01*
X224939812Y-99722482D01*
X224952072Y-99598000D01*
X224949000Y-98583750D01*
X224790250Y-98425000D01*
X223441000Y-98425000D01*
X223187000Y-98425000D01*
X221837750Y-98425000D01*
X221679000Y-98583750D01*
X221675928Y-99598000D01*
X207387191Y-99598000D01*
X207424537Y-99552494D01*
X207483502Y-99442180D01*
X207519812Y-99322482D01*
X207532072Y-99198000D01*
X207532072Y-97398000D01*
X207519812Y-97273518D01*
X207483502Y-97153820D01*
X207424537Y-97043506D01*
X207387192Y-96998000D01*
X221675928Y-96998000D01*
X221679000Y-98012250D01*
X221837750Y-98171000D01*
X223187000Y-98171000D01*
X223187000Y-96521750D01*
X223441000Y-96521750D01*
X223441000Y-98171000D01*
X224790250Y-98171000D01*
X224949000Y-98012250D01*
X224952072Y-96998000D01*
X224939812Y-96873518D01*
X224903502Y-96753820D01*
X224844537Y-96643506D01*
X224765185Y-96546815D01*
X224668494Y-96467463D01*
X224558180Y-96408498D01*
X224438482Y-96372188D01*
X224314000Y-96359928D01*
X223599750Y-96363000D01*
X223441000Y-96521750D01*
X223187000Y-96521750D01*
X223028250Y-96363000D01*
X222314000Y-96359928D01*
X222189518Y-96372188D01*
X222069820Y-96408498D01*
X221959506Y-96467463D01*
X221862815Y-96546815D01*
X221783463Y-96643506D01*
X221724498Y-96753820D01*
X221688188Y-96873518D01*
X221675928Y-96998000D01*
X207387192Y-96998000D01*
X207345185Y-96946815D01*
X207248494Y-96867463D01*
X207138180Y-96808498D01*
X207018482Y-96772188D01*
X206894000Y-96759928D01*
X205094000Y-96759928D01*
X204969518Y-96772188D01*
X204849820Y-96808498D01*
X204739506Y-96867463D01*
X204642815Y-96946815D01*
X204563463Y-97043506D01*
X204504498Y-97153820D01*
X204468188Y-97273518D01*
X204455928Y-97398000D01*
X202158768Y-97398000D01*
X202106312Y-97319495D01*
X201892505Y-97105688D01*
X201641095Y-96937701D01*
X201361743Y-96821989D01*
X201065184Y-96763000D01*
X200762816Y-96763000D01*
X200466257Y-96821989D01*
X200186905Y-96937701D01*
X199935495Y-97105688D01*
X199721688Y-97319495D01*
X199553701Y-97570905D01*
X199437989Y-97850257D01*
X199379000Y-98146816D01*
X120020353Y-98146816D01*
X119778340Y-98073403D01*
X119380000Y-98034169D01*
X118981660Y-98073403D01*
X118853209Y-98112368D01*
X116577712Y-95836872D01*
X116545896Y-95798104D01*
X116391190Y-95671140D01*
X116214687Y-95576798D01*
X116023171Y-95518702D01*
X115873902Y-95504000D01*
X115824000Y-95499085D01*
X115774098Y-95504000D01*
X91183396Y-95504000D01*
X91084759Y-95405363D01*
X90852241Y-95250000D01*
X91084759Y-95094637D01*
X91284637Y-94894759D01*
X91441680Y-94659727D01*
X91549853Y-94398574D01*
X91605000Y-94121335D01*
X91605000Y-93838665D01*
X91549853Y-93561426D01*
X91441680Y-93300273D01*
X91284637Y-93065241D01*
X91084759Y-92865363D01*
X90852241Y-92710000D01*
X91084759Y-92554637D01*
X91284637Y-92354759D01*
X91441680Y-92119727D01*
X91549853Y-91858574D01*
X91605000Y-91581335D01*
X91605000Y-91298665D01*
X91549853Y-91021426D01*
X91441680Y-90760273D01*
X91284637Y-90525241D01*
X91084759Y-90325363D01*
X90852241Y-90170000D01*
X91084759Y-90014637D01*
X91284637Y-89814759D01*
X91441680Y-89579727D01*
X91549853Y-89318574D01*
X91605000Y-89041335D01*
X91605000Y-88758665D01*
X91549853Y-88481426D01*
X91441680Y-88220273D01*
X91284637Y-87985241D01*
X91084759Y-87785363D01*
X90852241Y-87630000D01*
X91084759Y-87474637D01*
X91284637Y-87274759D01*
X91360455Y-87161289D01*
X103230000Y-87161289D01*
X103230000Y-87590711D01*
X103313776Y-88011883D01*
X103478109Y-88408617D01*
X103716683Y-88765669D01*
X104020331Y-89069317D01*
X104377383Y-89307891D01*
X104774117Y-89472224D01*
X105195289Y-89556000D01*
X105624711Y-89556000D01*
X106045883Y-89472224D01*
X106442617Y-89307891D01*
X106799669Y-89069317D01*
X107103317Y-88765669D01*
X107341891Y-88408617D01*
X107506224Y-88011883D01*
X107590000Y-87590711D01*
X107590000Y-87161289D01*
X134980000Y-87161289D01*
X134980000Y-87590711D01*
X135063776Y-88011883D01*
X135228109Y-88408617D01*
X135466683Y-88765669D01*
X135770331Y-89069317D01*
X136127383Y-89307891D01*
X136524117Y-89472224D01*
X136945289Y-89556000D01*
X137374711Y-89556000D01*
X137795883Y-89472224D01*
X138192617Y-89307891D01*
X138549669Y-89069317D01*
X138853317Y-88765669D01*
X139091891Y-88408617D01*
X139256224Y-88011883D01*
X139340000Y-87590711D01*
X139340000Y-87161289D01*
X166730000Y-87161289D01*
X166730000Y-87590711D01*
X166813776Y-88011883D01*
X166978109Y-88408617D01*
X167216683Y-88765669D01*
X167520331Y-89069317D01*
X167877383Y-89307891D01*
X168274117Y-89472224D01*
X168695289Y-89556000D01*
X169124711Y-89556000D01*
X169545883Y-89472224D01*
X169942617Y-89307891D01*
X170299669Y-89069317D01*
X170603317Y-88765669D01*
X170841891Y-88408617D01*
X171006224Y-88011883D01*
X171090000Y-87590711D01*
X171090000Y-87161289D01*
X171006224Y-86740117D01*
X170841891Y-86343383D01*
X170603317Y-85986331D01*
X170299669Y-85682683D01*
X169942617Y-85444109D01*
X169545883Y-85279776D01*
X169124711Y-85196000D01*
X168695289Y-85196000D01*
X168274117Y-85279776D01*
X167877383Y-85444109D01*
X167520331Y-85682683D01*
X167216683Y-85986331D01*
X166978109Y-86343383D01*
X166813776Y-86740117D01*
X166730000Y-87161289D01*
X139340000Y-87161289D01*
X139256224Y-86740117D01*
X139091891Y-86343383D01*
X138853317Y-85986331D01*
X138549669Y-85682683D01*
X138192617Y-85444109D01*
X137795883Y-85279776D01*
X137374711Y-85196000D01*
X136945289Y-85196000D01*
X136524117Y-85279776D01*
X136127383Y-85444109D01*
X135770331Y-85682683D01*
X135466683Y-85986331D01*
X135228109Y-86343383D01*
X135063776Y-86740117D01*
X134980000Y-87161289D01*
X107590000Y-87161289D01*
X107506224Y-86740117D01*
X107341891Y-86343383D01*
X107103317Y-85986331D01*
X106799669Y-85682683D01*
X106442617Y-85444109D01*
X106045883Y-85279776D01*
X105624711Y-85196000D01*
X105195289Y-85196000D01*
X104774117Y-85279776D01*
X104377383Y-85444109D01*
X104020331Y-85682683D01*
X103716683Y-85986331D01*
X103478109Y-86343383D01*
X103313776Y-86740117D01*
X103230000Y-87161289D01*
X91360455Y-87161289D01*
X91441680Y-87039727D01*
X91549853Y-86778574D01*
X91605000Y-86501335D01*
X91605000Y-86218665D01*
X91549853Y-85941426D01*
X91441680Y-85680273D01*
X91284637Y-85445241D01*
X91084759Y-85245363D01*
X90852241Y-85090000D01*
X91084759Y-84934637D01*
X91284637Y-84734759D01*
X91367035Y-84611440D01*
X120910000Y-84611440D01*
X120910000Y-85060560D01*
X120997619Y-85501051D01*
X121169490Y-85915985D01*
X121419008Y-86289415D01*
X121736585Y-86606992D01*
X122110015Y-86856510D01*
X122524949Y-87028381D01*
X122965440Y-87116000D01*
X123414560Y-87116000D01*
X123855051Y-87028381D01*
X124269985Y-86856510D01*
X124643415Y-86606992D01*
X124960992Y-86289415D01*
X125210510Y-85915985D01*
X125382381Y-85501051D01*
X125470000Y-85060560D01*
X125470000Y-84611440D01*
X152660000Y-84611440D01*
X152660000Y-85060560D01*
X152747619Y-85501051D01*
X152919490Y-85915985D01*
X153169008Y-86289415D01*
X153486585Y-86606992D01*
X153860015Y-86856510D01*
X154274949Y-87028381D01*
X154715440Y-87116000D01*
X155164560Y-87116000D01*
X155605051Y-87028381D01*
X156019985Y-86856510D01*
X156393415Y-86606992D01*
X156710992Y-86289415D01*
X156960510Y-85915985D01*
X157132381Y-85501051D01*
X157220000Y-85060560D01*
X157220000Y-84611440D01*
X184410000Y-84611440D01*
X184410000Y-85060560D01*
X184497619Y-85501051D01*
X184669490Y-85915985D01*
X184919008Y-86289415D01*
X185236585Y-86606992D01*
X185610015Y-86856510D01*
X186024949Y-87028381D01*
X186465440Y-87116000D01*
X186914560Y-87116000D01*
X187355051Y-87028381D01*
X187769985Y-86856510D01*
X188143415Y-86606992D01*
X188460992Y-86289415D01*
X188710510Y-85915985D01*
X188882381Y-85501051D01*
X188970000Y-85060560D01*
X188970000Y-84611440D01*
X188882381Y-84170949D01*
X188710510Y-83756015D01*
X188460992Y-83382585D01*
X188143415Y-83065008D01*
X187769985Y-82815490D01*
X187355051Y-82643619D01*
X186914560Y-82556000D01*
X186465440Y-82556000D01*
X186024949Y-82643619D01*
X185610015Y-82815490D01*
X185236585Y-83065008D01*
X184919008Y-83382585D01*
X184669490Y-83756015D01*
X184497619Y-84170949D01*
X184410000Y-84611440D01*
X157220000Y-84611440D01*
X157132381Y-84170949D01*
X156960510Y-83756015D01*
X156710992Y-83382585D01*
X156393415Y-83065008D01*
X156019985Y-82815490D01*
X155605051Y-82643619D01*
X155164560Y-82556000D01*
X154715440Y-82556000D01*
X154274949Y-82643619D01*
X153860015Y-82815490D01*
X153486585Y-83065008D01*
X153169008Y-83382585D01*
X152919490Y-83756015D01*
X152747619Y-84170949D01*
X152660000Y-84611440D01*
X125470000Y-84611440D01*
X125382381Y-84170949D01*
X125210510Y-83756015D01*
X124960992Y-83382585D01*
X124643415Y-83065008D01*
X124269985Y-82815490D01*
X123855051Y-82643619D01*
X123414560Y-82556000D01*
X122965440Y-82556000D01*
X122524949Y-82643619D01*
X122110015Y-82815490D01*
X121736585Y-83065008D01*
X121419008Y-83382585D01*
X121169490Y-83756015D01*
X120997619Y-84170949D01*
X120910000Y-84611440D01*
X91367035Y-84611440D01*
X91441680Y-84499727D01*
X91549853Y-84238574D01*
X91605000Y-83961335D01*
X91605000Y-83678665D01*
X91549853Y-83401426D01*
X91441680Y-83140273D01*
X91284637Y-82905241D01*
X91084759Y-82705363D01*
X90852241Y-82550000D01*
X91084759Y-82394637D01*
X91284637Y-82194759D01*
X91441680Y-81959727D01*
X91549853Y-81698574D01*
X91605000Y-81421335D01*
X91605000Y-81138665D01*
X91549853Y-80861426D01*
X91441680Y-80600273D01*
X91284637Y-80365241D01*
X91084759Y-80165363D01*
X90852241Y-80010000D01*
X91084759Y-79854637D01*
X91284637Y-79654759D01*
X91441680Y-79419727D01*
X91549853Y-79158574D01*
X91605000Y-78881335D01*
X91605000Y-78598665D01*
X91549853Y-78321426D01*
X91441680Y-78060273D01*
X91284637Y-77825241D01*
X91084759Y-77625363D01*
X90849727Y-77468320D01*
X90588574Y-77360147D01*
X90311335Y-77305000D01*
X90028665Y-77305000D01*
X89751426Y-77360147D01*
X89490273Y-77468320D01*
X89255241Y-77625363D01*
X89055363Y-77825241D01*
X88898320Y-78060273D01*
X88790147Y-78321426D01*
X88735000Y-78598665D01*
X83988072Y-78598665D01*
X83988072Y-77940000D01*
X83975812Y-77815518D01*
X83939502Y-77695820D01*
X83880537Y-77585506D01*
X83801185Y-77488815D01*
X83704494Y-77409463D01*
X83594180Y-77350498D01*
X83474482Y-77314188D01*
X83350000Y-77301928D01*
X81750000Y-77301928D01*
X81625518Y-77314188D01*
X81505820Y-77350498D01*
X81395506Y-77409463D01*
X81298815Y-77488815D01*
X81219463Y-77585506D01*
X81160498Y-77695820D01*
X81124188Y-77815518D01*
X81111928Y-77940000D01*
X70711381Y-77940000D01*
X70731474Y-77891492D01*
X70787005Y-77612321D01*
X70787005Y-77327679D01*
X70731474Y-77048508D01*
X70622547Y-76785533D01*
X70464409Y-76548863D01*
X70263137Y-76347591D01*
X70042252Y-76200000D01*
X70263137Y-76052409D01*
X70464409Y-75851137D01*
X70622547Y-75614467D01*
X70731474Y-75351492D01*
X70787005Y-75072321D01*
X70787005Y-74787679D01*
X70731474Y-74508508D01*
X70622547Y-74245533D01*
X70464409Y-74008863D01*
X70263137Y-73807591D01*
X70026467Y-73649453D01*
X69763492Y-73540526D01*
X69484321Y-73484995D01*
X69199679Y-73484995D01*
X68920508Y-73540526D01*
X68657533Y-73649453D01*
X68420863Y-73807591D01*
X68219591Y-74008863D01*
X68072000Y-74229748D01*
X67924409Y-74008863D01*
X67723137Y-73807591D01*
X67486467Y-73649453D01*
X67223492Y-73540526D01*
X66944321Y-73484995D01*
X66659679Y-73484995D01*
X66380508Y-73540526D01*
X66117533Y-73649453D01*
X65880863Y-73807591D01*
X65679591Y-74008863D01*
X65521453Y-74245533D01*
X65412526Y-74508508D01*
X65356995Y-74787679D01*
X64366321Y-74787679D01*
X64393622Y-66870344D01*
X110971000Y-66870344D01*
X110971000Y-67241656D01*
X111043439Y-67605834D01*
X111185534Y-67948882D01*
X111391825Y-68257618D01*
X111654382Y-68520175D01*
X111963118Y-68726466D01*
X112306166Y-68868561D01*
X112670344Y-68941000D01*
X113041656Y-68941000D01*
X113405834Y-68868561D01*
X113748882Y-68726466D01*
X114057618Y-68520175D01*
X114320175Y-68257618D01*
X114526466Y-67948882D01*
X114668561Y-67605834D01*
X114741000Y-67241656D01*
X114741000Y-66870344D01*
X114668561Y-66506166D01*
X114526466Y-66163118D01*
X114320175Y-65854382D01*
X114271793Y-65806000D01*
X115967928Y-65806000D01*
X115967928Y-68306000D01*
X115980188Y-68430482D01*
X116016498Y-68550180D01*
X116075463Y-68660494D01*
X116154815Y-68757185D01*
X116251506Y-68836537D01*
X116361820Y-68895502D01*
X116481518Y-68931812D01*
X116606000Y-68944072D01*
X119106000Y-68944072D01*
X119230482Y-68931812D01*
X119350180Y-68895502D01*
X119460494Y-68836537D01*
X119557185Y-68757185D01*
X119636537Y-68660494D01*
X119695502Y-68550180D01*
X119731812Y-68430482D01*
X119744072Y-68306000D01*
X119744072Y-67124344D01*
X142721000Y-67124344D01*
X142721000Y-67495656D01*
X142793439Y-67859834D01*
X142935534Y-68202882D01*
X143141825Y-68511618D01*
X143404382Y-68774175D01*
X143713118Y-68980466D01*
X144056166Y-69122561D01*
X144420344Y-69195000D01*
X144791656Y-69195000D01*
X145155834Y-69122561D01*
X145498882Y-68980466D01*
X145807618Y-68774175D01*
X146070175Y-68511618D01*
X146276466Y-68202882D01*
X146418561Y-67859834D01*
X146491000Y-67495656D01*
X146491000Y-67124344D01*
X146418561Y-66760166D01*
X146276466Y-66417118D01*
X146070175Y-66108382D01*
X146021793Y-66060000D01*
X147717928Y-66060000D01*
X147717928Y-68560000D01*
X147730188Y-68684482D01*
X147766498Y-68804180D01*
X147825463Y-68914494D01*
X147904815Y-69011185D01*
X148001506Y-69090537D01*
X148111820Y-69149502D01*
X148231518Y-69185812D01*
X148356000Y-69198072D01*
X150856000Y-69198072D01*
X150980482Y-69185812D01*
X151100180Y-69149502D01*
X151210494Y-69090537D01*
X151307185Y-69011185D01*
X151386537Y-68914494D01*
X151445502Y-68804180D01*
X151481812Y-68684482D01*
X151494072Y-68560000D01*
X151494072Y-66870344D01*
X174217000Y-66870344D01*
X174217000Y-67241656D01*
X174289439Y-67605834D01*
X174431534Y-67948882D01*
X174637825Y-68257618D01*
X174900382Y-68520175D01*
X175209118Y-68726466D01*
X175552166Y-68868561D01*
X175916344Y-68941000D01*
X176287656Y-68941000D01*
X176651834Y-68868561D01*
X176994882Y-68726466D01*
X177303618Y-68520175D01*
X177566175Y-68257618D01*
X177772466Y-67948882D01*
X177914561Y-67605834D01*
X177987000Y-67241656D01*
X177987000Y-66870344D01*
X177914561Y-66506166D01*
X177772466Y-66163118D01*
X177566175Y-65854382D01*
X177517793Y-65806000D01*
X179213928Y-65806000D01*
X179213928Y-68306000D01*
X179226188Y-68430482D01*
X179262498Y-68550180D01*
X179321463Y-68660494D01*
X179400815Y-68757185D01*
X179497506Y-68836537D01*
X179607820Y-68895502D01*
X179727518Y-68931812D01*
X179852000Y-68944072D01*
X182352000Y-68944072D01*
X182476482Y-68931812D01*
X182596180Y-68895502D01*
X182706494Y-68836537D01*
X182803185Y-68757185D01*
X182882537Y-68660494D01*
X182941502Y-68550180D01*
X182977812Y-68430482D01*
X182990072Y-68306000D01*
X182990072Y-65806000D01*
X182977812Y-65681518D01*
X182941502Y-65561820D01*
X182882537Y-65451506D01*
X182803185Y-65354815D01*
X182706494Y-65275463D01*
X182596180Y-65216498D01*
X182476482Y-65180188D01*
X182352000Y-65167928D01*
X179852000Y-65167928D01*
X179727518Y-65180188D01*
X179607820Y-65216498D01*
X179497506Y-65275463D01*
X179400815Y-65354815D01*
X179321463Y-65451506D01*
X179262498Y-65561820D01*
X179226188Y-65681518D01*
X179213928Y-65806000D01*
X177517793Y-65806000D01*
X177303618Y-65591825D01*
X176994882Y-65385534D01*
X176651834Y-65243439D01*
X176287656Y-65171000D01*
X175916344Y-65171000D01*
X175552166Y-65243439D01*
X175209118Y-65385534D01*
X174900382Y-65591825D01*
X174637825Y-65854382D01*
X174431534Y-66163118D01*
X174289439Y-66506166D01*
X174217000Y-66870344D01*
X151494072Y-66870344D01*
X151494072Y-66060000D01*
X151481812Y-65935518D01*
X151445502Y-65815820D01*
X151386537Y-65705506D01*
X151307185Y-65608815D01*
X151210494Y-65529463D01*
X151100180Y-65470498D01*
X150980482Y-65434188D01*
X150856000Y-65421928D01*
X148356000Y-65421928D01*
X148231518Y-65434188D01*
X148111820Y-65470498D01*
X148001506Y-65529463D01*
X147904815Y-65608815D01*
X147825463Y-65705506D01*
X147766498Y-65815820D01*
X147730188Y-65935518D01*
X147717928Y-66060000D01*
X146021793Y-66060000D01*
X145807618Y-65845825D01*
X145498882Y-65639534D01*
X145155834Y-65497439D01*
X144791656Y-65425000D01*
X144420344Y-65425000D01*
X144056166Y-65497439D01*
X143713118Y-65639534D01*
X143404382Y-65845825D01*
X143141825Y-66108382D01*
X142935534Y-66417118D01*
X142793439Y-66760166D01*
X142721000Y-67124344D01*
X119744072Y-67124344D01*
X119744072Y-65806000D01*
X119731812Y-65681518D01*
X119695502Y-65561820D01*
X119636537Y-65451506D01*
X119557185Y-65354815D01*
X119460494Y-65275463D01*
X119350180Y-65216498D01*
X119230482Y-65180188D01*
X119106000Y-65167928D01*
X116606000Y-65167928D01*
X116481518Y-65180188D01*
X116361820Y-65216498D01*
X116251506Y-65275463D01*
X116154815Y-65354815D01*
X116075463Y-65451506D01*
X116016498Y-65561820D01*
X115980188Y-65681518D01*
X115967928Y-65806000D01*
X114271793Y-65806000D01*
X114057618Y-65591825D01*
X113748882Y-65385534D01*
X113405834Y-65243439D01*
X113041656Y-65171000D01*
X112670344Y-65171000D01*
X112306166Y-65243439D01*
X111963118Y-65385534D01*
X111654382Y-65591825D01*
X111391825Y-65854382D01*
X111185534Y-66163118D01*
X111043439Y-66506166D01*
X110971000Y-66870344D01*
X64393622Y-66870344D01*
X64411727Y-61620000D01*
X233271721Y-61620000D01*
X233022273Y-133960000D01*
G37*
X233022273Y-133960000D02*
X64162279Y-133960000D01*
X64183608Y-127774363D01*
X105271000Y-127774363D01*
X105271000Y-128017637D01*
X105318460Y-128256236D01*
X105411557Y-128480992D01*
X105546713Y-128683267D01*
X105718733Y-128855287D01*
X105921008Y-128990443D01*
X106145764Y-129083540D01*
X106384363Y-129131000D01*
X106627637Y-129131000D01*
X106866236Y-129083540D01*
X107090992Y-128990443D01*
X107293267Y-128855287D01*
X107465287Y-128683267D01*
X107600443Y-128480992D01*
X107693540Y-128256236D01*
X107741000Y-128017637D01*
X107741000Y-127774363D01*
X115271000Y-127774363D01*
X115271000Y-128017637D01*
X115318460Y-128256236D01*
X115411557Y-128480992D01*
X115546713Y-128683267D01*
X115718733Y-128855287D01*
X115921008Y-128990443D01*
X116145764Y-129083540D01*
X116384363Y-129131000D01*
X116627637Y-129131000D01*
X116866236Y-129083540D01*
X117090992Y-128990443D01*
X117293267Y-128855287D01*
X117465287Y-128683267D01*
X117600443Y-128480992D01*
X117693540Y-128256236D01*
X117741000Y-128017637D01*
X117741000Y-127774363D01*
X120765000Y-127774363D01*
X120765000Y-128017637D01*
X120812460Y-128256236D01*
X120905557Y-128480992D01*
X121040713Y-128683267D01*
X121212733Y-128855287D01*
X121415008Y-128990443D01*
X121639764Y-129083540D01*
X121878363Y-129131000D01*
X122121637Y-129131000D01*
X122360236Y-129083540D01*
X122584992Y-128990443D01*
X122787267Y-128855287D01*
X122959287Y-128683267D01*
X123094443Y-128480992D01*
X123187540Y-128256236D01*
X123235000Y-128017637D01*
X123235000Y-127774363D01*
X130765000Y-127774363D01*
X130765000Y-128017637D01*
X130812460Y-128256236D01*
X130905557Y-128480992D01*
X131040713Y-128683267D01*
X131212733Y-128855287D01*
X131415008Y-128990443D01*
X131639764Y-129083540D01*
X131878363Y-129131000D01*
X132121637Y-129131000D01*
X132360236Y-129083540D01*
X132584992Y-128990443D01*
X132787267Y-128855287D01*
X132959287Y-128683267D01*
X133094443Y-128480992D01*
X133187540Y-128256236D01*
X133235000Y-128017637D01*
X133235000Y-127774363D01*
X136259000Y-127774363D01*
X136259000Y-128017637D01*
X136306460Y-128256236D01*
X136399557Y-128480992D01*
X136534713Y-128683267D01*
X136706733Y-128855287D01*
X136909008Y-128990443D01*
X137133764Y-129083540D01*
X137372363Y-129131000D01*
X137615637Y-129131000D01*
X137854236Y-129083540D01*
X138078992Y-128990443D01*
X138281267Y-128855287D01*
X138453287Y-128683267D01*
X138588443Y-128480992D01*
X138681540Y-128256236D01*
X138729000Y-128017637D01*
X138729000Y-127774363D01*
X146259000Y-127774363D01*
X146259000Y-128017637D01*
X146306460Y-128256236D01*
X146399557Y-128480992D01*
X146534713Y-128683267D01*
X146706733Y-128855287D01*
X146909008Y-128990443D01*
X147133764Y-129083540D01*
X147372363Y-129131000D01*
X147615637Y-129131000D01*
X147854236Y-129083540D01*
X148078992Y-128990443D01*
X148281267Y-128855287D01*
X148453287Y-128683267D01*
X148588443Y-128480992D01*
X148681540Y-128256236D01*
X148729000Y-128017637D01*
X148729000Y-127774363D01*
X151499000Y-127774363D01*
X151499000Y-128017637D01*
X151546460Y-128256236D01*
X151639557Y-128480992D01*
X151774713Y-128683267D01*
X151946733Y-128855287D01*
X152149008Y-128990443D01*
X152373764Y-129083540D01*
X152612363Y-129131000D01*
X152855637Y-129131000D01*
X153094236Y-129083540D01*
X153318992Y-128990443D01*
X153521267Y-128855287D01*
X153693287Y-128683267D01*
X153828443Y-128480992D01*
X153921540Y-128256236D01*
X153969000Y-128017637D01*
X153969000Y-127774363D01*
X161499000Y-127774363D01*
X161499000Y-128017637D01*
X161546460Y-128256236D01*
X161639557Y-128480992D01*
X161774713Y-128683267D01*
X161946733Y-128855287D01*
X162149008Y-128990443D01*
X162373764Y-129083540D01*
X162612363Y-129131000D01*
X162855637Y-129131000D01*
X163094236Y-129083540D01*
X163318992Y-128990443D01*
X163521267Y-128855287D01*
X163693287Y-128683267D01*
X163828443Y-128480992D01*
X163921540Y-128256236D01*
X163969000Y-128017637D01*
X163969000Y-127774363D01*
X163921540Y-127535764D01*
X163915161Y-127520363D01*
X167247000Y-127520363D01*
X167247000Y-127763637D01*
X167294460Y-128002236D01*
X167387557Y-128226992D01*
X167522713Y-128429267D01*
X167694733Y-128601287D01*
X167897008Y-128736443D01*
X168121764Y-128829540D01*
X168360363Y-128877000D01*
X168603637Y-128877000D01*
X168842236Y-128829540D01*
X169066992Y-128736443D01*
X169269267Y-128601287D01*
X169441287Y-128429267D01*
X169576443Y-128226992D01*
X169669540Y-128002236D01*
X169717000Y-127763637D01*
X169717000Y-127520363D01*
X169669540Y-127281764D01*
X169576443Y-127057008D01*
X169441287Y-126854733D01*
X169269267Y-126682713D01*
X169066992Y-126547557D01*
X168842236Y-126454460D01*
X168603637Y-126407000D01*
X168360363Y-126407000D01*
X168121764Y-126454460D01*
X167897008Y-126547557D01*
X167694733Y-126682713D01*
X167522713Y-126854733D01*
X167387557Y-127057008D01*
X167294460Y-127281764D01*
X167247000Y-127520363D01*
X163915161Y-127520363D01*
X163828443Y-127311008D01*
X163693287Y-127108733D01*
X163521267Y-126936713D01*
X163318992Y-126801557D01*
X163094236Y-126708460D01*
X162855637Y-126661000D01*
X162612363Y-126661000D01*
X162373764Y-126708460D01*
X162149008Y-126801557D01*
X161946733Y-126936713D01*
X161774713Y-127108733D01*
X161639557Y-127311008D01*
X161546460Y-127535764D01*
X161499000Y-127774363D01*
X153969000Y-127774363D01*
X153921540Y-127535764D01*
X153828443Y-127311008D01*
X153693287Y-127108733D01*
X153521267Y-126936713D01*
X153318992Y-126801557D01*
X153094236Y-126708460D01*
X152855637Y-126661000D01*
X152612363Y-126661000D01*
X152373764Y-126708460D01*
X152149008Y-126801557D01*
X151946733Y-126936713D01*
X151774713Y-127108733D01*
X151639557Y-127311008D01*
X151546460Y-127535764D01*
X151499000Y-127774363D01*
X148729000Y-127774363D01*
X148681540Y-127535764D01*
X148588443Y-127311008D01*
X148453287Y-127108733D01*
X148281267Y-126936713D01*
X148078992Y-126801557D01*
X147854236Y-126708460D01*
X147615637Y-126661000D01*
X147372363Y-126661000D01*
X147133764Y-126708460D01*
X146909008Y-126801557D01*
X146706733Y-126936713D01*
X146534713Y-127108733D01*
X146399557Y-127311008D01*
X146306460Y-127535764D01*
X146259000Y-127774363D01*
X138729000Y-127774363D01*
X138681540Y-127535764D01*
X138588443Y-127311008D01*
X138453287Y-127108733D01*
X138281267Y-126936713D01*
X138078992Y-126801557D01*
X137854236Y-126708460D01*
X137615637Y-126661000D01*
X137372363Y-126661000D01*
X137133764Y-126708460D01*
X136909008Y-126801557D01*
X136706733Y-126936713D01*
X136534713Y-127108733D01*
X136399557Y-127311008D01*
X136306460Y-127535764D01*
X136259000Y-127774363D01*
X133235000Y-127774363D01*
X133187540Y-127535764D01*
X133094443Y-127311008D01*
X132959287Y-127108733D01*
X132787267Y-126936713D01*
X132584992Y-126801557D01*
X132360236Y-126708460D01*
X132121637Y-126661000D01*
X131878363Y-126661000D01*
X131639764Y-126708460D01*
X131415008Y-126801557D01*
X131212733Y-126936713D01*
X131040713Y-127108733D01*
X130905557Y-127311008D01*
X130812460Y-127535764D01*
X130765000Y-127774363D01*
X123235000Y-127774363D01*
X123187540Y-127535764D01*
X123094443Y-127311008D01*
X122959287Y-127108733D01*
X122787267Y-126936713D01*
X122584992Y-126801557D01*
X122360236Y-126708460D01*
X122121637Y-126661000D01*
X121878363Y-126661000D01*
X121639764Y-126708460D01*
X121415008Y-126801557D01*
X121212733Y-126936713D01*
X121040713Y-127108733D01*
X120905557Y-127311008D01*
X120812460Y-127535764D01*
X120765000Y-127774363D01*
X117741000Y-127774363D01*
X117693540Y-127535764D01*
X117600443Y-127311008D01*
X117465287Y-127108733D01*
X117293267Y-126936713D01*
X117090992Y-126801557D01*
X116866236Y-126708460D01*
X116627637Y-126661000D01*
X116384363Y-126661000D01*
X116145764Y-126708460D01*
X115921008Y-126801557D01*
X115718733Y-126936713D01*
X115546713Y-127108733D01*
X115411557Y-127311008D01*
X115318460Y-127535764D01*
X115271000Y-127774363D01*
X107741000Y-127774363D01*
X107693540Y-127535764D01*
X107600443Y-127311008D01*
X107465287Y-127108733D01*
X107293267Y-126936713D01*
X107090992Y-126801557D01*
X106866236Y-126708460D01*
X106627637Y-126661000D01*
X106384363Y-126661000D01*
X106145764Y-126708460D01*
X105921008Y-126801557D01*
X105718733Y-126936713D01*
X105546713Y-127108733D01*
X105411557Y-127311008D01*
X105318460Y-127535764D01*
X105271000Y-127774363D01*
X64183608Y-127774363D01*
X64189508Y-126063330D01*
X88877278Y-126063330D01*
X88967147Y-126309123D01*
X89103241Y-126532660D01*
X89280330Y-126725351D01*
X89491608Y-126879792D01*
X89728956Y-126990047D01*
X89836671Y-127022716D01*
X90043000Y-126899374D01*
X90043000Y-125857000D01*
X90297000Y-125857000D01*
X90297000Y-126899374D01*
X90503329Y-127022716D01*
X90611044Y-126990047D01*
X90848392Y-126879792D01*
X91059670Y-126725351D01*
X91236759Y-126532660D01*
X91372853Y-126309123D01*
X91462722Y-126063330D01*
X91340201Y-125857000D01*
X90297000Y-125857000D01*
X90043000Y-125857000D01*
X88999799Y-125857000D01*
X88877278Y-126063330D01*
X64189508Y-126063330D01*
X64191806Y-125396670D01*
X88877278Y-125396670D01*
X88999799Y-125603000D01*
X90043000Y-125603000D01*
X90043000Y-124560626D01*
X90297000Y-124560626D01*
X90297000Y-125603000D01*
X91340201Y-125603000D01*
X91462722Y-125396670D01*
X91418004Y-125274363D01*
X105271000Y-125274363D01*
X105271000Y-125517637D01*
X105318460Y-125756236D01*
X105411557Y-125980992D01*
X105546713Y-126183267D01*
X105718733Y-126355287D01*
X105921008Y-126490443D01*
X106145764Y-126583540D01*
X106384363Y-126631000D01*
X106627637Y-126631000D01*
X106866236Y-126583540D01*
X107090992Y-126490443D01*
X107293267Y-126355287D01*
X107352554Y-126296000D01*
X109617928Y-126296000D01*
X109630188Y-126420482D01*
X109666498Y-126540180D01*
X109725463Y-126650494D01*
X109804815Y-126747185D01*
X109901506Y-126826537D01*
X110011820Y-126885502D01*
X110131518Y-126921812D01*
X110256000Y-126934072D01*
X111220250Y-126931000D01*
X111379000Y-126772250D01*
X111379000Y-125523000D01*
X111633000Y-125523000D01*
X111633000Y-126772250D01*
X111791750Y-126931000D01*
X112756000Y-126934072D01*
X112880482Y-126921812D01*
X113000180Y-126885502D01*
X113110494Y-126826537D01*
X113207185Y-126747185D01*
X113286537Y-126650494D01*
X113345502Y-126540180D01*
X113381812Y-126420482D01*
X113394072Y-126296000D01*
X113391000Y-125681750D01*
X113232250Y-125523000D01*
X111633000Y-125523000D01*
X111379000Y-125523000D01*
X109779750Y-125523000D01*
X109621000Y-125681750D01*
X109617928Y-126296000D01*
X107352554Y-126296000D01*
X107465287Y-126183267D01*
X107600443Y-125980992D01*
X107693540Y-125756236D01*
X107741000Y-125517637D01*
X107741000Y-125274363D01*
X115271000Y-125274363D01*
X115271000Y-125517637D01*
X115318460Y-125756236D01*
X115411557Y-125980992D01*
X115546713Y-126183267D01*
X115718733Y-126355287D01*
X115921008Y-126490443D01*
X116145764Y-126583540D01*
X116384363Y-126631000D01*
X116627637Y-126631000D01*
X116866236Y-126583540D01*
X117090992Y-126490443D01*
X117293267Y-126355287D01*
X117465287Y-126183267D01*
X117600443Y-125980992D01*
X117693540Y-125756236D01*
X117741000Y-125517637D01*
X117741000Y-125274363D01*
X120765000Y-125274363D01*
X120765000Y-125517637D01*
X120812460Y-125756236D01*
X120905557Y-125980992D01*
X121040713Y-126183267D01*
X121212733Y-126355287D01*
X121415008Y-126490443D01*
X121639764Y-126583540D01*
X121878363Y-126631000D01*
X122121637Y-126631000D01*
X122360236Y-126583540D01*
X122584992Y-126490443D01*
X122787267Y-126355287D01*
X122959287Y-126183267D01*
X123094443Y-125980992D01*
X123187540Y-125756236D01*
X123235000Y-125517637D01*
X123235000Y-125274363D01*
X123187540Y-125035764D01*
X123094443Y-124811008D01*
X122959287Y-124608733D01*
X122787267Y-124436713D01*
X122584992Y-124301557D01*
X122360236Y-124208460D01*
X122121637Y-124161000D01*
X121878363Y-124161000D01*
X121639764Y-124208460D01*
X121415008Y-124301557D01*
X121212733Y-124436713D01*
X121040713Y-124608733D01*
X120905557Y-124811008D01*
X120812460Y-125035764D01*
X120765000Y-125274363D01*
X117741000Y-125274363D01*
X117693540Y-125035764D01*
X117600443Y-124811008D01*
X117465287Y-124608733D01*
X117293267Y-124436713D01*
X117090992Y-124301557D01*
X116866236Y-124208460D01*
X116627637Y-124161000D01*
X116384363Y-124161000D01*
X116145764Y-124208460D01*
X115921008Y-124301557D01*
X115718733Y-124436713D01*
X115546713Y-124608733D01*
X115411557Y-124811008D01*
X115318460Y-125035764D01*
X115271000Y-125274363D01*
X107741000Y-125274363D01*
X107693540Y-125035764D01*
X107600443Y-124811008D01*
X107465287Y-124608733D01*
X107352554Y-124496000D01*
X109617928Y-124496000D01*
X109621000Y-125110250D01*
X109779750Y-125269000D01*
X111379000Y-125269000D01*
X111379000Y-124019750D01*
X111633000Y-124019750D01*
X111633000Y-125269000D01*
X113232250Y-125269000D01*
X113391000Y-125110250D01*
X113394072Y-124496000D01*
X113381812Y-124371518D01*
X113345502Y-124251820D01*
X113286537Y-124141506D01*
X113207185Y-124044815D01*
X113110494Y-123965463D01*
X113000180Y-123906498D01*
X112880482Y-123870188D01*
X112756000Y-123857928D01*
X111791750Y-123861000D01*
X111633000Y-124019750D01*
X111379000Y-124019750D01*
X111220250Y-123861000D01*
X110256000Y-123857928D01*
X110131518Y-123870188D01*
X110011820Y-123906498D01*
X109901506Y-123965463D01*
X109804815Y-124044815D01*
X109725463Y-124141506D01*
X109666498Y-124251820D01*
X109630188Y-124371518D01*
X109617928Y-124496000D01*
X107352554Y-124496000D01*
X107293267Y-124436713D01*
X107090992Y-124301557D01*
X106866236Y-124208460D01*
X106627637Y-124161000D01*
X106384363Y-124161000D01*
X106145764Y-124208460D01*
X105921008Y-124301557D01*
X105718733Y-124436713D01*
X105546713Y-124608733D01*
X105411557Y-124811008D01*
X105318460Y-125035764D01*
X105271000Y-125274363D01*
X91418004Y-125274363D01*
X91372853Y-125150877D01*
X91236759Y-124927340D01*
X91059670Y-124734649D01*
X90848392Y-124580208D01*
X90611044Y-124469953D01*
X90503329Y-124437284D01*
X90297000Y-124560626D01*
X90043000Y-124560626D01*
X89836671Y-124437284D01*
X89728956Y-124469953D01*
X89491608Y-124580208D01*
X89280330Y-124734649D01*
X89103241Y-124927340D01*
X88967147Y-125150877D01*
X88877278Y-125396670D01*
X64191806Y-125396670D01*
X64366321Y-74787679D01*
X65356995Y-74787679D01*
X65356995Y-75072321D01*
X65412526Y-75351492D01*
X65521453Y-75614467D01*
X65679591Y-75851137D01*
X65880863Y-76052409D01*
X66101748Y-76200000D01*
X65880863Y-76347591D01*
X65679591Y-76548863D01*
X65521453Y-76785533D01*
X65412526Y-77048508D01*
X65356995Y-77327679D01*
X65356995Y-77612321D01*
X65412526Y-77891492D01*
X65521453Y-78154467D01*
X65679591Y-78391137D01*
X65880863Y-78592409D01*
X66101748Y-78740000D01*
X65880863Y-78887591D01*
X65679591Y-79088863D01*
X65521453Y-79325533D01*
X65412526Y-79588508D01*
X65356995Y-79867679D01*
X65356995Y-80152321D01*
X65412526Y-80431492D01*
X65521453Y-80694467D01*
X65679591Y-80931137D01*
X65880863Y-81132409D01*
X66101748Y-81280000D01*
X65880863Y-81427591D01*
X65679591Y-81628863D01*
X65521453Y-81865533D01*
X65412526Y-82128508D01*
X65356995Y-82407679D01*
X65356995Y-82692321D01*
X65412526Y-82971492D01*
X65521453Y-83234467D01*
X65679591Y-83471137D01*
X65880863Y-83672409D01*
X66101748Y-83820000D01*
X65880863Y-83967591D01*
X65679591Y-84168863D01*
X65521453Y-84405533D01*
X65412526Y-84668508D01*
X65356995Y-84947679D01*
X65356995Y-85232321D01*
X65412526Y-85511492D01*
X65521453Y-85774467D01*
X65679591Y-86011137D01*
X65880863Y-86212409D01*
X66101748Y-86360000D01*
X65880863Y-86507591D01*
X65679591Y-86708863D01*
X65521453Y-86945533D01*
X65412526Y-87208508D01*
X65356995Y-87487679D01*
X65356995Y-87772321D01*
X65412526Y-88051492D01*
X65521453Y-88314467D01*
X65679591Y-88551137D01*
X65880863Y-88752409D01*
X66101748Y-88900000D01*
X65880863Y-89047591D01*
X65679591Y-89248863D01*
X65521453Y-89485533D01*
X65412526Y-89748508D01*
X65356995Y-90027679D01*
X65356995Y-90312321D01*
X65412526Y-90591492D01*
X65521453Y-90854467D01*
X65679591Y-91091137D01*
X65880863Y-91292409D01*
X66101748Y-91440000D01*
X65880863Y-91587591D01*
X65679591Y-91788863D01*
X65521453Y-92025533D01*
X65412526Y-92288508D01*
X65356995Y-92567679D01*
X65356995Y-92852321D01*
X65412526Y-93131492D01*
X65521453Y-93394467D01*
X65679591Y-93631137D01*
X65880863Y-93832409D01*
X66101748Y-93980000D01*
X65880863Y-94127591D01*
X65679591Y-94328863D01*
X65521453Y-94565533D01*
X65412526Y-94828508D01*
X65356995Y-95107679D01*
X65356995Y-95392321D01*
X65412526Y-95671492D01*
X65521453Y-95934467D01*
X65679591Y-96171137D01*
X65880863Y-96372409D01*
X66101748Y-96520000D01*
X65880863Y-96667591D01*
X65679591Y-96868863D01*
X65521453Y-97105533D01*
X65412526Y-97368508D01*
X65356995Y-97647679D01*
X65356995Y-97932321D01*
X65412526Y-98211492D01*
X65521453Y-98474467D01*
X65679591Y-98711137D01*
X65880863Y-98912409D01*
X66101748Y-99060000D01*
X65880863Y-99207591D01*
X65679591Y-99408863D01*
X65521453Y-99645533D01*
X65412526Y-99908508D01*
X65356995Y-100187679D01*
X65356995Y-100472321D01*
X65412526Y-100751492D01*
X65521453Y-101014467D01*
X65679591Y-101251137D01*
X65880863Y-101452409D01*
X66101748Y-101600000D01*
X65880863Y-101747591D01*
X65679591Y-101948863D01*
X65521453Y-102185533D01*
X65412526Y-102448508D01*
X65356995Y-102727679D01*
X65356995Y-103012321D01*
X65412526Y-103291492D01*
X65521453Y-103554467D01*
X65679591Y-103791137D01*
X65880863Y-103992409D01*
X66101748Y-104140000D01*
X65880863Y-104287591D01*
X65679591Y-104488863D01*
X65521453Y-104725533D01*
X65412526Y-104988508D01*
X65356995Y-105267679D01*
X65356995Y-105552321D01*
X65412526Y-105831492D01*
X65521453Y-106094467D01*
X65679591Y-106331137D01*
X65880863Y-106532409D01*
X66101748Y-106680000D01*
X65880863Y-106827591D01*
X65679591Y-107028863D01*
X65521453Y-107265533D01*
X65412526Y-107528508D01*
X65356995Y-107807679D01*
X65356995Y-108092321D01*
X65412526Y-108371492D01*
X65521453Y-108634467D01*
X65679591Y-108871137D01*
X65880863Y-109072409D01*
X66101748Y-109220000D01*
X65880863Y-109367591D01*
X65679591Y-109568863D01*
X65521453Y-109805533D01*
X65412526Y-110068508D01*
X65356995Y-110347679D01*
X65356995Y-110632321D01*
X65412526Y-110911492D01*
X65521453Y-111174467D01*
X65679591Y-111411137D01*
X65880863Y-111612409D01*
X66101748Y-111760000D01*
X65880863Y-111907591D01*
X65679591Y-112108863D01*
X65521453Y-112345533D01*
X65412526Y-112608508D01*
X65356995Y-112887679D01*
X65356995Y-113172321D01*
X65412526Y-113451492D01*
X65521453Y-113714467D01*
X65679591Y-113951137D01*
X65880863Y-114152409D01*
X66101748Y-114300000D01*
X65880863Y-114447591D01*
X65679591Y-114648863D01*
X65521453Y-114885533D01*
X65412526Y-115148508D01*
X65356995Y-115427679D01*
X65356995Y-115712321D01*
X65412526Y-115991492D01*
X65521453Y-116254467D01*
X65679591Y-116491137D01*
X65880863Y-116692409D01*
X66101748Y-116840000D01*
X65880863Y-116987591D01*
X65679591Y-117188863D01*
X65521453Y-117425533D01*
X65412526Y-117688508D01*
X65356995Y-117967679D01*
X65356995Y-118252321D01*
X65412526Y-118531492D01*
X65521453Y-118794467D01*
X65679591Y-119031137D01*
X65880863Y-119232409D01*
X66117533Y-119390547D01*
X66380508Y-119499474D01*
X66659679Y-119555005D01*
X66944321Y-119555005D01*
X67223492Y-119499474D01*
X67486467Y-119390547D01*
X67723137Y-119232409D01*
X67924409Y-119031137D01*
X68072000Y-118810252D01*
X68219591Y-119031137D01*
X68420863Y-119232409D01*
X68657533Y-119390547D01*
X68920508Y-119499474D01*
X69199679Y-119555005D01*
X69484321Y-119555005D01*
X69763492Y-119499474D01*
X70026467Y-119390547D01*
X70263137Y-119232409D01*
X70464409Y-119031137D01*
X70622547Y-118794467D01*
X70731474Y-118531492D01*
X70787005Y-118252321D01*
X70787005Y-117978514D01*
X88835000Y-117978514D01*
X88835000Y-118241486D01*
X88886304Y-118499405D01*
X88986939Y-118742359D01*
X89133038Y-118961013D01*
X89318987Y-119146962D01*
X89537641Y-119293061D01*
X89780595Y-119393696D01*
X90038514Y-119445000D01*
X90301486Y-119445000D01*
X90559405Y-119393696D01*
X90802359Y-119293061D01*
X91021013Y-119146962D01*
X91021975Y-119146000D01*
X104967928Y-119146000D01*
X104967928Y-121646000D01*
X104980188Y-121770482D01*
X105016498Y-121890180D01*
X105075463Y-122000494D01*
X105154815Y-122097185D01*
X105251506Y-122176537D01*
X105361820Y-122235502D01*
X105481518Y-122271812D01*
X105606000Y-122284072D01*
X107406000Y-122284072D01*
X107530482Y-122271812D01*
X107650180Y-122235502D01*
X107760494Y-122176537D01*
X107857185Y-122097185D01*
X107936537Y-122000494D01*
X107995502Y-121890180D01*
X108031812Y-121770482D01*
X108044072Y-121646000D01*
X108044072Y-120274363D01*
X110271000Y-120274363D01*
X110271000Y-120517637D01*
X110318460Y-120756236D01*
X110411557Y-120980992D01*
X110546713Y-121183267D01*
X110718733Y-121355287D01*
X110921008Y-121490443D01*
X111145764Y-121583540D01*
X111384363Y-121631000D01*
X111627637Y-121631000D01*
X111866236Y-121583540D01*
X112090992Y-121490443D01*
X112293267Y-121355287D01*
X112465287Y-121183267D01*
X112600443Y-120980992D01*
X112693540Y-120756236D01*
X112741000Y-120517637D01*
X112741000Y-120274363D01*
X112693540Y-120035764D01*
X112600443Y-119811008D01*
X112465287Y-119608733D01*
X112293267Y-119436713D01*
X112090992Y-119301557D01*
X111866236Y-119208460D01*
X111627637Y-119161000D01*
X111384363Y-119161000D01*
X111145764Y-119208460D01*
X110921008Y-119301557D01*
X110718733Y-119436713D01*
X110546713Y-119608733D01*
X110411557Y-119811008D01*
X110318460Y-120035764D01*
X110271000Y-120274363D01*
X108044072Y-120274363D01*
X108044072Y-119146000D01*
X114967928Y-119146000D01*
X114967928Y-121646000D01*
X114980188Y-121770482D01*
X115016498Y-121890180D01*
X115075463Y-122000494D01*
X115154815Y-122097185D01*
X115251506Y-122176537D01*
X115361820Y-122235502D01*
X115481518Y-122271812D01*
X115606000Y-122284072D01*
X117406000Y-122284072D01*
X117530482Y-122271812D01*
X117650180Y-122235502D01*
X117760494Y-122176537D01*
X117857185Y-122097185D01*
X117936537Y-122000494D01*
X117995502Y-121890180D01*
X118031812Y-121770482D01*
X118044072Y-121646000D01*
X118044072Y-119146000D01*
X120461928Y-119146000D01*
X120461928Y-121646000D01*
X120474188Y-121770482D01*
X120510498Y-121890180D01*
X120569463Y-122000494D01*
X120648815Y-122097185D01*
X120745506Y-122176537D01*
X120855820Y-122235502D01*
X120975518Y-122271812D01*
X121100000Y-122284072D01*
X122900000Y-122284072D01*
X123024482Y-122271812D01*
X123144180Y-122235502D01*
X123254494Y-122176537D01*
X123351185Y-122097185D01*
X123430537Y-122000494D01*
X123489502Y-121890180D01*
X123525812Y-121770482D01*
X123538072Y-121646000D01*
X123538072Y-119146000D01*
X123525812Y-119021518D01*
X123489502Y-118901820D01*
X123430537Y-118791506D01*
X123351185Y-118694815D01*
X123254494Y-118615463D01*
X123144180Y-118556498D01*
X123024482Y-118520188D01*
X122900000Y-118507928D01*
X121100000Y-118507928D01*
X120975518Y-118520188D01*
X120855820Y-118556498D01*
X120745506Y-118615463D01*
X120648815Y-118694815D01*
X120569463Y-118791506D01*
X120510498Y-118901820D01*
X120474188Y-119021518D01*
X120461928Y-119146000D01*
X118044072Y-119146000D01*
X118031812Y-119021518D01*
X117995502Y-118901820D01*
X117936537Y-118791506D01*
X117857185Y-118694815D01*
X117760494Y-118615463D01*
X117650180Y-118556498D01*
X117530482Y-118520188D01*
X117406000Y-118507928D01*
X115606000Y-118507928D01*
X115481518Y-118520188D01*
X115361820Y-118556498D01*
X115251506Y-118615463D01*
X115154815Y-118694815D01*
X115075463Y-118791506D01*
X115016498Y-118901820D01*
X114980188Y-119021518D01*
X114967928Y-119146000D01*
X108044072Y-119146000D01*
X108031812Y-119021518D01*
X107995502Y-118901820D01*
X107936537Y-118791506D01*
X107857185Y-118694815D01*
X107760494Y-118615463D01*
X107650180Y-118556498D01*
X107530482Y-118520188D01*
X107406000Y-118507928D01*
X105606000Y-118507928D01*
X105481518Y-118520188D01*
X105361820Y-118556498D01*
X105251506Y-118615463D01*
X105154815Y-118694815D01*
X105075463Y-118791506D01*
X105016498Y-118901820D01*
X104980188Y-119021518D01*
X104967928Y-119146000D01*
X91021975Y-119146000D01*
X91206962Y-118961013D01*
X91353061Y-118742359D01*
X91453696Y-118499405D01*
X91505000Y-118241486D01*
X91505000Y-117978514D01*
X91453696Y-117720595D01*
X91353061Y-117477641D01*
X91206962Y-117258987D01*
X91021013Y-117073038D01*
X90802359Y-116926939D01*
X90559405Y-116826304D01*
X90301486Y-116775000D01*
X90038514Y-116775000D01*
X89780595Y-116826304D01*
X89537641Y-116926939D01*
X89318987Y-117073038D01*
X89133038Y-117258987D01*
X88986939Y-117477641D01*
X88886304Y-117720595D01*
X88835000Y-117978514D01*
X70787005Y-117978514D01*
X70787005Y-117967679D01*
X70731474Y-117688508D01*
X70622547Y-117425533D01*
X70464409Y-117188863D01*
X70263137Y-116987591D01*
X70042252Y-116840000D01*
X70263137Y-116692409D01*
X70464409Y-116491137D01*
X70622547Y-116254467D01*
X70731474Y-115991492D01*
X70787005Y-115712321D01*
X70787005Y-115427679D01*
X70731474Y-115148508D01*
X70622547Y-114885533D01*
X70482885Y-114676514D01*
X105853000Y-114676514D01*
X105853000Y-114939486D01*
X105904304Y-115197405D01*
X106004939Y-115440359D01*
X106151038Y-115659013D01*
X106336987Y-115844962D01*
X106555641Y-115991061D01*
X106798595Y-116091696D01*
X107056514Y-116143000D01*
X107319486Y-116143000D01*
X107577405Y-116091696D01*
X107820359Y-115991061D01*
X108039013Y-115844962D01*
X108224962Y-115659013D01*
X108371061Y-115440359D01*
X108471696Y-115197405D01*
X108523000Y-114939486D01*
X108523000Y-114676514D01*
X113473000Y-114676514D01*
X113473000Y-114939486D01*
X113524304Y-115197405D01*
X113624939Y-115440359D01*
X113771038Y-115659013D01*
X113956987Y-115844962D01*
X114175641Y-115991061D01*
X114418595Y-116091696D01*
X114676514Y-116143000D01*
X114939486Y-116143000D01*
X115197405Y-116091696D01*
X115440359Y-115991061D01*
X115659013Y-115844962D01*
X115844962Y-115659013D01*
X115991061Y-115440359D01*
X116091696Y-115197405D01*
X116143000Y-114939486D01*
X116143000Y-114676514D01*
X116091696Y-114418595D01*
X115991061Y-114175641D01*
X115844962Y-113956987D01*
X115659013Y-113771038D01*
X115440359Y-113624939D01*
X115197405Y-113524304D01*
X114939486Y-113473000D01*
X114676514Y-113473000D01*
X114418595Y-113524304D01*
X114175641Y-113624939D01*
X113956987Y-113771038D01*
X113771038Y-113956987D01*
X113624939Y-114175641D01*
X113524304Y-114418595D01*
X113473000Y-114676514D01*
X108523000Y-114676514D01*
X108471696Y-114418595D01*
X108371061Y-114175641D01*
X108224962Y-113956987D01*
X108039013Y-113771038D01*
X107820359Y-113624939D01*
X107577405Y-113524304D01*
X107319486Y-113473000D01*
X107056514Y-113473000D01*
X106798595Y-113524304D01*
X106555641Y-113624939D01*
X106336987Y-113771038D01*
X106151038Y-113956987D01*
X106004939Y-114175641D01*
X105904304Y-114418595D01*
X105853000Y-114676514D01*
X70482885Y-114676514D01*
X70464409Y-114648863D01*
X70263137Y-114447591D01*
X70042252Y-114300000D01*
X70263137Y-114152409D01*
X70464409Y-113951137D01*
X70622547Y-113714467D01*
X70731474Y-113451492D01*
X70787005Y-113172321D01*
X70787005Y-112887679D01*
X70731474Y-112608508D01*
X70641179Y-112390514D01*
X88835000Y-112390514D01*
X88835000Y-112653486D01*
X88886304Y-112911405D01*
X88986939Y-113154359D01*
X89133038Y-113373013D01*
X89318987Y-113558962D01*
X89537641Y-113705061D01*
X89780595Y-113805696D01*
X90038514Y-113857000D01*
X90301486Y-113857000D01*
X90559405Y-113805696D01*
X90802359Y-113705061D01*
X91021013Y-113558962D01*
X91206962Y-113373013D01*
X91353061Y-113154359D01*
X91453696Y-112911405D01*
X91505000Y-112653486D01*
X91505000Y-112390514D01*
X91453696Y-112132595D01*
X91353061Y-111889641D01*
X91206962Y-111670987D01*
X91021013Y-111485038D01*
X90802359Y-111338939D01*
X90559405Y-111238304D01*
X90301486Y-111187000D01*
X90038514Y-111187000D01*
X89780595Y-111238304D01*
X89537641Y-111338939D01*
X89318987Y-111485038D01*
X89133038Y-111670987D01*
X88986939Y-111889641D01*
X88886304Y-112132595D01*
X88835000Y-112390514D01*
X70641179Y-112390514D01*
X70622547Y-112345533D01*
X70464409Y-112108863D01*
X70263137Y-111907591D01*
X70042252Y-111760000D01*
X70263137Y-111612409D01*
X70464409Y-111411137D01*
X70622547Y-111174467D01*
X70731474Y-110911492D01*
X70787005Y-110632321D01*
X70787005Y-110347679D01*
X70731474Y-110068508D01*
X70622547Y-109805533D01*
X70464409Y-109568863D01*
X70263137Y-109367591D01*
X70042252Y-109220000D01*
X70263137Y-109072409D01*
X70464409Y-108871137D01*
X70622547Y-108634467D01*
X70731474Y-108371492D01*
X70787005Y-108092321D01*
X70787005Y-107807679D01*
X70731474Y-107528508D01*
X70622547Y-107265533D01*
X70464409Y-107028863D01*
X70263137Y-106827591D01*
X70042252Y-106680000D01*
X70263137Y-106532409D01*
X70464409Y-106331137D01*
X70622547Y-106094467D01*
X70731474Y-105831492D01*
X70787005Y-105552321D01*
X70787005Y-105267679D01*
X70731474Y-104988508D01*
X70622547Y-104725533D01*
X70464409Y-104488863D01*
X70263137Y-104287591D01*
X70042252Y-104140000D01*
X70263137Y-103992409D01*
X70464409Y-103791137D01*
X70622547Y-103554467D01*
X70731474Y-103291492D01*
X70787005Y-103012321D01*
X70787005Y-102727679D01*
X70731474Y-102448508D01*
X70622547Y-102185533D01*
X70464409Y-101948863D01*
X70263137Y-101747591D01*
X70042252Y-101600000D01*
X70263137Y-101452409D01*
X70464409Y-101251137D01*
X70622547Y-101014467D01*
X70731474Y-100751492D01*
X70787005Y-100472321D01*
X70787005Y-100187679D01*
X70731474Y-99908508D01*
X70622547Y-99645533D01*
X70464409Y-99408863D01*
X70263137Y-99207591D01*
X70042252Y-99060000D01*
X70263137Y-98912409D01*
X70464409Y-98711137D01*
X70622547Y-98474467D01*
X70731474Y-98211492D01*
X70787005Y-97932321D01*
X70787005Y-97647679D01*
X70760157Y-97512702D01*
X81736903Y-97512702D01*
X81808486Y-97756671D01*
X82063996Y-97877571D01*
X82338184Y-97946300D01*
X82620512Y-97960217D01*
X82900130Y-97918787D01*
X83166292Y-97823603D01*
X83291514Y-97756671D01*
X83363097Y-97512702D01*
X82550000Y-96699605D01*
X81736903Y-97512702D01*
X70760157Y-97512702D01*
X70731474Y-97368508D01*
X70622547Y-97105533D01*
X70464409Y-96868863D01*
X70263137Y-96667591D01*
X70147781Y-96590512D01*
X81109783Y-96590512D01*
X81151213Y-96870130D01*
X81246397Y-97136292D01*
X81313329Y-97261514D01*
X81557298Y-97333097D01*
X82370395Y-96520000D01*
X82729605Y-96520000D01*
X83542702Y-97333097D01*
X83786671Y-97261514D01*
X83907571Y-97006004D01*
X83976300Y-96731816D01*
X83990217Y-96449488D01*
X83948787Y-96169870D01*
X83853603Y-95903708D01*
X83786671Y-95778486D01*
X83542702Y-95706903D01*
X82729605Y-96520000D01*
X82370395Y-96520000D01*
X81557298Y-95706903D01*
X81313329Y-95778486D01*
X81192429Y-96033996D01*
X81123700Y-96308184D01*
X81109783Y-96590512D01*
X70147781Y-96590512D01*
X70042252Y-96520000D01*
X70263137Y-96372409D01*
X70464409Y-96171137D01*
X70622547Y-95934467D01*
X70731474Y-95671492D01*
X70787005Y-95392321D01*
X70787005Y-95107679D01*
X70731474Y-94828508D01*
X70622547Y-94565533D01*
X70464409Y-94328863D01*
X70263137Y-94127591D01*
X70042252Y-93980000D01*
X70263137Y-93832409D01*
X70464409Y-93631137D01*
X70622547Y-93394467D01*
X70731474Y-93131492D01*
X70787005Y-92852321D01*
X70787005Y-92567679D01*
X70731474Y-92288508D01*
X70622547Y-92025533D01*
X70464409Y-91788863D01*
X70263137Y-91587591D01*
X70042252Y-91440000D01*
X70263137Y-91292409D01*
X70464409Y-91091137D01*
X70622547Y-90854467D01*
X70731474Y-90591492D01*
X70787005Y-90312321D01*
X70787005Y-90027679D01*
X70731474Y-89748508D01*
X70622547Y-89485533D01*
X70464409Y-89248863D01*
X70263137Y-89047591D01*
X70042252Y-88900000D01*
X70263137Y-88752409D01*
X70464409Y-88551137D01*
X70622547Y-88314467D01*
X70731474Y-88051492D01*
X70787005Y-87772321D01*
X70787005Y-87487679D01*
X70731474Y-87208508D01*
X70622547Y-86945533D01*
X70464409Y-86708863D01*
X70263137Y-86507591D01*
X70042252Y-86360000D01*
X70263137Y-86212409D01*
X70464409Y-86011137D01*
X70622547Y-85774467D01*
X70731474Y-85511492D01*
X70787005Y-85232321D01*
X70787005Y-84947679D01*
X70731474Y-84668508D01*
X70622547Y-84405533D01*
X70464409Y-84168863D01*
X70263137Y-83967591D01*
X70042252Y-83820000D01*
X70263137Y-83672409D01*
X70464409Y-83471137D01*
X70622547Y-83234467D01*
X70731474Y-82971492D01*
X70787005Y-82692321D01*
X70787005Y-82407679D01*
X70731474Y-82128508D01*
X70622547Y-81865533D01*
X70464409Y-81628863D01*
X70263137Y-81427591D01*
X70042252Y-81280000D01*
X70263137Y-81132409D01*
X70464409Y-80931137D01*
X70622547Y-80694467D01*
X70731474Y-80431492D01*
X70787005Y-80152321D01*
X70787005Y-79867679D01*
X70731474Y-79588508D01*
X70622547Y-79325533D01*
X70464409Y-79088863D01*
X70263137Y-78887591D01*
X70042252Y-78740000D01*
X70263137Y-78592409D01*
X70464409Y-78391137D01*
X70622547Y-78154467D01*
X70711381Y-77940000D01*
X81111928Y-77940000D01*
X81111928Y-79540000D01*
X81124188Y-79664482D01*
X81160498Y-79784180D01*
X81219463Y-79894494D01*
X81298815Y-79991185D01*
X81395506Y-80070537D01*
X81505820Y-80129502D01*
X81625518Y-80165812D01*
X81633961Y-80166643D01*
X81435363Y-80365241D01*
X81278320Y-80600273D01*
X81170147Y-80861426D01*
X81115000Y-81138665D01*
X81115000Y-81421335D01*
X81170147Y-81698574D01*
X81278320Y-81959727D01*
X81435363Y-82194759D01*
X81635241Y-82394637D01*
X81867759Y-82550000D01*
X81635241Y-82705363D01*
X81435363Y-82905241D01*
X81278320Y-83140273D01*
X81170147Y-83401426D01*
X81115000Y-83678665D01*
X81115000Y-83961335D01*
X81170147Y-84238574D01*
X81278320Y-84499727D01*
X81435363Y-84734759D01*
X81635241Y-84934637D01*
X81867759Y-85090000D01*
X81635241Y-85245363D01*
X81435363Y-85445241D01*
X81278320Y-85680273D01*
X81170147Y-85941426D01*
X81115000Y-86218665D01*
X81115000Y-86501335D01*
X81170147Y-86778574D01*
X81278320Y-87039727D01*
X81435363Y-87274759D01*
X81635241Y-87474637D01*
X81867759Y-87630000D01*
X81635241Y-87785363D01*
X81435363Y-87985241D01*
X81278320Y-88220273D01*
X81170147Y-88481426D01*
X81115000Y-88758665D01*
X81115000Y-89041335D01*
X81170147Y-89318574D01*
X81278320Y-89579727D01*
X81435363Y-89814759D01*
X81635241Y-90014637D01*
X81867759Y-90170000D01*
X81635241Y-90325363D01*
X81435363Y-90525241D01*
X81278320Y-90760273D01*
X81170147Y-91021426D01*
X81115000Y-91298665D01*
X81115000Y-91581335D01*
X81170147Y-91858574D01*
X81278320Y-92119727D01*
X81435363Y-92354759D01*
X81635241Y-92554637D01*
X81867759Y-92710000D01*
X81635241Y-92865363D01*
X81435363Y-93065241D01*
X81278320Y-93300273D01*
X81170147Y-93561426D01*
X81115000Y-93838665D01*
X81115000Y-94121335D01*
X81170147Y-94398574D01*
X81278320Y-94659727D01*
X81435363Y-94894759D01*
X81635241Y-95094637D01*
X81869128Y-95250915D01*
X81808486Y-95283329D01*
X81736903Y-95527298D01*
X82550000Y-96340395D01*
X83363097Y-95527298D01*
X83291514Y-95283329D01*
X83227008Y-95252806D01*
X83229727Y-95251680D01*
X83464759Y-95094637D01*
X83664637Y-94894759D01*
X83821680Y-94659727D01*
X83929853Y-94398574D01*
X83985000Y-94121335D01*
X83985000Y-93838665D01*
X83929853Y-93561426D01*
X83821680Y-93300273D01*
X83664637Y-93065241D01*
X83464759Y-92865363D01*
X83232241Y-92710000D01*
X83464759Y-92554637D01*
X83664637Y-92354759D01*
X83821680Y-92119727D01*
X83929853Y-91858574D01*
X83985000Y-91581335D01*
X83985000Y-91298665D01*
X83929853Y-91021426D01*
X83821680Y-90760273D01*
X83664637Y-90525241D01*
X83464759Y-90325363D01*
X83232241Y-90170000D01*
X83464759Y-90014637D01*
X83664637Y-89814759D01*
X83821680Y-89579727D01*
X83929853Y-89318574D01*
X83985000Y-89041335D01*
X83985000Y-88758665D01*
X83929853Y-88481426D01*
X83821680Y-88220273D01*
X83664637Y-87985241D01*
X83464759Y-87785363D01*
X83232241Y-87630000D01*
X83464759Y-87474637D01*
X83664637Y-87274759D01*
X83821680Y-87039727D01*
X83929853Y-86778574D01*
X83985000Y-86501335D01*
X83985000Y-86218665D01*
X83929853Y-85941426D01*
X83821680Y-85680273D01*
X83664637Y-85445241D01*
X83464759Y-85245363D01*
X83232241Y-85090000D01*
X83464759Y-84934637D01*
X83664637Y-84734759D01*
X83821680Y-84499727D01*
X83929853Y-84238574D01*
X83985000Y-83961335D01*
X83985000Y-83678665D01*
X83929853Y-83401426D01*
X83821680Y-83140273D01*
X83664637Y-82905241D01*
X83464759Y-82705363D01*
X83232241Y-82550000D01*
X83464759Y-82394637D01*
X83664637Y-82194759D01*
X83821680Y-81959727D01*
X83929853Y-81698574D01*
X83985000Y-81421335D01*
X83985000Y-81138665D01*
X83929853Y-80861426D01*
X83821680Y-80600273D01*
X83664637Y-80365241D01*
X83466039Y-80166643D01*
X83474482Y-80165812D01*
X83594180Y-80129502D01*
X83704494Y-80070537D01*
X83801185Y-79991185D01*
X83880537Y-79894494D01*
X83939502Y-79784180D01*
X83975812Y-79664482D01*
X83988072Y-79540000D01*
X83988072Y-78598665D01*
X88735000Y-78598665D01*
X88735000Y-78881335D01*
X88790147Y-79158574D01*
X88898320Y-79419727D01*
X89055363Y-79654759D01*
X89255241Y-79854637D01*
X89487759Y-80010000D01*
X89255241Y-80165363D01*
X89055363Y-80365241D01*
X88898320Y-80600273D01*
X88790147Y-80861426D01*
X88735000Y-81138665D01*
X88735000Y-81421335D01*
X88790147Y-81698574D01*
X88898320Y-81959727D01*
X89055363Y-82194759D01*
X89255241Y-82394637D01*
X89487759Y-82550000D01*
X89255241Y-82705363D01*
X89055363Y-82905241D01*
X88898320Y-83140273D01*
X88790147Y-83401426D01*
X88735000Y-83678665D01*
X88735000Y-83961335D01*
X88790147Y-84238574D01*
X88898320Y-84499727D01*
X89055363Y-84734759D01*
X89255241Y-84934637D01*
X89487759Y-85090000D01*
X89255241Y-85245363D01*
X89055363Y-85445241D01*
X88898320Y-85680273D01*
X88790147Y-85941426D01*
X88735000Y-86218665D01*
X88735000Y-86501335D01*
X88790147Y-86778574D01*
X88898320Y-87039727D01*
X89055363Y-87274759D01*
X89255241Y-87474637D01*
X89487759Y-87630000D01*
X89255241Y-87785363D01*
X89055363Y-87985241D01*
X88898320Y-88220273D01*
X88790147Y-88481426D01*
X88735000Y-88758665D01*
X88735000Y-89041335D01*
X88790147Y-89318574D01*
X88898320Y-89579727D01*
X89055363Y-89814759D01*
X89255241Y-90014637D01*
X89487759Y-90170000D01*
X89255241Y-90325363D01*
X89055363Y-90525241D01*
X88898320Y-90760273D01*
X88790147Y-91021426D01*
X88735000Y-91298665D01*
X88735000Y-91581335D01*
X88790147Y-91858574D01*
X88898320Y-92119727D01*
X89055363Y-92354759D01*
X89255241Y-92554637D01*
X89487759Y-92710000D01*
X89255241Y-92865363D01*
X89055363Y-93065241D01*
X88898320Y-93300273D01*
X88790147Y-93561426D01*
X88735000Y-93838665D01*
X88735000Y-94121335D01*
X88790147Y-94398574D01*
X88898320Y-94659727D01*
X89055363Y-94894759D01*
X89255241Y-95094637D01*
X89487759Y-95250000D01*
X89255241Y-95405363D01*
X89055363Y-95605241D01*
X88898320Y-95840273D01*
X88790147Y-96101426D01*
X88735000Y-96378665D01*
X88735000Y-96661335D01*
X88790147Y-96938574D01*
X88898320Y-97199727D01*
X89055363Y-97434759D01*
X89255241Y-97634637D01*
X89408000Y-97736707D01*
X89408001Y-103805561D01*
X89318987Y-103865038D01*
X89133038Y-104050987D01*
X88986939Y-104269641D01*
X88886304Y-104512595D01*
X88835000Y-104770514D01*
X88835000Y-105033486D01*
X88886304Y-105291405D01*
X88986939Y-105534359D01*
X89133038Y-105753013D01*
X89318987Y-105938962D01*
X89537641Y-106085061D01*
X89780595Y-106185696D01*
X90038514Y-106237000D01*
X90301486Y-106237000D01*
X90559405Y-106185696D01*
X90802359Y-106085061D01*
X91021013Y-105938962D01*
X91206962Y-105753013D01*
X91353061Y-105534359D01*
X91453696Y-105291405D01*
X91505000Y-105033486D01*
X91505000Y-104770514D01*
X91453696Y-104512595D01*
X91353061Y-104269641D01*
X91206962Y-104050987D01*
X91021013Y-103865038D01*
X90932000Y-103805562D01*
X90932000Y-99196000D01*
X107701928Y-99196000D01*
X107701928Y-100956000D01*
X107714188Y-101080482D01*
X107750498Y-101200180D01*
X107809463Y-101310494D01*
X107888815Y-101407185D01*
X107985506Y-101486537D01*
X108095820Y-101545502D01*
X108215518Y-101581812D01*
X108340000Y-101594072D01*
X110100000Y-101594072D01*
X110224482Y-101581812D01*
X110344180Y-101545502D01*
X110454494Y-101486537D01*
X110551185Y-101407185D01*
X110630537Y-101310494D01*
X110689502Y-101200180D01*
X110725812Y-101080482D01*
X110738072Y-100956000D01*
X110738072Y-99196000D01*
X110725812Y-99071518D01*
X110689502Y-98951820D01*
X110630537Y-98841506D01*
X110551185Y-98744815D01*
X110454494Y-98665463D01*
X110344180Y-98606498D01*
X110224482Y-98570188D01*
X110100000Y-98557928D01*
X108340000Y-98557928D01*
X108215518Y-98570188D01*
X108095820Y-98606498D01*
X107985506Y-98665463D01*
X107888815Y-98744815D01*
X107809463Y-98841506D01*
X107750498Y-98951820D01*
X107714188Y-99071518D01*
X107701928Y-99196000D01*
X90932000Y-99196000D01*
X90932000Y-98081942D01*
X90969998Y-98085685D01*
X91119377Y-98070972D01*
X91263014Y-98027400D01*
X91395391Y-97956643D01*
X91511420Y-97861420D01*
X91606643Y-97745391D01*
X91677400Y-97613014D01*
X91700762Y-97536000D01*
X115403160Y-97536000D01*
X117416368Y-99549209D01*
X117377403Y-99677660D01*
X117338169Y-100076000D01*
X117377403Y-100474340D01*
X117493594Y-100857374D01*
X117682280Y-101210381D01*
X117872579Y-101442260D01*
X118752578Y-102322259D01*
X123442055Y-107011737D01*
X123502156Y-107085706D01*
X123583210Y-107152892D01*
X123586740Y-107156422D01*
X123660215Y-107216722D01*
X123810321Y-107341145D01*
X123814730Y-107343530D01*
X123818619Y-107346721D01*
X123990851Y-107438780D01*
X124162399Y-107531558D01*
X124167199Y-107533040D01*
X124171626Y-107535406D01*
X124358290Y-107592030D01*
X124544859Y-107649624D01*
X124549857Y-107650141D01*
X124554660Y-107651598D01*
X124748938Y-107670733D01*
X124843236Y-107680487D01*
X124848216Y-107680511D01*
X124953000Y-107690832D01*
X125047859Y-107681489D01*
X125255431Y-107682506D01*
X125257000Y-107698434D01*
X125256999Y-123223576D01*
X125253313Y-123260999D01*
X125256999Y-123298422D01*
X125256999Y-123298424D01*
X125268025Y-123410376D01*
X125311597Y-123554013D01*
X125338277Y-123603928D01*
X125382354Y-123686391D01*
X125417854Y-123729648D01*
X125477577Y-123802421D01*
X125506653Y-123826283D01*
X125568004Y-123887635D01*
X125505820Y-123906498D01*
X125395506Y-123965463D01*
X125298815Y-124044815D01*
X125219463Y-124141506D01*
X125160498Y-124251820D01*
X125124188Y-124371518D01*
X125111928Y-124496000D01*
X125111928Y-126296000D01*
X125124188Y-126420482D01*
X125160498Y-126540180D01*
X125219463Y-126650494D01*
X125298815Y-126747185D01*
X125395506Y-126826537D01*
X125505820Y-126885502D01*
X125625518Y-126921812D01*
X125750000Y-126934072D01*
X128250000Y-126934072D01*
X128374482Y-126921812D01*
X128494180Y-126885502D01*
X128604494Y-126826537D01*
X128701185Y-126747185D01*
X128780537Y-126650494D01*
X128839502Y-126540180D01*
X128875812Y-126420482D01*
X128888072Y-126296000D01*
X128888072Y-125274363D01*
X130765000Y-125274363D01*
X130765000Y-125517637D01*
X130812460Y-125756236D01*
X130905557Y-125980992D01*
X131040713Y-126183267D01*
X131212733Y-126355287D01*
X131415008Y-126490443D01*
X131639764Y-126583540D01*
X131878363Y-126631000D01*
X132121637Y-126631000D01*
X132360236Y-126583540D01*
X132584992Y-126490443D01*
X132787267Y-126355287D01*
X132959287Y-126183267D01*
X133094443Y-125980992D01*
X133187540Y-125756236D01*
X133235000Y-125517637D01*
X133235000Y-125274363D01*
X136259000Y-125274363D01*
X136259000Y-125517637D01*
X136306460Y-125756236D01*
X136399557Y-125980992D01*
X136534713Y-126183267D01*
X136706733Y-126355287D01*
X136909008Y-126490443D01*
X137133764Y-126583540D01*
X137372363Y-126631000D01*
X137615637Y-126631000D01*
X137854236Y-126583540D01*
X138078992Y-126490443D01*
X138281267Y-126355287D01*
X138453287Y-126183267D01*
X138588443Y-125980992D01*
X138681540Y-125756236D01*
X138729000Y-125517637D01*
X138729000Y-125274363D01*
X138681540Y-125035764D01*
X138588443Y-124811008D01*
X138453287Y-124608733D01*
X138281267Y-124436713D01*
X138078992Y-124301557D01*
X137854236Y-124208460D01*
X137615637Y-124161000D01*
X137372363Y-124161000D01*
X137133764Y-124208460D01*
X136909008Y-124301557D01*
X136706733Y-124436713D01*
X136534713Y-124608733D01*
X136399557Y-124811008D01*
X136306460Y-125035764D01*
X136259000Y-125274363D01*
X133235000Y-125274363D01*
X133187540Y-125035764D01*
X133094443Y-124811008D01*
X132959287Y-124608733D01*
X132787267Y-124436713D01*
X132584992Y-124301557D01*
X132360236Y-124208460D01*
X132121637Y-124161000D01*
X131878363Y-124161000D01*
X131639764Y-124208460D01*
X131415008Y-124301557D01*
X131212733Y-124436713D01*
X131040713Y-124608733D01*
X130905557Y-124811008D01*
X130812460Y-125035764D01*
X130765000Y-125274363D01*
X128888072Y-125274363D01*
X128888072Y-124496000D01*
X128875812Y-124371518D01*
X128839502Y-124251820D01*
X128780537Y-124141506D01*
X128701185Y-124044815D01*
X128604494Y-123965463D01*
X128494180Y-123906498D01*
X128374482Y-123870188D01*
X128250000Y-123857928D01*
X127658731Y-123857928D01*
X127639719Y-123822359D01*
X127636645Y-123816607D01*
X127565279Y-123729648D01*
X127541422Y-123700578D01*
X127512351Y-123676721D01*
X126780999Y-122945369D01*
X126780999Y-121611633D01*
X126878363Y-121631000D01*
X127121637Y-121631000D01*
X127360236Y-121583540D01*
X127584992Y-121490443D01*
X127787267Y-121355287D01*
X127959287Y-121183267D01*
X128094443Y-120980992D01*
X128187540Y-120756236D01*
X128235000Y-120517637D01*
X128235000Y-120274363D01*
X128187540Y-120035764D01*
X128094443Y-119811008D01*
X127959287Y-119608733D01*
X127787267Y-119436713D01*
X127584992Y-119301557D01*
X127360236Y-119208460D01*
X127121637Y-119161000D01*
X126878363Y-119161000D01*
X126780999Y-119180367D01*
X126780999Y-119146000D01*
X130461928Y-119146000D01*
X130461928Y-121646000D01*
X130474188Y-121770482D01*
X130510498Y-121890180D01*
X130569463Y-122000494D01*
X130648815Y-122097185D01*
X130745506Y-122176537D01*
X130855820Y-122235502D01*
X130975518Y-122271812D01*
X131100000Y-122284072D01*
X132900000Y-122284072D01*
X133024482Y-122271812D01*
X133144180Y-122235502D01*
X133254494Y-122176537D01*
X133351185Y-122097185D01*
X133430537Y-122000494D01*
X133489502Y-121890180D01*
X133525812Y-121770482D01*
X133538072Y-121646000D01*
X133538072Y-119146000D01*
X135955928Y-119146000D01*
X135955928Y-121646000D01*
X135968188Y-121770482D01*
X136004498Y-121890180D01*
X136063463Y-122000494D01*
X136142815Y-122097185D01*
X136239506Y-122176537D01*
X136349820Y-122235502D01*
X136469518Y-122271812D01*
X136594000Y-122284072D01*
X138394000Y-122284072D01*
X138518482Y-122271812D01*
X138638180Y-122235502D01*
X138748494Y-122176537D01*
X138845185Y-122097185D01*
X138924537Y-122000494D01*
X138983502Y-121890180D01*
X139019812Y-121770482D01*
X139032072Y-121646000D01*
X139032072Y-119146000D01*
X139019812Y-119021518D01*
X138983502Y-118901820D01*
X138924537Y-118791506D01*
X138845185Y-118694815D01*
X138748494Y-118615463D01*
X138638180Y-118556498D01*
X138518482Y-118520188D01*
X138394000Y-118507928D01*
X136594000Y-118507928D01*
X136469518Y-118520188D01*
X136349820Y-118556498D01*
X136239506Y-118615463D01*
X136142815Y-118694815D01*
X136063463Y-118791506D01*
X136004498Y-118901820D01*
X135968188Y-119021518D01*
X135955928Y-119146000D01*
X133538072Y-119146000D01*
X133525812Y-119021518D01*
X133489502Y-118901820D01*
X133430537Y-118791506D01*
X133351185Y-118694815D01*
X133254494Y-118615463D01*
X133144180Y-118556498D01*
X133024482Y-118520188D01*
X132900000Y-118507928D01*
X131100000Y-118507928D01*
X130975518Y-118520188D01*
X130855820Y-118556498D01*
X130745506Y-118615463D01*
X130648815Y-118694815D01*
X130569463Y-118791506D01*
X130510498Y-118901820D01*
X130474188Y-119021518D01*
X130461928Y-119146000D01*
X126780999Y-119146000D01*
X126780999Y-107976631D01*
X127066257Y-107691373D01*
X127911217Y-107695511D01*
X127916184Y-107696000D01*
X128011112Y-107696000D01*
X128105864Y-107696464D01*
X128110824Y-107696000D01*
X142748001Y-107696000D01*
X142748000Y-119187329D01*
X142615637Y-119161000D01*
X142372363Y-119161000D01*
X142133764Y-119208460D01*
X141909008Y-119301557D01*
X141706733Y-119436713D01*
X141534713Y-119608733D01*
X141399557Y-119811008D01*
X141306460Y-120035764D01*
X141259000Y-120274363D01*
X141259000Y-120517637D01*
X141306460Y-120756236D01*
X141399557Y-120980992D01*
X141534713Y-121183267D01*
X141706733Y-121355287D01*
X141909008Y-121490443D01*
X142133764Y-121583540D01*
X142372363Y-121631000D01*
X142615637Y-121631000D01*
X142748000Y-121604672D01*
X142748000Y-122910369D01*
X141981649Y-123676721D01*
X141952579Y-123700578D01*
X141928722Y-123729648D01*
X141928721Y-123729649D01*
X141857355Y-123816608D01*
X141835269Y-123857928D01*
X141244000Y-123857928D01*
X141119518Y-123870188D01*
X140999820Y-123906498D01*
X140889506Y-123965463D01*
X140792815Y-124044815D01*
X140713463Y-124141506D01*
X140654498Y-124251820D01*
X140618188Y-124371518D01*
X140605928Y-124496000D01*
X140605928Y-126296000D01*
X140618188Y-126420482D01*
X140654498Y-126540180D01*
X140713463Y-126650494D01*
X140792815Y-126747185D01*
X140889506Y-126826537D01*
X140999820Y-126885502D01*
X141119518Y-126921812D01*
X141244000Y-126934072D01*
X143744000Y-126934072D01*
X143868482Y-126921812D01*
X143988180Y-126885502D01*
X144098494Y-126826537D01*
X144195185Y-126747185D01*
X144274537Y-126650494D01*
X144333502Y-126540180D01*
X144369812Y-126420482D01*
X144382072Y-126296000D01*
X144382072Y-125274363D01*
X146259000Y-125274363D01*
X146259000Y-125517637D01*
X146306460Y-125756236D01*
X146399557Y-125980992D01*
X146534713Y-126183267D01*
X146706733Y-126355287D01*
X146909008Y-126490443D01*
X147133764Y-126583540D01*
X147372363Y-126631000D01*
X147615637Y-126631000D01*
X147854236Y-126583540D01*
X148078992Y-126490443D01*
X148281267Y-126355287D01*
X148453287Y-126183267D01*
X148588443Y-125980992D01*
X148681540Y-125756236D01*
X148729000Y-125517637D01*
X148729000Y-125274363D01*
X151499000Y-125274363D01*
X151499000Y-125517637D01*
X151546460Y-125756236D01*
X151639557Y-125980992D01*
X151774713Y-126183267D01*
X151946733Y-126355287D01*
X152149008Y-126490443D01*
X152373764Y-126583540D01*
X152612363Y-126631000D01*
X152855637Y-126631000D01*
X153094236Y-126583540D01*
X153318992Y-126490443D01*
X153521267Y-126355287D01*
X153693287Y-126183267D01*
X153828443Y-125980992D01*
X153921540Y-125756236D01*
X153969000Y-125517637D01*
X153969000Y-125274363D01*
X153921540Y-125035764D01*
X153828443Y-124811008D01*
X153693287Y-124608733D01*
X153521267Y-124436713D01*
X153318992Y-124301557D01*
X153094236Y-124208460D01*
X152855637Y-124161000D01*
X152612363Y-124161000D01*
X152373764Y-124208460D01*
X152149008Y-124301557D01*
X151946733Y-124436713D01*
X151774713Y-124608733D01*
X151639557Y-124811008D01*
X151546460Y-125035764D01*
X151499000Y-125274363D01*
X148729000Y-125274363D01*
X148681540Y-125035764D01*
X148588443Y-124811008D01*
X148453287Y-124608733D01*
X148281267Y-124436713D01*
X148078992Y-124301557D01*
X147854236Y-124208460D01*
X147615637Y-124161000D01*
X147372363Y-124161000D01*
X147133764Y-124208460D01*
X146909008Y-124301557D01*
X146706733Y-124436713D01*
X146534713Y-124608733D01*
X146399557Y-124811008D01*
X146306460Y-125035764D01*
X146259000Y-125274363D01*
X144382072Y-125274363D01*
X144382072Y-124496000D01*
X144369812Y-124371518D01*
X144333502Y-124251820D01*
X144274537Y-124141506D01*
X144195185Y-124044815D01*
X144098494Y-123965463D01*
X143988180Y-123906498D01*
X143925996Y-123887635D01*
X144022353Y-123791278D01*
X144051422Y-123767422D01*
X144097346Y-123711463D01*
X144146645Y-123651393D01*
X144185123Y-123579405D01*
X144217402Y-123519015D01*
X144260974Y-123375378D01*
X144272000Y-123263426D01*
X144272000Y-123263423D01*
X144275686Y-123226000D01*
X144272000Y-123188577D01*
X144272000Y-119146000D01*
X145955928Y-119146000D01*
X145955928Y-121646000D01*
X145968188Y-121770482D01*
X146004498Y-121890180D01*
X146063463Y-122000494D01*
X146142815Y-122097185D01*
X146239506Y-122176537D01*
X146349820Y-122235502D01*
X146469518Y-122271812D01*
X146594000Y-122284072D01*
X148394000Y-122284072D01*
X148518482Y-122271812D01*
X148638180Y-122235502D01*
X148748494Y-122176537D01*
X148845185Y-122097185D01*
X148924537Y-122000494D01*
X148983502Y-121890180D01*
X149019812Y-121770482D01*
X149032072Y-121646000D01*
X149032072Y-119146000D01*
X151195928Y-119146000D01*
X151195928Y-121646000D01*
X151208188Y-121770482D01*
X151244498Y-121890180D01*
X151303463Y-122000494D01*
X151382815Y-122097185D01*
X151479506Y-122176537D01*
X151589820Y-122235502D01*
X151709518Y-122271812D01*
X151834000Y-122284072D01*
X153634000Y-122284072D01*
X153758482Y-122271812D01*
X153878180Y-122235502D01*
X153988494Y-122176537D01*
X154085185Y-122097185D01*
X154164537Y-122000494D01*
X154223502Y-121890180D01*
X154259812Y-121770482D01*
X154272072Y-121646000D01*
X154272072Y-119146000D01*
X154259812Y-119021518D01*
X154223502Y-118901820D01*
X154164537Y-118791506D01*
X154085185Y-118694815D01*
X153988494Y-118615463D01*
X153878180Y-118556498D01*
X153758482Y-118520188D01*
X153634000Y-118507928D01*
X151834000Y-118507928D01*
X151709518Y-118520188D01*
X151589820Y-118556498D01*
X151479506Y-118615463D01*
X151382815Y-118694815D01*
X151303463Y-118791506D01*
X151244498Y-118901820D01*
X151208188Y-119021518D01*
X151195928Y-119146000D01*
X149032072Y-119146000D01*
X149019812Y-119021518D01*
X148983502Y-118901820D01*
X148924537Y-118791506D01*
X148845185Y-118694815D01*
X148748494Y-118615463D01*
X148638180Y-118556498D01*
X148518482Y-118520188D01*
X148394000Y-118507928D01*
X146594000Y-118507928D01*
X146469518Y-118520188D01*
X146349820Y-118556498D01*
X146239506Y-118615463D01*
X146142815Y-118694815D01*
X146063463Y-118791506D01*
X146004498Y-118901820D01*
X145968188Y-119021518D01*
X145955928Y-119146000D01*
X144272000Y-119146000D01*
X144272000Y-107696000D01*
X155991000Y-107696000D01*
X155990999Y-124095768D01*
X155953463Y-124141506D01*
X155894498Y-124251820D01*
X155858188Y-124371518D01*
X155845928Y-124496000D01*
X155845928Y-126296000D01*
X155858188Y-126420482D01*
X155894498Y-126540180D01*
X155953463Y-126650494D01*
X156032815Y-126747185D01*
X156129506Y-126826537D01*
X156239820Y-126885502D01*
X156359518Y-126921812D01*
X156484000Y-126934072D01*
X158984000Y-126934072D01*
X159108482Y-126921812D01*
X159228180Y-126885502D01*
X159338494Y-126826537D01*
X159435185Y-126747185D01*
X159514537Y-126650494D01*
X159573502Y-126540180D01*
X159609812Y-126420482D01*
X159622072Y-126296000D01*
X159622072Y-125274363D01*
X161499000Y-125274363D01*
X161499000Y-125517637D01*
X161546460Y-125756236D01*
X161639557Y-125980992D01*
X161774713Y-126183267D01*
X161946733Y-126355287D01*
X162149008Y-126490443D01*
X162373764Y-126583540D01*
X162612363Y-126631000D01*
X162855637Y-126631000D01*
X163094236Y-126583540D01*
X163318992Y-126490443D01*
X163521267Y-126355287D01*
X163693287Y-126183267D01*
X163828443Y-125980992D01*
X163921540Y-125756236D01*
X163969000Y-125517637D01*
X163969000Y-125274363D01*
X163921540Y-125035764D01*
X163915161Y-125020363D01*
X167247000Y-125020363D01*
X167247000Y-125263637D01*
X167294460Y-125502236D01*
X167387557Y-125726992D01*
X167522713Y-125929267D01*
X167694733Y-126101287D01*
X167897008Y-126236443D01*
X168121764Y-126329540D01*
X168360363Y-126377000D01*
X168603637Y-126377000D01*
X168842236Y-126329540D01*
X169066992Y-126236443D01*
X169269267Y-126101287D01*
X169441287Y-125929267D01*
X169576443Y-125726992D01*
X169669540Y-125502236D01*
X169717000Y-125263637D01*
X169717000Y-125020363D01*
X169669540Y-124781764D01*
X169576443Y-124557008D01*
X169441287Y-124354733D01*
X169269267Y-124182713D01*
X169066992Y-124047557D01*
X168842236Y-123954460D01*
X168603637Y-123907000D01*
X168360363Y-123907000D01*
X168121764Y-123954460D01*
X167897008Y-124047557D01*
X167694733Y-124182713D01*
X167522713Y-124354733D01*
X167387557Y-124557008D01*
X167294460Y-124781764D01*
X167247000Y-125020363D01*
X163915161Y-125020363D01*
X163828443Y-124811008D01*
X163693287Y-124608733D01*
X163521267Y-124436713D01*
X163318992Y-124301557D01*
X163094236Y-124208460D01*
X162855637Y-124161000D01*
X162612363Y-124161000D01*
X162373764Y-124208460D01*
X162149008Y-124301557D01*
X161946733Y-124436713D01*
X161774713Y-124608733D01*
X161639557Y-124811008D01*
X161546460Y-125035764D01*
X161499000Y-125274363D01*
X159622072Y-125274363D01*
X159622072Y-124496000D01*
X159609812Y-124371518D01*
X159573502Y-124251820D01*
X159514537Y-124141506D01*
X159435185Y-124044815D01*
X159338494Y-123965463D01*
X159228180Y-123906498D01*
X159108482Y-123870188D01*
X158984000Y-123857928D01*
X157514999Y-123857928D01*
X157514999Y-123058514D01*
X199325000Y-123058514D01*
X199325000Y-123321486D01*
X199376304Y-123579405D01*
X199476939Y-123822359D01*
X199623038Y-124041013D01*
X199808987Y-124226962D01*
X200027641Y-124373061D01*
X200270595Y-124473696D01*
X200528514Y-124525000D01*
X200791486Y-124525000D01*
X201049405Y-124473696D01*
X201292359Y-124373061D01*
X201511013Y-124226962D01*
X201696962Y-124041013D01*
X201843061Y-123822359D01*
X201943696Y-123579405D01*
X201995000Y-123321486D01*
X201995000Y-123058514D01*
X206945000Y-123058514D01*
X206945000Y-123321486D01*
X206996304Y-123579405D01*
X207096939Y-123822359D01*
X207243038Y-124041013D01*
X207428987Y-124226962D01*
X207647641Y-124373061D01*
X207890595Y-124473696D01*
X208148514Y-124525000D01*
X208411486Y-124525000D01*
X208669405Y-124473696D01*
X208912359Y-124373061D01*
X209131013Y-124226962D01*
X209316962Y-124041013D01*
X209463061Y-123822359D01*
X209563696Y-123579405D01*
X209615000Y-123321486D01*
X209615000Y-123058514D01*
X209563696Y-122800595D01*
X209463061Y-122557641D01*
X209316962Y-122338987D01*
X209131013Y-122153038D01*
X208912359Y-122006939D01*
X208669405Y-121906304D01*
X208411486Y-121855000D01*
X208148514Y-121855000D01*
X207890595Y-121906304D01*
X207647641Y-122006939D01*
X207428987Y-122153038D01*
X207243038Y-122338987D01*
X207096939Y-122557641D01*
X206996304Y-122800595D01*
X206945000Y-123058514D01*
X201995000Y-123058514D01*
X201943696Y-122800595D01*
X201843061Y-122557641D01*
X201696962Y-122338987D01*
X201511013Y-122153038D01*
X201292359Y-122006939D01*
X201049405Y-121906304D01*
X200791486Y-121855000D01*
X200528514Y-121855000D01*
X200270595Y-121906304D01*
X200027641Y-122006939D01*
X199808987Y-122153038D01*
X199623038Y-122338987D01*
X199476939Y-122557641D01*
X199376304Y-122800595D01*
X199325000Y-123058514D01*
X157514999Y-123058514D01*
X157514999Y-121611633D01*
X157612363Y-121631000D01*
X157855637Y-121631000D01*
X158094236Y-121583540D01*
X158318992Y-121490443D01*
X158521267Y-121355287D01*
X158693287Y-121183267D01*
X158828443Y-120980992D01*
X158921540Y-120756236D01*
X158969000Y-120517637D01*
X158969000Y-120274363D01*
X158921540Y-120035764D01*
X158828443Y-119811008D01*
X158693287Y-119608733D01*
X158521267Y-119436713D01*
X158318992Y-119301557D01*
X158094236Y-119208460D01*
X157855637Y-119161000D01*
X157612363Y-119161000D01*
X157514999Y-119180367D01*
X157514999Y-119146000D01*
X161195928Y-119146000D01*
X161195928Y-121646000D01*
X161208188Y-121770482D01*
X161244498Y-121890180D01*
X161303463Y-122000494D01*
X161382815Y-122097185D01*
X161479506Y-122176537D01*
X161589820Y-122235502D01*
X161709518Y-122271812D01*
X161834000Y-122284072D01*
X163634000Y-122284072D01*
X163758482Y-122271812D01*
X163878180Y-122235502D01*
X163988494Y-122176537D01*
X164085185Y-122097185D01*
X164164537Y-122000494D01*
X164223502Y-121890180D01*
X164259812Y-121770482D01*
X164272072Y-121646000D01*
X164272072Y-119146000D01*
X164259812Y-119021518D01*
X164223502Y-118901820D01*
X164218254Y-118892000D01*
X166943928Y-118892000D01*
X166943928Y-121392000D01*
X166956188Y-121516482D01*
X166992498Y-121636180D01*
X167051463Y-121746494D01*
X167130815Y-121843185D01*
X167227506Y-121922537D01*
X167337820Y-121981502D01*
X167457518Y-122017812D01*
X167582000Y-122030072D01*
X169382000Y-122030072D01*
X169506482Y-122017812D01*
X169626180Y-121981502D01*
X169736494Y-121922537D01*
X169833185Y-121843185D01*
X169912537Y-121746494D01*
X169971502Y-121636180D01*
X170007812Y-121516482D01*
X170020072Y-121392000D01*
X170020072Y-120020363D01*
X172247000Y-120020363D01*
X172247000Y-120263637D01*
X172294460Y-120502236D01*
X172387557Y-120726992D01*
X172522713Y-120929267D01*
X172694733Y-121101287D01*
X172897008Y-121236443D01*
X173121764Y-121329540D01*
X173360363Y-121377000D01*
X173603637Y-121377000D01*
X173842236Y-121329540D01*
X174066992Y-121236443D01*
X174269267Y-121101287D01*
X174441287Y-120929267D01*
X174576443Y-120726992D01*
X174669540Y-120502236D01*
X174717000Y-120263637D01*
X174717000Y-120020363D01*
X174669540Y-119781764D01*
X174576443Y-119557008D01*
X174441287Y-119354733D01*
X174269267Y-119182713D01*
X174066992Y-119047557D01*
X173842236Y-118954460D01*
X173603637Y-118907000D01*
X173360363Y-118907000D01*
X173121764Y-118954460D01*
X172897008Y-119047557D01*
X172694733Y-119182713D01*
X172522713Y-119354733D01*
X172387557Y-119557008D01*
X172294460Y-119781764D01*
X172247000Y-120020363D01*
X170020072Y-120020363D01*
X170020072Y-118892000D01*
X176943928Y-118892000D01*
X176943928Y-121392000D01*
X176956188Y-121516482D01*
X176992498Y-121636180D01*
X177051463Y-121746494D01*
X177130815Y-121843185D01*
X177227506Y-121922537D01*
X177337820Y-121981502D01*
X177457518Y-122017812D01*
X177582000Y-122030072D01*
X179382000Y-122030072D01*
X179506482Y-122017812D01*
X179626180Y-121981502D01*
X179736494Y-121922537D01*
X179833185Y-121843185D01*
X179912537Y-121746494D01*
X179971502Y-121636180D01*
X180007812Y-121516482D01*
X180020072Y-121392000D01*
X180020072Y-118892000D01*
X180007812Y-118767518D01*
X179971502Y-118647820D01*
X179912537Y-118537506D01*
X179833185Y-118440815D01*
X179736494Y-118361463D01*
X179626180Y-118302498D01*
X179506482Y-118266188D01*
X179382000Y-118253928D01*
X177582000Y-118253928D01*
X177457518Y-118266188D01*
X177337820Y-118302498D01*
X177227506Y-118361463D01*
X177130815Y-118440815D01*
X177051463Y-118537506D01*
X176992498Y-118647820D01*
X176956188Y-118767518D01*
X176943928Y-118892000D01*
X170020072Y-118892000D01*
X170007812Y-118767518D01*
X169971502Y-118647820D01*
X169912537Y-118537506D01*
X169833185Y-118440815D01*
X169736494Y-118361463D01*
X169626180Y-118302498D01*
X169506482Y-118266188D01*
X169382000Y-118253928D01*
X167582000Y-118253928D01*
X167457518Y-118266188D01*
X167337820Y-118302498D01*
X167227506Y-118361463D01*
X167130815Y-118440815D01*
X167051463Y-118537506D01*
X166992498Y-118647820D01*
X166956188Y-118767518D01*
X166943928Y-118892000D01*
X164218254Y-118892000D01*
X164164537Y-118791506D01*
X164085185Y-118694815D01*
X163988494Y-118615463D01*
X163878180Y-118556498D01*
X163758482Y-118520188D01*
X163634000Y-118507928D01*
X161834000Y-118507928D01*
X161709518Y-118520188D01*
X161589820Y-118556498D01*
X161479506Y-118615463D01*
X161382815Y-118694815D01*
X161303463Y-118791506D01*
X161244498Y-118901820D01*
X161208188Y-119021518D01*
X161195928Y-119146000D01*
X157514999Y-119146000D01*
X157514999Y-113626042D01*
X199737000Y-113626042D01*
X199737000Y-113957958D01*
X199801754Y-114283496D01*
X199928772Y-114590147D01*
X200113175Y-114866125D01*
X200347875Y-115100825D01*
X200623853Y-115285228D01*
X200930504Y-115412246D01*
X201256042Y-115477000D01*
X201587958Y-115477000D01*
X201913496Y-115412246D01*
X202220147Y-115285228D01*
X202496125Y-115100825D01*
X202692000Y-114904950D01*
X202887875Y-115100825D01*
X203163853Y-115285228D01*
X203470504Y-115412246D01*
X203796042Y-115477000D01*
X204127958Y-115477000D01*
X204453496Y-115412246D01*
X204760147Y-115285228D01*
X205036125Y-115100825D01*
X205173884Y-114963066D01*
X205510539Y-114963066D01*
X205612339Y-115232579D01*
X205910477Y-115378463D01*
X206231346Y-115463380D01*
X206562617Y-115484066D01*
X206891557Y-115439728D01*
X207205527Y-115332069D01*
X207391661Y-115232579D01*
X207493461Y-114963066D01*
X206502000Y-113971605D01*
X205510539Y-114963066D01*
X205173884Y-114963066D01*
X205270825Y-114866125D01*
X205327042Y-114781991D01*
X205330934Y-114783461D01*
X206322395Y-113792000D01*
X206681605Y-113792000D01*
X207673066Y-114783461D01*
X207942579Y-114681661D01*
X208088463Y-114383523D01*
X208173380Y-114062654D01*
X208194066Y-113731383D01*
X208149728Y-113402443D01*
X208042069Y-113088473D01*
X207942579Y-112902339D01*
X207673066Y-112800539D01*
X206681605Y-113792000D01*
X206322395Y-113792000D01*
X205330934Y-112800539D01*
X205327042Y-112802009D01*
X205270825Y-112717875D01*
X205173884Y-112620934D01*
X205510539Y-112620934D01*
X206502000Y-113612395D01*
X207493461Y-112620934D01*
X207391661Y-112351421D01*
X207093523Y-112205537D01*
X206772654Y-112120620D01*
X206441383Y-112099934D01*
X206112443Y-112144272D01*
X205798473Y-112251931D01*
X205612339Y-112351421D01*
X205510539Y-112620934D01*
X205173884Y-112620934D01*
X205036125Y-112483175D01*
X204760147Y-112298772D01*
X204453496Y-112171754D01*
X204127958Y-112107000D01*
X203796042Y-112107000D01*
X203470504Y-112171754D01*
X203163853Y-112298772D01*
X202887875Y-112483175D01*
X202692000Y-112679050D01*
X202496125Y-112483175D01*
X202220147Y-112298772D01*
X201913496Y-112171754D01*
X201587958Y-112107000D01*
X201256042Y-112107000D01*
X200930504Y-112171754D01*
X200623853Y-112298772D01*
X200347875Y-112483175D01*
X200113175Y-112717875D01*
X199928772Y-112993853D01*
X199801754Y-113300504D01*
X199737000Y-113626042D01*
X157514999Y-113626042D01*
X157514999Y-107696000D01*
X182526517Y-107696000D01*
X182526843Y-107696032D01*
X182625639Y-107696000D01*
X182725816Y-107696000D01*
X182726147Y-107695967D01*
X228339463Y-107681193D01*
X210486656Y-125534000D01*
X179656383Y-125534000D01*
X179669540Y-125502236D01*
X179717000Y-125263637D01*
X179717000Y-125020363D01*
X179669540Y-124781764D01*
X179576443Y-124557008D01*
X179441287Y-124354733D01*
X179269267Y-124182713D01*
X179066992Y-124047557D01*
X178842236Y-123954460D01*
X178603637Y-123907000D01*
X178360363Y-123907000D01*
X178121764Y-123954460D01*
X177897008Y-124047557D01*
X177694733Y-124182713D01*
X177522713Y-124354733D01*
X177387557Y-124557008D01*
X177294460Y-124781764D01*
X177247000Y-125020363D01*
X177247000Y-125263637D01*
X177294460Y-125502236D01*
X177307617Y-125534000D01*
X175370072Y-125534000D01*
X175370072Y-124242000D01*
X175357812Y-124117518D01*
X175321502Y-123997820D01*
X175262537Y-123887506D01*
X175183185Y-123790815D01*
X175086494Y-123711463D01*
X174976180Y-123652498D01*
X174856482Y-123616188D01*
X174732000Y-123603928D01*
X172232000Y-123603928D01*
X172107518Y-123616188D01*
X171987820Y-123652498D01*
X171877506Y-123711463D01*
X171780815Y-123790815D01*
X171701463Y-123887506D01*
X171642498Y-123997820D01*
X171606188Y-124117518D01*
X171593928Y-124242000D01*
X171593928Y-126042000D01*
X171606188Y-126166482D01*
X171642498Y-126286180D01*
X171701463Y-126396494D01*
X171780815Y-126493185D01*
X171877506Y-126572537D01*
X171987820Y-126631502D01*
X172107518Y-126667812D01*
X172232000Y-126680072D01*
X174292441Y-126680072D01*
X174420721Y-126808352D01*
X174444578Y-126837422D01*
X174560608Y-126932645D01*
X174692985Y-127003402D01*
X174836622Y-127046974D01*
X174948574Y-127058000D01*
X174948576Y-127058000D01*
X174985999Y-127061686D01*
X175023422Y-127058000D01*
X177387146Y-127058000D01*
X177294460Y-127281764D01*
X177247000Y-127520363D01*
X177247000Y-127763637D01*
X177294460Y-128002236D01*
X177387557Y-128226992D01*
X177522713Y-128429267D01*
X177694733Y-128601287D01*
X177897008Y-128736443D01*
X178121764Y-128829540D01*
X178360363Y-128877000D01*
X178603637Y-128877000D01*
X178842236Y-128829540D01*
X179066992Y-128736443D01*
X179269267Y-128601287D01*
X179441287Y-128429267D01*
X179576443Y-128226992D01*
X179669540Y-128002236D01*
X179717000Y-127763637D01*
X179717000Y-127520363D01*
X179669540Y-127281764D01*
X179576854Y-127058000D01*
X210764863Y-127058000D01*
X210802286Y-127061686D01*
X210839709Y-127058000D01*
X210839712Y-127058000D01*
X210951664Y-127046974D01*
X211095301Y-127003402D01*
X211227678Y-126932645D01*
X211343708Y-126837422D01*
X211367570Y-126808346D01*
X231604363Y-106571555D01*
X231633432Y-106547699D01*
X231728655Y-106431669D01*
X231799412Y-106299292D01*
X231842984Y-106155655D01*
X231854010Y-106043703D01*
X231854010Y-106043701D01*
X231857696Y-106006278D01*
X231854010Y-105968855D01*
X231854010Y-97127631D01*
X231857696Y-97090208D01*
X231853096Y-97043506D01*
X231842984Y-96940830D01*
X231799412Y-96797193D01*
X231747250Y-96699605D01*
X231728655Y-96664815D01*
X231657289Y-96577856D01*
X231633432Y-96548786D01*
X231604362Y-96524929D01*
X222705086Y-87625654D01*
X222681224Y-87596578D01*
X222565194Y-87501355D01*
X222432817Y-87430598D01*
X222289180Y-87387026D01*
X222177228Y-87376000D01*
X222177225Y-87376000D01*
X222139802Y-87372314D01*
X222102379Y-87376000D01*
X207330976Y-87376000D01*
X207186312Y-87159495D01*
X206972505Y-86945688D01*
X206721095Y-86777701D01*
X206441743Y-86661989D01*
X206145184Y-86603000D01*
X205842816Y-86603000D01*
X205587430Y-86653799D01*
X205278283Y-86344653D01*
X205254421Y-86315577D01*
X205138391Y-86220354D01*
X205006014Y-86149597D01*
X204862377Y-86106025D01*
X204750425Y-86094999D01*
X204750422Y-86094999D01*
X204712999Y-86091313D01*
X204675576Y-86094999D01*
X200336542Y-86094999D01*
X200299119Y-86091313D01*
X200261696Y-86094999D01*
X200261693Y-86094999D01*
X200149741Y-86106025D01*
X200006104Y-86149597D01*
X199944483Y-86182534D01*
X199873726Y-86220354D01*
X199849147Y-86240526D01*
X199757697Y-86315577D01*
X199733839Y-86344648D01*
X199120652Y-86957836D01*
X199091577Y-86981697D01*
X199053265Y-87028381D01*
X198996354Y-87097727D01*
X198968406Y-87150015D01*
X198925597Y-87230105D01*
X198882025Y-87373742D01*
X198873037Y-87465000D01*
X198867313Y-87523119D01*
X198870999Y-87560542D01*
X198871000Y-91899566D01*
X198867313Y-91936999D01*
X198882026Y-92086377D01*
X198925598Y-92230014D01*
X198996354Y-92362391D01*
X199067720Y-92449350D01*
X199091578Y-92478421D01*
X199120648Y-92502278D01*
X199429799Y-92811429D01*
X199379000Y-93066816D01*
X199379000Y-93369184D01*
X199437989Y-93665743D01*
X199553701Y-93945095D01*
X199721688Y-94196505D01*
X199935495Y-94410312D01*
X200186905Y-94578299D01*
X200466257Y-94694011D01*
X200762816Y-94753000D01*
X201065184Y-94753000D01*
X201361743Y-94694011D01*
X201641095Y-94578299D01*
X201892505Y-94410312D01*
X202106312Y-94196505D01*
X202274299Y-93945095D01*
X202390011Y-93665743D01*
X202449000Y-93369184D01*
X202449000Y-93066816D01*
X204459000Y-93066816D01*
X204459000Y-93369184D01*
X204517989Y-93665743D01*
X204633701Y-93945095D01*
X204801688Y-94196505D01*
X205015495Y-94410312D01*
X205266905Y-94578299D01*
X205546257Y-94694011D01*
X205842816Y-94753000D01*
X206145184Y-94753000D01*
X206441743Y-94694011D01*
X206721095Y-94578299D01*
X206972505Y-94410312D01*
X207186312Y-94196505D01*
X207354299Y-93945095D01*
X207470011Y-93665743D01*
X207529000Y-93369184D01*
X207529000Y-93066816D01*
X207470011Y-92770257D01*
X207354299Y-92490905D01*
X207186312Y-92239495D01*
X206972505Y-92025688D01*
X206818895Y-91923049D01*
X206878475Y-91742080D01*
X205994000Y-90857605D01*
X205109525Y-91742080D01*
X205169105Y-91923049D01*
X205015495Y-92025688D01*
X204801688Y-92239495D01*
X204633701Y-92490905D01*
X204517989Y-92770257D01*
X204459000Y-93066816D01*
X202449000Y-93066816D01*
X202390011Y-92770257D01*
X202274299Y-92490905D01*
X202106312Y-92239495D01*
X201892505Y-92025688D01*
X201776237Y-91948000D01*
X201892505Y-91870312D01*
X202106312Y-91656505D01*
X202274299Y-91405095D01*
X202390011Y-91125743D01*
X202449000Y-90829184D01*
X202449000Y-90744553D01*
X204453009Y-90744553D01*
X204495603Y-91043907D01*
X204595778Y-91329199D01*
X204675739Y-91478792D01*
X204929920Y-91562475D01*
X205814395Y-90678000D01*
X206173605Y-90678000D01*
X207058080Y-91562475D01*
X207312261Y-91478792D01*
X207443158Y-91206225D01*
X207518365Y-90913358D01*
X207534991Y-90611447D01*
X207492397Y-90312093D01*
X207392222Y-90026801D01*
X207312261Y-89877208D01*
X207058080Y-89793525D01*
X206173605Y-90678000D01*
X205814395Y-90678000D01*
X204929920Y-89793525D01*
X204675739Y-89877208D01*
X204544842Y-90149775D01*
X204469635Y-90442642D01*
X204453009Y-90744553D01*
X202449000Y-90744553D01*
X202449000Y-90526816D01*
X202390011Y-90230257D01*
X202274299Y-89950905D01*
X202106312Y-89699495D01*
X201892505Y-89485688D01*
X201776237Y-89408000D01*
X201892505Y-89330312D01*
X202106312Y-89116505D01*
X202274299Y-88865095D01*
X202390011Y-88585743D01*
X202449000Y-88289184D01*
X202449000Y-87986816D01*
X202390011Y-87690257D01*
X202360495Y-87618999D01*
X204397369Y-87618999D01*
X204509799Y-87731430D01*
X204459000Y-87986816D01*
X204459000Y-88289184D01*
X204517989Y-88585743D01*
X204633701Y-88865095D01*
X204801688Y-89116505D01*
X205015495Y-89330312D01*
X205169105Y-89432951D01*
X205109525Y-89613920D01*
X205994000Y-90498395D01*
X206878475Y-89613920D01*
X206818895Y-89432951D01*
X206972505Y-89330312D01*
X207186312Y-89116505D01*
X207330976Y-88900000D01*
X221824172Y-88900000D01*
X229192324Y-96268153D01*
X228915659Y-96295402D01*
X228702945Y-96359928D01*
X228314000Y-96359928D01*
X228189518Y-96372188D01*
X228069820Y-96408498D01*
X227959506Y-96467463D01*
X227862815Y-96546815D01*
X227783463Y-96643506D01*
X227724498Y-96753820D01*
X227688188Y-96873518D01*
X227675928Y-96998000D01*
X227675928Y-97090937D01*
X227616280Y-97163619D01*
X227427594Y-97516626D01*
X227311402Y-97899660D01*
X227282000Y-98198185D01*
X227282000Y-101359928D01*
X225014000Y-101359928D01*
X224889518Y-101372188D01*
X224769820Y-101408498D01*
X224659506Y-101467463D01*
X224562815Y-101546815D01*
X224483463Y-101643506D01*
X224424498Y-101753820D01*
X224388188Y-101873518D01*
X224375928Y-101998000D01*
X224375928Y-103618478D01*
X183642000Y-103631671D01*
X183642000Y-101388922D01*
X183845756Y-101252777D01*
X184056777Y-101041756D01*
X184222575Y-100793621D01*
X184336779Y-100517909D01*
X184395000Y-100225214D01*
X184395000Y-99926786D01*
X184336779Y-99634091D01*
X184222575Y-99358379D01*
X184056777Y-99110244D01*
X183845756Y-98899223D01*
X183597621Y-98733425D01*
X183321909Y-98619221D01*
X183029214Y-98561000D01*
X182730786Y-98561000D01*
X182438091Y-98619221D01*
X182162379Y-98733425D01*
X181914244Y-98899223D01*
X181703223Y-99110244D01*
X181537425Y-99358379D01*
X181423221Y-99634091D01*
X181365000Y-99926786D01*
X181365000Y-100225214D01*
X181423221Y-100517909D01*
X181537425Y-100793621D01*
X181703223Y-101041756D01*
X181914244Y-101252777D01*
X182118000Y-101388922D01*
X182118001Y-103632000D01*
X152908000Y-103632000D01*
X152908000Y-101129423D01*
X152911686Y-101092000D01*
X152908000Y-101054574D01*
X152896974Y-100942622D01*
X152853402Y-100798985D01*
X152807252Y-100712645D01*
X152782645Y-100666607D01*
X152711279Y-100579648D01*
X152687422Y-100550578D01*
X152658351Y-100526721D01*
X152597192Y-100465561D01*
X152645000Y-100225214D01*
X152645000Y-99926786D01*
X152586779Y-99634091D01*
X152472575Y-99358379D01*
X152364078Y-99196000D01*
X171201928Y-99196000D01*
X171201928Y-100956000D01*
X171214188Y-101080482D01*
X171250498Y-101200180D01*
X171309463Y-101310494D01*
X171388815Y-101407185D01*
X171485506Y-101486537D01*
X171595820Y-101545502D01*
X171715518Y-101581812D01*
X171840000Y-101594072D01*
X173600000Y-101594072D01*
X173724482Y-101581812D01*
X173844180Y-101545502D01*
X173954494Y-101486537D01*
X174051185Y-101407185D01*
X174130537Y-101310494D01*
X174189502Y-101200180D01*
X174225812Y-101080482D01*
X174238072Y-100956000D01*
X174238072Y-99196000D01*
X174225812Y-99071518D01*
X174189502Y-98951820D01*
X174130537Y-98841506D01*
X174051185Y-98744815D01*
X173954494Y-98665463D01*
X173844180Y-98606498D01*
X173724482Y-98570188D01*
X173600000Y-98557928D01*
X171840000Y-98557928D01*
X171715518Y-98570188D01*
X171595820Y-98606498D01*
X171485506Y-98665463D01*
X171388815Y-98744815D01*
X171309463Y-98841506D01*
X171250498Y-98951820D01*
X171214188Y-99071518D01*
X171201928Y-99196000D01*
X152364078Y-99196000D01*
X152306777Y-99110244D01*
X152095756Y-98899223D01*
X151847621Y-98733425D01*
X151571909Y-98619221D01*
X151279214Y-98561000D01*
X150980786Y-98561000D01*
X150688091Y-98619221D01*
X150412379Y-98733425D01*
X150164244Y-98899223D01*
X149953223Y-99110244D01*
X149787425Y-99358379D01*
X149673221Y-99634091D01*
X149615000Y-99926786D01*
X149615000Y-100225214D01*
X149673221Y-100517909D01*
X149787425Y-100793621D01*
X149953223Y-101041756D01*
X150164244Y-101252777D01*
X150412379Y-101418575D01*
X150688091Y-101532779D01*
X150980786Y-101591000D01*
X151279214Y-101591000D01*
X151384001Y-101570156D01*
X151384000Y-103632000D01*
X128020802Y-103632000D01*
X125798801Y-103621119D01*
X121626259Y-99448578D01*
X121373681Y-99196000D01*
X139451928Y-99196000D01*
X139451928Y-100956000D01*
X139464188Y-101080482D01*
X139500498Y-101200180D01*
X139559463Y-101310494D01*
X139638815Y-101407185D01*
X139735506Y-101486537D01*
X139845820Y-101545502D01*
X139965518Y-101581812D01*
X140090000Y-101594072D01*
X141850000Y-101594072D01*
X141974482Y-101581812D01*
X142094180Y-101545502D01*
X142204494Y-101486537D01*
X142301185Y-101407185D01*
X142380537Y-101310494D01*
X142439502Y-101200180D01*
X142475812Y-101080482D01*
X142488072Y-100956000D01*
X142488072Y-99196000D01*
X142475812Y-99071518D01*
X142439502Y-98951820D01*
X142380537Y-98841506D01*
X142301185Y-98744815D01*
X142204494Y-98665463D01*
X142094180Y-98606498D01*
X141974482Y-98570188D01*
X141850000Y-98557928D01*
X140090000Y-98557928D01*
X139965518Y-98570188D01*
X139845820Y-98606498D01*
X139735506Y-98665463D01*
X139638815Y-98744815D01*
X139559463Y-98841506D01*
X139500498Y-98951820D01*
X139464188Y-99071518D01*
X139451928Y-99196000D01*
X121373681Y-99196000D01*
X120746260Y-98568579D01*
X120514381Y-98378280D01*
X120161374Y-98189594D01*
X120020353Y-98146816D01*
X199379000Y-98146816D01*
X199379000Y-98449184D01*
X199437989Y-98745743D01*
X199553701Y-99025095D01*
X199721688Y-99276505D01*
X199935495Y-99490312D01*
X200186905Y-99658299D01*
X200466257Y-99774011D01*
X200762816Y-99833000D01*
X201065184Y-99833000D01*
X201361743Y-99774011D01*
X201641095Y-99658299D01*
X201892505Y-99490312D01*
X202106312Y-99276505D01*
X202274299Y-99025095D01*
X202390011Y-98745743D01*
X202449000Y-98449184D01*
X202449000Y-98146816D01*
X202390011Y-97850257D01*
X202274299Y-97570905D01*
X202158768Y-97398000D01*
X204455928Y-97398000D01*
X204455928Y-99198000D01*
X204468188Y-99322482D01*
X204504498Y-99442180D01*
X204563463Y-99552494D01*
X204642815Y-99649185D01*
X204739506Y-99728537D01*
X204849820Y-99787502D01*
X204969518Y-99823812D01*
X205094000Y-99836072D01*
X206894000Y-99836072D01*
X207018482Y-99823812D01*
X207138180Y-99787502D01*
X207248494Y-99728537D01*
X207345185Y-99649185D01*
X207387191Y-99598000D01*
X221675928Y-99598000D01*
X221688188Y-99722482D01*
X221724498Y-99842180D01*
X221783463Y-99952494D01*
X221862815Y-100049185D01*
X221959506Y-100128537D01*
X222069820Y-100187502D01*
X222189518Y-100223812D01*
X222314000Y-100236072D01*
X223028250Y-100233000D01*
X223187000Y-100074250D01*
X223187000Y-98425000D01*
X223441000Y-98425000D01*
X223441000Y-100074250D01*
X223599750Y-100233000D01*
X224314000Y-100236072D01*
X224438482Y-100223812D01*
X224558180Y-100187502D01*
X224668494Y-100128537D01*
X224765185Y-100049185D01*
X224844537Y-99952494D01*
X224903502Y-99842180D01*
X224939812Y-99722482D01*
X224952072Y-99598000D01*
X224949000Y-98583750D01*
X224790250Y-98425000D01*
X223441000Y-98425000D01*
X223187000Y-98425000D01*
X221837750Y-98425000D01*
X221679000Y-98583750D01*
X221675928Y-99598000D01*
X207387191Y-99598000D01*
X207424537Y-99552494D01*
X207483502Y-99442180D01*
X207519812Y-99322482D01*
X207532072Y-99198000D01*
X207532072Y-97398000D01*
X207519812Y-97273518D01*
X207483502Y-97153820D01*
X207424537Y-97043506D01*
X207387192Y-96998000D01*
X221675928Y-96998000D01*
X221679000Y-98012250D01*
X221837750Y-98171000D01*
X223187000Y-98171000D01*
X223187000Y-96521750D01*
X223441000Y-96521750D01*
X223441000Y-98171000D01*
X224790250Y-98171000D01*
X224949000Y-98012250D01*
X224952072Y-96998000D01*
X224939812Y-96873518D01*
X224903502Y-96753820D01*
X224844537Y-96643506D01*
X224765185Y-96546815D01*
X224668494Y-96467463D01*
X224558180Y-96408498D01*
X224438482Y-96372188D01*
X224314000Y-96359928D01*
X223599750Y-96363000D01*
X223441000Y-96521750D01*
X223187000Y-96521750D01*
X223028250Y-96363000D01*
X222314000Y-96359928D01*
X222189518Y-96372188D01*
X222069820Y-96408498D01*
X221959506Y-96467463D01*
X221862815Y-96546815D01*
X221783463Y-96643506D01*
X221724498Y-96753820D01*
X221688188Y-96873518D01*
X221675928Y-96998000D01*
X207387192Y-96998000D01*
X207345185Y-96946815D01*
X207248494Y-96867463D01*
X207138180Y-96808498D01*
X207018482Y-96772188D01*
X206894000Y-96759928D01*
X205094000Y-96759928D01*
X204969518Y-96772188D01*
X204849820Y-96808498D01*
X204739506Y-96867463D01*
X204642815Y-96946815D01*
X204563463Y-97043506D01*
X204504498Y-97153820D01*
X204468188Y-97273518D01*
X204455928Y-97398000D01*
X202158768Y-97398000D01*
X202106312Y-97319495D01*
X201892505Y-97105688D01*
X201641095Y-96937701D01*
X201361743Y-96821989D01*
X201065184Y-96763000D01*
X200762816Y-96763000D01*
X200466257Y-96821989D01*
X200186905Y-96937701D01*
X199935495Y-97105688D01*
X199721688Y-97319495D01*
X199553701Y-97570905D01*
X199437989Y-97850257D01*
X199379000Y-98146816D01*
X120020353Y-98146816D01*
X119778340Y-98073403D01*
X119380000Y-98034169D01*
X118981660Y-98073403D01*
X118853209Y-98112368D01*
X116577712Y-95836872D01*
X116545896Y-95798104D01*
X116391190Y-95671140D01*
X116214687Y-95576798D01*
X116023171Y-95518702D01*
X115873902Y-95504000D01*
X115824000Y-95499085D01*
X115774098Y-95504000D01*
X91183396Y-95504000D01*
X91084759Y-95405363D01*
X90852241Y-95250000D01*
X91084759Y-95094637D01*
X91284637Y-94894759D01*
X91441680Y-94659727D01*
X91549853Y-94398574D01*
X91605000Y-94121335D01*
X91605000Y-93838665D01*
X91549853Y-93561426D01*
X91441680Y-93300273D01*
X91284637Y-93065241D01*
X91084759Y-92865363D01*
X90852241Y-92710000D01*
X91084759Y-92554637D01*
X91284637Y-92354759D01*
X91441680Y-92119727D01*
X91549853Y-91858574D01*
X91605000Y-91581335D01*
X91605000Y-91298665D01*
X91549853Y-91021426D01*
X91441680Y-90760273D01*
X91284637Y-90525241D01*
X91084759Y-90325363D01*
X90852241Y-90170000D01*
X91084759Y-90014637D01*
X91284637Y-89814759D01*
X91441680Y-89579727D01*
X91549853Y-89318574D01*
X91605000Y-89041335D01*
X91605000Y-88758665D01*
X91549853Y-88481426D01*
X91441680Y-88220273D01*
X91284637Y-87985241D01*
X91084759Y-87785363D01*
X90852241Y-87630000D01*
X91084759Y-87474637D01*
X91284637Y-87274759D01*
X91360455Y-87161289D01*
X103230000Y-87161289D01*
X103230000Y-87590711D01*
X103313776Y-88011883D01*
X103478109Y-88408617D01*
X103716683Y-88765669D01*
X104020331Y-89069317D01*
X104377383Y-89307891D01*
X104774117Y-89472224D01*
X105195289Y-89556000D01*
X105624711Y-89556000D01*
X106045883Y-89472224D01*
X106442617Y-89307891D01*
X106799669Y-89069317D01*
X107103317Y-88765669D01*
X107341891Y-88408617D01*
X107506224Y-88011883D01*
X107590000Y-87590711D01*
X107590000Y-87161289D01*
X134980000Y-87161289D01*
X134980000Y-87590711D01*
X135063776Y-88011883D01*
X135228109Y-88408617D01*
X135466683Y-88765669D01*
X135770331Y-89069317D01*
X136127383Y-89307891D01*
X136524117Y-89472224D01*
X136945289Y-89556000D01*
X137374711Y-89556000D01*
X137795883Y-89472224D01*
X138192617Y-89307891D01*
X138549669Y-89069317D01*
X138853317Y-88765669D01*
X139091891Y-88408617D01*
X139256224Y-88011883D01*
X139340000Y-87590711D01*
X139340000Y-87161289D01*
X166730000Y-87161289D01*
X166730000Y-87590711D01*
X166813776Y-88011883D01*
X166978109Y-88408617D01*
X167216683Y-88765669D01*
X167520331Y-89069317D01*
X167877383Y-89307891D01*
X168274117Y-89472224D01*
X168695289Y-89556000D01*
X169124711Y-89556000D01*
X169545883Y-89472224D01*
X169942617Y-89307891D01*
X170299669Y-89069317D01*
X170603317Y-88765669D01*
X170841891Y-88408617D01*
X171006224Y-88011883D01*
X171090000Y-87590711D01*
X171090000Y-87161289D01*
X171006224Y-86740117D01*
X170841891Y-86343383D01*
X170603317Y-85986331D01*
X170299669Y-85682683D01*
X169942617Y-85444109D01*
X169545883Y-85279776D01*
X169124711Y-85196000D01*
X168695289Y-85196000D01*
X168274117Y-85279776D01*
X167877383Y-85444109D01*
X167520331Y-85682683D01*
X167216683Y-85986331D01*
X166978109Y-86343383D01*
X166813776Y-86740117D01*
X166730000Y-87161289D01*
X139340000Y-87161289D01*
X139256224Y-86740117D01*
X139091891Y-86343383D01*
X138853317Y-85986331D01*
X138549669Y-85682683D01*
X138192617Y-85444109D01*
X137795883Y-85279776D01*
X137374711Y-85196000D01*
X136945289Y-85196000D01*
X136524117Y-85279776D01*
X136127383Y-85444109D01*
X135770331Y-85682683D01*
X135466683Y-85986331D01*
X135228109Y-86343383D01*
X135063776Y-86740117D01*
X134980000Y-87161289D01*
X107590000Y-87161289D01*
X107506224Y-86740117D01*
X107341891Y-86343383D01*
X107103317Y-85986331D01*
X106799669Y-85682683D01*
X106442617Y-85444109D01*
X106045883Y-85279776D01*
X105624711Y-85196000D01*
X105195289Y-85196000D01*
X104774117Y-85279776D01*
X104377383Y-85444109D01*
X104020331Y-85682683D01*
X103716683Y-85986331D01*
X103478109Y-86343383D01*
X103313776Y-86740117D01*
X103230000Y-87161289D01*
X91360455Y-87161289D01*
X91441680Y-87039727D01*
X91549853Y-86778574D01*
X91605000Y-86501335D01*
X91605000Y-86218665D01*
X91549853Y-85941426D01*
X91441680Y-85680273D01*
X91284637Y-85445241D01*
X91084759Y-85245363D01*
X90852241Y-85090000D01*
X91084759Y-84934637D01*
X91284637Y-84734759D01*
X91367035Y-84611440D01*
X120910000Y-84611440D01*
X120910000Y-85060560D01*
X120997619Y-85501051D01*
X121169490Y-85915985D01*
X121419008Y-86289415D01*
X121736585Y-86606992D01*
X122110015Y-86856510D01*
X122524949Y-87028381D01*
X122965440Y-87116000D01*
X123414560Y-87116000D01*
X123855051Y-87028381D01*
X124269985Y-86856510D01*
X124643415Y-86606992D01*
X124960992Y-86289415D01*
X125210510Y-85915985D01*
X125382381Y-85501051D01*
X125470000Y-85060560D01*
X125470000Y-84611440D01*
X152660000Y-84611440D01*
X152660000Y-85060560D01*
X152747619Y-85501051D01*
X152919490Y-85915985D01*
X153169008Y-86289415D01*
X153486585Y-86606992D01*
X153860015Y-86856510D01*
X154274949Y-87028381D01*
X154715440Y-87116000D01*
X155164560Y-87116000D01*
X155605051Y-87028381D01*
X156019985Y-86856510D01*
X156393415Y-86606992D01*
X156710992Y-86289415D01*
X156960510Y-85915985D01*
X157132381Y-85501051D01*
X157220000Y-85060560D01*
X157220000Y-84611440D01*
X184410000Y-84611440D01*
X184410000Y-85060560D01*
X184497619Y-85501051D01*
X184669490Y-85915985D01*
X184919008Y-86289415D01*
X185236585Y-86606992D01*
X185610015Y-86856510D01*
X186024949Y-87028381D01*
X186465440Y-87116000D01*
X186914560Y-87116000D01*
X187355051Y-87028381D01*
X187769985Y-86856510D01*
X188143415Y-86606992D01*
X188460992Y-86289415D01*
X188710510Y-85915985D01*
X188882381Y-85501051D01*
X188970000Y-85060560D01*
X188970000Y-84611440D01*
X188882381Y-84170949D01*
X188710510Y-83756015D01*
X188460992Y-83382585D01*
X188143415Y-83065008D01*
X187769985Y-82815490D01*
X187355051Y-82643619D01*
X186914560Y-82556000D01*
X186465440Y-82556000D01*
X186024949Y-82643619D01*
X185610015Y-82815490D01*
X185236585Y-83065008D01*
X184919008Y-83382585D01*
X184669490Y-83756015D01*
X184497619Y-84170949D01*
X184410000Y-84611440D01*
X157220000Y-84611440D01*
X157132381Y-84170949D01*
X156960510Y-83756015D01*
X156710992Y-83382585D01*
X156393415Y-83065008D01*
X156019985Y-82815490D01*
X155605051Y-82643619D01*
X155164560Y-82556000D01*
X154715440Y-82556000D01*
X154274949Y-82643619D01*
X153860015Y-82815490D01*
X153486585Y-83065008D01*
X153169008Y-83382585D01*
X152919490Y-83756015D01*
X152747619Y-84170949D01*
X152660000Y-84611440D01*
X125470000Y-84611440D01*
X125382381Y-84170949D01*
X125210510Y-83756015D01*
X124960992Y-83382585D01*
X124643415Y-83065008D01*
X124269985Y-82815490D01*
X123855051Y-82643619D01*
X123414560Y-82556000D01*
X122965440Y-82556000D01*
X122524949Y-82643619D01*
X122110015Y-82815490D01*
X121736585Y-83065008D01*
X121419008Y-83382585D01*
X121169490Y-83756015D01*
X120997619Y-84170949D01*
X120910000Y-84611440D01*
X91367035Y-84611440D01*
X91441680Y-84499727D01*
X91549853Y-84238574D01*
X91605000Y-83961335D01*
X91605000Y-83678665D01*
X91549853Y-83401426D01*
X91441680Y-83140273D01*
X91284637Y-82905241D01*
X91084759Y-82705363D01*
X90852241Y-82550000D01*
X91084759Y-82394637D01*
X91284637Y-82194759D01*
X91441680Y-81959727D01*
X91549853Y-81698574D01*
X91605000Y-81421335D01*
X91605000Y-81138665D01*
X91549853Y-80861426D01*
X91441680Y-80600273D01*
X91284637Y-80365241D01*
X91084759Y-80165363D01*
X90852241Y-80010000D01*
X91084759Y-79854637D01*
X91284637Y-79654759D01*
X91441680Y-79419727D01*
X91549853Y-79158574D01*
X91605000Y-78881335D01*
X91605000Y-78598665D01*
X91549853Y-78321426D01*
X91441680Y-78060273D01*
X91284637Y-77825241D01*
X91084759Y-77625363D01*
X90849727Y-77468320D01*
X90588574Y-77360147D01*
X90311335Y-77305000D01*
X90028665Y-77305000D01*
X89751426Y-77360147D01*
X89490273Y-77468320D01*
X89255241Y-77625363D01*
X89055363Y-77825241D01*
X88898320Y-78060273D01*
X88790147Y-78321426D01*
X88735000Y-78598665D01*
X83988072Y-78598665D01*
X83988072Y-77940000D01*
X83975812Y-77815518D01*
X83939502Y-77695820D01*
X83880537Y-77585506D01*
X83801185Y-77488815D01*
X83704494Y-77409463D01*
X83594180Y-77350498D01*
X83474482Y-77314188D01*
X83350000Y-77301928D01*
X81750000Y-77301928D01*
X81625518Y-77314188D01*
X81505820Y-77350498D01*
X81395506Y-77409463D01*
X81298815Y-77488815D01*
X81219463Y-77585506D01*
X81160498Y-77695820D01*
X81124188Y-77815518D01*
X81111928Y-77940000D01*
X70711381Y-77940000D01*
X70731474Y-77891492D01*
X70787005Y-77612321D01*
X70787005Y-77327679D01*
X70731474Y-77048508D01*
X70622547Y-76785533D01*
X70464409Y-76548863D01*
X70263137Y-76347591D01*
X70042252Y-76200000D01*
X70263137Y-76052409D01*
X70464409Y-75851137D01*
X70622547Y-75614467D01*
X70731474Y-75351492D01*
X70787005Y-75072321D01*
X70787005Y-74787679D01*
X70731474Y-74508508D01*
X70622547Y-74245533D01*
X70464409Y-74008863D01*
X70263137Y-73807591D01*
X70026467Y-73649453D01*
X69763492Y-73540526D01*
X69484321Y-73484995D01*
X69199679Y-73484995D01*
X68920508Y-73540526D01*
X68657533Y-73649453D01*
X68420863Y-73807591D01*
X68219591Y-74008863D01*
X68072000Y-74229748D01*
X67924409Y-74008863D01*
X67723137Y-73807591D01*
X67486467Y-73649453D01*
X67223492Y-73540526D01*
X66944321Y-73484995D01*
X66659679Y-73484995D01*
X66380508Y-73540526D01*
X66117533Y-73649453D01*
X65880863Y-73807591D01*
X65679591Y-74008863D01*
X65521453Y-74245533D01*
X65412526Y-74508508D01*
X65356995Y-74787679D01*
X64366321Y-74787679D01*
X64393622Y-66870344D01*
X110971000Y-66870344D01*
X110971000Y-67241656D01*
X111043439Y-67605834D01*
X111185534Y-67948882D01*
X111391825Y-68257618D01*
X111654382Y-68520175D01*
X111963118Y-68726466D01*
X112306166Y-68868561D01*
X112670344Y-68941000D01*
X113041656Y-68941000D01*
X113405834Y-68868561D01*
X113748882Y-68726466D01*
X114057618Y-68520175D01*
X114320175Y-68257618D01*
X114526466Y-67948882D01*
X114668561Y-67605834D01*
X114741000Y-67241656D01*
X114741000Y-66870344D01*
X114668561Y-66506166D01*
X114526466Y-66163118D01*
X114320175Y-65854382D01*
X114271793Y-65806000D01*
X115967928Y-65806000D01*
X115967928Y-68306000D01*
X115980188Y-68430482D01*
X116016498Y-68550180D01*
X116075463Y-68660494D01*
X116154815Y-68757185D01*
X116251506Y-68836537D01*
X116361820Y-68895502D01*
X116481518Y-68931812D01*
X116606000Y-68944072D01*
X119106000Y-68944072D01*
X119230482Y-68931812D01*
X119350180Y-68895502D01*
X119460494Y-68836537D01*
X119557185Y-68757185D01*
X119636537Y-68660494D01*
X119695502Y-68550180D01*
X119731812Y-68430482D01*
X119744072Y-68306000D01*
X119744072Y-67124344D01*
X142721000Y-67124344D01*
X142721000Y-67495656D01*
X142793439Y-67859834D01*
X142935534Y-68202882D01*
X143141825Y-68511618D01*
X143404382Y-68774175D01*
X143713118Y-68980466D01*
X144056166Y-69122561D01*
X144420344Y-69195000D01*
X144791656Y-69195000D01*
X145155834Y-69122561D01*
X145498882Y-68980466D01*
X145807618Y-68774175D01*
X146070175Y-68511618D01*
X146276466Y-68202882D01*
X146418561Y-67859834D01*
X146491000Y-67495656D01*
X146491000Y-67124344D01*
X146418561Y-66760166D01*
X146276466Y-66417118D01*
X146070175Y-66108382D01*
X146021793Y-66060000D01*
X147717928Y-66060000D01*
X147717928Y-68560000D01*
X147730188Y-68684482D01*
X147766498Y-68804180D01*
X147825463Y-68914494D01*
X147904815Y-69011185D01*
X148001506Y-69090537D01*
X148111820Y-69149502D01*
X148231518Y-69185812D01*
X148356000Y-69198072D01*
X150856000Y-69198072D01*
X150980482Y-69185812D01*
X151100180Y-69149502D01*
X151210494Y-69090537D01*
X151307185Y-69011185D01*
X151386537Y-68914494D01*
X151445502Y-68804180D01*
X151481812Y-68684482D01*
X151494072Y-68560000D01*
X151494072Y-66870344D01*
X174217000Y-66870344D01*
X174217000Y-67241656D01*
X174289439Y-67605834D01*
X174431534Y-67948882D01*
X174637825Y-68257618D01*
X174900382Y-68520175D01*
X175209118Y-68726466D01*
X175552166Y-68868561D01*
X175916344Y-68941000D01*
X176287656Y-68941000D01*
X176651834Y-68868561D01*
X176994882Y-68726466D01*
X177303618Y-68520175D01*
X177566175Y-68257618D01*
X177772466Y-67948882D01*
X177914561Y-67605834D01*
X177987000Y-67241656D01*
X177987000Y-66870344D01*
X177914561Y-66506166D01*
X177772466Y-66163118D01*
X177566175Y-65854382D01*
X177517793Y-65806000D01*
X179213928Y-65806000D01*
X179213928Y-68306000D01*
X179226188Y-68430482D01*
X179262498Y-68550180D01*
X179321463Y-68660494D01*
X179400815Y-68757185D01*
X179497506Y-68836537D01*
X179607820Y-68895502D01*
X179727518Y-68931812D01*
X179852000Y-68944072D01*
X182352000Y-68944072D01*
X182476482Y-68931812D01*
X182596180Y-68895502D01*
X182706494Y-68836537D01*
X182803185Y-68757185D01*
X182882537Y-68660494D01*
X182941502Y-68550180D01*
X182977812Y-68430482D01*
X182990072Y-68306000D01*
X182990072Y-65806000D01*
X182977812Y-65681518D01*
X182941502Y-65561820D01*
X182882537Y-65451506D01*
X182803185Y-65354815D01*
X182706494Y-65275463D01*
X182596180Y-65216498D01*
X182476482Y-65180188D01*
X182352000Y-65167928D01*
X179852000Y-65167928D01*
X179727518Y-65180188D01*
X179607820Y-65216498D01*
X179497506Y-65275463D01*
X179400815Y-65354815D01*
X179321463Y-65451506D01*
X179262498Y-65561820D01*
X179226188Y-65681518D01*
X179213928Y-65806000D01*
X177517793Y-65806000D01*
X177303618Y-65591825D01*
X176994882Y-65385534D01*
X176651834Y-65243439D01*
X176287656Y-65171000D01*
X175916344Y-65171000D01*
X175552166Y-65243439D01*
X175209118Y-65385534D01*
X174900382Y-65591825D01*
X174637825Y-65854382D01*
X174431534Y-66163118D01*
X174289439Y-66506166D01*
X174217000Y-66870344D01*
X151494072Y-66870344D01*
X151494072Y-66060000D01*
X151481812Y-65935518D01*
X151445502Y-65815820D01*
X151386537Y-65705506D01*
X151307185Y-65608815D01*
X151210494Y-65529463D01*
X151100180Y-65470498D01*
X150980482Y-65434188D01*
X150856000Y-65421928D01*
X148356000Y-65421928D01*
X148231518Y-65434188D01*
X148111820Y-65470498D01*
X148001506Y-65529463D01*
X147904815Y-65608815D01*
X147825463Y-65705506D01*
X147766498Y-65815820D01*
X147730188Y-65935518D01*
X147717928Y-66060000D01*
X146021793Y-66060000D01*
X145807618Y-65845825D01*
X145498882Y-65639534D01*
X145155834Y-65497439D01*
X144791656Y-65425000D01*
X144420344Y-65425000D01*
X144056166Y-65497439D01*
X143713118Y-65639534D01*
X143404382Y-65845825D01*
X143141825Y-66108382D01*
X142935534Y-66417118D01*
X142793439Y-66760166D01*
X142721000Y-67124344D01*
X119744072Y-67124344D01*
X119744072Y-65806000D01*
X119731812Y-65681518D01*
X119695502Y-65561820D01*
X119636537Y-65451506D01*
X119557185Y-65354815D01*
X119460494Y-65275463D01*
X119350180Y-65216498D01*
X119230482Y-65180188D01*
X119106000Y-65167928D01*
X116606000Y-65167928D01*
X116481518Y-65180188D01*
X116361820Y-65216498D01*
X116251506Y-65275463D01*
X116154815Y-65354815D01*
X116075463Y-65451506D01*
X116016498Y-65561820D01*
X115980188Y-65681518D01*
X115967928Y-65806000D01*
X114271793Y-65806000D01*
X114057618Y-65591825D01*
X113748882Y-65385534D01*
X113405834Y-65243439D01*
X113041656Y-65171000D01*
X112670344Y-65171000D01*
X112306166Y-65243439D01*
X111963118Y-65385534D01*
X111654382Y-65591825D01*
X111391825Y-65854382D01*
X111185534Y-66163118D01*
X111043439Y-66506166D01*
X110971000Y-66870344D01*
X64393622Y-66870344D01*
X64411727Y-61620000D01*
X233271721Y-61620000D01*
X233022273Y-133960000D01*
M02*
