G04 #@! TF.GenerationSoftware,KiCad,Pcbnew,5.1.5-52549c5~84~ubuntu18.04.1*
G04 #@! TF.CreationDate,2020-02-03T16:06:42-05:00*
G04 #@! TF.ProjectId,cropdroid-reservoir,63726f70-6472-46f6-9964-2d7265736572,v1*
G04 #@! TF.SameCoordinates,Original*
G04 #@! TF.FileFunction,Legend,Top*
G04 #@! TF.FilePolarity,Positive*
%FSLAX46Y46*%
G04 Gerber Fmt 4.6, Leading zero omitted, Abs format (unit mm)*
G04 Created by KiCad (PCBNEW 5.1.5-52549c5~84~ubuntu18.04.1) date 2020-02-03 16:06:42*
%MOMM*%
%LPD*%
G04 APERTURE LIST*
%ADD10C,0.150000*%
%ADD11C,0.010000*%
%ADD12C,0.120000*%
%ADD13C,0.100000*%
%ADD14C,0.200000*%
%ADD15C,0.152400*%
%ADD16C,0.015000*%
G04 APERTURE END LIST*
D10*
X196350285Y-116244666D02*
X196826476Y-116244666D01*
X196255047Y-116530380D02*
X196588380Y-115530380D01*
X196921714Y-116530380D01*
X197255047Y-115863714D02*
X197255047Y-116530380D01*
X197255047Y-115958952D02*
X197302666Y-115911333D01*
X197397904Y-115863714D01*
X197540761Y-115863714D01*
X197636000Y-115911333D01*
X197683619Y-116006571D01*
X197683619Y-116530380D01*
X198588380Y-116530380D02*
X198588380Y-116006571D01*
X198540761Y-115911333D01*
X198445523Y-115863714D01*
X198255047Y-115863714D01*
X198159809Y-115911333D01*
X198588380Y-116482761D02*
X198493142Y-116530380D01*
X198255047Y-116530380D01*
X198159809Y-116482761D01*
X198112190Y-116387523D01*
X198112190Y-116292285D01*
X198159809Y-116197047D01*
X198255047Y-116149428D01*
X198493142Y-116149428D01*
X198588380Y-116101809D01*
X199207428Y-116530380D02*
X199112190Y-116482761D01*
X199064571Y-116387523D01*
X199064571Y-115530380D01*
X199731238Y-116530380D02*
X199636000Y-116482761D01*
X199588380Y-116435142D01*
X199540761Y-116339904D01*
X199540761Y-116054190D01*
X199588380Y-115958952D01*
X199636000Y-115911333D01*
X199731238Y-115863714D01*
X199874095Y-115863714D01*
X199969333Y-115911333D01*
X200016952Y-115958952D01*
X200064571Y-116054190D01*
X200064571Y-116339904D01*
X200016952Y-116435142D01*
X199969333Y-116482761D01*
X199874095Y-116530380D01*
X199731238Y-116530380D01*
X200921714Y-115863714D02*
X200921714Y-116673238D01*
X200874095Y-116768476D01*
X200826476Y-116816095D01*
X200731238Y-116863714D01*
X200588380Y-116863714D01*
X200493142Y-116816095D01*
X200921714Y-116482761D02*
X200826476Y-116530380D01*
X200636000Y-116530380D01*
X200540761Y-116482761D01*
X200493142Y-116435142D01*
X200445523Y-116339904D01*
X200445523Y-116054190D01*
X200493142Y-115958952D01*
X200540761Y-115911333D01*
X200636000Y-115863714D01*
X200826476Y-115863714D01*
X200921714Y-115911333D01*
X201921714Y-116530380D02*
X201350285Y-116530380D01*
X201636000Y-116530380D02*
X201636000Y-115530380D01*
X201540761Y-115673238D01*
X201445523Y-115768476D01*
X201350285Y-115816095D01*
X179332285Y-116244666D02*
X179808476Y-116244666D01*
X179237047Y-116530380D02*
X179570380Y-115530380D01*
X179903714Y-116530380D01*
X180237047Y-115863714D02*
X180237047Y-116530380D01*
X180237047Y-115958952D02*
X180284666Y-115911333D01*
X180379904Y-115863714D01*
X180522761Y-115863714D01*
X180618000Y-115911333D01*
X180665619Y-116006571D01*
X180665619Y-116530380D01*
X181570380Y-116530380D02*
X181570380Y-116006571D01*
X181522761Y-115911333D01*
X181427523Y-115863714D01*
X181237047Y-115863714D01*
X181141809Y-115911333D01*
X181570380Y-116482761D02*
X181475142Y-116530380D01*
X181237047Y-116530380D01*
X181141809Y-116482761D01*
X181094190Y-116387523D01*
X181094190Y-116292285D01*
X181141809Y-116197047D01*
X181237047Y-116149428D01*
X181475142Y-116149428D01*
X181570380Y-116101809D01*
X182189428Y-116530380D02*
X182094190Y-116482761D01*
X182046571Y-116387523D01*
X182046571Y-115530380D01*
X182713238Y-116530380D02*
X182618000Y-116482761D01*
X182570380Y-116435142D01*
X182522761Y-116339904D01*
X182522761Y-116054190D01*
X182570380Y-115958952D01*
X182618000Y-115911333D01*
X182713238Y-115863714D01*
X182856095Y-115863714D01*
X182951333Y-115911333D01*
X182998952Y-115958952D01*
X183046571Y-116054190D01*
X183046571Y-116339904D01*
X182998952Y-116435142D01*
X182951333Y-116482761D01*
X182856095Y-116530380D01*
X182713238Y-116530380D01*
X183903714Y-115863714D02*
X183903714Y-116673238D01*
X183856095Y-116768476D01*
X183808476Y-116816095D01*
X183713238Y-116863714D01*
X183570380Y-116863714D01*
X183475142Y-116816095D01*
X183903714Y-116482761D02*
X183808476Y-116530380D01*
X183618000Y-116530380D01*
X183522761Y-116482761D01*
X183475142Y-116435142D01*
X183427523Y-116339904D01*
X183427523Y-116054190D01*
X183475142Y-115958952D01*
X183522761Y-115911333D01*
X183618000Y-115863714D01*
X183808476Y-115863714D01*
X183903714Y-115911333D01*
X184570380Y-115530380D02*
X184665619Y-115530380D01*
X184760857Y-115578000D01*
X184808476Y-115625619D01*
X184856095Y-115720857D01*
X184903714Y-115911333D01*
X184903714Y-116149428D01*
X184856095Y-116339904D01*
X184808476Y-116435142D01*
X184760857Y-116482761D01*
X184665619Y-116530380D01*
X184570380Y-116530380D01*
X184475142Y-116482761D01*
X184427523Y-116435142D01*
X184379904Y-116339904D01*
X184332285Y-116149428D01*
X184332285Y-115911333D01*
X184379904Y-115720857D01*
X184427523Y-115625619D01*
X184475142Y-115578000D01*
X184570380Y-115530380D01*
X155194380Y-116435142D02*
X155146761Y-116482761D01*
X155003904Y-116530380D01*
X154908666Y-116530380D01*
X154765809Y-116482761D01*
X154670571Y-116387523D01*
X154622952Y-116292285D01*
X154575333Y-116101809D01*
X154575333Y-115958952D01*
X154622952Y-115768476D01*
X154670571Y-115673238D01*
X154765809Y-115578000D01*
X154908666Y-115530380D01*
X155003904Y-115530380D01*
X155146761Y-115578000D01*
X155194380Y-115625619D01*
X155622952Y-116530380D02*
X155622952Y-115530380D01*
X156051523Y-116530380D02*
X156051523Y-116006571D01*
X156003904Y-115911333D01*
X155908666Y-115863714D01*
X155765809Y-115863714D01*
X155670571Y-115911333D01*
X155622952Y-115958952D01*
X156956285Y-116530380D02*
X156956285Y-116006571D01*
X156908666Y-115911333D01*
X156813428Y-115863714D01*
X156622952Y-115863714D01*
X156527714Y-115911333D01*
X156956285Y-116482761D02*
X156861047Y-116530380D01*
X156622952Y-116530380D01*
X156527714Y-116482761D01*
X156480095Y-116387523D01*
X156480095Y-116292285D01*
X156527714Y-116197047D01*
X156622952Y-116149428D01*
X156861047Y-116149428D01*
X156956285Y-116101809D01*
X157432476Y-115863714D02*
X157432476Y-116530380D01*
X157432476Y-115958952D02*
X157480095Y-115911333D01*
X157575333Y-115863714D01*
X157718190Y-115863714D01*
X157813428Y-115911333D01*
X157861047Y-116006571D01*
X157861047Y-116530380D01*
X158337238Y-115863714D02*
X158337238Y-116530380D01*
X158337238Y-115958952D02*
X158384857Y-115911333D01*
X158480095Y-115863714D01*
X158622952Y-115863714D01*
X158718190Y-115911333D01*
X158765809Y-116006571D01*
X158765809Y-116530380D01*
X159622952Y-116482761D02*
X159527714Y-116530380D01*
X159337238Y-116530380D01*
X159242000Y-116482761D01*
X159194380Y-116387523D01*
X159194380Y-116006571D01*
X159242000Y-115911333D01*
X159337238Y-115863714D01*
X159527714Y-115863714D01*
X159622952Y-115911333D01*
X159670571Y-116006571D01*
X159670571Y-116101809D01*
X159194380Y-116197047D01*
X160242000Y-116530380D02*
X160146761Y-116482761D01*
X160099142Y-116387523D01*
X160099142Y-115530380D01*
X161813428Y-115530380D02*
X161622952Y-115530380D01*
X161527714Y-115578000D01*
X161480095Y-115625619D01*
X161384857Y-115768476D01*
X161337238Y-115958952D01*
X161337238Y-116339904D01*
X161384857Y-116435142D01*
X161432476Y-116482761D01*
X161527714Y-116530380D01*
X161718190Y-116530380D01*
X161813428Y-116482761D01*
X161861047Y-116435142D01*
X161908666Y-116339904D01*
X161908666Y-116101809D01*
X161861047Y-116006571D01*
X161813428Y-115958952D01*
X161718190Y-115911333D01*
X161527714Y-115911333D01*
X161432476Y-115958952D01*
X161384857Y-116006571D01*
X161337238Y-116101809D01*
X139700380Y-116435142D02*
X139652761Y-116482761D01*
X139509904Y-116530380D01*
X139414666Y-116530380D01*
X139271809Y-116482761D01*
X139176571Y-116387523D01*
X139128952Y-116292285D01*
X139081333Y-116101809D01*
X139081333Y-115958952D01*
X139128952Y-115768476D01*
X139176571Y-115673238D01*
X139271809Y-115578000D01*
X139414666Y-115530380D01*
X139509904Y-115530380D01*
X139652761Y-115578000D01*
X139700380Y-115625619D01*
X140128952Y-116530380D02*
X140128952Y-115530380D01*
X140557523Y-116530380D02*
X140557523Y-116006571D01*
X140509904Y-115911333D01*
X140414666Y-115863714D01*
X140271809Y-115863714D01*
X140176571Y-115911333D01*
X140128952Y-115958952D01*
X141462285Y-116530380D02*
X141462285Y-116006571D01*
X141414666Y-115911333D01*
X141319428Y-115863714D01*
X141128952Y-115863714D01*
X141033714Y-115911333D01*
X141462285Y-116482761D02*
X141367047Y-116530380D01*
X141128952Y-116530380D01*
X141033714Y-116482761D01*
X140986095Y-116387523D01*
X140986095Y-116292285D01*
X141033714Y-116197047D01*
X141128952Y-116149428D01*
X141367047Y-116149428D01*
X141462285Y-116101809D01*
X141938476Y-115863714D02*
X141938476Y-116530380D01*
X141938476Y-115958952D02*
X141986095Y-115911333D01*
X142081333Y-115863714D01*
X142224190Y-115863714D01*
X142319428Y-115911333D01*
X142367047Y-116006571D01*
X142367047Y-116530380D01*
X142843238Y-115863714D02*
X142843238Y-116530380D01*
X142843238Y-115958952D02*
X142890857Y-115911333D01*
X142986095Y-115863714D01*
X143128952Y-115863714D01*
X143224190Y-115911333D01*
X143271809Y-116006571D01*
X143271809Y-116530380D01*
X144128952Y-116482761D02*
X144033714Y-116530380D01*
X143843238Y-116530380D01*
X143748000Y-116482761D01*
X143700380Y-116387523D01*
X143700380Y-116006571D01*
X143748000Y-115911333D01*
X143843238Y-115863714D01*
X144033714Y-115863714D01*
X144128952Y-115911333D01*
X144176571Y-116006571D01*
X144176571Y-116101809D01*
X143700380Y-116197047D01*
X144748000Y-116530380D02*
X144652761Y-116482761D01*
X144605142Y-116387523D01*
X144605142Y-115530380D01*
X146367047Y-115530380D02*
X145890857Y-115530380D01*
X145843238Y-116006571D01*
X145890857Y-115958952D01*
X145986095Y-115911333D01*
X146224190Y-115911333D01*
X146319428Y-115958952D01*
X146367047Y-116006571D01*
X146414666Y-116101809D01*
X146414666Y-116339904D01*
X146367047Y-116435142D01*
X146319428Y-116482761D01*
X146224190Y-116530380D01*
X145986095Y-116530380D01*
X145890857Y-116482761D01*
X145843238Y-116435142D01*
X165608380Y-67159142D02*
X165560761Y-67206761D01*
X165417904Y-67254380D01*
X165322666Y-67254380D01*
X165179809Y-67206761D01*
X165084571Y-67111523D01*
X165036952Y-67016285D01*
X164989333Y-66825809D01*
X164989333Y-66682952D01*
X165036952Y-66492476D01*
X165084571Y-66397238D01*
X165179809Y-66302000D01*
X165322666Y-66254380D01*
X165417904Y-66254380D01*
X165560761Y-66302000D01*
X165608380Y-66349619D01*
X166036952Y-67254380D02*
X166036952Y-66254380D01*
X166465523Y-67254380D02*
X166465523Y-66730571D01*
X166417904Y-66635333D01*
X166322666Y-66587714D01*
X166179809Y-66587714D01*
X166084571Y-66635333D01*
X166036952Y-66682952D01*
X167370285Y-67254380D02*
X167370285Y-66730571D01*
X167322666Y-66635333D01*
X167227428Y-66587714D01*
X167036952Y-66587714D01*
X166941714Y-66635333D01*
X167370285Y-67206761D02*
X167275047Y-67254380D01*
X167036952Y-67254380D01*
X166941714Y-67206761D01*
X166894095Y-67111523D01*
X166894095Y-67016285D01*
X166941714Y-66921047D01*
X167036952Y-66873428D01*
X167275047Y-66873428D01*
X167370285Y-66825809D01*
X167846476Y-66587714D02*
X167846476Y-67254380D01*
X167846476Y-66682952D02*
X167894095Y-66635333D01*
X167989333Y-66587714D01*
X168132190Y-66587714D01*
X168227428Y-66635333D01*
X168275047Y-66730571D01*
X168275047Y-67254380D01*
X168751238Y-66587714D02*
X168751238Y-67254380D01*
X168751238Y-66682952D02*
X168798857Y-66635333D01*
X168894095Y-66587714D01*
X169036952Y-66587714D01*
X169132190Y-66635333D01*
X169179809Y-66730571D01*
X169179809Y-67254380D01*
X170036952Y-67206761D02*
X169941714Y-67254380D01*
X169751238Y-67254380D01*
X169656000Y-67206761D01*
X169608380Y-67111523D01*
X169608380Y-66730571D01*
X169656000Y-66635333D01*
X169751238Y-66587714D01*
X169941714Y-66587714D01*
X170036952Y-66635333D01*
X170084571Y-66730571D01*
X170084571Y-66825809D01*
X169608380Y-66921047D01*
X170656000Y-67254380D02*
X170560761Y-67206761D01*
X170513142Y-67111523D01*
X170513142Y-66254380D01*
X171703619Y-66254380D02*
X172322666Y-66254380D01*
X171989333Y-66635333D01*
X172132190Y-66635333D01*
X172227428Y-66682952D01*
X172275047Y-66730571D01*
X172322666Y-66825809D01*
X172322666Y-67063904D01*
X172275047Y-67159142D01*
X172227428Y-67206761D01*
X172132190Y-67254380D01*
X171846476Y-67254380D01*
X171751238Y-67206761D01*
X171703619Y-67159142D01*
X134112380Y-67159142D02*
X134064761Y-67206761D01*
X133921904Y-67254380D01*
X133826666Y-67254380D01*
X133683809Y-67206761D01*
X133588571Y-67111523D01*
X133540952Y-67016285D01*
X133493333Y-66825809D01*
X133493333Y-66682952D01*
X133540952Y-66492476D01*
X133588571Y-66397238D01*
X133683809Y-66302000D01*
X133826666Y-66254380D01*
X133921904Y-66254380D01*
X134064761Y-66302000D01*
X134112380Y-66349619D01*
X134540952Y-67254380D02*
X134540952Y-66254380D01*
X134969523Y-67254380D02*
X134969523Y-66730571D01*
X134921904Y-66635333D01*
X134826666Y-66587714D01*
X134683809Y-66587714D01*
X134588571Y-66635333D01*
X134540952Y-66682952D01*
X135874285Y-67254380D02*
X135874285Y-66730571D01*
X135826666Y-66635333D01*
X135731428Y-66587714D01*
X135540952Y-66587714D01*
X135445714Y-66635333D01*
X135874285Y-67206761D02*
X135779047Y-67254380D01*
X135540952Y-67254380D01*
X135445714Y-67206761D01*
X135398095Y-67111523D01*
X135398095Y-67016285D01*
X135445714Y-66921047D01*
X135540952Y-66873428D01*
X135779047Y-66873428D01*
X135874285Y-66825809D01*
X136350476Y-66587714D02*
X136350476Y-67254380D01*
X136350476Y-66682952D02*
X136398095Y-66635333D01*
X136493333Y-66587714D01*
X136636190Y-66587714D01*
X136731428Y-66635333D01*
X136779047Y-66730571D01*
X136779047Y-67254380D01*
X137255238Y-66587714D02*
X137255238Y-67254380D01*
X137255238Y-66682952D02*
X137302857Y-66635333D01*
X137398095Y-66587714D01*
X137540952Y-66587714D01*
X137636190Y-66635333D01*
X137683809Y-66730571D01*
X137683809Y-67254380D01*
X138540952Y-67206761D02*
X138445714Y-67254380D01*
X138255238Y-67254380D01*
X138160000Y-67206761D01*
X138112380Y-67111523D01*
X138112380Y-66730571D01*
X138160000Y-66635333D01*
X138255238Y-66587714D01*
X138445714Y-66587714D01*
X138540952Y-66635333D01*
X138588571Y-66730571D01*
X138588571Y-66825809D01*
X138112380Y-66921047D01*
X139160000Y-67254380D02*
X139064761Y-67206761D01*
X139017142Y-67111523D01*
X139017142Y-66254380D01*
X140255238Y-66349619D02*
X140302857Y-66302000D01*
X140398095Y-66254380D01*
X140636190Y-66254380D01*
X140731428Y-66302000D01*
X140779047Y-66349619D01*
X140826666Y-66444857D01*
X140826666Y-66540095D01*
X140779047Y-66682952D01*
X140207619Y-67254380D01*
X140826666Y-67254380D01*
X101854380Y-67159142D02*
X101806761Y-67206761D01*
X101663904Y-67254380D01*
X101568666Y-67254380D01*
X101425809Y-67206761D01*
X101330571Y-67111523D01*
X101282952Y-67016285D01*
X101235333Y-66825809D01*
X101235333Y-66682952D01*
X101282952Y-66492476D01*
X101330571Y-66397238D01*
X101425809Y-66302000D01*
X101568666Y-66254380D01*
X101663904Y-66254380D01*
X101806761Y-66302000D01*
X101854380Y-66349619D01*
X102282952Y-67254380D02*
X102282952Y-66254380D01*
X102711523Y-67254380D02*
X102711523Y-66730571D01*
X102663904Y-66635333D01*
X102568666Y-66587714D01*
X102425809Y-66587714D01*
X102330571Y-66635333D01*
X102282952Y-66682952D01*
X103616285Y-67254380D02*
X103616285Y-66730571D01*
X103568666Y-66635333D01*
X103473428Y-66587714D01*
X103282952Y-66587714D01*
X103187714Y-66635333D01*
X103616285Y-67206761D02*
X103521047Y-67254380D01*
X103282952Y-67254380D01*
X103187714Y-67206761D01*
X103140095Y-67111523D01*
X103140095Y-67016285D01*
X103187714Y-66921047D01*
X103282952Y-66873428D01*
X103521047Y-66873428D01*
X103616285Y-66825809D01*
X104092476Y-66587714D02*
X104092476Y-67254380D01*
X104092476Y-66682952D02*
X104140095Y-66635333D01*
X104235333Y-66587714D01*
X104378190Y-66587714D01*
X104473428Y-66635333D01*
X104521047Y-66730571D01*
X104521047Y-67254380D01*
X104997238Y-66587714D02*
X104997238Y-67254380D01*
X104997238Y-66682952D02*
X105044857Y-66635333D01*
X105140095Y-66587714D01*
X105282952Y-66587714D01*
X105378190Y-66635333D01*
X105425809Y-66730571D01*
X105425809Y-67254380D01*
X106282952Y-67206761D02*
X106187714Y-67254380D01*
X105997238Y-67254380D01*
X105902000Y-67206761D01*
X105854380Y-67111523D01*
X105854380Y-66730571D01*
X105902000Y-66635333D01*
X105997238Y-66587714D01*
X106187714Y-66587714D01*
X106282952Y-66635333D01*
X106330571Y-66730571D01*
X106330571Y-66825809D01*
X105854380Y-66921047D01*
X106902000Y-67254380D02*
X106806761Y-67206761D01*
X106759142Y-67111523D01*
X106759142Y-66254380D01*
X108568666Y-67254380D02*
X107997238Y-67254380D01*
X108282952Y-67254380D02*
X108282952Y-66254380D01*
X108187714Y-66397238D01*
X108092476Y-66492476D01*
X107997238Y-66540095D01*
X124460380Y-116435142D02*
X124412761Y-116482761D01*
X124269904Y-116530380D01*
X124174666Y-116530380D01*
X124031809Y-116482761D01*
X123936571Y-116387523D01*
X123888952Y-116292285D01*
X123841333Y-116101809D01*
X123841333Y-115958952D01*
X123888952Y-115768476D01*
X123936571Y-115673238D01*
X124031809Y-115578000D01*
X124174666Y-115530380D01*
X124269904Y-115530380D01*
X124412761Y-115578000D01*
X124460380Y-115625619D01*
X124888952Y-116530380D02*
X124888952Y-115530380D01*
X125317523Y-116530380D02*
X125317523Y-116006571D01*
X125269904Y-115911333D01*
X125174666Y-115863714D01*
X125031809Y-115863714D01*
X124936571Y-115911333D01*
X124888952Y-115958952D01*
X126222285Y-116530380D02*
X126222285Y-116006571D01*
X126174666Y-115911333D01*
X126079428Y-115863714D01*
X125888952Y-115863714D01*
X125793714Y-115911333D01*
X126222285Y-116482761D02*
X126127047Y-116530380D01*
X125888952Y-116530380D01*
X125793714Y-116482761D01*
X125746095Y-116387523D01*
X125746095Y-116292285D01*
X125793714Y-116197047D01*
X125888952Y-116149428D01*
X126127047Y-116149428D01*
X126222285Y-116101809D01*
X126698476Y-115863714D02*
X126698476Y-116530380D01*
X126698476Y-115958952D02*
X126746095Y-115911333D01*
X126841333Y-115863714D01*
X126984190Y-115863714D01*
X127079428Y-115911333D01*
X127127047Y-116006571D01*
X127127047Y-116530380D01*
X127603238Y-115863714D02*
X127603238Y-116530380D01*
X127603238Y-115958952D02*
X127650857Y-115911333D01*
X127746095Y-115863714D01*
X127888952Y-115863714D01*
X127984190Y-115911333D01*
X128031809Y-116006571D01*
X128031809Y-116530380D01*
X128888952Y-116482761D02*
X128793714Y-116530380D01*
X128603238Y-116530380D01*
X128508000Y-116482761D01*
X128460380Y-116387523D01*
X128460380Y-116006571D01*
X128508000Y-115911333D01*
X128603238Y-115863714D01*
X128793714Y-115863714D01*
X128888952Y-115911333D01*
X128936571Y-116006571D01*
X128936571Y-116101809D01*
X128460380Y-116197047D01*
X129508000Y-116530380D02*
X129412761Y-116482761D01*
X129365142Y-116387523D01*
X129365142Y-115530380D01*
X131079428Y-115863714D02*
X131079428Y-116530380D01*
X130841333Y-115482761D02*
X130603238Y-116197047D01*
X131222285Y-116197047D01*
X223583714Y-114435380D02*
X223583714Y-113435380D01*
X223821809Y-113435380D01*
X223964666Y-113483000D01*
X224059904Y-113578238D01*
X224107523Y-113673476D01*
X224155142Y-113863952D01*
X224155142Y-114006809D01*
X224107523Y-114197285D01*
X224059904Y-114292523D01*
X223964666Y-114387761D01*
X223821809Y-114435380D01*
X223583714Y-114435380D01*
X224583714Y-114435380D02*
X224583714Y-113768714D01*
X224583714Y-113959190D02*
X224631333Y-113863952D01*
X224678952Y-113816333D01*
X224774190Y-113768714D01*
X224869428Y-113768714D01*
X225631333Y-114435380D02*
X225631333Y-113911571D01*
X225583714Y-113816333D01*
X225488476Y-113768714D01*
X225298000Y-113768714D01*
X225202761Y-113816333D01*
X225631333Y-114387761D02*
X225536095Y-114435380D01*
X225298000Y-114435380D01*
X225202761Y-114387761D01*
X225155142Y-114292523D01*
X225155142Y-114197285D01*
X225202761Y-114102047D01*
X225298000Y-114054428D01*
X225536095Y-114054428D01*
X225631333Y-114006809D01*
X226107523Y-114435380D02*
X226107523Y-113768714D01*
X226107523Y-113435380D02*
X226059904Y-113483000D01*
X226107523Y-113530619D01*
X226155142Y-113483000D01*
X226107523Y-113435380D01*
X226107523Y-113530619D01*
X226583714Y-113768714D02*
X226583714Y-114435380D01*
X226583714Y-113863952D02*
X226631333Y-113816333D01*
X226726571Y-113768714D01*
X226869428Y-113768714D01*
X226964666Y-113816333D01*
X227012285Y-113911571D01*
X227012285Y-114435380D01*
X222250380Y-115990142D02*
X222202761Y-116037761D01*
X222059904Y-116085380D01*
X221964666Y-116085380D01*
X221821809Y-116037761D01*
X221726571Y-115942523D01*
X221678952Y-115847285D01*
X221631333Y-115656809D01*
X221631333Y-115513952D01*
X221678952Y-115323476D01*
X221726571Y-115228238D01*
X221821809Y-115133000D01*
X221964666Y-115085380D01*
X222059904Y-115085380D01*
X222202761Y-115133000D01*
X222250380Y-115180619D01*
X222678952Y-116085380D02*
X222678952Y-115085380D01*
X223107523Y-116085380D02*
X223107523Y-115561571D01*
X223059904Y-115466333D01*
X222964666Y-115418714D01*
X222821809Y-115418714D01*
X222726571Y-115466333D01*
X222678952Y-115513952D01*
X224012285Y-116085380D02*
X224012285Y-115561571D01*
X223964666Y-115466333D01*
X223869428Y-115418714D01*
X223678952Y-115418714D01*
X223583714Y-115466333D01*
X224012285Y-116037761D02*
X223917047Y-116085380D01*
X223678952Y-116085380D01*
X223583714Y-116037761D01*
X223536095Y-115942523D01*
X223536095Y-115847285D01*
X223583714Y-115752047D01*
X223678952Y-115704428D01*
X223917047Y-115704428D01*
X224012285Y-115656809D01*
X224488476Y-115418714D02*
X224488476Y-116085380D01*
X224488476Y-115513952D02*
X224536095Y-115466333D01*
X224631333Y-115418714D01*
X224774190Y-115418714D01*
X224869428Y-115466333D01*
X224917047Y-115561571D01*
X224917047Y-116085380D01*
X225393238Y-115418714D02*
X225393238Y-116085380D01*
X225393238Y-115513952D02*
X225440857Y-115466333D01*
X225536095Y-115418714D01*
X225678952Y-115418714D01*
X225774190Y-115466333D01*
X225821809Y-115561571D01*
X225821809Y-116085380D01*
X226678952Y-116037761D02*
X226583714Y-116085380D01*
X226393238Y-116085380D01*
X226298000Y-116037761D01*
X226250380Y-115942523D01*
X226250380Y-115561571D01*
X226298000Y-115466333D01*
X226393238Y-115418714D01*
X226583714Y-115418714D01*
X226678952Y-115466333D01*
X226726571Y-115561571D01*
X226726571Y-115656809D01*
X226250380Y-115752047D01*
X227298000Y-116085380D02*
X227202761Y-116037761D01*
X227155142Y-115942523D01*
X227155142Y-115085380D01*
X228631333Y-115085380D02*
X228726571Y-115085380D01*
X228821809Y-115133000D01*
X228869428Y-115180619D01*
X228917047Y-115275857D01*
X228964666Y-115466333D01*
X228964666Y-115704428D01*
X228917047Y-115894904D01*
X228869428Y-115990142D01*
X228821809Y-116037761D01*
X228726571Y-116085380D01*
X228631333Y-116085380D01*
X228536095Y-116037761D01*
X228488476Y-115990142D01*
X228440857Y-115894904D01*
X228393238Y-115704428D01*
X228393238Y-115466333D01*
X228440857Y-115275857D01*
X228488476Y-115180619D01*
X228536095Y-115133000D01*
X228631333Y-115085380D01*
X95266190Y-115784380D02*
X95456666Y-115784380D01*
X95551904Y-115832000D01*
X95647142Y-115927238D01*
X95694761Y-116117714D01*
X95694761Y-116451047D01*
X95647142Y-116641523D01*
X95551904Y-116736761D01*
X95456666Y-116784380D01*
X95266190Y-116784380D01*
X95170952Y-116736761D01*
X95075714Y-116641523D01*
X95028095Y-116451047D01*
X95028095Y-116117714D01*
X95075714Y-115927238D01*
X95170952Y-115832000D01*
X95266190Y-115784380D01*
X96123333Y-116117714D02*
X96123333Y-116784380D01*
X96123333Y-116212952D02*
X96170952Y-116165333D01*
X96266190Y-116117714D01*
X96409047Y-116117714D01*
X96504285Y-116165333D01*
X96551904Y-116260571D01*
X96551904Y-116784380D01*
X97409047Y-116736761D02*
X97313809Y-116784380D01*
X97123333Y-116784380D01*
X97028095Y-116736761D01*
X96980476Y-116641523D01*
X96980476Y-116260571D01*
X97028095Y-116165333D01*
X97123333Y-116117714D01*
X97313809Y-116117714D01*
X97409047Y-116165333D01*
X97456666Y-116260571D01*
X97456666Y-116355809D01*
X96980476Y-116451047D01*
X97790000Y-115784380D02*
X98028095Y-116784380D01*
X98218571Y-116070095D01*
X98409047Y-116784380D01*
X98647142Y-115784380D01*
X99028095Y-116784380D02*
X99028095Y-116117714D01*
X99028095Y-115784380D02*
X98980476Y-115832000D01*
X99028095Y-115879619D01*
X99075714Y-115832000D01*
X99028095Y-115784380D01*
X99028095Y-115879619D01*
X99504285Y-116784380D02*
X99504285Y-116117714D01*
X99504285Y-116308190D02*
X99551904Y-116212952D01*
X99599523Y-116165333D01*
X99694761Y-116117714D01*
X99790000Y-116117714D01*
X100504285Y-116736761D02*
X100409047Y-116784380D01*
X100218571Y-116784380D01*
X100123333Y-116736761D01*
X100075714Y-116641523D01*
X100075714Y-116260571D01*
X100123333Y-116165333D01*
X100218571Y-116117714D01*
X100409047Y-116117714D01*
X100504285Y-116165333D01*
X100551904Y-116260571D01*
X100551904Y-116355809D01*
X100075714Y-116451047D01*
X201567023Y-64493142D02*
X201519404Y-64540761D01*
X201376547Y-64588380D01*
X201281309Y-64588380D01*
X201138452Y-64540761D01*
X201043214Y-64445523D01*
X200995595Y-64350285D01*
X200947976Y-64159809D01*
X200947976Y-64016952D01*
X200995595Y-63826476D01*
X201043214Y-63731238D01*
X201138452Y-63636000D01*
X201281309Y-63588380D01*
X201376547Y-63588380D01*
X201519404Y-63636000D01*
X201567023Y-63683619D01*
X201995595Y-64588380D02*
X201995595Y-63921714D01*
X201995595Y-64112190D02*
X202043214Y-64016952D01*
X202090833Y-63969333D01*
X202186071Y-63921714D01*
X202281309Y-63921714D01*
X202757500Y-64588380D02*
X202662261Y-64540761D01*
X202614642Y-64493142D01*
X202567023Y-64397904D01*
X202567023Y-64112190D01*
X202614642Y-64016952D01*
X202662261Y-63969333D01*
X202757500Y-63921714D01*
X202900357Y-63921714D01*
X202995595Y-63969333D01*
X203043214Y-64016952D01*
X203090833Y-64112190D01*
X203090833Y-64397904D01*
X203043214Y-64493142D01*
X202995595Y-64540761D01*
X202900357Y-64588380D01*
X202757500Y-64588380D01*
X203519404Y-63921714D02*
X203519404Y-64921714D01*
X203519404Y-63969333D02*
X203614642Y-63921714D01*
X203805119Y-63921714D01*
X203900357Y-63969333D01*
X203947976Y-64016952D01*
X203995595Y-64112190D01*
X203995595Y-64397904D01*
X203947976Y-64493142D01*
X203900357Y-64540761D01*
X203805119Y-64588380D01*
X203614642Y-64588380D01*
X203519404Y-64540761D01*
X204424166Y-64588380D02*
X204424166Y-63588380D01*
X204662261Y-63588380D01*
X204805119Y-63636000D01*
X204900357Y-63731238D01*
X204947976Y-63826476D01*
X204995595Y-64016952D01*
X204995595Y-64159809D01*
X204947976Y-64350285D01*
X204900357Y-64445523D01*
X204805119Y-64540761D01*
X204662261Y-64588380D01*
X204424166Y-64588380D01*
X205424166Y-64588380D02*
X205424166Y-63921714D01*
X205424166Y-64112190D02*
X205471785Y-64016952D01*
X205519404Y-63969333D01*
X205614642Y-63921714D01*
X205709880Y-63921714D01*
X206186071Y-64588380D02*
X206090833Y-64540761D01*
X206043214Y-64493142D01*
X205995595Y-64397904D01*
X205995595Y-64112190D01*
X206043214Y-64016952D01*
X206090833Y-63969333D01*
X206186071Y-63921714D01*
X206328928Y-63921714D01*
X206424166Y-63969333D01*
X206471785Y-64016952D01*
X206519404Y-64112190D01*
X206519404Y-64397904D01*
X206471785Y-64493142D01*
X206424166Y-64540761D01*
X206328928Y-64588380D01*
X206186071Y-64588380D01*
X206947976Y-64588380D02*
X206947976Y-63921714D01*
X206947976Y-63588380D02*
X206900357Y-63636000D01*
X206947976Y-63683619D01*
X206995595Y-63636000D01*
X206947976Y-63588380D01*
X206947976Y-63683619D01*
X207852738Y-64588380D02*
X207852738Y-63588380D01*
X207852738Y-64540761D02*
X207757500Y-64588380D01*
X207567023Y-64588380D01*
X207471785Y-64540761D01*
X207424166Y-64493142D01*
X207376547Y-64397904D01*
X207376547Y-64112190D01*
X207424166Y-64016952D01*
X207471785Y-63969333D01*
X207567023Y-63921714D01*
X207757500Y-63921714D01*
X207852738Y-63969333D01*
X209662261Y-64588380D02*
X209328928Y-64112190D01*
X209090833Y-64588380D02*
X209090833Y-63588380D01*
X209471785Y-63588380D01*
X209567023Y-63636000D01*
X209614642Y-63683619D01*
X209662261Y-63778857D01*
X209662261Y-63921714D01*
X209614642Y-64016952D01*
X209567023Y-64064571D01*
X209471785Y-64112190D01*
X209090833Y-64112190D01*
X210471785Y-64540761D02*
X210376547Y-64588380D01*
X210186071Y-64588380D01*
X210090833Y-64540761D01*
X210043214Y-64445523D01*
X210043214Y-64064571D01*
X210090833Y-63969333D01*
X210186071Y-63921714D01*
X210376547Y-63921714D01*
X210471785Y-63969333D01*
X210519404Y-64064571D01*
X210519404Y-64159809D01*
X210043214Y-64255047D01*
X210900357Y-64540761D02*
X210995595Y-64588380D01*
X211186071Y-64588380D01*
X211281309Y-64540761D01*
X211328928Y-64445523D01*
X211328928Y-64397904D01*
X211281309Y-64302666D01*
X211186071Y-64255047D01*
X211043214Y-64255047D01*
X210947976Y-64207428D01*
X210900357Y-64112190D01*
X210900357Y-64064571D01*
X210947976Y-63969333D01*
X211043214Y-63921714D01*
X211186071Y-63921714D01*
X211281309Y-63969333D01*
X212138452Y-64540761D02*
X212043214Y-64588380D01*
X211852738Y-64588380D01*
X211757500Y-64540761D01*
X211709880Y-64445523D01*
X211709880Y-64064571D01*
X211757500Y-63969333D01*
X211852738Y-63921714D01*
X212043214Y-63921714D01*
X212138452Y-63969333D01*
X212186071Y-64064571D01*
X212186071Y-64159809D01*
X211709880Y-64255047D01*
X212614642Y-64588380D02*
X212614642Y-63921714D01*
X212614642Y-64112190D02*
X212662261Y-64016952D01*
X212709880Y-63969333D01*
X212805119Y-63921714D01*
X212900357Y-63921714D01*
X213138452Y-63921714D02*
X213376547Y-64588380D01*
X213614642Y-63921714D01*
X214138452Y-64588380D02*
X214043214Y-64540761D01*
X213995595Y-64493142D01*
X213947976Y-64397904D01*
X213947976Y-64112190D01*
X213995595Y-64016952D01*
X214043214Y-63969333D01*
X214138452Y-63921714D01*
X214281309Y-63921714D01*
X214376547Y-63969333D01*
X214424166Y-64016952D01*
X214471785Y-64112190D01*
X214471785Y-64397904D01*
X214424166Y-64493142D01*
X214376547Y-64540761D01*
X214281309Y-64588380D01*
X214138452Y-64588380D01*
X214900357Y-64588380D02*
X214900357Y-63921714D01*
X214900357Y-63588380D02*
X214852738Y-63636000D01*
X214900357Y-63683619D01*
X214947976Y-63636000D01*
X214900357Y-63588380D01*
X214900357Y-63683619D01*
X215376547Y-64588380D02*
X215376547Y-63921714D01*
X215376547Y-64112190D02*
X215424166Y-64016952D01*
X215471785Y-63969333D01*
X215567023Y-63921714D01*
X215662261Y-63921714D01*
X217328928Y-64493142D02*
X217281309Y-64540761D01*
X217138452Y-64588380D01*
X217043214Y-64588380D01*
X216900357Y-64540761D01*
X216805119Y-64445523D01*
X216757500Y-64350285D01*
X216709880Y-64159809D01*
X216709880Y-64016952D01*
X216757500Y-63826476D01*
X216805119Y-63731238D01*
X216900357Y-63636000D01*
X217043214Y-63588380D01*
X217138452Y-63588380D01*
X217281309Y-63636000D01*
X217328928Y-63683619D01*
X217900357Y-64588380D02*
X217805119Y-64540761D01*
X217757500Y-64493142D01*
X217709880Y-64397904D01*
X217709880Y-64112190D01*
X217757500Y-64016952D01*
X217805119Y-63969333D01*
X217900357Y-63921714D01*
X218043214Y-63921714D01*
X218138452Y-63969333D01*
X218186071Y-64016952D01*
X218233690Y-64112190D01*
X218233690Y-64397904D01*
X218186071Y-64493142D01*
X218138452Y-64540761D01*
X218043214Y-64588380D01*
X217900357Y-64588380D01*
X218662261Y-63921714D02*
X218662261Y-64588380D01*
X218662261Y-64016952D02*
X218709880Y-63969333D01*
X218805119Y-63921714D01*
X218947976Y-63921714D01*
X219043214Y-63969333D01*
X219090833Y-64064571D01*
X219090833Y-64588380D01*
X219424166Y-63921714D02*
X219805119Y-63921714D01*
X219567023Y-63588380D02*
X219567023Y-64445523D01*
X219614642Y-64540761D01*
X219709880Y-64588380D01*
X219805119Y-64588380D01*
X220138452Y-64588380D02*
X220138452Y-63921714D01*
X220138452Y-64112190D02*
X220186071Y-64016952D01*
X220233690Y-63969333D01*
X220328928Y-63921714D01*
X220424166Y-63921714D01*
X220900357Y-64588380D02*
X220805119Y-64540761D01*
X220757500Y-64493142D01*
X220709880Y-64397904D01*
X220709880Y-64112190D01*
X220757500Y-64016952D01*
X220805119Y-63969333D01*
X220900357Y-63921714D01*
X221043214Y-63921714D01*
X221138452Y-63969333D01*
X221186071Y-64016952D01*
X221233690Y-64112190D01*
X221233690Y-64397904D01*
X221186071Y-64493142D01*
X221138452Y-64540761D01*
X221043214Y-64588380D01*
X220900357Y-64588380D01*
X221805119Y-64588380D02*
X221709880Y-64540761D01*
X221662261Y-64445523D01*
X221662261Y-63588380D01*
X222328928Y-64588380D02*
X222233690Y-64540761D01*
X222186071Y-64445523D01*
X222186071Y-63588380D01*
X223090833Y-64540761D02*
X222995595Y-64588380D01*
X222805119Y-64588380D01*
X222709880Y-64540761D01*
X222662261Y-64445523D01*
X222662261Y-64064571D01*
X222709880Y-63969333D01*
X222805119Y-63921714D01*
X222995595Y-63921714D01*
X223090833Y-63969333D01*
X223138452Y-64064571D01*
X223138452Y-64159809D01*
X222662261Y-64255047D01*
X223567023Y-64588380D02*
X223567023Y-63921714D01*
X223567023Y-64112190D02*
X223614642Y-64016952D01*
X223662261Y-63969333D01*
X223757500Y-63921714D01*
X223852738Y-63921714D01*
X201567023Y-66143142D02*
X201519404Y-66190761D01*
X201376547Y-66238380D01*
X201281309Y-66238380D01*
X201138452Y-66190761D01*
X201043214Y-66095523D01*
X200995595Y-66000285D01*
X200947976Y-65809809D01*
X200947976Y-65666952D01*
X200995595Y-65476476D01*
X201043214Y-65381238D01*
X201138452Y-65286000D01*
X201281309Y-65238380D01*
X201376547Y-65238380D01*
X201519404Y-65286000D01*
X201567023Y-65333619D01*
X202138452Y-66238380D02*
X202043214Y-66190761D01*
X201995595Y-66143142D01*
X201947976Y-66047904D01*
X201947976Y-65762190D01*
X201995595Y-65666952D01*
X202043214Y-65619333D01*
X202138452Y-65571714D01*
X202281309Y-65571714D01*
X202376547Y-65619333D01*
X202424166Y-65666952D01*
X202471785Y-65762190D01*
X202471785Y-66047904D01*
X202424166Y-66143142D01*
X202376547Y-66190761D01*
X202281309Y-66238380D01*
X202138452Y-66238380D01*
X202900357Y-65571714D02*
X202900357Y-66571714D01*
X202900357Y-65619333D02*
X202995595Y-65571714D01*
X203186071Y-65571714D01*
X203281309Y-65619333D01*
X203328928Y-65666952D01*
X203376547Y-65762190D01*
X203376547Y-66047904D01*
X203328928Y-66143142D01*
X203281309Y-66190761D01*
X203186071Y-66238380D01*
X202995595Y-66238380D01*
X202900357Y-66190761D01*
X203709880Y-65571714D02*
X203947976Y-66238380D01*
X204186071Y-65571714D02*
X203947976Y-66238380D01*
X203852738Y-66476476D01*
X203805119Y-66524095D01*
X203709880Y-66571714D01*
X204567023Y-66238380D02*
X204567023Y-65571714D01*
X204567023Y-65762190D02*
X204614642Y-65666952D01*
X204662261Y-65619333D01*
X204757500Y-65571714D01*
X204852738Y-65571714D01*
X205186071Y-66238380D02*
X205186071Y-65571714D01*
X205186071Y-65238380D02*
X205138452Y-65286000D01*
X205186071Y-65333619D01*
X205233690Y-65286000D01*
X205186071Y-65238380D01*
X205186071Y-65333619D01*
X206090833Y-65571714D02*
X206090833Y-66381238D01*
X206043214Y-66476476D01*
X205995595Y-66524095D01*
X205900357Y-66571714D01*
X205757500Y-66571714D01*
X205662261Y-66524095D01*
X206090833Y-66190761D02*
X205995595Y-66238380D01*
X205805119Y-66238380D01*
X205709880Y-66190761D01*
X205662261Y-66143142D01*
X205614642Y-66047904D01*
X205614642Y-65762190D01*
X205662261Y-65666952D01*
X205709880Y-65619333D01*
X205805119Y-65571714D01*
X205995595Y-65571714D01*
X206090833Y-65619333D01*
X206567023Y-66238380D02*
X206567023Y-65238380D01*
X206995595Y-66238380D02*
X206995595Y-65714571D01*
X206947976Y-65619333D01*
X206852738Y-65571714D01*
X206709880Y-65571714D01*
X206614642Y-65619333D01*
X206567023Y-65666952D01*
X207328928Y-65571714D02*
X207709880Y-65571714D01*
X207471785Y-65238380D02*
X207471785Y-66095523D01*
X207519404Y-66190761D01*
X207614642Y-66238380D01*
X207709880Y-66238380D01*
X209090833Y-66619333D02*
X209043214Y-66571714D01*
X208947976Y-66428857D01*
X208900357Y-66333619D01*
X208852738Y-66190761D01*
X208805119Y-65952666D01*
X208805119Y-65762190D01*
X208852738Y-65524095D01*
X208900357Y-65381238D01*
X208947976Y-65286000D01*
X209043214Y-65143142D01*
X209090833Y-65095523D01*
X209900357Y-66190761D02*
X209805119Y-66238380D01*
X209614642Y-66238380D01*
X209519404Y-66190761D01*
X209471785Y-66143142D01*
X209424166Y-66047904D01*
X209424166Y-65762190D01*
X209471785Y-65666952D01*
X209519404Y-65619333D01*
X209614642Y-65571714D01*
X209805119Y-65571714D01*
X209900357Y-65619333D01*
X210233690Y-66619333D02*
X210281309Y-66571714D01*
X210376547Y-66428857D01*
X210424166Y-66333619D01*
X210471785Y-66190761D01*
X210519404Y-65952666D01*
X210519404Y-65762190D01*
X210471785Y-65524095D01*
X210424166Y-65381238D01*
X210376547Y-65286000D01*
X210281309Y-65143142D01*
X210233690Y-65095523D01*
X211709880Y-65952666D02*
X212186071Y-65952666D01*
X211614642Y-66238380D02*
X211947976Y-65238380D01*
X212281309Y-66238380D01*
X213043214Y-65571714D02*
X213043214Y-66238380D01*
X212614642Y-65571714D02*
X212614642Y-66095523D01*
X212662261Y-66190761D01*
X212757500Y-66238380D01*
X212900357Y-66238380D01*
X212995595Y-66190761D01*
X213043214Y-66143142D01*
X213376547Y-65571714D02*
X213757500Y-65571714D01*
X213519404Y-65238380D02*
X213519404Y-66095523D01*
X213567023Y-66190761D01*
X213662261Y-66238380D01*
X213757500Y-66238380D01*
X214233690Y-66238380D02*
X214138452Y-66190761D01*
X214090833Y-66143142D01*
X214043214Y-66047904D01*
X214043214Y-65762190D01*
X214090833Y-65666952D01*
X214138452Y-65619333D01*
X214233690Y-65571714D01*
X214376547Y-65571714D01*
X214471785Y-65619333D01*
X214519404Y-65666952D01*
X214567023Y-65762190D01*
X214567023Y-66047904D01*
X214519404Y-66143142D01*
X214471785Y-66190761D01*
X214376547Y-66238380D01*
X214233690Y-66238380D01*
X214995595Y-66238380D02*
X214995595Y-65571714D01*
X214995595Y-65666952D02*
X215043214Y-65619333D01*
X215138452Y-65571714D01*
X215281309Y-65571714D01*
X215376547Y-65619333D01*
X215424166Y-65714571D01*
X215424166Y-66238380D01*
X215424166Y-65714571D02*
X215471785Y-65619333D01*
X215567023Y-65571714D01*
X215709880Y-65571714D01*
X215805119Y-65619333D01*
X215852738Y-65714571D01*
X215852738Y-66238380D01*
X216757500Y-66238380D02*
X216757500Y-65714571D01*
X216709880Y-65619333D01*
X216614642Y-65571714D01*
X216424166Y-65571714D01*
X216328928Y-65619333D01*
X216757500Y-66190761D02*
X216662261Y-66238380D01*
X216424166Y-66238380D01*
X216328928Y-66190761D01*
X216281309Y-66095523D01*
X216281309Y-66000285D01*
X216328928Y-65905047D01*
X216424166Y-65857428D01*
X216662261Y-65857428D01*
X216757500Y-65809809D01*
X217090833Y-65571714D02*
X217471785Y-65571714D01*
X217233690Y-65238380D02*
X217233690Y-66095523D01*
X217281309Y-66190761D01*
X217376547Y-66238380D01*
X217471785Y-66238380D01*
X218186071Y-66190761D02*
X218090833Y-66238380D01*
X217900357Y-66238380D01*
X217805119Y-66190761D01*
X217757500Y-66095523D01*
X217757500Y-65714571D01*
X217805119Y-65619333D01*
X217900357Y-65571714D01*
X218090833Y-65571714D01*
X218186071Y-65619333D01*
X218233690Y-65714571D01*
X218233690Y-65809809D01*
X217757500Y-65905047D01*
X219281309Y-65238380D02*
X219852738Y-65238380D01*
X219567023Y-66238380D02*
X219567023Y-65238380D01*
X220186071Y-66238380D02*
X220186071Y-65238380D01*
X220614642Y-66238380D02*
X220614642Y-65714571D01*
X220567023Y-65619333D01*
X220471785Y-65571714D01*
X220328928Y-65571714D01*
X220233690Y-65619333D01*
X220186071Y-65666952D01*
X221471785Y-66190761D02*
X221376547Y-66238380D01*
X221186071Y-66238380D01*
X221090833Y-66190761D01*
X221043214Y-66095523D01*
X221043214Y-65714571D01*
X221090833Y-65619333D01*
X221186071Y-65571714D01*
X221376547Y-65571714D01*
X221471785Y-65619333D01*
X221519404Y-65714571D01*
X221519404Y-65809809D01*
X221043214Y-65905047D01*
X222567023Y-65238380D02*
X223138452Y-65238380D01*
X222852738Y-66238380D02*
X222852738Y-65238380D01*
X223471785Y-66238380D02*
X223471785Y-65238380D01*
X223900357Y-66238380D02*
X223900357Y-65714571D01*
X223852738Y-65619333D01*
X223757500Y-65571714D01*
X223614642Y-65571714D01*
X223519404Y-65619333D01*
X223471785Y-65666952D01*
X224376547Y-66238380D02*
X224376547Y-65571714D01*
X224376547Y-65238380D02*
X224328928Y-65286000D01*
X224376547Y-65333619D01*
X224424166Y-65286000D01*
X224376547Y-65238380D01*
X224376547Y-65333619D01*
X224852738Y-65571714D02*
X224852738Y-66238380D01*
X224852738Y-65666952D02*
X224900357Y-65619333D01*
X224995595Y-65571714D01*
X225138452Y-65571714D01*
X225233690Y-65619333D01*
X225281309Y-65714571D01*
X225281309Y-66238380D01*
X226186071Y-65571714D02*
X226186071Y-66381238D01*
X226138452Y-66476476D01*
X226090833Y-66524095D01*
X225995595Y-66571714D01*
X225852738Y-66571714D01*
X225757500Y-66524095D01*
X226186071Y-66190761D02*
X226090833Y-66238380D01*
X225900357Y-66238380D01*
X225805119Y-66190761D01*
X225757500Y-66143142D01*
X225709880Y-66047904D01*
X225709880Y-65762190D01*
X225757500Y-65666952D01*
X225805119Y-65619333D01*
X225900357Y-65571714D01*
X226090833Y-65571714D01*
X226186071Y-65619333D01*
X226614642Y-66190761D02*
X226709880Y-66238380D01*
X226900357Y-66238380D01*
X226995595Y-66190761D01*
X227043214Y-66095523D01*
X227043214Y-66047904D01*
X226995595Y-65952666D01*
X226900357Y-65905047D01*
X226757500Y-65905047D01*
X226662261Y-65857428D01*
X226614642Y-65762190D01*
X226614642Y-65714571D01*
X226662261Y-65619333D01*
X226757500Y-65571714D01*
X226900357Y-65571714D01*
X226995595Y-65619333D01*
X227519404Y-66190761D02*
X227519404Y-66238380D01*
X227471785Y-66333619D01*
X227424166Y-66381238D01*
X229186071Y-66238380D02*
X228709880Y-66238380D01*
X228709880Y-65238380D01*
X229995595Y-66238380D02*
X229519404Y-66238380D01*
X229519404Y-65238380D01*
X230900357Y-66143142D02*
X230852738Y-66190761D01*
X230709880Y-66238380D01*
X230614642Y-66238380D01*
X230471785Y-66190761D01*
X230376547Y-66095523D01*
X230328928Y-66000285D01*
X230281309Y-65809809D01*
X230281309Y-65666952D01*
X230328928Y-65476476D01*
X230376547Y-65381238D01*
X230471785Y-65286000D01*
X230614642Y-65238380D01*
X230709880Y-65238380D01*
X230852738Y-65286000D01*
X230900357Y-65333619D01*
X200995595Y-67888380D02*
X200995595Y-66888380D01*
X201376547Y-66888380D01*
X201471785Y-66936000D01*
X201519404Y-66983619D01*
X201567023Y-67078857D01*
X201567023Y-67221714D01*
X201519404Y-67316952D01*
X201471785Y-67364571D01*
X201376547Y-67412190D01*
X200995595Y-67412190D01*
X201995595Y-67888380D02*
X201995595Y-67221714D01*
X201995595Y-67412190D02*
X202043214Y-67316952D01*
X202090833Y-67269333D01*
X202186071Y-67221714D01*
X202281309Y-67221714D01*
X202757500Y-67888380D02*
X202662261Y-67840761D01*
X202614642Y-67793142D01*
X202567023Y-67697904D01*
X202567023Y-67412190D01*
X202614642Y-67316952D01*
X202662261Y-67269333D01*
X202757500Y-67221714D01*
X202900357Y-67221714D01*
X202995595Y-67269333D01*
X203043214Y-67316952D01*
X203090833Y-67412190D01*
X203090833Y-67697904D01*
X203043214Y-67793142D01*
X202995595Y-67840761D01*
X202900357Y-67888380D01*
X202757500Y-67888380D01*
X203376547Y-67221714D02*
X203757500Y-67221714D01*
X203519404Y-66888380D02*
X203519404Y-67745523D01*
X203567023Y-67840761D01*
X203662261Y-67888380D01*
X203757500Y-67888380D01*
X204233690Y-67888380D02*
X204138452Y-67840761D01*
X204090833Y-67793142D01*
X204043214Y-67697904D01*
X204043214Y-67412190D01*
X204090833Y-67316952D01*
X204138452Y-67269333D01*
X204233690Y-67221714D01*
X204376547Y-67221714D01*
X204471785Y-67269333D01*
X204519404Y-67316952D01*
X204567023Y-67412190D01*
X204567023Y-67697904D01*
X204519404Y-67793142D01*
X204471785Y-67840761D01*
X204376547Y-67888380D01*
X204233690Y-67888380D01*
X204852738Y-67221714D02*
X205233690Y-67221714D01*
X204995595Y-66888380D02*
X204995595Y-67745523D01*
X205043214Y-67840761D01*
X205138452Y-67888380D01*
X205233690Y-67888380D01*
X205471785Y-67221714D02*
X205709880Y-67888380D01*
X205947976Y-67221714D02*
X205709880Y-67888380D01*
X205614642Y-68126476D01*
X205567023Y-68174095D01*
X205471785Y-68221714D01*
X206328928Y-67221714D02*
X206328928Y-68221714D01*
X206328928Y-67269333D02*
X206424166Y-67221714D01*
X206614642Y-67221714D01*
X206709880Y-67269333D01*
X206757500Y-67316952D01*
X206805119Y-67412190D01*
X206805119Y-67697904D01*
X206757500Y-67793142D01*
X206709880Y-67840761D01*
X206614642Y-67888380D01*
X206424166Y-67888380D01*
X206328928Y-67840761D01*
X207614642Y-67840761D02*
X207519404Y-67888380D01*
X207328928Y-67888380D01*
X207233690Y-67840761D01*
X207186071Y-67745523D01*
X207186071Y-67364571D01*
X207233690Y-67269333D01*
X207328928Y-67221714D01*
X207519404Y-67221714D01*
X207614642Y-67269333D01*
X207662261Y-67364571D01*
X207662261Y-67459809D01*
X207186071Y-67555047D01*
X208757500Y-67221714D02*
X208995595Y-67888380D01*
X209233690Y-67221714D01*
X209805119Y-66888380D02*
X209900357Y-66888380D01*
X209995595Y-66936000D01*
X210043214Y-66983619D01*
X210090833Y-67078857D01*
X210138452Y-67269333D01*
X210138452Y-67507428D01*
X210090833Y-67697904D01*
X210043214Y-67793142D01*
X209995595Y-67840761D01*
X209900357Y-67888380D01*
X209805119Y-67888380D01*
X209709880Y-67840761D01*
X209662261Y-67793142D01*
X209614642Y-67697904D01*
X209567023Y-67507428D01*
X209567023Y-67269333D01*
X209614642Y-67078857D01*
X209662261Y-66983619D01*
X209709880Y-66936000D01*
X209805119Y-66888380D01*
X210567023Y-67793142D02*
X210614642Y-67840761D01*
X210567023Y-67888380D01*
X210519404Y-67840761D01*
X210567023Y-67793142D01*
X210567023Y-67888380D01*
X211567023Y-67888380D02*
X210995595Y-67888380D01*
X211281309Y-67888380D02*
X211281309Y-66888380D01*
X211186071Y-67031238D01*
X211090833Y-67126476D01*
X210995595Y-67174095D01*
X212424166Y-67888380D02*
X212424166Y-67364571D01*
X212376547Y-67269333D01*
X212281309Y-67221714D01*
X212090833Y-67221714D01*
X211995595Y-67269333D01*
X212424166Y-67840761D02*
X212328928Y-67888380D01*
X212090833Y-67888380D01*
X211995595Y-67840761D01*
X211947976Y-67745523D01*
X211947976Y-67650285D01*
X211995595Y-67555047D01*
X212090833Y-67507428D01*
X212328928Y-67507428D01*
X212424166Y-67459809D01*
D11*
G36*
X212790883Y-87430033D02*
G01*
X212803269Y-87436192D01*
X212936284Y-87533803D01*
X213004821Y-87665674D01*
X213021334Y-87820500D01*
X212997693Y-87999502D01*
X212919594Y-88125415D01*
X212810514Y-88201062D01*
X212629520Y-88258498D01*
X212454585Y-88234469D01*
X212376814Y-88199011D01*
X212254312Y-88102828D01*
X212190532Y-87969395D01*
X212181353Y-87875950D01*
X212265951Y-87875950D01*
X212316772Y-88008784D01*
X212420904Y-88107614D01*
X212538562Y-88166517D01*
X212638589Y-88169961D01*
X212762655Y-88119252D01*
X212764306Y-88118399D01*
X212857355Y-88053867D01*
X212910370Y-87987937D01*
X212933470Y-87829943D01*
X212892209Y-87681084D01*
X212799686Y-87562722D01*
X212669001Y-87496220D01*
X212604355Y-87488889D01*
X212450582Y-87523267D01*
X212338896Y-87612818D01*
X212275339Y-87737170D01*
X212265951Y-87875950D01*
X212181353Y-87875950D01*
X212174667Y-87807889D01*
X212211987Y-87637912D01*
X212311276Y-87503899D01*
X212453527Y-87417088D01*
X212619732Y-87388720D01*
X212790883Y-87430033D01*
G37*
X212790883Y-87430033D02*
X212803269Y-87436192D01*
X212936284Y-87533803D01*
X213004821Y-87665674D01*
X213021334Y-87820500D01*
X212997693Y-87999502D01*
X212919594Y-88125415D01*
X212810514Y-88201062D01*
X212629520Y-88258498D01*
X212454585Y-88234469D01*
X212376814Y-88199011D01*
X212254312Y-88102828D01*
X212190532Y-87969395D01*
X212181353Y-87875950D01*
X212265951Y-87875950D01*
X212316772Y-88008784D01*
X212420904Y-88107614D01*
X212538562Y-88166517D01*
X212638589Y-88169961D01*
X212762655Y-88119252D01*
X212764306Y-88118399D01*
X212857355Y-88053867D01*
X212910370Y-87987937D01*
X212933470Y-87829943D01*
X212892209Y-87681084D01*
X212799686Y-87562722D01*
X212669001Y-87496220D01*
X212604355Y-87488889D01*
X212450582Y-87523267D01*
X212338896Y-87612818D01*
X212275339Y-87737170D01*
X212265951Y-87875950D01*
X212181353Y-87875950D01*
X212174667Y-87807889D01*
X212211987Y-87637912D01*
X212311276Y-87503899D01*
X212453527Y-87417088D01*
X212619732Y-87388720D01*
X212790883Y-87430033D01*
G36*
X214866939Y-88302594D02*
G01*
X214990546Y-88399494D01*
X215087348Y-88531880D01*
X215135906Y-88675931D01*
X215138000Y-88709500D01*
X215120243Y-88833658D01*
X215055427Y-88943386D01*
X214994067Y-89010067D01*
X214838500Y-89122533D01*
X214674658Y-89152615D01*
X214545334Y-89124103D01*
X214412142Y-89037546D01*
X214307833Y-88902546D01*
X214267068Y-88792539D01*
X214269296Y-88738173D01*
X214368972Y-88738173D01*
X214415134Y-88887041D01*
X214527699Y-88999469D01*
X214539240Y-89006135D01*
X214692796Y-89048568D01*
X214840929Y-89009103D01*
X214957873Y-88908818D01*
X215039412Y-88766923D01*
X215038727Y-88630321D01*
X214985561Y-88525748D01*
X214865924Y-88416202D01*
X214723045Y-88373267D01*
X214579449Y-88395013D01*
X214457664Y-88479509D01*
X214396933Y-88576190D01*
X214368972Y-88738173D01*
X214269296Y-88738173D01*
X214274108Y-88620782D01*
X214349961Y-88465392D01*
X214478784Y-88344119D01*
X214644736Y-88274711D01*
X214737965Y-88265000D01*
X214866939Y-88302594D01*
G37*
X214866939Y-88302594D02*
X214990546Y-88399494D01*
X215087348Y-88531880D01*
X215135906Y-88675931D01*
X215138000Y-88709500D01*
X215120243Y-88833658D01*
X215055427Y-88943386D01*
X214994067Y-89010067D01*
X214838500Y-89122533D01*
X214674658Y-89152615D01*
X214545334Y-89124103D01*
X214412142Y-89037546D01*
X214307833Y-88902546D01*
X214267068Y-88792539D01*
X214269296Y-88738173D01*
X214368972Y-88738173D01*
X214415134Y-88887041D01*
X214527699Y-88999469D01*
X214539240Y-89006135D01*
X214692796Y-89048568D01*
X214840929Y-89009103D01*
X214957873Y-88908818D01*
X215039412Y-88766923D01*
X215038727Y-88630321D01*
X214985561Y-88525748D01*
X214865924Y-88416202D01*
X214723045Y-88373267D01*
X214579449Y-88395013D01*
X214457664Y-88479509D01*
X214396933Y-88576190D01*
X214368972Y-88738173D01*
X214269296Y-88738173D01*
X214274108Y-88620782D01*
X214349961Y-88465392D01*
X214478784Y-88344119D01*
X214644736Y-88274711D01*
X214737965Y-88265000D01*
X214866939Y-88302594D01*
G36*
X218666754Y-76965934D02*
G01*
X218652638Y-77081992D01*
X218622733Y-77243076D01*
X218590171Y-77388436D01*
X218448437Y-78053342D01*
X218355006Y-78669539D01*
X218307345Y-79256023D01*
X218299755Y-79565500D01*
X218303460Y-79904285D01*
X218320120Y-80214347D01*
X218352903Y-80509663D01*
X218404979Y-80804209D01*
X218479519Y-81111961D01*
X218579690Y-81446896D01*
X218708663Y-81822989D01*
X218869607Y-82254218D01*
X218965429Y-82500921D01*
X219144753Y-82964410D01*
X219292168Y-83362404D01*
X219410411Y-83706661D01*
X219502220Y-84008937D01*
X219570332Y-84280992D01*
X219617487Y-84534582D01*
X219646420Y-84781465D01*
X219659871Y-85033399D01*
X219660576Y-85302142D01*
X219656304Y-85467969D01*
X219626778Y-85958638D01*
X219569156Y-86403089D01*
X219477025Y-86836950D01*
X219343970Y-87295845D01*
X219306963Y-87408501D01*
X219058039Y-88025142D01*
X218742046Y-88592737D01*
X218362763Y-89107547D01*
X217923970Y-89565833D01*
X217429446Y-89963856D01*
X216882972Y-90297877D01*
X216288327Y-90564157D01*
X216025351Y-90654822D01*
X215794833Y-90722439D01*
X215637676Y-90755937D01*
X215549948Y-90755754D01*
X215527717Y-90722327D01*
X215531549Y-90709750D01*
X215553131Y-90658438D01*
X215603453Y-90539549D01*
X215678129Y-90363424D01*
X215772773Y-90140404D01*
X215882997Y-89880829D01*
X216004415Y-89595039D01*
X216029929Y-89535000D01*
X216186234Y-89163855D01*
X216309873Y-88860493D01*
X216403288Y-88615652D01*
X216468921Y-88420070D01*
X216509212Y-88264484D01*
X216526602Y-88139633D01*
X216523533Y-88036253D01*
X216502445Y-87945084D01*
X216469929Y-87865502D01*
X216416753Y-87770613D01*
X216347101Y-87685527D01*
X216250623Y-87603704D01*
X216116969Y-87518603D01*
X215935789Y-87423682D01*
X215696734Y-87312402D01*
X215389452Y-87178221D01*
X215367558Y-87168845D01*
X215106766Y-87056737D01*
X214913979Y-86971626D01*
X214779179Y-86907638D01*
X214692348Y-86858896D01*
X214643467Y-86819526D01*
X214622518Y-86783651D01*
X214619481Y-86745396D01*
X214620744Y-86730858D01*
X214632506Y-86647248D01*
X214656099Y-86500132D01*
X214688246Y-86309313D01*
X214725670Y-86094592D01*
X214730846Y-86065424D01*
X214766107Y-85861911D01*
X214793728Y-85692216D01*
X214811351Y-85571648D01*
X214816620Y-85515519D01*
X214815833Y-85513334D01*
X214787818Y-85545764D01*
X214719442Y-85635096D01*
X214619632Y-85769385D01*
X214497314Y-85936690D01*
X214432744Y-86025887D01*
X214299658Y-86207155D01*
X214181031Y-86362868D01*
X214086811Y-86480403D01*
X214026951Y-86547141D01*
X214013785Y-86557272D01*
X213961189Y-86547400D01*
X213843605Y-86508781D01*
X213673811Y-86446146D01*
X213464586Y-86364231D01*
X213228708Y-86267767D01*
X213201478Y-86256385D01*
X212886460Y-86127480D01*
X212635255Y-86033391D01*
X212435533Y-85971918D01*
X212274962Y-85940857D01*
X212141211Y-85938006D01*
X212021950Y-85961162D01*
X211904847Y-86008122D01*
X211880212Y-86020375D01*
X211754253Y-86102566D01*
X211649631Y-86200322D01*
X211633169Y-86221458D01*
X211595837Y-86289585D01*
X211530774Y-86424922D01*
X211442892Y-86616556D01*
X211337105Y-86853576D01*
X211218325Y-87125070D01*
X211091464Y-87420127D01*
X211056385Y-87502603D01*
X210930731Y-87797131D01*
X210814439Y-88066675D01*
X210711916Y-88301266D01*
X210627564Y-88490933D01*
X210565788Y-88625706D01*
X210530992Y-88695615D01*
X210526248Y-88702686D01*
X210489642Y-88686847D01*
X210425757Y-88608898D01*
X210343335Y-88483353D01*
X210251116Y-88324725D01*
X210157838Y-88147527D01*
X210072244Y-87966274D01*
X210045971Y-87905167D01*
X209830453Y-87284988D01*
X209694801Y-86652620D01*
X209648575Y-86121271D01*
X209748385Y-86121271D01*
X209816391Y-86749080D01*
X209965943Y-87367004D01*
X210022027Y-87535804D01*
X210090038Y-87716606D01*
X210171526Y-87915041D01*
X210258111Y-88112698D01*
X210341413Y-88291170D01*
X210413050Y-88432050D01*
X210464642Y-88516927D01*
X210473372Y-88527184D01*
X210497929Y-88499637D01*
X210548471Y-88405246D01*
X210619422Y-88255734D01*
X210705208Y-88062821D01*
X210795446Y-87849851D01*
X210921915Y-87545823D01*
X211027564Y-87294814D01*
X211123367Y-87071375D01*
X211220296Y-86850053D01*
X211329325Y-86605398D01*
X211394928Y-86459436D01*
X211435728Y-86358683D01*
X211454809Y-86291566D01*
X211455000Y-86288110D01*
X211483051Y-86239498D01*
X211555080Y-86155399D01*
X211617748Y-86091264D01*
X211783101Y-85967879D01*
X211985185Y-85871447D01*
X212187712Y-85817399D01*
X212276645Y-85811071D01*
X212369670Y-85830120D01*
X212537834Y-85885205D01*
X212779881Y-85975855D01*
X213094560Y-86101598D01*
X213480617Y-86261961D01*
X213533396Y-86284234D01*
X213981958Y-86473821D01*
X214330724Y-85986519D01*
X214469061Y-85791095D01*
X214563197Y-85650788D01*
X214619656Y-85552926D01*
X214644964Y-85484838D01*
X214645648Y-85433852D01*
X214633579Y-85398450D01*
X214588157Y-85218509D01*
X214591720Y-85195834D01*
X214672334Y-85195834D01*
X214701777Y-85305336D01*
X214757000Y-85386334D01*
X214857852Y-85450381D01*
X214947500Y-85471000D01*
X215057002Y-85441557D01*
X215138000Y-85386334D01*
X215208665Y-85263128D01*
X215213843Y-85122211D01*
X215152606Y-84998084D01*
X215043542Y-84931429D01*
X214916632Y-84928148D01*
X214796227Y-84978213D01*
X214706681Y-85071599D01*
X214672334Y-85195834D01*
X214591720Y-85195834D01*
X214613527Y-85057092D01*
X214700641Y-84929820D01*
X214840452Y-84852312D01*
X214959363Y-84836000D01*
X215118315Y-84870620D01*
X215237636Y-84961322D01*
X215309413Y-85088373D01*
X215325733Y-85232039D01*
X215278683Y-85372586D01*
X215207683Y-85455253D01*
X215107352Y-85523050D01*
X215017378Y-85555248D01*
X215009446Y-85555667D01*
X214934116Y-85592724D01*
X214908950Y-85650917D01*
X214849963Y-85956434D01*
X214801031Y-86229439D01*
X214763791Y-86459294D01*
X214739884Y-86635359D01*
X214730948Y-86746995D01*
X214734756Y-86781590D01*
X214788978Y-86823638D01*
X214802293Y-86825667D01*
X214862376Y-86841991D01*
X214967656Y-86883252D01*
X215022045Y-86907136D01*
X215130829Y-86955323D01*
X215295558Y-87026839D01*
X215494147Y-87112152D01*
X215704509Y-87201730D01*
X215711043Y-87204499D01*
X216008519Y-87339359D01*
X216234153Y-87464535D01*
X216398635Y-87589236D01*
X216512653Y-87722667D01*
X216586899Y-87874037D01*
X216618900Y-87986435D01*
X216634329Y-88104936D01*
X216626478Y-88238389D01*
X216592064Y-88399207D01*
X216527804Y-88599803D01*
X216430412Y-88852587D01*
X216320267Y-89115105D01*
X216212407Y-89367102D01*
X216100071Y-89631243D01*
X215994956Y-89879918D01*
X215908762Y-90085517D01*
X215891244Y-90127667D01*
X215819088Y-90301560D01*
X215757862Y-90448831D01*
X215715603Y-90550159D01*
X215701895Y-90582750D01*
X215695542Y-90618525D01*
X215724355Y-90631186D01*
X215800101Y-90619197D01*
X215934548Y-90581020D01*
X216086380Y-90532516D01*
X216628664Y-90315333D01*
X217149263Y-90028653D01*
X217631630Y-89683504D01*
X218059219Y-89290915D01*
X218224556Y-89107389D01*
X218378547Y-88924971D01*
X218485614Y-88796360D01*
X218553962Y-88711102D01*
X218591795Y-88658743D01*
X218607316Y-88628830D01*
X218609334Y-88617100D01*
X218634423Y-88566450D01*
X218669301Y-88522334D01*
X218741345Y-88418731D01*
X218832629Y-88253004D01*
X218935000Y-88043140D01*
X219040307Y-87807129D01*
X219140398Y-87562959D01*
X219227121Y-87328618D01*
X219271278Y-87193951D01*
X219397840Y-86736300D01*
X219484292Y-86306690D01*
X219535724Y-85871214D01*
X219557224Y-85395965D01*
X219558454Y-85280500D01*
X219554804Y-84995608D01*
X219538482Y-84732484D01*
X219506228Y-84477552D01*
X219454780Y-84217238D01*
X219380877Y-83937967D01*
X219281258Y-83626166D01*
X219152662Y-83268258D01*
X218991827Y-82850670D01*
X218948242Y-82740500D01*
X218746448Y-82219879D01*
X218580924Y-81762154D01*
X218448792Y-81355150D01*
X218347176Y-80986691D01*
X218273198Y-80644599D01*
X218223981Y-80316701D01*
X218196648Y-79990818D01*
X218188321Y-79654775D01*
X218189417Y-79529272D01*
X218209497Y-79123006D01*
X218254569Y-78668612D01*
X218320233Y-78197363D01*
X218402087Y-77740533D01*
X218495732Y-77329394D01*
X218502746Y-77302635D01*
X218534156Y-77175319D01*
X218551651Y-77086764D01*
X218552614Y-77060503D01*
X218515247Y-77078347D01*
X218422313Y-77135882D01*
X218287396Y-77223948D01*
X218124081Y-77333385D01*
X217945952Y-77455033D01*
X217766594Y-77579732D01*
X217599592Y-77698321D01*
X217508667Y-77764428D01*
X217357790Y-77873673D01*
X217205795Y-77980938D01*
X217109819Y-78046650D01*
X217000673Y-78120804D01*
X216918150Y-78179048D01*
X216898153Y-78194145D01*
X216759944Y-78303102D01*
X216629918Y-78400694D01*
X216486495Y-78502347D01*
X216308092Y-78623489D01*
X216154000Y-78726051D01*
X215983998Y-78838199D01*
X215835618Y-78934369D01*
X215697219Y-79021205D01*
X215557163Y-79105353D01*
X215403811Y-79193457D01*
X215225524Y-79292163D01*
X215010662Y-79408115D01*
X214747585Y-79547958D01*
X214424656Y-79718338D01*
X214312500Y-79777381D01*
X214115940Y-79882177D01*
X213931413Y-79982949D01*
X213780457Y-80067794D01*
X213688925Y-80122065D01*
X213587487Y-80182659D01*
X213517976Y-80217973D01*
X213505154Y-80221667D01*
X213462840Y-80243691D01*
X213372388Y-80300341D01*
X213254878Y-80377484D01*
X213131387Y-80460986D01*
X213022995Y-80536713D01*
X212950781Y-80590532D01*
X212936667Y-80602840D01*
X212896262Y-80636842D01*
X212805105Y-80710658D01*
X212678891Y-80811632D01*
X212598000Y-80875916D01*
X212113207Y-81295761D01*
X211641115Y-81772367D01*
X211196579Y-82287809D01*
X210794454Y-82824160D01*
X210449597Y-83363495D01*
X210281050Y-83671834D01*
X210028257Y-84258857D01*
X209854856Y-84868127D01*
X209761386Y-85491609D01*
X209748385Y-86121271D01*
X209648575Y-86121271D01*
X209639385Y-86015639D01*
X209664577Y-85381622D01*
X209770749Y-84758146D01*
X209873727Y-84391500D01*
X209990000Y-84084382D01*
X210149644Y-83736245D01*
X210340438Y-83369932D01*
X210550160Y-83008283D01*
X210766590Y-82674141D01*
X210870305Y-82528834D01*
X211062126Y-82286690D01*
X211299448Y-82013494D01*
X211568157Y-81723370D01*
X211854141Y-81430446D01*
X212143287Y-81148847D01*
X212421484Y-80892700D01*
X212674617Y-80676131D01*
X212873167Y-80524033D01*
X213088421Y-80376341D01*
X213313620Y-80230744D01*
X213560915Y-80080122D01*
X213842459Y-79917360D01*
X214170401Y-79735340D01*
X214556894Y-79526945D01*
X214757000Y-79420631D01*
X215286435Y-79129897D01*
X215782850Y-78833814D01*
X216274035Y-78514892D01*
X216787784Y-78155636D01*
X216924645Y-78056270D01*
X217205126Y-77853785D01*
X217484118Y-77656963D01*
X217752900Y-77471544D01*
X218002748Y-77303263D01*
X218224940Y-77157859D01*
X218410753Y-77041069D01*
X218551464Y-76958629D01*
X218638351Y-76916278D01*
X218662282Y-76913349D01*
X218666754Y-76965934D01*
G37*
X218666754Y-76965934D02*
X218652638Y-77081992D01*
X218622733Y-77243076D01*
X218590171Y-77388436D01*
X218448437Y-78053342D01*
X218355006Y-78669539D01*
X218307345Y-79256023D01*
X218299755Y-79565500D01*
X218303460Y-79904285D01*
X218320120Y-80214347D01*
X218352903Y-80509663D01*
X218404979Y-80804209D01*
X218479519Y-81111961D01*
X218579690Y-81446896D01*
X218708663Y-81822989D01*
X218869607Y-82254218D01*
X218965429Y-82500921D01*
X219144753Y-82964410D01*
X219292168Y-83362404D01*
X219410411Y-83706661D01*
X219502220Y-84008937D01*
X219570332Y-84280992D01*
X219617487Y-84534582D01*
X219646420Y-84781465D01*
X219659871Y-85033399D01*
X219660576Y-85302142D01*
X219656304Y-85467969D01*
X219626778Y-85958638D01*
X219569156Y-86403089D01*
X219477025Y-86836950D01*
X219343970Y-87295845D01*
X219306963Y-87408501D01*
X219058039Y-88025142D01*
X218742046Y-88592737D01*
X218362763Y-89107547D01*
X217923970Y-89565833D01*
X217429446Y-89963856D01*
X216882972Y-90297877D01*
X216288327Y-90564157D01*
X216025351Y-90654822D01*
X215794833Y-90722439D01*
X215637676Y-90755937D01*
X215549948Y-90755754D01*
X215527717Y-90722327D01*
X215531549Y-90709750D01*
X215553131Y-90658438D01*
X215603453Y-90539549D01*
X215678129Y-90363424D01*
X215772773Y-90140404D01*
X215882997Y-89880829D01*
X216004415Y-89595039D01*
X216029929Y-89535000D01*
X216186234Y-89163855D01*
X216309873Y-88860493D01*
X216403288Y-88615652D01*
X216468921Y-88420070D01*
X216509212Y-88264484D01*
X216526602Y-88139633D01*
X216523533Y-88036253D01*
X216502445Y-87945084D01*
X216469929Y-87865502D01*
X216416753Y-87770613D01*
X216347101Y-87685527D01*
X216250623Y-87603704D01*
X216116969Y-87518603D01*
X215935789Y-87423682D01*
X215696734Y-87312402D01*
X215389452Y-87178221D01*
X215367558Y-87168845D01*
X215106766Y-87056737D01*
X214913979Y-86971626D01*
X214779179Y-86907638D01*
X214692348Y-86858896D01*
X214643467Y-86819526D01*
X214622518Y-86783651D01*
X214619481Y-86745396D01*
X214620744Y-86730858D01*
X214632506Y-86647248D01*
X214656099Y-86500132D01*
X214688246Y-86309313D01*
X214725670Y-86094592D01*
X214730846Y-86065424D01*
X214766107Y-85861911D01*
X214793728Y-85692216D01*
X214811351Y-85571648D01*
X214816620Y-85515519D01*
X214815833Y-85513334D01*
X214787818Y-85545764D01*
X214719442Y-85635096D01*
X214619632Y-85769385D01*
X214497314Y-85936690D01*
X214432744Y-86025887D01*
X214299658Y-86207155D01*
X214181031Y-86362868D01*
X214086811Y-86480403D01*
X214026951Y-86547141D01*
X214013785Y-86557272D01*
X213961189Y-86547400D01*
X213843605Y-86508781D01*
X213673811Y-86446146D01*
X213464586Y-86364231D01*
X213228708Y-86267767D01*
X213201478Y-86256385D01*
X212886460Y-86127480D01*
X212635255Y-86033391D01*
X212435533Y-85971918D01*
X212274962Y-85940857D01*
X212141211Y-85938006D01*
X212021950Y-85961162D01*
X211904847Y-86008122D01*
X211880212Y-86020375D01*
X211754253Y-86102566D01*
X211649631Y-86200322D01*
X211633169Y-86221458D01*
X211595837Y-86289585D01*
X211530774Y-86424922D01*
X211442892Y-86616556D01*
X211337105Y-86853576D01*
X211218325Y-87125070D01*
X211091464Y-87420127D01*
X211056385Y-87502603D01*
X210930731Y-87797131D01*
X210814439Y-88066675D01*
X210711916Y-88301266D01*
X210627564Y-88490933D01*
X210565788Y-88625706D01*
X210530992Y-88695615D01*
X210526248Y-88702686D01*
X210489642Y-88686847D01*
X210425757Y-88608898D01*
X210343335Y-88483353D01*
X210251116Y-88324725D01*
X210157838Y-88147527D01*
X210072244Y-87966274D01*
X210045971Y-87905167D01*
X209830453Y-87284988D01*
X209694801Y-86652620D01*
X209648575Y-86121271D01*
X209748385Y-86121271D01*
X209816391Y-86749080D01*
X209965943Y-87367004D01*
X210022027Y-87535804D01*
X210090038Y-87716606D01*
X210171526Y-87915041D01*
X210258111Y-88112698D01*
X210341413Y-88291170D01*
X210413050Y-88432050D01*
X210464642Y-88516927D01*
X210473372Y-88527184D01*
X210497929Y-88499637D01*
X210548471Y-88405246D01*
X210619422Y-88255734D01*
X210705208Y-88062821D01*
X210795446Y-87849851D01*
X210921915Y-87545823D01*
X211027564Y-87294814D01*
X211123367Y-87071375D01*
X211220296Y-86850053D01*
X211329325Y-86605398D01*
X211394928Y-86459436D01*
X211435728Y-86358683D01*
X211454809Y-86291566D01*
X211455000Y-86288110D01*
X211483051Y-86239498D01*
X211555080Y-86155399D01*
X211617748Y-86091264D01*
X211783101Y-85967879D01*
X211985185Y-85871447D01*
X212187712Y-85817399D01*
X212276645Y-85811071D01*
X212369670Y-85830120D01*
X212537834Y-85885205D01*
X212779881Y-85975855D01*
X213094560Y-86101598D01*
X213480617Y-86261961D01*
X213533396Y-86284234D01*
X213981958Y-86473821D01*
X214330724Y-85986519D01*
X214469061Y-85791095D01*
X214563197Y-85650788D01*
X214619656Y-85552926D01*
X214644964Y-85484838D01*
X214645648Y-85433852D01*
X214633579Y-85398450D01*
X214588157Y-85218509D01*
X214591720Y-85195834D01*
X214672334Y-85195834D01*
X214701777Y-85305336D01*
X214757000Y-85386334D01*
X214857852Y-85450381D01*
X214947500Y-85471000D01*
X215057002Y-85441557D01*
X215138000Y-85386334D01*
X215208665Y-85263128D01*
X215213843Y-85122211D01*
X215152606Y-84998084D01*
X215043542Y-84931429D01*
X214916632Y-84928148D01*
X214796227Y-84978213D01*
X214706681Y-85071599D01*
X214672334Y-85195834D01*
X214591720Y-85195834D01*
X214613527Y-85057092D01*
X214700641Y-84929820D01*
X214840452Y-84852312D01*
X214959363Y-84836000D01*
X215118315Y-84870620D01*
X215237636Y-84961322D01*
X215309413Y-85088373D01*
X215325733Y-85232039D01*
X215278683Y-85372586D01*
X215207683Y-85455253D01*
X215107352Y-85523050D01*
X215017378Y-85555248D01*
X215009446Y-85555667D01*
X214934116Y-85592724D01*
X214908950Y-85650917D01*
X214849963Y-85956434D01*
X214801031Y-86229439D01*
X214763791Y-86459294D01*
X214739884Y-86635359D01*
X214730948Y-86746995D01*
X214734756Y-86781590D01*
X214788978Y-86823638D01*
X214802293Y-86825667D01*
X214862376Y-86841991D01*
X214967656Y-86883252D01*
X215022045Y-86907136D01*
X215130829Y-86955323D01*
X215295558Y-87026839D01*
X215494147Y-87112152D01*
X215704509Y-87201730D01*
X215711043Y-87204499D01*
X216008519Y-87339359D01*
X216234153Y-87464535D01*
X216398635Y-87589236D01*
X216512653Y-87722667D01*
X216586899Y-87874037D01*
X216618900Y-87986435D01*
X216634329Y-88104936D01*
X216626478Y-88238389D01*
X216592064Y-88399207D01*
X216527804Y-88599803D01*
X216430412Y-88852587D01*
X216320267Y-89115105D01*
X216212407Y-89367102D01*
X216100071Y-89631243D01*
X215994956Y-89879918D01*
X215908762Y-90085517D01*
X215891244Y-90127667D01*
X215819088Y-90301560D01*
X215757862Y-90448831D01*
X215715603Y-90550159D01*
X215701895Y-90582750D01*
X215695542Y-90618525D01*
X215724355Y-90631186D01*
X215800101Y-90619197D01*
X215934548Y-90581020D01*
X216086380Y-90532516D01*
X216628664Y-90315333D01*
X217149263Y-90028653D01*
X217631630Y-89683504D01*
X218059219Y-89290915D01*
X218224556Y-89107389D01*
X218378547Y-88924971D01*
X218485614Y-88796360D01*
X218553962Y-88711102D01*
X218591795Y-88658743D01*
X218607316Y-88628830D01*
X218609334Y-88617100D01*
X218634423Y-88566450D01*
X218669301Y-88522334D01*
X218741345Y-88418731D01*
X218832629Y-88253004D01*
X218935000Y-88043140D01*
X219040307Y-87807129D01*
X219140398Y-87562959D01*
X219227121Y-87328618D01*
X219271278Y-87193951D01*
X219397840Y-86736300D01*
X219484292Y-86306690D01*
X219535724Y-85871214D01*
X219557224Y-85395965D01*
X219558454Y-85280500D01*
X219554804Y-84995608D01*
X219538482Y-84732484D01*
X219506228Y-84477552D01*
X219454780Y-84217238D01*
X219380877Y-83937967D01*
X219281258Y-83626166D01*
X219152662Y-83268258D01*
X218991827Y-82850670D01*
X218948242Y-82740500D01*
X218746448Y-82219879D01*
X218580924Y-81762154D01*
X218448792Y-81355150D01*
X218347176Y-80986691D01*
X218273198Y-80644599D01*
X218223981Y-80316701D01*
X218196648Y-79990818D01*
X218188321Y-79654775D01*
X218189417Y-79529272D01*
X218209497Y-79123006D01*
X218254569Y-78668612D01*
X218320233Y-78197363D01*
X218402087Y-77740533D01*
X218495732Y-77329394D01*
X218502746Y-77302635D01*
X218534156Y-77175319D01*
X218551651Y-77086764D01*
X218552614Y-77060503D01*
X218515247Y-77078347D01*
X218422313Y-77135882D01*
X218287396Y-77223948D01*
X218124081Y-77333385D01*
X217945952Y-77455033D01*
X217766594Y-77579732D01*
X217599592Y-77698321D01*
X217508667Y-77764428D01*
X217357790Y-77873673D01*
X217205795Y-77980938D01*
X217109819Y-78046650D01*
X217000673Y-78120804D01*
X216918150Y-78179048D01*
X216898153Y-78194145D01*
X216759944Y-78303102D01*
X216629918Y-78400694D01*
X216486495Y-78502347D01*
X216308092Y-78623489D01*
X216154000Y-78726051D01*
X215983998Y-78838199D01*
X215835618Y-78934369D01*
X215697219Y-79021205D01*
X215557163Y-79105353D01*
X215403811Y-79193457D01*
X215225524Y-79292163D01*
X215010662Y-79408115D01*
X214747585Y-79547958D01*
X214424656Y-79718338D01*
X214312500Y-79777381D01*
X214115940Y-79882177D01*
X213931413Y-79982949D01*
X213780457Y-80067794D01*
X213688925Y-80122065D01*
X213587487Y-80182659D01*
X213517976Y-80217973D01*
X213505154Y-80221667D01*
X213462840Y-80243691D01*
X213372388Y-80300341D01*
X213254878Y-80377484D01*
X213131387Y-80460986D01*
X213022995Y-80536713D01*
X212950781Y-80590532D01*
X212936667Y-80602840D01*
X212896262Y-80636842D01*
X212805105Y-80710658D01*
X212678891Y-80811632D01*
X212598000Y-80875916D01*
X212113207Y-81295761D01*
X211641115Y-81772367D01*
X211196579Y-82287809D01*
X210794454Y-82824160D01*
X210449597Y-83363495D01*
X210281050Y-83671834D01*
X210028257Y-84258857D01*
X209854856Y-84868127D01*
X209761386Y-85491609D01*
X209748385Y-86121271D01*
X209648575Y-86121271D01*
X209639385Y-86015639D01*
X209664577Y-85381622D01*
X209770749Y-84758146D01*
X209873727Y-84391500D01*
X209990000Y-84084382D01*
X210149644Y-83736245D01*
X210340438Y-83369932D01*
X210550160Y-83008283D01*
X210766590Y-82674141D01*
X210870305Y-82528834D01*
X211062126Y-82286690D01*
X211299448Y-82013494D01*
X211568157Y-81723370D01*
X211854141Y-81430446D01*
X212143287Y-81148847D01*
X212421484Y-80892700D01*
X212674617Y-80676131D01*
X212873167Y-80524033D01*
X213088421Y-80376341D01*
X213313620Y-80230744D01*
X213560915Y-80080122D01*
X213842459Y-79917360D01*
X214170401Y-79735340D01*
X214556894Y-79526945D01*
X214757000Y-79420631D01*
X215286435Y-79129897D01*
X215782850Y-78833814D01*
X216274035Y-78514892D01*
X216787784Y-78155636D01*
X216924645Y-78056270D01*
X217205126Y-77853785D01*
X217484118Y-77656963D01*
X217752900Y-77471544D01*
X218002748Y-77303263D01*
X218224940Y-77157859D01*
X218410753Y-77041069D01*
X218551464Y-76958629D01*
X218638351Y-76916278D01*
X218662282Y-76913349D01*
X218666754Y-76965934D01*
D12*
X86106000Y-121690000D02*
X86106000Y-122460000D01*
X86106000Y-129770000D02*
X86106000Y-129000000D01*
X84736000Y-122460000D02*
X84736000Y-129000000D01*
X87476000Y-122460000D02*
X84736000Y-122460000D01*
X87476000Y-129000000D02*
X87476000Y-122460000D01*
X84736000Y-129000000D02*
X87476000Y-129000000D01*
D13*
X103890000Y-131196000D02*
X103890000Y-131796000D01*
X103890000Y-131796000D02*
X102690000Y-131796000D01*
X103890000Y-118196000D02*
X103890000Y-117596000D01*
X103890000Y-117596000D02*
X102490000Y-117596000D01*
X91690000Y-118196000D02*
X91690000Y-117596000D01*
X91690000Y-117596000D02*
X93190000Y-117596000D01*
X91690000Y-130496000D02*
X91690000Y-130896000D01*
X91690000Y-130896000D02*
X92590000Y-131796000D01*
X92590000Y-131796000D02*
X92890000Y-131796000D01*
X92890000Y-131796000D02*
X92890000Y-131996000D01*
D12*
X219988000Y-72390000D02*
X220758000Y-72390000D01*
X228068000Y-72390000D02*
X227298000Y-72390000D01*
X220758000Y-73760000D02*
X227298000Y-73760000D01*
X220758000Y-71020000D02*
X220758000Y-73760000D01*
X227298000Y-71020000D02*
X220758000Y-71020000D01*
X227298000Y-73760000D02*
X227298000Y-71020000D01*
D13*
X177218000Y-131796000D02*
X177218000Y-131996000D01*
X176918000Y-131796000D02*
X177218000Y-131796000D01*
X176018000Y-130896000D02*
X176918000Y-131796000D01*
X176018000Y-130496000D02*
X176018000Y-130896000D01*
X176018000Y-117596000D02*
X177518000Y-117596000D01*
X176018000Y-118196000D02*
X176018000Y-117596000D01*
X188218000Y-117596000D02*
X186818000Y-117596000D01*
X188218000Y-118196000D02*
X188218000Y-117596000D01*
X188218000Y-131796000D02*
X187018000Y-131796000D01*
X188218000Y-131196000D02*
X188218000Y-131796000D01*
X194062000Y-131796000D02*
X194062000Y-131996000D01*
X193762000Y-131796000D02*
X194062000Y-131796000D01*
X192862000Y-130896000D02*
X193762000Y-131796000D01*
X192862000Y-130496000D02*
X192862000Y-130896000D01*
X192862000Y-117596000D02*
X194362000Y-117596000D01*
X192862000Y-118196000D02*
X192862000Y-117596000D01*
X205062000Y-117596000D02*
X203662000Y-117596000D01*
X205062000Y-118196000D02*
X205062000Y-117596000D01*
X205062000Y-131796000D02*
X203862000Y-131796000D01*
X205062000Y-131196000D02*
X205062000Y-131796000D01*
D12*
X188522000Y-98968000D02*
X191462000Y-98968000D01*
X188522000Y-98728000D02*
X191462000Y-98728000D01*
X188522000Y-98848000D02*
X191462000Y-98848000D01*
X189992000Y-93288000D02*
X189992000Y-94308000D01*
X189992000Y-100768000D02*
X189992000Y-99748000D01*
X188522000Y-94308000D02*
X188522000Y-99748000D01*
X191462000Y-94308000D02*
X188522000Y-94308000D01*
X191462000Y-99748000D02*
X191462000Y-94308000D01*
X188522000Y-99748000D02*
X191462000Y-99748000D01*
X156518000Y-98714000D02*
X159458000Y-98714000D01*
X156518000Y-98474000D02*
X159458000Y-98474000D01*
X156518000Y-98594000D02*
X159458000Y-98594000D01*
X157988000Y-93034000D02*
X157988000Y-94054000D01*
X157988000Y-100514000D02*
X157988000Y-99494000D01*
X156518000Y-94054000D02*
X156518000Y-99494000D01*
X159458000Y-94054000D02*
X156518000Y-94054000D01*
X159458000Y-99494000D02*
X159458000Y-94054000D01*
X156518000Y-99494000D02*
X159458000Y-99494000D01*
X129340000Y-93634000D02*
X132280000Y-93634000D01*
X129340000Y-93394000D02*
X132280000Y-93394000D01*
X129340000Y-93514000D02*
X132280000Y-93514000D01*
X130810000Y-87954000D02*
X130810000Y-88974000D01*
X130810000Y-95434000D02*
X130810000Y-94414000D01*
X129340000Y-88974000D02*
X129340000Y-94414000D01*
X132280000Y-88974000D02*
X129340000Y-88974000D01*
X132280000Y-94414000D02*
X132280000Y-88974000D01*
X129340000Y-94414000D02*
X132280000Y-94414000D01*
D13*
X110256000Y-63206000D02*
X110756000Y-63206000D01*
X110256000Y-63206000D02*
X110256000Y-63706000D01*
X120456000Y-63206000D02*
X120456000Y-63706000D01*
X120456000Y-63206000D02*
X119956000Y-63206000D01*
X120456000Y-70906000D02*
X119956000Y-70906000D01*
X120456000Y-70906000D02*
X120456000Y-70456000D01*
X110256000Y-70906000D02*
X110256000Y-70456000D01*
X110256000Y-70906000D02*
X110756000Y-70906000D01*
X122100000Y-131796000D02*
X122100000Y-131996000D01*
X121800000Y-131796000D02*
X122100000Y-131796000D01*
X120900000Y-130896000D02*
X121800000Y-131796000D01*
X120900000Y-130496000D02*
X120900000Y-130896000D01*
X120900000Y-117596000D02*
X122400000Y-117596000D01*
X120900000Y-118196000D02*
X120900000Y-117596000D01*
X133100000Y-117596000D02*
X131700000Y-117596000D01*
X133100000Y-118196000D02*
X133100000Y-117596000D01*
X133100000Y-131796000D02*
X131900000Y-131796000D01*
X133100000Y-131196000D02*
X133100000Y-131796000D01*
X148594000Y-131196000D02*
X148594000Y-131796000D01*
X148594000Y-131796000D02*
X147394000Y-131796000D01*
X148594000Y-118196000D02*
X148594000Y-117596000D01*
X148594000Y-117596000D02*
X147194000Y-117596000D01*
X136394000Y-118196000D02*
X136394000Y-117596000D01*
X136394000Y-117596000D02*
X137894000Y-117596000D01*
X136394000Y-130496000D02*
X136394000Y-130896000D01*
X136394000Y-130896000D02*
X137294000Y-131796000D01*
X137294000Y-131796000D02*
X137594000Y-131796000D01*
X137594000Y-131796000D02*
X137594000Y-131996000D01*
X163834000Y-131196000D02*
X163834000Y-131796000D01*
X163834000Y-131796000D02*
X162634000Y-131796000D01*
X163834000Y-118196000D02*
X163834000Y-117596000D01*
X163834000Y-117596000D02*
X162434000Y-117596000D01*
X151634000Y-118196000D02*
X151634000Y-117596000D01*
X151634000Y-117596000D02*
X153134000Y-117596000D01*
X151634000Y-130496000D02*
X151634000Y-130896000D01*
X151634000Y-130896000D02*
X152534000Y-131796000D01*
X152534000Y-131796000D02*
X152834000Y-131796000D01*
X152834000Y-131796000D02*
X152834000Y-131996000D01*
X219890000Y-131796000D02*
X219890000Y-131996000D01*
X219590000Y-131796000D02*
X219890000Y-131796000D01*
X218690000Y-130896000D02*
X219590000Y-131796000D01*
X218690000Y-130496000D02*
X218690000Y-130896000D01*
X218690000Y-117596000D02*
X220190000Y-117596000D01*
X218690000Y-118196000D02*
X218690000Y-117596000D01*
X230890000Y-117596000D02*
X229490000Y-117596000D01*
X230890000Y-118196000D02*
X230890000Y-117596000D01*
X230890000Y-131796000D02*
X229690000Y-131796000D01*
X230890000Y-131196000D02*
X230890000Y-131796000D01*
X228750000Y-79124000D02*
X228750000Y-78624000D01*
X228750000Y-79124000D02*
X228250000Y-79124000D01*
X220850000Y-79124000D02*
X221350000Y-79124000D01*
X220850000Y-79124000D02*
X220850000Y-78624000D01*
X220850000Y-76324000D02*
X220850000Y-76824000D01*
X220850000Y-76324000D02*
X221350000Y-76324000D01*
X228750000Y-76324000D02*
X228750000Y-76824000D01*
X228750000Y-76324000D02*
X228250000Y-76324000D01*
X142006000Y-71160000D02*
X142506000Y-71160000D01*
X142006000Y-71160000D02*
X142006000Y-70710000D01*
X152206000Y-71160000D02*
X152206000Y-70710000D01*
X152206000Y-71160000D02*
X151706000Y-71160000D01*
X152206000Y-63460000D02*
X151706000Y-63460000D01*
X152206000Y-63460000D02*
X152206000Y-63960000D01*
X142006000Y-63460000D02*
X142006000Y-63960000D01*
X142006000Y-63460000D02*
X142506000Y-63460000D01*
X173502000Y-63206000D02*
X174002000Y-63206000D01*
X173502000Y-63206000D02*
X173502000Y-63706000D01*
X183702000Y-63206000D02*
X183702000Y-63706000D01*
X183702000Y-63206000D02*
X183202000Y-63206000D01*
X183702000Y-70906000D02*
X183202000Y-70906000D01*
X183702000Y-70906000D02*
X183702000Y-70456000D01*
X173502000Y-70906000D02*
X173502000Y-70456000D01*
X173502000Y-70906000D02*
X174002000Y-70906000D01*
D14*
X71062010Y-73210000D02*
X65081990Y-73210000D01*
X65081990Y-73210000D02*
X65081990Y-119830000D01*
X65081990Y-119830000D02*
X71062010Y-119830000D01*
X71062010Y-119830000D02*
X71062010Y-73210000D01*
D13*
X222814000Y-93698000D02*
X221814000Y-93698000D01*
X222814000Y-102898000D02*
X221814000Y-102898000D01*
X215514000Y-93698000D02*
X216014000Y-93698000D01*
X215514000Y-93698000D02*
X215514000Y-94198000D01*
X215514000Y-102898000D02*
X215514000Y-102398000D01*
X215514000Y-102898000D02*
X216014000Y-102898000D01*
X224514000Y-99498000D02*
X224514000Y-97098000D01*
X230114000Y-102898000D02*
X229614000Y-102898000D01*
X230114000Y-102898000D02*
X230114000Y-102398000D01*
X230114000Y-93698000D02*
X229614000Y-93698000D01*
X230114000Y-93698000D02*
X230114000Y-94198000D01*
D15*
X101140000Y-74676000D02*
X101140000Y-92276000D01*
X101140000Y-92276000D02*
X103500000Y-92276000D01*
X103500000Y-92276000D02*
X103500000Y-107186000D01*
X103500000Y-107186000D02*
X123790000Y-107186000D01*
X123790000Y-107186000D02*
X123790000Y-87476000D01*
X123790000Y-87476000D02*
X128570000Y-87476000D01*
X128570000Y-87476000D02*
X128570000Y-74676000D01*
X128570000Y-74676000D02*
X101140000Y-74676000D01*
D14*
X102320000Y-100076000D02*
G75*
G03X102320000Y-100076000I-100000J0D01*
G01*
X134070000Y-100076000D02*
G75*
G03X134070000Y-100076000I-100000J0D01*
G01*
D15*
X160320000Y-74676000D02*
X132890000Y-74676000D01*
X160320000Y-87476000D02*
X160320000Y-74676000D01*
X155540000Y-87476000D02*
X160320000Y-87476000D01*
X155540000Y-107186000D02*
X155540000Y-87476000D01*
X135250000Y-107186000D02*
X155540000Y-107186000D01*
X135250000Y-92276000D02*
X135250000Y-107186000D01*
X132890000Y-92276000D02*
X135250000Y-92276000D01*
X132890000Y-74676000D02*
X132890000Y-92276000D01*
X164640000Y-74676000D02*
X164640000Y-92276000D01*
X164640000Y-92276000D02*
X167000000Y-92276000D01*
X167000000Y-92276000D02*
X167000000Y-107186000D01*
X167000000Y-107186000D02*
X187290000Y-107186000D01*
X187290000Y-107186000D02*
X187290000Y-87476000D01*
X187290000Y-87476000D02*
X192070000Y-87476000D01*
X192070000Y-87476000D02*
X192070000Y-74676000D01*
X192070000Y-74676000D02*
X164640000Y-74676000D01*
D14*
X165820000Y-100076000D02*
G75*
G03X165820000Y-100076000I-100000J0D01*
G01*
D13*
X82850000Y-97440000D02*
X82850000Y-97640000D01*
X82850000Y-97640000D02*
X83150000Y-97640000D01*
X89450000Y-97640000D02*
X89750000Y-97640000D01*
X89750000Y-97640000D02*
X89750000Y-97440000D01*
X82470000Y-77540000D02*
X82220000Y-77540000D01*
X82850000Y-77540000D02*
X82480000Y-77540000D01*
X84150000Y-76540000D02*
X83850000Y-76540000D01*
X83850000Y-76540000D02*
X82850000Y-77540000D01*
X89830000Y-77130000D02*
X89830000Y-76730000D01*
X89830000Y-76730000D02*
X89430000Y-76730000D01*
X199564000Y-99148000D02*
X199564000Y-99473000D01*
X199564000Y-99473000D02*
X199814000Y-99473000D01*
X207314000Y-99148000D02*
X207314000Y-99473000D01*
X207314000Y-99473000D02*
X207039000Y-99473000D01*
X206939000Y-84223000D02*
X207339000Y-84223000D01*
X207339000Y-84223000D02*
X207339000Y-84648000D01*
X199589000Y-84598000D02*
X199589000Y-84223000D01*
X199589000Y-84223000D02*
X199939000Y-84223000D01*
D10*
X84188380Y-125896666D02*
X83712190Y-126230000D01*
X84188380Y-126468095D02*
X83188380Y-126468095D01*
X83188380Y-126087142D01*
X83236000Y-125991904D01*
X83283619Y-125944285D01*
X83378857Y-125896666D01*
X83521714Y-125896666D01*
X83616952Y-125944285D01*
X83664571Y-125991904D01*
X83712190Y-126087142D01*
X83712190Y-126468095D01*
X83521714Y-125039523D02*
X84188380Y-125039523D01*
X83140761Y-125277619D02*
X83855047Y-125515714D01*
X83855047Y-124896666D01*
X91147142Y-126110285D02*
X91194761Y-126157904D01*
X91242380Y-126300761D01*
X91242380Y-126396000D01*
X91194761Y-126538857D01*
X91099523Y-126634095D01*
X91004285Y-126681714D01*
X90813809Y-126729333D01*
X90670952Y-126729333D01*
X90480476Y-126681714D01*
X90385238Y-126634095D01*
X90290000Y-126538857D01*
X90242380Y-126396000D01*
X90242380Y-126300761D01*
X90290000Y-126157904D01*
X90337619Y-126110285D01*
X90242380Y-125491238D02*
X90242380Y-125300761D01*
X90290000Y-125205523D01*
X90385238Y-125110285D01*
X90575714Y-125062666D01*
X90909047Y-125062666D01*
X91099523Y-125110285D01*
X91194761Y-125205523D01*
X91242380Y-125300761D01*
X91242380Y-125491238D01*
X91194761Y-125586476D01*
X91099523Y-125681714D01*
X90909047Y-125729333D01*
X90575714Y-125729333D01*
X90385238Y-125681714D01*
X90290000Y-125586476D01*
X90242380Y-125491238D01*
X91242380Y-124634095D02*
X90242380Y-124634095D01*
X91242380Y-124062666D01*
X90242380Y-124062666D01*
X90337619Y-123634095D02*
X90290000Y-123586476D01*
X90242380Y-123491238D01*
X90242380Y-123253142D01*
X90290000Y-123157904D01*
X90337619Y-123110285D01*
X90432857Y-123062666D01*
X90528095Y-123062666D01*
X90670952Y-123110285D01*
X91242380Y-123681714D01*
X91242380Y-123062666D01*
X223861333Y-75212380D02*
X223528000Y-74736190D01*
X223289904Y-75212380D02*
X223289904Y-74212380D01*
X223670857Y-74212380D01*
X223766095Y-74260000D01*
X223813714Y-74307619D01*
X223861333Y-74402857D01*
X223861333Y-74545714D01*
X223813714Y-74640952D01*
X223766095Y-74688571D01*
X223670857Y-74736190D01*
X223289904Y-74736190D01*
X224194666Y-74212380D02*
X224813714Y-74212380D01*
X224480380Y-74593333D01*
X224623238Y-74593333D01*
X224718476Y-74640952D01*
X224766095Y-74688571D01*
X224813714Y-74783809D01*
X224813714Y-75021904D01*
X224766095Y-75117142D01*
X224718476Y-75164761D01*
X224623238Y-75212380D01*
X224337523Y-75212380D01*
X224242285Y-75164761D01*
X224194666Y-75117142D01*
X175475142Y-126110285D02*
X175522761Y-126157904D01*
X175570380Y-126300761D01*
X175570380Y-126396000D01*
X175522761Y-126538857D01*
X175427523Y-126634095D01*
X175332285Y-126681714D01*
X175141809Y-126729333D01*
X174998952Y-126729333D01*
X174808476Y-126681714D01*
X174713238Y-126634095D01*
X174618000Y-126538857D01*
X174570380Y-126396000D01*
X174570380Y-126300761D01*
X174618000Y-126157904D01*
X174665619Y-126110285D01*
X174570380Y-125491238D02*
X174570380Y-125300761D01*
X174618000Y-125205523D01*
X174713238Y-125110285D01*
X174903714Y-125062666D01*
X175237047Y-125062666D01*
X175427523Y-125110285D01*
X175522761Y-125205523D01*
X175570380Y-125300761D01*
X175570380Y-125491238D01*
X175522761Y-125586476D01*
X175427523Y-125681714D01*
X175237047Y-125729333D01*
X174903714Y-125729333D01*
X174713238Y-125681714D01*
X174618000Y-125586476D01*
X174570380Y-125491238D01*
X175570380Y-124634095D02*
X174570380Y-124634095D01*
X175570380Y-124062666D01*
X174570380Y-124062666D01*
X174903714Y-123157904D02*
X175570380Y-123157904D01*
X174522761Y-123396000D02*
X175237047Y-123634095D01*
X175237047Y-123015047D01*
X192319142Y-126110285D02*
X192366761Y-126157904D01*
X192414380Y-126300761D01*
X192414380Y-126396000D01*
X192366761Y-126538857D01*
X192271523Y-126634095D01*
X192176285Y-126681714D01*
X191985809Y-126729333D01*
X191842952Y-126729333D01*
X191652476Y-126681714D01*
X191557238Y-126634095D01*
X191462000Y-126538857D01*
X191414380Y-126396000D01*
X191414380Y-126300761D01*
X191462000Y-126157904D01*
X191509619Y-126110285D01*
X191414380Y-125491238D02*
X191414380Y-125300761D01*
X191462000Y-125205523D01*
X191557238Y-125110285D01*
X191747714Y-125062666D01*
X192081047Y-125062666D01*
X192271523Y-125110285D01*
X192366761Y-125205523D01*
X192414380Y-125300761D01*
X192414380Y-125491238D01*
X192366761Y-125586476D01*
X192271523Y-125681714D01*
X192081047Y-125729333D01*
X191747714Y-125729333D01*
X191557238Y-125681714D01*
X191462000Y-125586476D01*
X191414380Y-125491238D01*
X192414380Y-124634095D02*
X191414380Y-124634095D01*
X192414380Y-124062666D01*
X191414380Y-124062666D01*
X192414380Y-123062666D02*
X192414380Y-123634095D01*
X192414380Y-123348380D02*
X191414380Y-123348380D01*
X191557238Y-123443619D01*
X191652476Y-123538857D01*
X191700095Y-123634095D01*
X187974380Y-97766095D02*
X186974380Y-97766095D01*
X186974380Y-97528000D01*
X187022000Y-97385142D01*
X187117238Y-97289904D01*
X187212476Y-97242285D01*
X187402952Y-97194666D01*
X187545809Y-97194666D01*
X187736285Y-97242285D01*
X187831523Y-97289904D01*
X187926761Y-97385142D01*
X187974380Y-97528000D01*
X187974380Y-97766095D01*
X186974380Y-96861333D02*
X186974380Y-96242285D01*
X187355333Y-96575619D01*
X187355333Y-96432761D01*
X187402952Y-96337523D01*
X187450571Y-96289904D01*
X187545809Y-96242285D01*
X187783904Y-96242285D01*
X187879142Y-96289904D01*
X187926761Y-96337523D01*
X187974380Y-96432761D01*
X187974380Y-96718476D01*
X187926761Y-96813714D01*
X187879142Y-96861333D01*
X188344380Y-102369904D02*
X187344380Y-102369904D01*
X188344380Y-101798476D02*
X187772952Y-102227047D01*
X187344380Y-101798476D02*
X187915809Y-102369904D01*
X155970380Y-97512095D02*
X154970380Y-97512095D01*
X154970380Y-97274000D01*
X155018000Y-97131142D01*
X155113238Y-97035904D01*
X155208476Y-96988285D01*
X155398952Y-96940666D01*
X155541809Y-96940666D01*
X155732285Y-96988285D01*
X155827523Y-97035904D01*
X155922761Y-97131142D01*
X155970380Y-97274000D01*
X155970380Y-97512095D01*
X155065619Y-96559714D02*
X155018000Y-96512095D01*
X154970380Y-96416857D01*
X154970380Y-96178761D01*
X155018000Y-96083523D01*
X155065619Y-96035904D01*
X155160857Y-95988285D01*
X155256095Y-95988285D01*
X155398952Y-96035904D01*
X155970380Y-96607333D01*
X155970380Y-95988285D01*
X156340380Y-102115904D02*
X155340380Y-102115904D01*
X156340380Y-101544476D02*
X155768952Y-101973047D01*
X155340380Y-101544476D02*
X155911809Y-102115904D01*
X128792380Y-92432095D02*
X127792380Y-92432095D01*
X127792380Y-92194000D01*
X127840000Y-92051142D01*
X127935238Y-91955904D01*
X128030476Y-91908285D01*
X128220952Y-91860666D01*
X128363809Y-91860666D01*
X128554285Y-91908285D01*
X128649523Y-91955904D01*
X128744761Y-92051142D01*
X128792380Y-92194000D01*
X128792380Y-92432095D01*
X128792380Y-90908285D02*
X128792380Y-91479714D01*
X128792380Y-91194000D02*
X127792380Y-91194000D01*
X127935238Y-91289238D01*
X128030476Y-91384476D01*
X128078095Y-91479714D01*
X129162380Y-97035904D02*
X128162380Y-97035904D01*
X129162380Y-96464476D02*
X128590952Y-96893047D01*
X128162380Y-96464476D02*
X128733809Y-97035904D01*
X114822666Y-71308380D02*
X114822666Y-72022666D01*
X114775047Y-72165523D01*
X114679809Y-72260761D01*
X114536952Y-72308380D01*
X114441714Y-72308380D01*
X115822666Y-72308380D02*
X115251238Y-72308380D01*
X115536952Y-72308380D02*
X115536952Y-71308380D01*
X115441714Y-71451238D01*
X115346476Y-71546476D01*
X115251238Y-71594095D01*
X120357142Y-126110285D02*
X120404761Y-126157904D01*
X120452380Y-126300761D01*
X120452380Y-126396000D01*
X120404761Y-126538857D01*
X120309523Y-126634095D01*
X120214285Y-126681714D01*
X120023809Y-126729333D01*
X119880952Y-126729333D01*
X119690476Y-126681714D01*
X119595238Y-126634095D01*
X119500000Y-126538857D01*
X119452380Y-126396000D01*
X119452380Y-126300761D01*
X119500000Y-126157904D01*
X119547619Y-126110285D01*
X119452380Y-125491238D02*
X119452380Y-125300761D01*
X119500000Y-125205523D01*
X119595238Y-125110285D01*
X119785714Y-125062666D01*
X120119047Y-125062666D01*
X120309523Y-125110285D01*
X120404761Y-125205523D01*
X120452380Y-125300761D01*
X120452380Y-125491238D01*
X120404761Y-125586476D01*
X120309523Y-125681714D01*
X120119047Y-125729333D01*
X119785714Y-125729333D01*
X119595238Y-125681714D01*
X119500000Y-125586476D01*
X119452380Y-125491238D01*
X120452380Y-124634095D02*
X119452380Y-124634095D01*
X120452380Y-124062666D01*
X119452380Y-124062666D01*
X119452380Y-123681714D02*
X119452380Y-123062666D01*
X119833333Y-123396000D01*
X119833333Y-123253142D01*
X119880952Y-123157904D01*
X119928571Y-123110285D01*
X120023809Y-123062666D01*
X120261904Y-123062666D01*
X120357142Y-123110285D01*
X120404761Y-123157904D01*
X120452380Y-123253142D01*
X120452380Y-123538857D01*
X120404761Y-123634095D01*
X120357142Y-123681714D01*
X135851142Y-126110285D02*
X135898761Y-126157904D01*
X135946380Y-126300761D01*
X135946380Y-126396000D01*
X135898761Y-126538857D01*
X135803523Y-126634095D01*
X135708285Y-126681714D01*
X135517809Y-126729333D01*
X135374952Y-126729333D01*
X135184476Y-126681714D01*
X135089238Y-126634095D01*
X134994000Y-126538857D01*
X134946380Y-126396000D01*
X134946380Y-126300761D01*
X134994000Y-126157904D01*
X135041619Y-126110285D01*
X134946380Y-125491238D02*
X134946380Y-125300761D01*
X134994000Y-125205523D01*
X135089238Y-125110285D01*
X135279714Y-125062666D01*
X135613047Y-125062666D01*
X135803523Y-125110285D01*
X135898761Y-125205523D01*
X135946380Y-125300761D01*
X135946380Y-125491238D01*
X135898761Y-125586476D01*
X135803523Y-125681714D01*
X135613047Y-125729333D01*
X135279714Y-125729333D01*
X135089238Y-125681714D01*
X134994000Y-125586476D01*
X134946380Y-125491238D01*
X135946380Y-124634095D02*
X134946380Y-124634095D01*
X135946380Y-124062666D01*
X134946380Y-124062666D01*
X134946380Y-123110285D02*
X134946380Y-123586476D01*
X135422571Y-123634095D01*
X135374952Y-123586476D01*
X135327333Y-123491238D01*
X135327333Y-123253142D01*
X135374952Y-123157904D01*
X135422571Y-123110285D01*
X135517809Y-123062666D01*
X135755904Y-123062666D01*
X135851142Y-123110285D01*
X135898761Y-123157904D01*
X135946380Y-123253142D01*
X135946380Y-123491238D01*
X135898761Y-123586476D01*
X135851142Y-123634095D01*
X151091142Y-126110285D02*
X151138761Y-126157904D01*
X151186380Y-126300761D01*
X151186380Y-126396000D01*
X151138761Y-126538857D01*
X151043523Y-126634095D01*
X150948285Y-126681714D01*
X150757809Y-126729333D01*
X150614952Y-126729333D01*
X150424476Y-126681714D01*
X150329238Y-126634095D01*
X150234000Y-126538857D01*
X150186380Y-126396000D01*
X150186380Y-126300761D01*
X150234000Y-126157904D01*
X150281619Y-126110285D01*
X150186380Y-125491238D02*
X150186380Y-125300761D01*
X150234000Y-125205523D01*
X150329238Y-125110285D01*
X150519714Y-125062666D01*
X150853047Y-125062666D01*
X151043523Y-125110285D01*
X151138761Y-125205523D01*
X151186380Y-125300761D01*
X151186380Y-125491238D01*
X151138761Y-125586476D01*
X151043523Y-125681714D01*
X150853047Y-125729333D01*
X150519714Y-125729333D01*
X150329238Y-125681714D01*
X150234000Y-125586476D01*
X150186380Y-125491238D01*
X151186380Y-124634095D02*
X150186380Y-124634095D01*
X151186380Y-124062666D01*
X150186380Y-124062666D01*
X150186380Y-123157904D02*
X150186380Y-123348380D01*
X150234000Y-123443619D01*
X150281619Y-123491238D01*
X150424476Y-123586476D01*
X150614952Y-123634095D01*
X150995904Y-123634095D01*
X151091142Y-123586476D01*
X151138761Y-123538857D01*
X151186380Y-123443619D01*
X151186380Y-123253142D01*
X151138761Y-123157904D01*
X151091142Y-123110285D01*
X150995904Y-123062666D01*
X150757809Y-123062666D01*
X150662571Y-123110285D01*
X150614952Y-123157904D01*
X150567333Y-123253142D01*
X150567333Y-123443619D01*
X150614952Y-123538857D01*
X150662571Y-123586476D01*
X150757809Y-123634095D01*
X218147142Y-126110285D02*
X218194761Y-126157904D01*
X218242380Y-126300761D01*
X218242380Y-126396000D01*
X218194761Y-126538857D01*
X218099523Y-126634095D01*
X218004285Y-126681714D01*
X217813809Y-126729333D01*
X217670952Y-126729333D01*
X217480476Y-126681714D01*
X217385238Y-126634095D01*
X217290000Y-126538857D01*
X217242380Y-126396000D01*
X217242380Y-126300761D01*
X217290000Y-126157904D01*
X217337619Y-126110285D01*
X217242380Y-125491238D02*
X217242380Y-125300761D01*
X217290000Y-125205523D01*
X217385238Y-125110285D01*
X217575714Y-125062666D01*
X217909047Y-125062666D01*
X218099523Y-125110285D01*
X218194761Y-125205523D01*
X218242380Y-125300761D01*
X218242380Y-125491238D01*
X218194761Y-125586476D01*
X218099523Y-125681714D01*
X217909047Y-125729333D01*
X217575714Y-125729333D01*
X217385238Y-125681714D01*
X217290000Y-125586476D01*
X217242380Y-125491238D01*
X218242380Y-124634095D02*
X217242380Y-124634095D01*
X218242380Y-124062666D01*
X217242380Y-124062666D01*
X217242380Y-123681714D02*
X217242380Y-123015047D01*
X218242380Y-123443619D01*
X230044666Y-77176380D02*
X230044666Y-77890666D01*
X229997047Y-78033523D01*
X229901809Y-78128761D01*
X229758952Y-78176380D01*
X229663714Y-78176380D01*
X230473238Y-77271619D02*
X230520857Y-77224000D01*
X230616095Y-77176380D01*
X230854190Y-77176380D01*
X230949428Y-77224000D01*
X230997047Y-77271619D01*
X231044666Y-77366857D01*
X231044666Y-77462095D01*
X230997047Y-77604952D01*
X230425619Y-78176380D01*
X231044666Y-78176380D01*
X146572666Y-71562380D02*
X146572666Y-72276666D01*
X146525047Y-72419523D01*
X146429809Y-72514761D01*
X146286952Y-72562380D01*
X146191714Y-72562380D01*
X146953619Y-71562380D02*
X147572666Y-71562380D01*
X147239333Y-71943333D01*
X147382190Y-71943333D01*
X147477428Y-71990952D01*
X147525047Y-72038571D01*
X147572666Y-72133809D01*
X147572666Y-72371904D01*
X147525047Y-72467142D01*
X147477428Y-72514761D01*
X147382190Y-72562380D01*
X147096476Y-72562380D01*
X147001238Y-72514761D01*
X146953619Y-72467142D01*
X178068666Y-71308380D02*
X178068666Y-72022666D01*
X178021047Y-72165523D01*
X177925809Y-72260761D01*
X177782952Y-72308380D01*
X177687714Y-72308380D01*
X178973428Y-71641714D02*
X178973428Y-72308380D01*
X178735333Y-71260761D02*
X178497238Y-71975047D01*
X179116285Y-71975047D01*
D16*
X62851061Y-71641500D02*
X63922490Y-71641500D01*
X64136775Y-71712928D01*
X64279632Y-71855785D01*
X64351061Y-72070071D01*
X64351061Y-72212928D01*
X62851061Y-70212928D02*
X62851061Y-70927214D01*
X63565347Y-70998642D01*
X63493918Y-70927214D01*
X63422490Y-70784357D01*
X63422490Y-70427214D01*
X63493918Y-70284357D01*
X63565347Y-70212928D01*
X63708204Y-70141500D01*
X64065347Y-70141500D01*
X64208204Y-70212928D01*
X64279632Y-70284357D01*
X64351061Y-70427214D01*
X64351061Y-70784357D01*
X64279632Y-70927214D01*
X64208204Y-70998642D01*
X66619380Y-71554285D02*
X66619380Y-72125714D01*
X66619380Y-71840000D02*
X65619380Y-71840000D01*
X65762238Y-71935238D01*
X65857476Y-72030476D01*
X65905095Y-72125714D01*
X68254619Y-72125714D02*
X68207000Y-72078095D01*
X68159380Y-71982857D01*
X68159380Y-71744761D01*
X68207000Y-71649523D01*
X68254619Y-71601904D01*
X68349857Y-71554285D01*
X68445095Y-71554285D01*
X68587952Y-71601904D01*
X69159380Y-72173333D01*
X69159380Y-71554285D01*
X65619380Y-120980523D02*
X65619380Y-120361476D01*
X66000333Y-120694809D01*
X66000333Y-120551952D01*
X66047952Y-120456714D01*
X66095571Y-120409095D01*
X66190809Y-120361476D01*
X66428904Y-120361476D01*
X66524142Y-120409095D01*
X66571761Y-120456714D01*
X66619380Y-120551952D01*
X66619380Y-120837666D01*
X66571761Y-120932904D01*
X66524142Y-120980523D01*
X65619380Y-119456714D02*
X65619380Y-119932904D01*
X66095571Y-119980523D01*
X66047952Y-119932904D01*
X66000333Y-119837666D01*
X66000333Y-119599571D01*
X66047952Y-119504333D01*
X66095571Y-119456714D01*
X66190809Y-119409095D01*
X66428904Y-119409095D01*
X66524142Y-119456714D01*
X66571761Y-119504333D01*
X66619380Y-119599571D01*
X66619380Y-119837666D01*
X66571761Y-119932904D01*
X66524142Y-119980523D01*
X68159380Y-120980523D02*
X68159380Y-120361476D01*
X68540333Y-120694809D01*
X68540333Y-120551952D01*
X68587952Y-120456714D01*
X68635571Y-120409095D01*
X68730809Y-120361476D01*
X68968904Y-120361476D01*
X69064142Y-120409095D01*
X69111761Y-120456714D01*
X69159380Y-120551952D01*
X69159380Y-120837666D01*
X69111761Y-120932904D01*
X69064142Y-120980523D01*
X68159380Y-119504333D02*
X68159380Y-119694809D01*
X68207000Y-119790047D01*
X68254619Y-119837666D01*
X68397476Y-119932904D01*
X68587952Y-119980523D01*
X68968904Y-119980523D01*
X69064142Y-119932904D01*
X69111761Y-119885285D01*
X69159380Y-119790047D01*
X69159380Y-119599571D01*
X69111761Y-119504333D01*
X69064142Y-119456714D01*
X68968904Y-119409095D01*
X68730809Y-119409095D01*
X68635571Y-119456714D01*
X68587952Y-119504333D01*
X68540333Y-119599571D01*
X68540333Y-119790047D01*
X68587952Y-119885285D01*
X68635571Y-119932904D01*
X68730809Y-119980523D01*
D10*
X213666380Y-98631333D02*
X214380666Y-98631333D01*
X214523523Y-98678952D01*
X214618761Y-98774190D01*
X214666380Y-98917047D01*
X214666380Y-99012285D01*
X213666380Y-97726571D02*
X213666380Y-97917047D01*
X213714000Y-98012285D01*
X213761619Y-98059904D01*
X213904476Y-98155142D01*
X214094952Y-98202761D01*
X214475904Y-98202761D01*
X214571142Y-98155142D01*
X214618761Y-98107523D01*
X214666380Y-98012285D01*
X214666380Y-97821809D01*
X214618761Y-97726571D01*
X214571142Y-97678952D01*
X214475904Y-97631333D01*
X214237809Y-97631333D01*
X214142571Y-97678952D01*
X214094952Y-97726571D01*
X214047333Y-97821809D01*
X214047333Y-98012285D01*
X214094952Y-98107523D01*
X214142571Y-98155142D01*
X214237809Y-98202761D01*
D16*
X104524971Y-73487257D02*
X104524971Y-72091769D01*
X105322393Y-73487257D02*
X104724327Y-72689835D01*
X105322393Y-72091769D02*
X104524971Y-72889190D01*
X106651429Y-73487257D02*
X105854008Y-73487257D01*
X106252719Y-73487257D02*
X106252719Y-72091769D01*
X106119815Y-72291124D01*
X105986911Y-72424028D01*
X105854008Y-72490480D01*
X136274971Y-73487257D02*
X136274971Y-72091769D01*
X137072393Y-73487257D02*
X136474327Y-72689835D01*
X137072393Y-72091769D02*
X136274971Y-72889190D01*
X137604008Y-72224672D02*
X137670459Y-72158221D01*
X137803363Y-72091769D01*
X138135622Y-72091769D01*
X138268526Y-72158221D01*
X138334978Y-72224672D01*
X138401429Y-72357576D01*
X138401429Y-72490480D01*
X138334978Y-72689835D01*
X137537556Y-73487257D01*
X138401429Y-73487257D01*
X168024971Y-73487257D02*
X168024971Y-72091769D01*
X168822393Y-73487257D02*
X168224327Y-72689835D01*
X168822393Y-72091769D02*
X168024971Y-72889190D01*
X169287556Y-72091769D02*
X170151429Y-72091769D01*
X169686267Y-72623383D01*
X169885622Y-72623383D01*
X170018526Y-72689835D01*
X170084978Y-72756287D01*
X170151429Y-72889190D01*
X170151429Y-73221449D01*
X170084978Y-73354353D01*
X170018526Y-73420805D01*
X169885622Y-73487257D01*
X169486911Y-73487257D01*
X169354008Y-73420805D01*
X169287556Y-73354353D01*
D10*
X86394761Y-76087619D02*
X86299523Y-76040000D01*
X86204285Y-75944761D01*
X86061428Y-75801904D01*
X85966190Y-75754285D01*
X85870952Y-75754285D01*
X85918571Y-75992380D02*
X85823333Y-75944761D01*
X85728095Y-75849523D01*
X85680476Y-75659047D01*
X85680476Y-75325714D01*
X85728095Y-75135238D01*
X85823333Y-75040000D01*
X85918571Y-74992380D01*
X86109047Y-74992380D01*
X86204285Y-75040000D01*
X86299523Y-75135238D01*
X86347142Y-75325714D01*
X86347142Y-75659047D01*
X86299523Y-75849523D01*
X86204285Y-75944761D01*
X86109047Y-75992380D01*
X85918571Y-75992380D01*
X87299523Y-75992380D02*
X86728095Y-75992380D01*
X87013809Y-75992380D02*
X87013809Y-74992380D01*
X86918571Y-75135238D01*
X86823333Y-75230476D01*
X86728095Y-75278095D01*
X199291380Y-92898000D02*
X198815190Y-93231333D01*
X199291380Y-93469428D02*
X198291380Y-93469428D01*
X198291380Y-93088476D01*
X198339000Y-92993238D01*
X198386619Y-92945619D01*
X198481857Y-92898000D01*
X198624714Y-92898000D01*
X198719952Y-92945619D01*
X198767571Y-92993238D01*
X198815190Y-93088476D01*
X198815190Y-93469428D01*
X199291380Y-91993238D02*
X199291380Y-92469428D01*
X198291380Y-92469428D01*
X198815190Y-91469428D02*
X199291380Y-91469428D01*
X198291380Y-91802761D02*
X198815190Y-91469428D01*
X198291380Y-91136095D01*
X199291380Y-90278952D02*
X199291380Y-90850380D01*
X199291380Y-90564666D02*
X198291380Y-90564666D01*
X198434238Y-90659904D01*
X198529476Y-90755142D01*
X198577095Y-90850380D01*
M02*
