<?xml version="1.0" standalone="no"?>
 <!DOCTYPE svg PUBLIC "-//W3C//DTD SVG 1.1//EN" 
 "http://www.w3.org/Graphics/SVG/1.1/DTD/svg11.dtd"> 
<svg xmlns="http://www.w3.org/2000/svg" version="1.1" 
    width="41.9989cm" height="29.7002cm" viewBox="0 0 165350 116930 ">
<title>SVG Picture created as cropdroid-reservoir-F_Paste.svg date 2020/03/01 14:29:51 </title>
  <desc>Picture generated by PCBNEW </desc>
<g style="fill:#000000; fill-opacity:1;stroke:#000000; stroke-opacity:1;
stroke-linecap:round; stroke-linejoin:round; "
 transform="translate(0 0) scale(1 1)">
</g>
<g style="fill:#000000; fill-opacity:0.0; 
stroke:#000000; stroke-width:-0.000393701; stroke-opacity:1; 
stroke-linecap:round; stroke-linejoin:round;">
</g>
<g style="fill:#000000; fill-opacity:1.0; 
stroke:#000000; stroke-width:0.0393701; stroke-opacity:1; 
stroke-linecap:round; stroke-linejoin:round;">
<path style="fill:#000000; fill-opacity:1.0; 
stroke:#000000; stroke-width:0.0393701; stroke-opacity:1; 
stroke-linecap:round; stroke-linejoin:round;fill-rule:evenodd;"
d="M 123898,83500
123898,83736.2
123897,83753.7
123896,83771.2
123894,83788.6
123890,83805.8
123886,83822.8
123881,83839.6
123875,83856.1
123869,83872.3
123861,83888.1
123853,83903.5
123844,83918.5
123834,83932.9
123823,83946.8
123812,83960.1
123800,83972.9
123787,83984.9
123774,83996.3
123760,84007
123745,84016.9
123730,84026
123715,84034.4
123699,84041.9
123683,84048.6
123666,84054.5
123650,84059.5
123633,84063.6
123615,84066.7
123598,84069
123581,84070.4
123563,84070.9
123563,83874
123570,83873.8
123577,83873.3
123585,83872.3
123592,83871
123599,83869.3
123606,83867.3
123612,83864.9
123619,83862.1
123626,83859
123632,83855.6
123638,83851.8
123644,83847.7
123650,83843.3
123655,83838.6
123660,83833.7
123665,83828.4
123670,83822.9
123674,83817.2
123679,83811.3
123682,83805.1
123686,83798.8
123689,83792.3
123692,83785.6
123694,83778.8
123696,83771.9
123698,83764.9
123699,83757.8
123700,83750.6
123701,83743.4
123701,83736.2
123701,83500
Z" /> 
<path style="fill:#000000; fill-opacity:1.0; 
stroke:#000000; stroke-width:0.0393701; stroke-opacity:1; 
stroke-linecap:round; stroke-linejoin:round;fill-rule:evenodd;"
d="M 123228,83500
123228,83736.2
123229,83753.7
123230,83771.2
123232,83788.6
123236,83805.8
123240,83822.8
123245,83839.6
123251,83856.1
123257,83872.3
123265,83888.1
123273,83903.5
123282,83918.5
123292,83932.9
123303,83946.8
123314,83960.1
123326,83972.9
123339,83984.9
123352,83996.3
123366,84007
123381,84016.9
123396,84026
123411,84034.4
123427,84041.9
123443,84048.6
123460,84054.5
123476,84059.5
123493,84063.6
123511,84066.7
123528,84069
123545,84070.4
123563,84070.9
123563,83874
123556,83873.8
123549,83873.3
123541,83872.3
123534,83871
123527,83869.3
123520,83867.3
123514,83864.9
123507,83862.1
123500,83859
123494,83855.6
123488,83851.8
123482,83847.7
123476,83843.3
123471,83838.6
123466,83833.7
123461,83828.4
123456,83822.9
123452,83817.2
123447,83811.3
123444,83805.1
123440,83798.8
123437,83792.3
123434,83785.6
123432,83778.8
123430,83771.9
123428,83764.9
123427,83757.8
123426,83750.6
123425,83743.4
123425,83736.2
123425,83500
Z" /> 
<path style="fill:#000000; fill-opacity:1.0; 
stroke:#000000; stroke-width:0.0393701; stroke-opacity:1; 
stroke-linecap:round; stroke-linejoin:round;fill-rule:evenodd;"
d="M 123228,83500
123228,83263.8
123229,83246.3
123230,83228.8
123232,83211.4
123236,83194.2
123240,83177.2
123245,83160.4
123251,83143.9
123257,83127.7
123265,83111.9
123273,83096.5
123282,83081.5
123292,83067.1
123303,83053.2
123314,83039.9
123326,83027.1
123339,83015.1
123352,83003.7
123366,82993
123381,82983.1
123396,82974
123411,82965.6
123427,82958.1
123443,82951.4
123460,82945.5
123476,82940.5
123493,82936.4
123511,82933.3
123528,82931
123545,82929.6
123563,82929.1
123563,83126
123556,83126.2
123549,83126.7
123541,83127.7
123534,83129
123527,83130.7
123520,83132.7
123514,83135.1
123507,83137.9
123500,83141
123494,83144.4
123488,83148.2
123482,83152.3
123476,83156.7
123471,83161.4
123466,83166.3
123461,83171.6
123456,83177.1
123452,83182.8
123447,83188.7
123444,83194.9
123440,83201.2
123437,83207.7
123434,83214.4
123432,83221.2
123430,83228.1
123428,83235.1
123427,83242.2
123426,83249.4
123425,83256.6
123425,83263.8
123425,83500
Z" /> 
<path style="fill:#000000; fill-opacity:1.0; 
stroke:#000000; stroke-width:0.0393701; stroke-opacity:1; 
stroke-linecap:round; stroke-linejoin:round;fill-rule:evenodd;"
d="M 123898,83500
123898,83263.8
123897,83246.3
123896,83228.8
123894,83211.4
123890,83194.2
123886,83177.2
123881,83160.4
123875,83143.9
123869,83127.7
123861,83111.9
123853,83096.5
123844,83081.5
123834,83067.1
123823,83053.2
123812,83039.9
123800,83027.1
123787,83015.1
123774,83003.7
123760,82993
123745,82983.1
123730,82974
123715,82965.6
123699,82958.1
123683,82951.4
123666,82945.5
123650,82940.5
123633,82936.4
123615,82933.3
123598,82931
123581,82929.6
123563,82929.1
123563,83126
123570,83126.2
123577,83126.7
123585,83127.7
123592,83129
123599,83130.7
123606,83132.7
123612,83135.1
123619,83137.9
123626,83141
123632,83144.4
123638,83148.2
123644,83152.3
123650,83156.7
123655,83161.4
123660,83166.3
123665,83171.6
123670,83177.1
123674,83182.8
123679,83188.7
123682,83194.9
123686,83201.2
123689,83207.7
123692,83214.4
123694,83221.2
123696,83228.1
123698,83235.1
123699,83242.2
123700,83249.4
123701,83256.6
123701,83263.8
123701,83500
Z" /> 
<path style="fill:#000000; fill-opacity:1.0; 
stroke:#000000; stroke-width:0.0393701; stroke-opacity:1; 
stroke-linecap:round; stroke-linejoin:round;fill-rule:evenodd;"
d="M 126772,83500
126772,83736.2
126771,83753.7
126770,83771.2
126768,83788.6
126764,83805.8
126760,83822.8
126755,83839.6
126749,83856.1
126743,83872.3
126735,83888.1
126727,83903.5
126718,83918.5
126708,83932.9
126697,83946.8
126686,83960.1
126674,83972.9
126661,83984.9
126648,83996.3
126634,84007
126619,84016.9
126604,84026
126589,84034.4
126573,84041.9
126557,84048.6
126540,84054.5
126524,84059.5
126507,84063.6
126489,84066.7
126472,84069
126455,84070.4
126437,84070.9
126437,83874
126444,83873.8
126451,83873.3
126459,83872.3
126466,83871
126473,83869.3
126480,83867.3
126486,83864.9
126493,83862.1
126500,83859
126506,83855.6
126512,83851.8
126518,83847.7
126524,83843.3
126529,83838.6
126534,83833.7
126539,83828.4
126544,83822.9
126548,83817.2
126553,83811.3
126556,83805.1
126560,83798.8
126563,83792.3
126566,83785.6
126568,83778.8
126570,83771.9
126572,83764.9
126573,83757.8
126574,83750.6
126575,83743.4
126575,83736.2
126575,83500
Z" /> 
<path style="fill:#000000; fill-opacity:1.0; 
stroke:#000000; stroke-width:0.0393701; stroke-opacity:1; 
stroke-linecap:round; stroke-linejoin:round;fill-rule:evenodd;"
d="M 126102,83500
126102,83736.2
126103,83753.7
126104,83771.2
126106,83788.6
126110,83805.8
126114,83822.8
126119,83839.6
126125,83856.1
126131,83872.3
126139,83888.1
126147,83903.5
126156,83918.5
126166,83932.9
126177,83946.8
126188,83960.1
126200,83972.9
126213,83984.9
126226,83996.3
126240,84007
126255,84016.9
126270,84026
126285,84034.4
126301,84041.9
126317,84048.6
126334,84054.5
126350,84059.5
126367,84063.6
126385,84066.7
126402,84069
126419,84070.4
126437,84070.9
126437,83874
126430,83873.8
126423,83873.3
126415,83872.3
126408,83871
126401,83869.3
126394,83867.3
126388,83864.9
126381,83862.1
126374,83859
126368,83855.6
126362,83851.8
126356,83847.7
126350,83843.3
126345,83838.6
126340,83833.7
126335,83828.4
126330,83822.9
126326,83817.2
126321,83811.3
126318,83805.1
126314,83798.8
126311,83792.3
126308,83785.6
126306,83778.8
126304,83771.9
126302,83764.9
126301,83757.8
126300,83750.6
126299,83743.4
126299,83736.2
126299,83500
Z" /> 
<path style="fill:#000000; fill-opacity:1.0; 
stroke:#000000; stroke-width:0.0393701; stroke-opacity:1; 
stroke-linecap:round; stroke-linejoin:round;fill-rule:evenodd;"
d="M 126102,83500
126102,83263.8
126103,83246.3
126104,83228.8
126106,83211.4
126110,83194.2
126114,83177.2
126119,83160.4
126125,83143.9
126131,83127.7
126139,83111.9
126147,83096.5
126156,83081.5
126166,83067.1
126177,83053.2
126188,83039.9
126200,83027.1
126213,83015.1
126226,83003.7
126240,82993
126255,82983.1
126270,82974
126285,82965.6
126301,82958.1
126317,82951.4
126334,82945.5
126350,82940.5
126367,82936.4
126385,82933.3
126402,82931
126419,82929.6
126437,82929.1
126437,83126
126430,83126.2
126423,83126.7
126415,83127.7
126408,83129
126401,83130.7
126394,83132.7
126388,83135.1
126381,83137.9
126374,83141
126368,83144.4
126362,83148.2
126356,83152.3
126350,83156.7
126345,83161.4
126340,83166.3
126335,83171.6
126330,83177.1
126326,83182.8
126321,83188.7
126318,83194.9
126314,83201.2
126311,83207.7
126308,83214.4
126306,83221.2
126304,83228.1
126302,83235.1
126301,83242.2
126300,83249.4
126299,83256.6
126299,83263.8
126299,83500
Z" /> 
<path style="fill:#000000; fill-opacity:1.0; 
stroke:#000000; stroke-width:0.0393701; stroke-opacity:1; 
stroke-linecap:round; stroke-linejoin:round;fill-rule:evenodd;"
d="M 126772,83500
126772,83263.8
126771,83246.3
126770,83228.8
126768,83211.4
126764,83194.2
126760,83177.2
126755,83160.4
126749,83143.9
126743,83127.7
126735,83111.9
126727,83096.5
126718,83081.5
126708,83067.1
126697,83053.2
126686,83039.9
126674,83027.1
126661,83015.1
126648,83003.7
126634,82993
126619,82983.1
126604,82974
126589,82965.6
126573,82958.1
126557,82951.4
126540,82945.5
126524,82940.5
126507,82936.4
126489,82933.3
126472,82931
126455,82929.6
126437,82929.1
126437,83126
126444,83126.2
126451,83126.7
126459,83127.7
126466,83129
126473,83130.7
126480,83132.7
126486,83135.1
126493,83137.9
126500,83141
126506,83144.4
126512,83148.2
126518,83152.3
126524,83156.7
126529,83161.4
126534,83166.3
126539,83171.6
126544,83177.1
126548,83182.8
126553,83188.7
126556,83194.9
126560,83201.2
126563,83207.7
126566,83214.4
126568,83221.2
126570,83228.1
126572,83235.1
126573,83242.2
126574,83249.4
126575,83256.6
126575,83263.8
126575,83500
Z" /> 
<path style="fill:#000000; fill-opacity:1.0; 
stroke:#000000; stroke-width:0.0393701; stroke-opacity:1; 
stroke-linecap:round; stroke-linejoin:round;fill-rule:evenodd;"
d="M 118898,83500
118898,83736.2
118897,83753.7
118896,83771.2
118894,83788.6
118890,83805.8
118886,83822.8
118881,83839.6
118875,83856.1
118869,83872.3
118861,83888.1
118853,83903.5
118844,83918.5
118834,83932.9
118823,83946.8
118812,83960.1
118800,83972.9
118787,83984.9
118774,83996.3
118760,84007
118745,84016.9
118730,84026
118715,84034.4
118699,84041.9
118683,84048.6
118666,84054.5
118650,84059.5
118633,84063.6
118615,84066.7
118598,84069
118581,84070.4
118563,84070.9
118563,83874
118570,83873.8
118577,83873.3
118585,83872.3
118592,83871
118599,83869.3
118606,83867.3
118612,83864.9
118619,83862.1
118626,83859
118632,83855.6
118638,83851.8
118644,83847.7
118650,83843.3
118655,83838.6
118660,83833.7
118665,83828.4
118670,83822.9
118674,83817.2
118679,83811.3
118682,83805.1
118686,83798.8
118689,83792.3
118692,83785.6
118694,83778.8
118696,83771.9
118698,83764.9
118699,83757.8
118700,83750.6
118701,83743.4
118701,83736.2
118701,83500
Z" /> 
<path style="fill:#000000; fill-opacity:1.0; 
stroke:#000000; stroke-width:0.0393701; stroke-opacity:1; 
stroke-linecap:round; stroke-linejoin:round;fill-rule:evenodd;"
d="M 118228,83500
118228,83736.2
118229,83753.7
118230,83771.2
118232,83788.6
118236,83805.8
118240,83822.8
118245,83839.6
118251,83856.1
118257,83872.3
118265,83888.1
118273,83903.5
118282,83918.5
118292,83932.9
118303,83946.8
118314,83960.1
118326,83972.9
118339,83984.9
118352,83996.3
118366,84007
118381,84016.9
118396,84026
118411,84034.4
118427,84041.9
118443,84048.6
118460,84054.5
118476,84059.5
118493,84063.6
118511,84066.7
118528,84069
118545,84070.4
118563,84070.9
118563,83874
118556,83873.8
118549,83873.3
118541,83872.3
118534,83871
118527,83869.3
118520,83867.3
118514,83864.9
118507,83862.1
118500,83859
118494,83855.6
118488,83851.8
118482,83847.7
118476,83843.3
118471,83838.6
118466,83833.7
118461,83828.4
118456,83822.9
118452,83817.2
118447,83811.3
118444,83805.1
118440,83798.8
118437,83792.3
118434,83785.6
118432,83778.8
118430,83771.9
118428,83764.9
118427,83757.8
118426,83750.6
118425,83743.4
118425,83736.2
118425,83500
Z" /> 
<path style="fill:#000000; fill-opacity:1.0; 
stroke:#000000; stroke-width:0.0393701; stroke-opacity:1; 
stroke-linecap:round; stroke-linejoin:round;fill-rule:evenodd;"
d="M 118228,83500
118228,83263.8
118229,83246.3
118230,83228.8
118232,83211.4
118236,83194.2
118240,83177.2
118245,83160.4
118251,83143.9
118257,83127.7
118265,83111.9
118273,83096.5
118282,83081.5
118292,83067.1
118303,83053.2
118314,83039.9
118326,83027.1
118339,83015.1
118352,83003.7
118366,82993
118381,82983.1
118396,82974
118411,82965.6
118427,82958.1
118443,82951.4
118460,82945.5
118476,82940.5
118493,82936.4
118511,82933.3
118528,82931
118545,82929.6
118563,82929.1
118563,83126
118556,83126.2
118549,83126.7
118541,83127.7
118534,83129
118527,83130.7
118520,83132.7
118514,83135.1
118507,83137.9
118500,83141
118494,83144.4
118488,83148.2
118482,83152.3
118476,83156.7
118471,83161.4
118466,83166.3
118461,83171.6
118456,83177.1
118452,83182.8
118447,83188.7
118444,83194.9
118440,83201.2
118437,83207.7
118434,83214.4
118432,83221.2
118430,83228.1
118428,83235.1
118427,83242.2
118426,83249.4
118425,83256.6
118425,83263.8
118425,83500
Z" /> 
<path style="fill:#000000; fill-opacity:1.0; 
stroke:#000000; stroke-width:0.0393701; stroke-opacity:1; 
stroke-linecap:round; stroke-linejoin:round;fill-rule:evenodd;"
d="M 118898,83500
118898,83263.8
118897,83246.3
118896,83228.8
118894,83211.4
118890,83194.2
118886,83177.2
118881,83160.4
118875,83143.9
118869,83127.7
118861,83111.9
118853,83096.5
118844,83081.5
118834,83067.1
118823,83053.2
118812,83039.9
118800,83027.1
118787,83015.1
118774,83003.7
118760,82993
118745,82983.1
118730,82974
118715,82965.6
118699,82958.1
118683,82951.4
118666,82945.5
118650,82940.5
118633,82936.4
118615,82933.3
118598,82931
118581,82929.6
118563,82929.1
118563,83126
118570,83126.2
118577,83126.7
118585,83127.7
118592,83129
118599,83130.7
118606,83132.7
118612,83135.1
118619,83137.9
118626,83141
118632,83144.4
118638,83148.2
118644,83152.3
118650,83156.7
118655,83161.4
118660,83166.3
118665,83171.6
118670,83177.1
118674,83182.8
118679,83188.7
118682,83194.9
118686,83201.2
118689,83207.7
118692,83214.4
118694,83221.2
118696,83228.1
118698,83235.1
118699,83242.2
118700,83249.4
118701,83256.6
118701,83263.8
118701,83500
Z" /> 
<path style="fill:#000000; fill-opacity:1.0; 
stroke:#000000; stroke-width:0.0393701; stroke-opacity:1; 
stroke-linecap:round; stroke-linejoin:round;fill-rule:evenodd;"
d="M 121772,83500
121772,83736.2
121771,83753.7
121770,83771.2
121768,83788.6
121764,83805.8
121760,83822.8
121755,83839.6
121749,83856.1
121743,83872.3
121735,83888.1
121727,83903.5
121718,83918.5
121708,83932.9
121697,83946.8
121686,83960.1
121674,83972.9
121661,83984.9
121648,83996.3
121634,84007
121619,84016.9
121604,84026
121589,84034.4
121573,84041.9
121557,84048.6
121540,84054.5
121524,84059.5
121507,84063.6
121489,84066.7
121472,84069
121455,84070.4
121437,84070.9
121437,83874
121444,83873.8
121451,83873.3
121459,83872.3
121466,83871
121473,83869.3
121480,83867.3
121486,83864.9
121493,83862.1
121500,83859
121506,83855.6
121512,83851.8
121518,83847.7
121524,83843.3
121529,83838.6
121534,83833.7
121539,83828.4
121544,83822.9
121548,83817.2
121553,83811.3
121556,83805.1
121560,83798.8
121563,83792.3
121566,83785.6
121568,83778.8
121570,83771.9
121572,83764.9
121573,83757.8
121574,83750.6
121575,83743.4
121575,83736.2
121575,83500
Z" /> 
<path style="fill:#000000; fill-opacity:1.0; 
stroke:#000000; stroke-width:0.0393701; stroke-opacity:1; 
stroke-linecap:round; stroke-linejoin:round;fill-rule:evenodd;"
d="M 121102,83500
121102,83736.2
121103,83753.7
121104,83771.2
121106,83788.6
121110,83805.8
121114,83822.8
121119,83839.6
121125,83856.1
121131,83872.3
121139,83888.1
121147,83903.5
121156,83918.5
121166,83932.9
121177,83946.8
121188,83960.1
121200,83972.9
121213,83984.9
121226,83996.3
121240,84007
121255,84016.9
121270,84026
121285,84034.4
121301,84041.9
121317,84048.6
121334,84054.5
121350,84059.5
121367,84063.6
121385,84066.7
121402,84069
121419,84070.4
121437,84070.9
121437,83874
121430,83873.8
121423,83873.3
121415,83872.3
121408,83871
121401,83869.3
121394,83867.3
121388,83864.9
121381,83862.1
121374,83859
121368,83855.6
121362,83851.8
121356,83847.7
121350,83843.3
121345,83838.6
121340,83833.7
121335,83828.4
121330,83822.9
121326,83817.2
121321,83811.3
121318,83805.1
121314,83798.8
121311,83792.3
121308,83785.6
121306,83778.8
121304,83771.9
121302,83764.9
121301,83757.8
121300,83750.6
121299,83743.4
121299,83736.2
121299,83500
Z" /> 
<path style="fill:#000000; fill-opacity:1.0; 
stroke:#000000; stroke-width:0.0393701; stroke-opacity:1; 
stroke-linecap:round; stroke-linejoin:round;fill-rule:evenodd;"
d="M 121102,83500
121102,83263.8
121103,83246.3
121104,83228.8
121106,83211.4
121110,83194.2
121114,83177.2
121119,83160.4
121125,83143.9
121131,83127.7
121139,83111.9
121147,83096.5
121156,83081.5
121166,83067.1
121177,83053.2
121188,83039.9
121200,83027.1
121213,83015.1
121226,83003.7
121240,82993
121255,82983.1
121270,82974
121285,82965.6
121301,82958.1
121317,82951.4
121334,82945.5
121350,82940.5
121367,82936.4
121385,82933.3
121402,82931
121419,82929.6
121437,82929.1
121437,83126
121430,83126.2
121423,83126.7
121415,83127.7
121408,83129
121401,83130.7
121394,83132.7
121388,83135.1
121381,83137.9
121374,83141
121368,83144.4
121362,83148.2
121356,83152.3
121350,83156.7
121345,83161.4
121340,83166.3
121335,83171.6
121330,83177.1
121326,83182.8
121321,83188.7
121318,83194.9
121314,83201.2
121311,83207.7
121308,83214.4
121306,83221.2
121304,83228.1
121302,83235.1
121301,83242.2
121300,83249.4
121299,83256.6
121299,83263.8
121299,83500
Z" /> 
<path style="fill:#000000; fill-opacity:1.0; 
stroke:#000000; stroke-width:0.0393701; stroke-opacity:1; 
stroke-linecap:round; stroke-linejoin:round;fill-rule:evenodd;"
d="M 121772,83500
121772,83263.8
121771,83246.3
121770,83228.8
121768,83211.4
121764,83194.2
121760,83177.2
121755,83160.4
121749,83143.9
121743,83127.7
121735,83111.9
121727,83096.5
121718,83081.5
121708,83067.1
121697,83053.2
121686,83039.9
121674,83027.1
121661,83015.1
121648,83003.7
121634,82993
121619,82983.1
121604,82974
121589,82965.6
121573,82958.1
121557,82951.4
121540,82945.5
121524,82940.5
121507,82936.4
121489,82933.3
121472,82931
121455,82929.6
121437,82929.1
121437,83126
121444,83126.2
121451,83126.7
121459,83127.7
121466,83129
121473,83130.7
121480,83132.7
121486,83135.1
121493,83137.9
121500,83141
121506,83144.4
121512,83148.2
121518,83152.3
121524,83156.7
121529,83161.4
121534,83166.3
121539,83171.6
121544,83177.1
121548,83182.8
121553,83188.7
121556,83194.9
121560,83201.2
121563,83207.7
121566,83214.4
121568,83221.2
121570,83228.1
121572,83235.1
121573,83242.2
121574,83249.4
121575,83256.6
121575,83263.8
121575,83500
Z" /> 
<g >
</g>
<g >
</g>
<g >
</g>
<g >
</g>
<g >
</g>
<g >
</g>
<g >
</g>
<g >
</g>
<g >
</g>
<g >
</g>
<g >
</g>
<g >
</g>
<g >
</g>
<g >
</g>
<g >
</g>
<g >
</g>
<g >
</g>
<g >
</g>
<g >
</g>
<g >
</g>
<g >
</g>
<g >
</g>
<g >
</g>
<g >
</g>
<g >
</g>
<g >
</g>
<g >
</g>
<g >
</g>
<g >
</g>
<g >
</g>
<g >
</g>
<g >
</g>
<g >
</g>
<g >
</g>
<g >
</g>
<g >
</g>
<g >
</g>
<g >
</g>
<g >
</g>
<g >
</g>
<g >
</g>
<g >
</g>
<g >
</g>
<g >
</g>
<g >
</g>
</g> 
</svg>
