<?xml version="1.0" standalone="no"?>
 <!DOCTYPE svg PUBLIC "-//W3C//DTD SVG 1.1//EN" 
 "http://www.w3.org/Graphics/SVG/1.1/DTD/svg11.dtd"> 
<svg xmlns="http://www.w3.org/2000/svg" version="1.1" 
    width="41.9989cm" height="29.7002cm" viewBox="0 0 165350 116930 ">
<title>SVG Picture created as cropdroid-reservoir-F_SilkS.svg date 2020/03/01 14:29:51 </title>
  <desc>Picture generated by PCBNEW </desc>
<g style="fill:#000000; fill-opacity:1;stroke:#000000; stroke-opacity:1;
stroke-linecap:round; stroke-linejoin:round; "
 transform="translate(0 0) scale(1 1)">
</g>
<g style="fill:#000000; fill-opacity:0.0; 
stroke:#000000; stroke-width:-0.000393701; stroke-opacity:1; 
stroke-linecap:round; stroke-linejoin:round;">
</g>
<g style="fill:#000000; fill-opacity:0.0; 
stroke:#000000; stroke-width:47.2441; stroke-opacity:1; 
stroke-linecap:round; stroke-linejoin:round;">
<path d="M61230 64470
L61230 62270
" />
</g>
<g style="fill:#000000; fill-opacity:0.0; 
stroke:#000000; stroke-width:59.0551; stroke-opacity:1; 
stroke-linecap:round; stroke-linejoin:round;">
<text x="121030" y="56766.9"
textLength="2363.99" font-size="524.934" lengthAdjust="spacingAndGlyphs"
text-anchor="middle" opacity="0">+5V DC</text>
<path d="M119980 56598
L120280 56598
" />
<path d="M120130 56748
L120130 56448
" />
<path d="M120655 56354
L120467 56354
L120448 56541
L120467 56523
L120505 56504
L120598 56504
L120636 56523
L120655 56541
L120673 56579
L120673 56673
L120655 56710
L120636 56729
L120598 56748
L120505 56748
L120467 56729
L120448 56710
" />
<path d="M120786 56354
L120917 56748
L121048 56354
" />
<path d="M121479 56748
L121479 56354
L121573 56354
L121629 56373
L121667 56410
L121686 56448
L121704 56523
L121704 56579
L121686 56654
L121667 56691
L121629 56729
L121573 56748
L121479 56748
" />
<path d="M122098 56710
L122079 56729
L122023 56748
L121986 56748
L121929 56729
L121892 56691
L121873 56654
L121854 56579
L121854 56523
L121873 56448
L121892 56410
L121929 56373
L121986 56354
L122023 56354
L122079 56373
L122098 56391
" />
<text x="124830" y="80366.9"
textLength="2363.99" font-size="524.934" lengthAdjust="spacingAndGlyphs"
text-anchor="middle" opacity="0">AM2303</text>
<path d="M123761 80235
L123948 80235
" />
<path d="M123723 80348
L123855 79954
L123986 80348
" />
<path d="M124117 80348
L124117 79954
L124248 80235
L124380 79954
L124380 80348
" />
<path d="M124548 79991
L124567 79973
L124605 79954
L124698 79954
L124736 79973
L124755 79991
L124773 80029
L124773 80066
L124755 80123
L124530 80348
L124773 80348
" />
<path d="M124904 79954
L125148 79954
L125017 80104
L125073 80104
L125111 80123
L125129 80141
L125148 80179
L125148 80273
L125129 80310
L125111 80329
L125073 80348
L124961 80348
L124923 80329
L124904 80310
" />
<path d="M125392 79954
L125429 79954
L125467 79973
L125486 79991
L125504 80029
L125523 80104
L125523 80198
L125504 80273
L125486 80310
L125467 80329
L125429 80348
L125392 80348
L125354 80329
L125336 80310
L125317 80273
L125298 80198
L125298 80104
L125317 80029
L125336 79991
L125354 79973
L125392 79954
" />
<path d="M125654 79954
L125898 79954
L125767 80104
L125823 80104
L125861 80123
L125879 80141
L125898 80179
L125898 80273
L125879 80310
L125861 80329
L125823 80348
L125711 80348
L125673 80329
L125654 80310
" />
<text x="114930" y="69566.9"
textLength="2701.44" font-size="524.934" lengthAdjust="spacingAndGlyphs"
text-anchor="middle" opacity="0">+12v DC</text>
<path d="M113711 69398
L114011 69398
" />
<path d="M113861 69548
L113861 69248
" />
<path d="M114405 69548
L114180 69548
" />
<path d="M114292 69548
L114292 69154
L114255 69210
L114217 69248
L114180 69266
" />
<path d="M114555 69191
L114573 69173
L114611 69154
L114705 69154
L114742 69173
L114761 69191
L114780 69229
L114780 69266
L114761 69323
L114536 69548
L114780 69548
" />
<path d="M114911 69285
L115004 69548
L115098 69285
" />
<path d="M115548 69548
L115548 69154
L115642 69154
L115698 69173
L115736 69210
L115754 69248
L115773 69323
L115773 69379
L115754 69454
L115736 69491
L115698 69529
L115642 69548
L115548 69548
" />
<path d="M116167 69510
L116148 69529
L116092 69548
L116054 69548
L115998 69529
L115961 69491
L115942 69454
L115923 69379
L115923 69323
L115942 69248
L115961 69210
L115998 69173
L116054 69154
L116092 69154
L116148 69173
L116167 69191
" />
<text x="141910" y="25366.9"
textLength="2214" font-size="524.934" lengthAdjust="spacingAndGlyphs"
text-anchor="middle" opacity="0">Neutral</text>
<path d="M140935 25348
L140935 24954
L141160 25348
L141160 24954
" />
<path d="M141497 25329
L141460 25348
L141385 25348
L141347 25329
L141328 25291
L141328 25141
L141347 25104
L141385 25085
L141460 25085
L141497 25104
L141516 25141
L141516 25179
L141328 25216
" />
<path d="M141853 25085
L141853 25348
" />
<path d="M141685 25085
L141685 25291
L141703 25329
L141741 25348
L141797 25348
L141835 25329
L141853 25310
" />
<path d="M141984 25085
L142134 25085
" />
<path d="M142041 24954
L142041 25291
L142059 25329
L142097 25348
L142134 25348
" />
<path d="M142266 25348
L142266 25085
" />
<path d="M142266 25160
L142284 25123
L142303 25104
L142341 25085
L142378 25085
" />
<path d="M142678 25348
L142678 25141
L142659 25104
L142622 25085
L142547 25085
L142509 25104
" />
<path d="M142678 25329
L142641 25348
L142547 25348
L142509 25329
L142491 25291
L142491 25254
L142509 25216
L142547 25198
L142641 25198
L142678 25179
" />
<path d="M142922 25348
L142884 25329
L142866 25291
L142866 24954
" />
<text x="141710" y="27926.9"
textLength="1614.08" font-size="524.934" lengthAdjust="spacingAndGlyphs"
text-anchor="middle" opacity="0">Earth</text>
<path d="M141035 27701
L141166 27701
" />
<path d="M141222 27908
L141035 27908
L141035 27514
L141222 27514
" />
<path d="M141560 27908
L141560 27701
L141541 27664
L141503 27645
L141428 27645
L141391 27664
" />
<path d="M141560 27889
L141522 27908
L141428 27908
L141391 27889
L141372 27851
L141372 27814
L141391 27776
L141428 27758
L141522 27758
L141560 27739
" />
<path d="M141747 27908
L141747 27645
" />
<path d="M141747 27720
L141766 27683
L141784 27664
L141822 27645
L141859 27645
" />
<path d="M141934 27645
L142084 27645
" />
<path d="M141991 27514
L141991 27851
L142009 27889
L142047 27908
L142084 27908
" />
<path d="M142216 27908
L142216 27514
" />
<path d="M142384 27908
L142384 27701
L142366 27664
L142328 27645
L142272 27645
L142234 27664
L142216 27683
" />
<text x="141540" y="30876.9"
textLength="1276.62" font-size="524.934" lengthAdjust="spacingAndGlyphs"
text-anchor="middle" opacity="0">Line</text>
<path d="M141221 30858
L141033 30858
L141033 30464
" />
<path d="M141352 30858
L141352 30595
" />
<path d="M141352 30464
L141333 30483
L141352 30501
L141371 30483
L141352 30464
L141352 30501
" />
<path d="M141540 30595
L141540 30858
" />
<path d="M141540 30633
L141558 30614
L141596 30595
L141652 30595
L141689 30614
L141708 30651
L141708 30858
" />
<path d="M142046 30839
L142008 30858
L141933 30858
L141896 30839
L141877 30801
L141877 30651
L141896 30614
L141933 30595
L142008 30595
L142046 30614
L142064 30651
L142064 30689
L141877 30726
" />
<g transform="rotate(-90 83075 35775)">
<text x="83075" y="35971.9"
textLength="2813.93" font-size="524.934" lengthAdjust="spacingAndGlyphs"
text-anchor="middle" opacity="0">Channel3</text>
</g>
<path d="M83215 36824
L83234 36843
L83253 36899
L83253 36937
L83234 36993
L83196 37031
L83159 37049
L83084 37068
L83028 37068
L82953 37049
L82915 37031
L82878 36993
L82859 36937
L82859 36899
L82878 36843
L82896 36824
" />
<path d="M83253 36656
L82859 36656
" />
<path d="M83253 36487
L83046 36487
L83009 36506
L82990 36543
L82990 36599
L83009 36637
L83028 36656
" />
<path d="M83253 36131
L83046 36131
L83009 36149
L82990 36187
L82990 36262
L83009 36299
" />
<path d="M83234 36131
L83253 36168
L83253 36262
L83234 36299
L83196 36318
L83159 36318
L83121 36299
L83103 36262
L83103 36168
L83084 36131
" />
<path d="M82990 35943
L83253 35943
" />
<path d="M83028 35943
L83009 35924
L82990 35887
L82990 35831
L83009 35793
L83046 35775
L83253 35775
" />
<path d="M82990 35587
L83253 35587
" />
<path d="M83028 35587
L83009 35568
L82990 35531
L82990 35475
L83009 35437
L83046 35418
L83253 35418
" />
<path d="M83234 35081
L83253 35118
L83253 35193
L83234 35231
L83196 35250
L83046 35250
L83009 35231
L82990 35193
L82990 35118
L83009 35081
L83046 35062
L83084 35062
L83121 35250
" />
<path d="M83253 34837
L83234 34875
L83196 34893
L82859 34893
" />
<path d="M82859 34725
L82859 34481
L83009 34612
L83009 34556
L83028 34518
L83046 34500
L83084 34481
L83178 34481
L83215 34500
L83234 34518
L83253 34556
L83253 34668
L83234 34706
L83215 34725
" />
<g transform="rotate(-90 63075 35775)">
<text x="63075" y="35971.9"
textLength="2813.93" font-size="524.934" lengthAdjust="spacingAndGlyphs"
text-anchor="middle" opacity="0">Channel2</text>
</g>
<path d="M63215 36824
L63234 36843
L63253 36899
L63253 36937
L63234 36993
L63196 37031
L63159 37049
L63084 37068
L63028 37068
L62953 37049
L62915 37031
L62878 36993
L62859 36937
L62859 36899
L62878 36843
L62896 36824
" />
<path d="M63253 36656
L62859 36656
" />
<path d="M63253 36487
L63046 36487
L63009 36506
L62990 36543
L62990 36599
L63009 36637
L63028 36656
" />
<path d="M63253 36131
L63046 36131
L63009 36149
L62990 36187
L62990 36262
L63009 36299
" />
<path d="M63234 36131
L63253 36168
L63253 36262
L63234 36299
L63196 36318
L63159 36318
L63121 36299
L63103 36262
L63103 36168
L63084 36131
" />
<path d="M62990 35943
L63253 35943
" />
<path d="M63028 35943
L63009 35924
L62990 35887
L62990 35831
L63009 35793
L63046 35775
L63253 35775
" />
<path d="M62990 35587
L63253 35587
" />
<path d="M63028 35587
L63009 35568
L62990 35531
L62990 35475
L63009 35437
L63046 35418
L63253 35418
" />
<path d="M63234 35081
L63253 35118
L63253 35193
L63234 35231
L63196 35250
L63046 35250
L63009 35231
L62990 35193
L62990 35118
L63009 35081
L63046 35062
L63084 35062
L63121 35250
" />
<path d="M63253 34837
L63234 34875
L63196 34893
L62859 34893
" />
<path d="M62896 34706
L62878 34687
L62859 34650
L62859 34556
L62878 34518
L62896 34500
L62934 34481
L62971 34481
L63028 34500
L63253 34725
L63253 34481
" />
<g transform="rotate(-90 43275 35675)">
<text x="43275" y="35871.9"
textLength="2813.93" font-size="524.934" lengthAdjust="spacingAndGlyphs"
text-anchor="middle" opacity="0">Channel1</text>
</g>
<path d="M43415 36724
L43434 36743
L43453 36799
L43453 36837
L43434 36893
L43396 36931
L43359 36949
L43284 36968
L43228 36968
L43153 36949
L43115 36931
L43078 36893
L43059 36837
L43059 36799
L43078 36743
L43096 36724
" />
<path d="M43453 36556
L43059 36556
" />
<path d="M43453 36387
L43246 36387
L43209 36406
L43190 36443
L43190 36499
L43209 36537
L43228 36556
" />
<path d="M43453 36031
L43246 36031
L43209 36049
L43190 36087
L43190 36162
L43209 36199
" />
<path d="M43434 36031
L43453 36068
L43453 36162
L43434 36199
L43396 36218
L43359 36218
L43321 36199
L43303 36162
L43303 36068
L43284 36031
" />
<path d="M43190 35843
L43453 35843
" />
<path d="M43228 35843
L43209 35824
L43190 35787
L43190 35731
L43209 35693
L43246 35675
L43453 35675
" />
<path d="M43190 35487
L43453 35487
" />
<path d="M43228 35487
L43209 35468
L43190 35431
L43190 35375
L43209 35337
L43246 35318
L43453 35318
" />
<path d="M43434 34981
L43453 35018
L43453 35093
L43434 35131
L43396 35150
L43246 35150
L43209 35131
L43190 35093
L43190 35018
L43209 34981
L43246 34962
L43284 34962
L43321 35150
" />
<path d="M43453 34737
L43434 34775
L43396 34793
L43059 34793
" />
<path d="M43453 34381
L43453 34606
" />
<path d="M43453 34493
L43059 34493
L43115 34531
L43153 34568
L43171 34606
" />
<text x="100080" y="78696.9"
textLength="2813.93" font-size="524.934" lengthAdjust="spacingAndGlyphs"
text-anchor="middle" opacity="0">Channel6</text>
<path d="M99030 78640
L99011 78659
L98955 78678
L98917 78678
L98861 78659
L98823 78621
L98805 78584
L98786 78509
L98786 78453
L98805 78378
L98823 78340
L98861 78303
L98917 78284
L98955 78284
L99011 78303
L99030 78321
" />
<path d="M99198 78678
L99198 78284
" />
<path d="M99367 78678
L99367 78471
L99348 78434
L99311 78415
L99255 78415
L99217 78434
L99198 78453
" />
<path d="M99723 78678
L99723 78471
L99705 78434
L99667 78415
L99592 78415
L99555 78434
" />
<path d="M99723 78659
L99686 78678
L99592 78678
L99555 78659
L99536 78621
L99536 78584
L99555 78546
L99592 78528
L99686 78528
L99723 78509
" />
<path d="M99911 78415
L99911 78678
" />
<path d="M99911 78453
L99930 78434
L99967 78415
L100023 78415
L100061 78434
L100080 78471
L100080 78678
" />
<path d="M100267 78415
L100267 78678
" />
<path d="M100267 78453
L100286 78434
L100323 78415
L100379 78415
L100417 78434
L100436 78471
L100436 78678
" />
<path d="M100773 78659
L100736 78678
L100661 78678
L100623 78659
L100604 78621
L100604 78471
L100623 78434
L100661 78415
L100736 78415
L100773 78434
L100792 78471
L100792 78509
L100604 78546
" />
<path d="M101017 78678
L100979 78659
L100961 78621
L100961 78284
" />
<path d="M101336 78284
L101261 78284
L101223 78303
L101204 78321
L101167 78378
L101148 78453
L101148 78603
L101167 78640
L101186 78659
L101223 78678
L101298 78678
L101336 78659
L101354 78640
L101373 78603
L101373 78509
L101354 78471
L101336 78453
L101298 78434
L101223 78434
L101186 78453
L101167 78471
L101148 78509
" />
<text x="95280" y="78696.9"
textLength="2813.93" font-size="524.934" lengthAdjust="spacingAndGlyphs"
text-anchor="middle" opacity="0">Channel5</text>
<path d="M94230 78640
L94211 78659
L94155 78678
L94117 78678
L94061 78659
L94023 78621
L94005 78584
L93986 78509
L93986 78453
L94005 78378
L94023 78340
L94061 78303
L94117 78284
L94155 78284
L94211 78303
L94230 78321
" />
<path d="M94398 78678
L94398 78284
" />
<path d="M94567 78678
L94567 78471
L94548 78434
L94511 78415
L94455 78415
L94417 78434
L94398 78453
" />
<path d="M94923 78678
L94923 78471
L94905 78434
L94867 78415
L94792 78415
L94755 78434
" />
<path d="M94923 78659
L94886 78678
L94792 78678
L94755 78659
L94736 78621
L94736 78584
L94755 78546
L94792 78528
L94886 78528
L94923 78509
" />
<path d="M95111 78415
L95111 78678
" />
<path d="M95111 78453
L95130 78434
L95167 78415
L95223 78415
L95261 78434
L95280 78471
L95280 78678
" />
<path d="M95467 78415
L95467 78678
" />
<path d="M95467 78453
L95486 78434
L95523 78415
L95579 78415
L95617 78434
L95636 78471
L95636 78678
" />
<path d="M95973 78659
L95936 78678
L95861 78678
L95823 78659
L95804 78621
L95804 78471
L95823 78434
L95861 78415
L95936 78415
L95973 78434
L95992 78471
L95992 78509
L95804 78546
" />
<path d="M96217 78678
L96179 78659
L96161 78621
L96161 78284
" />
<path d="M96554 78284
L96367 78284
L96348 78471
L96367 78453
L96404 78434
L96498 78434
L96536 78453
L96554 78471
L96573 78509
L96573 78603
L96554 78640
L96536 78659
L96498 78678
L96404 78678
L96367 78659
L96348 78640
" />
<text x="90280" y="78696.9"
textLength="2813.93" font-size="524.934" lengthAdjust="spacingAndGlyphs"
text-anchor="middle" opacity="0">Channel4</text>
<path d="M89230 78640
L89211 78659
L89155 78678
L89117 78678
L89061 78659
L89023 78621
L89005 78584
L88986 78509
L88986 78453
L89005 78378
L89023 78340
L89061 78303
L89117 78284
L89155 78284
L89211 78303
L89230 78321
" />
<path d="M89398 78678
L89398 78284
" />
<path d="M89567 78678
L89567 78471
L89548 78434
L89511 78415
L89455 78415
L89417 78434
L89398 78453
" />
<path d="M89923 78678
L89923 78471
L89905 78434
L89867 78415
L89792 78415
L89755 78434
" />
<path d="M89923 78659
L89886 78678
L89792 78678
L89755 78659
L89736 78621
L89736 78584
L89755 78546
L89792 78528
L89886 78528
L89923 78509
" />
<path d="M90111 78415
L90111 78678
" />
<path d="M90111 78453
L90130 78434
L90167 78415
L90223 78415
L90261 78434
L90280 78471
L90280 78678
" />
<path d="M90467 78415
L90467 78678
" />
<path d="M90467 78453
L90486 78434
L90523 78415
L90579 78415
L90617 78434
L90636 78471
L90636 78678
" />
<path d="M90973 78659
L90936 78678
L90861 78678
L90823 78659
L90804 78621
L90804 78471
L90823 78434
L90861 78415
L90936 78415
L90973 78434
L90992 78471
L90992 78509
L90804 78546
" />
<path d="M91217 78678
L91179 78659
L91161 78621
L91161 78284
" />
<path d="M91536 78415
L91536 78678
" />
<path d="M91442 78265
L91348 78546
L91592 78546
" />
<text x="110130" y="78696.9"
textLength="2813.93" font-size="524.934" lengthAdjust="spacingAndGlyphs"
text-anchor="middle" opacity="0">Channel0</text>
<path d="M109080 78640
L109061 78659
L109005 78678
L108967 78678
L108911 78659
L108873 78621
L108855 78584
L108836 78509
L108836 78453
L108855 78378
L108873 78340
L108911 78303
L108967 78284
L109005 78284
L109061 78303
L109080 78321
" />
<path d="M109248 78678
L109248 78284
" />
<path d="M109417 78678
L109417 78471
L109398 78434
L109361 78415
L109305 78415
L109267 78434
L109248 78453
" />
<path d="M109773 78678
L109773 78471
L109755 78434
L109717 78415
L109642 78415
L109605 78434
" />
<path d="M109773 78659
L109736 78678
L109642 78678
L109605 78659
L109586 78621
L109586 78584
L109605 78546
L109642 78528
L109736 78528
L109773 78509
" />
<path d="M109961 78415
L109961 78678
" />
<path d="M109961 78453
L109980 78434
L110017 78415
L110073 78415
L110111 78434
L110130 78471
L110130 78678
" />
<path d="M110317 78415
L110317 78678
" />
<path d="M110317 78453
L110336 78434
L110373 78415
L110429 78415
L110467 78434
L110486 78471
L110486 78678
" />
<path d="M110823 78659
L110786 78678
L110711 78678
L110673 78659
L110654 78621
L110654 78471
L110673 78434
L110711 78415
L110786 78415
L110823 78434
L110842 78471
L110842 78509
L110654 78546
" />
<path d="M111067 78678
L111029 78659
L111011 78621
L111011 78284
" />
<path d="M111292 78284
L111329 78284
L111367 78303
L111386 78321
L111404 78359
L111423 78434
L111423 78528
L111404 78603
L111386 78640
L111367 78659
L111329 78678
L111292 78678
L111254 78659
L111236 78640
L111217 78603
L111198 78528
L111198 78434
L111217 78359
L111236 78321
L111254 78303
L111292 78284
" />
<text x="80130" y="78696.9"
textLength="2420.23" font-size="524.934" lengthAdjust="spacingAndGlyphs"
text-anchor="middle" opacity="0">Analog1</text>
<path d="M79033 78565
L79220 78565
" />
<path d="M78995 78678
L79127 78284
L79258 78678
" />
<path d="M79389 78415
L79389 78678
" />
<path d="M79389 78453
L79408 78434
L79445 78415
L79501 78415
L79539 78434
L79558 78471
L79558 78678
" />
<path d="M79914 78678
L79914 78471
L79895 78434
L79858 78415
L79783 78415
L79745 78434
" />
<path d="M79914 78659
L79876 78678
L79783 78678
L79745 78659
L79726 78621
L79726 78584
L79745 78546
L79783 78528
L79876 78528
L79914 78509
" />
<path d="M80158 78678
L80120 78659
L80101 78621
L80101 78284
" />
<path d="M80364 78678
L80326 78659
L80308 78640
L80289 78603
L80289 78490
L80308 78453
L80326 78434
L80364 78415
L80420 78415
L80458 78434
L80476 78453
L80495 78490
L80495 78603
L80476 78640
L80458 78659
L80420 78678
L80364 78678
" />
<path d="M80833 78415
L80833 78734
L80814 78771
L80795 78790
L80758 78809
L80701 78809
L80664 78790
" />
<path d="M80833 78659
L80795 78678
L80720 78678
L80683 78659
L80664 78640
L80645 78603
L80645 78490
L80664 78453
L80683 78434
L80720 78415
L80795 78415
L80833 78434
" />
<path d="M81226 78678
L81001 78678
" />
<path d="M81114 78678
L81114 78284
L81076 78340
L81039 78378
L81001 78396
" />
<text x="67500" y="78696.9"
textLength="2420.23" font-size="524.934" lengthAdjust="spacingAndGlyphs"
text-anchor="middle" opacity="0">Analog0</text>
<path d="M66403 78565
L66590 78565
" />
<path d="M66365 78678
L66497 78284
L66628 78678
" />
<path d="M66759 78415
L66759 78678
" />
<path d="M66759 78453
L66778 78434
L66815 78415
L66871 78415
L66909 78434
L66928 78471
L66928 78678
" />
<path d="M67284 78678
L67284 78471
L67265 78434
L67228 78415
L67153 78415
L67115 78434
" />
<path d="M67284 78659
L67246 78678
L67153 78678
L67115 78659
L67096 78621
L67096 78584
L67115 78546
L67153 78528
L67246 78528
L67284 78509
" />
<path d="M67528 78678
L67490 78659
L67471 78621
L67471 78284
" />
<path d="M67734 78678
L67696 78659
L67678 78640
L67659 78603
L67659 78490
L67678 78453
L67696 78434
L67734 78415
L67790 78415
L67828 78434
L67846 78453
L67865 78490
L67865 78603
L67846 78640
L67828 78659
L67790 78678
L67734 78678
" />
<path d="M68203 78415
L68203 78734
L68184 78771
L68165 78790
L68128 78809
L68071 78809
L68034 78790
" />
<path d="M68203 78659
L68165 78678
L68090 78678
L68053 78659
L68034 78640
L68015 78603
L68015 78490
L68034 78453
L68053 78434
L68090 78415
L68165 78415
L68203 78434
" />
<path d="M68465 78284
L68502 78284
L68540 78303
L68559 78321
L68577 78359
L68596 78434
L68596 78528
L68577 78603
L68559 78640
L68540 78659
L68502 78678
L68465 78678
L68428 78659
L68409 78640
L68390 78603
L68371 78528
L68371 78434
L68390 78359
L68409 78321
L68428 78303
L68465 78284
" />
<text x="119980" y="80366.9"
textLength="2401.48" font-size="524.934" lengthAdjust="spacingAndGlyphs"
text-anchor="middle" opacity="0">OneWire</text>
<path d="M118986 79954
L119061 79954
L119098 79973
L119136 80010
L119155 80085
L119155 80216
L119136 80291
L119098 80329
L119061 80348
L118986 80348
L118948 80329
L118911 80291
L118892 80216
L118892 80085
L118911 80010
L118948 79973
L118986 79954
" />
<path d="M119323 80085
L119323 80348
" />
<path d="M119323 80123
L119342 80104
L119380 80085
L119436 80085
L119473 80104
L119492 80141
L119492 80348
" />
<path d="M119830 80329
L119792 80348
L119717 80348
L119680 80329
L119661 80291
L119661 80141
L119680 80104
L119717 80085
L119792 80085
L119830 80104
L119848 80141
L119848 80179
L119661 80216
" />
<path d="M119980 79954
L120073 80348
L120148 80066
L120223 80348
L120317 79954
" />
<path d="M120467 80348
L120467 80085
" />
<path d="M120467 79954
L120448 79973
L120467 79991
L120486 79973
L120467 79954
L120467 79991
" />
<path d="M120654 80348
L120654 80085
" />
<path d="M120654 80160
L120673 80123
L120692 80104
L120729 80085
L120767 80085
" />
<path d="M121048 80329
L121011 80348
L120936 80348
L120898 80329
L120879 80291
L120879 80141
L120898 80104
L120936 80085
L121011 80085
L121048 80104
L121067 80141
L121067 80179
L120879 80216
" />
<text x="26230" y="15617.2"
textLength="9206.88" font-size="524.934" lengthAdjust="spacingAndGlyphs"
text-anchor="start" opacity="0">CropDroid Reservoir Controller</text>
<path d="M26587 15561
L26568 15579
L26512 15598
L26474 15598
L26418 15579
L26380 15542
L26362 15504
L26343 15429
L26343 15373
L26362 15298
L26380 15261
L26418 15223
L26474 15204
L26512 15204
L26568 15223
L26587 15242
" />
<path d="M26755 15598
L26755 15336
" />
<path d="M26755 15411
L26774 15373
L26793 15354
L26830 15336
L26868 15336
" />
<path d="M27055 15598
L27018 15579
L26999 15561
L26980 15523
L26980 15411
L26999 15373
L27018 15354
L27055 15336
L27112 15336
L27149 15354
L27168 15373
L27187 15411
L27187 15523
L27168 15561
L27149 15579
L27112 15598
L27055 15598
" />
<path d="M27355 15336
L27355 15729
" />
<path d="M27355 15354
L27393 15336
L27468 15336
L27505 15354
L27524 15373
L27543 15411
L27543 15523
L27524 15561
L27505 15579
L27468 15598
L27393 15598
L27355 15579
" />
<path d="M27711 15598
L27711 15204
L27805 15204
L27861 15223
L27899 15261
L27918 15298
L27936 15373
L27936 15429
L27918 15504
L27899 15542
L27861 15579
L27805 15598
L27711 15598
" />
<path d="M28105 15598
L28105 15336
" />
<path d="M28105 15411
L28124 15373
L28143 15354
L28180 15336
L28218 15336
" />
<path d="M28405 15598
L28368 15579
L28349 15561
L28330 15523
L28330 15411
L28349 15373
L28368 15354
L28405 15336
L28461 15336
L28499 15354
L28518 15373
L28536 15411
L28536 15523
L28518 15561
L28499 15579
L28461 15598
L28405 15598
" />
<path d="M28705 15598
L28705 15336
" />
<path d="M28705 15204
L28686 15223
L28705 15242
L28724 15223
L28705 15204
L28705 15242
" />
<path d="M29061 15598
L29061 15204
" />
<path d="M29061 15579
L29024 15598
L28949 15598
L28911 15579
L28893 15561
L28874 15523
L28874 15411
L28893 15373
L28911 15354
L28949 15336
L29024 15336
L29061 15354
" />
<path d="M29774 15598
L29642 15411
" />
<path d="M29549 15598
L29549 15204
L29699 15204
L29736 15223
L29755 15242
L29774 15279
L29774 15336
L29755 15373
L29736 15392
L29699 15411
L29549 15411
" />
<path d="M30092 15579
L30055 15598
L29980 15598
L29942 15579
L29924 15542
L29924 15392
L29942 15354
L29980 15336
L30055 15336
L30092 15354
L30111 15392
L30111 15429
L29924 15467
" />
<path d="M30261 15579
L30299 15598
L30374 15598
L30411 15579
L30430 15542
L30430 15523
L30411 15486
L30374 15467
L30317 15467
L30280 15448
L30261 15411
L30261 15392
L30280 15354
L30317 15336
L30374 15336
L30411 15354
" />
<path d="M30749 15579
L30711 15598
L30636 15598
L30599 15579
L30580 15542
L30580 15392
L30599 15354
L30636 15336
L30711 15336
L30749 15354
L30767 15392
L30767 15429
L30580 15467
" />
<path d="M30936 15598
L30936 15336
" />
<path d="M30936 15411
L30955 15373
L30974 15354
L31011 15336
L31049 15336
" />
<path d="M31142 15336
L31236 15598
L31330 15336
" />
<path d="M31536 15598
L31498 15579
L31480 15561
L31461 15523
L31461 15411
L31480 15373
L31498 15354
L31536 15336
L31592 15336
L31630 15354
L31648 15373
L31667 15411
L31667 15523
L31648 15561
L31630 15579
L31592 15598
L31536 15598
" />
<path d="M31836 15598
L31836 15336
" />
<path d="M31836 15204
L31817 15223
L31836 15242
L31855 15223
L31836 15204
L31836 15242
" />
<path d="M32023 15598
L32023 15336
" />
<path d="M32023 15411
L32042 15373
L32061 15354
L32098 15336
L32136 15336
" />
<path d="M32792 15561
L32773 15579
L32717 15598
L32680 15598
L32623 15579
L32586 15542
L32567 15504
L32548 15429
L32548 15373
L32567 15298
L32586 15261
L32623 15223
L32680 15204
L32717 15204
L32773 15223
L32792 15242
" />
<path d="M33017 15598
L32980 15579
L32961 15561
L32942 15523
L32942 15411
L32961 15373
L32980 15354
L33017 15336
L33073 15336
L33111 15354
L33130 15373
L33148 15411
L33148 15523
L33130 15561
L33111 15579
L33073 15598
L33017 15598
" />
<path d="M33317 15336
L33317 15598
" />
<path d="M33317 15373
L33336 15354
L33373 15336
L33429 15336
L33467 15354
L33486 15392
L33486 15598
" />
<path d="M33617 15336
L33767 15336
" />
<path d="M33673 15204
L33673 15542
L33692 15579
L33729 15598
L33767 15598
" />
<path d="M33898 15598
L33898 15336
" />
<path d="M33898 15411
L33917 15373
L33936 15354
L33973 15336
L34011 15336
" />
<path d="M34198 15598
L34161 15579
L34142 15561
L34123 15523
L34123 15411
L34142 15373
L34161 15354
L34198 15336
L34254 15336
L34292 15354
L34311 15373
L34329 15411
L34329 15523
L34311 15561
L34292 15579
L34254 15598
L34198 15598
" />
<path d="M34554 15598
L34517 15579
L34498 15542
L34498 15204
" />
<path d="M34761 15598
L34723 15579
L34704 15542
L34704 15204
" />
<path d="M35061 15579
L35023 15598
L34948 15598
L34911 15579
L34892 15542
L34892 15392
L34911 15354
L34948 15336
L35023 15336
L35061 15354
L35079 15392
L35079 15429
L34892 15467
" />
<path d="M35248 15598
L35248 15336
" />
<path d="M35248 15411
L35267 15373
L35286 15354
L35323 15336
L35360 15336
" />
<text x="26230" y="16266.9"
textLength="12169" font-size="524.934" lengthAdjust="spacingAndGlyphs"
text-anchor="start" opacity="0">CopyRight (c) Automate The Things, LLC</text>
<path d="M26587 16210
L26568 16229
L26512 16248
L26474 16248
L26418 16229
L26380 16191
L26362 16154
L26343 16079
L26343 16023
L26362 15948
L26380 15910
L26418 15873
L26474 15854
L26512 15854
L26568 15873
L26587 15891
" />
<path d="M26812 16248
L26774 16229
L26755 16210
L26737 16173
L26737 16060
L26755 16023
L26774 16004
L26812 15985
L26868 15985
L26905 16004
L26924 16023
L26943 16060
L26943 16173
L26924 16210
L26905 16229
L26868 16248
L26812 16248
" />
<path d="M27112 15985
L27112 16379
" />
<path d="M27112 16004
L27149 15985
L27224 15985
L27262 16004
L27280 16023
L27299 16060
L27299 16173
L27280 16210
L27262 16229
L27224 16248
L27149 16248
L27112 16229
" />
<path d="M27430 15985
L27524 16248
" />
<path d="M27618 15985
L27524 16248
L27486 16341
L27468 16360
L27430 16379
" />
<path d="M27993 16248
L27861 16060
" />
<path d="M27768 16248
L27768 15854
L27918 15854
L27955 15873
L27974 15891
L27993 15929
L27993 15985
L27974 16023
L27955 16041
L27918 16060
L27768 16060
" />
<path d="M28161 16248
L28161 15985
" />
<path d="M28161 15854
L28143 15873
L28161 15891
L28180 15873
L28161 15854
L28161 15891
" />
<path d="M28518 15985
L28518 16304
L28499 16341
L28480 16360
L28443 16379
L28386 16379
L28349 16360
" />
<path d="M28518 16229
L28480 16248
L28405 16248
L28368 16229
L28349 16210
L28330 16173
L28330 16060
L28349 16023
L28368 16004
L28405 15985
L28480 15985
L28518 16004
" />
<path d="M28705 16248
L28705 15854
" />
<path d="M28874 16248
L28874 16041
L28855 16004
L28818 15985
L28761 15985
L28724 16004
L28705 16023
" />
<path d="M29005 15985
L29155 15985
" />
<path d="M29061 15854
L29061 16191
L29080 16229
L29118 16248
L29155 16248
" />
<path d="M29699 16398
L29680 16379
L29642 16323
L29624 16285
L29605 16229
L29586 16135
L29586 16060
L29605 15966
L29624 15910
L29642 15873
L29680 15816
L29699 15798
" />
<path d="M30017 16229
L29980 16248
L29905 16248
L29867 16229
L29849 16210
L29830 16173
L29830 16060
L29849 16023
L29867 16004
L29905 15985
L29980 15985
L30017 16004
" />
<path d="M30149 16398
L30167 16379
L30205 16323
L30224 16285
L30242 16229
L30261 16135
L30261 16060
L30242 15966
L30224 15910
L30205 15873
L30167 15816
L30149 15798
" />
<path d="M30730 16135
L30917 16135
" />
<path d="M30692 16248
L30824 15854
L30955 16248
" />
<path d="M31255 15985
L31255 16248
" />
<path d="M31086 15985
L31086 16191
L31105 16229
L31142 16248
L31199 16248
L31236 16229
L31255 16210
" />
<path d="M31386 15985
L31536 15985
" />
<path d="M31442 15854
L31442 16191
L31461 16229
L31498 16248
L31536 16248
" />
<path d="M31723 16248
L31686 16229
L31667 16210
L31648 16173
L31648 16060
L31667 16023
L31686 16004
L31723 15985
L31780 15985
L31817 16004
L31836 16023
L31855 16060
L31855 16173
L31836 16210
L31817 16229
L31780 16248
L31723 16248
" />
<path d="M32023 16248
L32023 15985
" />
<path d="M32023 16023
L32042 16004
L32080 15985
L32136 15985
L32173 16004
L32192 16041
L32192 16248
" />
<path d="M32192 16041
L32211 16004
L32248 15985
L32305 15985
L32342 16004
L32361 16041
L32361 16248
" />
<path d="M32717 16248
L32717 16041
L32698 16004
L32661 15985
L32586 15985
L32548 16004
" />
<path d="M32717 16229
L32680 16248
L32586 16248
L32548 16229
L32530 16191
L32530 16154
L32548 16116
L32586 16098
L32680 16098
L32717 16079
" />
<path d="M32848 15985
L32998 15985
" />
<path d="M32905 15854
L32905 16191
L32923 16229
L32961 16248
L32998 16248
" />
<path d="M33280 16229
L33242 16248
L33167 16248
L33130 16229
L33111 16191
L33111 16041
L33130 16004
L33167 15985
L33242 15985
L33280 16004
L33298 16041
L33298 16079
L33111 16116
" />
<path d="M33711 15854
L33936 15854
" />
<path d="M33823 16248
L33823 15854
" />
<path d="M34067 16248
L34067 15854
" />
<path d="M34236 16248
L34236 16041
L34217 16004
L34179 15985
L34123 15985
L34086 16004
L34067 16023
" />
<path d="M34573 16229
L34536 16248
L34461 16248
L34423 16229
L34404 16191
L34404 16041
L34423 16004
L34461 15985
L34536 15985
L34573 16004
L34592 16041
L34592 16079
L34404 16116
" />
<path d="M35004 15854
L35229 15854
" />
<path d="M35117 16248
L35117 15854
" />
<path d="M35360 16248
L35360 15854
" />
<path d="M35529 16248
L35529 16041
L35510 16004
L35473 15985
L35417 15985
L35379 16004
L35360 16023
" />
<path d="M35717 16248
L35717 15985
" />
<path d="M35717 15854
L35698 15873
L35717 15891
L35735 15873
L35717 15854
L35717 15891
" />
<path d="M35904 15985
L35904 16248
" />
<path d="M35904 16023
L35923 16004
L35960 15985
L36017 15985
L36054 16004
L36073 16041
L36073 16248
" />
<path d="M36429 15985
L36429 16304
L36410 16341
L36392 16360
L36354 16379
L36298 16379
L36260 16360
" />
<path d="M36429 16229
L36392 16248
L36317 16248
L36279 16229
L36260 16210
L36242 16173
L36242 16060
L36260 16023
L36279 16004
L36317 15985
L36392 15985
L36429 16004
" />
<path d="M36598 16229
L36635 16248
L36710 16248
L36748 16229
L36767 16191
L36767 16173
L36748 16135
L36710 16116
L36654 16116
L36617 16098
L36598 16060
L36598 16041
L36617 16004
L36654 15985
L36710 15985
L36748 16004
" />
<path d="M36954 16229
L36954 16248
L36935 16285
L36917 16304
" />
<path d="M37610 16248
L37423 16248
L37423 15854
" />
<path d="M37929 16248
L37741 16248
L37741 15854
" />
<path d="M38285 16210
L38266 16229
L38210 16248
L38173 16248
L38116 16229
L38079 16191
L38060 16154
L38041 16079
L38041 16023
L38060 15948
L38079 15910
L38116 15873
L38173 15854
L38210 15854
L38266 15873
L38285 15891
" />
<text x="26230" y="16916.5"
textLength="4763.69" font-size="524.934" lengthAdjust="spacingAndGlyphs"
text-anchor="start" opacity="0">Prototype v0.6a</text>
<path d="M26362 16897
L26362 16504
L26512 16504
L26549 16522
L26568 16541
L26587 16578
L26587 16635
L26568 16672
L26549 16691
L26512 16710
L26362 16710
" />
<path d="M26755 16897
L26755 16635
" />
<path d="M26755 16710
L26774 16672
L26793 16653
L26830 16635
L26868 16635
" />
<path d="M27055 16897
L27018 16878
L26999 16860
L26980 16822
L26980 16710
L26999 16672
L27018 16653
L27055 16635
L27112 16635
L27149 16653
L27168 16672
L27187 16710
L27187 16822
L27168 16860
L27149 16878
L27112 16897
L27055 16897
" />
<path d="M27299 16635
L27449 16635
" />
<path d="M27355 16504
L27355 16841
L27374 16878
L27411 16897
L27449 16897
" />
<path d="M27636 16897
L27599 16878
L27580 16860
L27561 16822
L27561 16710
L27580 16672
L27599 16653
L27636 16635
L27693 16635
L27730 16653
L27749 16672
L27768 16710
L27768 16822
L27749 16860
L27730 16878
L27693 16897
L27636 16897
" />
<path d="M27880 16635
L28030 16635
" />
<path d="M27936 16504
L27936 16841
L27955 16878
L27993 16897
L28030 16897
" />
<path d="M28124 16635
L28218 16897
" />
<path d="M28311 16635
L28218 16897
L28180 16991
L28161 17010
L28124 17028
" />
<path d="M28461 16635
L28461 17028
" />
<path d="M28461 16653
L28499 16635
L28574 16635
L28611 16653
L28630 16672
L28649 16710
L28649 16822
L28630 16860
L28611 16878
L28574 16897
L28499 16897
L28461 16878
" />
<path d="M28968 16878
L28930 16897
L28855 16897
L28818 16878
L28799 16841
L28799 16691
L28818 16653
L28855 16635
L28930 16635
L28968 16653
L28986 16691
L28986 16728
L28799 16766
" />
<path d="M29417 16635
L29511 16897
L29605 16635
" />
<path d="M29830 16504
L29867 16504
L29905 16522
L29924 16541
L29942 16578
L29961 16653
L29961 16747
L29942 16822
L29924 16860
L29905 16878
L29867 16897
L29830 16897
L29792 16878
L29774 16860
L29755 16822
L29736 16747
L29736 16653
L29755 16578
L29774 16541
L29792 16522
L29830 16504
" />
<path d="M30130 16860
L30149 16878
L30130 16897
L30111 16878
L30130 16860
L30130 16897
" />
<path d="M30486 16504
L30411 16504
L30374 16522
L30355 16541
L30317 16597
L30299 16672
L30299 16822
L30317 16860
L30336 16878
L30374 16897
L30449 16897
L30486 16878
L30505 16860
L30524 16822
L30524 16728
L30505 16691
L30486 16672
L30449 16653
L30374 16653
L30336 16672
L30317 16691
L30299 16728
" />
<path d="M30861 16897
L30861 16691
L30842 16653
L30805 16635
L30730 16635
L30692 16653
" />
<path d="M30861 16878
L30824 16897
L30730 16897
L30692 16878
L30674 16841
L30674 16803
L30692 16766
L30730 16747
L30824 16747
L30861 16728
" />
</g>
<g style="fill:#000000; fill-opacity:1.0; 
stroke:#000000; stroke-width:3.93701; stroke-opacity:1; 
stroke-linecap:round; stroke-linejoin:round;">
<path style="fill:#000000; fill-opacity:1.0; 
stroke:#000000; stroke-width:3.93701; stroke-opacity:1; 
stroke-linecap:round; stroke-linejoin:round;fill-rule:evenodd;"
d="M 32505.9,21591.3
32510.8,21593.7
32563.2,21632.1
32590.2,21684
32596.7,21745
32587.4,21815.5
32556.6,21865
32513.7,21894.8
32442.4,21917.4
32373.5,21908
32342.9,21894
32294.7,21856.2
32269.6,21803.6
32266,21766.8
32299.3,21766.8
32319.3,21819.1
32360.3,21858
32406.6,21881.2
32446,21882.6
32494.8,21862.6
32495.5,21862.3
32532.1,21836.9
32553,21810.9
32562.1,21748.7
32545.8,21690.1
32509.4,21643.5
32458,21617.3
32432.5,21614.4
32372,21628
32328,21663.2
32303,21712.2
32299.3,21766.8
32266,21766.8
32263.3,21740
32278,21673.1
32317.1,21620.4
32373.1,21586.2
32438.6,21575
Z" /> 
<path style="fill:#000000; fill-opacity:1.0; 
stroke:#000000; stroke-width:3.93701; stroke-opacity:1; 
stroke-linecap:round; stroke-linejoin:round;fill-rule:evenodd;"
d="M 33323.3,21934.8
33371.9,21973
33410.1,22025.1
33429.2,22081.8
33430,22095
33423,22143.9
33397.5,22187.1
33373.3,22213.3
33312.1,22257.6
33247.6,22269.5
33196.7,22258.2
33144.2,22224.2
33103.2,22171
33087.1,22127.7
33088,22106.3
33127.2,22106.3
33145.4,22164.9
33189.7,22209.2
33194.3,22211.8
33254.7,22228.5
33313,22213
33359.1,22173.5
33391.2,22117.6
33390.9,22063.8
33370,22022.7
33322.9,21979.5
33266.6,21962.6
33210.1,21971.2
33162.2,22004.5
33138.2,22042.5
33127.2,22106.3
33088,22106.3
33089.9,22060.1
33119.7,21998.9
33170.5,21951.1
33235.8,21923.8
33272.5,21920
Z" /> 
<path style="fill:#000000; fill-opacity:1.0; 
stroke:#000000; stroke-width:3.93701; stroke-opacity:1; 
stroke-linecap:round; stroke-linejoin:round;fill-rule:evenodd;"
d="M 34819.3,17471.5
34813.7,17517.2
34801.9,17580.7
34789.1,17637.9
34733.3,17899.7
34696.5,18142.3
34677.8,18373.2
34674.8,18495
34676.2,18628.4
34682.8,18750.5
34695.7,18866.7
34716.2,18982.7
34745.6,19103.8
34785,19235.7
34835.8,19383.8
34899.1,19553.6
34936.9,19650.7
35007.5,19833.2
35065.5,19989.8
35112.1,20125.4
35148.2,20244.4
35175,20351.5
35193.6,20451.3
35205,20548.5
35210.3,20647.7
35210.5,20753.5
35208.9,20818.8
35197.2,21012
35174.5,21187
35138.3,21357.8
35085.9,21538.4
35071.3,21582.8
34973.3,21825.6
34848.9,22049
34699.6,22251.7
34526.8,22432.1
34332.1,22588.8
34117,22720.3
33882.9,22825.2
33779.4,22860.9
33688.6,22887.5
33626.7,22900.7
33592.2,22900.6
33583.4,22887.5
33584.9,22882.5
33593.4,22862.3
33613.2,22815.5
33642.6,22746.2
33679.9,22658.3
33723.3,22556.2
33771.1,22443.6
33781.2,22420
33842.7,22273.9
33891.4,22154.4
33928.1,22058.1
33954,21981.1
33969.8,21919.8
33976.7,21870.6
33975.5,21829.9
33967.2,21794
33954.4,21762.7
33933.4,21725.4
33906,21691.9
33868,21659.6
33815.4,21626.1
33744.1,21588.8
33650,21545
33529,21492.1
33520.4,21488.4
33417.7,21444.3
33341.8,21410.8
33288.7,21385.6
33254.5,21366.4
33235.3,21350.9
33227.1,21336.8
33225.9,21321.7
33226.4,21316
33231,21283.1
33240.3,21225.2
33252.9,21150
33267.7,21065.5
33269.7,21054
33283.6,20973.9
33294.5,20907.1
33301.4,20859.6
33303.5,20837.5
33303.2,20836.7
33292.1,20849.4
33265.2,20884.6
33225.9,20937.5
33177.8,21003.3
33152.3,21038.5
33099.9,21109.8
33053.2,21171.1
33016.1,21217.4
32992.6,21243.7
32987.4,21247.7
32966.7,21243.8
32920.4,21228.6
32853.5,21203.9
32771.2,21171.7
32678.3,21133.7
32667.6,21129.2
32543.6,21078.5
32444.7,21041.4
32366,21017.2
32302.8,21005
32250.2,21003.9
32203.2,21013
32157.1,21031.5
32147.4,21036.3
32097.8,21068.6
32056.6,21107.1
32050.1,21115.5
32035.4,21142.3
32009.8,21195.6
31975.2,21271
31933.6,21364.3
31886.8,21471.2
31836.9,21587.4
31823.1,21619.8
31773.6,21735.8
31727.8,21841.9
31687.4,21934.3
31654.2,22009
31629.9,22062
31616.2,22089.5
31614.3,22092.3
31599.9,22086.1
31574.8,22055.4
31542.3,22006
31506,21943.5
31469.3,21873.8
31435.6,21802.4
31425.3,21778.3
31340.4,21534.2
31287,21285.2
31268.8,21076
31308.1,21076
31334.9,21323.2
31393.8,21566.5
31415.8,21632.9
31442.6,21704.1
31474.7,21782.2
31508.8,21860
31541.6,21930.3
31569.8,21985.8
31590.1,22019.2
31593.5,22023.2
31603.2,22012.4
31623.1,21975.2
31651,21916.4
31684.8,21840.4
31720.3,21756.6
31770.1,21636.9
31811.7,21538
31849.4,21450.1
31887.6,21362.9
31930.5,21266.6
31956.3,21209.1
31972.4,21169.5
31979.9,21143.1
31980,21141.7
31991,21122.6
32019.4,21089.4
32044.1,21064.2
32109.2,21015.6
32188.7,20977.7
32268.5,20956.4
32303.5,20953.9
32340.1,20961.4
32406.3,20983.1
32501.6,21018.8
32625.5,21068.3
32777.5,21131.4
32798.3,21140.2
32974.9,21214.8
33112.2,21023
33166.6,20946
33203.7,20890.8
33225.9,20852.3
33235.9,20825.4
33236.2,20805.4
33231.4,20791.4
33213.5,20720.6
33214.9,20711.7
33246.7,20711.7
33258.3,20754.8
33280,20786.7
33319.7,20811.9
33355,20820
33398.1,20808.4
33430,20786.7
33457.8,20738.2
33459.9,20682.7
33435.8,20633.8
33392.8,20607.6
33342.8,20606.3
33295.4,20626
33260.2,20662.8
33246.7,20711.7
33214.9,20711.7
33223.5,20657
33257.8,20606.9
33312.9,20576.4
33359.7,20570
33422.2,20583.6
33469.2,20619.3
33497.5,20669.4
33503.9,20725.9
33485.4,20781.3
33457.4,20813.8
33417.9,20840.5
33382.5,20853.2
33379.4,20853.3
33349.7,20867.9
33339.8,20890.8
33316.6,21011.1
33297.3,21118.6
33282.7,21209.1
33273.3,21278.4
33269.7,21322.4
33271.2,21336
33292.6,21352.5
33297.8,21353.3
33321.5,21359.8
33362.9,21376
33384.3,21385.4
33427.2,21404.4
33492,21432.5
33570.2,21466.1
33653,21501.4
33655.6,21502.5
33772.7,21555.6
33861.6,21604.9
33926.3,21654
33971.2,21706.5
34000.4,21766.1
34013,21810.3
34019.1,21857
34016,21909.5
34002.5,21972.8
33977.2,22051.8
33938.8,22151.3
33895.5,22254.7
33853,22353.9
33808.8,22457.9
33767.4,22555.8
33733.4,22636.7
33726.6,22653.3
33698.1,22721.8
33674,22779.8
33657.4,22819.7
33652,22832.5
33649.5,22846.6
33660.8,22851.6
33690.7,22846.8
33743.6,22831.8
33803.4,22812.7
34016.9,22727.2
34221.8,22614.4
34411.7,22478.5
34580.1,22323.9
34645.2,22251.6
34705.8,22179.8
34748,22129.2
34774.9,22095.6
34789.8,22075
34795.9,22063.2
34796.7,22058.6
34806.5,22038.7
34820.3,22021.3
34848.6,21980.5
34884.6,21915.3
34924.9,21832.7
34966.3,21739.7
35005.7,21643.6
35039.9,21551.3
35057.3,21498.3
35107.1,21318.1
35141.1,21149
35161.4,20977.6
35169.9,20790.5
35170.3,20745
35168.9,20632.8
35162.5,20529.2
35149.8,20428.9
35129.5,20326.4
35100.4,20216.4
35061.2,20093.7
35010.6,19952.8
34947.3,19788.4
34930.1,19745
34850.6,19540
34785.5,19359.8
34733.5,19199.6
34693.5,19054.5
34664.3,18919.8
34645,18790.7
34634.2,18662.4
34630.9,18530.1
34631.3,18480.7
34639.3,18320.8
34657,18141.9
34682.8,17956.4
34715.1,17776.5
34751.9,17614.6
34754.7,17604.1
34767.1,17554
34774,17519.1
34774.3,17508.8
34759.6,17515.8
34723,17538.5
34669.9,17573.1
34605.6,17616.2
34535.5,17664.1
34464.9,17713.2
34399.1,17759.9
34363.3,17785.9
34303.9,17828.9
34244.1,17871.2
34206.3,17897
34163.3,17926.2
34130.8,17949.2
34123,17955.1
34068.6,17998
34017.4,18036.4
33960.9,18076.4
33890.7,18124.1
33830,18164.5
33763.1,18208.7
33704.7,18246.5
33650.2,18280.7
33595,18313.8
33534.7,18348.5
33464.5,18387.4
33379.9,18433
33276.3,18488.1
33149.2,18555.2
33105,18578.4
33027.6,18619.7
32955,18659.3
32895.5,18692.8
32859.5,18714.1
32819.6,18738
32792.2,18751.9
32787.1,18753.3
32770.5,18762
32734.9,18784.3
32688.6,18814.7
32640,18847.6
32597.3,18877.4
32568.9,18898.6
32563.3,18903.4
32547.4,18916.8
32511.5,18945.8
32461.8,18985.6
32430,19010.9
32239.1,19176.2
32053.3,19363.8
31878.3,19566.8
31719.9,19777.9
31584.2,19990.3
31517.8,20111.7
31418.3,20342.8
31350,20582.6
31313.2,20828.1
31308.1,21076
31268.8,21076
31265.2,21034.4
31275.1,20784.8
31316.9,20539.3
31357.5,20395
31403.2,20274.1
31466.1,20137
31541.2,19992.8
31623.8,19850.4
31709,19718.9
31749.8,19661.7
31825.3,19566.3
31918.8,19458.8
32024.5,19344.6
32137.1,19229.2
32251,19118.4
32360.5,19017.5
32460.2,18932.3
32538.3,18872.4
32623.1,18814.2
32711.7,18756.9
32809.1,18697.6
32919.9,18633.5
33049.1,18561.9
33201.2,18479.8
33280,18438
33488.4,18323.5
33683.9,18206.9
33877.3,18081.4
34079.5,17939.9
34133.4,17900.8
34243.8,17821.1
34353.7,17743.6
34459.5,17670.6
34557.9,17604.4
34645.3,17547.1
34718.5,17501.1
34773.9,17468.7
34808.1,17452
34817.5,17450.8
Z" /> 
</g>
<g style="fill:#000000; fill-opacity:0.0; 
stroke:#000000; stroke-width:78.7402; stroke-opacity:1; 
stroke-linecap:round; stroke-linejoin:round;">
<circle cx="124364" cy="80783.5" r="78.7402" /> 
</g>
<g style="fill:#000000; fill-opacity:0.0; 
stroke:#000000; stroke-width:50; stroke-opacity:1; 
stroke-linecap:round; stroke-linejoin:round;">
<path d="M123287 81196
L126712 81196
" />
<path d="M123287 82830
L123287 81196
" />
<path d="M123287 84976
L123287 84169
" />
<path d="M126712 84976
L123287 84976
" />
<path d="M126712 84169
L126712 84976
" />
<path d="M126712 81196
L126712 82830
" />
</g>
<g style="fill:#000000; fill-opacity:0.0; 
stroke:#000000; stroke-width:78.7402; stroke-opacity:1; 
stroke-linecap:round; stroke-linejoin:round;">
<circle cx="119364" cy="80783.5" r="78.7402" /> 
</g>
<g style="fill:#000000; fill-opacity:0.0; 
stroke:#000000; stroke-width:50; stroke-opacity:1; 
stroke-linecap:round; stroke-linejoin:round;">
<path d="M118287 81196
L121712 81196
" />
<path d="M118287 82830
L118287 81196
" />
<path d="M118287 84976
L118287 84169
" />
<path d="M121712 84976
L118287 84976
" />
<path d="M121712 84169
L121712 84976
" />
<path d="M121712 81196
L121712 82830
" />
</g>
<g style="fill:#000000; fill-opacity:0.0; 
stroke:#000000; stroke-width:47.2441; stroke-opacity:1; 
stroke-linecap:round; stroke-linejoin:round;">
<path d="M144011 75847
L144011 60492
" />
<path d="M116648 75847
L144011 75847
" />
<path d="M116648 60492
L116648 75847
" />
<path d="M144011 60492
L116648 60492
" />
</g>
<g style="fill:#000000; fill-opacity:0.0; 
stroke:#000000; stroke-width:157.48; stroke-opacity:1; 
stroke-linecap:round; stroke-linejoin:round;">
<circle cx="143292" cy="56585.7" r="78.7402" /> 
</g>
<g style="fill:#000000; fill-opacity:0.0; 
stroke:#000000; stroke-width:50; stroke-opacity:1; 
stroke-linecap:round; stroke-linejoin:round;">
<path d="M142430 47570
L142430 57570
" />
<path d="M122430 47570
L142430 47570
" />
<path d="M122430 57570
L122430 47570
" />
<path d="M142430 57570
L122430 57570
" />
</g>
<g style="fill:#000000; fill-opacity:0.0; 
stroke:#000000; stroke-width:47.2441; stroke-opacity:1; 
stroke-linecap:round; stroke-linejoin:round;">
<path d="M90565 53475
L90262 53475
" />
<path d="M87384 53475
L87687 53475
" />
<path d="M90262 52935
L87687 52935
" />
<path d="M90262 54014
L90262 52935
" />
<path d="M87687 54014
L90262 54014
" />
<path d="M87687 52935
L87687 54014
" />
</g>
<g style="fill:#000000; fill-opacity:0.0; 
stroke:#000000; stroke-width:118.11; stroke-opacity:1; 
stroke-linecap:round; stroke-linejoin:round;">
</g>
<g style="fill:#000000; fill-opacity:1.0; 
stroke:#000000; stroke-width:0; stroke-opacity:1; 
stroke-linecap:round; stroke-linejoin:round;">
<circle cx="88507.3" cy="51401.8" r="98.4252" /> 
</g>
<g style="fill:#000000; fill-opacity:0.0; 
stroke:#000000; stroke-width:50; stroke-opacity:1; 
stroke-linecap:round; stroke-linejoin:round;">
<circle cx="86775" cy="50575" r="1574.8" /> 
</g>
<g style="fill:#000000; fill-opacity:0.0; 
stroke:#000000; stroke-width:78.7402; stroke-opacity:1; 
stroke-linecap:round; stroke-linejoin:round;">
<circle cx="84319.1" cy="44475" r="39.3701" /> 
</g>
<g style="fill:#000000; fill-opacity:0.0; 
stroke:#000000; stroke-width:60; stroke-opacity:1; 
stroke-linecap:round; stroke-linejoin:round;">
<path d="M94693 34475
L83893 34475
" />
<path d="M94693 39514
L94693 34475
" />
<path d="M92811 39514
L94693 39514
" />
<path d="M92811 47274
L92811 39514
" />
<path d="M84823 47274
L92811 47274
" />
<path d="M84823 41404
L84823 47274
" />
<path d="M83893 41404
L84823 41404
" />
<path d="M83893 34475
L83893 41404
" />
</g>
<g style="fill:#000000; fill-opacity:0.0; 
stroke:#000000; stroke-width:78.7402; stroke-opacity:1; 
stroke-linecap:round; stroke-linejoin:round;">
<circle cx="44319.1" cy="44475" r="39.3701" /> 
</g>
<g style="fill:#000000; fill-opacity:0.0; 
stroke:#000000; stroke-width:60; stroke-opacity:1; 
stroke-linecap:round; stroke-linejoin:round;">
<path d="M54693 34475
L43893 34475
" />
<path d="M54693 39514
L54693 34475
" />
<path d="M52811 39514
L54693 39514
" />
<path d="M52811 47274
L52811 39514
" />
<path d="M44823 47274
L52811 47274
" />
<path d="M44823 41404
L44823 47274
" />
<path d="M43893 41404
L44823 41404
" />
<path d="M43893 34475
L43893 41404
" />
</g>
<g style="fill:#000000; fill-opacity:0.0; 
stroke:#000000; stroke-width:157.48; stroke-opacity:1; 
stroke-linecap:round; stroke-linejoin:round;">
<circle cx="43346.5" cy="22153.5" r="78.7402" /> 
</g>
<g style="fill:#000000; fill-opacity:0.0; 
stroke:#000000; stroke-width:50; stroke-opacity:1; 
stroke-linecap:round; stroke-linejoin:round;">
<path d="M56125 16374
L43874 16374
" />
<path d="M56125 28625
L56125 16374
" />
<path d="M43874 28625
L56125 28625
" />
<path d="M43874 16374
L43874 28625
" />
</g>
<g style="fill:#000000; fill-opacity:0.0; 
stroke:#000000; stroke-width:47.2441; stroke-opacity:1; 
stroke-linecap:round; stroke-linejoin:round;">
<path d="M60330 56229
L60330 56532
" />
<path d="M60330 59410
L60330 59107
" />
<path d="M59790 56532
L59790 59107
" />
<path d="M60869 56532
L59790 56532
" />
<path d="M60869 59107
L60869 56532
" />
<path d="M59790 59107
L60869 59107
" />
</g>
<g style="fill:#000000; fill-opacity:0.0; 
stroke:#000000; stroke-width:39.3701; stroke-opacity:1; 
stroke-linecap:round; stroke-linejoin:round;">
<path d="M84696 61478
L84538 61478
" />
<path d="M84696 61636
L84696 61478
" />
<path d="M82341 61403
L81948 61797
" />
<path d="M82459 61403
L82341 61403
" />
<path d="M81948 61797
L81802 61797
" />
<path d="M81798 61797
L81700 61797
" />
<path d="M84664 69710
L84664 69632
" />
<path d="M84546 69710
L84664 69710
" />
<path d="M81948 69710
L82066 69710
" />
<path d="M81948 69632
L81948 69710
" />
</g>
<g style="fill:#000000; fill-opacity:0.0; 
stroke:#000000; stroke-width:78.7402; stroke-opacity:1; 
stroke-linecap:round; stroke-linejoin:round;">
<circle cx="136973" cy="30578.7" r="59.0551" /> 
</g>
<g style="fill:#000000; fill-opacity:0.0; 
stroke:#000000; stroke-width:50; stroke-opacity:1; 
stroke-linecap:round; stroke-linejoin:round;">
<path d="M137248 24122
L137248 31366
" />
<path d="M137248 34476
L137248 31366
" />
<path d="M137249 34476.4 A4537.1 4537.1 0.0 0 0 141422 37586.6 " />
<path d="M144729 37586
L141422 37586
" />
<path d="M137248 20972
L137248 24122
" />
<path d="M141422 17901.6 A4516.68 4516.68 0.0 0 0 137249 20972.4 " />
<path d="M144729 17901
L141422 17901
" />
<path d="M145910 33610
L144729 33610
" />
<path d="M145910 21877
L144729 21877
" />
<path d="M145910 21877
L145910 33610
" />
<path d="M144729 33610
L144729 37586
" />
<path d="M144729 21877
L144729 33610
" />
<path d="M144729 17901
L144729 21877
" />
</g>
<g style="fill:#000000; fill-opacity:0.0; 
stroke:#000000; stroke-width:39.3701; stroke-opacity:1; 
stroke-linecap:round; stroke-linejoin:round;">
<path d="M108188 79253
L108385 79253
" />
<path d="M108188 79253
L108188 79450
" />
<path d="M111811 79253
L111614 79253
" />
<path d="M111811 79253
L111811 79450
" />
<path d="M110472 81458
L109527 81458
" />
<path d="M111811 85001
L111811 84805
" />
<path d="M111811 85001
L111614 85001
" />
<path d="M108188 85001
L108385 85001
" />
<path d="M108188 85001
L108188 84805
" />
<path d="M111811 82127
L111811 82521
" />
<path d="M108188 82127
L108188 82521
" />
<path d="M98188 79253
L98385 79253
" />
<path d="M98188 79253
L98188 79450
" />
<path d="M101811 79253
L101614 79253
" />
<path d="M101811 79253
L101811 79450
" />
<path d="M100472 81458
L99527 81458
" />
<path d="M101811 85001
L101811 84805
" />
<path d="M101811 85001
L101614 85001
" />
<path d="M98188 85001
L98385 85001
" />
<path d="M98188 85001
L98188 84805
" />
<path d="M101811 82127
L101811 82521
" />
<path d="M98188 82127
L98188 82521
" />
<path d="M90688 79253
L90885 79253
" />
<path d="M90688 79253
L90688 79450
" />
<path d="M94311 79253
L94114 79253
" />
<path d="M94311 79253
L94311 79450
" />
<path d="M92972 81458
L92027 81458
" />
<path d="M94311 85001
L94311 84805
" />
<path d="M94311 85001
L94114 85001
" />
<path d="M90688 85001
L90885 85001
" />
<path d="M90688 85001
L90688 84805
" />
<path d="M94311 82127
L94311 82521
" />
<path d="M90688 82127
L90688 82521
" />
<path d="M83188 79253
L83385 79253
" />
<path d="M83188 79253
L83188 79450
" />
<path d="M86811 79253
L86614 79253
" />
<path d="M86811 79253
L86811 79450
" />
<path d="M85472 81458
L84527 81458
" />
<path d="M86811 85001
L86811 84805
" />
<path d="M86811 85001
L86614 85001
" />
<path d="M83188 85001
L83385 85001
" />
<path d="M83188 85001
L83188 84805
" />
<path d="M86811 82127
L86811 82521
" />
<path d="M83188 82127
L83188 82521
" />
<path d="M73188 79253
L73385 79253
" />
<path d="M73188 79253
L73188 79450
" />
<path d="M76811 79253
L76614 79253
" />
<path d="M76811 79253
L76811 79450
" />
<path d="M75472 81458
L74527 81458
" />
<path d="M76811 85001
L76811 84805
" />
<path d="M76811 85001
L76614 85001
" />
<path d="M73188 85001
L73385 85001
" />
<path d="M73188 85001
L73188 84805
" />
<path d="M76811 82127
L76811 82521
" />
<path d="M73188 82127
L73188 82521
" />
<path d="M65688 79253
L65885 79253
" />
<path d="M65688 79253
L65688 79450
" />
<path d="M69311 79253
L69114 79253
" />
<path d="M69311 79253
L69311 79450
" />
<path d="M67972 81458
L67027 81458
" />
<path d="M69311 85001
L69311 84805
" />
<path d="M69311 85001
L69114 85001
" />
<path d="M65688 85001
L65885 85001
" />
<path d="M65688 85001
L65688 84805
" />
<path d="M69311 82127
L69311 82521
" />
<path d="M65688 82127
L65688 82521
" />
</g>
<g style="fill:#000000; fill-opacity:0.0; 
stroke:#000000; stroke-width:78.7402; stroke-opacity:1; 
stroke-linecap:round; stroke-linejoin:round;">
<path d="M64007 83097
L64007 64742
" />
<path d="M61652 83097
L64007 83097
" />
<path d="M61652 64742
L61652 83097
" />
<path d="M64007 64742
L61652 64742
" />
</g>
<g style="fill:#000000; fill-opacity:0.0; 
stroke:#000000; stroke-width:157.48; stroke-opacity:1; 
stroke-linecap:round; stroke-linejoin:round;">
<circle cx="63346.5" cy="22153.5" r="78.7402" /> 
</g>
<g style="fill:#000000; fill-opacity:0.0; 
stroke:#000000; stroke-width:50; stroke-opacity:1; 
stroke-linecap:round; stroke-linejoin:round;">
<path d="M76125 16374
L63874 16374
" />
<path d="M76125 28625
L76125 16374
" />
<path d="M63874 28625
L76125 28625
" />
<path d="M63874 16374
L63874 28625
" />
</g>
<g style="fill:#000000; fill-opacity:0.0; 
stroke:#000000; stroke-width:47.2441; stroke-opacity:1; 
stroke-linecap:round; stroke-linejoin:round;">
<path d="M110120 53470
L109817 53470
" />
<path d="M106939 53470
L107242 53470
" />
<path d="M109817 52930
L107242 52930
" />
<path d="M109817 54009
L109817 52930
" />
<path d="M107242 54009
L109817 54009
" />
<path d="M107242 52930
L107242 54009
" />
</g>
<g style="fill:#000000; fill-opacity:0.0; 
stroke:#000000; stroke-width:39.3701; stroke-opacity:1; 
stroke-linecap:round; stroke-linejoin:round;">
<path d="M92163 69661
L92321 69661
" />
<path d="M92163 69503
L92163 69661
" />
<path d="M94518 69736
L94911 69342
" />
<path d="M94400 69736
L94518 69736
" />
<path d="M94911 69342
L95057 69342
" />
<path d="M95061 69342
L95159 69342
" />
<path d="M92195 61429
L92195 61507
" />
<path d="M92313 61429
L92195 61429
" />
<path d="M94911 61429
L94793 61429
" />
<path d="M94911 61507
L94911 61429
" />
</g>
<g style="fill:#000000; fill-opacity:0.0; 
stroke:#000000; stroke-width:78.7402; stroke-opacity:1; 
stroke-linecap:round; stroke-linejoin:round;">
<circle cx="104319" cy="44475" r="39.3701" /> 
</g>
<g style="fill:#000000; fill-opacity:0.0; 
stroke:#000000; stroke-width:60; stroke-opacity:1; 
stroke-linecap:round; stroke-linejoin:round;">
<path d="M114693 34475
L103893 34475
" />
<path d="M114693 39514
L114693 34475
" />
<path d="M112811 39514
L114693 39514
" />
<path d="M112811 47274
L112811 39514
" />
<path d="M104823 47274
L112811 47274
" />
<path d="M104823 41404
L104823 47274
" />
<path d="M103893 41404
L104823 41404
" />
<path d="M103893 34475
L103893 41404
" />
</g>
<g style="fill:#000000; fill-opacity:0.0; 
stroke:#000000; stroke-width:157.48; stroke-opacity:1; 
stroke-linecap:round; stroke-linejoin:round;">
<circle cx="103346" cy="22153.5" r="78.7402" /> 
</g>
<g style="fill:#000000; fill-opacity:0.0; 
stroke:#000000; stroke-width:50; stroke-opacity:1; 
stroke-linecap:round; stroke-linejoin:round;">
<path d="M116125 16374
L103874 16374
" />
<path d="M116125 28625
L116125 16374
" />
<path d="M103874 28625
L116125 28625
" />
<path d="M103874 16374
L103874 28625
" />
</g>
<g style="fill:#000000; fill-opacity:0.0; 
stroke:#000000; stroke-width:118.11; stroke-opacity:1; 
stroke-linecap:round; stroke-linejoin:round;">
</g>
<g style="fill:#000000; fill-opacity:1.0; 
stroke:#000000; stroke-width:0; stroke-opacity:1; 
stroke-linecap:round; stroke-linejoin:round;">
<circle cx="108162" cy="51396.8" r="98.4252" /> 
</g>
<g style="fill:#000000; fill-opacity:0.0; 
stroke:#000000; stroke-width:50; stroke-opacity:1; 
stroke-linecap:round; stroke-linejoin:round;">
<circle cx="106430" cy="50570" r="1574.8" /> 
</g>
<g style="fill:#000000; fill-opacity:0.0; 
stroke:#000000; stroke-width:47.2441; stroke-opacity:1; 
stroke-linecap:round; stroke-linejoin:round;">
<path d="M102451 47233
L103608 47233
" />
<path d="M102451 47139
L103608 47139
" />
<path d="M102451 47186
L103608 47186
" />
<path d="M103030 44997
L103030 45399
" />
<path d="M103030 47942
L103030 47540
" />
<path d="M102451 45399
L102451 47540
" />
<path d="M103608 45399
L102451 45399
" />
<path d="M103608 47540
L103608 45399
" />
<path d="M102451 47540
L103608 47540
" />
<path d="M69965 53475
L69662 53475
" />
<path d="M66784 53475
L67087 53475
" />
<path d="M69662 52935
L67087 52935
" />
<path d="M69662 54014
L69662 52935
" />
<path d="M67087 54014
L69662 54014
" />
<path d="M67087 52935
L67087 54014
" />
</g>
<g style="fill:#000000; fill-opacity:0.0; 
stroke:#000000; stroke-width:118.11; stroke-opacity:1; 
stroke-linecap:round; stroke-linejoin:round;">
</g>
<g style="fill:#000000; fill-opacity:1.0; 
stroke:#000000; stroke-width:0; stroke-opacity:1; 
stroke-linecap:round; stroke-linejoin:round;">
<circle cx="48207.3" cy="51401.8" r="98.4252" /> 
</g>
<g style="fill:#000000; fill-opacity:0.0; 
stroke:#000000; stroke-width:50; stroke-opacity:1; 
stroke-linecap:round; stroke-linejoin:round;">
<circle cx="46475" cy="50575" r="1574.8" /> 
</g>
<g style="fill:#000000; fill-opacity:0.0; 
stroke:#000000; stroke-width:47.2441; stroke-opacity:1; 
stroke-linecap:round; stroke-linejoin:round;">
<path d="M49965 53475
L49662 53475
" />
<path d="M46784 53475
L47087 53475
" />
<path d="M49662 52935
L47087 52935
" />
<path d="M49662 54014
L49662 52935
" />
<path d="M47087 54014
L49662 54014
" />
<path d="M47087 52935
L47087 54014
" />
</g>
<g style="fill:#000000; fill-opacity:0.0; 
stroke:#000000; stroke-width:118.11; stroke-opacity:1; 
stroke-linecap:round; stroke-linejoin:round;">
</g>
<g style="fill:#000000; fill-opacity:1.0; 
stroke:#000000; stroke-width:0; stroke-opacity:1; 
stroke-linecap:round; stroke-linejoin:round;">
<circle cx="68007.3" cy="51401.8" r="98.4252" /> 
</g>
<g style="fill:#000000; fill-opacity:0.0; 
stroke:#000000; stroke-width:50; stroke-opacity:1; 
stroke-linecap:round; stroke-linejoin:round;">
<circle cx="66275" cy="50575" r="1574.8" /> 
</g>
<g style="fill:#000000; fill-opacity:0.0; 
stroke:#000000; stroke-width:39.3701; stroke-opacity:1; 
stroke-linecap:round; stroke-linejoin:round;">
<path d="M111671 77241
L111533 77241
" />
<path d="M111671 77093
L111671 77241
" />
<path d="M108620 77241
L108620 77074
" />
<path d="M108777 77241
L108620 77241
" />
<path d="M108630 71237
L108738 71237
" />
<path d="M108630 71365
L108630 71237
" />
<path d="M111681 71237
L111583 71237
" />
<path d="M111681 71365
L111681 71237
" />
</g>
<g style="fill:#000000; fill-opacity:0.0; 
stroke:#000000; stroke-width:47.2441; stroke-opacity:1; 
stroke-linecap:round; stroke-linejoin:round;">
<path d="M56380 56229
L56380 56532
" />
<path d="M56380 59410
L56380 59107
" />
<path d="M55840 56532
L55840 59107
" />
<path d="M56919 56532
L55840 56532
" />
<path d="M56919 59107
L56919 56532
" />
<path d="M55840 59107
L56919 59107
" />
</g>
<g style="fill:#000000; fill-opacity:0.0; 
stroke:#000000; stroke-width:78.7402; stroke-opacity:1; 
stroke-linecap:round; stroke-linejoin:round;">
<circle cx="64319.1" cy="44475" r="39.3701" /> 
</g>
<g style="fill:#000000; fill-opacity:0.0; 
stroke:#000000; stroke-width:60; stroke-opacity:1; 
stroke-linecap:round; stroke-linejoin:round;">
<path d="M74693 34475
L63893 34475
" />
<path d="M74693 39514
L74693 34475
" />
<path d="M72811 39514
L74693 39514
" />
<path d="M72811 47274
L72811 39514
" />
<path d="M64823 47274
L72811 47274
" />
<path d="M64823 41404
L64823 47274
" />
<path d="M63893 41404
L64823 41404
" />
<path d="M63893 34475
L63893 41404
" />
</g>
<g style="fill:#000000; fill-opacity:0.0; 
stroke:#000000; stroke-width:157.48; stroke-opacity:1; 
stroke-linecap:round; stroke-linejoin:round;">
<circle cx="83346.5" cy="22153.5" r="78.7402" /> 
</g>
<g style="fill:#000000; fill-opacity:0.0; 
stroke:#000000; stroke-width:50; stroke-opacity:1; 
stroke-linecap:round; stroke-linejoin:round;">
<path d="M96125 16374
L83874 16374
" />
<path d="M96125 28625
L96125 16374
" />
<path d="M83874 28625
L96125 28625
" />
<path d="M83874 16374
L83874 28625
" />
</g>
<g style="fill:#000000; fill-opacity:0.0; 
stroke:#000000; stroke-width:47.2441; stroke-opacity:1; 
stroke-linecap:round; stroke-linejoin:round;">
<path d="M82296 47238
L83453 47238
" />
<path d="M82296 47144
L83453 47144
" />
<path d="M82296 47191
L83453 47191
" />
<path d="M82875 45002
L82875 45404
" />
<path d="M82875 47947
L82875 47545
" />
<path d="M82296 45404
L82296 47545
" />
<path d="M83453 45404
L82296 45404
" />
<path d="M83453 47545
L83453 45404
" />
<path d="M82296 47545
L83453 47545
" />
<path d="M62496 47238
L63653 47238
" />
<path d="M62496 47144
L63653 47144
" />
<path d="M62496 47191
L63653 47191
" />
<path d="M63075 45002
L63075 45404
" />
<path d="M63075 47947
L63075 47545
" />
<path d="M62496 45404
L62496 47545
" />
<path d="M63653 45404
L62496 45404
" />
<path d="M63653 47545
L63653 45404
" />
<path d="M62496 47545
L63653 47545
" />
<path d="M42496 47138
L43653 47138
" />
<path d="M42496 47044
L43653 47044
" />
<path d="M42496 47091
L43653 47091
" />
<path d="M43075 44902
L43075 45304
" />
<path d="M43075 47847
L43075 47445
" />
<path d="M42496 45304
L42496 47445
" />
<path d="M43653 45304
L42496 45304
" />
<path d="M43653 47445
L43653 45304
" />
<path d="M42496 47445
L43653 47445
" />
</g>
<g style="fill:#000000; fill-opacity:0.0; 
stroke:#000000; stroke-width:59.0551; stroke-opacity:1; 
stroke-linecap:round; stroke-linejoin:round;">
<text x="140709" y="81187.3"
textLength="1782.81" font-size="524.934" lengthAdjust="spacingAndGlyphs"
text-anchor="middle" opacity="0">Screw</text>
<path d="M139930 81149
L139986 81168
L140080 81168
L140118 81149
L140136 81131
L140155 81093
L140155 81056
L140136 81018
L140118 80999
L140080 80981
L140005 80962
L139968 80943
L139949 80924
L139930 80887
L139930 80849
L139949 80812
L139968 80793
L140005 80774
L140099 80774
L140155 80793
" />
<path d="M140493 81149
L140455 81168
L140380 81168
L140343 81149
L140324 81131
L140305 81093
L140305 80981
L140324 80943
L140343 80924
L140380 80906
L140455 80906
L140493 80924
" />
<path d="M140661 81168
L140661 80906
" />
<path d="M140661 80981
L140680 80943
L140699 80924
L140736 80906
L140774 80906
" />
<path d="M141055 81149
L141018 81168
L140943 81168
L140905 81149
L140886 81112
L140886 80962
L140905 80924
L140943 80906
L141018 80906
L141055 80924
L141074 80962
L141074 80999
L140886 81037
" />
<path d="M141205 80906
L141280 81168
L141355 80981
L141430 81168
L141505 80906
" />
<text x="124409" y="40587.3"
textLength="1782.81" font-size="524.934" lengthAdjust="spacingAndGlyphs"
text-anchor="middle" opacity="0">Screw</text>
<path d="M123630 40549
L123686 40568
L123780 40568
L123818 40549
L123836 40531
L123855 40493
L123855 40456
L123836 40418
L123818 40399
L123780 40381
L123705 40362
L123668 40343
L123649 40324
L123630 40287
L123630 40249
L123649 40212
L123668 40193
L123705 40174
L123799 40174
L123855 40193
" />
<path d="M124193 40549
L124155 40568
L124080 40568
L124043 40549
L124024 40531
L124005 40493
L124005 40381
L124024 40343
L124043 40324
L124080 40306
L124155 40306
L124193 40324
" />
<path d="M124361 40568
L124361 40306
" />
<path d="M124361 40381
L124380 40343
L124399 40324
L124436 40306
L124474 40306
" />
<path d="M124755 40549
L124718 40568
L124643 40568
L124605 40549
L124586 40512
L124586 40362
L124605 40324
L124643 40306
L124718 40306
L124755 40324
L124774 40362
L124774 40399
L124586 40437
" />
<path d="M124905 40306
L124980 40568
L125055 40381
L125130 40568
L125205 40306
" />
<text x="31508.7" y="60587.3"
textLength="1782.81" font-size="524.934" lengthAdjust="spacingAndGlyphs"
text-anchor="middle" opacity="0">Screw</text>
<path d="M30730 60549
L30786 60568
L30880 60568
L30918 60549
L30936 60531
L30955 60493
L30955 60456
L30936 60418
L30918 60399
L30880 60381
L30805 60362
L30768 60343
L30749 60324
L30730 60287
L30730 60249
L30749 60212
L30768 60193
L30805 60174
L30899 60174
L30955 60193
" />
<path d="M31293 60549
L31255 60568
L31180 60568
L31143 60549
L31124 60531
L31105 60493
L31105 60381
L31124 60343
L31143 60324
L31180 60306
L31255 60306
L31293 60324
" />
<path d="M31461 60568
L31461 60306
" />
<path d="M31461 60381
L31480 60343
L31499 60324
L31536 60306
L31574 60306
" />
<path d="M31855 60549
L31818 60568
L31743 60568
L31705 60549
L31686 60512
L31686 60362
L31705 60324
L31743 60306
L31818 60306
L31855 60324
L31874 60362
L31874 60399
L31686 60437
" />
<path d="M32005 60306
L32080 60568
L32155 60381
L32230 60568
L32305 60306
" />
<text x="38408.7" y="29587.3"
textLength="1782.81" font-size="524.934" lengthAdjust="spacingAndGlyphs"
text-anchor="middle" opacity="0">Screw</text>
<path d="M37630 29549
L37686 29568
L37780 29568
L37818 29549
L37836 29531
L37855 29493
L37855 29456
L37836 29418
L37818 29399
L37780 29381
L37705 29362
L37668 29343
L37649 29324
L37630 29287
L37630 29249
L37649 29212
L37668 29193
L37705 29174
L37799 29174
L37855 29193
" />
<path d="M38193 29549
L38155 29568
L38080 29568
L38043 29549
L38024 29531
L38005 29493
L38005 29381
L38024 29343
L38043 29324
L38080 29306
L38155 29306
L38193 29324
" />
<path d="M38361 29568
L38361 29306
" />
<path d="M38361 29381
L38380 29343
L38399 29324
L38436 29306
L38474 29306
" />
<path d="M38755 29549
L38718 29568
L38643 29568
L38605 29549
L38586 29512
L38586 29362
L38605 29324
L38643 29306
L38718 29306
L38755 29324
L38774 29362
L38774 29399
L38586 29437
" />
<path d="M38905 29306
L38980 29568
L39055 29381
L39130 29568
L39205 29306
" />
</g>
<g style="fill:#000000; fill-opacity:0.0; 
stroke:#000000; stroke-width:5.90551; stroke-opacity:1; 
stroke-linecap:round; stroke-linejoin:round;">
<g transform="rotate(-90 127571 82849.8)">
<text x="127571" y="83125.6"
textLength="1022.51" font-size="735.578" lengthAdjust="spacingAndGlyphs"
text-anchor="middle" opacity="0">J3</text>
</g>
<path d="M127268 83033
L127662 83033
L127741 83059
L127794 83112
L127820 83191
L127820 83243
" />
<path d="M127268 82823
L127268 82482
L127478 82665
L127478 82587
L127505 82534
L127531 82508
L127583 82482
L127715 82482
L127767 82508
L127794 82534
L127820 82587
L127820 82744
L127794 82797
L127767 82823
" />
<g transform="rotate(-90 122571 82849.8)">
<text x="122571" y="83125.6"
textLength="953.42" font-size="735.578" lengthAdjust="spacingAndGlyphs"
text-anchor="middle" opacity="0">J2</text>
</g>
<path d="M122268 83033
L122662 83033
L122741 83059
L122794 83112
L122820 83191
L122820 83243
" />
<path d="M122321 82797
L122295 82770
L122268 82718
L122268 82587
L122295 82534
L122321 82508
L122373 82482
L122426 82482
L122505 82508
L122820 82823
L122820 82482
" />
</g>
<g style="fill:#000000; fill-opacity:0.0; 
stroke:#000000; stroke-width:59.0551; stroke-opacity:1; 
stroke-linecap:round; stroke-linejoin:round;">
<text x="143027" y="76634.6"
textLength="795.079" font-size="524.934" lengthAdjust="spacingAndGlyphs"
text-anchor="middle" opacity="0">U1</text>
<path d="M142726 76222
L142726 76540
L142745 76578
L142764 76597
L142801 76615
L142876 76615
L142914 76597
L142933 76578
L142951 76540
L142951 76222
" />
<path d="M143345 76615
L143120 76615
" />
<path d="M143233 76615
L143233 76222
L143195 76278
L143158 76315
L143120 76334
" />
</g>
<g style="fill:#000000; fill-opacity:0.0; 
stroke:#000000; stroke-width:5.90551; stroke-opacity:1; 
stroke-linecap:round; stroke-linejoin:round;">
<text x="140293" y="58617.4"
textLength="1683.19" font-size="737.372" lengthAdjust="spacingAndGlyphs"
text-anchor="middle" opacity="0">PS1</text>
<path d="M139621 58591
L139621 58038
L139832 58038
L139884 58064
L139911 58090
L139937 58143
L139937 58222
L139911 58275
L139884 58301
L139832 58327
L139621 58327
" />
<path d="M140148 58564
L140227 58591
L140358 58591
L140411 58564
L140437 58538
L140464 58485
L140464 58433
L140437 58380
L140411 58354
L140358 58327
L140253 58301
L140200 58275
L140174 58248
L140148 58196
L140148 58143
L140174 58090
L140200 58064
L140253 58038
L140385 58038
L140464 58064
" />
<path d="M140990 58591
L140674 58591
" />
<path d="M140832 58591
L140832 58038
L140780 58117
L140727 58169
L140674 58196
" />
</g>
<g style="fill:#000000; fill-opacity:0.0; 
stroke:#000000; stroke-width:59.0551; stroke-opacity:1; 
stroke-linecap:round; stroke-linejoin:round;">
<text x="88975" y="52738.8"
textLength="776.331" font-size="524.934" lengthAdjust="spacingAndGlyphs"
text-anchor="middle" opacity="0">R5</text>
<path d="M88909 52720
L88778 52532
" />
<path d="M88684 52720
L88684 52326
L88834 52326
L88871 52345
L88890 52363
L88909 52401
L88909 52457
L88890 52495
L88871 52513
L88834 52532
L88684 52532
" />
<path d="M89265 52326
L89078 52326
L89059 52513
L89078 52495
L89115 52476
L89209 52476
L89246 52495
L89265 52513
L89284 52551
L89284 52645
L89265 52682
L89246 52701
L89209 52720
L89115 52720
L89078 52701
L89059 52682
" />
</g>
<g style="fill:#000000; fill-opacity:0.0; 
stroke:#000000; stroke-width:5.90551; stroke-opacity:1; 
stroke-linecap:round; stroke-linejoin:round;">
<text x="85775" y="48871.9"
textLength="845.426" font-size="524.934" lengthAdjust="spacingAndGlyphs"
text-anchor="middle" opacity="0">D6</text>
<path d="M85484 48853
L85484 48459
L85578 48459
L85634 48478
L85671 48515
L85690 48553
L85709 48628
L85709 48684
L85690 48759
L85671 48796
L85634 48834
L85578 48853
L85484 48853
" />
<path d="M86046 48459
L85971 48459
L85934 48478
L85915 48496
L85878 48553
L85859 48628
L85859 48778
L85878 48815
L85896 48834
L85934 48853
L86009 48853
L86046 48834
L86065 48815
L86084 48778
L86084 48684
L86065 48646
L86046 48628
L86009 48609
L85934 48609
L85896 48628
L85878 48646
L85859 48684
" />
<text x="85632.1" y="34033.2"
textLength="1080.32" font-size="732.539" lengthAdjust="spacingAndGlyphs"
text-anchor="middle" opacity="0">K3</text>
<path d="M85226 34006
L85226 33457
" />
<path d="M85540 34006
L85305 33693
" />
<path d="M85540 33457
L85226 33771
" />
<path d="M85723 33457
L86063 33457
L85880 33666
L85959 33666
L86011 33693
L86037 33719
L86063 33771
L86063 33902
L86037 33954
L86011 33980
L85959 34006
L85802 34006
L85749 33980
L85723 33954
" />
<text x="45632.1" y="34033.2"
textLength="1080.32" font-size="732.539" lengthAdjust="spacingAndGlyphs"
text-anchor="middle" opacity="0">K1</text>
<path d="M45226 34006
L45226 33457
" />
<path d="M45540 34006
L45305 33693
" />
<path d="M45540 33457
L45226 33771
" />
<path d="M46063 34006
L45749 34006
" />
<path d="M45906 34006
L45906 33457
L45854 33536
L45802 33588
L45749 33614
" />
<text x="45524.7" y="15909.2"
textLength="898.598" font-size="692.938" lengthAdjust="spacingAndGlyphs"
text-anchor="middle" opacity="0">J5</text>
<path d="M45351 15364
L45351 15736
L45326 15810
L45277 15859
L45202 15884
L45153 15884
" />
<path d="M45846 15364
L45598 15364
L45574 15612
L45598 15587
L45648 15562
L45772 15562
L45821 15587
L45846 15612
L45871 15661
L45871 15785
L45846 15835
L45821 15859
L45772 15884
L45648 15884
L45598 15859
L45574 15835
" />
</g>
<g style="fill:#000000; fill-opacity:0.0; 
stroke:#000000; stroke-width:59.0551; stroke-opacity:1; 
stroke-linecap:round; stroke-linejoin:round;">
<g transform="rotate(-90 59396.9 57820)">
<text x="59396.9" y="58016.9"
textLength="776.331" font-size="524.934" lengthAdjust="spacingAndGlyphs"
text-anchor="middle" opacity="0">R2</text>
</g>
<path d="M59575 57885
L59387 58016
" />
<path d="M59575 58110
L59181 58110
L59181 57960
L59200 57923
L59218 57904
L59256 57885
L59312 57885
L59350 57904
L59368 57923
L59387 57960
L59387 58110
" />
<path d="M59218 57735
L59200 57716
L59181 57679
L59181 57585
L59200 57548
L59218 57529
L59256 57510
L59293 57510
L59350 57529
L59575 57754
L59575 57510
" />
<text x="83381.2" y="61207"
textLength="864.173" font-size="524.934" lengthAdjust="spacingAndGlyphs"
text-anchor="middle" opacity="0">Q1</text>
<path d="M83343 61225
L83306 61207
L83268 61169
L83212 61113
L83174 61094
L83137 61094
" />
<path d="M83156 61188
L83118 61169
L83081 61132
L83062 61057
L83062 60925
L83081 60850
L83118 60813
L83156 60794
L83231 60794
L83268 60813
L83306 60850
L83324 60925
L83324 61057
L83306 61132
L83268 61169
L83231 61188
L83156 61188
" />
<path d="M83699 61188
L83474 61188
" />
<path d="M83587 61188
L83587 60794
L83549 60850
L83512 60888
L83474 60907
" />
</g>
<g style="fill:#000000; fill-opacity:0.0; 
stroke:#000000; stroke-width:5.90551; stroke-opacity:1; 
stroke-linecap:round; stroke-linejoin:round;">
<g transform="rotate(-90 136526 33184.5)">
<text x="136526" y="33381.8"
textLength="753.016" font-size="525.968" lengthAdjust="spacingAndGlyphs"
text-anchor="middle" opacity="0">J1</text>
</g>
<path d="M136309 33316
L136591 33316
L136648 33334
L136685 33372
L136704 33428
L136704 33466
" />
<path d="M136704 32921
L136704 33146
" />
<path d="M136704 33034
L136309 33034
L136366 33071
L136403 33109
L136422 33146
" />
</g>
<g style="fill:#000000; fill-opacity:0.0; 
stroke:#000000; stroke-width:59.0551; stroke-opacity:1; 
stroke-linecap:round; stroke-linejoin:round;">
<text x="112880" y="79574.7"
textLength="1057.55" font-size="524.934" lengthAdjust="spacingAndGlyphs"
text-anchor="middle" opacity="0">J14</text>
<path d="M112561 79162
L112561 79443
L112542 79499
L112505 79537
L112448 79555
L112411 79555
" />
<path d="M112954 79555
L112730 79555
" />
<path d="M112842 79555
L112842 79162
L112805 79218
L112767 79256
L112730 79274
" />
<path d="M113292 79293
L113292 79555
" />
<path d="M113198 79143
L113104 79424
L113348 79424
" />
<text x="103030" y="79624.7"
textLength="1126.64" font-size="524.934" lengthAdjust="spacingAndGlyphs"
text-anchor="middle" opacity="0">J13</text>
<path d="M102711 79212
L102711 79493
L102692 79549
L102655 79587
L102598 79605
L102561 79605
" />
<path d="M103104 79605
L102880 79605
" />
<path d="M102992 79605
L102992 79212
L102955 79268
L102917 79306
L102880 79324
" />
<path d="M103236 79212
L103479 79212
L103348 79362
L103404 79362
L103442 79381
L103461 79399
L103479 79437
L103479 79530
L103461 79568
L103442 79587
L103404 79605
L103292 79605
L103254 79587
L103236 79568
" />
<text x="95080" y="79724.7"
textLength="1126.64" font-size="524.934" lengthAdjust="spacingAndGlyphs"
text-anchor="middle" opacity="0">J12</text>
<path d="M94761 79312
L94761 79593
L94742 79649
L94705 79687
L94648 79705
L94611 79705
" />
<path d="M95154 79705
L94930 79705
" />
<path d="M95042 79705
L95042 79312
L95005 79368
L94967 79406
L94930 79424
" />
<path d="M95304 79349
L95323 79331
L95361 79312
L95454 79312
L95492 79331
L95511 79349
L95529 79387
L95529 79424
L95511 79481
L95286 79705
L95529 79705
" />
<text x="82480" y="79624.7"
textLength="1126.64" font-size="524.934" lengthAdjust="spacingAndGlyphs"
text-anchor="middle" opacity="0">J11</text>
<path d="M82161 79212
L82161 79493
L82142 79549
L82105 79587
L82048 79605
L82011 79605
" />
<path d="M82554 79605
L82330 79605
" />
<path d="M82442 79605
L82442 79212
L82405 79268
L82367 79306
L82330 79324
" />
<path d="M82929 79605
L82704 79605
" />
<path d="M82817 79605
L82817 79212
L82779 79268
L82742 79306
L82704 79324
" />
<text x="77980" y="79574.7"
textLength="1126.64" font-size="524.934" lengthAdjust="spacingAndGlyphs"
text-anchor="middle" opacity="0">J10</text>
<path d="M77661 79162
L77661 79443
L77642 79499
L77605 79537
L77548 79555
L77511 79555
" />
<path d="M78054 79555
L77830 79555
" />
<path d="M77942 79555
L77942 79162
L77905 79218
L77867 79256
L77830 79274
" />
<path d="M78298 79162
L78336 79162
L78373 79181
L78392 79199
L78411 79237
L78429 79312
L78429 79405
L78411 79480
L78392 79518
L78373 79537
L78336 79555
L78298 79555
L78261 79537
L78242 79518
L78223 79480
L78204 79405
L78204 79312
L78223 79237
L78242 79199
L78261 79181
L78298 79162
" />
<text x="70330" y="79566.9"
textLength="751.687" font-size="524.934" lengthAdjust="spacingAndGlyphs"
text-anchor="middle" opacity="0">J4</text>
<path d="M70198 79154
L70198 79435
L70180 79491
L70142 79529
L70086 79548
L70048 79548
" />
<path d="M70554 79285
L70554 79548
" />
<path d="M70461 79135
L70367 79416
L70611 79416
" />
</g>
<g style="fill:#000000; fill-opacity:0.0; 
stroke:#000000; stroke-width:5.90551; stroke-opacity:1; 
stroke-linecap:round; stroke-linejoin:round;">
<g transform="rotate(-90 61097.9 63928.5)">
<text x="61097.9" y="64223.7"
textLength="1089.15" font-size="787.402" lengthAdjust="spacingAndGlyphs"
text-anchor="middle" opacity="0">J7</text>
</g>
<path d="M60774 64125
L61196 64125
L61280 64153
L61336 64209
L61365 64294
L61365 64350
" />
<path d="M60774 63900
L60774 63506
L61365 63759
" />
<g transform="rotate(-90 63080 83231.4)">
<text x="63080" y="83428.3"
textLength="757.583" font-size="524.934" lengthAdjust="spacingAndGlyphs"
text-anchor="middle" opacity="0">36</text>
</g>
<path d="M62864 83550
L62864 83306
L63014 83437
L63014 83381
L63033 83343
L63051 83325
L63089 83306
L63183 83306
L63220 83325
L63239 83343
L63258 83381
L63258 83493
L63239 83531
L63220 83550
" />
<path d="M62864 82968
L62864 83043
L62883 83081
L62901 83100
L62958 83137
L63033 83156
L63183 83156
L63220 83137
L63239 83118
L63258 83081
L63258 83006
L63239 82968
L63220 82950
L63183 82931
L63089 82931
L63051 82950
L63033 82968
L63014 83006
L63014 83081
L63033 83118
L63051 83137
L63089 83156
" />
<g transform="rotate(-90 62080 83231.4)">
<text x="62080" y="83428.3"
textLength="757.583" font-size="524.934" lengthAdjust="spacingAndGlyphs"
text-anchor="middle" opacity="0">35</text>
</g>
<path d="M61864 83550
L61864 83306
L62014 83437
L62014 83381
L62033 83343
L62051 83325
L62089 83306
L62183 83306
L62220 83325
L62239 83343
L62258 83381
L62258 83493
L62239 83531
L62220 83550
" />
<path d="M61864 82950
L61864 83137
L62051 83156
L62033 83137
L62014 83100
L62014 83006
L62033 82968
L62051 82950
L62089 82931
L62183 82931
L62220 82950
L62239 82968
L62258 83006
L62258 83100
L62239 83137
L62220 83156
" />
<g transform="rotate(-90 63080 64203.5)">
<text x="63080" y="64400.3"
textLength="382.63" font-size="524.934" lengthAdjust="spacingAndGlyphs"
text-anchor="middle" opacity="0">2</text>
</g>
<path d="M62901 64315
L62883 64297
L62864 64259
L62864 64165
L62883 64128
L62901 64109
L62939 64090
L62976 64090
L63033 64109
L63258 64334
L63258 64090
" />
<g transform="rotate(-90 62080 64203.5)">
<text x="62080" y="64400.3"
textLength="382.63" font-size="524.934" lengthAdjust="spacingAndGlyphs"
text-anchor="middle" opacity="0">1</text>
</g>
<path d="M62258 64090
L62258 64315
" />
<path d="M62258 64203
L61864 64203
L61920 64240
L61958 64278
L61976 64315
" />
<text x="65524.7" y="15909.2"
textLength="898.598" font-size="692.938" lengthAdjust="spacingAndGlyphs"
text-anchor="middle" opacity="0">J6</text>
<path d="M65351 15364
L65351 15736
L65326 15810
L65277 15859
L65202 15884
L65153 15884
" />
<path d="M65821 15364
L65722 15364
L65673 15389
L65648 15414
L65598 15488
L65574 15587
L65574 15785
L65598 15835
L65623 15859
L65673 15884
L65772 15884
L65821 15859
L65846 15835
L65871 15785
L65871 15661
L65846 15612
L65821 15587
L65772 15562
L65673 15562
L65623 15587
L65598 15612
L65574 15661
" />
</g>
<g style="fill:#000000; fill-opacity:0.0; 
stroke:#000000; stroke-width:59.0551; stroke-opacity:1; 
stroke-linecap:round; stroke-linejoin:round;">
<text x="108530" y="52733.8"
textLength="776.331" font-size="524.934" lengthAdjust="spacingAndGlyphs"
text-anchor="middle" opacity="0">R6</text>
<path d="M108464 52715
L108333 52527
" />
<path d="M108239 52715
L108239 52321
L108389 52321
L108426 52340
L108445 52358
L108464 52396
L108464 52452
L108445 52490
L108426 52508
L108389 52527
L108239 52527
" />
<path d="M108801 52321
L108726 52321
L108689 52340
L108670 52358
L108633 52415
L108614 52490
L108614 52640
L108633 52677
L108651 52696
L108689 52715
L108764 52715
L108801 52696
L108820 52677
L108839 52640
L108839 52546
L108820 52508
L108801 52490
L108764 52471
L108689 52471
L108651 52490
L108633 52508
L108614 52546
" />
<text x="93478.8" y="70326.7"
textLength="864.173" font-size="524.934" lengthAdjust="spacingAndGlyphs"
text-anchor="middle" opacity="0">Q2</text>
<path d="M93441 70345
L93403 70326
L93366 70289
L93310 70232
L93272 70214
L93235 70214
" />
<path d="M93253 70307
L93216 70289
L93178 70251
L93160 70176
L93160 70045
L93178 69970
L93216 69932
L93253 69914
L93328 69914
L93366 69932
L93403 69970
L93422 70045
L93422 70176
L93403 70251
L93366 70289
L93328 70307
L93253 70307
" />
<path d="M93572 69951
L93591 69932
L93628 69914
L93722 69914
L93760 69932
L93778 69951
L93797 69989
L93797 70026
L93778 70082
L93553 70307
L93797 70307
" />
</g>
<g style="fill:#000000; fill-opacity:0.0; 
stroke:#000000; stroke-width:5.90551; stroke-opacity:1; 
stroke-linecap:round; stroke-linejoin:round;">
<text x="105632" y="34033.2"
textLength="1149.42" font-size="732.539" lengthAdjust="spacingAndGlyphs"
text-anchor="middle" opacity="0">K4</text>
<path d="M105226 34006
L105226 33457
" />
<path d="M105540 34006
L105305 33693
" />
<path d="M105540 33457
L105226 33771
" />
<path d="M106011 33640
L106011 34006
" />
<path d="M105880 33431
L105749 33823
L106089 33823
" />
<text x="105525" y="15909.2"
textLength="898.598" font-size="692.938" lengthAdjust="spacingAndGlyphs"
text-anchor="middle" opacity="0">J9</text>
<path d="M105351 15364
L105351 15736
L105326 15810
L105277 15859
L105202 15884
L105153 15884
" />
<path d="M105623 15884
L105722 15884
L105772 15859
L105796 15835
L105846 15760
L105871 15661
L105871 15463
L105846 15414
L105821 15389
L105772 15364
L105673 15364
L105623 15389
L105598 15414
L105574 15463
L105574 15587
L105598 15637
L105623 15661
L105673 15686
L105772 15686
L105821 15661
L105846 15637
L105871 15587
" />
<text x="105330" y="48766.9"
textLength="776.331" font-size="524.934" lengthAdjust="spacingAndGlyphs"
text-anchor="middle" opacity="0">D8</text>
<path d="M105039 48748
L105039 48354
L105133 48354
L105189 48373
L105226 48410
L105245 48448
L105264 48523
L105264 48579
L105245 48654
L105226 48691
L105189 48729
L105133 48748
L105039 48748
" />
<path d="M105489 48523
L105451 48504
L105433 48485
L105414 48448
L105414 48429
L105433 48391
L105451 48373
L105489 48354
L105564 48354
L105601 48373
L105620 48391
L105639 48429
L105639 48448
L105620 48485
L105601 48504
L105564 48523
L105489 48523
L105451 48541
L105433 48560
L105414 48598
L105414 48673
L105433 48710
L105451 48729
L105489 48748
L105564 48748
L105601 48729
L105620 48710
L105639 48673
L105639 48598
L105620 48560
L105601 48541
L105564 48523
" />
</g>
<g style="fill:#000000; fill-opacity:0.0; 
stroke:#000000; stroke-width:59.0551; stroke-opacity:1; 
stroke-linecap:round; stroke-linejoin:round;">
<g transform="rotate(-90 102058 46470)">
<text x="102058" y="46666.9"
textLength="776.331" font-size="524.934" lengthAdjust="spacingAndGlyphs"
text-anchor="middle" opacity="0">D7</text>
</g>
<path d="M102235 46760
L101841 46760
L101841 46666
L101860 46610
L101898 46573
L101935 46554
L102010 46535
L102066 46535
L102141 46554
L102179 46573
L102216 46610
L102235 46666
L102235 46760
" />
<path d="M101841 46404
L101841 46141
L102235 46310
" />
<text x="68375" y="52738.8"
textLength="845.426" font-size="524.934" lengthAdjust="spacingAndGlyphs"
text-anchor="middle" opacity="0">R4</text>
<path d="M68309 52720
L68178 52532
" />
<path d="M68084 52720
L68084 52326
L68234 52326
L68271 52345
L68290 52363
L68309 52401
L68309 52457
L68290 52495
L68271 52513
L68234 52532
L68084 52532
" />
<path d="M68646 52457
L68646 52720
" />
<path d="M68553 52307
L68459 52588
L68703 52588
" />
</g>
<g style="fill:#000000; fill-opacity:0.0; 
stroke:#000000; stroke-width:5.90551; stroke-opacity:1; 
stroke-linecap:round; stroke-linejoin:round;">
<text x="45875" y="48671.9"
textLength="845.426" font-size="524.934" lengthAdjust="spacingAndGlyphs"
text-anchor="middle" opacity="0">D2</text>
<path d="M45584 48653
L45584 48259
L45678 48259
L45734 48278
L45771 48315
L45790 48353
L45809 48428
L45809 48484
L45790 48559
L45771 48596
L45734 48634
L45678 48653
L45584 48653
" />
<path d="M45959 48296
L45978 48278
L46015 48259
L46109 48259
L46146 48278
L46165 48296
L46184 48334
L46184 48371
L46165 48428
L45940 48653
L46184 48653
" />
</g>
<g style="fill:#000000; fill-opacity:0.0; 
stroke:#000000; stroke-width:59.0551; stroke-opacity:1; 
stroke-linecap:round; stroke-linejoin:round;">
<text x="48375" y="52738.8"
textLength="776.331" font-size="524.934" lengthAdjust="spacingAndGlyphs"
text-anchor="middle" opacity="0">R3</text>
<path d="M48309 52720
L48178 52532
" />
<path d="M48084 52720
L48084 52326
L48234 52326
L48271 52345
L48290 52363
L48309 52401
L48309 52457
L48290 52495
L48271 52513
L48234 52532
L48084 52532
" />
<path d="M48440 52326
L48684 52326
L48553 52476
L48609 52476
L48646 52495
L48665 52513
L48684 52551
L48684 52645
L48665 52682
L48646 52701
L48609 52720
L48496 52720
L48459 52701
L48440 52682
" />
</g>
<g style="fill:#000000; fill-opacity:0.0; 
stroke:#000000; stroke-width:5.90551; stroke-opacity:1; 
stroke-linecap:round; stroke-linejoin:round;">
<text x="65475" y="48771.9"
textLength="845.426" font-size="524.934" lengthAdjust="spacingAndGlyphs"
text-anchor="middle" opacity="0">D4</text>
<path d="M65184 48753
L65184 48359
L65278 48359
L65334 48378
L65371 48415
L65390 48453
L65409 48528
L65409 48584
L65390 48659
L65371 48696
L65334 48734
L65278 48753
L65184 48753
" />
<path d="M65746 48490
L65746 48753
" />
<path d="M65653 48340
L65559 48621
L65803 48621
" />
</g>
<g style="fill:#000000; fill-opacity:0.0; 
stroke:#000000; stroke-width:59.0551; stroke-opacity:1; 
stroke-linecap:round; stroke-linejoin:round;">
<g transform="rotate(-90 111967 74219.7)">
<text x="111967" y="74416.5"
textLength="1432.5" font-size="524.934" lengthAdjust="spacingAndGlyphs"
text-anchor="middle" opacity="0">RLY1</text>
</g>
<path d="M112145 74613
L111957 74744
" />
<path d="M112145 74838
L111751 74838
L111751 74688
L111770 74650
L111788 74632
L111826 74613
L111882 74613
L111920 74632
L111938 74650
L111957 74688
L111957 74838
" />
<path d="M112145 74257
L112145 74444
L111751 74444
" />
<path d="M111957 74050
L112145 74050
" />
<path d="M111751 74182
L111957 74050
L111751 73919
" />
<path d="M112145 73582
L112145 73807
" />
<path d="M112145 73694
L111751 73694
L111807 73732
L111845 73769
L111863 73807
" />
<g transform="rotate(-90 55446.9 57820)">
<text x="55446.9" y="58016.9"
textLength="845.426" font-size="524.934" lengthAdjust="spacingAndGlyphs"
text-anchor="middle" opacity="0">R1</text>
</g>
<path d="M55625 57885
L55437 58016
" />
<path d="M55625 58110
L55231 58110
L55231 57960
L55250 57923
L55268 57904
L55306 57885
L55362 57885
L55400 57904
L55418 57923
L55437 57960
L55437 58110
" />
<path d="M55625 57510
L55625 57735
" />
<path d="M55625 57623
L55231 57623
L55287 57660
L55325 57698
L55343 57735
" />
</g>
<g style="fill:#000000; fill-opacity:0.0; 
stroke:#000000; stroke-width:5.90551; stroke-opacity:1; 
stroke-linecap:round; stroke-linejoin:round;">
<text x="65632.1" y="34033.2"
textLength="1149.42" font-size="732.539" lengthAdjust="spacingAndGlyphs"
text-anchor="middle" opacity="0">K2</text>
<path d="M65226 34006
L65226 33457
" />
<path d="M65540 34006
L65305 33693
" />
<path d="M65540 33457
L65226 33771
" />
<path d="M65749 33509
L65775 33483
L65828 33457
L65959 33457
L66011 33483
L66037 33509
L66063 33562
L66063 33614
L66037 33693
L65723 34006
L66063 34006
" />
<text x="85524.7" y="15909.2"
textLength="898.598" font-size="692.938" lengthAdjust="spacingAndGlyphs"
text-anchor="middle" opacity="0">J8</text>
<path d="M85351 15364
L85351 15736
L85326 15810
L85277 15859
L85202 15884
L85153 15884
" />
<path d="M85673 15587
L85623 15562
L85598 15538
L85574 15488
L85574 15463
L85598 15414
L85623 15389
L85673 15364
L85772 15364
L85821 15389
L85846 15414
L85871 15463
L85871 15488
L85846 15538
L85821 15562
L85772 15587
L85673 15587
L85623 15612
L85598 15637
L85574 15686
L85574 15785
L85598 15835
L85623 15859
L85673 15884
L85772 15884
L85821 15859
L85846 15835
L85871 15785
L85871 15686
L85846 15637
L85821 15612
L85772 15587
" />
</g>
<g style="fill:#000000; fill-opacity:0.0; 
stroke:#000000; stroke-width:59.0551; stroke-opacity:1; 
stroke-linecap:round; stroke-linejoin:round;">
<g transform="rotate(-90 81902.6 46475)">
<text x="81902.6" y="46671.9"
textLength="776.331" font-size="524.934" lengthAdjust="spacingAndGlyphs"
text-anchor="middle" opacity="0">D5</text>
</g>
<path d="M82080 46765
L81686 46765
L81686 46671
L81705 46615
L81743 46578
L81780 46559
L81855 46540
L81911 46540
L81986 46559
L82024 46578
L82061 46615
L82080 46671
L82080 46765
" />
<path d="M81686 46184
L81686 46371
L81874 46390
L81855 46371
L81836 46334
L81836 46240
L81855 46203
L81874 46184
L81911 46165
L82005 46165
L82043 46184
L82061 46203
L82080 46240
L82080 46334
L82061 46371
L82043 46390
" />
<g transform="rotate(-90 62102.6 46475)">
<text x="62102.6" y="46671.9"
textLength="845.426" font-size="524.934" lengthAdjust="spacingAndGlyphs"
text-anchor="middle" opacity="0">D3</text>
</g>
<path d="M62280 46765
L61886 46765
L61886 46671
L61905 46615
L61943 46578
L61980 46559
L62055 46540
L62111 46540
L62186 46559
L62224 46578
L62261 46615
L62280 46671
L62280 46765
" />
<path d="M61886 46409
L61886 46165
L62036 46296
L62036 46240
L62055 46203
L62074 46184
L62111 46165
L62205 46165
L62243 46184
L62261 46203
L62280 46240
L62280 46353
L62261 46390
L62243 46409
" />
<g transform="rotate(-90 42102.6 46375)">
<text x="42102.6" y="46571.9"
textLength="845.426" font-size="524.934" lengthAdjust="spacingAndGlyphs"
text-anchor="middle" opacity="0">D1</text>
</g>
<path d="M42280 46665
L41886 46665
L41886 46571
L41905 46515
L41943 46478
L41980 46459
L42055 46440
L42111 46440
L42186 46459
L42224 46478
L42261 46515
L42280 46571
L42280 46665
" />
<path d="M42280 46065
L42280 46290
" />
<path d="M42280 46178
L41886 46178
L41943 46215
L41980 46253
L41999 46290
" />
<g >
</g>
</g> 
</svg>
