<?xml version="1.0" standalone="no"?>
 <!DOCTYPE svg PUBLIC "-//W3C//DTD SVG 1.1//EN" 
 "http://www.w3.org/Graphics/SVG/1.1/DTD/svg11.dtd"> 
<svg xmlns="http://www.w3.org/2000/svg" version="1.1" 
    width="41.9989cm" height="29.7002cm" viewBox="0 0 165350 116930 ">
<title>SVG Picture created as cropdroid-reservoir-Edge_Cuts.svg date 2020/03/01 14:29:51 </title>
  <desc>Picture generated by PCBNEW </desc>
<g style="fill:#000000; fill-opacity:1;stroke:#000000; stroke-opacity:1;
stroke-linecap:round; stroke-linejoin:round; "
 transform="translate(0 0) scale(1 1)">
</g>
<g style="fill:#000000; fill-opacity:0.0; 
stroke:#000000; stroke-width:-0.000393701; stroke-opacity:1; 
stroke-linecap:round; stroke-linejoin:round;">
</g>
<g style="fill:#000000; fill-opacity:0.0; 
stroke:#000000; stroke-width:19.685; stroke-opacity:1; 
stroke-linecap:round; stroke-linejoin:round;">
<path d="M61230 62270
L61230 64470
" />
<path d="M61230 64470
L61230 84270
" />
<path d="M25330 62270
L61230 62270
" />
<path d="M25330 14170
L25330 62270
" />
<path d="M144725 84170
L61230 84270
" />
<path d="M144730 14170
L144725 84170
" />
<path d="M25330 14170
L144730 14170
" />
</g>
<g style="fill:#000000; fill-opacity:0.0; 
stroke:#000000; stroke-width:0.0393701; stroke-opacity:1; 
stroke-linecap:round; stroke-linejoin:round;">
<path d="M123563 83874 A137.795 137.795 0.0 0 0 123701 83736.2 " />
<path d="M123425 83736.2 A137.795 137.795 0.0 0 0 123563 83874 " />
<path d="M123563 83126 A137.795 137.795 0.0 0 0 123425 83263.8 " />
<path d="M123701 83263.8 A137.795 137.795 0.0 0 0 123563 83126 " />
<path d="M123425 83263
L123425 83736
" />
<path d="M123700 83263
L123700 83736
" />
<path d="M126437 83874 A137.795 137.795 0.0 0 0 126575 83736.2 " />
<path d="M126299 83736.2 A137.795 137.795 0.0 0 0 126437 83874 " />
<path d="M126437 83126 A137.795 137.795 0.0 0 0 126299 83263.8 " />
<path d="M126575 83263.8 A137.795 137.795 0.0 0 0 126437 83126 " />
<path d="M126299 83263
L126299 83736
" />
<path d="M126574 83263
L126574 83736
" />
<path d="M118563 83874 A137.795 137.795 0.0 0 0 118701 83736.2 " />
<path d="M118425 83736.2 A137.795 137.795 0.0 0 0 118563 83874 " />
<path d="M118563 83126 A137.795 137.795 0.0 0 0 118425 83263.8 " />
<path d="M118701 83263.8 A137.795 137.795 0.0 0 0 118563 83126 " />
<path d="M118425 83263
L118425 83736
" />
<path d="M118700 83263
L118700 83736
" />
<path d="M121437 83874 A137.795 137.795 0.0 0 0 121575 83736.2 " />
<path d="M121299 83736.2 A137.795 137.795 0.0 0 0 121437 83874 " />
<path d="M121437 83126 A137.795 137.795 0.0 0 0 121299 83263.8 " />
<path d="M121575 83263.8 A137.795 137.795 0.0 0 0 121437 83126 " />
<path d="M121299 83263
L121299 83736
" />
<path d="M121574 83263
L121574 83736
" />
<g >
</g>
<g >
</g>
<g >
</g>
<g >
</g>
<g >
</g>
<g >
</g>
<g >
</g>
<g >
</g>
<g >
</g>
<g >
</g>
<g >
</g>
<g >
</g>
<g >
</g>
<g >
</g>
<g >
</g>
<g >
</g>
<g >
</g>
<g >
</g>
<g >
</g>
<g >
</g>
<g >
</g>
<g >
</g>
<g >
</g>
<g >
</g>
<g >
</g>
<g >
</g>
<g >
</g>
<g >
</g>
<g >
</g>
<g >
</g>
<g >
</g>
<g >
</g>
<g >
</g>
<g >
</g>
<g >
</g>
<g >
</g>
<g >
</g>
<g >
</g>
<g >
</g>
<g >
</g>
<g >
</g>
<g >
</g>
<g >
</g>
</g> 
</svg>
