G04 #@! TF.GenerationSoftware,KiCad,Pcbnew,5.1.5-52549c5~84~ubuntu18.04.1*
G04 #@! TF.CreationDate,2020-02-29T20:18:47-05:00*
G04 #@! TF.ProjectId,cropdroid-reservoir,63726f70-6472-46f6-9964-2d7265736572,0.6a*
G04 #@! TF.SameCoordinates,Original*
G04 #@! TF.FileFunction,Profile,NP*
%FSLAX46Y46*%
G04 Gerber Fmt 4.6, Leading zero omitted, Abs format (unit mm)*
G04 Created by KiCad (PCBNEW 5.1.5-52549c5~84~ubuntu18.04.1) date 2020-02-29 20:18:47*
%MOMM*%
%LPD*%
G04 APERTURE LIST*
%ADD10C,0.050000*%
%ADD11C,0.000100*%
G04 APERTURE END LIST*
D10*
X155524200Y-158165800D02*
X155524200Y-163753800D01*
X155524200Y-163753800D02*
X155524200Y-214045800D01*
X64338200Y-158165800D02*
X155524200Y-158165800D01*
X64338200Y-35991800D02*
X64338200Y-158165800D01*
X367601500Y-213791800D02*
X155524200Y-214045800D01*
X367614200Y-35991800D02*
X367601500Y-213791800D01*
X64338200Y-35991800D02*
X367614200Y-35991800D01*
D11*
X313850000Y-213040000D02*
G75*
G03X314200000Y-212690000I0J350000D01*
G01*
X313500000Y-212690000D02*
G75*
G03X313850000Y-213040000I350000J0D01*
G01*
X313850000Y-211140000D02*
G75*
G03X313500000Y-211490000I0J-350000D01*
G01*
X314200000Y-211490000D02*
G75*
G03X313850000Y-211140000I-350000J0D01*
G01*
X313500000Y-211490000D02*
X313500000Y-212690000D01*
X314200000Y-211490000D02*
X314200000Y-212690000D01*
X321150000Y-213040000D02*
G75*
G03X321500000Y-212690000I0J350000D01*
G01*
X320800000Y-212690000D02*
G75*
G03X321150000Y-213040000I350000J0D01*
G01*
X321150000Y-211140000D02*
G75*
G03X320800000Y-211490000I0J-350000D01*
G01*
X321500000Y-211490000D02*
G75*
G03X321150000Y-211140000I-350000J0D01*
G01*
X320800000Y-211490000D02*
X320800000Y-212690000D01*
X321500000Y-211490000D02*
X321500000Y-212690000D01*
X301150000Y-213040000D02*
G75*
G03X301500000Y-212690000I0J350000D01*
G01*
X300800000Y-212690000D02*
G75*
G03X301150000Y-213040000I350000J0D01*
G01*
X301150000Y-211140000D02*
G75*
G03X300800000Y-211490000I0J-350000D01*
G01*
X301500000Y-211490000D02*
G75*
G03X301150000Y-211140000I-350000J0D01*
G01*
X300800000Y-211490000D02*
X300800000Y-212690000D01*
X301500000Y-211490000D02*
X301500000Y-212690000D01*
X308450000Y-213040000D02*
G75*
G03X308800000Y-212690000I0J350000D01*
G01*
X308100000Y-212690000D02*
G75*
G03X308450000Y-213040000I350000J0D01*
G01*
X308450000Y-211140000D02*
G75*
G03X308100000Y-211490000I0J-350000D01*
G01*
X308800000Y-211490000D02*
G75*
G03X308450000Y-211140000I-350000J0D01*
G01*
X308100000Y-211490000D02*
X308100000Y-212690000D01*
X308800000Y-211490000D02*
X308800000Y-212690000D01*
M02*
