M48
; DRILL file {KiCad 5.1.5-52549c5~84~ubuntu18.04.1} date Sat 29 Feb 2020 08:18:49 PM EST
; FORMAT={-:-/ absolute / inch / decimal}
; #@! TF.CreationDate,2020-02-29T20:18:49-05:00
; #@! TF.GenerationSoftware,Kicad,Pcbnew,5.1.5-52549c5~84~ubuntu18.04.1
FMAT,2
INCH
T1C0.0276
T2C0.0315
T3C0.0323
T4C0.0394
T5C0.0402
T6C0.0433
T7C0.0461
T8C0.0494
T9C0.0709
T10C0.0811
T11C0.0862
T12C0.1000
T13C0.0276
T14C0.1181
T15C0.1378
%
G90
G05
T1
X12.437Y-8.1512
X12.4685Y-8.1984
X12.5Y-8.1512
X12.5315Y-8.1984
X12.563Y-8.1512
X11.937Y-8.1512
X11.9685Y-8.1984
X12.0Y-8.1512
X12.0315Y-8.1984
X12.063Y-8.1512
T2
X8.6975Y-5.3475
X9.0975Y-5.3475
X6.6375Y-5.3475
X7.0375Y-5.3475
X10.653Y-5.347
X11.053Y-5.347
X10.915Y-7.17
X10.915Y-7.37
X10.915Y-7.47
X10.915Y-7.57
X11.115Y-7.17
X11.115Y-7.37
X11.115Y-7.47
X11.115Y-7.57
X4.6375Y-5.3475
X5.0375Y-5.3475
X6.033Y-5.582
X6.033Y-5.982
X5.638Y-5.582
X5.638Y-5.982
T3
X8.6086Y-5.0575
X8.7464Y-5.0575
X10.5741Y-5.057
X10.7119Y-5.057
X6.5586Y-5.0575
X6.6964Y-5.0575
X4.5786Y-5.0575
X4.7164Y-5.0575
T4
X8.183Y-6.227
X8.183Y-6.327
X8.183Y-6.427
X8.183Y-6.527
X8.183Y-6.627
X8.183Y-6.727
X8.183Y-6.827
X8.183Y-6.927
X8.483Y-6.227
X8.483Y-6.327
X8.483Y-6.427
X8.483Y-6.527
X8.483Y-6.627
X8.483Y-6.727
X8.483Y-6.827
X8.483Y-6.927
X9.203Y-6.187
X9.203Y-6.287
X9.203Y-6.387
X9.203Y-6.487
X9.203Y-6.587
X9.203Y-6.687
X9.203Y-6.787
X9.203Y-6.887
X9.503Y-6.187
X9.503Y-6.287
X9.503Y-6.387
X9.503Y-6.487
X9.503Y-6.587
X9.503Y-6.687
X9.503Y-6.787
X9.503Y-6.887
T5
X6.233Y-6.542
X6.233Y-6.642
X6.233Y-6.742
X6.233Y-6.842
X6.233Y-6.942
X6.233Y-7.042
X6.233Y-7.142
X6.233Y-7.242
X6.233Y-7.342
X6.233Y-7.442
X6.233Y-7.542
X6.233Y-7.642
X6.233Y-7.742
X6.233Y-7.842
X6.233Y-7.942
X6.233Y-8.042
X6.233Y-8.142
X6.233Y-8.242
X6.333Y-6.542
X6.333Y-6.642
X6.333Y-6.742
X6.333Y-6.842
X6.333Y-6.942
X6.333Y-7.042
X6.333Y-7.142
X6.333Y-7.242
X6.333Y-7.342
X6.333Y-7.442
X6.333Y-7.542
X6.333Y-7.642
X6.333Y-7.742
X6.333Y-7.842
X6.333Y-7.942
X6.333Y-8.042
X6.333Y-8.142
X6.333Y-8.242
T6
X11.8421Y-7.0532
X11.8421Y-7.4076
X14.2633Y-7.191
X14.2633Y-7.4076
X10.303Y-4.447
X10.303Y-4.847
X6.3075Y-4.4475
X6.3075Y-4.8475
X4.3075Y-4.4375
X4.3075Y-4.8375
X8.2875Y-4.4475
X8.2875Y-4.8475
T7
X6.7075Y-4.4475
X7.1075Y-4.4475
X4.7075Y-4.4475
X5.1075Y-4.4475
X10.7075Y-4.4475
X11.1075Y-4.4475
X8.7075Y-4.4475
X9.1075Y-4.4475
T8
X12.343Y-5.257
X12.343Y-5.657
X14.143Y-4.857
X14.143Y-5.657
T9
X13.843Y-2.4988
X13.843Y-2.7744
X13.843Y-3.05
T10
X6.5575Y-3.9475
X4.5575Y-3.9475
X10.5575Y-3.9475
X8.5575Y-3.9475
T11
X7.2575Y-3.8475
X5.2575Y-3.8475
X11.2575Y-3.8475
X9.2575Y-3.8475
T12
X8.75Y-2.2181
X9.0Y-2.3831
X9.25Y-2.2181
X4.75Y-2.2181
X5.0Y-2.3831
X5.25Y-2.2181
X6.75Y-2.2181
X7.0Y-2.3831
X7.25Y-2.2181
X10.75Y-2.2181
X11.0Y-2.3831
X11.25Y-2.2181
T13
X12.3563Y-8.35
X12.6437Y-8.35
X11.8563Y-8.35
X12.1437Y-8.35
T14
X3.143Y-5.917
X3.833Y-2.817
X12.433Y-3.917
X14.063Y-7.977
T15
X14.1304Y-1.9969
X14.1304Y-3.552
T4
G00X8.0118Y-7.9569
M15
G01X7.9882Y-7.9569
M16
G05
G00X8.0118Y-8.1931
M15
G01X7.9882Y-8.1931
M16
G05
G00X8.185Y-8.0868
M15
G01X8.185Y-8.0632
M16
G05
G00X7.5118Y-7.9569
M15
G01X7.4882Y-7.9569
M16
G05
G00X7.5118Y-8.1931
M15
G01X7.4882Y-8.1931
M16
G05
G00X7.685Y-8.0868
M15
G01X7.685Y-8.0632
M16
G05
G00X9.0118Y-7.9569
M15
G01X8.9882Y-7.9569
M16
G05
G00X9.0118Y-8.1931
M15
G01X8.9882Y-8.1931
M16
G05
G00X9.185Y-8.0868
M15
G01X9.185Y-8.0632
M16
G05
G00X10.0118Y-7.9569
M15
G01X9.9882Y-7.9569
M16
G05
G00X10.0118Y-8.1931
M15
G01X9.9882Y-8.1931
M16
G05
G00X10.185Y-8.0868
M15
G01X10.185Y-8.0632
M16
G05
G00X9.5118Y-7.9569
M15
G01X9.4882Y-7.9569
M16
G05
G00X9.5118Y-8.1931
M15
G01X9.4882Y-8.1931
M16
G05
G00X9.685Y-8.0868
M15
G01X9.685Y-8.0632
M16
G05
G00X11.0118Y-7.9569
M15
G01X10.9882Y-7.9569
M16
G05
G00X11.0118Y-8.1931
M15
G01X10.9882Y-8.1931
M16
G05
G00X11.185Y-8.0868
M15
G01X11.185Y-8.0632
M16
G05
T0
M30
