G04 #@! TF.GenerationSoftware,KiCad,Pcbnew,5.1.5-52549c5~84~ubuntu18.04.1*
G04 #@! TF.CreationDate,2020-02-29T20:18:47-05:00*
G04 #@! TF.ProjectId,cropdroid-reservoir,63726f70-6472-46f6-9964-2d7265736572,0.6a*
G04 #@! TF.SameCoordinates,Original*
G04 #@! TF.FileFunction,Paste,Top*
G04 #@! TF.FilePolarity,Positive*
%FSLAX46Y46*%
G04 Gerber Fmt 4.6, Leading zero omitted, Abs format (unit mm)*
G04 Created by KiCad (PCBNEW 5.1.5-52549c5~84~ubuntu18.04.1) date 2020-02-29 20:18:47*
%MOMM*%
%LPD*%
G04 APERTURE LIST*
%ADD10C,0.000100*%
G04 APERTURE END LIST*
D10*
G36*
X314700000Y-212090000D02*
G01*
X314700000Y-212690000D01*
X314698835Y-212734486D01*
X314695344Y-212778849D01*
X314689535Y-212822969D01*
X314681425Y-212866725D01*
X314671037Y-212909996D01*
X314658398Y-212952664D01*
X314643543Y-212994613D01*
X314626514Y-213035726D01*
X314607356Y-213075892D01*
X314586122Y-213115000D01*
X314562870Y-213152943D01*
X314537664Y-213189617D01*
X314510574Y-213224922D01*
X314481673Y-213258761D01*
X314451041Y-213291041D01*
X314418761Y-213321673D01*
X314384922Y-213350574D01*
X314349617Y-213377664D01*
X314312943Y-213402870D01*
X314275000Y-213426122D01*
X314235892Y-213447356D01*
X314195726Y-213466514D01*
X314154613Y-213483543D01*
X314112664Y-213498398D01*
X314069996Y-213511037D01*
X314026725Y-213521425D01*
X313982969Y-213529535D01*
X313938849Y-213535344D01*
X313894486Y-213538835D01*
X313850000Y-213540000D01*
X313850000Y-213040000D01*
X313868318Y-213039520D01*
X313886585Y-213038083D01*
X313904752Y-213035691D01*
X313922769Y-213032352D01*
X313940587Y-213028074D01*
X313958156Y-213022870D01*
X313975429Y-213016753D01*
X313992358Y-213009741D01*
X314008897Y-213001852D01*
X314025000Y-212993109D01*
X314040624Y-212983535D01*
X314055725Y-212973156D01*
X314070262Y-212962001D01*
X314084196Y-212950101D01*
X314097487Y-212937487D01*
X314110101Y-212924196D01*
X314122001Y-212910262D01*
X314133156Y-212895725D01*
X314143535Y-212880624D01*
X314153109Y-212865000D01*
X314161852Y-212848897D01*
X314169741Y-212832358D01*
X314176753Y-212815429D01*
X314182870Y-212798156D01*
X314188074Y-212780587D01*
X314192352Y-212762769D01*
X314195691Y-212744752D01*
X314198083Y-212726585D01*
X314199520Y-212708318D01*
X314200000Y-212690000D01*
X314200000Y-212090000D01*
X314700000Y-212090000D01*
G37*
X314700000Y-212090000D02*
X314700000Y-212690000D01*
X314698835Y-212734486D01*
X314695344Y-212778849D01*
X314689535Y-212822969D01*
X314681425Y-212866725D01*
X314671037Y-212909996D01*
X314658398Y-212952664D01*
X314643543Y-212994613D01*
X314626514Y-213035726D01*
X314607356Y-213075892D01*
X314586122Y-213115000D01*
X314562870Y-213152943D01*
X314537664Y-213189617D01*
X314510574Y-213224922D01*
X314481673Y-213258761D01*
X314451041Y-213291041D01*
X314418761Y-213321673D01*
X314384922Y-213350574D01*
X314349617Y-213377664D01*
X314312943Y-213402870D01*
X314275000Y-213426122D01*
X314235892Y-213447356D01*
X314195726Y-213466514D01*
X314154613Y-213483543D01*
X314112664Y-213498398D01*
X314069996Y-213511037D01*
X314026725Y-213521425D01*
X313982969Y-213529535D01*
X313938849Y-213535344D01*
X313894486Y-213538835D01*
X313850000Y-213540000D01*
X313850000Y-213040000D01*
X313868318Y-213039520D01*
X313886585Y-213038083D01*
X313904752Y-213035691D01*
X313922769Y-213032352D01*
X313940587Y-213028074D01*
X313958156Y-213022870D01*
X313975429Y-213016753D01*
X313992358Y-213009741D01*
X314008897Y-213001852D01*
X314025000Y-212993109D01*
X314040624Y-212983535D01*
X314055725Y-212973156D01*
X314070262Y-212962001D01*
X314084196Y-212950101D01*
X314097487Y-212937487D01*
X314110101Y-212924196D01*
X314122001Y-212910262D01*
X314133156Y-212895725D01*
X314143535Y-212880624D01*
X314153109Y-212865000D01*
X314161852Y-212848897D01*
X314169741Y-212832358D01*
X314176753Y-212815429D01*
X314182870Y-212798156D01*
X314188074Y-212780587D01*
X314192352Y-212762769D01*
X314195691Y-212744752D01*
X314198083Y-212726585D01*
X314199520Y-212708318D01*
X314200000Y-212690000D01*
X314200000Y-212090000D01*
X314700000Y-212090000D01*
G36*
X313000000Y-212090000D02*
G01*
X313000000Y-212690000D01*
X313001165Y-212734486D01*
X313004656Y-212778849D01*
X313010465Y-212822969D01*
X313018575Y-212866725D01*
X313028963Y-212909996D01*
X313041602Y-212952664D01*
X313056457Y-212994613D01*
X313073486Y-213035726D01*
X313092644Y-213075892D01*
X313113878Y-213115000D01*
X313137130Y-213152943D01*
X313162336Y-213189617D01*
X313189426Y-213224922D01*
X313218327Y-213258761D01*
X313248959Y-213291041D01*
X313281239Y-213321673D01*
X313315078Y-213350574D01*
X313350383Y-213377664D01*
X313387057Y-213402870D01*
X313425000Y-213426122D01*
X313464108Y-213447356D01*
X313504274Y-213466514D01*
X313545387Y-213483543D01*
X313587336Y-213498398D01*
X313630004Y-213511037D01*
X313673275Y-213521425D01*
X313717031Y-213529535D01*
X313761151Y-213535344D01*
X313805514Y-213538835D01*
X313850000Y-213540000D01*
X313850000Y-213040000D01*
X313831682Y-213039520D01*
X313813415Y-213038083D01*
X313795248Y-213035691D01*
X313777231Y-213032352D01*
X313759413Y-213028074D01*
X313741844Y-213022870D01*
X313724571Y-213016753D01*
X313707642Y-213009741D01*
X313691103Y-213001852D01*
X313675000Y-212993109D01*
X313659376Y-212983535D01*
X313644275Y-212973156D01*
X313629738Y-212962001D01*
X313615804Y-212950101D01*
X313602513Y-212937487D01*
X313589899Y-212924196D01*
X313577999Y-212910262D01*
X313566844Y-212895725D01*
X313556465Y-212880624D01*
X313546891Y-212865000D01*
X313538148Y-212848897D01*
X313530259Y-212832358D01*
X313523247Y-212815429D01*
X313517130Y-212798156D01*
X313511926Y-212780587D01*
X313507648Y-212762769D01*
X313504309Y-212744752D01*
X313501917Y-212726585D01*
X313500480Y-212708318D01*
X313500000Y-212690000D01*
X313500000Y-212090000D01*
X313000000Y-212090000D01*
G37*
X313000000Y-212090000D02*
X313000000Y-212690000D01*
X313001165Y-212734486D01*
X313004656Y-212778849D01*
X313010465Y-212822969D01*
X313018575Y-212866725D01*
X313028963Y-212909996D01*
X313041602Y-212952664D01*
X313056457Y-212994613D01*
X313073486Y-213035726D01*
X313092644Y-213075892D01*
X313113878Y-213115000D01*
X313137130Y-213152943D01*
X313162336Y-213189617D01*
X313189426Y-213224922D01*
X313218327Y-213258761D01*
X313248959Y-213291041D01*
X313281239Y-213321673D01*
X313315078Y-213350574D01*
X313350383Y-213377664D01*
X313387057Y-213402870D01*
X313425000Y-213426122D01*
X313464108Y-213447356D01*
X313504274Y-213466514D01*
X313545387Y-213483543D01*
X313587336Y-213498398D01*
X313630004Y-213511037D01*
X313673275Y-213521425D01*
X313717031Y-213529535D01*
X313761151Y-213535344D01*
X313805514Y-213538835D01*
X313850000Y-213540000D01*
X313850000Y-213040000D01*
X313831682Y-213039520D01*
X313813415Y-213038083D01*
X313795248Y-213035691D01*
X313777231Y-213032352D01*
X313759413Y-213028074D01*
X313741844Y-213022870D01*
X313724571Y-213016753D01*
X313707642Y-213009741D01*
X313691103Y-213001852D01*
X313675000Y-212993109D01*
X313659376Y-212983535D01*
X313644275Y-212973156D01*
X313629738Y-212962001D01*
X313615804Y-212950101D01*
X313602513Y-212937487D01*
X313589899Y-212924196D01*
X313577999Y-212910262D01*
X313566844Y-212895725D01*
X313556465Y-212880624D01*
X313546891Y-212865000D01*
X313538148Y-212848897D01*
X313530259Y-212832358D01*
X313523247Y-212815429D01*
X313517130Y-212798156D01*
X313511926Y-212780587D01*
X313507648Y-212762769D01*
X313504309Y-212744752D01*
X313501917Y-212726585D01*
X313500480Y-212708318D01*
X313500000Y-212690000D01*
X313500000Y-212090000D01*
X313000000Y-212090000D01*
G36*
X313000000Y-212090000D02*
G01*
X313000000Y-211490000D01*
X313001165Y-211445514D01*
X313004656Y-211401151D01*
X313010465Y-211357031D01*
X313018575Y-211313275D01*
X313028963Y-211270004D01*
X313041602Y-211227336D01*
X313056457Y-211185387D01*
X313073486Y-211144274D01*
X313092644Y-211104108D01*
X313113878Y-211065000D01*
X313137130Y-211027057D01*
X313162336Y-210990383D01*
X313189426Y-210955078D01*
X313218327Y-210921239D01*
X313248959Y-210888959D01*
X313281239Y-210858327D01*
X313315078Y-210829426D01*
X313350383Y-210802336D01*
X313387057Y-210777130D01*
X313425000Y-210753878D01*
X313464108Y-210732644D01*
X313504274Y-210713486D01*
X313545387Y-210696457D01*
X313587336Y-210681602D01*
X313630004Y-210668963D01*
X313673275Y-210658575D01*
X313717031Y-210650465D01*
X313761151Y-210644656D01*
X313805514Y-210641165D01*
X313850000Y-210640000D01*
X313850000Y-211140000D01*
X313831682Y-211140480D01*
X313813415Y-211141917D01*
X313795248Y-211144309D01*
X313777231Y-211147648D01*
X313759413Y-211151926D01*
X313741844Y-211157130D01*
X313724571Y-211163247D01*
X313707642Y-211170259D01*
X313691103Y-211178148D01*
X313675000Y-211186891D01*
X313659376Y-211196465D01*
X313644275Y-211206844D01*
X313629738Y-211217999D01*
X313615804Y-211229899D01*
X313602513Y-211242513D01*
X313589899Y-211255804D01*
X313577999Y-211269738D01*
X313566844Y-211284275D01*
X313556465Y-211299376D01*
X313546891Y-211315000D01*
X313538148Y-211331103D01*
X313530259Y-211347642D01*
X313523247Y-211364571D01*
X313517130Y-211381844D01*
X313511926Y-211399413D01*
X313507648Y-211417231D01*
X313504309Y-211435248D01*
X313501917Y-211453415D01*
X313500480Y-211471682D01*
X313500000Y-211490000D01*
X313500000Y-212090000D01*
X313000000Y-212090000D01*
G37*
X313000000Y-212090000D02*
X313000000Y-211490000D01*
X313001165Y-211445514D01*
X313004656Y-211401151D01*
X313010465Y-211357031D01*
X313018575Y-211313275D01*
X313028963Y-211270004D01*
X313041602Y-211227336D01*
X313056457Y-211185387D01*
X313073486Y-211144274D01*
X313092644Y-211104108D01*
X313113878Y-211065000D01*
X313137130Y-211027057D01*
X313162336Y-210990383D01*
X313189426Y-210955078D01*
X313218327Y-210921239D01*
X313248959Y-210888959D01*
X313281239Y-210858327D01*
X313315078Y-210829426D01*
X313350383Y-210802336D01*
X313387057Y-210777130D01*
X313425000Y-210753878D01*
X313464108Y-210732644D01*
X313504274Y-210713486D01*
X313545387Y-210696457D01*
X313587336Y-210681602D01*
X313630004Y-210668963D01*
X313673275Y-210658575D01*
X313717031Y-210650465D01*
X313761151Y-210644656D01*
X313805514Y-210641165D01*
X313850000Y-210640000D01*
X313850000Y-211140000D01*
X313831682Y-211140480D01*
X313813415Y-211141917D01*
X313795248Y-211144309D01*
X313777231Y-211147648D01*
X313759413Y-211151926D01*
X313741844Y-211157130D01*
X313724571Y-211163247D01*
X313707642Y-211170259D01*
X313691103Y-211178148D01*
X313675000Y-211186891D01*
X313659376Y-211196465D01*
X313644275Y-211206844D01*
X313629738Y-211217999D01*
X313615804Y-211229899D01*
X313602513Y-211242513D01*
X313589899Y-211255804D01*
X313577999Y-211269738D01*
X313566844Y-211284275D01*
X313556465Y-211299376D01*
X313546891Y-211315000D01*
X313538148Y-211331103D01*
X313530259Y-211347642D01*
X313523247Y-211364571D01*
X313517130Y-211381844D01*
X313511926Y-211399413D01*
X313507648Y-211417231D01*
X313504309Y-211435248D01*
X313501917Y-211453415D01*
X313500480Y-211471682D01*
X313500000Y-211490000D01*
X313500000Y-212090000D01*
X313000000Y-212090000D01*
G36*
X314700000Y-212090000D02*
G01*
X314700000Y-211490000D01*
X314698835Y-211445514D01*
X314695344Y-211401151D01*
X314689535Y-211357031D01*
X314681425Y-211313275D01*
X314671037Y-211270004D01*
X314658398Y-211227336D01*
X314643543Y-211185387D01*
X314626514Y-211144274D01*
X314607356Y-211104108D01*
X314586122Y-211065000D01*
X314562870Y-211027057D01*
X314537664Y-210990383D01*
X314510574Y-210955078D01*
X314481673Y-210921239D01*
X314451041Y-210888959D01*
X314418761Y-210858327D01*
X314384922Y-210829426D01*
X314349617Y-210802336D01*
X314312943Y-210777130D01*
X314275000Y-210753878D01*
X314235892Y-210732644D01*
X314195726Y-210713486D01*
X314154613Y-210696457D01*
X314112664Y-210681602D01*
X314069996Y-210668963D01*
X314026725Y-210658575D01*
X313982969Y-210650465D01*
X313938849Y-210644656D01*
X313894486Y-210641165D01*
X313850000Y-210640000D01*
X313850000Y-211140000D01*
X313868318Y-211140480D01*
X313886585Y-211141917D01*
X313904752Y-211144309D01*
X313922769Y-211147648D01*
X313940587Y-211151926D01*
X313958156Y-211157130D01*
X313975429Y-211163247D01*
X313992358Y-211170259D01*
X314008897Y-211178148D01*
X314025000Y-211186891D01*
X314040624Y-211196465D01*
X314055725Y-211206844D01*
X314070262Y-211217999D01*
X314084196Y-211229899D01*
X314097487Y-211242513D01*
X314110101Y-211255804D01*
X314122001Y-211269738D01*
X314133156Y-211284275D01*
X314143535Y-211299376D01*
X314153109Y-211315000D01*
X314161852Y-211331103D01*
X314169741Y-211347642D01*
X314176753Y-211364571D01*
X314182870Y-211381844D01*
X314188074Y-211399413D01*
X314192352Y-211417231D01*
X314195691Y-211435248D01*
X314198083Y-211453415D01*
X314199520Y-211471682D01*
X314200000Y-211490000D01*
X314200000Y-212090000D01*
X314700000Y-212090000D01*
G37*
X314700000Y-212090000D02*
X314700000Y-211490000D01*
X314698835Y-211445514D01*
X314695344Y-211401151D01*
X314689535Y-211357031D01*
X314681425Y-211313275D01*
X314671037Y-211270004D01*
X314658398Y-211227336D01*
X314643543Y-211185387D01*
X314626514Y-211144274D01*
X314607356Y-211104108D01*
X314586122Y-211065000D01*
X314562870Y-211027057D01*
X314537664Y-210990383D01*
X314510574Y-210955078D01*
X314481673Y-210921239D01*
X314451041Y-210888959D01*
X314418761Y-210858327D01*
X314384922Y-210829426D01*
X314349617Y-210802336D01*
X314312943Y-210777130D01*
X314275000Y-210753878D01*
X314235892Y-210732644D01*
X314195726Y-210713486D01*
X314154613Y-210696457D01*
X314112664Y-210681602D01*
X314069996Y-210668963D01*
X314026725Y-210658575D01*
X313982969Y-210650465D01*
X313938849Y-210644656D01*
X313894486Y-210641165D01*
X313850000Y-210640000D01*
X313850000Y-211140000D01*
X313868318Y-211140480D01*
X313886585Y-211141917D01*
X313904752Y-211144309D01*
X313922769Y-211147648D01*
X313940587Y-211151926D01*
X313958156Y-211157130D01*
X313975429Y-211163247D01*
X313992358Y-211170259D01*
X314008897Y-211178148D01*
X314025000Y-211186891D01*
X314040624Y-211196465D01*
X314055725Y-211206844D01*
X314070262Y-211217999D01*
X314084196Y-211229899D01*
X314097487Y-211242513D01*
X314110101Y-211255804D01*
X314122001Y-211269738D01*
X314133156Y-211284275D01*
X314143535Y-211299376D01*
X314153109Y-211315000D01*
X314161852Y-211331103D01*
X314169741Y-211347642D01*
X314176753Y-211364571D01*
X314182870Y-211381844D01*
X314188074Y-211399413D01*
X314192352Y-211417231D01*
X314195691Y-211435248D01*
X314198083Y-211453415D01*
X314199520Y-211471682D01*
X314200000Y-211490000D01*
X314200000Y-212090000D01*
X314700000Y-212090000D01*
G36*
X322000000Y-212090000D02*
G01*
X322000000Y-212690000D01*
X321998835Y-212734486D01*
X321995344Y-212778849D01*
X321989535Y-212822969D01*
X321981425Y-212866725D01*
X321971037Y-212909996D01*
X321958398Y-212952664D01*
X321943543Y-212994613D01*
X321926514Y-213035726D01*
X321907356Y-213075892D01*
X321886122Y-213115000D01*
X321862870Y-213152943D01*
X321837664Y-213189617D01*
X321810574Y-213224922D01*
X321781673Y-213258761D01*
X321751041Y-213291041D01*
X321718761Y-213321673D01*
X321684922Y-213350574D01*
X321649617Y-213377664D01*
X321612943Y-213402870D01*
X321575000Y-213426122D01*
X321535892Y-213447356D01*
X321495726Y-213466514D01*
X321454613Y-213483543D01*
X321412664Y-213498398D01*
X321369996Y-213511037D01*
X321326725Y-213521425D01*
X321282969Y-213529535D01*
X321238849Y-213535344D01*
X321194486Y-213538835D01*
X321150000Y-213540000D01*
X321150000Y-213040000D01*
X321168318Y-213039520D01*
X321186585Y-213038083D01*
X321204752Y-213035691D01*
X321222769Y-213032352D01*
X321240587Y-213028074D01*
X321258156Y-213022870D01*
X321275429Y-213016753D01*
X321292358Y-213009741D01*
X321308897Y-213001852D01*
X321325000Y-212993109D01*
X321340624Y-212983535D01*
X321355725Y-212973156D01*
X321370262Y-212962001D01*
X321384196Y-212950101D01*
X321397487Y-212937487D01*
X321410101Y-212924196D01*
X321422001Y-212910262D01*
X321433156Y-212895725D01*
X321443535Y-212880624D01*
X321453109Y-212865000D01*
X321461852Y-212848897D01*
X321469741Y-212832358D01*
X321476753Y-212815429D01*
X321482870Y-212798156D01*
X321488074Y-212780587D01*
X321492352Y-212762769D01*
X321495691Y-212744752D01*
X321498083Y-212726585D01*
X321499520Y-212708318D01*
X321500000Y-212690000D01*
X321500000Y-212090000D01*
X322000000Y-212090000D01*
G37*
X322000000Y-212090000D02*
X322000000Y-212690000D01*
X321998835Y-212734486D01*
X321995344Y-212778849D01*
X321989535Y-212822969D01*
X321981425Y-212866725D01*
X321971037Y-212909996D01*
X321958398Y-212952664D01*
X321943543Y-212994613D01*
X321926514Y-213035726D01*
X321907356Y-213075892D01*
X321886122Y-213115000D01*
X321862870Y-213152943D01*
X321837664Y-213189617D01*
X321810574Y-213224922D01*
X321781673Y-213258761D01*
X321751041Y-213291041D01*
X321718761Y-213321673D01*
X321684922Y-213350574D01*
X321649617Y-213377664D01*
X321612943Y-213402870D01*
X321575000Y-213426122D01*
X321535892Y-213447356D01*
X321495726Y-213466514D01*
X321454613Y-213483543D01*
X321412664Y-213498398D01*
X321369996Y-213511037D01*
X321326725Y-213521425D01*
X321282969Y-213529535D01*
X321238849Y-213535344D01*
X321194486Y-213538835D01*
X321150000Y-213540000D01*
X321150000Y-213040000D01*
X321168318Y-213039520D01*
X321186585Y-213038083D01*
X321204752Y-213035691D01*
X321222769Y-213032352D01*
X321240587Y-213028074D01*
X321258156Y-213022870D01*
X321275429Y-213016753D01*
X321292358Y-213009741D01*
X321308897Y-213001852D01*
X321325000Y-212993109D01*
X321340624Y-212983535D01*
X321355725Y-212973156D01*
X321370262Y-212962001D01*
X321384196Y-212950101D01*
X321397487Y-212937487D01*
X321410101Y-212924196D01*
X321422001Y-212910262D01*
X321433156Y-212895725D01*
X321443535Y-212880624D01*
X321453109Y-212865000D01*
X321461852Y-212848897D01*
X321469741Y-212832358D01*
X321476753Y-212815429D01*
X321482870Y-212798156D01*
X321488074Y-212780587D01*
X321492352Y-212762769D01*
X321495691Y-212744752D01*
X321498083Y-212726585D01*
X321499520Y-212708318D01*
X321500000Y-212690000D01*
X321500000Y-212090000D01*
X322000000Y-212090000D01*
G36*
X320300000Y-212090000D02*
G01*
X320300000Y-212690000D01*
X320301165Y-212734486D01*
X320304656Y-212778849D01*
X320310465Y-212822969D01*
X320318575Y-212866725D01*
X320328963Y-212909996D01*
X320341602Y-212952664D01*
X320356457Y-212994613D01*
X320373486Y-213035726D01*
X320392644Y-213075892D01*
X320413878Y-213115000D01*
X320437130Y-213152943D01*
X320462336Y-213189617D01*
X320489426Y-213224922D01*
X320518327Y-213258761D01*
X320548959Y-213291041D01*
X320581239Y-213321673D01*
X320615078Y-213350574D01*
X320650383Y-213377664D01*
X320687057Y-213402870D01*
X320725000Y-213426122D01*
X320764108Y-213447356D01*
X320804274Y-213466514D01*
X320845387Y-213483543D01*
X320887336Y-213498398D01*
X320930004Y-213511037D01*
X320973275Y-213521425D01*
X321017031Y-213529535D01*
X321061151Y-213535344D01*
X321105514Y-213538835D01*
X321150000Y-213540000D01*
X321150000Y-213040000D01*
X321131682Y-213039520D01*
X321113415Y-213038083D01*
X321095248Y-213035691D01*
X321077231Y-213032352D01*
X321059413Y-213028074D01*
X321041844Y-213022870D01*
X321024571Y-213016753D01*
X321007642Y-213009741D01*
X320991103Y-213001852D01*
X320975000Y-212993109D01*
X320959376Y-212983535D01*
X320944275Y-212973156D01*
X320929738Y-212962001D01*
X320915804Y-212950101D01*
X320902513Y-212937487D01*
X320889899Y-212924196D01*
X320877999Y-212910262D01*
X320866844Y-212895725D01*
X320856465Y-212880624D01*
X320846891Y-212865000D01*
X320838148Y-212848897D01*
X320830259Y-212832358D01*
X320823247Y-212815429D01*
X320817130Y-212798156D01*
X320811926Y-212780587D01*
X320807648Y-212762769D01*
X320804309Y-212744752D01*
X320801917Y-212726585D01*
X320800480Y-212708318D01*
X320800000Y-212690000D01*
X320800000Y-212090000D01*
X320300000Y-212090000D01*
G37*
X320300000Y-212090000D02*
X320300000Y-212690000D01*
X320301165Y-212734486D01*
X320304656Y-212778849D01*
X320310465Y-212822969D01*
X320318575Y-212866725D01*
X320328963Y-212909996D01*
X320341602Y-212952664D01*
X320356457Y-212994613D01*
X320373486Y-213035726D01*
X320392644Y-213075892D01*
X320413878Y-213115000D01*
X320437130Y-213152943D01*
X320462336Y-213189617D01*
X320489426Y-213224922D01*
X320518327Y-213258761D01*
X320548959Y-213291041D01*
X320581239Y-213321673D01*
X320615078Y-213350574D01*
X320650383Y-213377664D01*
X320687057Y-213402870D01*
X320725000Y-213426122D01*
X320764108Y-213447356D01*
X320804274Y-213466514D01*
X320845387Y-213483543D01*
X320887336Y-213498398D01*
X320930004Y-213511037D01*
X320973275Y-213521425D01*
X321017031Y-213529535D01*
X321061151Y-213535344D01*
X321105514Y-213538835D01*
X321150000Y-213540000D01*
X321150000Y-213040000D01*
X321131682Y-213039520D01*
X321113415Y-213038083D01*
X321095248Y-213035691D01*
X321077231Y-213032352D01*
X321059413Y-213028074D01*
X321041844Y-213022870D01*
X321024571Y-213016753D01*
X321007642Y-213009741D01*
X320991103Y-213001852D01*
X320975000Y-212993109D01*
X320959376Y-212983535D01*
X320944275Y-212973156D01*
X320929738Y-212962001D01*
X320915804Y-212950101D01*
X320902513Y-212937487D01*
X320889899Y-212924196D01*
X320877999Y-212910262D01*
X320866844Y-212895725D01*
X320856465Y-212880624D01*
X320846891Y-212865000D01*
X320838148Y-212848897D01*
X320830259Y-212832358D01*
X320823247Y-212815429D01*
X320817130Y-212798156D01*
X320811926Y-212780587D01*
X320807648Y-212762769D01*
X320804309Y-212744752D01*
X320801917Y-212726585D01*
X320800480Y-212708318D01*
X320800000Y-212690000D01*
X320800000Y-212090000D01*
X320300000Y-212090000D01*
G36*
X320300000Y-212090000D02*
G01*
X320300000Y-211490000D01*
X320301165Y-211445514D01*
X320304656Y-211401151D01*
X320310465Y-211357031D01*
X320318575Y-211313275D01*
X320328963Y-211270004D01*
X320341602Y-211227336D01*
X320356457Y-211185387D01*
X320373486Y-211144274D01*
X320392644Y-211104108D01*
X320413878Y-211065000D01*
X320437130Y-211027057D01*
X320462336Y-210990383D01*
X320489426Y-210955078D01*
X320518327Y-210921239D01*
X320548959Y-210888959D01*
X320581239Y-210858327D01*
X320615078Y-210829426D01*
X320650383Y-210802336D01*
X320687057Y-210777130D01*
X320725000Y-210753878D01*
X320764108Y-210732644D01*
X320804274Y-210713486D01*
X320845387Y-210696457D01*
X320887336Y-210681602D01*
X320930004Y-210668963D01*
X320973275Y-210658575D01*
X321017031Y-210650465D01*
X321061151Y-210644656D01*
X321105514Y-210641165D01*
X321150000Y-210640000D01*
X321150000Y-211140000D01*
X321131682Y-211140480D01*
X321113415Y-211141917D01*
X321095248Y-211144309D01*
X321077231Y-211147648D01*
X321059413Y-211151926D01*
X321041844Y-211157130D01*
X321024571Y-211163247D01*
X321007642Y-211170259D01*
X320991103Y-211178148D01*
X320975000Y-211186891D01*
X320959376Y-211196465D01*
X320944275Y-211206844D01*
X320929738Y-211217999D01*
X320915804Y-211229899D01*
X320902513Y-211242513D01*
X320889899Y-211255804D01*
X320877999Y-211269738D01*
X320866844Y-211284275D01*
X320856465Y-211299376D01*
X320846891Y-211315000D01*
X320838148Y-211331103D01*
X320830259Y-211347642D01*
X320823247Y-211364571D01*
X320817130Y-211381844D01*
X320811926Y-211399413D01*
X320807648Y-211417231D01*
X320804309Y-211435248D01*
X320801917Y-211453415D01*
X320800480Y-211471682D01*
X320800000Y-211490000D01*
X320800000Y-212090000D01*
X320300000Y-212090000D01*
G37*
X320300000Y-212090000D02*
X320300000Y-211490000D01*
X320301165Y-211445514D01*
X320304656Y-211401151D01*
X320310465Y-211357031D01*
X320318575Y-211313275D01*
X320328963Y-211270004D01*
X320341602Y-211227336D01*
X320356457Y-211185387D01*
X320373486Y-211144274D01*
X320392644Y-211104108D01*
X320413878Y-211065000D01*
X320437130Y-211027057D01*
X320462336Y-210990383D01*
X320489426Y-210955078D01*
X320518327Y-210921239D01*
X320548959Y-210888959D01*
X320581239Y-210858327D01*
X320615078Y-210829426D01*
X320650383Y-210802336D01*
X320687057Y-210777130D01*
X320725000Y-210753878D01*
X320764108Y-210732644D01*
X320804274Y-210713486D01*
X320845387Y-210696457D01*
X320887336Y-210681602D01*
X320930004Y-210668963D01*
X320973275Y-210658575D01*
X321017031Y-210650465D01*
X321061151Y-210644656D01*
X321105514Y-210641165D01*
X321150000Y-210640000D01*
X321150000Y-211140000D01*
X321131682Y-211140480D01*
X321113415Y-211141917D01*
X321095248Y-211144309D01*
X321077231Y-211147648D01*
X321059413Y-211151926D01*
X321041844Y-211157130D01*
X321024571Y-211163247D01*
X321007642Y-211170259D01*
X320991103Y-211178148D01*
X320975000Y-211186891D01*
X320959376Y-211196465D01*
X320944275Y-211206844D01*
X320929738Y-211217999D01*
X320915804Y-211229899D01*
X320902513Y-211242513D01*
X320889899Y-211255804D01*
X320877999Y-211269738D01*
X320866844Y-211284275D01*
X320856465Y-211299376D01*
X320846891Y-211315000D01*
X320838148Y-211331103D01*
X320830259Y-211347642D01*
X320823247Y-211364571D01*
X320817130Y-211381844D01*
X320811926Y-211399413D01*
X320807648Y-211417231D01*
X320804309Y-211435248D01*
X320801917Y-211453415D01*
X320800480Y-211471682D01*
X320800000Y-211490000D01*
X320800000Y-212090000D01*
X320300000Y-212090000D01*
G36*
X322000000Y-212090000D02*
G01*
X322000000Y-211490000D01*
X321998835Y-211445514D01*
X321995344Y-211401151D01*
X321989535Y-211357031D01*
X321981425Y-211313275D01*
X321971037Y-211270004D01*
X321958398Y-211227336D01*
X321943543Y-211185387D01*
X321926514Y-211144274D01*
X321907356Y-211104108D01*
X321886122Y-211065000D01*
X321862870Y-211027057D01*
X321837664Y-210990383D01*
X321810574Y-210955078D01*
X321781673Y-210921239D01*
X321751041Y-210888959D01*
X321718761Y-210858327D01*
X321684922Y-210829426D01*
X321649617Y-210802336D01*
X321612943Y-210777130D01*
X321575000Y-210753878D01*
X321535892Y-210732644D01*
X321495726Y-210713486D01*
X321454613Y-210696457D01*
X321412664Y-210681602D01*
X321369996Y-210668963D01*
X321326725Y-210658575D01*
X321282969Y-210650465D01*
X321238849Y-210644656D01*
X321194486Y-210641165D01*
X321150000Y-210640000D01*
X321150000Y-211140000D01*
X321168318Y-211140480D01*
X321186585Y-211141917D01*
X321204752Y-211144309D01*
X321222769Y-211147648D01*
X321240587Y-211151926D01*
X321258156Y-211157130D01*
X321275429Y-211163247D01*
X321292358Y-211170259D01*
X321308897Y-211178148D01*
X321325000Y-211186891D01*
X321340624Y-211196465D01*
X321355725Y-211206844D01*
X321370262Y-211217999D01*
X321384196Y-211229899D01*
X321397487Y-211242513D01*
X321410101Y-211255804D01*
X321422001Y-211269738D01*
X321433156Y-211284275D01*
X321443535Y-211299376D01*
X321453109Y-211315000D01*
X321461852Y-211331103D01*
X321469741Y-211347642D01*
X321476753Y-211364571D01*
X321482870Y-211381844D01*
X321488074Y-211399413D01*
X321492352Y-211417231D01*
X321495691Y-211435248D01*
X321498083Y-211453415D01*
X321499520Y-211471682D01*
X321500000Y-211490000D01*
X321500000Y-212090000D01*
X322000000Y-212090000D01*
G37*
X322000000Y-212090000D02*
X322000000Y-211490000D01*
X321998835Y-211445514D01*
X321995344Y-211401151D01*
X321989535Y-211357031D01*
X321981425Y-211313275D01*
X321971037Y-211270004D01*
X321958398Y-211227336D01*
X321943543Y-211185387D01*
X321926514Y-211144274D01*
X321907356Y-211104108D01*
X321886122Y-211065000D01*
X321862870Y-211027057D01*
X321837664Y-210990383D01*
X321810574Y-210955078D01*
X321781673Y-210921239D01*
X321751041Y-210888959D01*
X321718761Y-210858327D01*
X321684922Y-210829426D01*
X321649617Y-210802336D01*
X321612943Y-210777130D01*
X321575000Y-210753878D01*
X321535892Y-210732644D01*
X321495726Y-210713486D01*
X321454613Y-210696457D01*
X321412664Y-210681602D01*
X321369996Y-210668963D01*
X321326725Y-210658575D01*
X321282969Y-210650465D01*
X321238849Y-210644656D01*
X321194486Y-210641165D01*
X321150000Y-210640000D01*
X321150000Y-211140000D01*
X321168318Y-211140480D01*
X321186585Y-211141917D01*
X321204752Y-211144309D01*
X321222769Y-211147648D01*
X321240587Y-211151926D01*
X321258156Y-211157130D01*
X321275429Y-211163247D01*
X321292358Y-211170259D01*
X321308897Y-211178148D01*
X321325000Y-211186891D01*
X321340624Y-211196465D01*
X321355725Y-211206844D01*
X321370262Y-211217999D01*
X321384196Y-211229899D01*
X321397487Y-211242513D01*
X321410101Y-211255804D01*
X321422001Y-211269738D01*
X321433156Y-211284275D01*
X321443535Y-211299376D01*
X321453109Y-211315000D01*
X321461852Y-211331103D01*
X321469741Y-211347642D01*
X321476753Y-211364571D01*
X321482870Y-211381844D01*
X321488074Y-211399413D01*
X321492352Y-211417231D01*
X321495691Y-211435248D01*
X321498083Y-211453415D01*
X321499520Y-211471682D01*
X321500000Y-211490000D01*
X321500000Y-212090000D01*
X322000000Y-212090000D01*
G36*
X302000000Y-212090000D02*
G01*
X302000000Y-212690000D01*
X301998835Y-212734486D01*
X301995344Y-212778849D01*
X301989535Y-212822969D01*
X301981425Y-212866725D01*
X301971037Y-212909996D01*
X301958398Y-212952664D01*
X301943543Y-212994613D01*
X301926514Y-213035726D01*
X301907356Y-213075892D01*
X301886122Y-213115000D01*
X301862870Y-213152943D01*
X301837664Y-213189617D01*
X301810574Y-213224922D01*
X301781673Y-213258761D01*
X301751041Y-213291041D01*
X301718761Y-213321673D01*
X301684922Y-213350574D01*
X301649617Y-213377664D01*
X301612943Y-213402870D01*
X301575000Y-213426122D01*
X301535892Y-213447356D01*
X301495726Y-213466514D01*
X301454613Y-213483543D01*
X301412664Y-213498398D01*
X301369996Y-213511037D01*
X301326725Y-213521425D01*
X301282969Y-213529535D01*
X301238849Y-213535344D01*
X301194486Y-213538835D01*
X301150000Y-213540000D01*
X301150000Y-213040000D01*
X301168318Y-213039520D01*
X301186585Y-213038083D01*
X301204752Y-213035691D01*
X301222769Y-213032352D01*
X301240587Y-213028074D01*
X301258156Y-213022870D01*
X301275429Y-213016753D01*
X301292358Y-213009741D01*
X301308897Y-213001852D01*
X301325000Y-212993109D01*
X301340624Y-212983535D01*
X301355725Y-212973156D01*
X301370262Y-212962001D01*
X301384196Y-212950101D01*
X301397487Y-212937487D01*
X301410101Y-212924196D01*
X301422001Y-212910262D01*
X301433156Y-212895725D01*
X301443535Y-212880624D01*
X301453109Y-212865000D01*
X301461852Y-212848897D01*
X301469741Y-212832358D01*
X301476753Y-212815429D01*
X301482870Y-212798156D01*
X301488074Y-212780587D01*
X301492352Y-212762769D01*
X301495691Y-212744752D01*
X301498083Y-212726585D01*
X301499520Y-212708318D01*
X301500000Y-212690000D01*
X301500000Y-212090000D01*
X302000000Y-212090000D01*
G37*
X302000000Y-212090000D02*
X302000000Y-212690000D01*
X301998835Y-212734486D01*
X301995344Y-212778849D01*
X301989535Y-212822969D01*
X301981425Y-212866725D01*
X301971037Y-212909996D01*
X301958398Y-212952664D01*
X301943543Y-212994613D01*
X301926514Y-213035726D01*
X301907356Y-213075892D01*
X301886122Y-213115000D01*
X301862870Y-213152943D01*
X301837664Y-213189617D01*
X301810574Y-213224922D01*
X301781673Y-213258761D01*
X301751041Y-213291041D01*
X301718761Y-213321673D01*
X301684922Y-213350574D01*
X301649617Y-213377664D01*
X301612943Y-213402870D01*
X301575000Y-213426122D01*
X301535892Y-213447356D01*
X301495726Y-213466514D01*
X301454613Y-213483543D01*
X301412664Y-213498398D01*
X301369996Y-213511037D01*
X301326725Y-213521425D01*
X301282969Y-213529535D01*
X301238849Y-213535344D01*
X301194486Y-213538835D01*
X301150000Y-213540000D01*
X301150000Y-213040000D01*
X301168318Y-213039520D01*
X301186585Y-213038083D01*
X301204752Y-213035691D01*
X301222769Y-213032352D01*
X301240587Y-213028074D01*
X301258156Y-213022870D01*
X301275429Y-213016753D01*
X301292358Y-213009741D01*
X301308897Y-213001852D01*
X301325000Y-212993109D01*
X301340624Y-212983535D01*
X301355725Y-212973156D01*
X301370262Y-212962001D01*
X301384196Y-212950101D01*
X301397487Y-212937487D01*
X301410101Y-212924196D01*
X301422001Y-212910262D01*
X301433156Y-212895725D01*
X301443535Y-212880624D01*
X301453109Y-212865000D01*
X301461852Y-212848897D01*
X301469741Y-212832358D01*
X301476753Y-212815429D01*
X301482870Y-212798156D01*
X301488074Y-212780587D01*
X301492352Y-212762769D01*
X301495691Y-212744752D01*
X301498083Y-212726585D01*
X301499520Y-212708318D01*
X301500000Y-212690000D01*
X301500000Y-212090000D01*
X302000000Y-212090000D01*
G36*
X300300000Y-212090000D02*
G01*
X300300000Y-212690000D01*
X300301165Y-212734486D01*
X300304656Y-212778849D01*
X300310465Y-212822969D01*
X300318575Y-212866725D01*
X300328963Y-212909996D01*
X300341602Y-212952664D01*
X300356457Y-212994613D01*
X300373486Y-213035726D01*
X300392644Y-213075892D01*
X300413878Y-213115000D01*
X300437130Y-213152943D01*
X300462336Y-213189617D01*
X300489426Y-213224922D01*
X300518327Y-213258761D01*
X300548959Y-213291041D01*
X300581239Y-213321673D01*
X300615078Y-213350574D01*
X300650383Y-213377664D01*
X300687057Y-213402870D01*
X300725000Y-213426122D01*
X300764108Y-213447356D01*
X300804274Y-213466514D01*
X300845387Y-213483543D01*
X300887336Y-213498398D01*
X300930004Y-213511037D01*
X300973275Y-213521425D01*
X301017031Y-213529535D01*
X301061151Y-213535344D01*
X301105514Y-213538835D01*
X301150000Y-213540000D01*
X301150000Y-213040000D01*
X301131682Y-213039520D01*
X301113415Y-213038083D01*
X301095248Y-213035691D01*
X301077231Y-213032352D01*
X301059413Y-213028074D01*
X301041844Y-213022870D01*
X301024571Y-213016753D01*
X301007642Y-213009741D01*
X300991103Y-213001852D01*
X300975000Y-212993109D01*
X300959376Y-212983535D01*
X300944275Y-212973156D01*
X300929738Y-212962001D01*
X300915804Y-212950101D01*
X300902513Y-212937487D01*
X300889899Y-212924196D01*
X300877999Y-212910262D01*
X300866844Y-212895725D01*
X300856465Y-212880624D01*
X300846891Y-212865000D01*
X300838148Y-212848897D01*
X300830259Y-212832358D01*
X300823247Y-212815429D01*
X300817130Y-212798156D01*
X300811926Y-212780587D01*
X300807648Y-212762769D01*
X300804309Y-212744752D01*
X300801917Y-212726585D01*
X300800480Y-212708318D01*
X300800000Y-212690000D01*
X300800000Y-212090000D01*
X300300000Y-212090000D01*
G37*
X300300000Y-212090000D02*
X300300000Y-212690000D01*
X300301165Y-212734486D01*
X300304656Y-212778849D01*
X300310465Y-212822969D01*
X300318575Y-212866725D01*
X300328963Y-212909996D01*
X300341602Y-212952664D01*
X300356457Y-212994613D01*
X300373486Y-213035726D01*
X300392644Y-213075892D01*
X300413878Y-213115000D01*
X300437130Y-213152943D01*
X300462336Y-213189617D01*
X300489426Y-213224922D01*
X300518327Y-213258761D01*
X300548959Y-213291041D01*
X300581239Y-213321673D01*
X300615078Y-213350574D01*
X300650383Y-213377664D01*
X300687057Y-213402870D01*
X300725000Y-213426122D01*
X300764108Y-213447356D01*
X300804274Y-213466514D01*
X300845387Y-213483543D01*
X300887336Y-213498398D01*
X300930004Y-213511037D01*
X300973275Y-213521425D01*
X301017031Y-213529535D01*
X301061151Y-213535344D01*
X301105514Y-213538835D01*
X301150000Y-213540000D01*
X301150000Y-213040000D01*
X301131682Y-213039520D01*
X301113415Y-213038083D01*
X301095248Y-213035691D01*
X301077231Y-213032352D01*
X301059413Y-213028074D01*
X301041844Y-213022870D01*
X301024571Y-213016753D01*
X301007642Y-213009741D01*
X300991103Y-213001852D01*
X300975000Y-212993109D01*
X300959376Y-212983535D01*
X300944275Y-212973156D01*
X300929738Y-212962001D01*
X300915804Y-212950101D01*
X300902513Y-212937487D01*
X300889899Y-212924196D01*
X300877999Y-212910262D01*
X300866844Y-212895725D01*
X300856465Y-212880624D01*
X300846891Y-212865000D01*
X300838148Y-212848897D01*
X300830259Y-212832358D01*
X300823247Y-212815429D01*
X300817130Y-212798156D01*
X300811926Y-212780587D01*
X300807648Y-212762769D01*
X300804309Y-212744752D01*
X300801917Y-212726585D01*
X300800480Y-212708318D01*
X300800000Y-212690000D01*
X300800000Y-212090000D01*
X300300000Y-212090000D01*
G36*
X300300000Y-212090000D02*
G01*
X300300000Y-211490000D01*
X300301165Y-211445514D01*
X300304656Y-211401151D01*
X300310465Y-211357031D01*
X300318575Y-211313275D01*
X300328963Y-211270004D01*
X300341602Y-211227336D01*
X300356457Y-211185387D01*
X300373486Y-211144274D01*
X300392644Y-211104108D01*
X300413878Y-211065000D01*
X300437130Y-211027057D01*
X300462336Y-210990383D01*
X300489426Y-210955078D01*
X300518327Y-210921239D01*
X300548959Y-210888959D01*
X300581239Y-210858327D01*
X300615078Y-210829426D01*
X300650383Y-210802336D01*
X300687057Y-210777130D01*
X300725000Y-210753878D01*
X300764108Y-210732644D01*
X300804274Y-210713486D01*
X300845387Y-210696457D01*
X300887336Y-210681602D01*
X300930004Y-210668963D01*
X300973275Y-210658575D01*
X301017031Y-210650465D01*
X301061151Y-210644656D01*
X301105514Y-210641165D01*
X301150000Y-210640000D01*
X301150000Y-211140000D01*
X301131682Y-211140480D01*
X301113415Y-211141917D01*
X301095248Y-211144309D01*
X301077231Y-211147648D01*
X301059413Y-211151926D01*
X301041844Y-211157130D01*
X301024571Y-211163247D01*
X301007642Y-211170259D01*
X300991103Y-211178148D01*
X300975000Y-211186891D01*
X300959376Y-211196465D01*
X300944275Y-211206844D01*
X300929738Y-211217999D01*
X300915804Y-211229899D01*
X300902513Y-211242513D01*
X300889899Y-211255804D01*
X300877999Y-211269738D01*
X300866844Y-211284275D01*
X300856465Y-211299376D01*
X300846891Y-211315000D01*
X300838148Y-211331103D01*
X300830259Y-211347642D01*
X300823247Y-211364571D01*
X300817130Y-211381844D01*
X300811926Y-211399413D01*
X300807648Y-211417231D01*
X300804309Y-211435248D01*
X300801917Y-211453415D01*
X300800480Y-211471682D01*
X300800000Y-211490000D01*
X300800000Y-212090000D01*
X300300000Y-212090000D01*
G37*
X300300000Y-212090000D02*
X300300000Y-211490000D01*
X300301165Y-211445514D01*
X300304656Y-211401151D01*
X300310465Y-211357031D01*
X300318575Y-211313275D01*
X300328963Y-211270004D01*
X300341602Y-211227336D01*
X300356457Y-211185387D01*
X300373486Y-211144274D01*
X300392644Y-211104108D01*
X300413878Y-211065000D01*
X300437130Y-211027057D01*
X300462336Y-210990383D01*
X300489426Y-210955078D01*
X300518327Y-210921239D01*
X300548959Y-210888959D01*
X300581239Y-210858327D01*
X300615078Y-210829426D01*
X300650383Y-210802336D01*
X300687057Y-210777130D01*
X300725000Y-210753878D01*
X300764108Y-210732644D01*
X300804274Y-210713486D01*
X300845387Y-210696457D01*
X300887336Y-210681602D01*
X300930004Y-210668963D01*
X300973275Y-210658575D01*
X301017031Y-210650465D01*
X301061151Y-210644656D01*
X301105514Y-210641165D01*
X301150000Y-210640000D01*
X301150000Y-211140000D01*
X301131682Y-211140480D01*
X301113415Y-211141917D01*
X301095248Y-211144309D01*
X301077231Y-211147648D01*
X301059413Y-211151926D01*
X301041844Y-211157130D01*
X301024571Y-211163247D01*
X301007642Y-211170259D01*
X300991103Y-211178148D01*
X300975000Y-211186891D01*
X300959376Y-211196465D01*
X300944275Y-211206844D01*
X300929738Y-211217999D01*
X300915804Y-211229899D01*
X300902513Y-211242513D01*
X300889899Y-211255804D01*
X300877999Y-211269738D01*
X300866844Y-211284275D01*
X300856465Y-211299376D01*
X300846891Y-211315000D01*
X300838148Y-211331103D01*
X300830259Y-211347642D01*
X300823247Y-211364571D01*
X300817130Y-211381844D01*
X300811926Y-211399413D01*
X300807648Y-211417231D01*
X300804309Y-211435248D01*
X300801917Y-211453415D01*
X300800480Y-211471682D01*
X300800000Y-211490000D01*
X300800000Y-212090000D01*
X300300000Y-212090000D01*
G36*
X302000000Y-212090000D02*
G01*
X302000000Y-211490000D01*
X301998835Y-211445514D01*
X301995344Y-211401151D01*
X301989535Y-211357031D01*
X301981425Y-211313275D01*
X301971037Y-211270004D01*
X301958398Y-211227336D01*
X301943543Y-211185387D01*
X301926514Y-211144274D01*
X301907356Y-211104108D01*
X301886122Y-211065000D01*
X301862870Y-211027057D01*
X301837664Y-210990383D01*
X301810574Y-210955078D01*
X301781673Y-210921239D01*
X301751041Y-210888959D01*
X301718761Y-210858327D01*
X301684922Y-210829426D01*
X301649617Y-210802336D01*
X301612943Y-210777130D01*
X301575000Y-210753878D01*
X301535892Y-210732644D01*
X301495726Y-210713486D01*
X301454613Y-210696457D01*
X301412664Y-210681602D01*
X301369996Y-210668963D01*
X301326725Y-210658575D01*
X301282969Y-210650465D01*
X301238849Y-210644656D01*
X301194486Y-210641165D01*
X301150000Y-210640000D01*
X301150000Y-211140000D01*
X301168318Y-211140480D01*
X301186585Y-211141917D01*
X301204752Y-211144309D01*
X301222769Y-211147648D01*
X301240587Y-211151926D01*
X301258156Y-211157130D01*
X301275429Y-211163247D01*
X301292358Y-211170259D01*
X301308897Y-211178148D01*
X301325000Y-211186891D01*
X301340624Y-211196465D01*
X301355725Y-211206844D01*
X301370262Y-211217999D01*
X301384196Y-211229899D01*
X301397487Y-211242513D01*
X301410101Y-211255804D01*
X301422001Y-211269738D01*
X301433156Y-211284275D01*
X301443535Y-211299376D01*
X301453109Y-211315000D01*
X301461852Y-211331103D01*
X301469741Y-211347642D01*
X301476753Y-211364571D01*
X301482870Y-211381844D01*
X301488074Y-211399413D01*
X301492352Y-211417231D01*
X301495691Y-211435248D01*
X301498083Y-211453415D01*
X301499520Y-211471682D01*
X301500000Y-211490000D01*
X301500000Y-212090000D01*
X302000000Y-212090000D01*
G37*
X302000000Y-212090000D02*
X302000000Y-211490000D01*
X301998835Y-211445514D01*
X301995344Y-211401151D01*
X301989535Y-211357031D01*
X301981425Y-211313275D01*
X301971037Y-211270004D01*
X301958398Y-211227336D01*
X301943543Y-211185387D01*
X301926514Y-211144274D01*
X301907356Y-211104108D01*
X301886122Y-211065000D01*
X301862870Y-211027057D01*
X301837664Y-210990383D01*
X301810574Y-210955078D01*
X301781673Y-210921239D01*
X301751041Y-210888959D01*
X301718761Y-210858327D01*
X301684922Y-210829426D01*
X301649617Y-210802336D01*
X301612943Y-210777130D01*
X301575000Y-210753878D01*
X301535892Y-210732644D01*
X301495726Y-210713486D01*
X301454613Y-210696457D01*
X301412664Y-210681602D01*
X301369996Y-210668963D01*
X301326725Y-210658575D01*
X301282969Y-210650465D01*
X301238849Y-210644656D01*
X301194486Y-210641165D01*
X301150000Y-210640000D01*
X301150000Y-211140000D01*
X301168318Y-211140480D01*
X301186585Y-211141917D01*
X301204752Y-211144309D01*
X301222769Y-211147648D01*
X301240587Y-211151926D01*
X301258156Y-211157130D01*
X301275429Y-211163247D01*
X301292358Y-211170259D01*
X301308897Y-211178148D01*
X301325000Y-211186891D01*
X301340624Y-211196465D01*
X301355725Y-211206844D01*
X301370262Y-211217999D01*
X301384196Y-211229899D01*
X301397487Y-211242513D01*
X301410101Y-211255804D01*
X301422001Y-211269738D01*
X301433156Y-211284275D01*
X301443535Y-211299376D01*
X301453109Y-211315000D01*
X301461852Y-211331103D01*
X301469741Y-211347642D01*
X301476753Y-211364571D01*
X301482870Y-211381844D01*
X301488074Y-211399413D01*
X301492352Y-211417231D01*
X301495691Y-211435248D01*
X301498083Y-211453415D01*
X301499520Y-211471682D01*
X301500000Y-211490000D01*
X301500000Y-212090000D01*
X302000000Y-212090000D01*
G36*
X309300000Y-212090000D02*
G01*
X309300000Y-212690000D01*
X309298835Y-212734486D01*
X309295344Y-212778849D01*
X309289535Y-212822969D01*
X309281425Y-212866725D01*
X309271037Y-212909996D01*
X309258398Y-212952664D01*
X309243543Y-212994613D01*
X309226514Y-213035726D01*
X309207356Y-213075892D01*
X309186122Y-213115000D01*
X309162870Y-213152943D01*
X309137664Y-213189617D01*
X309110574Y-213224922D01*
X309081673Y-213258761D01*
X309051041Y-213291041D01*
X309018761Y-213321673D01*
X308984922Y-213350574D01*
X308949617Y-213377664D01*
X308912943Y-213402870D01*
X308875000Y-213426122D01*
X308835892Y-213447356D01*
X308795726Y-213466514D01*
X308754613Y-213483543D01*
X308712664Y-213498398D01*
X308669996Y-213511037D01*
X308626725Y-213521425D01*
X308582969Y-213529535D01*
X308538849Y-213535344D01*
X308494486Y-213538835D01*
X308450000Y-213540000D01*
X308450000Y-213040000D01*
X308468318Y-213039520D01*
X308486585Y-213038083D01*
X308504752Y-213035691D01*
X308522769Y-213032352D01*
X308540587Y-213028074D01*
X308558156Y-213022870D01*
X308575429Y-213016753D01*
X308592358Y-213009741D01*
X308608897Y-213001852D01*
X308625000Y-212993109D01*
X308640624Y-212983535D01*
X308655725Y-212973156D01*
X308670262Y-212962001D01*
X308684196Y-212950101D01*
X308697487Y-212937487D01*
X308710101Y-212924196D01*
X308722001Y-212910262D01*
X308733156Y-212895725D01*
X308743535Y-212880624D01*
X308753109Y-212865000D01*
X308761852Y-212848897D01*
X308769741Y-212832358D01*
X308776753Y-212815429D01*
X308782870Y-212798156D01*
X308788074Y-212780587D01*
X308792352Y-212762769D01*
X308795691Y-212744752D01*
X308798083Y-212726585D01*
X308799520Y-212708318D01*
X308800000Y-212690000D01*
X308800000Y-212090000D01*
X309300000Y-212090000D01*
G37*
X309300000Y-212090000D02*
X309300000Y-212690000D01*
X309298835Y-212734486D01*
X309295344Y-212778849D01*
X309289535Y-212822969D01*
X309281425Y-212866725D01*
X309271037Y-212909996D01*
X309258398Y-212952664D01*
X309243543Y-212994613D01*
X309226514Y-213035726D01*
X309207356Y-213075892D01*
X309186122Y-213115000D01*
X309162870Y-213152943D01*
X309137664Y-213189617D01*
X309110574Y-213224922D01*
X309081673Y-213258761D01*
X309051041Y-213291041D01*
X309018761Y-213321673D01*
X308984922Y-213350574D01*
X308949617Y-213377664D01*
X308912943Y-213402870D01*
X308875000Y-213426122D01*
X308835892Y-213447356D01*
X308795726Y-213466514D01*
X308754613Y-213483543D01*
X308712664Y-213498398D01*
X308669996Y-213511037D01*
X308626725Y-213521425D01*
X308582969Y-213529535D01*
X308538849Y-213535344D01*
X308494486Y-213538835D01*
X308450000Y-213540000D01*
X308450000Y-213040000D01*
X308468318Y-213039520D01*
X308486585Y-213038083D01*
X308504752Y-213035691D01*
X308522769Y-213032352D01*
X308540587Y-213028074D01*
X308558156Y-213022870D01*
X308575429Y-213016753D01*
X308592358Y-213009741D01*
X308608897Y-213001852D01*
X308625000Y-212993109D01*
X308640624Y-212983535D01*
X308655725Y-212973156D01*
X308670262Y-212962001D01*
X308684196Y-212950101D01*
X308697487Y-212937487D01*
X308710101Y-212924196D01*
X308722001Y-212910262D01*
X308733156Y-212895725D01*
X308743535Y-212880624D01*
X308753109Y-212865000D01*
X308761852Y-212848897D01*
X308769741Y-212832358D01*
X308776753Y-212815429D01*
X308782870Y-212798156D01*
X308788074Y-212780587D01*
X308792352Y-212762769D01*
X308795691Y-212744752D01*
X308798083Y-212726585D01*
X308799520Y-212708318D01*
X308800000Y-212690000D01*
X308800000Y-212090000D01*
X309300000Y-212090000D01*
G36*
X307600000Y-212090000D02*
G01*
X307600000Y-212690000D01*
X307601165Y-212734486D01*
X307604656Y-212778849D01*
X307610465Y-212822969D01*
X307618575Y-212866725D01*
X307628963Y-212909996D01*
X307641602Y-212952664D01*
X307656457Y-212994613D01*
X307673486Y-213035726D01*
X307692644Y-213075892D01*
X307713878Y-213115000D01*
X307737130Y-213152943D01*
X307762336Y-213189617D01*
X307789426Y-213224922D01*
X307818327Y-213258761D01*
X307848959Y-213291041D01*
X307881239Y-213321673D01*
X307915078Y-213350574D01*
X307950383Y-213377664D01*
X307987057Y-213402870D01*
X308025000Y-213426122D01*
X308064108Y-213447356D01*
X308104274Y-213466514D01*
X308145387Y-213483543D01*
X308187336Y-213498398D01*
X308230004Y-213511037D01*
X308273275Y-213521425D01*
X308317031Y-213529535D01*
X308361151Y-213535344D01*
X308405514Y-213538835D01*
X308450000Y-213540000D01*
X308450000Y-213040000D01*
X308431682Y-213039520D01*
X308413415Y-213038083D01*
X308395248Y-213035691D01*
X308377231Y-213032352D01*
X308359413Y-213028074D01*
X308341844Y-213022870D01*
X308324571Y-213016753D01*
X308307642Y-213009741D01*
X308291103Y-213001852D01*
X308275000Y-212993109D01*
X308259376Y-212983535D01*
X308244275Y-212973156D01*
X308229738Y-212962001D01*
X308215804Y-212950101D01*
X308202513Y-212937487D01*
X308189899Y-212924196D01*
X308177999Y-212910262D01*
X308166844Y-212895725D01*
X308156465Y-212880624D01*
X308146891Y-212865000D01*
X308138148Y-212848897D01*
X308130259Y-212832358D01*
X308123247Y-212815429D01*
X308117130Y-212798156D01*
X308111926Y-212780587D01*
X308107648Y-212762769D01*
X308104309Y-212744752D01*
X308101917Y-212726585D01*
X308100480Y-212708318D01*
X308100000Y-212690000D01*
X308100000Y-212090000D01*
X307600000Y-212090000D01*
G37*
X307600000Y-212090000D02*
X307600000Y-212690000D01*
X307601165Y-212734486D01*
X307604656Y-212778849D01*
X307610465Y-212822969D01*
X307618575Y-212866725D01*
X307628963Y-212909996D01*
X307641602Y-212952664D01*
X307656457Y-212994613D01*
X307673486Y-213035726D01*
X307692644Y-213075892D01*
X307713878Y-213115000D01*
X307737130Y-213152943D01*
X307762336Y-213189617D01*
X307789426Y-213224922D01*
X307818327Y-213258761D01*
X307848959Y-213291041D01*
X307881239Y-213321673D01*
X307915078Y-213350574D01*
X307950383Y-213377664D01*
X307987057Y-213402870D01*
X308025000Y-213426122D01*
X308064108Y-213447356D01*
X308104274Y-213466514D01*
X308145387Y-213483543D01*
X308187336Y-213498398D01*
X308230004Y-213511037D01*
X308273275Y-213521425D01*
X308317031Y-213529535D01*
X308361151Y-213535344D01*
X308405514Y-213538835D01*
X308450000Y-213540000D01*
X308450000Y-213040000D01*
X308431682Y-213039520D01*
X308413415Y-213038083D01*
X308395248Y-213035691D01*
X308377231Y-213032352D01*
X308359413Y-213028074D01*
X308341844Y-213022870D01*
X308324571Y-213016753D01*
X308307642Y-213009741D01*
X308291103Y-213001852D01*
X308275000Y-212993109D01*
X308259376Y-212983535D01*
X308244275Y-212973156D01*
X308229738Y-212962001D01*
X308215804Y-212950101D01*
X308202513Y-212937487D01*
X308189899Y-212924196D01*
X308177999Y-212910262D01*
X308166844Y-212895725D01*
X308156465Y-212880624D01*
X308146891Y-212865000D01*
X308138148Y-212848897D01*
X308130259Y-212832358D01*
X308123247Y-212815429D01*
X308117130Y-212798156D01*
X308111926Y-212780587D01*
X308107648Y-212762769D01*
X308104309Y-212744752D01*
X308101917Y-212726585D01*
X308100480Y-212708318D01*
X308100000Y-212690000D01*
X308100000Y-212090000D01*
X307600000Y-212090000D01*
G36*
X307600000Y-212090000D02*
G01*
X307600000Y-211490000D01*
X307601165Y-211445514D01*
X307604656Y-211401151D01*
X307610465Y-211357031D01*
X307618575Y-211313275D01*
X307628963Y-211270004D01*
X307641602Y-211227336D01*
X307656457Y-211185387D01*
X307673486Y-211144274D01*
X307692644Y-211104108D01*
X307713878Y-211065000D01*
X307737130Y-211027057D01*
X307762336Y-210990383D01*
X307789426Y-210955078D01*
X307818327Y-210921239D01*
X307848959Y-210888959D01*
X307881239Y-210858327D01*
X307915078Y-210829426D01*
X307950383Y-210802336D01*
X307987057Y-210777130D01*
X308025000Y-210753878D01*
X308064108Y-210732644D01*
X308104274Y-210713486D01*
X308145387Y-210696457D01*
X308187336Y-210681602D01*
X308230004Y-210668963D01*
X308273275Y-210658575D01*
X308317031Y-210650465D01*
X308361151Y-210644656D01*
X308405514Y-210641165D01*
X308450000Y-210640000D01*
X308450000Y-211140000D01*
X308431682Y-211140480D01*
X308413415Y-211141917D01*
X308395248Y-211144309D01*
X308377231Y-211147648D01*
X308359413Y-211151926D01*
X308341844Y-211157130D01*
X308324571Y-211163247D01*
X308307642Y-211170259D01*
X308291103Y-211178148D01*
X308275000Y-211186891D01*
X308259376Y-211196465D01*
X308244275Y-211206844D01*
X308229738Y-211217999D01*
X308215804Y-211229899D01*
X308202513Y-211242513D01*
X308189899Y-211255804D01*
X308177999Y-211269738D01*
X308166844Y-211284275D01*
X308156465Y-211299376D01*
X308146891Y-211315000D01*
X308138148Y-211331103D01*
X308130259Y-211347642D01*
X308123247Y-211364571D01*
X308117130Y-211381844D01*
X308111926Y-211399413D01*
X308107648Y-211417231D01*
X308104309Y-211435248D01*
X308101917Y-211453415D01*
X308100480Y-211471682D01*
X308100000Y-211490000D01*
X308100000Y-212090000D01*
X307600000Y-212090000D01*
G37*
X307600000Y-212090000D02*
X307600000Y-211490000D01*
X307601165Y-211445514D01*
X307604656Y-211401151D01*
X307610465Y-211357031D01*
X307618575Y-211313275D01*
X307628963Y-211270004D01*
X307641602Y-211227336D01*
X307656457Y-211185387D01*
X307673486Y-211144274D01*
X307692644Y-211104108D01*
X307713878Y-211065000D01*
X307737130Y-211027057D01*
X307762336Y-210990383D01*
X307789426Y-210955078D01*
X307818327Y-210921239D01*
X307848959Y-210888959D01*
X307881239Y-210858327D01*
X307915078Y-210829426D01*
X307950383Y-210802336D01*
X307987057Y-210777130D01*
X308025000Y-210753878D01*
X308064108Y-210732644D01*
X308104274Y-210713486D01*
X308145387Y-210696457D01*
X308187336Y-210681602D01*
X308230004Y-210668963D01*
X308273275Y-210658575D01*
X308317031Y-210650465D01*
X308361151Y-210644656D01*
X308405514Y-210641165D01*
X308450000Y-210640000D01*
X308450000Y-211140000D01*
X308431682Y-211140480D01*
X308413415Y-211141917D01*
X308395248Y-211144309D01*
X308377231Y-211147648D01*
X308359413Y-211151926D01*
X308341844Y-211157130D01*
X308324571Y-211163247D01*
X308307642Y-211170259D01*
X308291103Y-211178148D01*
X308275000Y-211186891D01*
X308259376Y-211196465D01*
X308244275Y-211206844D01*
X308229738Y-211217999D01*
X308215804Y-211229899D01*
X308202513Y-211242513D01*
X308189899Y-211255804D01*
X308177999Y-211269738D01*
X308166844Y-211284275D01*
X308156465Y-211299376D01*
X308146891Y-211315000D01*
X308138148Y-211331103D01*
X308130259Y-211347642D01*
X308123247Y-211364571D01*
X308117130Y-211381844D01*
X308111926Y-211399413D01*
X308107648Y-211417231D01*
X308104309Y-211435248D01*
X308101917Y-211453415D01*
X308100480Y-211471682D01*
X308100000Y-211490000D01*
X308100000Y-212090000D01*
X307600000Y-212090000D01*
G36*
X309300000Y-212090000D02*
G01*
X309300000Y-211490000D01*
X309298835Y-211445514D01*
X309295344Y-211401151D01*
X309289535Y-211357031D01*
X309281425Y-211313275D01*
X309271037Y-211270004D01*
X309258398Y-211227336D01*
X309243543Y-211185387D01*
X309226514Y-211144274D01*
X309207356Y-211104108D01*
X309186122Y-211065000D01*
X309162870Y-211027057D01*
X309137664Y-210990383D01*
X309110574Y-210955078D01*
X309081673Y-210921239D01*
X309051041Y-210888959D01*
X309018761Y-210858327D01*
X308984922Y-210829426D01*
X308949617Y-210802336D01*
X308912943Y-210777130D01*
X308875000Y-210753878D01*
X308835892Y-210732644D01*
X308795726Y-210713486D01*
X308754613Y-210696457D01*
X308712664Y-210681602D01*
X308669996Y-210668963D01*
X308626725Y-210658575D01*
X308582969Y-210650465D01*
X308538849Y-210644656D01*
X308494486Y-210641165D01*
X308450000Y-210640000D01*
X308450000Y-211140000D01*
X308468318Y-211140480D01*
X308486585Y-211141917D01*
X308504752Y-211144309D01*
X308522769Y-211147648D01*
X308540587Y-211151926D01*
X308558156Y-211157130D01*
X308575429Y-211163247D01*
X308592358Y-211170259D01*
X308608897Y-211178148D01*
X308625000Y-211186891D01*
X308640624Y-211196465D01*
X308655725Y-211206844D01*
X308670262Y-211217999D01*
X308684196Y-211229899D01*
X308697487Y-211242513D01*
X308710101Y-211255804D01*
X308722001Y-211269738D01*
X308733156Y-211284275D01*
X308743535Y-211299376D01*
X308753109Y-211315000D01*
X308761852Y-211331103D01*
X308769741Y-211347642D01*
X308776753Y-211364571D01*
X308782870Y-211381844D01*
X308788074Y-211399413D01*
X308792352Y-211417231D01*
X308795691Y-211435248D01*
X308798083Y-211453415D01*
X308799520Y-211471682D01*
X308800000Y-211490000D01*
X308800000Y-212090000D01*
X309300000Y-212090000D01*
G37*
X309300000Y-212090000D02*
X309300000Y-211490000D01*
X309298835Y-211445514D01*
X309295344Y-211401151D01*
X309289535Y-211357031D01*
X309281425Y-211313275D01*
X309271037Y-211270004D01*
X309258398Y-211227336D01*
X309243543Y-211185387D01*
X309226514Y-211144274D01*
X309207356Y-211104108D01*
X309186122Y-211065000D01*
X309162870Y-211027057D01*
X309137664Y-210990383D01*
X309110574Y-210955078D01*
X309081673Y-210921239D01*
X309051041Y-210888959D01*
X309018761Y-210858327D01*
X308984922Y-210829426D01*
X308949617Y-210802336D01*
X308912943Y-210777130D01*
X308875000Y-210753878D01*
X308835892Y-210732644D01*
X308795726Y-210713486D01*
X308754613Y-210696457D01*
X308712664Y-210681602D01*
X308669996Y-210668963D01*
X308626725Y-210658575D01*
X308582969Y-210650465D01*
X308538849Y-210644656D01*
X308494486Y-210641165D01*
X308450000Y-210640000D01*
X308450000Y-211140000D01*
X308468318Y-211140480D01*
X308486585Y-211141917D01*
X308504752Y-211144309D01*
X308522769Y-211147648D01*
X308540587Y-211151926D01*
X308558156Y-211157130D01*
X308575429Y-211163247D01*
X308592358Y-211170259D01*
X308608897Y-211178148D01*
X308625000Y-211186891D01*
X308640624Y-211196465D01*
X308655725Y-211206844D01*
X308670262Y-211217999D01*
X308684196Y-211229899D01*
X308697487Y-211242513D01*
X308710101Y-211255804D01*
X308722001Y-211269738D01*
X308733156Y-211284275D01*
X308743535Y-211299376D01*
X308753109Y-211315000D01*
X308761852Y-211331103D01*
X308769741Y-211347642D01*
X308776753Y-211364571D01*
X308782870Y-211381844D01*
X308788074Y-211399413D01*
X308792352Y-211417231D01*
X308795691Y-211435248D01*
X308798083Y-211453415D01*
X308799520Y-211471682D01*
X308800000Y-211490000D01*
X308800000Y-212090000D01*
X309300000Y-212090000D01*
M02*
