G04 #@! TF.GenerationSoftware,KiCad,Pcbnew,5.1.5-52549c5~84~ubuntu18.04.1*
G04 #@! TF.CreationDate,2020-02-29T20:18:47-05:00*
G04 #@! TF.ProjectId,cropdroid-reservoir,63726f70-6472-46f6-9964-2d7265736572,0.6a*
G04 #@! TF.SameCoordinates,Original*
G04 #@! TF.FileFunction,Legend,Top*
G04 #@! TF.FilePolarity,Positive*
%FSLAX46Y46*%
G04 Gerber Fmt 4.6, Leading zero omitted, Abs format (unit mm)*
G04 Created by KiCad (PCBNEW 5.1.5-52549c5~84~ubuntu18.04.1) date 2020-02-29 20:18:47*
%MOMM*%
%LPD*%
G04 APERTURE LIST*
%ADD10C,0.120000*%
%ADD11C,0.150000*%
%ADD12C,0.010000*%
%ADD13C,0.200000*%
%ADD14C,0.127000*%
%ADD15C,0.400000*%
%ADD16C,0.300000*%
%ADD17C,0.152400*%
%ADD18C,0.100000*%
%ADD19C,0.015000*%
G04 APERTURE END LIST*
D10*
X155524200Y-163753800D02*
X155524200Y-158165800D01*
D11*
X304749533Y-143759228D02*
X305511438Y-143759228D01*
X305130485Y-144140180D02*
X305130485Y-143378276D01*
X306463819Y-143140180D02*
X305987628Y-143140180D01*
X305940009Y-143616371D01*
X305987628Y-143568752D01*
X306082866Y-143521133D01*
X306320961Y-143521133D01*
X306416200Y-143568752D01*
X306463819Y-143616371D01*
X306511438Y-143711609D01*
X306511438Y-143949704D01*
X306463819Y-144044942D01*
X306416200Y-144092561D01*
X306320961Y-144140180D01*
X306082866Y-144140180D01*
X305987628Y-144092561D01*
X305940009Y-144044942D01*
X306797152Y-143140180D02*
X307130485Y-144140180D01*
X307463819Y-143140180D01*
X308559057Y-144140180D02*
X308559057Y-143140180D01*
X308797152Y-143140180D01*
X308940009Y-143187800D01*
X309035247Y-143283038D01*
X309082866Y-143378276D01*
X309130485Y-143568752D01*
X309130485Y-143711609D01*
X309082866Y-143902085D01*
X309035247Y-143997323D01*
X308940009Y-144092561D01*
X308797152Y-144140180D01*
X308559057Y-144140180D01*
X310130485Y-144044942D02*
X310082866Y-144092561D01*
X309940009Y-144140180D01*
X309844771Y-144140180D01*
X309701914Y-144092561D01*
X309606676Y-143997323D01*
X309559057Y-143902085D01*
X309511438Y-143711609D01*
X309511438Y-143568752D01*
X309559057Y-143378276D01*
X309606676Y-143283038D01*
X309701914Y-143187800D01*
X309844771Y-143140180D01*
X309940009Y-143140180D01*
X310082866Y-143187800D01*
X310130485Y-143235419D01*
X314353914Y-203798466D02*
X314830104Y-203798466D01*
X314258676Y-204084180D02*
X314592009Y-203084180D01*
X314925342Y-204084180D01*
X315258676Y-204084180D02*
X315258676Y-203084180D01*
X315592009Y-203798466D01*
X315925342Y-203084180D01*
X315925342Y-204084180D01*
X316353914Y-203179419D02*
X316401533Y-203131800D01*
X316496771Y-203084180D01*
X316734866Y-203084180D01*
X316830104Y-203131800D01*
X316877723Y-203179419D01*
X316925342Y-203274657D01*
X316925342Y-203369895D01*
X316877723Y-203512752D01*
X316306295Y-204084180D01*
X316925342Y-204084180D01*
X317258676Y-203084180D02*
X317877723Y-203084180D01*
X317544390Y-203465133D01*
X317687247Y-203465133D01*
X317782485Y-203512752D01*
X317830104Y-203560371D01*
X317877723Y-203655609D01*
X317877723Y-203893704D01*
X317830104Y-203988942D01*
X317782485Y-204036561D01*
X317687247Y-204084180D01*
X317401533Y-204084180D01*
X317306295Y-204036561D01*
X317258676Y-203988942D01*
X318496771Y-203084180D02*
X318592009Y-203084180D01*
X318687247Y-203131800D01*
X318734866Y-203179419D01*
X318782485Y-203274657D01*
X318830104Y-203465133D01*
X318830104Y-203703228D01*
X318782485Y-203893704D01*
X318734866Y-203988942D01*
X318687247Y-204036561D01*
X318592009Y-204084180D01*
X318496771Y-204084180D01*
X318401533Y-204036561D01*
X318353914Y-203988942D01*
X318306295Y-203893704D01*
X318258676Y-203703228D01*
X318258676Y-203465133D01*
X318306295Y-203274657D01*
X318353914Y-203179419D01*
X318401533Y-203131800D01*
X318496771Y-203084180D01*
X319163438Y-203084180D02*
X319782485Y-203084180D01*
X319449152Y-203465133D01*
X319592009Y-203465133D01*
X319687247Y-203512752D01*
X319734866Y-203560371D01*
X319782485Y-203655609D01*
X319782485Y-203893704D01*
X319734866Y-203988942D01*
X319687247Y-204036561D01*
X319592009Y-204084180D01*
X319306295Y-204084180D01*
X319211057Y-204036561D01*
X319163438Y-203988942D01*
X288826961Y-176271228D02*
X289588866Y-176271228D01*
X289207914Y-176652180D02*
X289207914Y-175890276D01*
X290588866Y-176652180D02*
X290017438Y-176652180D01*
X290303152Y-176652180D02*
X290303152Y-175652180D01*
X290207914Y-175795038D01*
X290112676Y-175890276D01*
X290017438Y-175937895D01*
X290969819Y-175747419D02*
X291017438Y-175699800D01*
X291112676Y-175652180D01*
X291350771Y-175652180D01*
X291446009Y-175699800D01*
X291493628Y-175747419D01*
X291541247Y-175842657D01*
X291541247Y-175937895D01*
X291493628Y-176080752D01*
X290922200Y-176652180D01*
X291541247Y-176652180D01*
X291874580Y-175985514D02*
X292112676Y-176652180D01*
X292350771Y-175985514D01*
X293493628Y-176652180D02*
X293493628Y-175652180D01*
X293731723Y-175652180D01*
X293874580Y-175699800D01*
X293969819Y-175795038D01*
X294017438Y-175890276D01*
X294065057Y-176080752D01*
X294065057Y-176223609D01*
X294017438Y-176414085D01*
X293969819Y-176509323D01*
X293874580Y-176604561D01*
X293731723Y-176652180D01*
X293493628Y-176652180D01*
X295065057Y-176556942D02*
X295017438Y-176604561D01*
X294874580Y-176652180D01*
X294779342Y-176652180D01*
X294636485Y-176604561D01*
X294541247Y-176509323D01*
X294493628Y-176414085D01*
X294446009Y-176223609D01*
X294446009Y-176080752D01*
X294493628Y-175890276D01*
X294541247Y-175795038D01*
X294636485Y-175699800D01*
X294779342Y-175652180D01*
X294874580Y-175652180D01*
X295017438Y-175699800D01*
X295065057Y-175747419D01*
X357975209Y-64384180D02*
X357975209Y-63384180D01*
X358546638Y-64384180D01*
X358546638Y-63384180D01*
X359403780Y-64336561D02*
X359308542Y-64384180D01*
X359118066Y-64384180D01*
X359022828Y-64336561D01*
X358975209Y-64241323D01*
X358975209Y-63860371D01*
X359022828Y-63765133D01*
X359118066Y-63717514D01*
X359308542Y-63717514D01*
X359403780Y-63765133D01*
X359451400Y-63860371D01*
X359451400Y-63955609D01*
X358975209Y-64050847D01*
X360308542Y-63717514D02*
X360308542Y-64384180D01*
X359879971Y-63717514D02*
X359879971Y-64241323D01*
X359927590Y-64336561D01*
X360022828Y-64384180D01*
X360165685Y-64384180D01*
X360260923Y-64336561D01*
X360308542Y-64288942D01*
X360641876Y-63717514D02*
X361022828Y-63717514D01*
X360784733Y-63384180D02*
X360784733Y-64241323D01*
X360832352Y-64336561D01*
X360927590Y-64384180D01*
X361022828Y-64384180D01*
X361356161Y-64384180D02*
X361356161Y-63717514D01*
X361356161Y-63907990D02*
X361403780Y-63812752D01*
X361451400Y-63765133D01*
X361546638Y-63717514D01*
X361641876Y-63717514D01*
X362403780Y-64384180D02*
X362403780Y-63860371D01*
X362356161Y-63765133D01*
X362260923Y-63717514D01*
X362070447Y-63717514D01*
X361975209Y-63765133D01*
X362403780Y-64336561D02*
X362308542Y-64384180D01*
X362070447Y-64384180D01*
X361975209Y-64336561D01*
X361927590Y-64241323D01*
X361927590Y-64146085D01*
X361975209Y-64050847D01*
X362070447Y-64003228D01*
X362308542Y-64003228D01*
X362403780Y-63955609D01*
X363022828Y-64384180D02*
X362927590Y-64336561D01*
X362879971Y-64241323D01*
X362879971Y-63384180D01*
X358229114Y-70362771D02*
X358562447Y-70362771D01*
X358705304Y-70886580D02*
X358229114Y-70886580D01*
X358229114Y-69886580D01*
X358705304Y-69886580D01*
X359562447Y-70886580D02*
X359562447Y-70362771D01*
X359514828Y-70267533D01*
X359419590Y-70219914D01*
X359229114Y-70219914D01*
X359133876Y-70267533D01*
X359562447Y-70838961D02*
X359467209Y-70886580D01*
X359229114Y-70886580D01*
X359133876Y-70838961D01*
X359086257Y-70743723D01*
X359086257Y-70648485D01*
X359133876Y-70553247D01*
X359229114Y-70505628D01*
X359467209Y-70505628D01*
X359562447Y-70458009D01*
X360038638Y-70886580D02*
X360038638Y-70219914D01*
X360038638Y-70410390D02*
X360086257Y-70315152D01*
X360133876Y-70267533D01*
X360229114Y-70219914D01*
X360324352Y-70219914D01*
X360514828Y-70219914D02*
X360895780Y-70219914D01*
X360657685Y-69886580D02*
X360657685Y-70743723D01*
X360705304Y-70838961D01*
X360800542Y-70886580D01*
X360895780Y-70886580D01*
X361229114Y-70886580D02*
X361229114Y-69886580D01*
X361657685Y-70886580D02*
X361657685Y-70362771D01*
X361610066Y-70267533D01*
X361514828Y-70219914D01*
X361371971Y-70219914D01*
X361276733Y-70267533D01*
X361229114Y-70315152D01*
X358702076Y-78379580D02*
X358225885Y-78379580D01*
X358225885Y-77379580D01*
X359035409Y-78379580D02*
X359035409Y-77712914D01*
X359035409Y-77379580D02*
X358987790Y-77427200D01*
X359035409Y-77474819D01*
X359083028Y-77427200D01*
X359035409Y-77379580D01*
X359035409Y-77474819D01*
X359511600Y-77712914D02*
X359511600Y-78379580D01*
X359511600Y-77808152D02*
X359559219Y-77760533D01*
X359654457Y-77712914D01*
X359797314Y-77712914D01*
X359892552Y-77760533D01*
X359940171Y-77855771D01*
X359940171Y-78379580D01*
X360797314Y-78331961D02*
X360702076Y-78379580D01*
X360511600Y-78379580D01*
X360416361Y-78331961D01*
X360368742Y-78236723D01*
X360368742Y-77855771D01*
X360416361Y-77760533D01*
X360511600Y-77712914D01*
X360702076Y-77712914D01*
X360797314Y-77760533D01*
X360844933Y-77855771D01*
X360844933Y-77951009D01*
X360368742Y-78046247D01*
X211367642Y-93535166D02*
X211415261Y-93582785D01*
X211462880Y-93725642D01*
X211462880Y-93820880D01*
X211415261Y-93963738D01*
X211320023Y-94058976D01*
X211224785Y-94106595D01*
X211034309Y-94154214D01*
X210891452Y-94154214D01*
X210700976Y-94106595D01*
X210605738Y-94058976D01*
X210510500Y-93963738D01*
X210462880Y-93820880D01*
X210462880Y-93725642D01*
X210510500Y-93582785D01*
X210558119Y-93535166D01*
X211462880Y-93106595D02*
X210462880Y-93106595D01*
X211462880Y-92678023D02*
X210939071Y-92678023D01*
X210843833Y-92725642D01*
X210796214Y-92820880D01*
X210796214Y-92963738D01*
X210843833Y-93058976D01*
X210891452Y-93106595D01*
X211462880Y-91773261D02*
X210939071Y-91773261D01*
X210843833Y-91820880D01*
X210796214Y-91916119D01*
X210796214Y-92106595D01*
X210843833Y-92201833D01*
X211415261Y-91773261D02*
X211462880Y-91868500D01*
X211462880Y-92106595D01*
X211415261Y-92201833D01*
X211320023Y-92249452D01*
X211224785Y-92249452D01*
X211129547Y-92201833D01*
X211081928Y-92106595D01*
X211081928Y-91868500D01*
X211034309Y-91773261D01*
X210796214Y-91297071D02*
X211462880Y-91297071D01*
X210891452Y-91297071D02*
X210843833Y-91249452D01*
X210796214Y-91154214D01*
X210796214Y-91011357D01*
X210843833Y-90916119D01*
X210939071Y-90868500D01*
X211462880Y-90868500D01*
X210796214Y-90392309D02*
X211462880Y-90392309D01*
X210891452Y-90392309D02*
X210843833Y-90344690D01*
X210796214Y-90249452D01*
X210796214Y-90106595D01*
X210843833Y-90011357D01*
X210939071Y-89963738D01*
X211462880Y-89963738D01*
X211415261Y-89106595D02*
X211462880Y-89201833D01*
X211462880Y-89392309D01*
X211415261Y-89487547D01*
X211320023Y-89535166D01*
X210939071Y-89535166D01*
X210843833Y-89487547D01*
X210796214Y-89392309D01*
X210796214Y-89201833D01*
X210843833Y-89106595D01*
X210939071Y-89058976D01*
X211034309Y-89058976D01*
X211129547Y-89535166D01*
X211462880Y-88487547D02*
X211415261Y-88582785D01*
X211320023Y-88630404D01*
X210462880Y-88630404D01*
X210462880Y-88201833D02*
X210462880Y-87582785D01*
X210843833Y-87916119D01*
X210843833Y-87773261D01*
X210891452Y-87678023D01*
X210939071Y-87630404D01*
X211034309Y-87582785D01*
X211272404Y-87582785D01*
X211367642Y-87630404D01*
X211415261Y-87678023D01*
X211462880Y-87773261D01*
X211462880Y-88058976D01*
X211415261Y-88154214D01*
X211367642Y-88201833D01*
X160567642Y-93535166D02*
X160615261Y-93582785D01*
X160662880Y-93725642D01*
X160662880Y-93820880D01*
X160615261Y-93963738D01*
X160520023Y-94058976D01*
X160424785Y-94106595D01*
X160234309Y-94154214D01*
X160091452Y-94154214D01*
X159900976Y-94106595D01*
X159805738Y-94058976D01*
X159710500Y-93963738D01*
X159662880Y-93820880D01*
X159662880Y-93725642D01*
X159710500Y-93582785D01*
X159758119Y-93535166D01*
X160662880Y-93106595D02*
X159662880Y-93106595D01*
X160662880Y-92678023D02*
X160139071Y-92678023D01*
X160043833Y-92725642D01*
X159996214Y-92820880D01*
X159996214Y-92963738D01*
X160043833Y-93058976D01*
X160091452Y-93106595D01*
X160662880Y-91773261D02*
X160139071Y-91773261D01*
X160043833Y-91820880D01*
X159996214Y-91916119D01*
X159996214Y-92106595D01*
X160043833Y-92201833D01*
X160615261Y-91773261D02*
X160662880Y-91868500D01*
X160662880Y-92106595D01*
X160615261Y-92201833D01*
X160520023Y-92249452D01*
X160424785Y-92249452D01*
X160329547Y-92201833D01*
X160281928Y-92106595D01*
X160281928Y-91868500D01*
X160234309Y-91773261D01*
X159996214Y-91297071D02*
X160662880Y-91297071D01*
X160091452Y-91297071D02*
X160043833Y-91249452D01*
X159996214Y-91154214D01*
X159996214Y-91011357D01*
X160043833Y-90916119D01*
X160139071Y-90868500D01*
X160662880Y-90868500D01*
X159996214Y-90392309D02*
X160662880Y-90392309D01*
X160091452Y-90392309D02*
X160043833Y-90344690D01*
X159996214Y-90249452D01*
X159996214Y-90106595D01*
X160043833Y-90011357D01*
X160139071Y-89963738D01*
X160662880Y-89963738D01*
X160615261Y-89106595D02*
X160662880Y-89201833D01*
X160662880Y-89392309D01*
X160615261Y-89487547D01*
X160520023Y-89535166D01*
X160139071Y-89535166D01*
X160043833Y-89487547D01*
X159996214Y-89392309D01*
X159996214Y-89201833D01*
X160043833Y-89106595D01*
X160139071Y-89058976D01*
X160234309Y-89058976D01*
X160329547Y-89535166D01*
X160662880Y-88487547D02*
X160615261Y-88582785D01*
X160520023Y-88630404D01*
X159662880Y-88630404D01*
X159758119Y-88154214D02*
X159710500Y-88106595D01*
X159662880Y-88011357D01*
X159662880Y-87773261D01*
X159710500Y-87678023D01*
X159758119Y-87630404D01*
X159853357Y-87582785D01*
X159948595Y-87582785D01*
X160091452Y-87630404D01*
X160662880Y-88201833D01*
X160662880Y-87582785D01*
X110275642Y-93281166D02*
X110323261Y-93328785D01*
X110370880Y-93471642D01*
X110370880Y-93566880D01*
X110323261Y-93709738D01*
X110228023Y-93804976D01*
X110132785Y-93852595D01*
X109942309Y-93900214D01*
X109799452Y-93900214D01*
X109608976Y-93852595D01*
X109513738Y-93804976D01*
X109418500Y-93709738D01*
X109370880Y-93566880D01*
X109370880Y-93471642D01*
X109418500Y-93328785D01*
X109466119Y-93281166D01*
X110370880Y-92852595D02*
X109370880Y-92852595D01*
X110370880Y-92424023D02*
X109847071Y-92424023D01*
X109751833Y-92471642D01*
X109704214Y-92566880D01*
X109704214Y-92709738D01*
X109751833Y-92804976D01*
X109799452Y-92852595D01*
X110370880Y-91519261D02*
X109847071Y-91519261D01*
X109751833Y-91566880D01*
X109704214Y-91662119D01*
X109704214Y-91852595D01*
X109751833Y-91947833D01*
X110323261Y-91519261D02*
X110370880Y-91614500D01*
X110370880Y-91852595D01*
X110323261Y-91947833D01*
X110228023Y-91995452D01*
X110132785Y-91995452D01*
X110037547Y-91947833D01*
X109989928Y-91852595D01*
X109989928Y-91614500D01*
X109942309Y-91519261D01*
X109704214Y-91043071D02*
X110370880Y-91043071D01*
X109799452Y-91043071D02*
X109751833Y-90995452D01*
X109704214Y-90900214D01*
X109704214Y-90757357D01*
X109751833Y-90662119D01*
X109847071Y-90614500D01*
X110370880Y-90614500D01*
X109704214Y-90138309D02*
X110370880Y-90138309D01*
X109799452Y-90138309D02*
X109751833Y-90090690D01*
X109704214Y-89995452D01*
X109704214Y-89852595D01*
X109751833Y-89757357D01*
X109847071Y-89709738D01*
X110370880Y-89709738D01*
X110323261Y-88852595D02*
X110370880Y-88947833D01*
X110370880Y-89138309D01*
X110323261Y-89233547D01*
X110228023Y-89281166D01*
X109847071Y-89281166D01*
X109751833Y-89233547D01*
X109704214Y-89138309D01*
X109704214Y-88947833D01*
X109751833Y-88852595D01*
X109847071Y-88804976D01*
X109942309Y-88804976D01*
X110037547Y-89281166D01*
X110370880Y-88233547D02*
X110323261Y-88328785D01*
X110228023Y-88376404D01*
X109370880Y-88376404D01*
X110370880Y-87328785D02*
X110370880Y-87900214D01*
X110370880Y-87614500D02*
X109370880Y-87614500D01*
X109513738Y-87709738D01*
X109608976Y-87804976D01*
X109656595Y-87900214D01*
X251536533Y-199747142D02*
X251488914Y-199794761D01*
X251346057Y-199842380D01*
X251250819Y-199842380D01*
X251107961Y-199794761D01*
X251012723Y-199699523D01*
X250965104Y-199604285D01*
X250917485Y-199413809D01*
X250917485Y-199270952D01*
X250965104Y-199080476D01*
X251012723Y-198985238D01*
X251107961Y-198890000D01*
X251250819Y-198842380D01*
X251346057Y-198842380D01*
X251488914Y-198890000D01*
X251536533Y-198937619D01*
X251965104Y-199842380D02*
X251965104Y-198842380D01*
X252393676Y-199842380D02*
X252393676Y-199318571D01*
X252346057Y-199223333D01*
X252250819Y-199175714D01*
X252107961Y-199175714D01*
X252012723Y-199223333D01*
X251965104Y-199270952D01*
X253298438Y-199842380D02*
X253298438Y-199318571D01*
X253250819Y-199223333D01*
X253155580Y-199175714D01*
X252965104Y-199175714D01*
X252869866Y-199223333D01*
X253298438Y-199794761D02*
X253203200Y-199842380D01*
X252965104Y-199842380D01*
X252869866Y-199794761D01*
X252822247Y-199699523D01*
X252822247Y-199604285D01*
X252869866Y-199509047D01*
X252965104Y-199461428D01*
X253203200Y-199461428D01*
X253298438Y-199413809D01*
X253774628Y-199175714D02*
X253774628Y-199842380D01*
X253774628Y-199270952D02*
X253822247Y-199223333D01*
X253917485Y-199175714D01*
X254060342Y-199175714D01*
X254155580Y-199223333D01*
X254203200Y-199318571D01*
X254203200Y-199842380D01*
X254679390Y-199175714D02*
X254679390Y-199842380D01*
X254679390Y-199270952D02*
X254727009Y-199223333D01*
X254822247Y-199175714D01*
X254965104Y-199175714D01*
X255060342Y-199223333D01*
X255107961Y-199318571D01*
X255107961Y-199842380D01*
X255965104Y-199794761D02*
X255869866Y-199842380D01*
X255679390Y-199842380D01*
X255584152Y-199794761D01*
X255536533Y-199699523D01*
X255536533Y-199318571D01*
X255584152Y-199223333D01*
X255679390Y-199175714D01*
X255869866Y-199175714D01*
X255965104Y-199223333D01*
X256012723Y-199318571D01*
X256012723Y-199413809D01*
X255536533Y-199509047D01*
X256584152Y-199842380D02*
X256488914Y-199794761D01*
X256441295Y-199699523D01*
X256441295Y-198842380D01*
X257393676Y-198842380D02*
X257203200Y-198842380D01*
X257107961Y-198890000D01*
X257060342Y-198937619D01*
X256965104Y-199080476D01*
X256917485Y-199270952D01*
X256917485Y-199651904D01*
X256965104Y-199747142D01*
X257012723Y-199794761D01*
X257107961Y-199842380D01*
X257298438Y-199842380D01*
X257393676Y-199794761D01*
X257441295Y-199747142D01*
X257488914Y-199651904D01*
X257488914Y-199413809D01*
X257441295Y-199318571D01*
X257393676Y-199270952D01*
X257298438Y-199223333D01*
X257107961Y-199223333D01*
X257012723Y-199270952D01*
X256965104Y-199318571D01*
X256917485Y-199413809D01*
X239344533Y-199747142D02*
X239296914Y-199794761D01*
X239154057Y-199842380D01*
X239058819Y-199842380D01*
X238915961Y-199794761D01*
X238820723Y-199699523D01*
X238773104Y-199604285D01*
X238725485Y-199413809D01*
X238725485Y-199270952D01*
X238773104Y-199080476D01*
X238820723Y-198985238D01*
X238915961Y-198890000D01*
X239058819Y-198842380D01*
X239154057Y-198842380D01*
X239296914Y-198890000D01*
X239344533Y-198937619D01*
X239773104Y-199842380D02*
X239773104Y-198842380D01*
X240201676Y-199842380D02*
X240201676Y-199318571D01*
X240154057Y-199223333D01*
X240058819Y-199175714D01*
X239915961Y-199175714D01*
X239820723Y-199223333D01*
X239773104Y-199270952D01*
X241106438Y-199842380D02*
X241106438Y-199318571D01*
X241058819Y-199223333D01*
X240963580Y-199175714D01*
X240773104Y-199175714D01*
X240677866Y-199223333D01*
X241106438Y-199794761D02*
X241011200Y-199842380D01*
X240773104Y-199842380D01*
X240677866Y-199794761D01*
X240630247Y-199699523D01*
X240630247Y-199604285D01*
X240677866Y-199509047D01*
X240773104Y-199461428D01*
X241011200Y-199461428D01*
X241106438Y-199413809D01*
X241582628Y-199175714D02*
X241582628Y-199842380D01*
X241582628Y-199270952D02*
X241630247Y-199223333D01*
X241725485Y-199175714D01*
X241868342Y-199175714D01*
X241963580Y-199223333D01*
X242011200Y-199318571D01*
X242011200Y-199842380D01*
X242487390Y-199175714D02*
X242487390Y-199842380D01*
X242487390Y-199270952D02*
X242535009Y-199223333D01*
X242630247Y-199175714D01*
X242773104Y-199175714D01*
X242868342Y-199223333D01*
X242915961Y-199318571D01*
X242915961Y-199842380D01*
X243773104Y-199794761D02*
X243677866Y-199842380D01*
X243487390Y-199842380D01*
X243392152Y-199794761D01*
X243344533Y-199699523D01*
X243344533Y-199318571D01*
X243392152Y-199223333D01*
X243487390Y-199175714D01*
X243677866Y-199175714D01*
X243773104Y-199223333D01*
X243820723Y-199318571D01*
X243820723Y-199413809D01*
X243344533Y-199509047D01*
X244392152Y-199842380D02*
X244296914Y-199794761D01*
X244249295Y-199699523D01*
X244249295Y-198842380D01*
X245249295Y-198842380D02*
X244773104Y-198842380D01*
X244725485Y-199318571D01*
X244773104Y-199270952D01*
X244868342Y-199223333D01*
X245106438Y-199223333D01*
X245201676Y-199270952D01*
X245249295Y-199318571D01*
X245296914Y-199413809D01*
X245296914Y-199651904D01*
X245249295Y-199747142D01*
X245201676Y-199794761D01*
X245106438Y-199842380D01*
X244868342Y-199842380D01*
X244773104Y-199794761D01*
X244725485Y-199747142D01*
X226644533Y-199747142D02*
X226596914Y-199794761D01*
X226454057Y-199842380D01*
X226358819Y-199842380D01*
X226215961Y-199794761D01*
X226120723Y-199699523D01*
X226073104Y-199604285D01*
X226025485Y-199413809D01*
X226025485Y-199270952D01*
X226073104Y-199080476D01*
X226120723Y-198985238D01*
X226215961Y-198890000D01*
X226358819Y-198842380D01*
X226454057Y-198842380D01*
X226596914Y-198890000D01*
X226644533Y-198937619D01*
X227073104Y-199842380D02*
X227073104Y-198842380D01*
X227501676Y-199842380D02*
X227501676Y-199318571D01*
X227454057Y-199223333D01*
X227358819Y-199175714D01*
X227215961Y-199175714D01*
X227120723Y-199223333D01*
X227073104Y-199270952D01*
X228406438Y-199842380D02*
X228406438Y-199318571D01*
X228358819Y-199223333D01*
X228263580Y-199175714D01*
X228073104Y-199175714D01*
X227977866Y-199223333D01*
X228406438Y-199794761D02*
X228311200Y-199842380D01*
X228073104Y-199842380D01*
X227977866Y-199794761D01*
X227930247Y-199699523D01*
X227930247Y-199604285D01*
X227977866Y-199509047D01*
X228073104Y-199461428D01*
X228311200Y-199461428D01*
X228406438Y-199413809D01*
X228882628Y-199175714D02*
X228882628Y-199842380D01*
X228882628Y-199270952D02*
X228930247Y-199223333D01*
X229025485Y-199175714D01*
X229168342Y-199175714D01*
X229263580Y-199223333D01*
X229311200Y-199318571D01*
X229311200Y-199842380D01*
X229787390Y-199175714D02*
X229787390Y-199842380D01*
X229787390Y-199270952D02*
X229835009Y-199223333D01*
X229930247Y-199175714D01*
X230073104Y-199175714D01*
X230168342Y-199223333D01*
X230215961Y-199318571D01*
X230215961Y-199842380D01*
X231073104Y-199794761D02*
X230977866Y-199842380D01*
X230787390Y-199842380D01*
X230692152Y-199794761D01*
X230644533Y-199699523D01*
X230644533Y-199318571D01*
X230692152Y-199223333D01*
X230787390Y-199175714D01*
X230977866Y-199175714D01*
X231073104Y-199223333D01*
X231120723Y-199318571D01*
X231120723Y-199413809D01*
X230644533Y-199509047D01*
X231692152Y-199842380D02*
X231596914Y-199794761D01*
X231549295Y-199699523D01*
X231549295Y-198842380D01*
X232501676Y-199175714D02*
X232501676Y-199842380D01*
X232263580Y-198794761D02*
X232025485Y-199509047D01*
X232644533Y-199509047D01*
X277063533Y-199747142D02*
X277015914Y-199794761D01*
X276873057Y-199842380D01*
X276777819Y-199842380D01*
X276634961Y-199794761D01*
X276539723Y-199699523D01*
X276492104Y-199604285D01*
X276444485Y-199413809D01*
X276444485Y-199270952D01*
X276492104Y-199080476D01*
X276539723Y-198985238D01*
X276634961Y-198890000D01*
X276777819Y-198842380D01*
X276873057Y-198842380D01*
X277015914Y-198890000D01*
X277063533Y-198937619D01*
X277492104Y-199842380D02*
X277492104Y-198842380D01*
X277920676Y-199842380D02*
X277920676Y-199318571D01*
X277873057Y-199223333D01*
X277777819Y-199175714D01*
X277634961Y-199175714D01*
X277539723Y-199223333D01*
X277492104Y-199270952D01*
X278825438Y-199842380D02*
X278825438Y-199318571D01*
X278777819Y-199223333D01*
X278682580Y-199175714D01*
X278492104Y-199175714D01*
X278396866Y-199223333D01*
X278825438Y-199794761D02*
X278730200Y-199842380D01*
X278492104Y-199842380D01*
X278396866Y-199794761D01*
X278349247Y-199699523D01*
X278349247Y-199604285D01*
X278396866Y-199509047D01*
X278492104Y-199461428D01*
X278730200Y-199461428D01*
X278825438Y-199413809D01*
X279301628Y-199175714D02*
X279301628Y-199842380D01*
X279301628Y-199270952D02*
X279349247Y-199223333D01*
X279444485Y-199175714D01*
X279587342Y-199175714D01*
X279682580Y-199223333D01*
X279730200Y-199318571D01*
X279730200Y-199842380D01*
X280206390Y-199175714D02*
X280206390Y-199842380D01*
X280206390Y-199270952D02*
X280254009Y-199223333D01*
X280349247Y-199175714D01*
X280492104Y-199175714D01*
X280587342Y-199223333D01*
X280634961Y-199318571D01*
X280634961Y-199842380D01*
X281492104Y-199794761D02*
X281396866Y-199842380D01*
X281206390Y-199842380D01*
X281111152Y-199794761D01*
X281063533Y-199699523D01*
X281063533Y-199318571D01*
X281111152Y-199223333D01*
X281206390Y-199175714D01*
X281396866Y-199175714D01*
X281492104Y-199223333D01*
X281539723Y-199318571D01*
X281539723Y-199413809D01*
X281063533Y-199509047D01*
X282111152Y-199842380D02*
X282015914Y-199794761D01*
X281968295Y-199699523D01*
X281968295Y-198842380D01*
X282682580Y-198842380D02*
X282777819Y-198842380D01*
X282873057Y-198890000D01*
X282920676Y-198937619D01*
X282968295Y-199032857D01*
X283015914Y-199223333D01*
X283015914Y-199461428D01*
X282968295Y-199651904D01*
X282920676Y-199747142D01*
X282873057Y-199794761D01*
X282777819Y-199842380D01*
X282682580Y-199842380D01*
X282587342Y-199794761D01*
X282539723Y-199747142D01*
X282492104Y-199651904D01*
X282444485Y-199461428D01*
X282444485Y-199223333D01*
X282492104Y-199032857D01*
X282539723Y-198937619D01*
X282587342Y-198890000D01*
X282682580Y-198842380D01*
X200744485Y-199556666D02*
X201220676Y-199556666D01*
X200649247Y-199842380D02*
X200982580Y-198842380D01*
X201315914Y-199842380D01*
X201649247Y-199175714D02*
X201649247Y-199842380D01*
X201649247Y-199270952D02*
X201696866Y-199223333D01*
X201792104Y-199175714D01*
X201934961Y-199175714D01*
X202030200Y-199223333D01*
X202077819Y-199318571D01*
X202077819Y-199842380D01*
X202982580Y-199842380D02*
X202982580Y-199318571D01*
X202934961Y-199223333D01*
X202839723Y-199175714D01*
X202649247Y-199175714D01*
X202554009Y-199223333D01*
X202982580Y-199794761D02*
X202887342Y-199842380D01*
X202649247Y-199842380D01*
X202554009Y-199794761D01*
X202506390Y-199699523D01*
X202506390Y-199604285D01*
X202554009Y-199509047D01*
X202649247Y-199461428D01*
X202887342Y-199461428D01*
X202982580Y-199413809D01*
X203601628Y-199842380D02*
X203506390Y-199794761D01*
X203458771Y-199699523D01*
X203458771Y-198842380D01*
X204125438Y-199842380D02*
X204030200Y-199794761D01*
X203982580Y-199747142D01*
X203934961Y-199651904D01*
X203934961Y-199366190D01*
X203982580Y-199270952D01*
X204030200Y-199223333D01*
X204125438Y-199175714D01*
X204268295Y-199175714D01*
X204363533Y-199223333D01*
X204411152Y-199270952D01*
X204458771Y-199366190D01*
X204458771Y-199651904D01*
X204411152Y-199747142D01*
X204363533Y-199794761D01*
X204268295Y-199842380D01*
X204125438Y-199842380D01*
X205315914Y-199175714D02*
X205315914Y-199985238D01*
X205268295Y-200080476D01*
X205220676Y-200128095D01*
X205125438Y-200175714D01*
X204982580Y-200175714D01*
X204887342Y-200128095D01*
X205315914Y-199794761D02*
X205220676Y-199842380D01*
X205030200Y-199842380D01*
X204934961Y-199794761D01*
X204887342Y-199747142D01*
X204839723Y-199651904D01*
X204839723Y-199366190D01*
X204887342Y-199270952D01*
X204934961Y-199223333D01*
X205030200Y-199175714D01*
X205220676Y-199175714D01*
X205315914Y-199223333D01*
X206315914Y-199842380D02*
X205744485Y-199842380D01*
X206030200Y-199842380D02*
X206030200Y-198842380D01*
X205934961Y-198985238D01*
X205839723Y-199080476D01*
X205744485Y-199128095D01*
X188298485Y-199556666D02*
X188774676Y-199556666D01*
X188203247Y-199842380D02*
X188536580Y-198842380D01*
X188869914Y-199842380D01*
X189203247Y-199175714D02*
X189203247Y-199842380D01*
X189203247Y-199270952D02*
X189250866Y-199223333D01*
X189346104Y-199175714D01*
X189488961Y-199175714D01*
X189584200Y-199223333D01*
X189631819Y-199318571D01*
X189631819Y-199842380D01*
X190536580Y-199842380D02*
X190536580Y-199318571D01*
X190488961Y-199223333D01*
X190393723Y-199175714D01*
X190203247Y-199175714D01*
X190108009Y-199223333D01*
X190536580Y-199794761D02*
X190441342Y-199842380D01*
X190203247Y-199842380D01*
X190108009Y-199794761D01*
X190060390Y-199699523D01*
X190060390Y-199604285D01*
X190108009Y-199509047D01*
X190203247Y-199461428D01*
X190441342Y-199461428D01*
X190536580Y-199413809D01*
X191155628Y-199842380D02*
X191060390Y-199794761D01*
X191012771Y-199699523D01*
X191012771Y-198842380D01*
X191679438Y-199842380D02*
X191584200Y-199794761D01*
X191536580Y-199747142D01*
X191488961Y-199651904D01*
X191488961Y-199366190D01*
X191536580Y-199270952D01*
X191584200Y-199223333D01*
X191679438Y-199175714D01*
X191822295Y-199175714D01*
X191917533Y-199223333D01*
X191965152Y-199270952D01*
X192012771Y-199366190D01*
X192012771Y-199651904D01*
X191965152Y-199747142D01*
X191917533Y-199794761D01*
X191822295Y-199842380D01*
X191679438Y-199842380D01*
X192869914Y-199175714D02*
X192869914Y-199985238D01*
X192822295Y-200080476D01*
X192774676Y-200128095D01*
X192679438Y-200175714D01*
X192536580Y-200175714D01*
X192441342Y-200128095D01*
X192869914Y-199794761D02*
X192774676Y-199842380D01*
X192584200Y-199842380D01*
X192488961Y-199794761D01*
X192441342Y-199747142D01*
X192393723Y-199651904D01*
X192393723Y-199366190D01*
X192441342Y-199270952D01*
X192488961Y-199223333D01*
X192584200Y-199175714D01*
X192774676Y-199175714D01*
X192869914Y-199223333D01*
X193536580Y-198842380D02*
X193631819Y-198842380D01*
X193727057Y-198890000D01*
X193774676Y-198937619D01*
X193822295Y-199032857D01*
X193869914Y-199223333D01*
X193869914Y-199461428D01*
X193822295Y-199651904D01*
X193774676Y-199747142D01*
X193727057Y-199794761D01*
X193631819Y-199842380D01*
X193536580Y-199842380D01*
X193441342Y-199794761D01*
X193393723Y-199747142D01*
X193346104Y-199651904D01*
X193298485Y-199461428D01*
X193298485Y-199223333D01*
X193346104Y-199032857D01*
X193393723Y-198937619D01*
X193441342Y-198890000D01*
X193536580Y-198842380D01*
X302225390Y-203084180D02*
X302415866Y-203084180D01*
X302511104Y-203131800D01*
X302606342Y-203227038D01*
X302653961Y-203417514D01*
X302653961Y-203750847D01*
X302606342Y-203941323D01*
X302511104Y-204036561D01*
X302415866Y-204084180D01*
X302225390Y-204084180D01*
X302130152Y-204036561D01*
X302034914Y-203941323D01*
X301987295Y-203750847D01*
X301987295Y-203417514D01*
X302034914Y-203227038D01*
X302130152Y-203131800D01*
X302225390Y-203084180D01*
X303082533Y-203417514D02*
X303082533Y-204084180D01*
X303082533Y-203512752D02*
X303130152Y-203465133D01*
X303225390Y-203417514D01*
X303368247Y-203417514D01*
X303463485Y-203465133D01*
X303511104Y-203560371D01*
X303511104Y-204084180D01*
X304368247Y-204036561D02*
X304273009Y-204084180D01*
X304082533Y-204084180D01*
X303987295Y-204036561D01*
X303939676Y-203941323D01*
X303939676Y-203560371D01*
X303987295Y-203465133D01*
X304082533Y-203417514D01*
X304273009Y-203417514D01*
X304368247Y-203465133D01*
X304415866Y-203560371D01*
X304415866Y-203655609D01*
X303939676Y-203750847D01*
X304749200Y-203084180D02*
X304987295Y-204084180D01*
X305177771Y-203369895D01*
X305368247Y-204084180D01*
X305606342Y-203084180D01*
X305987295Y-204084180D02*
X305987295Y-203417514D01*
X305987295Y-203084180D02*
X305939676Y-203131800D01*
X305987295Y-203179419D01*
X306034914Y-203131800D01*
X305987295Y-203084180D01*
X305987295Y-203179419D01*
X306463485Y-204084180D02*
X306463485Y-203417514D01*
X306463485Y-203607990D02*
X306511104Y-203512752D01*
X306558723Y-203465133D01*
X306653961Y-203417514D01*
X306749200Y-203417514D01*
X307463485Y-204036561D02*
X307368247Y-204084180D01*
X307177771Y-204084180D01*
X307082533Y-204036561D01*
X307034914Y-203941323D01*
X307034914Y-203560371D01*
X307082533Y-203465133D01*
X307177771Y-203417514D01*
X307368247Y-203417514D01*
X307463485Y-203465133D01*
X307511104Y-203560371D01*
X307511104Y-203655609D01*
X307034914Y-203750847D01*
X67531223Y-39524942D02*
X67483604Y-39572561D01*
X67340747Y-39620180D01*
X67245509Y-39620180D01*
X67102652Y-39572561D01*
X67007414Y-39477323D01*
X66959795Y-39382085D01*
X66912176Y-39191609D01*
X66912176Y-39048752D01*
X66959795Y-38858276D01*
X67007414Y-38763038D01*
X67102652Y-38667800D01*
X67245509Y-38620180D01*
X67340747Y-38620180D01*
X67483604Y-38667800D01*
X67531223Y-38715419D01*
X67959795Y-39620180D02*
X67959795Y-38953514D01*
X67959795Y-39143990D02*
X68007414Y-39048752D01*
X68055033Y-39001133D01*
X68150271Y-38953514D01*
X68245509Y-38953514D01*
X68721700Y-39620180D02*
X68626461Y-39572561D01*
X68578842Y-39524942D01*
X68531223Y-39429704D01*
X68531223Y-39143990D01*
X68578842Y-39048752D01*
X68626461Y-39001133D01*
X68721700Y-38953514D01*
X68864557Y-38953514D01*
X68959795Y-39001133D01*
X69007414Y-39048752D01*
X69055033Y-39143990D01*
X69055033Y-39429704D01*
X69007414Y-39524942D01*
X68959795Y-39572561D01*
X68864557Y-39620180D01*
X68721700Y-39620180D01*
X69483604Y-38953514D02*
X69483604Y-39953514D01*
X69483604Y-39001133D02*
X69578842Y-38953514D01*
X69769319Y-38953514D01*
X69864557Y-39001133D01*
X69912176Y-39048752D01*
X69959795Y-39143990D01*
X69959795Y-39429704D01*
X69912176Y-39524942D01*
X69864557Y-39572561D01*
X69769319Y-39620180D01*
X69578842Y-39620180D01*
X69483604Y-39572561D01*
X70388366Y-39620180D02*
X70388366Y-38620180D01*
X70626461Y-38620180D01*
X70769319Y-38667800D01*
X70864557Y-38763038D01*
X70912176Y-38858276D01*
X70959795Y-39048752D01*
X70959795Y-39191609D01*
X70912176Y-39382085D01*
X70864557Y-39477323D01*
X70769319Y-39572561D01*
X70626461Y-39620180D01*
X70388366Y-39620180D01*
X71388366Y-39620180D02*
X71388366Y-38953514D01*
X71388366Y-39143990D02*
X71435985Y-39048752D01*
X71483604Y-39001133D01*
X71578842Y-38953514D01*
X71674080Y-38953514D01*
X72150271Y-39620180D02*
X72055033Y-39572561D01*
X72007414Y-39524942D01*
X71959795Y-39429704D01*
X71959795Y-39143990D01*
X72007414Y-39048752D01*
X72055033Y-39001133D01*
X72150271Y-38953514D01*
X72293128Y-38953514D01*
X72388366Y-39001133D01*
X72435985Y-39048752D01*
X72483604Y-39143990D01*
X72483604Y-39429704D01*
X72435985Y-39524942D01*
X72388366Y-39572561D01*
X72293128Y-39620180D01*
X72150271Y-39620180D01*
X72912176Y-39620180D02*
X72912176Y-38953514D01*
X72912176Y-38620180D02*
X72864557Y-38667800D01*
X72912176Y-38715419D01*
X72959795Y-38667800D01*
X72912176Y-38620180D01*
X72912176Y-38715419D01*
X73816938Y-39620180D02*
X73816938Y-38620180D01*
X73816938Y-39572561D02*
X73721700Y-39620180D01*
X73531223Y-39620180D01*
X73435985Y-39572561D01*
X73388366Y-39524942D01*
X73340747Y-39429704D01*
X73340747Y-39143990D01*
X73388366Y-39048752D01*
X73435985Y-39001133D01*
X73531223Y-38953514D01*
X73721700Y-38953514D01*
X73816938Y-39001133D01*
X75626461Y-39620180D02*
X75293128Y-39143990D01*
X75055033Y-39620180D02*
X75055033Y-38620180D01*
X75435985Y-38620180D01*
X75531223Y-38667800D01*
X75578842Y-38715419D01*
X75626461Y-38810657D01*
X75626461Y-38953514D01*
X75578842Y-39048752D01*
X75531223Y-39096371D01*
X75435985Y-39143990D01*
X75055033Y-39143990D01*
X76435985Y-39572561D02*
X76340747Y-39620180D01*
X76150271Y-39620180D01*
X76055033Y-39572561D01*
X76007414Y-39477323D01*
X76007414Y-39096371D01*
X76055033Y-39001133D01*
X76150271Y-38953514D01*
X76340747Y-38953514D01*
X76435985Y-39001133D01*
X76483604Y-39096371D01*
X76483604Y-39191609D01*
X76007414Y-39286847D01*
X76864557Y-39572561D02*
X76959795Y-39620180D01*
X77150271Y-39620180D01*
X77245509Y-39572561D01*
X77293128Y-39477323D01*
X77293128Y-39429704D01*
X77245509Y-39334466D01*
X77150271Y-39286847D01*
X77007414Y-39286847D01*
X76912176Y-39239228D01*
X76864557Y-39143990D01*
X76864557Y-39096371D01*
X76912176Y-39001133D01*
X77007414Y-38953514D01*
X77150271Y-38953514D01*
X77245509Y-39001133D01*
X78102652Y-39572561D02*
X78007414Y-39620180D01*
X77816938Y-39620180D01*
X77721700Y-39572561D01*
X77674080Y-39477323D01*
X77674080Y-39096371D01*
X77721700Y-39001133D01*
X77816938Y-38953514D01*
X78007414Y-38953514D01*
X78102652Y-39001133D01*
X78150271Y-39096371D01*
X78150271Y-39191609D01*
X77674080Y-39286847D01*
X78578842Y-39620180D02*
X78578842Y-38953514D01*
X78578842Y-39143990D02*
X78626461Y-39048752D01*
X78674080Y-39001133D01*
X78769319Y-38953514D01*
X78864557Y-38953514D01*
X79102652Y-38953514D02*
X79340747Y-39620180D01*
X79578842Y-38953514D01*
X80102652Y-39620180D02*
X80007414Y-39572561D01*
X79959795Y-39524942D01*
X79912176Y-39429704D01*
X79912176Y-39143990D01*
X79959795Y-39048752D01*
X80007414Y-39001133D01*
X80102652Y-38953514D01*
X80245509Y-38953514D01*
X80340747Y-39001133D01*
X80388366Y-39048752D01*
X80435985Y-39143990D01*
X80435985Y-39429704D01*
X80388366Y-39524942D01*
X80340747Y-39572561D01*
X80245509Y-39620180D01*
X80102652Y-39620180D01*
X80864557Y-39620180D02*
X80864557Y-38953514D01*
X80864557Y-38620180D02*
X80816938Y-38667800D01*
X80864557Y-38715419D01*
X80912176Y-38667800D01*
X80864557Y-38620180D01*
X80864557Y-38715419D01*
X81340747Y-39620180D02*
X81340747Y-38953514D01*
X81340747Y-39143990D02*
X81388366Y-39048752D01*
X81435985Y-39001133D01*
X81531223Y-38953514D01*
X81626461Y-38953514D01*
X83293128Y-39524942D02*
X83245509Y-39572561D01*
X83102652Y-39620180D01*
X83007414Y-39620180D01*
X82864557Y-39572561D01*
X82769319Y-39477323D01*
X82721700Y-39382085D01*
X82674080Y-39191609D01*
X82674080Y-39048752D01*
X82721700Y-38858276D01*
X82769319Y-38763038D01*
X82864557Y-38667800D01*
X83007414Y-38620180D01*
X83102652Y-38620180D01*
X83245509Y-38667800D01*
X83293128Y-38715419D01*
X83864557Y-39620180D02*
X83769319Y-39572561D01*
X83721700Y-39524942D01*
X83674080Y-39429704D01*
X83674080Y-39143990D01*
X83721700Y-39048752D01*
X83769319Y-39001133D01*
X83864557Y-38953514D01*
X84007414Y-38953514D01*
X84102652Y-39001133D01*
X84150271Y-39048752D01*
X84197890Y-39143990D01*
X84197890Y-39429704D01*
X84150271Y-39524942D01*
X84102652Y-39572561D01*
X84007414Y-39620180D01*
X83864557Y-39620180D01*
X84626461Y-38953514D02*
X84626461Y-39620180D01*
X84626461Y-39048752D02*
X84674080Y-39001133D01*
X84769319Y-38953514D01*
X84912176Y-38953514D01*
X85007414Y-39001133D01*
X85055033Y-39096371D01*
X85055033Y-39620180D01*
X85388366Y-38953514D02*
X85769319Y-38953514D01*
X85531223Y-38620180D02*
X85531223Y-39477323D01*
X85578842Y-39572561D01*
X85674080Y-39620180D01*
X85769319Y-39620180D01*
X86102652Y-39620180D02*
X86102652Y-38953514D01*
X86102652Y-39143990D02*
X86150271Y-39048752D01*
X86197890Y-39001133D01*
X86293128Y-38953514D01*
X86388366Y-38953514D01*
X86864557Y-39620180D02*
X86769319Y-39572561D01*
X86721700Y-39524942D01*
X86674080Y-39429704D01*
X86674080Y-39143990D01*
X86721700Y-39048752D01*
X86769319Y-39001133D01*
X86864557Y-38953514D01*
X87007414Y-38953514D01*
X87102652Y-39001133D01*
X87150271Y-39048752D01*
X87197890Y-39143990D01*
X87197890Y-39429704D01*
X87150271Y-39524942D01*
X87102652Y-39572561D01*
X87007414Y-39620180D01*
X86864557Y-39620180D01*
X87769319Y-39620180D02*
X87674080Y-39572561D01*
X87626461Y-39477323D01*
X87626461Y-38620180D01*
X88293128Y-39620180D02*
X88197890Y-39572561D01*
X88150271Y-39477323D01*
X88150271Y-38620180D01*
X89055033Y-39572561D02*
X88959795Y-39620180D01*
X88769319Y-39620180D01*
X88674080Y-39572561D01*
X88626461Y-39477323D01*
X88626461Y-39096371D01*
X88674080Y-39001133D01*
X88769319Y-38953514D01*
X88959795Y-38953514D01*
X89055033Y-39001133D01*
X89102652Y-39096371D01*
X89102652Y-39191609D01*
X88626461Y-39286847D01*
X89531223Y-39620180D02*
X89531223Y-38953514D01*
X89531223Y-39143990D02*
X89578842Y-39048752D01*
X89626461Y-39001133D01*
X89721700Y-38953514D01*
X89816938Y-38953514D01*
X67531223Y-41174942D02*
X67483604Y-41222561D01*
X67340747Y-41270180D01*
X67245509Y-41270180D01*
X67102652Y-41222561D01*
X67007414Y-41127323D01*
X66959795Y-41032085D01*
X66912176Y-40841609D01*
X66912176Y-40698752D01*
X66959795Y-40508276D01*
X67007414Y-40413038D01*
X67102652Y-40317800D01*
X67245509Y-40270180D01*
X67340747Y-40270180D01*
X67483604Y-40317800D01*
X67531223Y-40365419D01*
X68102652Y-41270180D02*
X68007414Y-41222561D01*
X67959795Y-41174942D01*
X67912176Y-41079704D01*
X67912176Y-40793990D01*
X67959795Y-40698752D01*
X68007414Y-40651133D01*
X68102652Y-40603514D01*
X68245509Y-40603514D01*
X68340747Y-40651133D01*
X68388366Y-40698752D01*
X68435985Y-40793990D01*
X68435985Y-41079704D01*
X68388366Y-41174942D01*
X68340747Y-41222561D01*
X68245509Y-41270180D01*
X68102652Y-41270180D01*
X68864557Y-40603514D02*
X68864557Y-41603514D01*
X68864557Y-40651133D02*
X68959795Y-40603514D01*
X69150271Y-40603514D01*
X69245509Y-40651133D01*
X69293128Y-40698752D01*
X69340747Y-40793990D01*
X69340747Y-41079704D01*
X69293128Y-41174942D01*
X69245509Y-41222561D01*
X69150271Y-41270180D01*
X68959795Y-41270180D01*
X68864557Y-41222561D01*
X69674080Y-40603514D02*
X69912176Y-41270180D01*
X70150271Y-40603514D02*
X69912176Y-41270180D01*
X69816938Y-41508276D01*
X69769319Y-41555895D01*
X69674080Y-41603514D01*
X71102652Y-41270180D02*
X70769319Y-40793990D01*
X70531223Y-41270180D02*
X70531223Y-40270180D01*
X70912176Y-40270180D01*
X71007414Y-40317800D01*
X71055033Y-40365419D01*
X71102652Y-40460657D01*
X71102652Y-40603514D01*
X71055033Y-40698752D01*
X71007414Y-40746371D01*
X70912176Y-40793990D01*
X70531223Y-40793990D01*
X71531223Y-41270180D02*
X71531223Y-40603514D01*
X71531223Y-40270180D02*
X71483604Y-40317800D01*
X71531223Y-40365419D01*
X71578842Y-40317800D01*
X71531223Y-40270180D01*
X71531223Y-40365419D01*
X72435985Y-40603514D02*
X72435985Y-41413038D01*
X72388366Y-41508276D01*
X72340747Y-41555895D01*
X72245509Y-41603514D01*
X72102652Y-41603514D01*
X72007414Y-41555895D01*
X72435985Y-41222561D02*
X72340747Y-41270180D01*
X72150271Y-41270180D01*
X72055033Y-41222561D01*
X72007414Y-41174942D01*
X71959795Y-41079704D01*
X71959795Y-40793990D01*
X72007414Y-40698752D01*
X72055033Y-40651133D01*
X72150271Y-40603514D01*
X72340747Y-40603514D01*
X72435985Y-40651133D01*
X72912176Y-41270180D02*
X72912176Y-40270180D01*
X73340747Y-41270180D02*
X73340747Y-40746371D01*
X73293128Y-40651133D01*
X73197890Y-40603514D01*
X73055033Y-40603514D01*
X72959795Y-40651133D01*
X72912176Y-40698752D01*
X73674080Y-40603514D02*
X74055033Y-40603514D01*
X73816938Y-40270180D02*
X73816938Y-41127323D01*
X73864557Y-41222561D01*
X73959795Y-41270180D01*
X74055033Y-41270180D01*
X75435985Y-41651133D02*
X75388366Y-41603514D01*
X75293128Y-41460657D01*
X75245509Y-41365419D01*
X75197890Y-41222561D01*
X75150271Y-40984466D01*
X75150271Y-40793990D01*
X75197890Y-40555895D01*
X75245509Y-40413038D01*
X75293128Y-40317800D01*
X75388366Y-40174942D01*
X75435985Y-40127323D01*
X76245509Y-41222561D02*
X76150271Y-41270180D01*
X75959795Y-41270180D01*
X75864557Y-41222561D01*
X75816938Y-41174942D01*
X75769319Y-41079704D01*
X75769319Y-40793990D01*
X75816938Y-40698752D01*
X75864557Y-40651133D01*
X75959795Y-40603514D01*
X76150271Y-40603514D01*
X76245509Y-40651133D01*
X76578842Y-41651133D02*
X76626461Y-41603514D01*
X76721700Y-41460657D01*
X76769319Y-41365419D01*
X76816938Y-41222561D01*
X76864557Y-40984466D01*
X76864557Y-40793990D01*
X76816938Y-40555895D01*
X76769319Y-40413038D01*
X76721700Y-40317800D01*
X76626461Y-40174942D01*
X76578842Y-40127323D01*
X78055033Y-40984466D02*
X78531223Y-40984466D01*
X77959795Y-41270180D02*
X78293128Y-40270180D01*
X78626461Y-41270180D01*
X79388366Y-40603514D02*
X79388366Y-41270180D01*
X78959795Y-40603514D02*
X78959795Y-41127323D01*
X79007414Y-41222561D01*
X79102652Y-41270180D01*
X79245509Y-41270180D01*
X79340747Y-41222561D01*
X79388366Y-41174942D01*
X79721700Y-40603514D02*
X80102652Y-40603514D01*
X79864557Y-40270180D02*
X79864557Y-41127323D01*
X79912176Y-41222561D01*
X80007414Y-41270180D01*
X80102652Y-41270180D01*
X80578842Y-41270180D02*
X80483604Y-41222561D01*
X80435985Y-41174942D01*
X80388366Y-41079704D01*
X80388366Y-40793990D01*
X80435985Y-40698752D01*
X80483604Y-40651133D01*
X80578842Y-40603514D01*
X80721700Y-40603514D01*
X80816938Y-40651133D01*
X80864557Y-40698752D01*
X80912176Y-40793990D01*
X80912176Y-41079704D01*
X80864557Y-41174942D01*
X80816938Y-41222561D01*
X80721700Y-41270180D01*
X80578842Y-41270180D01*
X81340747Y-41270180D02*
X81340747Y-40603514D01*
X81340747Y-40698752D02*
X81388366Y-40651133D01*
X81483604Y-40603514D01*
X81626461Y-40603514D01*
X81721700Y-40651133D01*
X81769319Y-40746371D01*
X81769319Y-41270180D01*
X81769319Y-40746371D02*
X81816938Y-40651133D01*
X81912176Y-40603514D01*
X82055033Y-40603514D01*
X82150271Y-40651133D01*
X82197890Y-40746371D01*
X82197890Y-41270180D01*
X83102652Y-41270180D02*
X83102652Y-40746371D01*
X83055033Y-40651133D01*
X82959795Y-40603514D01*
X82769319Y-40603514D01*
X82674080Y-40651133D01*
X83102652Y-41222561D02*
X83007414Y-41270180D01*
X82769319Y-41270180D01*
X82674080Y-41222561D01*
X82626461Y-41127323D01*
X82626461Y-41032085D01*
X82674080Y-40936847D01*
X82769319Y-40889228D01*
X83007414Y-40889228D01*
X83102652Y-40841609D01*
X83435985Y-40603514D02*
X83816938Y-40603514D01*
X83578842Y-40270180D02*
X83578842Y-41127323D01*
X83626461Y-41222561D01*
X83721700Y-41270180D01*
X83816938Y-41270180D01*
X84531223Y-41222561D02*
X84435985Y-41270180D01*
X84245509Y-41270180D01*
X84150271Y-41222561D01*
X84102652Y-41127323D01*
X84102652Y-40746371D01*
X84150271Y-40651133D01*
X84245509Y-40603514D01*
X84435985Y-40603514D01*
X84531223Y-40651133D01*
X84578842Y-40746371D01*
X84578842Y-40841609D01*
X84102652Y-40936847D01*
X85626461Y-40270180D02*
X86197890Y-40270180D01*
X85912176Y-41270180D02*
X85912176Y-40270180D01*
X86531223Y-41270180D02*
X86531223Y-40270180D01*
X86959795Y-41270180D02*
X86959795Y-40746371D01*
X86912176Y-40651133D01*
X86816938Y-40603514D01*
X86674080Y-40603514D01*
X86578842Y-40651133D01*
X86531223Y-40698752D01*
X87816938Y-41222561D02*
X87721700Y-41270180D01*
X87531223Y-41270180D01*
X87435985Y-41222561D01*
X87388366Y-41127323D01*
X87388366Y-40746371D01*
X87435985Y-40651133D01*
X87531223Y-40603514D01*
X87721700Y-40603514D01*
X87816938Y-40651133D01*
X87864557Y-40746371D01*
X87864557Y-40841609D01*
X87388366Y-40936847D01*
X88912176Y-40270180D02*
X89483604Y-40270180D01*
X89197890Y-41270180D02*
X89197890Y-40270180D01*
X89816938Y-41270180D02*
X89816938Y-40270180D01*
X90245509Y-41270180D02*
X90245509Y-40746371D01*
X90197890Y-40651133D01*
X90102652Y-40603514D01*
X89959795Y-40603514D01*
X89864557Y-40651133D01*
X89816938Y-40698752D01*
X90721700Y-41270180D02*
X90721700Y-40603514D01*
X90721700Y-40270180D02*
X90674080Y-40317800D01*
X90721700Y-40365419D01*
X90769319Y-40317800D01*
X90721700Y-40270180D01*
X90721700Y-40365419D01*
X91197890Y-40603514D02*
X91197890Y-41270180D01*
X91197890Y-40698752D02*
X91245509Y-40651133D01*
X91340747Y-40603514D01*
X91483604Y-40603514D01*
X91578842Y-40651133D01*
X91626461Y-40746371D01*
X91626461Y-41270180D01*
X92531223Y-40603514D02*
X92531223Y-41413038D01*
X92483604Y-41508276D01*
X92435985Y-41555895D01*
X92340747Y-41603514D01*
X92197890Y-41603514D01*
X92102652Y-41555895D01*
X92531223Y-41222561D02*
X92435985Y-41270180D01*
X92245509Y-41270180D01*
X92150271Y-41222561D01*
X92102652Y-41174942D01*
X92055033Y-41079704D01*
X92055033Y-40793990D01*
X92102652Y-40698752D01*
X92150271Y-40651133D01*
X92245509Y-40603514D01*
X92435985Y-40603514D01*
X92531223Y-40651133D01*
X92959795Y-41222561D02*
X93055033Y-41270180D01*
X93245509Y-41270180D01*
X93340747Y-41222561D01*
X93388366Y-41127323D01*
X93388366Y-41079704D01*
X93340747Y-40984466D01*
X93245509Y-40936847D01*
X93102652Y-40936847D01*
X93007414Y-40889228D01*
X92959795Y-40793990D01*
X92959795Y-40746371D01*
X93007414Y-40651133D01*
X93102652Y-40603514D01*
X93245509Y-40603514D01*
X93340747Y-40651133D01*
X93864557Y-41222561D02*
X93864557Y-41270180D01*
X93816938Y-41365419D01*
X93769319Y-41413038D01*
X95531223Y-41270180D02*
X95055033Y-41270180D01*
X95055033Y-40270180D01*
X96340747Y-41270180D02*
X95864557Y-41270180D01*
X95864557Y-40270180D01*
X97245509Y-41174942D02*
X97197890Y-41222561D01*
X97055033Y-41270180D01*
X96959795Y-41270180D01*
X96816938Y-41222561D01*
X96721700Y-41127323D01*
X96674080Y-41032085D01*
X96626461Y-40841609D01*
X96626461Y-40698752D01*
X96674080Y-40508276D01*
X96721700Y-40413038D01*
X96816938Y-40317800D01*
X96959795Y-40270180D01*
X97055033Y-40270180D01*
X97197890Y-40317800D01*
X97245509Y-40365419D01*
X66959795Y-42920180D02*
X66959795Y-41920180D01*
X67340747Y-41920180D01*
X67435985Y-41967800D01*
X67483604Y-42015419D01*
X67531223Y-42110657D01*
X67531223Y-42253514D01*
X67483604Y-42348752D01*
X67435985Y-42396371D01*
X67340747Y-42443990D01*
X66959795Y-42443990D01*
X67959795Y-42920180D02*
X67959795Y-42253514D01*
X67959795Y-42443990D02*
X68007414Y-42348752D01*
X68055033Y-42301133D01*
X68150271Y-42253514D01*
X68245509Y-42253514D01*
X68721700Y-42920180D02*
X68626461Y-42872561D01*
X68578842Y-42824942D01*
X68531223Y-42729704D01*
X68531223Y-42443990D01*
X68578842Y-42348752D01*
X68626461Y-42301133D01*
X68721700Y-42253514D01*
X68864557Y-42253514D01*
X68959795Y-42301133D01*
X69007414Y-42348752D01*
X69055033Y-42443990D01*
X69055033Y-42729704D01*
X69007414Y-42824942D01*
X68959795Y-42872561D01*
X68864557Y-42920180D01*
X68721700Y-42920180D01*
X69340747Y-42253514D02*
X69721700Y-42253514D01*
X69483604Y-41920180D02*
X69483604Y-42777323D01*
X69531223Y-42872561D01*
X69626461Y-42920180D01*
X69721700Y-42920180D01*
X70197890Y-42920180D02*
X70102652Y-42872561D01*
X70055033Y-42824942D01*
X70007414Y-42729704D01*
X70007414Y-42443990D01*
X70055033Y-42348752D01*
X70102652Y-42301133D01*
X70197890Y-42253514D01*
X70340747Y-42253514D01*
X70435985Y-42301133D01*
X70483604Y-42348752D01*
X70531223Y-42443990D01*
X70531223Y-42729704D01*
X70483604Y-42824942D01*
X70435985Y-42872561D01*
X70340747Y-42920180D01*
X70197890Y-42920180D01*
X70816938Y-42253514D02*
X71197890Y-42253514D01*
X70959795Y-41920180D02*
X70959795Y-42777323D01*
X71007414Y-42872561D01*
X71102652Y-42920180D01*
X71197890Y-42920180D01*
X71435985Y-42253514D02*
X71674080Y-42920180D01*
X71912176Y-42253514D02*
X71674080Y-42920180D01*
X71578842Y-43158276D01*
X71531223Y-43205895D01*
X71435985Y-43253514D01*
X72293128Y-42253514D02*
X72293128Y-43253514D01*
X72293128Y-42301133D02*
X72388366Y-42253514D01*
X72578842Y-42253514D01*
X72674080Y-42301133D01*
X72721700Y-42348752D01*
X72769319Y-42443990D01*
X72769319Y-42729704D01*
X72721700Y-42824942D01*
X72674080Y-42872561D01*
X72578842Y-42920180D01*
X72388366Y-42920180D01*
X72293128Y-42872561D01*
X73578842Y-42872561D02*
X73483604Y-42920180D01*
X73293128Y-42920180D01*
X73197890Y-42872561D01*
X73150271Y-42777323D01*
X73150271Y-42396371D01*
X73197890Y-42301133D01*
X73293128Y-42253514D01*
X73483604Y-42253514D01*
X73578842Y-42301133D01*
X73626461Y-42396371D01*
X73626461Y-42491609D01*
X73150271Y-42586847D01*
X74721700Y-42253514D02*
X74959795Y-42920180D01*
X75197890Y-42253514D01*
X75769319Y-41920180D02*
X75864557Y-41920180D01*
X75959795Y-41967800D01*
X76007414Y-42015419D01*
X76055033Y-42110657D01*
X76102652Y-42301133D01*
X76102652Y-42539228D01*
X76055033Y-42729704D01*
X76007414Y-42824942D01*
X75959795Y-42872561D01*
X75864557Y-42920180D01*
X75769319Y-42920180D01*
X75674080Y-42872561D01*
X75626461Y-42824942D01*
X75578842Y-42729704D01*
X75531223Y-42539228D01*
X75531223Y-42301133D01*
X75578842Y-42110657D01*
X75626461Y-42015419D01*
X75674080Y-41967800D01*
X75769319Y-41920180D01*
X76531223Y-42824942D02*
X76578842Y-42872561D01*
X76531223Y-42920180D01*
X76483604Y-42872561D01*
X76531223Y-42824942D01*
X76531223Y-42920180D01*
X77435985Y-41920180D02*
X77245509Y-41920180D01*
X77150271Y-41967800D01*
X77102652Y-42015419D01*
X77007414Y-42158276D01*
X76959795Y-42348752D01*
X76959795Y-42729704D01*
X77007414Y-42824942D01*
X77055033Y-42872561D01*
X77150271Y-42920180D01*
X77340747Y-42920180D01*
X77435985Y-42872561D01*
X77483604Y-42824942D01*
X77531223Y-42729704D01*
X77531223Y-42491609D01*
X77483604Y-42396371D01*
X77435985Y-42348752D01*
X77340747Y-42301133D01*
X77150271Y-42301133D01*
X77055033Y-42348752D01*
X77007414Y-42396371D01*
X76959795Y-42491609D01*
X78388366Y-42920180D02*
X78388366Y-42396371D01*
X78340747Y-42301133D01*
X78245509Y-42253514D01*
X78055033Y-42253514D01*
X77959795Y-42301133D01*
X78388366Y-42872561D02*
X78293128Y-42920180D01*
X78055033Y-42920180D01*
X77959795Y-42872561D01*
X77912176Y-42777323D01*
X77912176Y-42682085D01*
X77959795Y-42586847D01*
X78055033Y-42539228D01*
X78293128Y-42539228D01*
X78388366Y-42491609D01*
D12*
G36*
X82565083Y-54841833D02*
G01*
X82577469Y-54847992D01*
X82710484Y-54945603D01*
X82779021Y-55077474D01*
X82795534Y-55232300D01*
X82771893Y-55411302D01*
X82693794Y-55537215D01*
X82584714Y-55612862D01*
X82403720Y-55670298D01*
X82228785Y-55646269D01*
X82151014Y-55610811D01*
X82028512Y-55514628D01*
X81964732Y-55381195D01*
X81955553Y-55287750D01*
X82040151Y-55287750D01*
X82090972Y-55420584D01*
X82195104Y-55519414D01*
X82312762Y-55578317D01*
X82412789Y-55581761D01*
X82536855Y-55531052D01*
X82538506Y-55530199D01*
X82631555Y-55465667D01*
X82684570Y-55399737D01*
X82707670Y-55241743D01*
X82666409Y-55092884D01*
X82573886Y-54974522D01*
X82443201Y-54908020D01*
X82378555Y-54900689D01*
X82224782Y-54935067D01*
X82113096Y-55024618D01*
X82049539Y-55148970D01*
X82040151Y-55287750D01*
X81955553Y-55287750D01*
X81948867Y-55219689D01*
X81986187Y-55049712D01*
X82085476Y-54915699D01*
X82227727Y-54828888D01*
X82393932Y-54800520D01*
X82565083Y-54841833D01*
G37*
X82565083Y-54841833D02*
X82577469Y-54847992D01*
X82710484Y-54945603D01*
X82779021Y-55077474D01*
X82795534Y-55232300D01*
X82771893Y-55411302D01*
X82693794Y-55537215D01*
X82584714Y-55612862D01*
X82403720Y-55670298D01*
X82228785Y-55646269D01*
X82151014Y-55610811D01*
X82028512Y-55514628D01*
X81964732Y-55381195D01*
X81955553Y-55287750D01*
X82040151Y-55287750D01*
X82090972Y-55420584D01*
X82195104Y-55519414D01*
X82312762Y-55578317D01*
X82412789Y-55581761D01*
X82536855Y-55531052D01*
X82538506Y-55530199D01*
X82631555Y-55465667D01*
X82684570Y-55399737D01*
X82707670Y-55241743D01*
X82666409Y-55092884D01*
X82573886Y-54974522D01*
X82443201Y-54908020D01*
X82378555Y-54900689D01*
X82224782Y-54935067D01*
X82113096Y-55024618D01*
X82049539Y-55148970D01*
X82040151Y-55287750D01*
X81955553Y-55287750D01*
X81948867Y-55219689D01*
X81986187Y-55049712D01*
X82085476Y-54915699D01*
X82227727Y-54828888D01*
X82393932Y-54800520D01*
X82565083Y-54841833D01*
G36*
X84641139Y-55714394D02*
G01*
X84764746Y-55811294D01*
X84861548Y-55943680D01*
X84910106Y-56087731D01*
X84912200Y-56121300D01*
X84894443Y-56245458D01*
X84829627Y-56355186D01*
X84768267Y-56421867D01*
X84612700Y-56534333D01*
X84448858Y-56564415D01*
X84319534Y-56535903D01*
X84186342Y-56449346D01*
X84082033Y-56314346D01*
X84041268Y-56204339D01*
X84043496Y-56149973D01*
X84143172Y-56149973D01*
X84189334Y-56298841D01*
X84301899Y-56411269D01*
X84313440Y-56417935D01*
X84466996Y-56460368D01*
X84615129Y-56420903D01*
X84732073Y-56320618D01*
X84813612Y-56178723D01*
X84812927Y-56042121D01*
X84759761Y-55937548D01*
X84640124Y-55828002D01*
X84497245Y-55785067D01*
X84353649Y-55806813D01*
X84231864Y-55891309D01*
X84171133Y-55987990D01*
X84143172Y-56149973D01*
X84043496Y-56149973D01*
X84048308Y-56032582D01*
X84124161Y-55877192D01*
X84252984Y-55755919D01*
X84418936Y-55686511D01*
X84512165Y-55676800D01*
X84641139Y-55714394D01*
G37*
X84641139Y-55714394D02*
X84764746Y-55811294D01*
X84861548Y-55943680D01*
X84910106Y-56087731D01*
X84912200Y-56121300D01*
X84894443Y-56245458D01*
X84829627Y-56355186D01*
X84768267Y-56421867D01*
X84612700Y-56534333D01*
X84448858Y-56564415D01*
X84319534Y-56535903D01*
X84186342Y-56449346D01*
X84082033Y-56314346D01*
X84041268Y-56204339D01*
X84043496Y-56149973D01*
X84143172Y-56149973D01*
X84189334Y-56298841D01*
X84301899Y-56411269D01*
X84313440Y-56417935D01*
X84466996Y-56460368D01*
X84615129Y-56420903D01*
X84732073Y-56320618D01*
X84813612Y-56178723D01*
X84812927Y-56042121D01*
X84759761Y-55937548D01*
X84640124Y-55828002D01*
X84497245Y-55785067D01*
X84353649Y-55806813D01*
X84231864Y-55891309D01*
X84171133Y-55987990D01*
X84143172Y-56149973D01*
X84043496Y-56149973D01*
X84048308Y-56032582D01*
X84124161Y-55877192D01*
X84252984Y-55755919D01*
X84418936Y-55686511D01*
X84512165Y-55676800D01*
X84641139Y-55714394D01*
G36*
X88440954Y-44377734D02*
G01*
X88426838Y-44493792D01*
X88396933Y-44654876D01*
X88364371Y-44800236D01*
X88222637Y-45465142D01*
X88129206Y-46081339D01*
X88081545Y-46667823D01*
X88073955Y-46977300D01*
X88077660Y-47316085D01*
X88094320Y-47626147D01*
X88127103Y-47921463D01*
X88179179Y-48216009D01*
X88253719Y-48523761D01*
X88353890Y-48858696D01*
X88482863Y-49234789D01*
X88643807Y-49666018D01*
X88739629Y-49912721D01*
X88918953Y-50376210D01*
X89066368Y-50774204D01*
X89184611Y-51118461D01*
X89276420Y-51420737D01*
X89344532Y-51692792D01*
X89391687Y-51946382D01*
X89420620Y-52193265D01*
X89434071Y-52445199D01*
X89434776Y-52713942D01*
X89430504Y-52879769D01*
X89400978Y-53370438D01*
X89343356Y-53814889D01*
X89251225Y-54248750D01*
X89118170Y-54707645D01*
X89081163Y-54820301D01*
X88832239Y-55436942D01*
X88516246Y-56004537D01*
X88136963Y-56519347D01*
X87698170Y-56977633D01*
X87203646Y-57375656D01*
X86657172Y-57709677D01*
X86062527Y-57975957D01*
X85799551Y-58066622D01*
X85569033Y-58134239D01*
X85411876Y-58167737D01*
X85324148Y-58167554D01*
X85301917Y-58134127D01*
X85305749Y-58121550D01*
X85327331Y-58070238D01*
X85377653Y-57951349D01*
X85452329Y-57775224D01*
X85546973Y-57552204D01*
X85657197Y-57292629D01*
X85778615Y-57006839D01*
X85804129Y-56946800D01*
X85960434Y-56575655D01*
X86084073Y-56272293D01*
X86177488Y-56027452D01*
X86243121Y-55831870D01*
X86283412Y-55676284D01*
X86300802Y-55551433D01*
X86297733Y-55448053D01*
X86276645Y-55356884D01*
X86244129Y-55277302D01*
X86190953Y-55182413D01*
X86121301Y-55097327D01*
X86024823Y-55015504D01*
X85891169Y-54930403D01*
X85709989Y-54835482D01*
X85470934Y-54724202D01*
X85163652Y-54590021D01*
X85141758Y-54580645D01*
X84880966Y-54468537D01*
X84688179Y-54383426D01*
X84553379Y-54319438D01*
X84466548Y-54270696D01*
X84417667Y-54231326D01*
X84396718Y-54195451D01*
X84393681Y-54157196D01*
X84394944Y-54142658D01*
X84406706Y-54059048D01*
X84430299Y-53911932D01*
X84462446Y-53721113D01*
X84499870Y-53506392D01*
X84505046Y-53477224D01*
X84540307Y-53273711D01*
X84567928Y-53104016D01*
X84585551Y-52983448D01*
X84590820Y-52927319D01*
X84590033Y-52925134D01*
X84562018Y-52957564D01*
X84493642Y-53046896D01*
X84393832Y-53181185D01*
X84271514Y-53348490D01*
X84206944Y-53437687D01*
X84073858Y-53618955D01*
X83955231Y-53774668D01*
X83861011Y-53892203D01*
X83801151Y-53958941D01*
X83787985Y-53969072D01*
X83735389Y-53959200D01*
X83617805Y-53920581D01*
X83448011Y-53857946D01*
X83238786Y-53776031D01*
X83002908Y-53679567D01*
X82975678Y-53668185D01*
X82660660Y-53539280D01*
X82409455Y-53445191D01*
X82209733Y-53383718D01*
X82049162Y-53352657D01*
X81915411Y-53349806D01*
X81796150Y-53372962D01*
X81679047Y-53419922D01*
X81654412Y-53432175D01*
X81528453Y-53514366D01*
X81423831Y-53612122D01*
X81407369Y-53633258D01*
X81370037Y-53701385D01*
X81304974Y-53836722D01*
X81217092Y-54028356D01*
X81111305Y-54265376D01*
X80992525Y-54536870D01*
X80865664Y-54831927D01*
X80830585Y-54914403D01*
X80704931Y-55208931D01*
X80588639Y-55478475D01*
X80486116Y-55713066D01*
X80401764Y-55902733D01*
X80339988Y-56037506D01*
X80305192Y-56107415D01*
X80300448Y-56114486D01*
X80263842Y-56098647D01*
X80199957Y-56020698D01*
X80117535Y-55895153D01*
X80025316Y-55736525D01*
X79932038Y-55559327D01*
X79846444Y-55378074D01*
X79820171Y-55316967D01*
X79604653Y-54696788D01*
X79469001Y-54064420D01*
X79422775Y-53533071D01*
X79522585Y-53533071D01*
X79590591Y-54160880D01*
X79740143Y-54778804D01*
X79796227Y-54947604D01*
X79864238Y-55128406D01*
X79945726Y-55326841D01*
X80032311Y-55524498D01*
X80115613Y-55702970D01*
X80187250Y-55843850D01*
X80238842Y-55928727D01*
X80247572Y-55938984D01*
X80272129Y-55911437D01*
X80322671Y-55817046D01*
X80393622Y-55667534D01*
X80479408Y-55474621D01*
X80569646Y-55261651D01*
X80696115Y-54957623D01*
X80801764Y-54706614D01*
X80897567Y-54483175D01*
X80994496Y-54261853D01*
X81103525Y-54017198D01*
X81169128Y-53871236D01*
X81209928Y-53770483D01*
X81229009Y-53703366D01*
X81229200Y-53699910D01*
X81257251Y-53651298D01*
X81329280Y-53567199D01*
X81391948Y-53503064D01*
X81557301Y-53379679D01*
X81759385Y-53283247D01*
X81961912Y-53229199D01*
X82050845Y-53222871D01*
X82143870Y-53241920D01*
X82312034Y-53297005D01*
X82554081Y-53387655D01*
X82868760Y-53513398D01*
X83254817Y-53673761D01*
X83307596Y-53696034D01*
X83756158Y-53885621D01*
X84104924Y-53398319D01*
X84243261Y-53202895D01*
X84337397Y-53062588D01*
X84393856Y-52964726D01*
X84419164Y-52896638D01*
X84419848Y-52845652D01*
X84407779Y-52810250D01*
X84362357Y-52630309D01*
X84365920Y-52607634D01*
X84446534Y-52607634D01*
X84475977Y-52717136D01*
X84531200Y-52798134D01*
X84632052Y-52862181D01*
X84721700Y-52882800D01*
X84831202Y-52853357D01*
X84912200Y-52798134D01*
X84982865Y-52674928D01*
X84988043Y-52534011D01*
X84926806Y-52409884D01*
X84817742Y-52343229D01*
X84690832Y-52339948D01*
X84570427Y-52390013D01*
X84480881Y-52483399D01*
X84446534Y-52607634D01*
X84365920Y-52607634D01*
X84387727Y-52468892D01*
X84474841Y-52341620D01*
X84614652Y-52264112D01*
X84733563Y-52247800D01*
X84892515Y-52282420D01*
X85011836Y-52373122D01*
X85083613Y-52500173D01*
X85099933Y-52643839D01*
X85052883Y-52784386D01*
X84981883Y-52867053D01*
X84881552Y-52934850D01*
X84791578Y-52967048D01*
X84783646Y-52967467D01*
X84708316Y-53004524D01*
X84683150Y-53062717D01*
X84624163Y-53368234D01*
X84575231Y-53641239D01*
X84537991Y-53871094D01*
X84514084Y-54047159D01*
X84505148Y-54158795D01*
X84508956Y-54193390D01*
X84563178Y-54235438D01*
X84576493Y-54237467D01*
X84636576Y-54253791D01*
X84741856Y-54295052D01*
X84796245Y-54318936D01*
X84905029Y-54367123D01*
X85069758Y-54438639D01*
X85268347Y-54523952D01*
X85478709Y-54613530D01*
X85485243Y-54616299D01*
X85782719Y-54751159D01*
X86008353Y-54876335D01*
X86172835Y-55001036D01*
X86286853Y-55134467D01*
X86361099Y-55285837D01*
X86393100Y-55398235D01*
X86408529Y-55516736D01*
X86400678Y-55650189D01*
X86366264Y-55811007D01*
X86302004Y-56011603D01*
X86204612Y-56264387D01*
X86094467Y-56526905D01*
X85986607Y-56778902D01*
X85874271Y-57043043D01*
X85769156Y-57291718D01*
X85682962Y-57497317D01*
X85665444Y-57539467D01*
X85593288Y-57713360D01*
X85532062Y-57860631D01*
X85489803Y-57961959D01*
X85476095Y-57994550D01*
X85469742Y-58030325D01*
X85498555Y-58042986D01*
X85574301Y-58030997D01*
X85708748Y-57992820D01*
X85860580Y-57944316D01*
X86402864Y-57727133D01*
X86923463Y-57440453D01*
X87405830Y-57095304D01*
X87833419Y-56702715D01*
X87998756Y-56519189D01*
X88152747Y-56336771D01*
X88259814Y-56208160D01*
X88328162Y-56122902D01*
X88365995Y-56070543D01*
X88381516Y-56040630D01*
X88383534Y-56028900D01*
X88408623Y-55978250D01*
X88443501Y-55934134D01*
X88515545Y-55830531D01*
X88606829Y-55664804D01*
X88709200Y-55454940D01*
X88814507Y-55218929D01*
X88914598Y-54974759D01*
X89001321Y-54740418D01*
X89045478Y-54605751D01*
X89172040Y-54148100D01*
X89258492Y-53718490D01*
X89309924Y-53283014D01*
X89331424Y-52807765D01*
X89332654Y-52692300D01*
X89329004Y-52407408D01*
X89312682Y-52144284D01*
X89280428Y-51889352D01*
X89228980Y-51629038D01*
X89155077Y-51349767D01*
X89055458Y-51037966D01*
X88926862Y-50680058D01*
X88766027Y-50262470D01*
X88722442Y-50152300D01*
X88520648Y-49631679D01*
X88355124Y-49173954D01*
X88222992Y-48766950D01*
X88121376Y-48398491D01*
X88047398Y-48056399D01*
X87998181Y-47728501D01*
X87970848Y-47402618D01*
X87962521Y-47066575D01*
X87963617Y-46941072D01*
X87983697Y-46534806D01*
X88028769Y-46080412D01*
X88094433Y-45609163D01*
X88176287Y-45152333D01*
X88269932Y-44741194D01*
X88276946Y-44714435D01*
X88308356Y-44587119D01*
X88325851Y-44498564D01*
X88326814Y-44472303D01*
X88289447Y-44490147D01*
X88196513Y-44547682D01*
X88061596Y-44635748D01*
X87898281Y-44745185D01*
X87720152Y-44866833D01*
X87540794Y-44991532D01*
X87373792Y-45110121D01*
X87282867Y-45176228D01*
X87131990Y-45285473D01*
X86979995Y-45392738D01*
X86884019Y-45458450D01*
X86774873Y-45532604D01*
X86692350Y-45590848D01*
X86672353Y-45605945D01*
X86534144Y-45714902D01*
X86404118Y-45812494D01*
X86260695Y-45914147D01*
X86082292Y-46035289D01*
X85928200Y-46137851D01*
X85758198Y-46249999D01*
X85609818Y-46346169D01*
X85471419Y-46433005D01*
X85331363Y-46517153D01*
X85178011Y-46605257D01*
X84999724Y-46703963D01*
X84784862Y-46819915D01*
X84521785Y-46959758D01*
X84198856Y-47130138D01*
X84086700Y-47189181D01*
X83890140Y-47293977D01*
X83705613Y-47394749D01*
X83554657Y-47479594D01*
X83463125Y-47533865D01*
X83361687Y-47594459D01*
X83292176Y-47629773D01*
X83279354Y-47633467D01*
X83237040Y-47655491D01*
X83146588Y-47712141D01*
X83029078Y-47789284D01*
X82905587Y-47872786D01*
X82797195Y-47948513D01*
X82724981Y-48002332D01*
X82710867Y-48014640D01*
X82670462Y-48048642D01*
X82579305Y-48122458D01*
X82453091Y-48223432D01*
X82372200Y-48287716D01*
X81887407Y-48707561D01*
X81415315Y-49184167D01*
X80970779Y-49699609D01*
X80568654Y-50235960D01*
X80223797Y-50775295D01*
X80055250Y-51083634D01*
X79802457Y-51670657D01*
X79629056Y-52279927D01*
X79535586Y-52903409D01*
X79522585Y-53533071D01*
X79422775Y-53533071D01*
X79413585Y-53427439D01*
X79438777Y-52793422D01*
X79544949Y-52169946D01*
X79647927Y-51803300D01*
X79764200Y-51496182D01*
X79923844Y-51148045D01*
X80114638Y-50781732D01*
X80324360Y-50420083D01*
X80540790Y-50085941D01*
X80644505Y-49940634D01*
X80836326Y-49698490D01*
X81073648Y-49425294D01*
X81342357Y-49135170D01*
X81628341Y-48842246D01*
X81917487Y-48560647D01*
X82195684Y-48304500D01*
X82448817Y-48087931D01*
X82647367Y-47935833D01*
X82862621Y-47788141D01*
X83087820Y-47642544D01*
X83335115Y-47491922D01*
X83616659Y-47329160D01*
X83944601Y-47147140D01*
X84331094Y-46938745D01*
X84531200Y-46832431D01*
X85060635Y-46541697D01*
X85557050Y-46245614D01*
X86048235Y-45926692D01*
X86561984Y-45567436D01*
X86698845Y-45468070D01*
X86979326Y-45265585D01*
X87258318Y-45068763D01*
X87527100Y-44883344D01*
X87776948Y-44715063D01*
X87999140Y-44569659D01*
X88184953Y-44452869D01*
X88325664Y-44370429D01*
X88412551Y-44328078D01*
X88436482Y-44325149D01*
X88440954Y-44377734D01*
G37*
X88440954Y-44377734D02*
X88426838Y-44493792D01*
X88396933Y-44654876D01*
X88364371Y-44800236D01*
X88222637Y-45465142D01*
X88129206Y-46081339D01*
X88081545Y-46667823D01*
X88073955Y-46977300D01*
X88077660Y-47316085D01*
X88094320Y-47626147D01*
X88127103Y-47921463D01*
X88179179Y-48216009D01*
X88253719Y-48523761D01*
X88353890Y-48858696D01*
X88482863Y-49234789D01*
X88643807Y-49666018D01*
X88739629Y-49912721D01*
X88918953Y-50376210D01*
X89066368Y-50774204D01*
X89184611Y-51118461D01*
X89276420Y-51420737D01*
X89344532Y-51692792D01*
X89391687Y-51946382D01*
X89420620Y-52193265D01*
X89434071Y-52445199D01*
X89434776Y-52713942D01*
X89430504Y-52879769D01*
X89400978Y-53370438D01*
X89343356Y-53814889D01*
X89251225Y-54248750D01*
X89118170Y-54707645D01*
X89081163Y-54820301D01*
X88832239Y-55436942D01*
X88516246Y-56004537D01*
X88136963Y-56519347D01*
X87698170Y-56977633D01*
X87203646Y-57375656D01*
X86657172Y-57709677D01*
X86062527Y-57975957D01*
X85799551Y-58066622D01*
X85569033Y-58134239D01*
X85411876Y-58167737D01*
X85324148Y-58167554D01*
X85301917Y-58134127D01*
X85305749Y-58121550D01*
X85327331Y-58070238D01*
X85377653Y-57951349D01*
X85452329Y-57775224D01*
X85546973Y-57552204D01*
X85657197Y-57292629D01*
X85778615Y-57006839D01*
X85804129Y-56946800D01*
X85960434Y-56575655D01*
X86084073Y-56272293D01*
X86177488Y-56027452D01*
X86243121Y-55831870D01*
X86283412Y-55676284D01*
X86300802Y-55551433D01*
X86297733Y-55448053D01*
X86276645Y-55356884D01*
X86244129Y-55277302D01*
X86190953Y-55182413D01*
X86121301Y-55097327D01*
X86024823Y-55015504D01*
X85891169Y-54930403D01*
X85709989Y-54835482D01*
X85470934Y-54724202D01*
X85163652Y-54590021D01*
X85141758Y-54580645D01*
X84880966Y-54468537D01*
X84688179Y-54383426D01*
X84553379Y-54319438D01*
X84466548Y-54270696D01*
X84417667Y-54231326D01*
X84396718Y-54195451D01*
X84393681Y-54157196D01*
X84394944Y-54142658D01*
X84406706Y-54059048D01*
X84430299Y-53911932D01*
X84462446Y-53721113D01*
X84499870Y-53506392D01*
X84505046Y-53477224D01*
X84540307Y-53273711D01*
X84567928Y-53104016D01*
X84585551Y-52983448D01*
X84590820Y-52927319D01*
X84590033Y-52925134D01*
X84562018Y-52957564D01*
X84493642Y-53046896D01*
X84393832Y-53181185D01*
X84271514Y-53348490D01*
X84206944Y-53437687D01*
X84073858Y-53618955D01*
X83955231Y-53774668D01*
X83861011Y-53892203D01*
X83801151Y-53958941D01*
X83787985Y-53969072D01*
X83735389Y-53959200D01*
X83617805Y-53920581D01*
X83448011Y-53857946D01*
X83238786Y-53776031D01*
X83002908Y-53679567D01*
X82975678Y-53668185D01*
X82660660Y-53539280D01*
X82409455Y-53445191D01*
X82209733Y-53383718D01*
X82049162Y-53352657D01*
X81915411Y-53349806D01*
X81796150Y-53372962D01*
X81679047Y-53419922D01*
X81654412Y-53432175D01*
X81528453Y-53514366D01*
X81423831Y-53612122D01*
X81407369Y-53633258D01*
X81370037Y-53701385D01*
X81304974Y-53836722D01*
X81217092Y-54028356D01*
X81111305Y-54265376D01*
X80992525Y-54536870D01*
X80865664Y-54831927D01*
X80830585Y-54914403D01*
X80704931Y-55208931D01*
X80588639Y-55478475D01*
X80486116Y-55713066D01*
X80401764Y-55902733D01*
X80339988Y-56037506D01*
X80305192Y-56107415D01*
X80300448Y-56114486D01*
X80263842Y-56098647D01*
X80199957Y-56020698D01*
X80117535Y-55895153D01*
X80025316Y-55736525D01*
X79932038Y-55559327D01*
X79846444Y-55378074D01*
X79820171Y-55316967D01*
X79604653Y-54696788D01*
X79469001Y-54064420D01*
X79422775Y-53533071D01*
X79522585Y-53533071D01*
X79590591Y-54160880D01*
X79740143Y-54778804D01*
X79796227Y-54947604D01*
X79864238Y-55128406D01*
X79945726Y-55326841D01*
X80032311Y-55524498D01*
X80115613Y-55702970D01*
X80187250Y-55843850D01*
X80238842Y-55928727D01*
X80247572Y-55938984D01*
X80272129Y-55911437D01*
X80322671Y-55817046D01*
X80393622Y-55667534D01*
X80479408Y-55474621D01*
X80569646Y-55261651D01*
X80696115Y-54957623D01*
X80801764Y-54706614D01*
X80897567Y-54483175D01*
X80994496Y-54261853D01*
X81103525Y-54017198D01*
X81169128Y-53871236D01*
X81209928Y-53770483D01*
X81229009Y-53703366D01*
X81229200Y-53699910D01*
X81257251Y-53651298D01*
X81329280Y-53567199D01*
X81391948Y-53503064D01*
X81557301Y-53379679D01*
X81759385Y-53283247D01*
X81961912Y-53229199D01*
X82050845Y-53222871D01*
X82143870Y-53241920D01*
X82312034Y-53297005D01*
X82554081Y-53387655D01*
X82868760Y-53513398D01*
X83254817Y-53673761D01*
X83307596Y-53696034D01*
X83756158Y-53885621D01*
X84104924Y-53398319D01*
X84243261Y-53202895D01*
X84337397Y-53062588D01*
X84393856Y-52964726D01*
X84419164Y-52896638D01*
X84419848Y-52845652D01*
X84407779Y-52810250D01*
X84362357Y-52630309D01*
X84365920Y-52607634D01*
X84446534Y-52607634D01*
X84475977Y-52717136D01*
X84531200Y-52798134D01*
X84632052Y-52862181D01*
X84721700Y-52882800D01*
X84831202Y-52853357D01*
X84912200Y-52798134D01*
X84982865Y-52674928D01*
X84988043Y-52534011D01*
X84926806Y-52409884D01*
X84817742Y-52343229D01*
X84690832Y-52339948D01*
X84570427Y-52390013D01*
X84480881Y-52483399D01*
X84446534Y-52607634D01*
X84365920Y-52607634D01*
X84387727Y-52468892D01*
X84474841Y-52341620D01*
X84614652Y-52264112D01*
X84733563Y-52247800D01*
X84892515Y-52282420D01*
X85011836Y-52373122D01*
X85083613Y-52500173D01*
X85099933Y-52643839D01*
X85052883Y-52784386D01*
X84981883Y-52867053D01*
X84881552Y-52934850D01*
X84791578Y-52967048D01*
X84783646Y-52967467D01*
X84708316Y-53004524D01*
X84683150Y-53062717D01*
X84624163Y-53368234D01*
X84575231Y-53641239D01*
X84537991Y-53871094D01*
X84514084Y-54047159D01*
X84505148Y-54158795D01*
X84508956Y-54193390D01*
X84563178Y-54235438D01*
X84576493Y-54237467D01*
X84636576Y-54253791D01*
X84741856Y-54295052D01*
X84796245Y-54318936D01*
X84905029Y-54367123D01*
X85069758Y-54438639D01*
X85268347Y-54523952D01*
X85478709Y-54613530D01*
X85485243Y-54616299D01*
X85782719Y-54751159D01*
X86008353Y-54876335D01*
X86172835Y-55001036D01*
X86286853Y-55134467D01*
X86361099Y-55285837D01*
X86393100Y-55398235D01*
X86408529Y-55516736D01*
X86400678Y-55650189D01*
X86366264Y-55811007D01*
X86302004Y-56011603D01*
X86204612Y-56264387D01*
X86094467Y-56526905D01*
X85986607Y-56778902D01*
X85874271Y-57043043D01*
X85769156Y-57291718D01*
X85682962Y-57497317D01*
X85665444Y-57539467D01*
X85593288Y-57713360D01*
X85532062Y-57860631D01*
X85489803Y-57961959D01*
X85476095Y-57994550D01*
X85469742Y-58030325D01*
X85498555Y-58042986D01*
X85574301Y-58030997D01*
X85708748Y-57992820D01*
X85860580Y-57944316D01*
X86402864Y-57727133D01*
X86923463Y-57440453D01*
X87405830Y-57095304D01*
X87833419Y-56702715D01*
X87998756Y-56519189D01*
X88152747Y-56336771D01*
X88259814Y-56208160D01*
X88328162Y-56122902D01*
X88365995Y-56070543D01*
X88381516Y-56040630D01*
X88383534Y-56028900D01*
X88408623Y-55978250D01*
X88443501Y-55934134D01*
X88515545Y-55830531D01*
X88606829Y-55664804D01*
X88709200Y-55454940D01*
X88814507Y-55218929D01*
X88914598Y-54974759D01*
X89001321Y-54740418D01*
X89045478Y-54605751D01*
X89172040Y-54148100D01*
X89258492Y-53718490D01*
X89309924Y-53283014D01*
X89331424Y-52807765D01*
X89332654Y-52692300D01*
X89329004Y-52407408D01*
X89312682Y-52144284D01*
X89280428Y-51889352D01*
X89228980Y-51629038D01*
X89155077Y-51349767D01*
X89055458Y-51037966D01*
X88926862Y-50680058D01*
X88766027Y-50262470D01*
X88722442Y-50152300D01*
X88520648Y-49631679D01*
X88355124Y-49173954D01*
X88222992Y-48766950D01*
X88121376Y-48398491D01*
X88047398Y-48056399D01*
X87998181Y-47728501D01*
X87970848Y-47402618D01*
X87962521Y-47066575D01*
X87963617Y-46941072D01*
X87983697Y-46534806D01*
X88028769Y-46080412D01*
X88094433Y-45609163D01*
X88176287Y-45152333D01*
X88269932Y-44741194D01*
X88276946Y-44714435D01*
X88308356Y-44587119D01*
X88325851Y-44498564D01*
X88326814Y-44472303D01*
X88289447Y-44490147D01*
X88196513Y-44547682D01*
X88061596Y-44635748D01*
X87898281Y-44745185D01*
X87720152Y-44866833D01*
X87540794Y-44991532D01*
X87373792Y-45110121D01*
X87282867Y-45176228D01*
X87131990Y-45285473D01*
X86979995Y-45392738D01*
X86884019Y-45458450D01*
X86774873Y-45532604D01*
X86692350Y-45590848D01*
X86672353Y-45605945D01*
X86534144Y-45714902D01*
X86404118Y-45812494D01*
X86260695Y-45914147D01*
X86082292Y-46035289D01*
X85928200Y-46137851D01*
X85758198Y-46249999D01*
X85609818Y-46346169D01*
X85471419Y-46433005D01*
X85331363Y-46517153D01*
X85178011Y-46605257D01*
X84999724Y-46703963D01*
X84784862Y-46819915D01*
X84521785Y-46959758D01*
X84198856Y-47130138D01*
X84086700Y-47189181D01*
X83890140Y-47293977D01*
X83705613Y-47394749D01*
X83554657Y-47479594D01*
X83463125Y-47533865D01*
X83361687Y-47594459D01*
X83292176Y-47629773D01*
X83279354Y-47633467D01*
X83237040Y-47655491D01*
X83146588Y-47712141D01*
X83029078Y-47789284D01*
X82905587Y-47872786D01*
X82797195Y-47948513D01*
X82724981Y-48002332D01*
X82710867Y-48014640D01*
X82670462Y-48048642D01*
X82579305Y-48122458D01*
X82453091Y-48223432D01*
X82372200Y-48287716D01*
X81887407Y-48707561D01*
X81415315Y-49184167D01*
X80970779Y-49699609D01*
X80568654Y-50235960D01*
X80223797Y-50775295D01*
X80055250Y-51083634D01*
X79802457Y-51670657D01*
X79629056Y-52279927D01*
X79535586Y-52903409D01*
X79522585Y-53533071D01*
X79422775Y-53533071D01*
X79413585Y-53427439D01*
X79438777Y-52793422D01*
X79544949Y-52169946D01*
X79647927Y-51803300D01*
X79764200Y-51496182D01*
X79923844Y-51148045D01*
X80114638Y-50781732D01*
X80324360Y-50420083D01*
X80540790Y-50085941D01*
X80644505Y-49940634D01*
X80836326Y-49698490D01*
X81073648Y-49425294D01*
X81342357Y-49135170D01*
X81628341Y-48842246D01*
X81917487Y-48560647D01*
X82195684Y-48304500D01*
X82448817Y-48087931D01*
X82647367Y-47935833D01*
X82862621Y-47788141D01*
X83087820Y-47642544D01*
X83335115Y-47491922D01*
X83616659Y-47329160D01*
X83944601Y-47147140D01*
X84331094Y-46938745D01*
X84531200Y-46832431D01*
X85060635Y-46541697D01*
X85557050Y-46245614D01*
X86048235Y-45926692D01*
X86561984Y-45567436D01*
X86698845Y-45468070D01*
X86979326Y-45265585D01*
X87258318Y-45068763D01*
X87527100Y-44883344D01*
X87776948Y-44715063D01*
X87999140Y-44569659D01*
X88184953Y-44452869D01*
X88325664Y-44370429D01*
X88412551Y-44328078D01*
X88436482Y-44325149D01*
X88440954Y-44377734D01*
D13*
X316085000Y-205190000D02*
G75*
G03X316085000Y-205190000I-200000J0D01*
G01*
D14*
X313150000Y-206240000D02*
X321850000Y-206240000D01*
X313150000Y-210390000D02*
X313150000Y-206240000D01*
X313150000Y-215840000D02*
X313150000Y-213790000D01*
X321850000Y-215840000D02*
X313150000Y-215840000D01*
X321850000Y-213790000D02*
X321850000Y-215840000D01*
X321850000Y-206240000D02*
X321850000Y-210390000D01*
D13*
X303385000Y-205190000D02*
G75*
G03X303385000Y-205190000I-200000J0D01*
G01*
D14*
X300450000Y-206240000D02*
X309150000Y-206240000D01*
X300450000Y-210390000D02*
X300450000Y-206240000D01*
X300450000Y-215840000D02*
X300450000Y-213790000D01*
X309150000Y-215840000D02*
X300450000Y-215840000D01*
X309150000Y-213790000D02*
X309150000Y-215840000D01*
X309150000Y-206240000D02*
X309150000Y-210390000D01*
D10*
X365788200Y-192651800D02*
X365788200Y-153651800D01*
X296288200Y-192651800D02*
X365788200Y-192651800D01*
X296288200Y-153651800D02*
X296288200Y-192651800D01*
X365788200Y-153651800D02*
X296288200Y-153651800D01*
D15*
X364162200Y-143727800D02*
G75*
G03X364162200Y-143727800I-200000J0D01*
G01*
D14*
X361772200Y-120827800D02*
X361772200Y-146227800D01*
X310972200Y-120827800D02*
X361772200Y-120827800D01*
X310972200Y-146227800D02*
X310972200Y-120827800D01*
X361772200Y-146227800D02*
X310972200Y-146227800D01*
D10*
X230036500Y-135826500D02*
X229266500Y-135826500D01*
X221956500Y-135826500D02*
X222726500Y-135826500D01*
X229266500Y-134456500D02*
X222726500Y-134456500D01*
X229266500Y-137196500D02*
X229266500Y-134456500D01*
X222726500Y-137196500D02*
X229266500Y-137196500D01*
X222726500Y-134456500D02*
X222726500Y-137196500D01*
D16*
X224908500Y-130560500D02*
G75*
G03X224908500Y-130560500I-100000J0D01*
G01*
D14*
X224408500Y-128460500D02*
G75*
G03X224408500Y-128460500I-4000000J0D01*
G01*
D13*
X214270500Y-112966500D02*
G75*
G03X214270500Y-112966500I-100000J0D01*
G01*
D17*
X240520500Y-87566500D02*
X213090500Y-87566500D01*
X240520500Y-100366500D02*
X240520500Y-87566500D01*
X235740500Y-100366500D02*
X240520500Y-100366500D01*
X235740500Y-120076500D02*
X235740500Y-100366500D01*
X215450500Y-120076500D02*
X235740500Y-120076500D01*
X215450500Y-105166500D02*
X215450500Y-120076500D01*
X213090500Y-105166500D02*
X215450500Y-105166500D01*
X213090500Y-87566500D02*
X213090500Y-105166500D01*
D13*
X112670500Y-112966500D02*
G75*
G03X112670500Y-112966500I-100000J0D01*
G01*
D17*
X138920500Y-87566500D02*
X111490500Y-87566500D01*
X138920500Y-100366500D02*
X138920500Y-87566500D01*
X134140500Y-100366500D02*
X138920500Y-100366500D01*
X134140500Y-120076500D02*
X134140500Y-100366500D01*
X113850500Y-120076500D02*
X134140500Y-120076500D01*
X113850500Y-105166500D02*
X113850500Y-120076500D01*
X111490500Y-105166500D02*
X113850500Y-105166500D01*
X111490500Y-87566500D02*
X111490500Y-105166500D01*
D15*
X110300000Y-56270000D02*
G75*
G03X110300000Y-56270000I-200000J0D01*
G01*
D14*
X142560000Y-41590000D02*
X111440000Y-41590000D01*
X142560000Y-72710000D02*
X142560000Y-41590000D01*
X111440000Y-72710000D02*
X142560000Y-72710000D01*
X111440000Y-41590000D02*
X111440000Y-72710000D01*
D10*
X153238200Y-142822800D02*
X153238200Y-143592800D01*
X153238200Y-150902800D02*
X153238200Y-150132800D01*
X151868200Y-143592800D02*
X151868200Y-150132800D01*
X154608200Y-143592800D02*
X151868200Y-143592800D01*
X154608200Y-150132800D02*
X154608200Y-143592800D01*
X151868200Y-150132800D02*
X154608200Y-150132800D01*
D18*
X215128200Y-156155800D02*
X214728200Y-156155800D01*
X215128200Y-156555800D02*
X215128200Y-156155800D01*
X209148200Y-155965800D02*
X208148200Y-156965800D01*
X209448200Y-155965800D02*
X209148200Y-155965800D01*
X208148200Y-156965800D02*
X207778200Y-156965800D01*
X207768200Y-156965800D02*
X207518200Y-156965800D01*
X215048200Y-177065800D02*
X215048200Y-176865800D01*
X214748200Y-177065800D02*
X215048200Y-177065800D01*
X208148200Y-177065800D02*
X208448200Y-177065800D01*
X208148200Y-176865800D02*
X208148200Y-177065800D01*
D13*
X348062200Y-77670000D02*
G75*
G03X348062200Y-77670000I-150000J0D01*
G01*
D14*
X348612200Y-61270000D02*
X348612200Y-79670000D01*
X348612200Y-87570000D02*
X348612200Y-79670000D01*
X359212200Y-95470000D02*
G75*
G02X348612200Y-87570000I341185J11519184D01*
G01*
X367612200Y-95470000D02*
X359212200Y-95470000D01*
X348612200Y-53270000D02*
X348612200Y-61270000D01*
X359212199Y-45470000D02*
G75*
G03X348612200Y-53270000I269778J-11469184D01*
G01*
X367612200Y-45470000D02*
X359212200Y-45470000D01*
X370612200Y-85370000D02*
X367612200Y-85370000D01*
X370612200Y-55570000D02*
X367612200Y-55570000D01*
X370612200Y-55570000D02*
X370612200Y-85370000D01*
X367612200Y-85370000D02*
X367612200Y-95470000D01*
X367612200Y-55570000D02*
X367612200Y-85370000D01*
X367612200Y-45470000D02*
X367612200Y-55570000D01*
D18*
X274800000Y-201305000D02*
X275300000Y-201305000D01*
X274800000Y-201305000D02*
X274800000Y-201805000D01*
X284000000Y-201305000D02*
X283500000Y-201305000D01*
X284000000Y-201305000D02*
X284000000Y-201805000D01*
X280600000Y-206905000D02*
X278200000Y-206905000D01*
X284000000Y-215905000D02*
X284000000Y-215405000D01*
X284000000Y-215905000D02*
X283500000Y-215905000D01*
X274800000Y-215905000D02*
X275300000Y-215905000D01*
X274800000Y-215905000D02*
X274800000Y-215405000D01*
X284000000Y-208605000D02*
X284000000Y-209605000D01*
X274800000Y-208605000D02*
X274800000Y-209605000D01*
X249400000Y-201305000D02*
X249900000Y-201305000D01*
X249400000Y-201305000D02*
X249400000Y-201805000D01*
X258600000Y-201305000D02*
X258100000Y-201305000D01*
X258600000Y-201305000D02*
X258600000Y-201805000D01*
X255200000Y-206905000D02*
X252800000Y-206905000D01*
X258600000Y-215905000D02*
X258600000Y-215405000D01*
X258600000Y-215905000D02*
X258100000Y-215905000D01*
X249400000Y-215905000D02*
X249900000Y-215905000D01*
X249400000Y-215905000D02*
X249400000Y-215405000D01*
X258600000Y-208605000D02*
X258600000Y-209605000D01*
X249400000Y-208605000D02*
X249400000Y-209605000D01*
X236700000Y-201305000D02*
X237200000Y-201305000D01*
X236700000Y-201305000D02*
X236700000Y-201805000D01*
X245900000Y-201305000D02*
X245400000Y-201305000D01*
X245900000Y-201305000D02*
X245900000Y-201805000D01*
X242500000Y-206905000D02*
X240100000Y-206905000D01*
X245900000Y-215905000D02*
X245900000Y-215405000D01*
X245900000Y-215905000D02*
X245400000Y-215905000D01*
X236700000Y-215905000D02*
X237200000Y-215905000D01*
X236700000Y-215905000D02*
X236700000Y-215405000D01*
X245900000Y-208605000D02*
X245900000Y-209605000D01*
X236700000Y-208605000D02*
X236700000Y-209605000D01*
X224000000Y-201305000D02*
X224500000Y-201305000D01*
X224000000Y-201305000D02*
X224000000Y-201805000D01*
X233200000Y-201305000D02*
X232700000Y-201305000D01*
X233200000Y-201305000D02*
X233200000Y-201805000D01*
X229800000Y-206905000D02*
X227400000Y-206905000D01*
X233200000Y-215905000D02*
X233200000Y-215405000D01*
X233200000Y-215905000D02*
X232700000Y-215905000D01*
X224000000Y-215905000D02*
X224500000Y-215905000D01*
X224000000Y-215905000D02*
X224000000Y-215405000D01*
X233200000Y-208605000D02*
X233200000Y-209605000D01*
X224000000Y-208605000D02*
X224000000Y-209605000D01*
X198600000Y-201305000D02*
X199100000Y-201305000D01*
X198600000Y-201305000D02*
X198600000Y-201805000D01*
X207800000Y-201305000D02*
X207300000Y-201305000D01*
X207800000Y-201305000D02*
X207800000Y-201805000D01*
X204400000Y-206905000D02*
X202000000Y-206905000D01*
X207800000Y-215905000D02*
X207800000Y-215405000D01*
X207800000Y-215905000D02*
X207300000Y-215905000D01*
X198600000Y-215905000D02*
X199100000Y-215905000D01*
X198600000Y-215905000D02*
X198600000Y-215405000D01*
X207800000Y-208605000D02*
X207800000Y-209605000D01*
X198600000Y-208605000D02*
X198600000Y-209605000D01*
X185900000Y-201305000D02*
X186400000Y-201305000D01*
X185900000Y-201305000D02*
X185900000Y-201805000D01*
X195100000Y-201305000D02*
X194600000Y-201305000D01*
X195100000Y-201305000D02*
X195100000Y-201805000D01*
X191700000Y-206905000D02*
X189300000Y-206905000D01*
X195100000Y-215905000D02*
X195100000Y-215405000D01*
X195100000Y-215905000D02*
X194600000Y-215905000D01*
X185900000Y-215905000D02*
X186400000Y-215905000D01*
X185900000Y-215905000D02*
X185900000Y-215405000D01*
X195100000Y-208605000D02*
X195100000Y-209605000D01*
X185900000Y-208605000D02*
X185900000Y-209605000D01*
D13*
X162578210Y-211066800D02*
X162578210Y-164446800D01*
X156598190Y-211066800D02*
X162578210Y-211066800D01*
X156598190Y-164446800D02*
X156598190Y-211066800D01*
X162578210Y-164446800D02*
X156598190Y-164446800D01*
D15*
X161100000Y-56270000D02*
G75*
G03X161100000Y-56270000I-200000J0D01*
G01*
D14*
X193360000Y-41590000D02*
X162240000Y-41590000D01*
X193360000Y-72710000D02*
X193360000Y-41590000D01*
X162240000Y-72710000D02*
X193360000Y-72710000D01*
X162240000Y-41590000D02*
X162240000Y-72710000D01*
D10*
X279706200Y-135813800D02*
X278936200Y-135813800D01*
X271626200Y-135813800D02*
X272396200Y-135813800D01*
X278936200Y-134443800D02*
X272396200Y-134443800D01*
X278936200Y-137183800D02*
X278936200Y-134443800D01*
X272396200Y-137183800D02*
X278936200Y-137183800D01*
X272396200Y-134443800D02*
X272396200Y-137183800D01*
D18*
X234096200Y-176939800D02*
X234496200Y-176939800D01*
X234096200Y-176539800D02*
X234096200Y-176939800D01*
X240076200Y-177129800D02*
X241076200Y-176129800D01*
X239776200Y-177129800D02*
X240076200Y-177129800D01*
X241076200Y-176129800D02*
X241446200Y-176129800D01*
X241456200Y-176129800D02*
X241706200Y-176129800D01*
X234176200Y-156029800D02*
X234176200Y-156229800D01*
X234476200Y-156029800D02*
X234176200Y-156029800D01*
X241076200Y-156029800D02*
X240776200Y-156029800D01*
X241076200Y-156229800D02*
X241076200Y-156029800D01*
D13*
X265070500Y-112966500D02*
G75*
G03X265070500Y-112966500I-100000J0D01*
G01*
D17*
X291320500Y-87566500D02*
X263890500Y-87566500D01*
X291320500Y-100366500D02*
X291320500Y-87566500D01*
X286540500Y-100366500D02*
X291320500Y-100366500D01*
X286540500Y-120076500D02*
X286540500Y-100366500D01*
X266250500Y-120076500D02*
X286540500Y-120076500D01*
X266250500Y-105166500D02*
X266250500Y-120076500D01*
X263890500Y-105166500D02*
X266250500Y-105166500D01*
X263890500Y-87566500D02*
X263890500Y-105166500D01*
D15*
X262700000Y-56270000D02*
G75*
G03X262700000Y-56270000I-200000J0D01*
G01*
D14*
X294960000Y-41590000D02*
X263840000Y-41590000D01*
X294960000Y-72710000D02*
X294960000Y-41590000D01*
X263840000Y-72710000D02*
X294960000Y-72710000D01*
X263840000Y-41590000D02*
X263840000Y-72710000D01*
D16*
X274832200Y-130547800D02*
G75*
G03X274832200Y-130547800I-100000J0D01*
G01*
D14*
X274332200Y-128447800D02*
G75*
G03X274332200Y-128447800I-4000000J0D01*
G01*
D10*
X260226200Y-119973800D02*
X263166200Y-119973800D01*
X260226200Y-119733800D02*
X263166200Y-119733800D01*
X260226200Y-119853800D02*
X263166200Y-119853800D01*
X261696200Y-114293800D02*
X261696200Y-115313800D01*
X261696200Y-121773800D02*
X261696200Y-120753800D01*
X260226200Y-115313800D02*
X260226200Y-120753800D01*
X263166200Y-115313800D02*
X260226200Y-115313800D01*
X263166200Y-120753800D02*
X263166200Y-115313800D01*
X260226200Y-120753800D02*
X263166200Y-120753800D01*
X177712500Y-135826500D02*
X176942500Y-135826500D01*
X169632500Y-135826500D02*
X170402500Y-135826500D01*
X176942500Y-134456500D02*
X170402500Y-134456500D01*
X176942500Y-137196500D02*
X176942500Y-134456500D01*
X170402500Y-137196500D02*
X176942500Y-137196500D01*
X170402500Y-134456500D02*
X170402500Y-137196500D01*
D16*
X122546500Y-130560500D02*
G75*
G03X122546500Y-130560500I-100000J0D01*
G01*
D14*
X122046500Y-128460500D02*
G75*
G03X122046500Y-128460500I-4000000J0D01*
G01*
D10*
X126912500Y-135826500D02*
X126142500Y-135826500D01*
X118832500Y-135826500D02*
X119602500Y-135826500D01*
X126142500Y-134456500D02*
X119602500Y-134456500D01*
X126142500Y-137196500D02*
X126142500Y-134456500D01*
X119602500Y-137196500D02*
X126142500Y-137196500D01*
X119602500Y-134456500D02*
X119602500Y-137196500D01*
D16*
X172838500Y-130560500D02*
G75*
G03X172838500Y-130560500I-100000J0D01*
G01*
D14*
X172338500Y-128460500D02*
G75*
G03X172338500Y-128460500I-4000000J0D01*
G01*
D18*
X283646000Y-196193000D02*
X283296000Y-196193000D01*
X283646000Y-195818000D02*
X283646000Y-196193000D01*
X275896000Y-196193000D02*
X275896000Y-195768000D01*
X276296000Y-196193000D02*
X275896000Y-196193000D01*
X275921000Y-180943000D02*
X276196000Y-180943000D01*
X275921000Y-181268000D02*
X275921000Y-180943000D01*
X283671000Y-180943000D02*
X283421000Y-180943000D01*
X283671000Y-181268000D02*
X283671000Y-180943000D01*
D10*
X143205200Y-142822800D02*
X143205200Y-143592800D01*
X143205200Y-150902800D02*
X143205200Y-150132800D01*
X141835200Y-143592800D02*
X141835200Y-150132800D01*
X144575200Y-143592800D02*
X141835200Y-143592800D01*
X144575200Y-150132800D02*
X144575200Y-143592800D01*
X141835200Y-150132800D02*
X144575200Y-150132800D01*
D13*
X163470500Y-112966500D02*
G75*
G03X163470500Y-112966500I-100000J0D01*
G01*
D17*
X189720500Y-87566500D02*
X162290500Y-87566500D01*
X189720500Y-100366500D02*
X189720500Y-87566500D01*
X184940500Y-100366500D02*
X189720500Y-100366500D01*
X184940500Y-120076500D02*
X184940500Y-100366500D01*
X164650500Y-120076500D02*
X184940500Y-120076500D01*
X164650500Y-105166500D02*
X164650500Y-120076500D01*
X162290500Y-105166500D02*
X164650500Y-105166500D01*
X162290500Y-87566500D02*
X162290500Y-105166500D01*
D15*
X211900000Y-56270000D02*
G75*
G03X211900000Y-56270000I-200000J0D01*
G01*
D14*
X244160000Y-41590000D02*
X213040000Y-41590000D01*
X244160000Y-72710000D02*
X244160000Y-41590000D01*
X213040000Y-72710000D02*
X244160000Y-72710000D01*
X213040000Y-41590000D02*
X213040000Y-72710000D01*
D10*
X209032500Y-119986500D02*
X211972500Y-119986500D01*
X209032500Y-119746500D02*
X211972500Y-119746500D01*
X209032500Y-119866500D02*
X211972500Y-119866500D01*
X210502500Y-114306500D02*
X210502500Y-115326500D01*
X210502500Y-121786500D02*
X210502500Y-120766500D01*
X209032500Y-115326500D02*
X209032500Y-120766500D01*
X211972500Y-115326500D02*
X209032500Y-115326500D01*
X211972500Y-120766500D02*
X211972500Y-115326500D01*
X209032500Y-120766500D02*
X211972500Y-120766500D01*
X158740500Y-119986500D02*
X161680500Y-119986500D01*
X158740500Y-119746500D02*
X161680500Y-119746500D01*
X158740500Y-119866500D02*
X161680500Y-119866500D01*
X160210500Y-114306500D02*
X160210500Y-115326500D01*
X160210500Y-121786500D02*
X160210500Y-120766500D01*
X158740500Y-115326500D02*
X158740500Y-120766500D01*
X161680500Y-115326500D02*
X158740500Y-115326500D01*
X161680500Y-120766500D02*
X161680500Y-115326500D01*
X158740500Y-120766500D02*
X161680500Y-120766500D01*
X107940500Y-119732500D02*
X110880500Y-119732500D01*
X107940500Y-119492500D02*
X110880500Y-119492500D01*
X107940500Y-119612500D02*
X110880500Y-119612500D01*
X109410500Y-114052500D02*
X109410500Y-115072500D01*
X109410500Y-121532500D02*
X109410500Y-120512500D01*
X107940500Y-115072500D02*
X107940500Y-120512500D01*
X110880500Y-115072500D02*
X107940500Y-115072500D01*
X110880500Y-120512500D02*
X110880500Y-115072500D01*
X107940500Y-120512500D02*
X110880500Y-120512500D01*
D11*
X355424009Y-206120561D02*
X355566866Y-206168180D01*
X355804961Y-206168180D01*
X355900200Y-206120561D01*
X355947819Y-206072942D01*
X355995438Y-205977704D01*
X355995438Y-205882466D01*
X355947819Y-205787228D01*
X355900200Y-205739609D01*
X355804961Y-205691990D01*
X355614485Y-205644371D01*
X355519247Y-205596752D01*
X355471628Y-205549133D01*
X355424009Y-205453895D01*
X355424009Y-205358657D01*
X355471628Y-205263419D01*
X355519247Y-205215800D01*
X355614485Y-205168180D01*
X355852580Y-205168180D01*
X355995438Y-205215800D01*
X356852580Y-206120561D02*
X356757342Y-206168180D01*
X356566866Y-206168180D01*
X356471628Y-206120561D01*
X356424009Y-206072942D01*
X356376390Y-205977704D01*
X356376390Y-205691990D01*
X356424009Y-205596752D01*
X356471628Y-205549133D01*
X356566866Y-205501514D01*
X356757342Y-205501514D01*
X356852580Y-205549133D01*
X357281152Y-206168180D02*
X357281152Y-205501514D01*
X357281152Y-205691990D02*
X357328771Y-205596752D01*
X357376390Y-205549133D01*
X357471628Y-205501514D01*
X357566866Y-205501514D01*
X358281152Y-206120561D02*
X358185914Y-206168180D01*
X357995438Y-206168180D01*
X357900200Y-206120561D01*
X357852580Y-206025323D01*
X357852580Y-205644371D01*
X357900200Y-205549133D01*
X357995438Y-205501514D01*
X358185914Y-205501514D01*
X358281152Y-205549133D01*
X358328771Y-205644371D01*
X358328771Y-205739609D01*
X357852580Y-205834847D01*
X358662104Y-205501514D02*
X358852580Y-206168180D01*
X359043057Y-205691990D01*
X359233533Y-206168180D01*
X359424009Y-205501514D01*
X314022009Y-102996561D02*
X314164866Y-103044180D01*
X314402961Y-103044180D01*
X314498200Y-102996561D01*
X314545819Y-102948942D01*
X314593438Y-102853704D01*
X314593438Y-102758466D01*
X314545819Y-102663228D01*
X314498200Y-102615609D01*
X314402961Y-102567990D01*
X314212485Y-102520371D01*
X314117247Y-102472752D01*
X314069628Y-102425133D01*
X314022009Y-102329895D01*
X314022009Y-102234657D01*
X314069628Y-102139419D01*
X314117247Y-102091800D01*
X314212485Y-102044180D01*
X314450580Y-102044180D01*
X314593438Y-102091800D01*
X315450580Y-102996561D02*
X315355342Y-103044180D01*
X315164866Y-103044180D01*
X315069628Y-102996561D01*
X315022009Y-102948942D01*
X314974390Y-102853704D01*
X314974390Y-102567990D01*
X315022009Y-102472752D01*
X315069628Y-102425133D01*
X315164866Y-102377514D01*
X315355342Y-102377514D01*
X315450580Y-102425133D01*
X315879152Y-103044180D02*
X315879152Y-102377514D01*
X315879152Y-102567990D02*
X315926771Y-102472752D01*
X315974390Y-102425133D01*
X316069628Y-102377514D01*
X316164866Y-102377514D01*
X316879152Y-102996561D02*
X316783914Y-103044180D01*
X316593438Y-103044180D01*
X316498200Y-102996561D01*
X316450580Y-102901323D01*
X316450580Y-102520371D01*
X316498200Y-102425133D01*
X316593438Y-102377514D01*
X316783914Y-102377514D01*
X316879152Y-102425133D01*
X316926771Y-102520371D01*
X316926771Y-102615609D01*
X316450580Y-102710847D01*
X317260104Y-102377514D02*
X317450580Y-103044180D01*
X317641057Y-102567990D01*
X317831533Y-103044180D01*
X318022009Y-102377514D01*
X78056009Y-153796561D02*
X78198866Y-153844180D01*
X78436961Y-153844180D01*
X78532200Y-153796561D01*
X78579819Y-153748942D01*
X78627438Y-153653704D01*
X78627438Y-153558466D01*
X78579819Y-153463228D01*
X78532200Y-153415609D01*
X78436961Y-153367990D01*
X78246485Y-153320371D01*
X78151247Y-153272752D01*
X78103628Y-153225133D01*
X78056009Y-153129895D01*
X78056009Y-153034657D01*
X78103628Y-152939419D01*
X78151247Y-152891800D01*
X78246485Y-152844180D01*
X78484580Y-152844180D01*
X78627438Y-152891800D01*
X79484580Y-153796561D02*
X79389342Y-153844180D01*
X79198866Y-153844180D01*
X79103628Y-153796561D01*
X79056009Y-153748942D01*
X79008390Y-153653704D01*
X79008390Y-153367990D01*
X79056009Y-153272752D01*
X79103628Y-153225133D01*
X79198866Y-153177514D01*
X79389342Y-153177514D01*
X79484580Y-153225133D01*
X79913152Y-153844180D02*
X79913152Y-153177514D01*
X79913152Y-153367990D02*
X79960771Y-153272752D01*
X80008390Y-153225133D01*
X80103628Y-153177514D01*
X80198866Y-153177514D01*
X80913152Y-153796561D02*
X80817914Y-153844180D01*
X80627438Y-153844180D01*
X80532200Y-153796561D01*
X80484580Y-153701323D01*
X80484580Y-153320371D01*
X80532200Y-153225133D01*
X80627438Y-153177514D01*
X80817914Y-153177514D01*
X80913152Y-153225133D01*
X80960771Y-153320371D01*
X80960771Y-153415609D01*
X80484580Y-153510847D01*
X81294104Y-153177514D02*
X81484580Y-153844180D01*
X81675057Y-153367990D01*
X81865533Y-153844180D01*
X82056009Y-153177514D01*
X95582009Y-75056561D02*
X95724866Y-75104180D01*
X95962961Y-75104180D01*
X96058200Y-75056561D01*
X96105819Y-75008942D01*
X96153438Y-74913704D01*
X96153438Y-74818466D01*
X96105819Y-74723228D01*
X96058200Y-74675609D01*
X95962961Y-74627990D01*
X95772485Y-74580371D01*
X95677247Y-74532752D01*
X95629628Y-74485133D01*
X95582009Y-74389895D01*
X95582009Y-74294657D01*
X95629628Y-74199419D01*
X95677247Y-74151800D01*
X95772485Y-74104180D01*
X96010580Y-74104180D01*
X96153438Y-74151800D01*
X97010580Y-75056561D02*
X96915342Y-75104180D01*
X96724866Y-75104180D01*
X96629628Y-75056561D01*
X96582009Y-75008942D01*
X96534390Y-74913704D01*
X96534390Y-74627990D01*
X96582009Y-74532752D01*
X96629628Y-74485133D01*
X96724866Y-74437514D01*
X96915342Y-74437514D01*
X97010580Y-74485133D01*
X97439152Y-75104180D02*
X97439152Y-74437514D01*
X97439152Y-74627990D02*
X97486771Y-74532752D01*
X97534390Y-74485133D01*
X97629628Y-74437514D01*
X97724866Y-74437514D01*
X98439152Y-75056561D02*
X98343914Y-75104180D01*
X98153438Y-75104180D01*
X98058200Y-75056561D01*
X98010580Y-74961323D01*
X98010580Y-74580371D01*
X98058200Y-74485133D01*
X98153438Y-74437514D01*
X98343914Y-74437514D01*
X98439152Y-74485133D01*
X98486771Y-74580371D01*
X98486771Y-74675609D01*
X98010580Y-74770847D01*
X98820104Y-74437514D02*
X99010580Y-75104180D01*
X99201057Y-74627990D01*
X99391533Y-75104180D01*
X99582009Y-74437514D01*
D19*
X323262594Y-210905572D02*
X324263506Y-210905572D01*
X324463688Y-210972299D01*
X324597143Y-211105754D01*
X324663870Y-211305936D01*
X324663870Y-211439391D01*
X323262594Y-210371752D02*
X323262594Y-209504296D01*
X323796414Y-209971388D01*
X323796414Y-209771205D01*
X323863141Y-209637750D01*
X323929868Y-209571023D01*
X324063323Y-209504296D01*
X324396960Y-209504296D01*
X324530415Y-209571023D01*
X324597143Y-209637750D01*
X324663870Y-209771205D01*
X324663870Y-210171570D01*
X324597143Y-210305025D01*
X324530415Y-210371752D01*
X310562594Y-210905572D02*
X311563506Y-210905572D01*
X311763688Y-210972299D01*
X311897143Y-211105754D01*
X311963870Y-211305936D01*
X311963870Y-211439391D01*
X310696049Y-210305025D02*
X310629322Y-210238297D01*
X310562594Y-210104842D01*
X310562594Y-209771205D01*
X310629322Y-209637750D01*
X310696049Y-209571023D01*
X310829504Y-209504296D01*
X310962959Y-209504296D01*
X311163141Y-209571023D01*
X311963870Y-210371752D01*
X311963870Y-209504296D01*
D11*
X362526295Y-193604180D02*
X362526295Y-194413704D01*
X362573914Y-194508942D01*
X362621533Y-194556561D01*
X362716771Y-194604180D01*
X362907247Y-194604180D01*
X363002485Y-194556561D01*
X363050104Y-194508942D01*
X363097723Y-194413704D01*
X363097723Y-193604180D01*
X364097723Y-194604180D02*
X363526295Y-194604180D01*
X363812009Y-194604180D02*
X363812009Y-193604180D01*
X363716771Y-193747038D01*
X363621533Y-193842276D01*
X363526295Y-193889895D01*
D19*
X354638401Y-148821236D02*
X354638401Y-147416543D01*
X355173522Y-147416543D01*
X355307302Y-147483433D01*
X355374192Y-147550323D01*
X355441083Y-147684103D01*
X355441083Y-147884774D01*
X355374192Y-148018554D01*
X355307302Y-148085444D01*
X355173522Y-148152334D01*
X354638401Y-148152334D01*
X355976204Y-148754346D02*
X356176874Y-148821236D01*
X356511325Y-148821236D01*
X356645105Y-148754346D01*
X356711995Y-148687456D01*
X356778885Y-148553675D01*
X356778885Y-148419895D01*
X356711995Y-148286115D01*
X356645105Y-148219225D01*
X356511325Y-148152334D01*
X356243764Y-148085444D01*
X356109984Y-148018554D01*
X356043094Y-147951664D01*
X355976204Y-147817884D01*
X355976204Y-147684103D01*
X356043094Y-147550323D01*
X356109984Y-147483433D01*
X356243764Y-147416543D01*
X356578215Y-147416543D01*
X356778885Y-147483433D01*
X358116688Y-148821236D02*
X357314007Y-148821236D01*
X357715347Y-148821236D02*
X357715347Y-147416543D01*
X357581567Y-147617213D01*
X357447787Y-147750994D01*
X357314007Y-147817884D01*
D11*
X225829833Y-133908880D02*
X225496500Y-133432690D01*
X225258404Y-133908880D02*
X225258404Y-132908880D01*
X225639357Y-132908880D01*
X225734595Y-132956500D01*
X225782214Y-133004119D01*
X225829833Y-133099357D01*
X225829833Y-133242214D01*
X225782214Y-133337452D01*
X225734595Y-133385071D01*
X225639357Y-133432690D01*
X225258404Y-133432690D01*
X226734595Y-132908880D02*
X226258404Y-132908880D01*
X226210785Y-133385071D01*
X226258404Y-133337452D01*
X226353642Y-133289833D01*
X226591738Y-133289833D01*
X226686976Y-133337452D01*
X226734595Y-133385071D01*
X226782214Y-133480309D01*
X226782214Y-133718404D01*
X226734595Y-133813642D01*
X226686976Y-133861261D01*
X226591738Y-133908880D01*
X226353642Y-133908880D01*
X226258404Y-133861261D01*
X226210785Y-133813642D01*
D19*
X217130404Y-124086880D02*
X217130404Y-123086880D01*
X217368500Y-123086880D01*
X217511357Y-123134500D01*
X217606595Y-123229738D01*
X217654214Y-123324976D01*
X217701833Y-123515452D01*
X217701833Y-123658309D01*
X217654214Y-123848785D01*
X217606595Y-123944023D01*
X217511357Y-124039261D01*
X217368500Y-124086880D01*
X217130404Y-124086880D01*
X218558976Y-123086880D02*
X218368500Y-123086880D01*
X218273261Y-123134500D01*
X218225642Y-123182119D01*
X218130404Y-123324976D01*
X218082785Y-123515452D01*
X218082785Y-123896404D01*
X218130404Y-123991642D01*
X218178023Y-124039261D01*
X218273261Y-124086880D01*
X218463738Y-124086880D01*
X218558976Y-124039261D01*
X218606595Y-123991642D01*
X218654214Y-123896404D01*
X218654214Y-123658309D01*
X218606595Y-123563071D01*
X218558976Y-123515452D01*
X218463738Y-123467833D01*
X218273261Y-123467833D01*
X218178023Y-123515452D01*
X218130404Y-123563071D01*
X218082785Y-123658309D01*
X216475471Y-86377757D02*
X216475471Y-84982269D01*
X217272893Y-86377757D02*
X216674827Y-85580335D01*
X217272893Y-84982269D02*
X216475471Y-85779690D01*
X217738056Y-84982269D02*
X218601929Y-84982269D01*
X218136767Y-85513883D01*
X218336122Y-85513883D01*
X218469026Y-85580335D01*
X218535478Y-85646787D01*
X218601929Y-85779690D01*
X218601929Y-86111949D01*
X218535478Y-86244853D01*
X218469026Y-86311305D01*
X218336122Y-86377757D01*
X217937411Y-86377757D01*
X217804508Y-86311305D01*
X217738056Y-86244853D01*
X114875471Y-86377757D02*
X114875471Y-84982269D01*
X115672893Y-86377757D02*
X115074827Y-85580335D01*
X115672893Y-84982269D02*
X114875471Y-85779690D01*
X117001929Y-86377757D02*
X116204508Y-86377757D01*
X116603219Y-86377757D02*
X116603219Y-84982269D01*
X116470315Y-85181624D01*
X116337411Y-85314528D01*
X116204508Y-85380980D01*
X115192634Y-39026587D02*
X115192634Y-39969477D01*
X115129774Y-40158055D01*
X115004056Y-40283774D01*
X114815478Y-40346634D01*
X114689759Y-40346634D01*
X116449821Y-39026587D02*
X115821228Y-39026587D01*
X115758368Y-39655180D01*
X115821228Y-39592321D01*
X115946946Y-39529462D01*
X116261243Y-39529462D01*
X116386962Y-39592321D01*
X116449821Y-39655180D01*
X116512681Y-39780899D01*
X116512681Y-40095196D01*
X116449821Y-40220915D01*
X116386962Y-40283774D01*
X116261243Y-40346634D01*
X115946946Y-40346634D01*
X115821228Y-40283774D01*
X115758368Y-40220915D01*
D11*
X151320580Y-147029466D02*
X150844390Y-147362800D01*
X151320580Y-147600895D02*
X150320580Y-147600895D01*
X150320580Y-147219942D01*
X150368200Y-147124704D01*
X150415819Y-147077085D01*
X150511057Y-147029466D01*
X150653914Y-147029466D01*
X150749152Y-147077085D01*
X150796771Y-147124704D01*
X150844390Y-147219942D01*
X150844390Y-147600895D01*
X150415819Y-146648514D02*
X150368200Y-146600895D01*
X150320580Y-146505657D01*
X150320580Y-146267561D01*
X150368200Y-146172323D01*
X150415819Y-146124704D01*
X150511057Y-146077085D01*
X150606295Y-146077085D01*
X150749152Y-146124704D01*
X151320580Y-146696133D01*
X151320580Y-146077085D01*
X211692961Y-155513419D02*
X211597723Y-155465800D01*
X211502485Y-155370561D01*
X211359628Y-155227704D01*
X211264390Y-155180085D01*
X211169152Y-155180085D01*
X211216771Y-155418180D02*
X211121533Y-155370561D01*
X211026295Y-155275323D01*
X210978676Y-155084847D01*
X210978676Y-154751514D01*
X211026295Y-154561038D01*
X211121533Y-154465800D01*
X211216771Y-154418180D01*
X211407247Y-154418180D01*
X211502485Y-154465800D01*
X211597723Y-154561038D01*
X211645342Y-154751514D01*
X211645342Y-155084847D01*
X211597723Y-155275323D01*
X211502485Y-155370561D01*
X211407247Y-155418180D01*
X211216771Y-155418180D01*
X212597723Y-155418180D02*
X212026295Y-155418180D01*
X212312009Y-155418180D02*
X212312009Y-154418180D01*
X212216771Y-154561038D01*
X212121533Y-154656276D01*
X212026295Y-154703895D01*
D19*
X346227252Y-84622739D02*
X346942944Y-84622739D01*
X347086083Y-84670452D01*
X347181508Y-84765878D01*
X347229221Y-84909016D01*
X347229221Y-85004442D01*
X347229221Y-83620770D02*
X347229221Y-84193324D01*
X347229221Y-83907047D02*
X346227252Y-83907047D01*
X346370391Y-84002473D01*
X346465816Y-84097898D01*
X346513529Y-84193324D01*
D11*
X285905676Y-201072180D02*
X285905676Y-201786466D01*
X285858057Y-201929323D01*
X285762819Y-202024561D01*
X285619961Y-202072180D01*
X285524723Y-202072180D01*
X286905676Y-202072180D02*
X286334247Y-202072180D01*
X286619961Y-202072180D02*
X286619961Y-201072180D01*
X286524723Y-201215038D01*
X286429485Y-201310276D01*
X286334247Y-201357895D01*
X287762819Y-201405514D02*
X287762819Y-202072180D01*
X287524723Y-201024561D02*
X287286628Y-201738847D01*
X287905676Y-201738847D01*
X260886676Y-201199180D02*
X260886676Y-201913466D01*
X260839057Y-202056323D01*
X260743819Y-202151561D01*
X260600961Y-202199180D01*
X260505723Y-202199180D01*
X261886676Y-202199180D02*
X261315247Y-202199180D01*
X261600961Y-202199180D02*
X261600961Y-201199180D01*
X261505723Y-201342038D01*
X261410485Y-201437276D01*
X261315247Y-201484895D01*
X262220009Y-201199180D02*
X262839057Y-201199180D01*
X262505723Y-201580133D01*
X262648580Y-201580133D01*
X262743819Y-201627752D01*
X262791438Y-201675371D01*
X262839057Y-201770609D01*
X262839057Y-202008704D01*
X262791438Y-202103942D01*
X262743819Y-202151561D01*
X262648580Y-202199180D01*
X262362866Y-202199180D01*
X262267628Y-202151561D01*
X262220009Y-202103942D01*
X247043676Y-201453180D02*
X247043676Y-202167466D01*
X246996057Y-202310323D01*
X246900819Y-202405561D01*
X246757961Y-202453180D01*
X246662723Y-202453180D01*
X248043676Y-202453180D02*
X247472247Y-202453180D01*
X247757961Y-202453180D02*
X247757961Y-201453180D01*
X247662723Y-201596038D01*
X247567485Y-201691276D01*
X247472247Y-201738895D01*
X248424628Y-201548419D02*
X248472247Y-201500800D01*
X248567485Y-201453180D01*
X248805580Y-201453180D01*
X248900819Y-201500800D01*
X248948438Y-201548419D01*
X248996057Y-201643657D01*
X248996057Y-201738895D01*
X248948438Y-201881752D01*
X248377009Y-202453180D01*
X248996057Y-202453180D01*
X221389676Y-201199180D02*
X221389676Y-201913466D01*
X221342057Y-202056323D01*
X221246819Y-202151561D01*
X221103961Y-202199180D01*
X221008723Y-202199180D01*
X222389676Y-202199180D02*
X221818247Y-202199180D01*
X222103961Y-202199180D02*
X222103961Y-201199180D01*
X222008723Y-201342038D01*
X221913485Y-201437276D01*
X221818247Y-201484895D01*
X223342057Y-202199180D02*
X222770628Y-202199180D01*
X223056342Y-202199180D02*
X223056342Y-201199180D01*
X222961104Y-201342038D01*
X222865866Y-201437276D01*
X222770628Y-201484895D01*
X209959676Y-201072180D02*
X209959676Y-201786466D01*
X209912057Y-201929323D01*
X209816819Y-202024561D01*
X209673961Y-202072180D01*
X209578723Y-202072180D01*
X210959676Y-202072180D02*
X210388247Y-202072180D01*
X210673961Y-202072180D02*
X210673961Y-201072180D01*
X210578723Y-201215038D01*
X210483485Y-201310276D01*
X210388247Y-201357895D01*
X211578723Y-201072180D02*
X211673961Y-201072180D01*
X211769200Y-201119800D01*
X211816819Y-201167419D01*
X211864438Y-201262657D01*
X211912057Y-201453133D01*
X211912057Y-201691228D01*
X211864438Y-201881704D01*
X211816819Y-201976942D01*
X211769200Y-202024561D01*
X211673961Y-202072180D01*
X211578723Y-202072180D01*
X211483485Y-202024561D01*
X211435866Y-201976942D01*
X211388247Y-201881704D01*
X211340628Y-201691228D01*
X211340628Y-201453133D01*
X211388247Y-201262657D01*
X211435866Y-201167419D01*
X211483485Y-201119800D01*
X211578723Y-201072180D01*
X183892866Y-201326180D02*
X183892866Y-202040466D01*
X183845247Y-202183323D01*
X183750009Y-202278561D01*
X183607152Y-202326180D01*
X183511914Y-202326180D01*
X184797628Y-201659514D02*
X184797628Y-202326180D01*
X184559533Y-201278561D02*
X184321438Y-201992847D01*
X184940485Y-201992847D01*
D19*
X154367261Y-162878300D02*
X155438690Y-162878300D01*
X155652975Y-162949728D01*
X155795832Y-163092585D01*
X155867261Y-163306871D01*
X155867261Y-163449728D01*
X154367261Y-162306871D02*
X154367261Y-161306871D01*
X155867261Y-161949728D01*
X159675580Y-212217323D02*
X159675580Y-211598276D01*
X160056533Y-211931609D01*
X160056533Y-211788752D01*
X160104152Y-211693514D01*
X160151771Y-211645895D01*
X160247009Y-211598276D01*
X160485104Y-211598276D01*
X160580342Y-211645895D01*
X160627961Y-211693514D01*
X160675580Y-211788752D01*
X160675580Y-212074466D01*
X160627961Y-212169704D01*
X160580342Y-212217323D01*
X159675580Y-210741133D02*
X159675580Y-210931609D01*
X159723200Y-211026847D01*
X159770819Y-211074466D01*
X159913676Y-211169704D01*
X160104152Y-211217323D01*
X160485104Y-211217323D01*
X160580342Y-211169704D01*
X160627961Y-211122085D01*
X160675580Y-211026847D01*
X160675580Y-210836371D01*
X160627961Y-210741133D01*
X160580342Y-210693514D01*
X160485104Y-210645895D01*
X160247009Y-210645895D01*
X160151771Y-210693514D01*
X160104152Y-210741133D01*
X160056533Y-210836371D01*
X160056533Y-211026847D01*
X160104152Y-211122085D01*
X160151771Y-211169704D01*
X160247009Y-211217323D01*
X157135580Y-212217323D02*
X157135580Y-211598276D01*
X157516533Y-211931609D01*
X157516533Y-211788752D01*
X157564152Y-211693514D01*
X157611771Y-211645895D01*
X157707009Y-211598276D01*
X157945104Y-211598276D01*
X158040342Y-211645895D01*
X158087961Y-211693514D01*
X158135580Y-211788752D01*
X158135580Y-212074466D01*
X158087961Y-212169704D01*
X158040342Y-212217323D01*
X157135580Y-210693514D02*
X157135580Y-211169704D01*
X157611771Y-211217323D01*
X157564152Y-211169704D01*
X157516533Y-211074466D01*
X157516533Y-210836371D01*
X157564152Y-210741133D01*
X157611771Y-210693514D01*
X157707009Y-210645895D01*
X157945104Y-210645895D01*
X158040342Y-210693514D01*
X158087961Y-210741133D01*
X158135580Y-210836371D01*
X158135580Y-211074466D01*
X158087961Y-211169704D01*
X158040342Y-211217323D01*
X159770819Y-163362514D02*
X159723200Y-163314895D01*
X159675580Y-163219657D01*
X159675580Y-162981561D01*
X159723200Y-162886323D01*
X159770819Y-162838704D01*
X159866057Y-162791085D01*
X159961295Y-162791085D01*
X160104152Y-162838704D01*
X160675580Y-163410133D01*
X160675580Y-162791085D01*
X158135580Y-162791085D02*
X158135580Y-163362514D01*
X158135580Y-163076800D02*
X157135580Y-163076800D01*
X157278438Y-163172038D01*
X157373676Y-163267276D01*
X157421295Y-163362514D01*
X165992634Y-39026587D02*
X165992634Y-39969477D01*
X165929774Y-40158055D01*
X165804056Y-40283774D01*
X165615478Y-40346634D01*
X165489759Y-40346634D01*
X167186962Y-39026587D02*
X166935525Y-39026587D01*
X166809806Y-39089446D01*
X166746946Y-39152305D01*
X166621228Y-39340884D01*
X166558368Y-39592321D01*
X166558368Y-40095196D01*
X166621228Y-40220915D01*
X166684087Y-40283774D01*
X166809806Y-40346634D01*
X167061243Y-40346634D01*
X167186962Y-40283774D01*
X167249821Y-40220915D01*
X167312681Y-40095196D01*
X167312681Y-39780899D01*
X167249821Y-39655180D01*
X167186962Y-39592321D01*
X167061243Y-39529462D01*
X166809806Y-39529462D01*
X166684087Y-39592321D01*
X166621228Y-39655180D01*
X166558368Y-39780899D01*
D11*
X275499533Y-133896180D02*
X275166200Y-133419990D01*
X274928104Y-133896180D02*
X274928104Y-132896180D01*
X275309057Y-132896180D01*
X275404295Y-132943800D01*
X275451914Y-132991419D01*
X275499533Y-133086657D01*
X275499533Y-133229514D01*
X275451914Y-133324752D01*
X275404295Y-133372371D01*
X275309057Y-133419990D01*
X274928104Y-133419990D01*
X276356676Y-132896180D02*
X276166200Y-132896180D01*
X276070961Y-132943800D01*
X276023342Y-132991419D01*
X275928104Y-133134276D01*
X275880485Y-133324752D01*
X275880485Y-133705704D01*
X275928104Y-133800942D01*
X275975723Y-133848561D01*
X276070961Y-133896180D01*
X276261438Y-133896180D01*
X276356676Y-133848561D01*
X276404295Y-133800942D01*
X276451914Y-133705704D01*
X276451914Y-133467609D01*
X276404295Y-133372371D01*
X276356676Y-133324752D01*
X276261438Y-133277133D01*
X276070961Y-133277133D01*
X275975723Y-133324752D01*
X275928104Y-133372371D01*
X275880485Y-133467609D01*
X237340961Y-178677419D02*
X237245723Y-178629800D01*
X237150485Y-178534561D01*
X237007628Y-178391704D01*
X236912390Y-178344085D01*
X236817152Y-178344085D01*
X236864771Y-178582180D02*
X236769533Y-178534561D01*
X236674295Y-178439323D01*
X236626676Y-178248847D01*
X236626676Y-177915514D01*
X236674295Y-177725038D01*
X236769533Y-177629800D01*
X236864771Y-177582180D01*
X237055247Y-177582180D01*
X237150485Y-177629800D01*
X237245723Y-177725038D01*
X237293342Y-177915514D01*
X237293342Y-178248847D01*
X237245723Y-178439323D01*
X237150485Y-178534561D01*
X237055247Y-178582180D01*
X236864771Y-178582180D01*
X237674295Y-177677419D02*
X237721914Y-177629800D01*
X237817152Y-177582180D01*
X238055247Y-177582180D01*
X238150485Y-177629800D01*
X238198104Y-177677419D01*
X238245723Y-177772657D01*
X238245723Y-177867895D01*
X238198104Y-178010752D01*
X237626676Y-178582180D01*
X238245723Y-178582180D01*
D19*
X267275471Y-86377757D02*
X267275471Y-84982269D01*
X268072893Y-86377757D02*
X267474827Y-85580335D01*
X268072893Y-84982269D02*
X267275471Y-85779690D01*
X269269026Y-85447431D02*
X269269026Y-86377757D01*
X268936767Y-84915817D02*
X268604508Y-85912594D01*
X269468381Y-85912594D01*
X267592634Y-39026587D02*
X267592634Y-39969477D01*
X267529774Y-40158055D01*
X267404056Y-40283774D01*
X267215478Y-40346634D01*
X267089759Y-40346634D01*
X268284087Y-40346634D02*
X268535525Y-40346634D01*
X268661243Y-40283774D01*
X268724103Y-40220915D01*
X268849821Y-40032337D01*
X268912681Y-39780899D01*
X268912681Y-39278024D01*
X268849821Y-39152305D01*
X268786962Y-39089446D01*
X268661243Y-39026587D01*
X268409806Y-39026587D01*
X268284087Y-39089446D01*
X268221228Y-39152305D01*
X268158368Y-39278024D01*
X268158368Y-39592321D01*
X268221228Y-39718040D01*
X268284087Y-39780899D01*
X268409806Y-39843759D01*
X268661243Y-39843759D01*
X268786962Y-39780899D01*
X268849821Y-39718040D01*
X268912681Y-39592321D01*
X266800104Y-123820180D02*
X266800104Y-122820180D01*
X267038200Y-122820180D01*
X267181057Y-122867800D01*
X267276295Y-122963038D01*
X267323914Y-123058276D01*
X267371533Y-123248752D01*
X267371533Y-123391609D01*
X267323914Y-123582085D01*
X267276295Y-123677323D01*
X267181057Y-123772561D01*
X267038200Y-123820180D01*
X266800104Y-123820180D01*
X267942961Y-123248752D02*
X267847723Y-123201133D01*
X267800104Y-123153514D01*
X267752485Y-123058276D01*
X267752485Y-123010657D01*
X267800104Y-122915419D01*
X267847723Y-122867800D01*
X267942961Y-122820180D01*
X268133438Y-122820180D01*
X268228676Y-122867800D01*
X268276295Y-122915419D01*
X268323914Y-123010657D01*
X268323914Y-123058276D01*
X268276295Y-123153514D01*
X268228676Y-123201133D01*
X268133438Y-123248752D01*
X267942961Y-123248752D01*
X267847723Y-123296371D01*
X267800104Y-123343990D01*
X267752485Y-123439228D01*
X267752485Y-123629704D01*
X267800104Y-123724942D01*
X267847723Y-123772561D01*
X267942961Y-123820180D01*
X268133438Y-123820180D01*
X268228676Y-123772561D01*
X268276295Y-123724942D01*
X268323914Y-123629704D01*
X268323914Y-123439228D01*
X268276295Y-123343990D01*
X268228676Y-123296371D01*
X268133438Y-123248752D01*
D11*
X259678580Y-118771895D02*
X258678580Y-118771895D01*
X258678580Y-118533800D01*
X258726200Y-118390942D01*
X258821438Y-118295704D01*
X258916676Y-118248085D01*
X259107152Y-118200466D01*
X259250009Y-118200466D01*
X259440485Y-118248085D01*
X259535723Y-118295704D01*
X259630961Y-118390942D01*
X259678580Y-118533800D01*
X259678580Y-118771895D01*
X258678580Y-117867133D02*
X258678580Y-117200466D01*
X259678580Y-117629038D01*
X173505833Y-133908880D02*
X173172500Y-133432690D01*
X172934404Y-133908880D02*
X172934404Y-132908880D01*
X173315357Y-132908880D01*
X173410595Y-132956500D01*
X173458214Y-133004119D01*
X173505833Y-133099357D01*
X173505833Y-133242214D01*
X173458214Y-133337452D01*
X173410595Y-133385071D01*
X173315357Y-133432690D01*
X172934404Y-133432690D01*
X174362976Y-133242214D02*
X174362976Y-133908880D01*
X174124880Y-132861261D02*
X173886785Y-133575547D01*
X174505833Y-133575547D01*
D19*
X115784404Y-123578880D02*
X115784404Y-122578880D01*
X116022500Y-122578880D01*
X116165357Y-122626500D01*
X116260595Y-122721738D01*
X116308214Y-122816976D01*
X116355833Y-123007452D01*
X116355833Y-123150309D01*
X116308214Y-123340785D01*
X116260595Y-123436023D01*
X116165357Y-123531261D01*
X116022500Y-123578880D01*
X115784404Y-123578880D01*
X116736785Y-122674119D02*
X116784404Y-122626500D01*
X116879642Y-122578880D01*
X117117738Y-122578880D01*
X117212976Y-122626500D01*
X117260595Y-122674119D01*
X117308214Y-122769357D01*
X117308214Y-122864595D01*
X117260595Y-123007452D01*
X116689166Y-123578880D01*
X117308214Y-123578880D01*
D11*
X122705833Y-133908880D02*
X122372500Y-133432690D01*
X122134404Y-133908880D02*
X122134404Y-132908880D01*
X122515357Y-132908880D01*
X122610595Y-132956500D01*
X122658214Y-133004119D01*
X122705833Y-133099357D01*
X122705833Y-133242214D01*
X122658214Y-133337452D01*
X122610595Y-133385071D01*
X122515357Y-133432690D01*
X122134404Y-133432690D01*
X123039166Y-132908880D02*
X123658214Y-132908880D01*
X123324880Y-133289833D01*
X123467738Y-133289833D01*
X123562976Y-133337452D01*
X123610595Y-133385071D01*
X123658214Y-133480309D01*
X123658214Y-133718404D01*
X123610595Y-133813642D01*
X123562976Y-133861261D01*
X123467738Y-133908880D01*
X123182023Y-133908880D01*
X123086785Y-133861261D01*
X123039166Y-133813642D01*
D19*
X165568404Y-123832880D02*
X165568404Y-122832880D01*
X165806500Y-122832880D01*
X165949357Y-122880500D01*
X166044595Y-122975738D01*
X166092214Y-123070976D01*
X166139833Y-123261452D01*
X166139833Y-123404309D01*
X166092214Y-123594785D01*
X166044595Y-123690023D01*
X165949357Y-123785261D01*
X165806500Y-123832880D01*
X165568404Y-123832880D01*
X166996976Y-123166214D02*
X166996976Y-123832880D01*
X166758880Y-122785261D02*
X166520785Y-123499547D01*
X167139833Y-123499547D01*
D11*
X284848380Y-189518000D02*
X284372190Y-189851333D01*
X284848380Y-190089428D02*
X283848380Y-190089428D01*
X283848380Y-189708476D01*
X283896000Y-189613238D01*
X283943619Y-189565619D01*
X284038857Y-189518000D01*
X284181714Y-189518000D01*
X284276952Y-189565619D01*
X284324571Y-189613238D01*
X284372190Y-189708476D01*
X284372190Y-190089428D01*
X284848380Y-188613238D02*
X284848380Y-189089428D01*
X283848380Y-189089428D01*
X284372190Y-188089428D02*
X284848380Y-188089428D01*
X283848380Y-188422761D02*
X284372190Y-188089428D01*
X283848380Y-187756095D01*
X284848380Y-186898952D02*
X284848380Y-187470380D01*
X284848380Y-187184666D02*
X283848380Y-187184666D01*
X283991238Y-187279904D01*
X284086476Y-187375142D01*
X284134095Y-187470380D01*
X141287580Y-147029466D02*
X140811390Y-147362800D01*
X141287580Y-147600895D02*
X140287580Y-147600895D01*
X140287580Y-147219942D01*
X140335200Y-147124704D01*
X140382819Y-147077085D01*
X140478057Y-147029466D01*
X140620914Y-147029466D01*
X140716152Y-147077085D01*
X140763771Y-147124704D01*
X140811390Y-147219942D01*
X140811390Y-147600895D01*
X141287580Y-146077085D02*
X141287580Y-146648514D01*
X141287580Y-146362800D02*
X140287580Y-146362800D01*
X140430438Y-146458038D01*
X140525676Y-146553276D01*
X140573295Y-146648514D01*
D19*
X165675471Y-86377757D02*
X165675471Y-84982269D01*
X166472893Y-86377757D02*
X165874827Y-85580335D01*
X166472893Y-84982269D02*
X165675471Y-85779690D01*
X167004508Y-85115172D02*
X167070959Y-85048721D01*
X167203863Y-84982269D01*
X167536122Y-84982269D01*
X167669026Y-85048721D01*
X167735478Y-85115172D01*
X167801929Y-85248076D01*
X167801929Y-85380980D01*
X167735478Y-85580335D01*
X166938056Y-86377757D01*
X167801929Y-86377757D01*
X216792634Y-39026587D02*
X216792634Y-39969477D01*
X216729774Y-40158055D01*
X216604056Y-40283774D01*
X216415478Y-40346634D01*
X216289759Y-40346634D01*
X217609806Y-39592321D02*
X217484087Y-39529462D01*
X217421228Y-39466602D01*
X217358368Y-39340884D01*
X217358368Y-39278024D01*
X217421228Y-39152305D01*
X217484087Y-39089446D01*
X217609806Y-39026587D01*
X217861243Y-39026587D01*
X217986962Y-39089446D01*
X218049821Y-39152305D01*
X218112681Y-39278024D01*
X218112681Y-39340884D01*
X218049821Y-39466602D01*
X217986962Y-39529462D01*
X217861243Y-39592321D01*
X217609806Y-39592321D01*
X217484087Y-39655180D01*
X217421228Y-39718040D01*
X217358368Y-39843759D01*
X217358368Y-40095196D01*
X217421228Y-40220915D01*
X217484087Y-40283774D01*
X217609806Y-40346634D01*
X217861243Y-40346634D01*
X217986962Y-40283774D01*
X218049821Y-40220915D01*
X218112681Y-40095196D01*
X218112681Y-39843759D01*
X218049821Y-39718040D01*
X217986962Y-39655180D01*
X217861243Y-39592321D01*
D11*
X208484880Y-118784595D02*
X207484880Y-118784595D01*
X207484880Y-118546500D01*
X207532500Y-118403642D01*
X207627738Y-118308404D01*
X207722976Y-118260785D01*
X207913452Y-118213166D01*
X208056309Y-118213166D01*
X208246785Y-118260785D01*
X208342023Y-118308404D01*
X208437261Y-118403642D01*
X208484880Y-118546500D01*
X208484880Y-118784595D01*
X207484880Y-117308404D02*
X207484880Y-117784595D01*
X207961071Y-117832214D01*
X207913452Y-117784595D01*
X207865833Y-117689357D01*
X207865833Y-117451261D01*
X207913452Y-117356023D01*
X207961071Y-117308404D01*
X208056309Y-117260785D01*
X208294404Y-117260785D01*
X208389642Y-117308404D01*
X208437261Y-117356023D01*
X208484880Y-117451261D01*
X208484880Y-117689357D01*
X208437261Y-117784595D01*
X208389642Y-117832214D01*
X158192880Y-118784595D02*
X157192880Y-118784595D01*
X157192880Y-118546500D01*
X157240500Y-118403642D01*
X157335738Y-118308404D01*
X157430976Y-118260785D01*
X157621452Y-118213166D01*
X157764309Y-118213166D01*
X157954785Y-118260785D01*
X158050023Y-118308404D01*
X158145261Y-118403642D01*
X158192880Y-118546500D01*
X158192880Y-118784595D01*
X157192880Y-117879833D02*
X157192880Y-117260785D01*
X157573833Y-117594119D01*
X157573833Y-117451261D01*
X157621452Y-117356023D01*
X157669071Y-117308404D01*
X157764309Y-117260785D01*
X158002404Y-117260785D01*
X158097642Y-117308404D01*
X158145261Y-117356023D01*
X158192880Y-117451261D01*
X158192880Y-117736976D01*
X158145261Y-117832214D01*
X158097642Y-117879833D01*
X107392880Y-118530595D02*
X106392880Y-118530595D01*
X106392880Y-118292500D01*
X106440500Y-118149642D01*
X106535738Y-118054404D01*
X106630976Y-118006785D01*
X106821452Y-117959166D01*
X106964309Y-117959166D01*
X107154785Y-118006785D01*
X107250023Y-118054404D01*
X107345261Y-118149642D01*
X107392880Y-118292500D01*
X107392880Y-118530595D01*
X107392880Y-117006785D02*
X107392880Y-117578214D01*
X107392880Y-117292500D02*
X106392880Y-117292500D01*
X106535738Y-117387738D01*
X106630976Y-117482976D01*
X106678595Y-117578214D01*
M02*
