M48
; DRILL file {KiCad 5.1.5-52549c5~84~ubuntu18.04.1} date Wed 05 Feb 2020 02:03:34 AM EST
; FORMAT={-:-/ absolute / inch / decimal}
; #@! TF.CreationDate,2020-02-05T02:03:34-05:00
; #@! TF.GenerationSoftware,Kicad,Pcbnew,5.1.5-52549c5~84~ubuntu18.04.1
FMAT,2
INCH
T1C0.0315
T2C0.0394
T3C0.0402
T4C0.0433
T5C0.0461
T6C0.0512
T7C0.0811
T8C0.0862
T9C0.0472
%
G90
G05
T1
X8.62Y-2.85
X9.02Y-2.85
X3.39Y-4.75
X3.39Y-5.15
X7.91Y-3.47
X7.91Y-3.57
X7.91Y-3.67
X7.91Y-3.87
X8.11Y-3.47
X8.11Y-3.57
X8.11Y-3.67
X8.11Y-3.87
T2
X3.25Y-3.1
X3.25Y-3.2
X3.25Y-3.3
X3.25Y-3.4
X3.25Y-3.5
X3.25Y-3.6
X3.25Y-3.7
X3.25Y-3.8
X3.55Y-3.1
X3.55Y-3.2
X3.55Y-3.3
X3.55Y-3.4
X3.55Y-3.5
X3.55Y-3.6
X3.55Y-3.7
X3.55Y-3.8
T3
X2.63Y-2.95
X2.63Y-3.05
X2.63Y-3.15
X2.63Y-3.25
X2.63Y-3.35
X2.63Y-3.45
X2.63Y-3.55
X2.63Y-3.65
X2.63Y-3.75
X2.63Y-3.85
X2.63Y-3.95
X2.63Y-4.05
X2.63Y-4.15
X2.63Y-4.25
X2.63Y-4.35
X2.63Y-4.45
X2.63Y-4.55
X2.63Y-4.65
X2.73Y-2.95
X2.73Y-3.05
X2.73Y-3.15
X2.73Y-3.25
X2.73Y-3.35
X2.73Y-3.45
X2.73Y-3.55
X2.73Y-3.65
X2.73Y-3.75
X2.73Y-3.85
X2.73Y-3.95
X2.73Y-4.05
X2.73Y-4.15
X2.73Y-4.25
X2.73Y-4.35
X2.73Y-4.45
X2.73Y-4.55
X2.73Y-4.65
T4
X6.22Y-3.61
X6.22Y-4.01
X8.75Y-3.06
X8.85Y-3.06
X8.95Y-3.06
X5.15Y-3.41
X5.15Y-3.81
X7.48Y-3.62
X7.48Y-4.02
T5
X6.8Y-3.94
X7.2Y-3.94
X5.55Y-3.94
X5.95Y-3.94
X4.3Y-3.94
X4.7Y-3.94
T6
X6.9331Y-2.64
X7.13Y-2.64
X4.4431Y-2.64
X4.64Y-2.64
X5.6931Y-2.65
X5.89Y-2.65
T7
X6.65Y-3.44
X5.4Y-3.44
X4.15Y-3.44
T8
X7.35Y-3.34
X6.1Y-3.34
X4.85Y-3.34
T9
X8.6531Y-4.9369
X8.6531Y-5.0353
X8.85Y-4.74
X9.0469Y-4.9369
X9.0469Y-5.0353
X6.0131Y-4.9369
X6.0131Y-5.0353
X6.21Y-4.74
X6.4069Y-4.9369
X6.4069Y-5.0353
X5.4131Y-4.9369
X5.4131Y-5.0353
X5.61Y-4.74
X5.8069Y-4.9369
X5.8069Y-5.0353
X6.9731Y-4.9369
X6.9731Y-5.0353
X7.17Y-4.74
X7.3669Y-4.9369
X7.3669Y-5.0353
X3.6531Y-4.9369
X3.6531Y-5.0353
X3.85Y-4.74
X4.0469Y-4.9369
X4.0469Y-5.0353
X7.6363Y-4.9369
X7.6363Y-5.0353
X7.8331Y-4.74
X8.03Y-4.9369
X8.03Y-5.0353
X4.8031Y-4.9369
X4.8031Y-5.0353
X5.0Y-4.74
X5.1969Y-4.9369
X5.1969Y-5.0353
T1
G00X8.6531Y-4.7538
M15
G01X8.6531Y-4.7262
M16
G05
G00X8.8362Y-4.9369
M15
G01X8.8638Y-4.9369
M16
G05
G00X9.0469Y-4.7538
M15
G01X9.0469Y-4.7262
M16
G05
G00X6.0131Y-4.7538
M15
G01X6.0131Y-4.7262
M16
G05
G00X6.1962Y-4.9369
M15
G01X6.2238Y-4.9369
M16
G05
G00X6.4069Y-4.7538
M15
G01X6.4069Y-4.7262
M16
G05
G00X5.4131Y-4.7538
M15
G01X5.4131Y-4.7262
M16
G05
G00X5.5962Y-4.9369
M15
G01X5.6238Y-4.9369
M16
G05
G00X5.8069Y-4.7538
M15
G01X5.8069Y-4.7262
M16
G05
G00X6.9731Y-4.7538
M15
G01X6.9731Y-4.7262
M16
G05
G00X7.1562Y-4.9369
M15
G01X7.1838Y-4.9369
M16
G05
G00X7.3669Y-4.7538
M15
G01X7.3669Y-4.7262
M16
G05
G00X3.6531Y-4.7538
M15
G01X3.6531Y-4.7262
M16
G05
G00X3.8362Y-4.9369
M15
G01X3.8638Y-4.9369
M16
G05
G00X4.0469Y-4.7538
M15
G01X4.0469Y-4.7262
M16
G05
G00X7.6363Y-4.7538
M15
G01X7.6363Y-4.7262
M16
G05
G00X7.8194Y-4.9369
M15
G01X7.8469Y-4.9369
M16
G05
G00X8.03Y-4.7538
M15
G01X8.03Y-4.7262
M16
G05
G00X4.8031Y-4.7538
M15
G01X4.8031Y-4.7262
M16
G05
G00X4.9862Y-4.9369
M15
G01X5.0138Y-4.9369
M16
G05
G00X5.1969Y-4.7538
M15
G01X5.1969Y-4.7262
M16
G05
T2
G00X8.7919Y-3.8818
M15
G01X8.7919Y-3.8582
M16
G05
G00X8.8982Y-4.055
M15
G01X8.9218Y-4.055
M16
G05
G00X9.0281Y-3.8818
M15
G01X9.0281Y-3.8582
M16
G05
T0
M30
