M48
; DRILL file {KiCad 5.1.5-52549c5~84~ubuntu18.04.1} date Sun 09 Feb 2020 05:31:41 PM EST
; FORMAT={-:-/ absolute / inch / decimal}
; #@! TF.CreationDate,2020-02-09T17:31:41-05:00
; #@! TF.GenerationSoftware,Kicad,Pcbnew,5.1.5-52549c5~84~ubuntu18.04.1
FMAT,2
INCH
T1C0.0315
T2C0.0323
T3C0.0394
T4C0.0402
T5C0.0433
T6C0.0461
T7C0.0494
T8C0.0630
T9C0.0709
T10C0.0811
T11C0.0862
T12C0.1000
T13C0.1260
T14C0.0472
T15C0.1378
%
G90
G05
T1
X1.25Y-7.29
X1.25Y-7.69
X7.12Y-4.66
X7.52Y-4.66
X5.13Y-4.66
X5.53Y-4.66
X3.13Y-4.66
X3.53Y-4.66
X3.02Y-6.17
X3.02Y-6.57
X6.47Y-6.41
X6.47Y-6.61
X6.47Y-6.71
X6.47Y-6.81
X6.67Y-6.41
X6.67Y-6.61
X6.67Y-6.71
X6.67Y-6.81
T2
X5.0511Y-4.37
X5.1889Y-4.37
X3.0711Y-4.37
X3.2089Y-4.37
X7.0311Y-4.37
X7.1689Y-4.37
T3
X1.25Y-6.23
X1.25Y-6.53
X1.35Y-6.23
X1.35Y-6.53
X1.45Y-6.23
X1.45Y-6.53
X1.55Y-6.23
X1.55Y-6.53
X1.65Y-6.23
X1.65Y-6.53
X1.75Y-6.23
X1.75Y-6.53
X1.85Y-6.23
X1.85Y-6.53
X1.95Y-6.23
X1.95Y-6.53
T4
X0.61Y-5.95
X0.61Y-6.05
X0.61Y-6.15
X0.61Y-6.25
X0.61Y-6.35
X0.61Y-6.45
X0.61Y-6.55
X0.61Y-6.65
X0.61Y-6.75
X0.61Y-6.85
X0.61Y-6.95
X0.61Y-7.05
X0.61Y-7.15
X0.61Y-7.25
X0.61Y-7.35
X0.61Y-7.45
X0.61Y-7.55
X0.61Y-7.65
X0.71Y-5.95
X0.71Y-6.05
X0.71Y-6.15
X0.71Y-6.25
X0.71Y-6.35
X0.71Y-6.45
X0.71Y-6.55
X0.71Y-6.65
X0.71Y-6.75
X0.71Y-6.85
X0.71Y-6.95
X0.71Y-7.05
X0.71Y-7.15
X0.71Y-7.25
X0.71Y-7.35
X0.71Y-7.45
X0.71Y-7.55
X0.71Y-7.65
T5
X2.8Y-3.75
X2.8Y-4.15
X6.78Y-3.76
X6.78Y-4.16
X4.8Y-3.76
X4.8Y-4.16
X8.5409Y-5.8417
X8.5409Y-6.0583
X10.9425Y-5.7039
X10.9425Y-6.0583
X2.77Y-6.28
X2.77Y-6.38
X2.77Y-6.48
T6
X5.18Y-3.76
X5.58Y-3.76
X7.17Y-3.76
X7.57Y-3.76
X3.2Y-3.76
X3.6Y-3.76
T7
X9.19Y-3.41
X9.19Y-3.81
X10.99Y-3.01
X10.99Y-3.81
T8
X4.26Y-1.83
X4.56Y-1.83
X6.26Y-1.84
X6.56Y-1.84
X8.24Y-1.85
X8.54Y-1.85
T9
X10.67Y-1.1188
X10.67Y-1.3944
X10.67Y-1.67
T10
X7.02Y-3.26
X3.05Y-3.26
X5.03Y-3.26
T11
X7.72Y-3.16
X3.75Y-3.16
X5.73Y-3.16
T12
X5.14Y-1.8381
X5.39Y-2.0031
X5.64Y-1.8381
X3.16Y-1.8381
X3.41Y-2.0031
X3.66Y-1.8381
X7.12Y-1.8681
X7.37Y-2.0331
X7.62Y-1.8681
T13
X2.5Y-1.0
X11.0Y-7.5
X1.25Y-5.0
X9.75Y-2.5
T14
X1.4763Y-7.5169
X1.4763Y-7.6153
X1.6731Y-7.32
X1.87Y-7.5169
X1.87Y-7.6153
X3.0931Y-7.5169
X3.0931Y-7.6153
X3.29Y-7.32
X3.4869Y-7.5169
X3.4869Y-7.6153
X4.7431Y-7.5169
X4.7431Y-7.6153
X4.94Y-7.32
X5.1369Y-7.5169
X5.1369Y-7.6153
X5.3831Y-7.5169
X5.3831Y-7.6153
X5.58Y-7.32
X5.7769Y-7.5169
X5.7769Y-7.6153
X2.4531Y-7.5169
X2.4531Y-7.6153
X2.65Y-7.32
X2.8469Y-7.5169
X2.8469Y-7.6153
X4.1031Y-7.5169
X4.1031Y-7.6153
X4.3Y-7.32
X4.4969Y-7.5169
X4.4969Y-7.6153
X6.3531Y-7.5169
X6.3531Y-7.6153
X6.55Y-7.32
X6.7469Y-7.5169
X6.7469Y-7.6153
T15
X10.9574Y-0.6169
X10.9574Y-2.172
T1
G00X5.3831Y-7.3338
M15
G01X5.3831Y-7.3062
M16
G05
G00X4.1031Y-7.3338
M15
G01X4.1031Y-7.3062
M16
G05
G00X4.2862Y-7.5169
M15
G01X4.3138Y-7.5169
M16
G05
G00X4.4969Y-7.3338
M15
G01X4.4969Y-7.3062
M16
G05
G00X6.3531Y-7.3338
M15
G01X6.3531Y-7.3062
M16
G05
G00X6.5362Y-7.5169
M15
G01X6.5638Y-7.5169
M16
G05
G00X6.7469Y-7.3338
M15
G01X6.7469Y-7.3062
M16
G05
G00X1.4763Y-7.3338
M15
G01X1.4763Y-7.3062
M16
G05
G00X1.6594Y-7.5169
M15
G01X1.6869Y-7.5169
M16
G05
G00X1.87Y-7.3338
M15
G01X1.87Y-7.3062
M16
G05
G00X3.0931Y-7.3338
M15
G01X3.0931Y-7.3062
M16
G05
G00X3.2762Y-7.5169
M15
G01X3.3038Y-7.5169
M16
G05
G00X3.4869Y-7.3338
M15
G01X3.4869Y-7.3062
M16
G05
G00X4.7431Y-7.3338
M15
G01X4.7431Y-7.3062
M16
G05
G00X4.9262Y-7.5169
M15
G01X4.9538Y-7.5169
M16
G05
G00X5.1369Y-7.3338
M15
G01X5.1369Y-7.3062
M16
G05
G00X5.5662Y-7.5169
M15
G01X5.5938Y-7.5169
M16
G05
G00X5.7769Y-7.3338
M15
G01X5.7769Y-7.3062
M16
G05
G00X2.4531Y-7.3338
M15
G01X2.4531Y-7.3062
M16
G05
G00X2.6362Y-7.5169
M15
G01X2.6638Y-7.5169
M16
G05
G00X2.8469Y-7.3338
M15
G01X2.8469Y-7.3062
M16
G05
T0
M30
