G04 #@! TF.GenerationSoftware,KiCad,Pcbnew,5.1.5-52549c5~84~ubuntu18.04.1*
G04 #@! TF.CreationDate,2020-02-09T17:31:39-05:00*
G04 #@! TF.ProjectId,cropdroid-reservoir,63726f70-6472-46f6-9964-2d7265736572,0.3a*
G04 #@! TF.SameCoordinates,Original*
G04 #@! TF.FileFunction,Soldermask,Top*
G04 #@! TF.FilePolarity,Negative*
%FSLAX46Y46*%
G04 Gerber Fmt 4.6, Leading zero omitted, Abs format (unit mm)*
G04 Created by KiCad (PCBNEW 5.1.5-52549c5~84~ubuntu18.04.1) date 2020-02-09 17:31:39*
%MOMM*%
%LPD*%
G04 APERTURE LIST*
%ADD10C,0.100000*%
G04 APERTURE END LIST*
D10*
X18894984Y-194310000D02*
G75*
G03X18894984Y-194310000I-860984J0D01*
G01*
X16354984Y-194310000D02*
G75*
G03X16354984Y-194310000I-860984J0D01*
G01*
X18894984Y-191770000D02*
G75*
G03X18894984Y-191770000I-860984J0D01*
G01*
X16354984Y-191770000D02*
G75*
G03X16354984Y-191770000I-860984J0D01*
G01*
X18894984Y-189230000D02*
G75*
G03X18894984Y-189230000I-860984J0D01*
G01*
X16354984Y-189230000D02*
G75*
G03X16354984Y-189230000I-860984J0D01*
G01*
X18894984Y-186690000D02*
G75*
G03X18894984Y-186690000I-860984J0D01*
G01*
X16354984Y-186690000D02*
G75*
G03X16354984Y-186690000I-860984J0D01*
G01*
X18894984Y-184150000D02*
G75*
G03X18894984Y-184150000I-860984J0D01*
G01*
X16354984Y-184150000D02*
G75*
G03X16354984Y-184150000I-860984J0D01*
G01*
X18894984Y-181610000D02*
G75*
G03X18894984Y-181610000I-860984J0D01*
G01*
X16354984Y-181610000D02*
G75*
G03X16354984Y-181610000I-860984J0D01*
G01*
X18894984Y-179070000D02*
G75*
G03X18894984Y-179070000I-860984J0D01*
G01*
X16354984Y-179070000D02*
G75*
G03X16354984Y-179070000I-860984J0D01*
G01*
X18894984Y-176530000D02*
G75*
G03X18894984Y-176530000I-860984J0D01*
G01*
X16354984Y-176530000D02*
G75*
G03X16354984Y-176530000I-860984J0D01*
G01*
X18894984Y-173990000D02*
G75*
G03X18894984Y-173990000I-860984J0D01*
G01*
X16354984Y-173990000D02*
G75*
G03X16354984Y-173990000I-860984J0D01*
G01*
X18894984Y-171450000D02*
G75*
G03X18894984Y-171450000I-860984J0D01*
G01*
X16354984Y-171450000D02*
G75*
G03X16354984Y-171450000I-860984J0D01*
G01*
X18894984Y-168910000D02*
G75*
G03X18894984Y-168910000I-860984J0D01*
G01*
X16354984Y-168910000D02*
G75*
G03X16354984Y-168910000I-860984J0D01*
G01*
X18894984Y-166370000D02*
G75*
G03X18894984Y-166370000I-860984J0D01*
G01*
X16354984Y-166370000D02*
G75*
G03X16354984Y-166370000I-860984J0D01*
G01*
X18894984Y-163830000D02*
G75*
G03X18894984Y-163830000I-860984J0D01*
G01*
X16354984Y-163830000D02*
G75*
G03X16354984Y-163830000I-860984J0D01*
G01*
X18894984Y-161290000D02*
G75*
G03X18894984Y-161290000I-860984J0D01*
G01*
X16354984Y-161290000D02*
G75*
G03X16354984Y-161290000I-860984J0D01*
G01*
X18894984Y-158750000D02*
G75*
G03X18894984Y-158750000I-860984J0D01*
G01*
X16354984Y-158750000D02*
G75*
G03X16354984Y-158750000I-860984J0D01*
G01*
X18894984Y-156210000D02*
G75*
G03X18894984Y-156210000I-860984J0D01*
G01*
X16354984Y-156210000D02*
G75*
G03X16354984Y-156210000I-860984J0D01*
G01*
X18894984Y-153670000D02*
G75*
G03X18894984Y-153670000I-860984J0D01*
G01*
X16354984Y-153670000D02*
G75*
G03X16354984Y-153670000I-860984J0D01*
G01*
X18894984Y-151130000D02*
G75*
G03X18894984Y-151130000I-860984J0D01*
G01*
X16354984Y-151130000D02*
G75*
G03X16354984Y-151130000I-860984J0D01*
G01*
G36*
X31998228Y-194507703D02*
G01*
X32153100Y-194571853D01*
X32292481Y-194664985D01*
X32411015Y-194783519D01*
X32504147Y-194922900D01*
X32568297Y-195077772D01*
X32601000Y-195242184D01*
X32601000Y-195409816D01*
X32568297Y-195574228D01*
X32504147Y-195729100D01*
X32411015Y-195868481D01*
X32292481Y-195987015D01*
X32153100Y-196080147D01*
X31998228Y-196144297D01*
X31833816Y-196177000D01*
X31666184Y-196177000D01*
X31501772Y-196144297D01*
X31346900Y-196080147D01*
X31207519Y-195987015D01*
X31088985Y-195868481D01*
X30995853Y-195729100D01*
X30931703Y-195574228D01*
X30899000Y-195409816D01*
X30899000Y-195242184D01*
X30931703Y-195077772D01*
X30995853Y-194922900D01*
X31088985Y-194783519D01*
X31207519Y-194664985D01*
X31346900Y-194571853D01*
X31501772Y-194507703D01*
X31666184Y-194475000D01*
X31833816Y-194475000D01*
X31998228Y-194507703D01*
G37*
G36*
X171559890Y-192802017D02*
G01*
X171678364Y-192851091D01*
X171784988Y-192922335D01*
X171875665Y-193013012D01*
X171946909Y-193119636D01*
X171995983Y-193238110D01*
X172021000Y-193363882D01*
X172021000Y-193492118D01*
X171995983Y-193617890D01*
X171946909Y-193736364D01*
X171875665Y-193842988D01*
X171784988Y-193933665D01*
X171678364Y-194004909D01*
X171678363Y-194004910D01*
X171678362Y-194004910D01*
X171559890Y-194053983D01*
X171434119Y-194079000D01*
X171305881Y-194079000D01*
X171180110Y-194053983D01*
X171061638Y-194004910D01*
X171061637Y-194004910D01*
X171061636Y-194004909D01*
X170955012Y-193933665D01*
X170864335Y-193842988D01*
X170793091Y-193736364D01*
X170744017Y-193617890D01*
X170719000Y-193492118D01*
X170719000Y-193363882D01*
X170744017Y-193238110D01*
X170793091Y-193119636D01*
X170864335Y-193013012D01*
X170955012Y-192922335D01*
X171061636Y-192851091D01*
X171180110Y-192802017D01*
X171305881Y-192777000D01*
X171434119Y-192777000D01*
X171559890Y-192802017D01*
G37*
G36*
X161559890Y-192802017D02*
G01*
X161678364Y-192851091D01*
X161784988Y-192922335D01*
X161875665Y-193013012D01*
X161946909Y-193119636D01*
X161995983Y-193238110D01*
X162021000Y-193363882D01*
X162021000Y-193492118D01*
X161995983Y-193617890D01*
X161946909Y-193736364D01*
X161875665Y-193842988D01*
X161784988Y-193933665D01*
X161678364Y-194004909D01*
X161678363Y-194004910D01*
X161678362Y-194004910D01*
X161559890Y-194053983D01*
X161434119Y-194079000D01*
X161305881Y-194079000D01*
X161180110Y-194053983D01*
X161061638Y-194004910D01*
X161061637Y-194004910D01*
X161061636Y-194004909D01*
X160955012Y-193933665D01*
X160864335Y-193842988D01*
X160793091Y-193736364D01*
X160744017Y-193617890D01*
X160719000Y-193492118D01*
X160719000Y-193363882D01*
X160744017Y-193238110D01*
X160793091Y-193119636D01*
X160864335Y-193013012D01*
X160955012Y-192922335D01*
X161061636Y-192851091D01*
X161180110Y-192802017D01*
X161305881Y-192777000D01*
X161434119Y-192777000D01*
X161559890Y-192802017D01*
G37*
G36*
X146921890Y-192802017D02*
G01*
X147040364Y-192851091D01*
X147146988Y-192922335D01*
X147237665Y-193013012D01*
X147308909Y-193119636D01*
X147357983Y-193238110D01*
X147383000Y-193363882D01*
X147383000Y-193492118D01*
X147357983Y-193617890D01*
X147308909Y-193736364D01*
X147237665Y-193842988D01*
X147146988Y-193933665D01*
X147040364Y-194004909D01*
X147040363Y-194004910D01*
X147040362Y-194004910D01*
X146921890Y-194053983D01*
X146796119Y-194079000D01*
X146667881Y-194079000D01*
X146542110Y-194053983D01*
X146423638Y-194004910D01*
X146423637Y-194004910D01*
X146423636Y-194004909D01*
X146317012Y-193933665D01*
X146226335Y-193842988D01*
X146155091Y-193736364D01*
X146106017Y-193617890D01*
X146081000Y-193492118D01*
X146081000Y-193363882D01*
X146106017Y-193238110D01*
X146155091Y-193119636D01*
X146226335Y-193013012D01*
X146317012Y-192922335D01*
X146423636Y-192851091D01*
X146542110Y-192802017D01*
X146667881Y-192777000D01*
X146796119Y-192777000D01*
X146921890Y-192802017D01*
G37*
G36*
X136921890Y-192802017D02*
G01*
X137040364Y-192851091D01*
X137146988Y-192922335D01*
X137237665Y-193013012D01*
X137308909Y-193119636D01*
X137357983Y-193238110D01*
X137383000Y-193363882D01*
X137383000Y-193492118D01*
X137357983Y-193617890D01*
X137308909Y-193736364D01*
X137237665Y-193842988D01*
X137146988Y-193933665D01*
X137040364Y-194004909D01*
X137040363Y-194004910D01*
X137040362Y-194004910D01*
X136921890Y-194053983D01*
X136796119Y-194079000D01*
X136667881Y-194079000D01*
X136542110Y-194053983D01*
X136423638Y-194004910D01*
X136423637Y-194004910D01*
X136423636Y-194004909D01*
X136317012Y-193933665D01*
X136226335Y-193842988D01*
X136155091Y-193736364D01*
X136106017Y-193617890D01*
X136081000Y-193492118D01*
X136081000Y-193363882D01*
X136106017Y-193238110D01*
X136155091Y-193119636D01*
X136226335Y-193013012D01*
X136317012Y-192922335D01*
X136423636Y-192851091D01*
X136542110Y-192802017D01*
X136667881Y-192777000D01*
X136796119Y-192777000D01*
X136921890Y-192802017D01*
G37*
G36*
X130665890Y-192802017D02*
G01*
X130784364Y-192851091D01*
X130890988Y-192922335D01*
X130981665Y-193013012D01*
X131052909Y-193119636D01*
X131101983Y-193238110D01*
X131127000Y-193363882D01*
X131127000Y-193492118D01*
X131101983Y-193617890D01*
X131052909Y-193736364D01*
X130981665Y-193842988D01*
X130890988Y-193933665D01*
X130784364Y-194004909D01*
X130784363Y-194004910D01*
X130784362Y-194004910D01*
X130665890Y-194053983D01*
X130540119Y-194079000D01*
X130411881Y-194079000D01*
X130286110Y-194053983D01*
X130167638Y-194004910D01*
X130167637Y-194004910D01*
X130167636Y-194004909D01*
X130061012Y-193933665D01*
X129970335Y-193842988D01*
X129899091Y-193736364D01*
X129850017Y-193617890D01*
X129825000Y-193492118D01*
X129825000Y-193363882D01*
X129850017Y-193238110D01*
X129899091Y-193119636D01*
X129970335Y-193013012D01*
X130061012Y-192922335D01*
X130167636Y-192851091D01*
X130286110Y-192802017D01*
X130411881Y-192777000D01*
X130540119Y-192777000D01*
X130665890Y-192802017D01*
G37*
G36*
X120665890Y-192802017D02*
G01*
X120784364Y-192851091D01*
X120890988Y-192922335D01*
X120981665Y-193013012D01*
X121052909Y-193119636D01*
X121101983Y-193238110D01*
X121127000Y-193363882D01*
X121127000Y-193492118D01*
X121101983Y-193617890D01*
X121052909Y-193736364D01*
X120981665Y-193842988D01*
X120890988Y-193933665D01*
X120784364Y-194004909D01*
X120784363Y-194004910D01*
X120784362Y-194004910D01*
X120665890Y-194053983D01*
X120540119Y-194079000D01*
X120411881Y-194079000D01*
X120286110Y-194053983D01*
X120167638Y-194004910D01*
X120167637Y-194004910D01*
X120167636Y-194004909D01*
X120061012Y-193933665D01*
X119970335Y-193842988D01*
X119899091Y-193736364D01*
X119850017Y-193617890D01*
X119825000Y-193492118D01*
X119825000Y-193363882D01*
X119850017Y-193238110D01*
X119899091Y-193119636D01*
X119970335Y-193013012D01*
X120061012Y-192922335D01*
X120167636Y-192851091D01*
X120286110Y-192802017D01*
X120411881Y-192777000D01*
X120540119Y-192777000D01*
X120665890Y-192802017D01*
G37*
G36*
X88755890Y-192802017D02*
G01*
X88874364Y-192851091D01*
X88980988Y-192922335D01*
X89071665Y-193013012D01*
X89142909Y-193119636D01*
X89191983Y-193238110D01*
X89217000Y-193363882D01*
X89217000Y-193492118D01*
X89191983Y-193617890D01*
X89142909Y-193736364D01*
X89071665Y-193842988D01*
X88980988Y-193933665D01*
X88874364Y-194004909D01*
X88874363Y-194004910D01*
X88874362Y-194004910D01*
X88755890Y-194053983D01*
X88630119Y-194079000D01*
X88501881Y-194079000D01*
X88376110Y-194053983D01*
X88257638Y-194004910D01*
X88257637Y-194004910D01*
X88257636Y-194004909D01*
X88151012Y-193933665D01*
X88060335Y-193842988D01*
X87989091Y-193736364D01*
X87940017Y-193617890D01*
X87915000Y-193492118D01*
X87915000Y-193363882D01*
X87940017Y-193238110D01*
X87989091Y-193119636D01*
X88060335Y-193013012D01*
X88151012Y-192922335D01*
X88257636Y-192851091D01*
X88376110Y-192802017D01*
X88501881Y-192777000D01*
X88630119Y-192777000D01*
X88755890Y-192802017D01*
G37*
G36*
X114409890Y-192802017D02*
G01*
X114528364Y-192851091D01*
X114634988Y-192922335D01*
X114725665Y-193013012D01*
X114796909Y-193119636D01*
X114845983Y-193238110D01*
X114871000Y-193363882D01*
X114871000Y-193492118D01*
X114845983Y-193617890D01*
X114796909Y-193736364D01*
X114725665Y-193842988D01*
X114634988Y-193933665D01*
X114528364Y-194004909D01*
X114528363Y-194004910D01*
X114528362Y-194004910D01*
X114409890Y-194053983D01*
X114284119Y-194079000D01*
X114155881Y-194079000D01*
X114030110Y-194053983D01*
X113911638Y-194004910D01*
X113911637Y-194004910D01*
X113911636Y-194004909D01*
X113805012Y-193933665D01*
X113714335Y-193842988D01*
X113643091Y-193736364D01*
X113594017Y-193617890D01*
X113569000Y-193492118D01*
X113569000Y-193363882D01*
X113594017Y-193238110D01*
X113643091Y-193119636D01*
X113714335Y-193013012D01*
X113805012Y-192922335D01*
X113911636Y-192851091D01*
X114030110Y-192802017D01*
X114155881Y-192777000D01*
X114284119Y-192777000D01*
X114409890Y-192802017D01*
G37*
G36*
X104409890Y-192802017D02*
G01*
X104528364Y-192851091D01*
X104634988Y-192922335D01*
X104725665Y-193013012D01*
X104796909Y-193119636D01*
X104845983Y-193238110D01*
X104871000Y-193363882D01*
X104871000Y-193492118D01*
X104845983Y-193617890D01*
X104796909Y-193736364D01*
X104725665Y-193842988D01*
X104634988Y-193933665D01*
X104528364Y-194004909D01*
X104528363Y-194004910D01*
X104528362Y-194004910D01*
X104409890Y-194053983D01*
X104284119Y-194079000D01*
X104155881Y-194079000D01*
X104030110Y-194053983D01*
X103911638Y-194004910D01*
X103911637Y-194004910D01*
X103911636Y-194004909D01*
X103805012Y-193933665D01*
X103714335Y-193842988D01*
X103643091Y-193736364D01*
X103594017Y-193617890D01*
X103569000Y-193492118D01*
X103569000Y-193363882D01*
X103594017Y-193238110D01*
X103643091Y-193119636D01*
X103714335Y-193013012D01*
X103805012Y-192922335D01*
X103911636Y-192851091D01*
X104030110Y-192802017D01*
X104155881Y-192777000D01*
X104284119Y-192777000D01*
X104409890Y-192802017D01*
G37*
G36*
X72499890Y-192802017D02*
G01*
X72618364Y-192851091D01*
X72724988Y-192922335D01*
X72815665Y-193013012D01*
X72886909Y-193119636D01*
X72935983Y-193238110D01*
X72961000Y-193363882D01*
X72961000Y-193492118D01*
X72935983Y-193617890D01*
X72886909Y-193736364D01*
X72815665Y-193842988D01*
X72724988Y-193933665D01*
X72618364Y-194004909D01*
X72618363Y-194004910D01*
X72618362Y-194004910D01*
X72499890Y-194053983D01*
X72374119Y-194079000D01*
X72245881Y-194079000D01*
X72120110Y-194053983D01*
X72001638Y-194004910D01*
X72001637Y-194004910D01*
X72001636Y-194004909D01*
X71895012Y-193933665D01*
X71804335Y-193842988D01*
X71733091Y-193736364D01*
X71684017Y-193617890D01*
X71659000Y-193492118D01*
X71659000Y-193363882D01*
X71684017Y-193238110D01*
X71733091Y-193119636D01*
X71804335Y-193013012D01*
X71895012Y-192922335D01*
X72001636Y-192851091D01*
X72120110Y-192802017D01*
X72245881Y-192777000D01*
X72374119Y-192777000D01*
X72499890Y-192802017D01*
G37*
G36*
X62499890Y-192802017D02*
G01*
X62618364Y-192851091D01*
X62724988Y-192922335D01*
X62815665Y-193013012D01*
X62886909Y-193119636D01*
X62935983Y-193238110D01*
X62961000Y-193363882D01*
X62961000Y-193492118D01*
X62935983Y-193617890D01*
X62886909Y-193736364D01*
X62815665Y-193842988D01*
X62724988Y-193933665D01*
X62618364Y-194004909D01*
X62618363Y-194004910D01*
X62618362Y-194004910D01*
X62499890Y-194053983D01*
X62374119Y-194079000D01*
X62245881Y-194079000D01*
X62120110Y-194053983D01*
X62001638Y-194004910D01*
X62001637Y-194004910D01*
X62001636Y-194004909D01*
X61895012Y-193933665D01*
X61804335Y-193842988D01*
X61733091Y-193736364D01*
X61684017Y-193617890D01*
X61659000Y-193492118D01*
X61659000Y-193363882D01*
X61684017Y-193238110D01*
X61733091Y-193119636D01*
X61804335Y-193013012D01*
X61895012Y-192922335D01*
X62001636Y-192851091D01*
X62120110Y-192802017D01*
X62245881Y-192777000D01*
X62374119Y-192777000D01*
X62499890Y-192802017D01*
G37*
G36*
X47687890Y-192802017D02*
G01*
X47806364Y-192851091D01*
X47912988Y-192922335D01*
X48003665Y-193013012D01*
X48074909Y-193119636D01*
X48123983Y-193238110D01*
X48149000Y-193363882D01*
X48149000Y-193492118D01*
X48123983Y-193617890D01*
X48074909Y-193736364D01*
X48003665Y-193842988D01*
X47912988Y-193933665D01*
X47806364Y-194004909D01*
X47806363Y-194004910D01*
X47806362Y-194004910D01*
X47687890Y-194053983D01*
X47562119Y-194079000D01*
X47433881Y-194079000D01*
X47308110Y-194053983D01*
X47189638Y-194004910D01*
X47189637Y-194004910D01*
X47189636Y-194004909D01*
X47083012Y-193933665D01*
X46992335Y-193842988D01*
X46921091Y-193736364D01*
X46872017Y-193617890D01*
X46847000Y-193492118D01*
X46847000Y-193363882D01*
X46872017Y-193238110D01*
X46921091Y-193119636D01*
X46992335Y-193013012D01*
X47083012Y-192922335D01*
X47189636Y-192851091D01*
X47308110Y-192802017D01*
X47433881Y-192777000D01*
X47562119Y-192777000D01*
X47687890Y-192802017D01*
G37*
G36*
X37687890Y-192802017D02*
G01*
X37806364Y-192851091D01*
X37912988Y-192922335D01*
X38003665Y-193013012D01*
X38074909Y-193119636D01*
X38123983Y-193238110D01*
X38149000Y-193363882D01*
X38149000Y-193492118D01*
X38123983Y-193617890D01*
X38074909Y-193736364D01*
X38003665Y-193842988D01*
X37912988Y-193933665D01*
X37806364Y-194004909D01*
X37806363Y-194004910D01*
X37806362Y-194004910D01*
X37687890Y-194053983D01*
X37562119Y-194079000D01*
X37433881Y-194079000D01*
X37308110Y-194053983D01*
X37189638Y-194004910D01*
X37189637Y-194004910D01*
X37189636Y-194004909D01*
X37083012Y-193933665D01*
X36992335Y-193842988D01*
X36921091Y-193736364D01*
X36872017Y-193617890D01*
X36847000Y-193492118D01*
X36847000Y-193363882D01*
X36872017Y-193238110D01*
X36921091Y-193119636D01*
X36992335Y-193013012D01*
X37083012Y-192922335D01*
X37189636Y-192851091D01*
X37308110Y-192802017D01*
X37433881Y-192777000D01*
X37562119Y-192777000D01*
X37687890Y-192802017D01*
G37*
G36*
X78755890Y-192802017D02*
G01*
X78874364Y-192851091D01*
X78980988Y-192922335D01*
X79071665Y-193013012D01*
X79142909Y-193119636D01*
X79191983Y-193238110D01*
X79217000Y-193363882D01*
X79217000Y-193492118D01*
X79191983Y-193617890D01*
X79142909Y-193736364D01*
X79071665Y-193842988D01*
X78980988Y-193933665D01*
X78874364Y-194004909D01*
X78874363Y-194004910D01*
X78874362Y-194004910D01*
X78755890Y-194053983D01*
X78630119Y-194079000D01*
X78501881Y-194079000D01*
X78376110Y-194053983D01*
X78257638Y-194004910D01*
X78257637Y-194004910D01*
X78257636Y-194004909D01*
X78151012Y-193933665D01*
X78060335Y-193842988D01*
X77989091Y-193736364D01*
X77940017Y-193617890D01*
X77915000Y-193492118D01*
X77915000Y-193363882D01*
X77940017Y-193238110D01*
X77989091Y-193119636D01*
X78060335Y-193013012D01*
X78151012Y-192922335D01*
X78257636Y-192851091D01*
X78376110Y-192802017D01*
X78501881Y-192777000D01*
X78630119Y-192777000D01*
X78755890Y-192802017D01*
G37*
G36*
X280027423Y-188431661D02*
G01*
X280418879Y-188593807D01*
X280418881Y-188593808D01*
X280771183Y-188829209D01*
X281070791Y-189128817D01*
X281306192Y-189481119D01*
X281306193Y-189481121D01*
X281468339Y-189872577D01*
X281551000Y-190288144D01*
X281551000Y-190711856D01*
X281468339Y-191127423D01*
X281311979Y-191504910D01*
X281306192Y-191518881D01*
X281070791Y-191871183D01*
X280771183Y-192170791D01*
X280418881Y-192406192D01*
X280418880Y-192406193D01*
X280418879Y-192406193D01*
X280027423Y-192568339D01*
X279611856Y-192651000D01*
X279188144Y-192651000D01*
X278772577Y-192568339D01*
X278381121Y-192406193D01*
X278381120Y-192406193D01*
X278381119Y-192406192D01*
X278028817Y-192170791D01*
X277729209Y-191871183D01*
X277493808Y-191518881D01*
X277488021Y-191504910D01*
X277331661Y-191127423D01*
X277249000Y-190711856D01*
X277249000Y-190288144D01*
X277331661Y-189872577D01*
X277493807Y-189481121D01*
X277493808Y-189481119D01*
X277729209Y-189128817D01*
X278028817Y-188829209D01*
X278381119Y-188593808D01*
X278381121Y-188593807D01*
X278772577Y-188431661D01*
X279188144Y-188349000D01*
X279611856Y-188349000D01*
X280027423Y-188431661D01*
G37*
G36*
X84867000Y-191879000D02*
G01*
X82265000Y-191879000D01*
X82265000Y-189977000D01*
X84867000Y-189977000D01*
X84867000Y-191879000D01*
G37*
G36*
X126777000Y-191879000D02*
G01*
X124175000Y-191879000D01*
X124175000Y-189977000D01*
X126777000Y-189977000D01*
X126777000Y-191879000D01*
G37*
G36*
X43799000Y-191879000D02*
G01*
X41197000Y-191879000D01*
X41197000Y-189977000D01*
X43799000Y-189977000D01*
X43799000Y-191879000D01*
G37*
G36*
X68611000Y-191879000D02*
G01*
X66009000Y-191879000D01*
X66009000Y-189977000D01*
X68611000Y-189977000D01*
X68611000Y-191879000D01*
G37*
G36*
X167671000Y-191879000D02*
G01*
X165069000Y-191879000D01*
X165069000Y-189977000D01*
X167671000Y-189977000D01*
X167671000Y-191879000D01*
G37*
G36*
X143033000Y-191879000D02*
G01*
X140431000Y-191879000D01*
X140431000Y-189977000D01*
X143033000Y-189977000D01*
X143033000Y-191879000D01*
G37*
G36*
X110521000Y-191879000D02*
G01*
X107919000Y-191879000D01*
X107919000Y-189977000D01*
X110521000Y-189977000D01*
X110521000Y-191879000D01*
G37*
G36*
X171559890Y-190302017D02*
G01*
X171678364Y-190351091D01*
X171784988Y-190422335D01*
X171875665Y-190513012D01*
X171946909Y-190619636D01*
X171995983Y-190738110D01*
X172021000Y-190863882D01*
X172021000Y-190992118D01*
X171995983Y-191117890D01*
X171946909Y-191236364D01*
X171875665Y-191342988D01*
X171784988Y-191433665D01*
X171678364Y-191504909D01*
X171678363Y-191504910D01*
X171678362Y-191504910D01*
X171559890Y-191553983D01*
X171434119Y-191579000D01*
X171305881Y-191579000D01*
X171180110Y-191553983D01*
X171061638Y-191504910D01*
X171061637Y-191504910D01*
X171061636Y-191504909D01*
X170955012Y-191433665D01*
X170864335Y-191342988D01*
X170793091Y-191236364D01*
X170744017Y-191117890D01*
X170719000Y-190992118D01*
X170719000Y-190863882D01*
X170744017Y-190738110D01*
X170793091Y-190619636D01*
X170864335Y-190513012D01*
X170955012Y-190422335D01*
X171061636Y-190351091D01*
X171180110Y-190302017D01*
X171305881Y-190277000D01*
X171434119Y-190277000D01*
X171559890Y-190302017D01*
G37*
G36*
X114409890Y-190302017D02*
G01*
X114528364Y-190351091D01*
X114634988Y-190422335D01*
X114725665Y-190513012D01*
X114796909Y-190619636D01*
X114845983Y-190738110D01*
X114871000Y-190863882D01*
X114871000Y-190992118D01*
X114845983Y-191117890D01*
X114796909Y-191236364D01*
X114725665Y-191342988D01*
X114634988Y-191433665D01*
X114528364Y-191504909D01*
X114528363Y-191504910D01*
X114528362Y-191504910D01*
X114409890Y-191553983D01*
X114284119Y-191579000D01*
X114155881Y-191579000D01*
X114030110Y-191553983D01*
X113911638Y-191504910D01*
X113911637Y-191504910D01*
X113911636Y-191504909D01*
X113805012Y-191433665D01*
X113714335Y-191342988D01*
X113643091Y-191236364D01*
X113594017Y-191117890D01*
X113569000Y-190992118D01*
X113569000Y-190863882D01*
X113594017Y-190738110D01*
X113643091Y-190619636D01*
X113714335Y-190513012D01*
X113805012Y-190422335D01*
X113911636Y-190351091D01*
X114030110Y-190302017D01*
X114155881Y-190277000D01*
X114284119Y-190277000D01*
X114409890Y-190302017D01*
G37*
G36*
X37687890Y-190302017D02*
G01*
X37806364Y-190351091D01*
X37912988Y-190422335D01*
X38003665Y-190513012D01*
X38074909Y-190619636D01*
X38123983Y-190738110D01*
X38149000Y-190863882D01*
X38149000Y-190992118D01*
X38123983Y-191117890D01*
X38074909Y-191236364D01*
X38003665Y-191342988D01*
X37912988Y-191433665D01*
X37806364Y-191504909D01*
X37806363Y-191504910D01*
X37806362Y-191504910D01*
X37687890Y-191553983D01*
X37562119Y-191579000D01*
X37433881Y-191579000D01*
X37308110Y-191553983D01*
X37189638Y-191504910D01*
X37189637Y-191504910D01*
X37189636Y-191504909D01*
X37083012Y-191433665D01*
X36992335Y-191342988D01*
X36921091Y-191236364D01*
X36872017Y-191117890D01*
X36847000Y-190992118D01*
X36847000Y-190863882D01*
X36872017Y-190738110D01*
X36921091Y-190619636D01*
X36992335Y-190513012D01*
X37083012Y-190422335D01*
X37189636Y-190351091D01*
X37308110Y-190302017D01*
X37433881Y-190277000D01*
X37562119Y-190277000D01*
X37687890Y-190302017D01*
G37*
G36*
X47687890Y-190302017D02*
G01*
X47806364Y-190351091D01*
X47912988Y-190422335D01*
X48003665Y-190513012D01*
X48074909Y-190619636D01*
X48123983Y-190738110D01*
X48149000Y-190863882D01*
X48149000Y-190992118D01*
X48123983Y-191117890D01*
X48074909Y-191236364D01*
X48003665Y-191342988D01*
X47912988Y-191433665D01*
X47806364Y-191504909D01*
X47806363Y-191504910D01*
X47806362Y-191504910D01*
X47687890Y-191553983D01*
X47562119Y-191579000D01*
X47433881Y-191579000D01*
X47308110Y-191553983D01*
X47189638Y-191504910D01*
X47189637Y-191504910D01*
X47189636Y-191504909D01*
X47083012Y-191433665D01*
X46992335Y-191342988D01*
X46921091Y-191236364D01*
X46872017Y-191117890D01*
X46847000Y-190992118D01*
X46847000Y-190863882D01*
X46872017Y-190738110D01*
X46921091Y-190619636D01*
X46992335Y-190513012D01*
X47083012Y-190422335D01*
X47189636Y-190351091D01*
X47308110Y-190302017D01*
X47433881Y-190277000D01*
X47562119Y-190277000D01*
X47687890Y-190302017D01*
G37*
G36*
X62499890Y-190302017D02*
G01*
X62618364Y-190351091D01*
X62724988Y-190422335D01*
X62815665Y-190513012D01*
X62886909Y-190619636D01*
X62935983Y-190738110D01*
X62961000Y-190863882D01*
X62961000Y-190992118D01*
X62935983Y-191117890D01*
X62886909Y-191236364D01*
X62815665Y-191342988D01*
X62724988Y-191433665D01*
X62618364Y-191504909D01*
X62618363Y-191504910D01*
X62618362Y-191504910D01*
X62499890Y-191553983D01*
X62374119Y-191579000D01*
X62245881Y-191579000D01*
X62120110Y-191553983D01*
X62001638Y-191504910D01*
X62001637Y-191504910D01*
X62001636Y-191504909D01*
X61895012Y-191433665D01*
X61804335Y-191342988D01*
X61733091Y-191236364D01*
X61684017Y-191117890D01*
X61659000Y-190992118D01*
X61659000Y-190863882D01*
X61684017Y-190738110D01*
X61733091Y-190619636D01*
X61804335Y-190513012D01*
X61895012Y-190422335D01*
X62001636Y-190351091D01*
X62120110Y-190302017D01*
X62245881Y-190277000D01*
X62374119Y-190277000D01*
X62499890Y-190302017D01*
G37*
G36*
X72499890Y-190302017D02*
G01*
X72618364Y-190351091D01*
X72724988Y-190422335D01*
X72815665Y-190513012D01*
X72886909Y-190619636D01*
X72935983Y-190738110D01*
X72961000Y-190863882D01*
X72961000Y-190992118D01*
X72935983Y-191117890D01*
X72886909Y-191236364D01*
X72815665Y-191342988D01*
X72724988Y-191433665D01*
X72618364Y-191504909D01*
X72618363Y-191504910D01*
X72618362Y-191504910D01*
X72499890Y-191553983D01*
X72374119Y-191579000D01*
X72245881Y-191579000D01*
X72120110Y-191553983D01*
X72001638Y-191504910D01*
X72001637Y-191504910D01*
X72001636Y-191504909D01*
X71895012Y-191433665D01*
X71804335Y-191342988D01*
X71733091Y-191236364D01*
X71684017Y-191117890D01*
X71659000Y-190992118D01*
X71659000Y-190863882D01*
X71684017Y-190738110D01*
X71733091Y-190619636D01*
X71804335Y-190513012D01*
X71895012Y-190422335D01*
X72001636Y-190351091D01*
X72120110Y-190302017D01*
X72245881Y-190277000D01*
X72374119Y-190277000D01*
X72499890Y-190302017D01*
G37*
G36*
X161559890Y-190302017D02*
G01*
X161678364Y-190351091D01*
X161784988Y-190422335D01*
X161875665Y-190513012D01*
X161946909Y-190619636D01*
X161995983Y-190738110D01*
X162021000Y-190863882D01*
X162021000Y-190992118D01*
X161995983Y-191117890D01*
X161946909Y-191236364D01*
X161875665Y-191342988D01*
X161784988Y-191433665D01*
X161678364Y-191504909D01*
X161678363Y-191504910D01*
X161678362Y-191504910D01*
X161559890Y-191553983D01*
X161434119Y-191579000D01*
X161305881Y-191579000D01*
X161180110Y-191553983D01*
X161061638Y-191504910D01*
X161061637Y-191504910D01*
X161061636Y-191504909D01*
X160955012Y-191433665D01*
X160864335Y-191342988D01*
X160793091Y-191236364D01*
X160744017Y-191117890D01*
X160719000Y-190992118D01*
X160719000Y-190863882D01*
X160744017Y-190738110D01*
X160793091Y-190619636D01*
X160864335Y-190513012D01*
X160955012Y-190422335D01*
X161061636Y-190351091D01*
X161180110Y-190302017D01*
X161305881Y-190277000D01*
X161434119Y-190277000D01*
X161559890Y-190302017D01*
G37*
G36*
X104409890Y-190302017D02*
G01*
X104528364Y-190351091D01*
X104634988Y-190422335D01*
X104725665Y-190513012D01*
X104796909Y-190619636D01*
X104845983Y-190738110D01*
X104871000Y-190863882D01*
X104871000Y-190992118D01*
X104845983Y-191117890D01*
X104796909Y-191236364D01*
X104725665Y-191342988D01*
X104634988Y-191433665D01*
X104528364Y-191504909D01*
X104528363Y-191504910D01*
X104528362Y-191504910D01*
X104409890Y-191553983D01*
X104284119Y-191579000D01*
X104155881Y-191579000D01*
X104030110Y-191553983D01*
X103911638Y-191504910D01*
X103911637Y-191504910D01*
X103911636Y-191504909D01*
X103805012Y-191433665D01*
X103714335Y-191342988D01*
X103643091Y-191236364D01*
X103594017Y-191117890D01*
X103569000Y-190992118D01*
X103569000Y-190863882D01*
X103594017Y-190738110D01*
X103643091Y-190619636D01*
X103714335Y-190513012D01*
X103805012Y-190422335D01*
X103911636Y-190351091D01*
X104030110Y-190302017D01*
X104155881Y-190277000D01*
X104284119Y-190277000D01*
X104409890Y-190302017D01*
G37*
G36*
X136921890Y-190302017D02*
G01*
X137040364Y-190351091D01*
X137146988Y-190422335D01*
X137237665Y-190513012D01*
X137308909Y-190619636D01*
X137357983Y-190738110D01*
X137383000Y-190863882D01*
X137383000Y-190992118D01*
X137357983Y-191117890D01*
X137308909Y-191236364D01*
X137237665Y-191342988D01*
X137146988Y-191433665D01*
X137040364Y-191504909D01*
X137040363Y-191504910D01*
X137040362Y-191504910D01*
X136921890Y-191553983D01*
X136796119Y-191579000D01*
X136667881Y-191579000D01*
X136542110Y-191553983D01*
X136423638Y-191504910D01*
X136423637Y-191504910D01*
X136423636Y-191504909D01*
X136317012Y-191433665D01*
X136226335Y-191342988D01*
X136155091Y-191236364D01*
X136106017Y-191117890D01*
X136081000Y-190992118D01*
X136081000Y-190863882D01*
X136106017Y-190738110D01*
X136155091Y-190619636D01*
X136226335Y-190513012D01*
X136317012Y-190422335D01*
X136423636Y-190351091D01*
X136542110Y-190302017D01*
X136667881Y-190277000D01*
X136796119Y-190277000D01*
X136921890Y-190302017D01*
G37*
G36*
X146921890Y-190302017D02*
G01*
X147040364Y-190351091D01*
X147146988Y-190422335D01*
X147237665Y-190513012D01*
X147308909Y-190619636D01*
X147357983Y-190738110D01*
X147383000Y-190863882D01*
X147383000Y-190992118D01*
X147357983Y-191117890D01*
X147308909Y-191236364D01*
X147237665Y-191342988D01*
X147146988Y-191433665D01*
X147040364Y-191504909D01*
X147040363Y-191504910D01*
X147040362Y-191504910D01*
X146921890Y-191553983D01*
X146796119Y-191579000D01*
X146667881Y-191579000D01*
X146542110Y-191553983D01*
X146423638Y-191504910D01*
X146423637Y-191504910D01*
X146423636Y-191504909D01*
X146317012Y-191433665D01*
X146226335Y-191342988D01*
X146155091Y-191236364D01*
X146106017Y-191117890D01*
X146081000Y-190992118D01*
X146081000Y-190863882D01*
X146106017Y-190738110D01*
X146155091Y-190619636D01*
X146226335Y-190513012D01*
X146317012Y-190422335D01*
X146423636Y-190351091D01*
X146542110Y-190302017D01*
X146667881Y-190277000D01*
X146796119Y-190277000D01*
X146921890Y-190302017D01*
G37*
G36*
X78755890Y-190302017D02*
G01*
X78874364Y-190351091D01*
X78980988Y-190422335D01*
X79071665Y-190513012D01*
X79142909Y-190619636D01*
X79191983Y-190738110D01*
X79217000Y-190863882D01*
X79217000Y-190992118D01*
X79191983Y-191117890D01*
X79142909Y-191236364D01*
X79071665Y-191342988D01*
X78980988Y-191433665D01*
X78874364Y-191504909D01*
X78874363Y-191504910D01*
X78874362Y-191504910D01*
X78755890Y-191553983D01*
X78630119Y-191579000D01*
X78501881Y-191579000D01*
X78376110Y-191553983D01*
X78257638Y-191504910D01*
X78257637Y-191504910D01*
X78257636Y-191504909D01*
X78151012Y-191433665D01*
X78060335Y-191342988D01*
X77989091Y-191236364D01*
X77940017Y-191117890D01*
X77915000Y-190992118D01*
X77915000Y-190863882D01*
X77940017Y-190738110D01*
X77989091Y-190619636D01*
X78060335Y-190513012D01*
X78151012Y-190422335D01*
X78257636Y-190351091D01*
X78376110Y-190302017D01*
X78501881Y-190277000D01*
X78630119Y-190277000D01*
X78755890Y-190302017D01*
G37*
G36*
X88755890Y-190302017D02*
G01*
X88874364Y-190351091D01*
X88980988Y-190422335D01*
X89071665Y-190513012D01*
X89142909Y-190619636D01*
X89191983Y-190738110D01*
X89217000Y-190863882D01*
X89217000Y-190992118D01*
X89191983Y-191117890D01*
X89142909Y-191236364D01*
X89071665Y-191342988D01*
X88980988Y-191433665D01*
X88874364Y-191504909D01*
X88874363Y-191504910D01*
X88874362Y-191504910D01*
X88755890Y-191553983D01*
X88630119Y-191579000D01*
X88501881Y-191579000D01*
X88376110Y-191553983D01*
X88257638Y-191504910D01*
X88257637Y-191504910D01*
X88257636Y-191504909D01*
X88151012Y-191433665D01*
X88060335Y-191342988D01*
X87989091Y-191236364D01*
X87940017Y-191117890D01*
X87915000Y-190992118D01*
X87915000Y-190863882D01*
X87940017Y-190738110D01*
X87989091Y-190619636D01*
X88060335Y-190513012D01*
X88151012Y-190422335D01*
X88257636Y-190351091D01*
X88376110Y-190302017D01*
X88501881Y-190277000D01*
X88630119Y-190277000D01*
X88755890Y-190302017D01*
G37*
G36*
X130665890Y-190302017D02*
G01*
X130784364Y-190351091D01*
X130890988Y-190422335D01*
X130981665Y-190513012D01*
X131052909Y-190619636D01*
X131101983Y-190738110D01*
X131127000Y-190863882D01*
X131127000Y-190992118D01*
X131101983Y-191117890D01*
X131052909Y-191236364D01*
X130981665Y-191342988D01*
X130890988Y-191433665D01*
X130784364Y-191504909D01*
X130784363Y-191504910D01*
X130784362Y-191504910D01*
X130665890Y-191553983D01*
X130540119Y-191579000D01*
X130411881Y-191579000D01*
X130286110Y-191553983D01*
X130167638Y-191504910D01*
X130167637Y-191504910D01*
X130167636Y-191504909D01*
X130061012Y-191433665D01*
X129970335Y-191342988D01*
X129899091Y-191236364D01*
X129850017Y-191117890D01*
X129825000Y-190992118D01*
X129825000Y-190863882D01*
X129850017Y-190738110D01*
X129899091Y-190619636D01*
X129970335Y-190513012D01*
X130061012Y-190422335D01*
X130167636Y-190351091D01*
X130286110Y-190302017D01*
X130411881Y-190277000D01*
X130540119Y-190277000D01*
X130665890Y-190302017D01*
G37*
G36*
X120665890Y-190302017D02*
G01*
X120784364Y-190351091D01*
X120890988Y-190422335D01*
X120981665Y-190513012D01*
X121052909Y-190619636D01*
X121101983Y-190738110D01*
X121127000Y-190863882D01*
X121127000Y-190992118D01*
X121101983Y-191117890D01*
X121052909Y-191236364D01*
X120981665Y-191342988D01*
X120890988Y-191433665D01*
X120784364Y-191504909D01*
X120784363Y-191504910D01*
X120784362Y-191504910D01*
X120665890Y-191553983D01*
X120540119Y-191579000D01*
X120411881Y-191579000D01*
X120286110Y-191553983D01*
X120167638Y-191504910D01*
X120167637Y-191504910D01*
X120167636Y-191504909D01*
X120061012Y-191433665D01*
X119970335Y-191342988D01*
X119899091Y-191236364D01*
X119850017Y-191117890D01*
X119825000Y-190992118D01*
X119825000Y-190863882D01*
X119850017Y-190738110D01*
X119899091Y-190619636D01*
X119970335Y-190513012D01*
X120061012Y-190422335D01*
X120167636Y-190351091D01*
X120286110Y-190302017D01*
X120411881Y-190277000D01*
X120540119Y-190277000D01*
X120665890Y-190302017D01*
G37*
G36*
X137683000Y-187229000D02*
G01*
X135781000Y-187229000D01*
X135781000Y-184627000D01*
X137683000Y-184627000D01*
X137683000Y-187229000D01*
G37*
G36*
X48449000Y-187229000D02*
G01*
X46547000Y-187229000D01*
X46547000Y-184627000D01*
X48449000Y-184627000D01*
X48449000Y-187229000D01*
G37*
G36*
X63261000Y-187229000D02*
G01*
X61359000Y-187229000D01*
X61359000Y-184627000D01*
X63261000Y-184627000D01*
X63261000Y-187229000D01*
G37*
G36*
X73261000Y-187229000D02*
G01*
X71359000Y-187229000D01*
X71359000Y-184627000D01*
X73261000Y-184627000D01*
X73261000Y-187229000D01*
G37*
G36*
X105171000Y-187229000D02*
G01*
X103269000Y-187229000D01*
X103269000Y-184627000D01*
X105171000Y-184627000D01*
X105171000Y-187229000D01*
G37*
G36*
X115171000Y-187229000D02*
G01*
X113269000Y-187229000D01*
X113269000Y-184627000D01*
X115171000Y-184627000D01*
X115171000Y-187229000D01*
G37*
G36*
X79517000Y-187229000D02*
G01*
X77615000Y-187229000D01*
X77615000Y-184627000D01*
X79517000Y-184627000D01*
X79517000Y-187229000D01*
G37*
G36*
X121427000Y-187229000D02*
G01*
X119525000Y-187229000D01*
X119525000Y-184627000D01*
X121427000Y-184627000D01*
X121427000Y-187229000D01*
G37*
G36*
X131427000Y-187229000D02*
G01*
X129525000Y-187229000D01*
X129525000Y-184627000D01*
X131427000Y-184627000D01*
X131427000Y-187229000D01*
G37*
G36*
X147683000Y-187229000D02*
G01*
X145781000Y-187229000D01*
X145781000Y-184627000D01*
X147683000Y-184627000D01*
X147683000Y-187229000D01*
G37*
G36*
X38449000Y-187229000D02*
G01*
X36547000Y-187229000D01*
X36547000Y-184627000D01*
X38449000Y-184627000D01*
X38449000Y-187229000D01*
G37*
G36*
X172321000Y-187229000D02*
G01*
X170419000Y-187229000D01*
X170419000Y-184627000D01*
X172321000Y-184627000D01*
X172321000Y-187229000D01*
G37*
G36*
X162321000Y-187229000D02*
G01*
X160419000Y-187229000D01*
X160419000Y-184627000D01*
X162321000Y-184627000D01*
X162321000Y-187229000D01*
G37*
G36*
X89517000Y-187229000D02*
G01*
X87615000Y-187229000D01*
X87615000Y-184627000D01*
X89517000Y-184627000D01*
X89517000Y-187229000D01*
G37*
G36*
X125665890Y-185302017D02*
G01*
X125784364Y-185351091D01*
X125890988Y-185422335D01*
X125981665Y-185513012D01*
X126052909Y-185619636D01*
X126101983Y-185738110D01*
X126127000Y-185863882D01*
X126127000Y-185992118D01*
X126101983Y-186117890D01*
X126052909Y-186236364D01*
X125981665Y-186342988D01*
X125890988Y-186433665D01*
X125784364Y-186504909D01*
X125784363Y-186504910D01*
X125784362Y-186504910D01*
X125665890Y-186553983D01*
X125540119Y-186579000D01*
X125411881Y-186579000D01*
X125286110Y-186553983D01*
X125167638Y-186504910D01*
X125167637Y-186504910D01*
X125167636Y-186504909D01*
X125061012Y-186433665D01*
X124970335Y-186342988D01*
X124899091Y-186236364D01*
X124850017Y-186117890D01*
X124825000Y-185992118D01*
X124825000Y-185863882D01*
X124850017Y-185738110D01*
X124899091Y-185619636D01*
X124970335Y-185513012D01*
X125061012Y-185422335D01*
X125167636Y-185351091D01*
X125286110Y-185302017D01*
X125411881Y-185277000D01*
X125540119Y-185277000D01*
X125665890Y-185302017D01*
G37*
G36*
X166559890Y-185302017D02*
G01*
X166678364Y-185351091D01*
X166784988Y-185422335D01*
X166875665Y-185513012D01*
X166946909Y-185619636D01*
X166995983Y-185738110D01*
X167021000Y-185863882D01*
X167021000Y-185992118D01*
X166995983Y-186117890D01*
X166946909Y-186236364D01*
X166875665Y-186342988D01*
X166784988Y-186433665D01*
X166678364Y-186504909D01*
X166678363Y-186504910D01*
X166678362Y-186504910D01*
X166559890Y-186553983D01*
X166434119Y-186579000D01*
X166305881Y-186579000D01*
X166180110Y-186553983D01*
X166061638Y-186504910D01*
X166061637Y-186504910D01*
X166061636Y-186504909D01*
X165955012Y-186433665D01*
X165864335Y-186342988D01*
X165793091Y-186236364D01*
X165744017Y-186117890D01*
X165719000Y-185992118D01*
X165719000Y-185863882D01*
X165744017Y-185738110D01*
X165793091Y-185619636D01*
X165864335Y-185513012D01*
X165955012Y-185422335D01*
X166061636Y-185351091D01*
X166180110Y-185302017D01*
X166305881Y-185277000D01*
X166434119Y-185277000D01*
X166559890Y-185302017D01*
G37*
G36*
X141921890Y-185302017D02*
G01*
X142040364Y-185351091D01*
X142146988Y-185422335D01*
X142237665Y-185513012D01*
X142308909Y-185619636D01*
X142357983Y-185738110D01*
X142383000Y-185863882D01*
X142383000Y-185992118D01*
X142357983Y-186117890D01*
X142308909Y-186236364D01*
X142237665Y-186342988D01*
X142146988Y-186433665D01*
X142040364Y-186504909D01*
X142040363Y-186504910D01*
X142040362Y-186504910D01*
X141921890Y-186553983D01*
X141796119Y-186579000D01*
X141667881Y-186579000D01*
X141542110Y-186553983D01*
X141423638Y-186504910D01*
X141423637Y-186504910D01*
X141423636Y-186504909D01*
X141317012Y-186433665D01*
X141226335Y-186342988D01*
X141155091Y-186236364D01*
X141106017Y-186117890D01*
X141081000Y-185992118D01*
X141081000Y-185863882D01*
X141106017Y-185738110D01*
X141155091Y-185619636D01*
X141226335Y-185513012D01*
X141317012Y-185422335D01*
X141423636Y-185351091D01*
X141542110Y-185302017D01*
X141667881Y-185277000D01*
X141796119Y-185277000D01*
X141921890Y-185302017D01*
G37*
G36*
X83755890Y-185302017D02*
G01*
X83874364Y-185351091D01*
X83980988Y-185422335D01*
X84071665Y-185513012D01*
X84142909Y-185619636D01*
X84191983Y-185738110D01*
X84217000Y-185863882D01*
X84217000Y-185992118D01*
X84191983Y-186117890D01*
X84142909Y-186236364D01*
X84071665Y-186342988D01*
X83980988Y-186433665D01*
X83874364Y-186504909D01*
X83874363Y-186504910D01*
X83874362Y-186504910D01*
X83755890Y-186553983D01*
X83630119Y-186579000D01*
X83501881Y-186579000D01*
X83376110Y-186553983D01*
X83257638Y-186504910D01*
X83257637Y-186504910D01*
X83257636Y-186504909D01*
X83151012Y-186433665D01*
X83060335Y-186342988D01*
X82989091Y-186236364D01*
X82940017Y-186117890D01*
X82915000Y-185992118D01*
X82915000Y-185863882D01*
X82940017Y-185738110D01*
X82989091Y-185619636D01*
X83060335Y-185513012D01*
X83151012Y-185422335D01*
X83257636Y-185351091D01*
X83376110Y-185302017D01*
X83501881Y-185277000D01*
X83630119Y-185277000D01*
X83755890Y-185302017D01*
G37*
G36*
X42687890Y-185302017D02*
G01*
X42806364Y-185351091D01*
X42912988Y-185422335D01*
X43003665Y-185513012D01*
X43074909Y-185619636D01*
X43123983Y-185738110D01*
X43149000Y-185863882D01*
X43149000Y-185992118D01*
X43123983Y-186117890D01*
X43074909Y-186236364D01*
X43003665Y-186342988D01*
X42912988Y-186433665D01*
X42806364Y-186504909D01*
X42806363Y-186504910D01*
X42806362Y-186504910D01*
X42687890Y-186553983D01*
X42562119Y-186579000D01*
X42433881Y-186579000D01*
X42308110Y-186553983D01*
X42189638Y-186504910D01*
X42189637Y-186504910D01*
X42189636Y-186504909D01*
X42083012Y-186433665D01*
X41992335Y-186342988D01*
X41921091Y-186236364D01*
X41872017Y-186117890D01*
X41847000Y-185992118D01*
X41847000Y-185863882D01*
X41872017Y-185738110D01*
X41921091Y-185619636D01*
X41992335Y-185513012D01*
X42083012Y-185422335D01*
X42189636Y-185351091D01*
X42308110Y-185302017D01*
X42433881Y-185277000D01*
X42562119Y-185277000D01*
X42687890Y-185302017D01*
G37*
G36*
X67499890Y-185302017D02*
G01*
X67618364Y-185351091D01*
X67724988Y-185422335D01*
X67815665Y-185513012D01*
X67886909Y-185619636D01*
X67935983Y-185738110D01*
X67961000Y-185863882D01*
X67961000Y-185992118D01*
X67935983Y-186117890D01*
X67886909Y-186236364D01*
X67815665Y-186342988D01*
X67724988Y-186433665D01*
X67618364Y-186504909D01*
X67618363Y-186504910D01*
X67618362Y-186504910D01*
X67499890Y-186553983D01*
X67374119Y-186579000D01*
X67245881Y-186579000D01*
X67120110Y-186553983D01*
X67001638Y-186504910D01*
X67001637Y-186504910D01*
X67001636Y-186504909D01*
X66895012Y-186433665D01*
X66804335Y-186342988D01*
X66733091Y-186236364D01*
X66684017Y-186117890D01*
X66659000Y-185992118D01*
X66659000Y-185863882D01*
X66684017Y-185738110D01*
X66733091Y-185619636D01*
X66804335Y-185513012D01*
X66895012Y-185422335D01*
X67001636Y-185351091D01*
X67120110Y-185302017D01*
X67245881Y-185277000D01*
X67374119Y-185277000D01*
X67499890Y-185302017D01*
G37*
G36*
X109409890Y-185302017D02*
G01*
X109528364Y-185351091D01*
X109634988Y-185422335D01*
X109725665Y-185513012D01*
X109796909Y-185619636D01*
X109845983Y-185738110D01*
X109871000Y-185863882D01*
X109871000Y-185992118D01*
X109845983Y-186117890D01*
X109796909Y-186236364D01*
X109725665Y-186342988D01*
X109634988Y-186433665D01*
X109528364Y-186504909D01*
X109528363Y-186504910D01*
X109528362Y-186504910D01*
X109409890Y-186553983D01*
X109284119Y-186579000D01*
X109155881Y-186579000D01*
X109030110Y-186553983D01*
X108911638Y-186504910D01*
X108911637Y-186504910D01*
X108911636Y-186504909D01*
X108805012Y-186433665D01*
X108714335Y-186342988D01*
X108643091Y-186236364D01*
X108594017Y-186117890D01*
X108569000Y-185992118D01*
X108569000Y-185863882D01*
X108594017Y-185738110D01*
X108643091Y-185619636D01*
X108714335Y-185513012D01*
X108805012Y-185422335D01*
X108911636Y-185351091D01*
X109030110Y-185302017D01*
X109155881Y-185277000D01*
X109284119Y-185277000D01*
X109409890Y-185302017D01*
G37*
G36*
X31998228Y-184347703D02*
G01*
X32153100Y-184411853D01*
X32292481Y-184504985D01*
X32411015Y-184623519D01*
X32504147Y-184762900D01*
X32568297Y-184917772D01*
X32601000Y-185082184D01*
X32601000Y-185249816D01*
X32568297Y-185414228D01*
X32504147Y-185569100D01*
X32411015Y-185708481D01*
X32292481Y-185827015D01*
X32153100Y-185920147D01*
X31998228Y-185984297D01*
X31833816Y-186017000D01*
X31666184Y-186017000D01*
X31501772Y-185984297D01*
X31346900Y-185920147D01*
X31207519Y-185827015D01*
X31088985Y-185708481D01*
X30995853Y-185569100D01*
X30931703Y-185414228D01*
X30899000Y-185249816D01*
X30899000Y-185082184D01*
X30931703Y-184917772D01*
X30995853Y-184762900D01*
X31088985Y-184623519D01*
X31207519Y-184504985D01*
X31346900Y-184411853D01*
X31501772Y-184347703D01*
X31666184Y-184315000D01*
X31833816Y-184315000D01*
X31998228Y-184347703D01*
G37*
G36*
X169695395Y-172059546D02*
G01*
X169868466Y-172131234D01*
X169868467Y-172131235D01*
X170024227Y-172235310D01*
X170156690Y-172367773D01*
X170156691Y-172367775D01*
X170260766Y-172523534D01*
X170332454Y-172696605D01*
X170369000Y-172880333D01*
X170369000Y-173067667D01*
X170332454Y-173251395D01*
X170260766Y-173424466D01*
X170260765Y-173424467D01*
X170156690Y-173580227D01*
X170024227Y-173712690D01*
X169945818Y-173765081D01*
X169868466Y-173816766D01*
X169695395Y-173888454D01*
X169511667Y-173925000D01*
X169324333Y-173925000D01*
X169140605Y-173888454D01*
X168967534Y-173816766D01*
X168890182Y-173765081D01*
X168811773Y-173712690D01*
X168679310Y-173580227D01*
X168575235Y-173424467D01*
X168575234Y-173424466D01*
X168503546Y-173251395D01*
X168467000Y-173067667D01*
X168467000Y-172880333D01*
X168503546Y-172696605D01*
X168575234Y-172523534D01*
X168679309Y-172367775D01*
X168679310Y-172367773D01*
X168811773Y-172235310D01*
X168967533Y-172131235D01*
X168967534Y-172131234D01*
X169140605Y-172059546D01*
X169324333Y-172023000D01*
X169511667Y-172023000D01*
X169695395Y-172059546D01*
G37*
G36*
X164615395Y-172059546D02*
G01*
X164788466Y-172131234D01*
X164788467Y-172131235D01*
X164944227Y-172235310D01*
X165076690Y-172367773D01*
X165076691Y-172367775D01*
X165180766Y-172523534D01*
X165252454Y-172696605D01*
X165289000Y-172880333D01*
X165289000Y-173067667D01*
X165252454Y-173251395D01*
X165180766Y-173424466D01*
X165180765Y-173424467D01*
X165076690Y-173580227D01*
X164944227Y-173712690D01*
X164865818Y-173765081D01*
X164788466Y-173816766D01*
X164615395Y-173888454D01*
X164431667Y-173925000D01*
X164244333Y-173925000D01*
X164060605Y-173888454D01*
X163887534Y-173816766D01*
X163810182Y-173765081D01*
X163731773Y-173712690D01*
X163599310Y-173580227D01*
X163495235Y-173424467D01*
X163495234Y-173424466D01*
X163423546Y-173251395D01*
X163387000Y-173067667D01*
X163387000Y-172880333D01*
X163423546Y-172696605D01*
X163495234Y-172523534D01*
X163599309Y-172367775D01*
X163599310Y-172367773D01*
X163731773Y-172235310D01*
X163887533Y-172131235D01*
X163887534Y-172131234D01*
X164060605Y-172059546D01*
X164244333Y-172023000D01*
X164431667Y-172023000D01*
X164615395Y-172059546D01*
G37*
G36*
X169695395Y-169519546D02*
G01*
X169868466Y-169591234D01*
X169868467Y-169591235D01*
X170024227Y-169695310D01*
X170156690Y-169827773D01*
X170156691Y-169827775D01*
X170260766Y-169983534D01*
X170332454Y-170156605D01*
X170369000Y-170340333D01*
X170369000Y-170527667D01*
X170332454Y-170711395D01*
X170260766Y-170884466D01*
X170260765Y-170884467D01*
X170156690Y-171040227D01*
X170024227Y-171172690D01*
X169945818Y-171225081D01*
X169868466Y-171276766D01*
X169695395Y-171348454D01*
X169511667Y-171385000D01*
X169324333Y-171385000D01*
X169140605Y-171348454D01*
X168967534Y-171276766D01*
X168890182Y-171225081D01*
X168811773Y-171172690D01*
X168679310Y-171040227D01*
X168575235Y-170884467D01*
X168575234Y-170884466D01*
X168503546Y-170711395D01*
X168467000Y-170527667D01*
X168467000Y-170340333D01*
X168503546Y-170156605D01*
X168575234Y-169983534D01*
X168679309Y-169827775D01*
X168679310Y-169827773D01*
X168811773Y-169695310D01*
X168967533Y-169591235D01*
X168967534Y-169591234D01*
X169140605Y-169519546D01*
X169324333Y-169483000D01*
X169511667Y-169483000D01*
X169695395Y-169519546D01*
G37*
G36*
X164615395Y-169519546D02*
G01*
X164788466Y-169591234D01*
X164788467Y-169591235D01*
X164944227Y-169695310D01*
X165076690Y-169827773D01*
X165076691Y-169827775D01*
X165180766Y-169983534D01*
X165252454Y-170156605D01*
X165289000Y-170340333D01*
X165289000Y-170527667D01*
X165252454Y-170711395D01*
X165180766Y-170884466D01*
X165180765Y-170884467D01*
X165076690Y-171040227D01*
X164944227Y-171172690D01*
X164865818Y-171225081D01*
X164788466Y-171276766D01*
X164615395Y-171348454D01*
X164431667Y-171385000D01*
X164244333Y-171385000D01*
X164060605Y-171348454D01*
X163887534Y-171276766D01*
X163810182Y-171225081D01*
X163731773Y-171172690D01*
X163599310Y-171040227D01*
X163495235Y-170884467D01*
X163495234Y-170884466D01*
X163423546Y-170711395D01*
X163387000Y-170527667D01*
X163387000Y-170340333D01*
X163423546Y-170156605D01*
X163495234Y-169983534D01*
X163599309Y-169827775D01*
X163599310Y-169827773D01*
X163731773Y-169695310D01*
X163887533Y-169591235D01*
X163887534Y-169591234D01*
X164060605Y-169519546D01*
X164244333Y-169483000D01*
X164431667Y-169483000D01*
X164615395Y-169519546D01*
G37*
G36*
X164615395Y-166979546D02*
G01*
X164788466Y-167051234D01*
X164788467Y-167051235D01*
X164944227Y-167155310D01*
X165076690Y-167287773D01*
X165076691Y-167287775D01*
X165180766Y-167443534D01*
X165252454Y-167616605D01*
X165289000Y-167800333D01*
X165289000Y-167987667D01*
X165252454Y-168171395D01*
X165180766Y-168344466D01*
X165180765Y-168344467D01*
X165076690Y-168500227D01*
X164944227Y-168632690D01*
X164865818Y-168685081D01*
X164788466Y-168736766D01*
X164615395Y-168808454D01*
X164431667Y-168845000D01*
X164244333Y-168845000D01*
X164060605Y-168808454D01*
X163887534Y-168736766D01*
X163810182Y-168685081D01*
X163731773Y-168632690D01*
X163599310Y-168500227D01*
X163495235Y-168344467D01*
X163495234Y-168344466D01*
X163423546Y-168171395D01*
X163387000Y-167987667D01*
X163387000Y-167800333D01*
X163423546Y-167616605D01*
X163495234Y-167443534D01*
X163599309Y-167287775D01*
X163599310Y-167287773D01*
X163731773Y-167155310D01*
X163887533Y-167051235D01*
X163887534Y-167051234D01*
X164060605Y-166979546D01*
X164244333Y-166943000D01*
X164431667Y-166943000D01*
X164615395Y-166979546D01*
G37*
G36*
X169695395Y-166979546D02*
G01*
X169868466Y-167051234D01*
X169868467Y-167051235D01*
X170024227Y-167155310D01*
X170156690Y-167287773D01*
X170156691Y-167287775D01*
X170260766Y-167443534D01*
X170332454Y-167616605D01*
X170369000Y-167800333D01*
X170369000Y-167987667D01*
X170332454Y-168171395D01*
X170260766Y-168344466D01*
X170260765Y-168344467D01*
X170156690Y-168500227D01*
X170024227Y-168632690D01*
X169945818Y-168685081D01*
X169868466Y-168736766D01*
X169695395Y-168808454D01*
X169511667Y-168845000D01*
X169324333Y-168845000D01*
X169140605Y-168808454D01*
X168967534Y-168736766D01*
X168890182Y-168685081D01*
X168811773Y-168632690D01*
X168679310Y-168500227D01*
X168575235Y-168344467D01*
X168575234Y-168344466D01*
X168503546Y-168171395D01*
X168467000Y-167987667D01*
X168467000Y-167800333D01*
X168503546Y-167616605D01*
X168575234Y-167443534D01*
X168679309Y-167287775D01*
X168679310Y-167287773D01*
X168811773Y-167155310D01*
X168967533Y-167051235D01*
X168967534Y-167051234D01*
X169140605Y-166979546D01*
X169324333Y-166943000D01*
X169511667Y-166943000D01*
X169695395Y-166979546D01*
G37*
G36*
X76956228Y-166059703D02*
G01*
X77111100Y-166123853D01*
X77250481Y-166216985D01*
X77369015Y-166335519D01*
X77462147Y-166474900D01*
X77526297Y-166629772D01*
X77559000Y-166794184D01*
X77559000Y-166961816D01*
X77526297Y-167126228D01*
X77462147Y-167281100D01*
X77369015Y-167420481D01*
X77250481Y-167539015D01*
X77111100Y-167632147D01*
X76956228Y-167696297D01*
X76791816Y-167729000D01*
X76624184Y-167729000D01*
X76459772Y-167696297D01*
X76304900Y-167632147D01*
X76165519Y-167539015D01*
X76046985Y-167420481D01*
X75953853Y-167281100D01*
X75889703Y-167126228D01*
X75857000Y-166961816D01*
X75857000Y-166794184D01*
X75889703Y-166629772D01*
X75953853Y-166474900D01*
X76046985Y-166335519D01*
X76165519Y-166216985D01*
X76304900Y-166123853D01*
X76459772Y-166059703D01*
X76624184Y-166027000D01*
X76791816Y-166027000D01*
X76956228Y-166059703D01*
G37*
G36*
X44698228Y-165043703D02*
G01*
X44853100Y-165107853D01*
X44992481Y-165200985D01*
X45111015Y-165319519D01*
X45204147Y-165458900D01*
X45268297Y-165613772D01*
X45301000Y-165778184D01*
X45301000Y-165945816D01*
X45268297Y-166110228D01*
X45204147Y-166265100D01*
X45111015Y-166404481D01*
X44992481Y-166523015D01*
X44853100Y-166616147D01*
X44698228Y-166680297D01*
X44533816Y-166713000D01*
X44366184Y-166713000D01*
X44201772Y-166680297D01*
X44046900Y-166616147D01*
X43907519Y-166523015D01*
X43788985Y-166404481D01*
X43695853Y-166265100D01*
X43631703Y-166110228D01*
X43599000Y-165945816D01*
X43599000Y-165778184D01*
X43631703Y-165613772D01*
X43695853Y-165458900D01*
X43788985Y-165319519D01*
X43907519Y-165200985D01*
X44046900Y-165107853D01*
X44201772Y-165043703D01*
X44366184Y-165011000D01*
X44533816Y-165011000D01*
X44698228Y-165043703D01*
G37*
G36*
X49778228Y-165043703D02*
G01*
X49933100Y-165107853D01*
X50072481Y-165200985D01*
X50191015Y-165319519D01*
X50284147Y-165458900D01*
X50348297Y-165613772D01*
X50381000Y-165778184D01*
X50381000Y-165945816D01*
X50348297Y-166110228D01*
X50284147Y-166265100D01*
X50191015Y-166404481D01*
X50072481Y-166523015D01*
X49933100Y-166616147D01*
X49778228Y-166680297D01*
X49613816Y-166713000D01*
X49446184Y-166713000D01*
X49281772Y-166680297D01*
X49126900Y-166616147D01*
X48987519Y-166523015D01*
X48868985Y-166404481D01*
X48775853Y-166265100D01*
X48711703Y-166110228D01*
X48679000Y-165945816D01*
X48679000Y-165778184D01*
X48711703Y-165613772D01*
X48775853Y-165458900D01*
X48868985Y-165319519D01*
X48987519Y-165200985D01*
X49126900Y-165107853D01*
X49281772Y-165043703D01*
X49446184Y-165011000D01*
X49613816Y-165011000D01*
X49778228Y-165043703D01*
G37*
G36*
X47238228Y-165043703D02*
G01*
X47393100Y-165107853D01*
X47532481Y-165200985D01*
X47651015Y-165319519D01*
X47744147Y-165458900D01*
X47808297Y-165613772D01*
X47841000Y-165778184D01*
X47841000Y-165945816D01*
X47808297Y-166110228D01*
X47744147Y-166265100D01*
X47651015Y-166404481D01*
X47532481Y-166523015D01*
X47393100Y-166616147D01*
X47238228Y-166680297D01*
X47073816Y-166713000D01*
X46906184Y-166713000D01*
X46741772Y-166680297D01*
X46586900Y-166616147D01*
X46447519Y-166523015D01*
X46328985Y-166404481D01*
X46235853Y-166265100D01*
X46171703Y-166110228D01*
X46139000Y-165945816D01*
X46139000Y-165778184D01*
X46171703Y-165613772D01*
X46235853Y-165458900D01*
X46328985Y-165319519D01*
X46447519Y-165200985D01*
X46586900Y-165107853D01*
X46741772Y-165043703D01*
X46906184Y-165011000D01*
X47073816Y-165011000D01*
X47238228Y-165043703D01*
G37*
G36*
X42158228Y-165043703D02*
G01*
X42313100Y-165107853D01*
X42452481Y-165200985D01*
X42571015Y-165319519D01*
X42664147Y-165458900D01*
X42728297Y-165613772D01*
X42761000Y-165778184D01*
X42761000Y-165945816D01*
X42728297Y-166110228D01*
X42664147Y-166265100D01*
X42571015Y-166404481D01*
X42452481Y-166523015D01*
X42313100Y-166616147D01*
X42158228Y-166680297D01*
X41993816Y-166713000D01*
X41826184Y-166713000D01*
X41661772Y-166680297D01*
X41506900Y-166616147D01*
X41367519Y-166523015D01*
X41248985Y-166404481D01*
X41155853Y-166265100D01*
X41091703Y-166110228D01*
X41059000Y-165945816D01*
X41059000Y-165778184D01*
X41091703Y-165613772D01*
X41155853Y-165458900D01*
X41248985Y-165319519D01*
X41367519Y-165200985D01*
X41506900Y-165107853D01*
X41661772Y-165043703D01*
X41826184Y-165011000D01*
X41993816Y-165011000D01*
X42158228Y-165043703D01*
G37*
G36*
X39618228Y-165043703D02*
G01*
X39773100Y-165107853D01*
X39912481Y-165200985D01*
X40031015Y-165319519D01*
X40124147Y-165458900D01*
X40188297Y-165613772D01*
X40221000Y-165778184D01*
X40221000Y-165945816D01*
X40188297Y-166110228D01*
X40124147Y-166265100D01*
X40031015Y-166404481D01*
X39912481Y-166523015D01*
X39773100Y-166616147D01*
X39618228Y-166680297D01*
X39453816Y-166713000D01*
X39286184Y-166713000D01*
X39121772Y-166680297D01*
X38966900Y-166616147D01*
X38827519Y-166523015D01*
X38708985Y-166404481D01*
X38615853Y-166265100D01*
X38551703Y-166110228D01*
X38519000Y-165945816D01*
X38519000Y-165778184D01*
X38551703Y-165613772D01*
X38615853Y-165458900D01*
X38708985Y-165319519D01*
X38827519Y-165200985D01*
X38966900Y-165107853D01*
X39121772Y-165043703D01*
X39286184Y-165011000D01*
X39453816Y-165011000D01*
X39618228Y-165043703D01*
G37*
G36*
X37078228Y-165043703D02*
G01*
X37233100Y-165107853D01*
X37372481Y-165200985D01*
X37491015Y-165319519D01*
X37584147Y-165458900D01*
X37648297Y-165613772D01*
X37681000Y-165778184D01*
X37681000Y-165945816D01*
X37648297Y-166110228D01*
X37584147Y-166265100D01*
X37491015Y-166404481D01*
X37372481Y-166523015D01*
X37233100Y-166616147D01*
X37078228Y-166680297D01*
X36913816Y-166713000D01*
X36746184Y-166713000D01*
X36581772Y-166680297D01*
X36426900Y-166616147D01*
X36287519Y-166523015D01*
X36168985Y-166404481D01*
X36075853Y-166265100D01*
X36011703Y-166110228D01*
X35979000Y-165945816D01*
X35979000Y-165778184D01*
X36011703Y-165613772D01*
X36075853Y-165458900D01*
X36168985Y-165319519D01*
X36287519Y-165200985D01*
X36426900Y-165107853D01*
X36581772Y-165043703D01*
X36746184Y-165011000D01*
X36913816Y-165011000D01*
X37078228Y-165043703D01*
G37*
G36*
X34538228Y-165043703D02*
G01*
X34693100Y-165107853D01*
X34832481Y-165200985D01*
X34951015Y-165319519D01*
X35044147Y-165458900D01*
X35108297Y-165613772D01*
X35141000Y-165778184D01*
X35141000Y-165945816D01*
X35108297Y-166110228D01*
X35044147Y-166265100D01*
X34951015Y-166404481D01*
X34832481Y-166523015D01*
X34693100Y-166616147D01*
X34538228Y-166680297D01*
X34373816Y-166713000D01*
X34206184Y-166713000D01*
X34041772Y-166680297D01*
X33886900Y-166616147D01*
X33747519Y-166523015D01*
X33628985Y-166404481D01*
X33535853Y-166265100D01*
X33471703Y-166110228D01*
X33439000Y-165945816D01*
X33439000Y-165778184D01*
X33471703Y-165613772D01*
X33535853Y-165458900D01*
X33628985Y-165319519D01*
X33747519Y-165200985D01*
X33886900Y-165107853D01*
X34041772Y-165043703D01*
X34206184Y-165011000D01*
X34373816Y-165011000D01*
X34538228Y-165043703D01*
G37*
G36*
X32601000Y-166713000D02*
G01*
X30899000Y-166713000D01*
X30899000Y-165011000D01*
X32601000Y-165011000D01*
X32601000Y-166713000D01*
G37*
G36*
X70572794Y-163512155D02*
G01*
X70679150Y-163533311D01*
X70725937Y-163552691D01*
X70879520Y-163616307D01*
X71059844Y-163736795D01*
X71213205Y-163890156D01*
X71333693Y-164070480D01*
X71416689Y-164270851D01*
X71459000Y-164483560D01*
X71459000Y-164700440D01*
X71416689Y-164913149D01*
X71333693Y-165113520D01*
X71213205Y-165293844D01*
X71059844Y-165447205D01*
X70879520Y-165567693D01*
X70779334Y-165609191D01*
X70679150Y-165650689D01*
X70572795Y-165671844D01*
X70466440Y-165693000D01*
X70249560Y-165693000D01*
X70143205Y-165671844D01*
X70036850Y-165650689D01*
X69936666Y-165609191D01*
X69836480Y-165567693D01*
X69656156Y-165447205D01*
X69502795Y-165293844D01*
X69382307Y-165113520D01*
X69299311Y-164913149D01*
X69257000Y-164700440D01*
X69257000Y-164483560D01*
X69299311Y-164270851D01*
X69382307Y-164070480D01*
X69502795Y-163890156D01*
X69656156Y-163736795D01*
X69836480Y-163616307D01*
X69990063Y-163552691D01*
X70036850Y-163533311D01*
X70143206Y-163512155D01*
X70249560Y-163491000D01*
X70466440Y-163491000D01*
X70572794Y-163512155D01*
G37*
G36*
X169695395Y-161899546D02*
G01*
X169868466Y-161971234D01*
X169868467Y-161971235D01*
X170024227Y-162075310D01*
X170156690Y-162207773D01*
X170156691Y-162207775D01*
X170260766Y-162363534D01*
X170332454Y-162536605D01*
X170369000Y-162720333D01*
X170369000Y-162907667D01*
X170332454Y-163091395D01*
X170260766Y-163264466D01*
X170260765Y-163264467D01*
X170156690Y-163420227D01*
X170024227Y-163552690D01*
X169945818Y-163605081D01*
X169868466Y-163656766D01*
X169695395Y-163728454D01*
X169511667Y-163765000D01*
X169324333Y-163765000D01*
X169140605Y-163728454D01*
X168967534Y-163656766D01*
X168890182Y-163605081D01*
X168811773Y-163552690D01*
X168679310Y-163420227D01*
X168575235Y-163264467D01*
X168575234Y-163264466D01*
X168503546Y-163091395D01*
X168467000Y-162907667D01*
X168467000Y-162720333D01*
X168503546Y-162536605D01*
X168575234Y-162363534D01*
X168679309Y-162207775D01*
X168679310Y-162207773D01*
X168811773Y-162075310D01*
X168967533Y-161971235D01*
X168967534Y-161971234D01*
X169140605Y-161899546D01*
X169324333Y-161863000D01*
X169511667Y-161863000D01*
X169695395Y-161899546D01*
G37*
G36*
X165289000Y-163765000D02*
G01*
X163387000Y-163765000D01*
X163387000Y-161863000D01*
X165289000Y-161863000D01*
X165289000Y-163765000D01*
G37*
G36*
X70572794Y-160972155D02*
G01*
X70679150Y-160993311D01*
X70879520Y-161076307D01*
X71059844Y-161196795D01*
X71213205Y-161350156D01*
X71333693Y-161530480D01*
X71416689Y-161730851D01*
X71459000Y-161943560D01*
X71459000Y-162160440D01*
X71416689Y-162373149D01*
X71333693Y-162573520D01*
X71213205Y-162753844D01*
X71059844Y-162907205D01*
X70879520Y-163027693D01*
X70679150Y-163110689D01*
X70572795Y-163131844D01*
X70466440Y-163153000D01*
X70249560Y-163153000D01*
X70143205Y-163131844D01*
X70036850Y-163110689D01*
X69836480Y-163027693D01*
X69656156Y-162907205D01*
X69502795Y-162753844D01*
X69382307Y-162573520D01*
X69299311Y-162373149D01*
X69257000Y-162160440D01*
X69257000Y-161943560D01*
X69299311Y-161730851D01*
X69382307Y-161530480D01*
X69502795Y-161350156D01*
X69656156Y-161196795D01*
X69836480Y-161076307D01*
X70036850Y-160993311D01*
X70143206Y-160972155D01*
X70249560Y-160951000D01*
X70466440Y-160951000D01*
X70572794Y-160972155D01*
G37*
G36*
X70572795Y-158432156D02*
G01*
X70679150Y-158453311D01*
X70768275Y-158490228D01*
X70879520Y-158536307D01*
X71059844Y-158656795D01*
X71213205Y-158810156D01*
X71333693Y-158990480D01*
X71416689Y-159190851D01*
X71459000Y-159403560D01*
X71459000Y-159620440D01*
X71416689Y-159833149D01*
X71333693Y-160033520D01*
X71213205Y-160213844D01*
X71059844Y-160367205D01*
X70879520Y-160487693D01*
X70779334Y-160529191D01*
X70679150Y-160570689D01*
X70572794Y-160591845D01*
X70466440Y-160613000D01*
X70249560Y-160613000D01*
X70143206Y-160591845D01*
X70036850Y-160570689D01*
X69936666Y-160529191D01*
X69836480Y-160487693D01*
X69656156Y-160367205D01*
X69502795Y-160213844D01*
X69382307Y-160033520D01*
X69299311Y-159833149D01*
X69257000Y-159620440D01*
X69257000Y-159403560D01*
X69299311Y-159190851D01*
X69382307Y-158990480D01*
X69502795Y-158810156D01*
X69656156Y-158656795D01*
X69836480Y-158536307D01*
X69947725Y-158490228D01*
X70036850Y-158453311D01*
X70143205Y-158432156D01*
X70249560Y-158411000D01*
X70466440Y-158411000D01*
X70572795Y-158432156D01*
G37*
G36*
X42158228Y-157423703D02*
G01*
X42313100Y-157487853D01*
X42452481Y-157580985D01*
X42571015Y-157699519D01*
X42664147Y-157838900D01*
X42728297Y-157993772D01*
X42761000Y-158158184D01*
X42761000Y-158325816D01*
X42728297Y-158490228D01*
X42664147Y-158645100D01*
X42571015Y-158784481D01*
X42452481Y-158903015D01*
X42313100Y-158996147D01*
X42158228Y-159060297D01*
X41993816Y-159093000D01*
X41826184Y-159093000D01*
X41661772Y-159060297D01*
X41506900Y-158996147D01*
X41367519Y-158903015D01*
X41248985Y-158784481D01*
X41155853Y-158645100D01*
X41091703Y-158490228D01*
X41059000Y-158325816D01*
X41059000Y-158158184D01*
X41091703Y-157993772D01*
X41155853Y-157838900D01*
X41248985Y-157699519D01*
X41367519Y-157580985D01*
X41506900Y-157487853D01*
X41661772Y-157423703D01*
X41826184Y-157391000D01*
X41993816Y-157391000D01*
X42158228Y-157423703D01*
G37*
G36*
X44698228Y-157423703D02*
G01*
X44853100Y-157487853D01*
X44992481Y-157580985D01*
X45111015Y-157699519D01*
X45204147Y-157838900D01*
X45268297Y-157993772D01*
X45301000Y-158158184D01*
X45301000Y-158325816D01*
X45268297Y-158490228D01*
X45204147Y-158645100D01*
X45111015Y-158784481D01*
X44992481Y-158903015D01*
X44853100Y-158996147D01*
X44698228Y-159060297D01*
X44533816Y-159093000D01*
X44366184Y-159093000D01*
X44201772Y-159060297D01*
X44046900Y-158996147D01*
X43907519Y-158903015D01*
X43788985Y-158784481D01*
X43695853Y-158645100D01*
X43631703Y-158490228D01*
X43599000Y-158325816D01*
X43599000Y-158158184D01*
X43631703Y-157993772D01*
X43695853Y-157838900D01*
X43788985Y-157699519D01*
X43907519Y-157580985D01*
X44046900Y-157487853D01*
X44201772Y-157423703D01*
X44366184Y-157391000D01*
X44533816Y-157391000D01*
X44698228Y-157423703D01*
G37*
G36*
X37078228Y-157423703D02*
G01*
X37233100Y-157487853D01*
X37372481Y-157580985D01*
X37491015Y-157699519D01*
X37584147Y-157838900D01*
X37648297Y-157993772D01*
X37681000Y-158158184D01*
X37681000Y-158325816D01*
X37648297Y-158490228D01*
X37584147Y-158645100D01*
X37491015Y-158784481D01*
X37372481Y-158903015D01*
X37233100Y-158996147D01*
X37078228Y-159060297D01*
X36913816Y-159093000D01*
X36746184Y-159093000D01*
X36581772Y-159060297D01*
X36426900Y-158996147D01*
X36287519Y-158903015D01*
X36168985Y-158784481D01*
X36075853Y-158645100D01*
X36011703Y-158490228D01*
X35979000Y-158325816D01*
X35979000Y-158158184D01*
X36011703Y-157993772D01*
X36075853Y-157838900D01*
X36168985Y-157699519D01*
X36287519Y-157580985D01*
X36426900Y-157487853D01*
X36581772Y-157423703D01*
X36746184Y-157391000D01*
X36913816Y-157391000D01*
X37078228Y-157423703D01*
G37*
G36*
X34538228Y-157423703D02*
G01*
X34693100Y-157487853D01*
X34832481Y-157580985D01*
X34951015Y-157699519D01*
X35044147Y-157838900D01*
X35108297Y-157993772D01*
X35141000Y-158158184D01*
X35141000Y-158325816D01*
X35108297Y-158490228D01*
X35044147Y-158645100D01*
X34951015Y-158784481D01*
X34832481Y-158903015D01*
X34693100Y-158996147D01*
X34538228Y-159060297D01*
X34373816Y-159093000D01*
X34206184Y-159093000D01*
X34041772Y-159060297D01*
X33886900Y-158996147D01*
X33747519Y-158903015D01*
X33628985Y-158784481D01*
X33535853Y-158645100D01*
X33471703Y-158490228D01*
X33439000Y-158325816D01*
X33439000Y-158158184D01*
X33471703Y-157993772D01*
X33535853Y-157838900D01*
X33628985Y-157699519D01*
X33747519Y-157580985D01*
X33886900Y-157487853D01*
X34041772Y-157423703D01*
X34206184Y-157391000D01*
X34373816Y-157391000D01*
X34538228Y-157423703D01*
G37*
G36*
X49778228Y-157423703D02*
G01*
X49933100Y-157487853D01*
X50072481Y-157580985D01*
X50191015Y-157699519D01*
X50284147Y-157838900D01*
X50348297Y-157993772D01*
X50381000Y-158158184D01*
X50381000Y-158325816D01*
X50348297Y-158490228D01*
X50284147Y-158645100D01*
X50191015Y-158784481D01*
X50072481Y-158903015D01*
X49933100Y-158996147D01*
X49778228Y-159060297D01*
X49613816Y-159093000D01*
X49446184Y-159093000D01*
X49281772Y-159060297D01*
X49126900Y-158996147D01*
X48987519Y-158903015D01*
X48868985Y-158784481D01*
X48775853Y-158645100D01*
X48711703Y-158490228D01*
X48679000Y-158325816D01*
X48679000Y-158158184D01*
X48711703Y-157993772D01*
X48775853Y-157838900D01*
X48868985Y-157699519D01*
X48987519Y-157580985D01*
X49126900Y-157487853D01*
X49281772Y-157423703D01*
X49446184Y-157391000D01*
X49613816Y-157391000D01*
X49778228Y-157423703D01*
G37*
G36*
X31998228Y-157423703D02*
G01*
X32153100Y-157487853D01*
X32292481Y-157580985D01*
X32411015Y-157699519D01*
X32504147Y-157838900D01*
X32568297Y-157993772D01*
X32601000Y-158158184D01*
X32601000Y-158325816D01*
X32568297Y-158490228D01*
X32504147Y-158645100D01*
X32411015Y-158784481D01*
X32292481Y-158903015D01*
X32153100Y-158996147D01*
X31998228Y-159060297D01*
X31833816Y-159093000D01*
X31666184Y-159093000D01*
X31501772Y-159060297D01*
X31346900Y-158996147D01*
X31207519Y-158903015D01*
X31088985Y-158784481D01*
X30995853Y-158645100D01*
X30931703Y-158490228D01*
X30899000Y-158325816D01*
X30899000Y-158158184D01*
X30931703Y-157993772D01*
X30995853Y-157838900D01*
X31088985Y-157699519D01*
X31207519Y-157580985D01*
X31346900Y-157487853D01*
X31501772Y-157423703D01*
X31666184Y-157391000D01*
X31833816Y-157391000D01*
X31998228Y-157423703D01*
G37*
G36*
X39618228Y-157423703D02*
G01*
X39773100Y-157487853D01*
X39912481Y-157580985D01*
X40031015Y-157699519D01*
X40124147Y-157838900D01*
X40188297Y-157993772D01*
X40221000Y-158158184D01*
X40221000Y-158325816D01*
X40188297Y-158490228D01*
X40124147Y-158645100D01*
X40031015Y-158784481D01*
X39912481Y-158903015D01*
X39773100Y-158996147D01*
X39618228Y-159060297D01*
X39453816Y-159093000D01*
X39286184Y-159093000D01*
X39121772Y-159060297D01*
X38966900Y-158996147D01*
X38827519Y-158903015D01*
X38708985Y-158784481D01*
X38615853Y-158645100D01*
X38551703Y-158490228D01*
X38519000Y-158325816D01*
X38519000Y-158158184D01*
X38551703Y-157993772D01*
X38615853Y-157838900D01*
X38708985Y-157699519D01*
X38827519Y-157580985D01*
X38966900Y-157487853D01*
X39121772Y-157423703D01*
X39286184Y-157391000D01*
X39453816Y-157391000D01*
X39618228Y-157423703D01*
G37*
G36*
X47238228Y-157423703D02*
G01*
X47393100Y-157487853D01*
X47532481Y-157580985D01*
X47651015Y-157699519D01*
X47744147Y-157838900D01*
X47808297Y-157993772D01*
X47841000Y-158158184D01*
X47841000Y-158325816D01*
X47808297Y-158490228D01*
X47744147Y-158645100D01*
X47651015Y-158784481D01*
X47532481Y-158903015D01*
X47393100Y-158996147D01*
X47238228Y-159060297D01*
X47073816Y-159093000D01*
X46906184Y-159093000D01*
X46741772Y-159060297D01*
X46586900Y-158996147D01*
X46447519Y-158903015D01*
X46328985Y-158784481D01*
X46235853Y-158645100D01*
X46171703Y-158490228D01*
X46139000Y-158325816D01*
X46139000Y-158158184D01*
X46171703Y-157993772D01*
X46235853Y-157838900D01*
X46328985Y-157699519D01*
X46447519Y-157580985D01*
X46586900Y-157487853D01*
X46741772Y-157423703D01*
X46906184Y-157391000D01*
X47073816Y-157391000D01*
X47238228Y-157423703D01*
G37*
G36*
X76956228Y-155899703D02*
G01*
X77111100Y-155963853D01*
X77250481Y-156056985D01*
X77369015Y-156175519D01*
X77462147Y-156314900D01*
X77526297Y-156469772D01*
X77559000Y-156634184D01*
X77559000Y-156801816D01*
X77526297Y-156966228D01*
X77462147Y-157121100D01*
X77369015Y-157260481D01*
X77250481Y-157379015D01*
X77111100Y-157472147D01*
X76956228Y-157536297D01*
X76791816Y-157569000D01*
X76624184Y-157569000D01*
X76459772Y-157536297D01*
X76304900Y-157472147D01*
X76165519Y-157379015D01*
X76046985Y-157260481D01*
X75953853Y-157121100D01*
X75889703Y-156966228D01*
X75857000Y-156801816D01*
X75857000Y-156634184D01*
X75889703Y-156469772D01*
X75953853Y-156314900D01*
X76046985Y-156175519D01*
X76165519Y-156056985D01*
X76304900Y-155963853D01*
X76459772Y-155899703D01*
X76624184Y-155867000D01*
X76791816Y-155867000D01*
X76956228Y-155899703D01*
G37*
G36*
X217177142Y-153098242D02*
G01*
X217325101Y-153159529D01*
X217458255Y-153248499D01*
X217571501Y-153361745D01*
X217660471Y-153494899D01*
X217721758Y-153642858D01*
X217753000Y-153799925D01*
X217753000Y-153960075D01*
X217721758Y-154117142D01*
X217660471Y-154265101D01*
X217571501Y-154398255D01*
X217458255Y-154511501D01*
X217325101Y-154600471D01*
X217177142Y-154661758D01*
X217020075Y-154693000D01*
X216859925Y-154693000D01*
X216702858Y-154661758D01*
X216554899Y-154600471D01*
X216421745Y-154511501D01*
X216308499Y-154398255D01*
X216219529Y-154265101D01*
X216158242Y-154117142D01*
X216127000Y-153960075D01*
X216127000Y-153799925D01*
X216158242Y-153642858D01*
X216219529Y-153494899D01*
X216308499Y-153361745D01*
X216421745Y-153248499D01*
X216554899Y-153159529D01*
X216702858Y-153098242D01*
X216859925Y-153067000D01*
X217020075Y-153067000D01*
X217177142Y-153098242D01*
G37*
G36*
X278177142Y-153098242D02*
G01*
X278325101Y-153159529D01*
X278458255Y-153248499D01*
X278571501Y-153361745D01*
X278660471Y-153494899D01*
X278721758Y-153642858D01*
X278753000Y-153799925D01*
X278753000Y-153960075D01*
X278721758Y-154117142D01*
X278660471Y-154265101D01*
X278571501Y-154398255D01*
X278458255Y-154511501D01*
X278325101Y-154600471D01*
X278177142Y-154661758D01*
X278020075Y-154693000D01*
X277859925Y-154693000D01*
X277702858Y-154661758D01*
X277554899Y-154600471D01*
X277421745Y-154511501D01*
X277308499Y-154398255D01*
X277219529Y-154265101D01*
X277158242Y-154117142D01*
X277127000Y-153960075D01*
X277127000Y-153799925D01*
X277158242Y-153642858D01*
X277219529Y-153494899D01*
X277308499Y-153361745D01*
X277421745Y-153248499D01*
X277554899Y-153159529D01*
X277702858Y-153098242D01*
X277859925Y-153067000D01*
X278020075Y-153067000D01*
X278177142Y-153098242D01*
G37*
G36*
X217177142Y-147598242D02*
G01*
X217325101Y-147659529D01*
X217458255Y-147748499D01*
X217571501Y-147861745D01*
X217660471Y-147994899D01*
X217721758Y-148142858D01*
X217753000Y-148299925D01*
X217753000Y-148460075D01*
X217721758Y-148617142D01*
X217660471Y-148765101D01*
X217571501Y-148898255D01*
X217458255Y-149011501D01*
X217325101Y-149100471D01*
X217177142Y-149161758D01*
X217020075Y-149193000D01*
X216859925Y-149193000D01*
X216702858Y-149161758D01*
X216554899Y-149100471D01*
X216421745Y-149011501D01*
X216308499Y-148898255D01*
X216219529Y-148765101D01*
X216158242Y-148617142D01*
X216127000Y-148460075D01*
X216127000Y-148299925D01*
X216158242Y-148142858D01*
X216219529Y-147994899D01*
X216308499Y-147861745D01*
X216421745Y-147748499D01*
X216554899Y-147659529D01*
X216702858Y-147598242D01*
X216859925Y-147567000D01*
X217020075Y-147567000D01*
X217177142Y-147598242D01*
G37*
G36*
X278177142Y-144098242D02*
G01*
X278325101Y-144159529D01*
X278458255Y-144248499D01*
X278571501Y-144361745D01*
X278660471Y-144494899D01*
X278721758Y-144642858D01*
X278753000Y-144799925D01*
X278753000Y-144960075D01*
X278721758Y-145117142D01*
X278660471Y-145265101D01*
X278571501Y-145398255D01*
X278458255Y-145511501D01*
X278325101Y-145600471D01*
X278177142Y-145661758D01*
X278020075Y-145693000D01*
X277859925Y-145693000D01*
X277702858Y-145661758D01*
X277554899Y-145600471D01*
X277421745Y-145511501D01*
X277308499Y-145398255D01*
X277219529Y-145265101D01*
X277158242Y-145117142D01*
X277127000Y-144960075D01*
X277127000Y-144799925D01*
X277158242Y-144642858D01*
X277219529Y-144494899D01*
X277308499Y-144361745D01*
X277421745Y-144248499D01*
X277554899Y-144159529D01*
X277702858Y-144098242D01*
X277859925Y-144067000D01*
X278020075Y-144067000D01*
X278177142Y-144098242D01*
G37*
G36*
X32377423Y-124931661D02*
G01*
X32768879Y-125093807D01*
X32768881Y-125093808D01*
X33121183Y-125329209D01*
X33420791Y-125628817D01*
X33656192Y-125981119D01*
X33656193Y-125981121D01*
X33818339Y-126372577D01*
X33901000Y-126788144D01*
X33901000Y-127211856D01*
X33818339Y-127627423D01*
X33656193Y-128018879D01*
X33656192Y-128018881D01*
X33420791Y-128371183D01*
X33121183Y-128670791D01*
X32768881Y-128906192D01*
X32768880Y-128906193D01*
X32768879Y-128906193D01*
X32377423Y-129068339D01*
X31961856Y-129151000D01*
X31538144Y-129151000D01*
X31122577Y-129068339D01*
X30731121Y-128906193D01*
X30731120Y-128906193D01*
X30731119Y-128906192D01*
X30378817Y-128670791D01*
X30079209Y-128371183D01*
X29843808Y-128018881D01*
X29843807Y-128018879D01*
X29681661Y-127627423D01*
X29599000Y-127211856D01*
X29599000Y-126788144D01*
X29681661Y-126372577D01*
X29843807Y-125981121D01*
X29843808Y-125981119D01*
X30079209Y-125628817D01*
X30378817Y-125329209D01*
X30731119Y-125093808D01*
X30731121Y-125093807D01*
X31122577Y-124931661D01*
X31538144Y-124849000D01*
X31961856Y-124849000D01*
X32377423Y-124931661D01*
G37*
G36*
X140710228Y-117545703D02*
G01*
X140865100Y-117609853D01*
X141004481Y-117702985D01*
X141123015Y-117821519D01*
X141216147Y-117960900D01*
X141280297Y-118115772D01*
X141313000Y-118280184D01*
X141313000Y-118447816D01*
X141280297Y-118612228D01*
X141216147Y-118767100D01*
X141123015Y-118906481D01*
X141004481Y-119025015D01*
X140865100Y-119118147D01*
X140710228Y-119182297D01*
X140545816Y-119215000D01*
X140378184Y-119215000D01*
X140213772Y-119182297D01*
X140058900Y-119118147D01*
X139919519Y-119025015D01*
X139800985Y-118906481D01*
X139707853Y-118767100D01*
X139643703Y-118612228D01*
X139611000Y-118447816D01*
X139611000Y-118280184D01*
X139643703Y-118115772D01*
X139707853Y-117960900D01*
X139800985Y-117821519D01*
X139919519Y-117702985D01*
X140058900Y-117609853D01*
X140213772Y-117545703D01*
X140378184Y-117513000D01*
X140545816Y-117513000D01*
X140710228Y-117545703D01*
G37*
G36*
X89910228Y-117545703D02*
G01*
X90065100Y-117609853D01*
X90204481Y-117702985D01*
X90323015Y-117821519D01*
X90416147Y-117960900D01*
X90480297Y-118115772D01*
X90513000Y-118280184D01*
X90513000Y-118447816D01*
X90480297Y-118612228D01*
X90416147Y-118767100D01*
X90323015Y-118906481D01*
X90204481Y-119025015D01*
X90065100Y-119118147D01*
X89910228Y-119182297D01*
X89745816Y-119215000D01*
X89578184Y-119215000D01*
X89413772Y-119182297D01*
X89258900Y-119118147D01*
X89119519Y-119025015D01*
X89000985Y-118906481D01*
X88907853Y-118767100D01*
X88843703Y-118612228D01*
X88811000Y-118447816D01*
X88811000Y-118280184D01*
X88843703Y-118115772D01*
X88907853Y-117960900D01*
X89000985Y-117821519D01*
X89119519Y-117702985D01*
X89258900Y-117609853D01*
X89413772Y-117545703D01*
X89578184Y-117513000D01*
X89745816Y-117513000D01*
X89910228Y-117545703D01*
G37*
G36*
X181096228Y-117545703D02*
G01*
X181251100Y-117609853D01*
X181390481Y-117702985D01*
X181509015Y-117821519D01*
X181602147Y-117960900D01*
X181666297Y-118115772D01*
X181699000Y-118280184D01*
X181699000Y-118447816D01*
X181666297Y-118612228D01*
X181602147Y-118767100D01*
X181509015Y-118906481D01*
X181390481Y-119025015D01*
X181251100Y-119118147D01*
X181096228Y-119182297D01*
X180931816Y-119215000D01*
X180764184Y-119215000D01*
X180599772Y-119182297D01*
X180444900Y-119118147D01*
X180305519Y-119025015D01*
X180186985Y-118906481D01*
X180093853Y-118767100D01*
X180029703Y-118612228D01*
X179997000Y-118447816D01*
X179997000Y-118280184D01*
X180029703Y-118115772D01*
X180093853Y-117960900D01*
X180186985Y-117821519D01*
X180305519Y-117702985D01*
X180444900Y-117609853D01*
X180599772Y-117545703D01*
X180764184Y-117513000D01*
X180931816Y-117513000D01*
X181096228Y-117545703D01*
G37*
G36*
X130550228Y-117545703D02*
G01*
X130705100Y-117609853D01*
X130844481Y-117702985D01*
X130963015Y-117821519D01*
X131056147Y-117960900D01*
X131120297Y-118115772D01*
X131153000Y-118280184D01*
X131153000Y-118447816D01*
X131120297Y-118612228D01*
X131056147Y-118767100D01*
X130963015Y-118906481D01*
X130844481Y-119025015D01*
X130705100Y-119118147D01*
X130550228Y-119182297D01*
X130385816Y-119215000D01*
X130218184Y-119215000D01*
X130053772Y-119182297D01*
X129898900Y-119118147D01*
X129759519Y-119025015D01*
X129640985Y-118906481D01*
X129547853Y-118767100D01*
X129483703Y-118612228D01*
X129451000Y-118447816D01*
X129451000Y-118280184D01*
X129483703Y-118115772D01*
X129547853Y-117960900D01*
X129640985Y-117821519D01*
X129759519Y-117702985D01*
X129898900Y-117609853D01*
X130053772Y-117545703D01*
X130218184Y-117513000D01*
X130385816Y-117513000D01*
X130550228Y-117545703D01*
G37*
G36*
X79750228Y-117545703D02*
G01*
X79905100Y-117609853D01*
X80044481Y-117702985D01*
X80163015Y-117821519D01*
X80256147Y-117960900D01*
X80320297Y-118115772D01*
X80353000Y-118280184D01*
X80353000Y-118447816D01*
X80320297Y-118612228D01*
X80256147Y-118767100D01*
X80163015Y-118906481D01*
X80044481Y-119025015D01*
X79905100Y-119118147D01*
X79750228Y-119182297D01*
X79585816Y-119215000D01*
X79418184Y-119215000D01*
X79253772Y-119182297D01*
X79098900Y-119118147D01*
X78959519Y-119025015D01*
X78840985Y-118906481D01*
X78747853Y-118767100D01*
X78683703Y-118612228D01*
X78651000Y-118447816D01*
X78651000Y-118280184D01*
X78683703Y-118115772D01*
X78747853Y-117960900D01*
X78840985Y-117821519D01*
X78959519Y-117702985D01*
X79098900Y-117609853D01*
X79253772Y-117545703D01*
X79418184Y-117513000D01*
X79585816Y-117513000D01*
X79750228Y-117545703D01*
G37*
G36*
X191256228Y-117545703D02*
G01*
X191411100Y-117609853D01*
X191550481Y-117702985D01*
X191669015Y-117821519D01*
X191762147Y-117960900D01*
X191826297Y-118115772D01*
X191859000Y-118280184D01*
X191859000Y-118447816D01*
X191826297Y-118612228D01*
X191762147Y-118767100D01*
X191669015Y-118906481D01*
X191550481Y-119025015D01*
X191411100Y-119118147D01*
X191256228Y-119182297D01*
X191091816Y-119215000D01*
X190924184Y-119215000D01*
X190759772Y-119182297D01*
X190604900Y-119118147D01*
X190465519Y-119025015D01*
X190346985Y-118906481D01*
X190253853Y-118767100D01*
X190189703Y-118612228D01*
X190157000Y-118447816D01*
X190157000Y-118280184D01*
X190189703Y-118115772D01*
X190253853Y-117960900D01*
X190346985Y-117821519D01*
X190465519Y-117702985D01*
X190604900Y-117609853D01*
X190759772Y-117545703D01*
X190924184Y-117513000D01*
X191091816Y-117513000D01*
X191256228Y-117545703D01*
G37*
G36*
X128449375Y-110349063D02*
G01*
X128492265Y-110357594D01*
X128613469Y-110407799D01*
X128722550Y-110480684D01*
X128815316Y-110573450D01*
X128888201Y-110682531D01*
X128938406Y-110803735D01*
X128964000Y-110932405D01*
X128964000Y-111063595D01*
X128938406Y-111192265D01*
X128888201Y-111313469D01*
X128815316Y-111422550D01*
X128722550Y-111515316D01*
X128613469Y-111588201D01*
X128492265Y-111638406D01*
X128449375Y-111646937D01*
X128363597Y-111664000D01*
X128232403Y-111664000D01*
X128146625Y-111646937D01*
X128103735Y-111638406D01*
X127982531Y-111588201D01*
X127873450Y-111515316D01*
X127780684Y-111422550D01*
X127707799Y-111313469D01*
X127657594Y-111192265D01*
X127632000Y-111063595D01*
X127632000Y-110932405D01*
X127657594Y-110803735D01*
X127707799Y-110682531D01*
X127780684Y-110573450D01*
X127873450Y-110480684D01*
X127982531Y-110407799D01*
X128103735Y-110357594D01*
X128146625Y-110349063D01*
X128232403Y-110332000D01*
X128363597Y-110332000D01*
X128449375Y-110349063D01*
G37*
G36*
X78157375Y-110349063D02*
G01*
X78200265Y-110357594D01*
X78321469Y-110407799D01*
X78430550Y-110480684D01*
X78523316Y-110573450D01*
X78596201Y-110682531D01*
X78646406Y-110803735D01*
X78672000Y-110932405D01*
X78672000Y-111063595D01*
X78646406Y-111192265D01*
X78596201Y-111313469D01*
X78523316Y-111422550D01*
X78430550Y-111515316D01*
X78321469Y-111588201D01*
X78200265Y-111638406D01*
X78157375Y-111646937D01*
X78071597Y-111664000D01*
X77940403Y-111664000D01*
X77854625Y-111646937D01*
X77811735Y-111638406D01*
X77690531Y-111588201D01*
X77581450Y-111515316D01*
X77488684Y-111422550D01*
X77415799Y-111313469D01*
X77365594Y-111192265D01*
X77340000Y-111063595D01*
X77340000Y-110932405D01*
X77365594Y-110803735D01*
X77415799Y-110682531D01*
X77488684Y-110573450D01*
X77581450Y-110480684D01*
X77690531Y-110407799D01*
X77811735Y-110357594D01*
X77854625Y-110349063D01*
X77940403Y-110332000D01*
X78071597Y-110332000D01*
X78157375Y-110349063D01*
G37*
G36*
X82172000Y-111664000D02*
G01*
X80840000Y-111664000D01*
X80840000Y-110332000D01*
X82172000Y-110332000D01*
X82172000Y-111664000D01*
G37*
G36*
X178741375Y-110349063D02*
G01*
X178784265Y-110357594D01*
X178905469Y-110407799D01*
X179014550Y-110480684D01*
X179107316Y-110573450D01*
X179180201Y-110682531D01*
X179230406Y-110803735D01*
X179256000Y-110932405D01*
X179256000Y-111063595D01*
X179230406Y-111192265D01*
X179180201Y-111313469D01*
X179107316Y-111422550D01*
X179014550Y-111515316D01*
X178905469Y-111588201D01*
X178784265Y-111638406D01*
X178741375Y-111646937D01*
X178655597Y-111664000D01*
X178524403Y-111664000D01*
X178438625Y-111646937D01*
X178395735Y-111638406D01*
X178274531Y-111588201D01*
X178165450Y-111515316D01*
X178072684Y-111422550D01*
X177999799Y-111313469D01*
X177949594Y-111192265D01*
X177924000Y-111063595D01*
X177924000Y-110932405D01*
X177949594Y-110803735D01*
X177999799Y-110682531D01*
X178072684Y-110573450D01*
X178165450Y-110480684D01*
X178274531Y-110407799D01*
X178395735Y-110357594D01*
X178438625Y-110349063D01*
X178524403Y-110332000D01*
X178655597Y-110332000D01*
X178741375Y-110349063D01*
G37*
G36*
X132464000Y-111664000D02*
G01*
X131132000Y-111664000D01*
X131132000Y-110332000D01*
X132464000Y-110332000D01*
X132464000Y-111664000D01*
G37*
G36*
X182756000Y-111664000D02*
G01*
X181424000Y-111664000D01*
X181424000Y-110332000D01*
X182756000Y-110332000D01*
X182756000Y-111664000D01*
G37*
G36*
X173363000Y-106815000D02*
G01*
X171061000Y-106815000D01*
X171061000Y-104513000D01*
X173363000Y-104513000D01*
X173363000Y-106815000D01*
G37*
G36*
X123071000Y-106815000D02*
G01*
X120769000Y-106815000D01*
X120769000Y-104513000D01*
X123071000Y-104513000D01*
X123071000Y-106815000D01*
G37*
G36*
X72271000Y-106561000D02*
G01*
X69969000Y-106561000D01*
X69969000Y-104259000D01*
X72271000Y-104259000D01*
X72271000Y-106561000D01*
G37*
G36*
X233587506Y-95795201D02*
G01*
X233715210Y-95820603D01*
X233895651Y-95895344D01*
X234058044Y-96003852D01*
X234196148Y-96141956D01*
X234304656Y-96304349D01*
X234379397Y-96484790D01*
X234417500Y-96676346D01*
X234417500Y-96871654D01*
X234379397Y-97063210D01*
X234304656Y-97243651D01*
X234196148Y-97406044D01*
X234058044Y-97544148D01*
X233895651Y-97652656D01*
X233715210Y-97727397D01*
X233619432Y-97746449D01*
X233523655Y-97765500D01*
X233328345Y-97765500D01*
X233232568Y-97746449D01*
X233136790Y-97727397D01*
X232956349Y-97652656D01*
X232793956Y-97544148D01*
X232655852Y-97406044D01*
X232547344Y-97243651D01*
X232472603Y-97063210D01*
X232434500Y-96871654D01*
X232434500Y-96676346D01*
X232472603Y-96484790D01*
X232547344Y-96304349D01*
X232655852Y-96141956D01*
X232793956Y-96003852D01*
X232956349Y-95895344D01*
X233136790Y-95820603D01*
X233264494Y-95795201D01*
X233328345Y-95782500D01*
X233523655Y-95782500D01*
X233587506Y-95795201D01*
G37*
G36*
X280137500Y-97765500D02*
G01*
X278154500Y-97765500D01*
X278154500Y-95782500D01*
X280137500Y-95782500D01*
X280137500Y-97765500D01*
G37*
G36*
X172436549Y-94375116D02*
G01*
X172547734Y-94397232D01*
X172757203Y-94483997D01*
X172945720Y-94609960D01*
X173106040Y-94770280D01*
X173199748Y-94910524D01*
X173232004Y-94958799D01*
X173318768Y-95168267D01*
X173357576Y-95363365D01*
X173363000Y-95390636D01*
X173363000Y-95617364D01*
X173318768Y-95839734D01*
X173232003Y-96049203D01*
X173106040Y-96237720D01*
X172945720Y-96398040D01*
X172757203Y-96524003D01*
X172547734Y-96610768D01*
X172436549Y-96632884D01*
X172325365Y-96655000D01*
X172098635Y-96655000D01*
X171987451Y-96632884D01*
X171876266Y-96610768D01*
X171666797Y-96524003D01*
X171478280Y-96398040D01*
X171317960Y-96237720D01*
X171191997Y-96049203D01*
X171105232Y-95839734D01*
X171061000Y-95617364D01*
X171061000Y-95390636D01*
X171066425Y-95363365D01*
X171105232Y-95168267D01*
X171191996Y-94958799D01*
X171224252Y-94910524D01*
X171317960Y-94770280D01*
X171478280Y-94609960D01*
X171666797Y-94483997D01*
X171876266Y-94397232D01*
X171987451Y-94375116D01*
X172098635Y-94353000D01*
X172325365Y-94353000D01*
X172436549Y-94375116D01*
G37*
G36*
X122144549Y-94375116D02*
G01*
X122255734Y-94397232D01*
X122465203Y-94483997D01*
X122653720Y-94609960D01*
X122814040Y-94770280D01*
X122907748Y-94910524D01*
X122940004Y-94958799D01*
X123026768Y-95168267D01*
X123065576Y-95363365D01*
X123071000Y-95390636D01*
X123071000Y-95617364D01*
X123026768Y-95839734D01*
X122940003Y-96049203D01*
X122814040Y-96237720D01*
X122653720Y-96398040D01*
X122465203Y-96524003D01*
X122255734Y-96610768D01*
X122144549Y-96632884D01*
X122033365Y-96655000D01*
X121806635Y-96655000D01*
X121695451Y-96632884D01*
X121584266Y-96610768D01*
X121374797Y-96524003D01*
X121186280Y-96398040D01*
X121025960Y-96237720D01*
X120899997Y-96049203D01*
X120813232Y-95839734D01*
X120769000Y-95617364D01*
X120769000Y-95390636D01*
X120774425Y-95363365D01*
X120813232Y-95168267D01*
X120899996Y-94958799D01*
X120932252Y-94910524D01*
X121025960Y-94770280D01*
X121186280Y-94609960D01*
X121374797Y-94483997D01*
X121584266Y-94397232D01*
X121695451Y-94375116D01*
X121806635Y-94353000D01*
X122033365Y-94353000D01*
X122144549Y-94375116D01*
G37*
G36*
X82211000Y-96435000D02*
G01*
X80349000Y-96435000D01*
X80349000Y-94573000D01*
X82211000Y-94573000D01*
X82211000Y-96435000D01*
G37*
G36*
X91711563Y-94608777D02*
G01*
X91880992Y-94678957D01*
X91880994Y-94678958D01*
X92033478Y-94780845D01*
X92163155Y-94910522D01*
X92265042Y-95063006D01*
X92265043Y-95063008D01*
X92335223Y-95232437D01*
X92371000Y-95412303D01*
X92371000Y-95595697D01*
X92335223Y-95775563D01*
X92308642Y-95839734D01*
X92265042Y-95944994D01*
X92163155Y-96097478D01*
X92033478Y-96227155D01*
X91880994Y-96329042D01*
X91880993Y-96329043D01*
X91880992Y-96329043D01*
X91711563Y-96399223D01*
X91531697Y-96435000D01*
X91348303Y-96435000D01*
X91168437Y-96399223D01*
X90999008Y-96329043D01*
X90999007Y-96329043D01*
X90999006Y-96329042D01*
X90846522Y-96227155D01*
X90716845Y-96097478D01*
X90614958Y-95944994D01*
X90571358Y-95839734D01*
X90544777Y-95775563D01*
X90509000Y-95595697D01*
X90509000Y-95412303D01*
X90544777Y-95232437D01*
X90614957Y-95063008D01*
X90614958Y-95063006D01*
X90716845Y-94910522D01*
X90846522Y-94780845D01*
X90999006Y-94678958D01*
X90999008Y-94678957D01*
X91168437Y-94608777D01*
X91348303Y-94573000D01*
X91531697Y-94573000D01*
X91711563Y-94608777D01*
G37*
G36*
X142003563Y-94608777D02*
G01*
X142172992Y-94678957D01*
X142172994Y-94678958D01*
X142325478Y-94780845D01*
X142455155Y-94910522D01*
X142557042Y-95063006D01*
X142557043Y-95063008D01*
X142627223Y-95232437D01*
X142663000Y-95412303D01*
X142663000Y-95595697D01*
X142627223Y-95775563D01*
X142600642Y-95839734D01*
X142557042Y-95944994D01*
X142455155Y-96097478D01*
X142325478Y-96227155D01*
X142172994Y-96329042D01*
X142172993Y-96329043D01*
X142172992Y-96329043D01*
X142003563Y-96399223D01*
X141823697Y-96435000D01*
X141640303Y-96435000D01*
X141460437Y-96399223D01*
X141291008Y-96329043D01*
X141291007Y-96329043D01*
X141291006Y-96329042D01*
X141138522Y-96227155D01*
X141008845Y-96097478D01*
X140906958Y-95944994D01*
X140863358Y-95839734D01*
X140836777Y-95775563D01*
X140801000Y-95595697D01*
X140801000Y-95412303D01*
X140836777Y-95232437D01*
X140906957Y-95063008D01*
X140906958Y-95063006D01*
X141008845Y-94910522D01*
X141138522Y-94780845D01*
X141291006Y-94678958D01*
X141291008Y-94678957D01*
X141460437Y-94608777D01*
X141640303Y-94573000D01*
X141823697Y-94573000D01*
X142003563Y-94608777D01*
G37*
G36*
X192549563Y-94608777D02*
G01*
X192718992Y-94678957D01*
X192718994Y-94678958D01*
X192871478Y-94780845D01*
X193001155Y-94910522D01*
X193103042Y-95063006D01*
X193103043Y-95063008D01*
X193173223Y-95232437D01*
X193209000Y-95412303D01*
X193209000Y-95595697D01*
X193173223Y-95775563D01*
X193146642Y-95839734D01*
X193103042Y-95944994D01*
X193001155Y-96097478D01*
X192871478Y-96227155D01*
X192718994Y-96329042D01*
X192718993Y-96329043D01*
X192718992Y-96329043D01*
X192549563Y-96399223D01*
X192369697Y-96435000D01*
X192186303Y-96435000D01*
X192006437Y-96399223D01*
X191837008Y-96329043D01*
X191837007Y-96329043D01*
X191837006Y-96329042D01*
X191684522Y-96227155D01*
X191554845Y-96097478D01*
X191452958Y-95944994D01*
X191409358Y-95839734D01*
X191382777Y-95775563D01*
X191347000Y-95595697D01*
X191347000Y-95412303D01*
X191382777Y-95232437D01*
X191452957Y-95063008D01*
X191452958Y-95063006D01*
X191554845Y-94910522D01*
X191684522Y-94780845D01*
X191837006Y-94678958D01*
X191837008Y-94678957D01*
X192006437Y-94608777D01*
X192186303Y-94573000D01*
X192369697Y-94573000D01*
X192549563Y-94608777D01*
G37*
G36*
X132503000Y-96435000D02*
G01*
X130641000Y-96435000D01*
X130641000Y-94573000D01*
X132503000Y-94573000D01*
X132503000Y-96435000D01*
G37*
G36*
X183049000Y-96435000D02*
G01*
X181187000Y-96435000D01*
X181187000Y-94573000D01*
X183049000Y-94573000D01*
X183049000Y-96435000D01*
G37*
G36*
X71344549Y-94121116D02*
G01*
X71455734Y-94143232D01*
X71665203Y-94229997D01*
X71853720Y-94355960D01*
X72014040Y-94516280D01*
X72122737Y-94678957D01*
X72140004Y-94704799D01*
X72226768Y-94914267D01*
X72271000Y-95136635D01*
X72271000Y-95363365D01*
X72261265Y-95412304D01*
X72226768Y-95585734D01*
X72140003Y-95795203D01*
X72014040Y-95983720D01*
X71853720Y-96144040D01*
X71665203Y-96270003D01*
X71455734Y-96356768D01*
X71344549Y-96378884D01*
X71233365Y-96401000D01*
X71006635Y-96401000D01*
X70895451Y-96378884D01*
X70784266Y-96356768D01*
X70574797Y-96270003D01*
X70386280Y-96144040D01*
X70225960Y-95983720D01*
X70099997Y-95795203D01*
X70013232Y-95585734D01*
X69978735Y-95412304D01*
X69969000Y-95363365D01*
X69969000Y-95136635D01*
X70013232Y-94914267D01*
X70099996Y-94704799D01*
X70117263Y-94678957D01*
X70225960Y-94516280D01*
X70386280Y-94355960D01*
X70574797Y-94229997D01*
X70784266Y-94143232D01*
X70895451Y-94121116D01*
X71006635Y-94099000D01*
X71233365Y-94099000D01*
X71344549Y-94121116D01*
G37*
G36*
X233619432Y-85641552D02*
G01*
X233715210Y-85660603D01*
X233895651Y-85735344D01*
X234058044Y-85843852D01*
X234196148Y-85981956D01*
X234304656Y-86144349D01*
X234379397Y-86324790D01*
X234417500Y-86516346D01*
X234417500Y-86711654D01*
X234379397Y-86903210D01*
X234304656Y-87083651D01*
X234196148Y-87246044D01*
X234058044Y-87384148D01*
X233895651Y-87492656D01*
X233715210Y-87567397D01*
X233619432Y-87586448D01*
X233523655Y-87605500D01*
X233328345Y-87605500D01*
X233232568Y-87586448D01*
X233136790Y-87567397D01*
X232956349Y-87492656D01*
X232793956Y-87384148D01*
X232655852Y-87246044D01*
X232547344Y-87083651D01*
X232472603Y-86903210D01*
X232434500Y-86711654D01*
X232434500Y-86516346D01*
X232472603Y-86324790D01*
X232547344Y-86144349D01*
X232655852Y-85981956D01*
X232793956Y-85843852D01*
X232956349Y-85735344D01*
X233136790Y-85660603D01*
X233232568Y-85641551D01*
X233328345Y-85622500D01*
X233523655Y-85622500D01*
X233619432Y-85641552D01*
G37*
G36*
X128227535Y-81269333D02*
G01*
X128397679Y-81339809D01*
X128517989Y-81389643D01*
X128779390Y-81564306D01*
X129001694Y-81786610D01*
X129176357Y-82048011D01*
X129176357Y-82048012D01*
X129296667Y-82338465D01*
X129358000Y-82646806D01*
X129358000Y-82961194D01*
X129296667Y-83269535D01*
X129226191Y-83439679D01*
X129176357Y-83559989D01*
X129001694Y-83821390D01*
X128779390Y-84043694D01*
X128517989Y-84218357D01*
X128397679Y-84268191D01*
X128227535Y-84338667D01*
X127919194Y-84400000D01*
X127604806Y-84400000D01*
X127296465Y-84338667D01*
X127126321Y-84268191D01*
X127006011Y-84218357D01*
X126744610Y-84043694D01*
X126522306Y-83821390D01*
X126347643Y-83559989D01*
X126297809Y-83439679D01*
X126227333Y-83269535D01*
X126166000Y-82961194D01*
X126166000Y-82646806D01*
X126227333Y-82338465D01*
X126347643Y-82048012D01*
X126347643Y-82048011D01*
X126522306Y-81786610D01*
X126744610Y-81564306D01*
X127006011Y-81389643D01*
X127126321Y-81339809D01*
X127296465Y-81269333D01*
X127604806Y-81208000D01*
X127919194Y-81208000D01*
X128227535Y-81269333D01*
G37*
G36*
X77935535Y-81269333D02*
G01*
X78105679Y-81339809D01*
X78225989Y-81389643D01*
X78487390Y-81564306D01*
X78709694Y-81786610D01*
X78884357Y-82048011D01*
X78884357Y-82048012D01*
X79004667Y-82338465D01*
X79066000Y-82646806D01*
X79066000Y-82961194D01*
X79004667Y-83269535D01*
X78934191Y-83439679D01*
X78884357Y-83559989D01*
X78709694Y-83821390D01*
X78487390Y-84043694D01*
X78225989Y-84218357D01*
X78105679Y-84268191D01*
X77935535Y-84338667D01*
X77627194Y-84400000D01*
X77312806Y-84400000D01*
X77004465Y-84338667D01*
X76834321Y-84268191D01*
X76714011Y-84218357D01*
X76452610Y-84043694D01*
X76230306Y-83821390D01*
X76055643Y-83559989D01*
X76005809Y-83439679D01*
X75935333Y-83269535D01*
X75874000Y-82961194D01*
X75874000Y-82646806D01*
X75935333Y-82338465D01*
X76055643Y-82048012D01*
X76055643Y-82048011D01*
X76230306Y-81786610D01*
X76452610Y-81564306D01*
X76714011Y-81389643D01*
X76834321Y-81339809D01*
X77004465Y-81269333D01*
X77312806Y-81208000D01*
X77627194Y-81208000D01*
X77935535Y-81269333D01*
G37*
G36*
X178773535Y-81269333D02*
G01*
X178943679Y-81339809D01*
X179063989Y-81389643D01*
X179325390Y-81564306D01*
X179547694Y-81786610D01*
X179722357Y-82048011D01*
X179722357Y-82048012D01*
X179842667Y-82338465D01*
X179904000Y-82646806D01*
X179904000Y-82961194D01*
X179842667Y-83269535D01*
X179772191Y-83439679D01*
X179722357Y-83559989D01*
X179547694Y-83821390D01*
X179325390Y-84043694D01*
X179063989Y-84218357D01*
X178943679Y-84268191D01*
X178773535Y-84338667D01*
X178465194Y-84400000D01*
X178150806Y-84400000D01*
X177842465Y-84338667D01*
X177672321Y-84268191D01*
X177552011Y-84218357D01*
X177290610Y-84043694D01*
X177068306Y-83821390D01*
X176893643Y-83559989D01*
X176843809Y-83439679D01*
X176773333Y-83269535D01*
X176712000Y-82961194D01*
X176712000Y-82646806D01*
X176773333Y-82338465D01*
X176893643Y-82048012D01*
X176893643Y-82048011D01*
X177068306Y-81786610D01*
X177290610Y-81564306D01*
X177552011Y-81389643D01*
X177672321Y-81339809D01*
X177842465Y-81269333D01*
X178150806Y-81208000D01*
X178465194Y-81208000D01*
X178773535Y-81269333D01*
G37*
G36*
X95744704Y-78633176D02*
G01*
X95872552Y-78686133D01*
X96053357Y-78761024D01*
X96331137Y-78946631D01*
X96567369Y-79182863D01*
X96752976Y-79460643D01*
X96827867Y-79641448D01*
X96880824Y-79769296D01*
X96946000Y-80096957D01*
X96946000Y-80431043D01*
X96880824Y-80758704D01*
X96827867Y-80886552D01*
X96752976Y-81067357D01*
X96567369Y-81345137D01*
X96331137Y-81581369D01*
X96053357Y-81766976D01*
X95872552Y-81841867D01*
X95744704Y-81894824D01*
X95417043Y-81960000D01*
X95082957Y-81960000D01*
X94755296Y-81894824D01*
X94627448Y-81841867D01*
X94446643Y-81766976D01*
X94168863Y-81581369D01*
X93932631Y-81345137D01*
X93747024Y-81067357D01*
X93672133Y-80886552D01*
X93619176Y-80758704D01*
X93554000Y-80431043D01*
X93554000Y-80096957D01*
X93619176Y-79769296D01*
X93672133Y-79641448D01*
X93747024Y-79460643D01*
X93932631Y-79182863D01*
X94168863Y-78946631D01*
X94446643Y-78761024D01*
X94627448Y-78686133D01*
X94755296Y-78633176D01*
X95082957Y-78568000D01*
X95417043Y-78568000D01*
X95744704Y-78633176D01*
G37*
G36*
X196582704Y-78633176D02*
G01*
X196710552Y-78686133D01*
X196891357Y-78761024D01*
X197169137Y-78946631D01*
X197405369Y-79182863D01*
X197590976Y-79460643D01*
X197665867Y-79641448D01*
X197718824Y-79769296D01*
X197784000Y-80096957D01*
X197784000Y-80431043D01*
X197718824Y-80758704D01*
X197665867Y-80886552D01*
X197590976Y-81067357D01*
X197405369Y-81345137D01*
X197169137Y-81581369D01*
X196891357Y-81766976D01*
X196710552Y-81841867D01*
X196582704Y-81894824D01*
X196255043Y-81960000D01*
X195920957Y-81960000D01*
X195593296Y-81894824D01*
X195465448Y-81841867D01*
X195284643Y-81766976D01*
X195006863Y-81581369D01*
X194770631Y-81345137D01*
X194585024Y-81067357D01*
X194510133Y-80886552D01*
X194457176Y-80758704D01*
X194392000Y-80431043D01*
X194392000Y-80096957D01*
X194457176Y-79769296D01*
X194510133Y-79641448D01*
X194585024Y-79460643D01*
X194770631Y-79182863D01*
X195006863Y-78946631D01*
X195284643Y-78761024D01*
X195465448Y-78686133D01*
X195593296Y-78633176D01*
X195920957Y-78568000D01*
X196255043Y-78568000D01*
X196582704Y-78633176D01*
G37*
G36*
X146036704Y-78633176D02*
G01*
X146164552Y-78686133D01*
X146345357Y-78761024D01*
X146623137Y-78946631D01*
X146859369Y-79182863D01*
X147044976Y-79460643D01*
X147119867Y-79641448D01*
X147172824Y-79769296D01*
X147238000Y-80096957D01*
X147238000Y-80431043D01*
X147172824Y-80758704D01*
X147119867Y-80886552D01*
X147044976Y-81067357D01*
X146859369Y-81345137D01*
X146623137Y-81581369D01*
X146345357Y-81766976D01*
X146164552Y-81841867D01*
X146036704Y-81894824D01*
X145709043Y-81960000D01*
X145374957Y-81960000D01*
X145047296Y-81894824D01*
X144919448Y-81841867D01*
X144738643Y-81766976D01*
X144460863Y-81581369D01*
X144224631Y-81345137D01*
X144039024Y-81067357D01*
X143964133Y-80886552D01*
X143911176Y-80758704D01*
X143846000Y-80431043D01*
X143846000Y-80096957D01*
X143911176Y-79769296D01*
X143964133Y-79641448D01*
X144039024Y-79460643D01*
X144224631Y-79182863D01*
X144460863Y-78946631D01*
X144738643Y-78761024D01*
X144919448Y-78686133D01*
X145047296Y-78633176D01*
X145374957Y-78568000D01*
X145709043Y-78568000D01*
X146036704Y-78633176D01*
G37*
G36*
X279339432Y-75481551D02*
G01*
X279435210Y-75500603D01*
X279615651Y-75575344D01*
X279778044Y-75683852D01*
X279916148Y-75821956D01*
X280024656Y-75984349D01*
X280099397Y-76164790D01*
X280137500Y-76356346D01*
X280137500Y-76551654D01*
X280099397Y-76743210D01*
X280024656Y-76923651D01*
X279916148Y-77086044D01*
X279778044Y-77224148D01*
X279615651Y-77332656D01*
X279435210Y-77407397D01*
X279339432Y-77426448D01*
X279243655Y-77445500D01*
X279048345Y-77445500D01*
X278952568Y-77426448D01*
X278856790Y-77407397D01*
X278676349Y-77332656D01*
X278513956Y-77224148D01*
X278375852Y-77086044D01*
X278267344Y-76923651D01*
X278192603Y-76743210D01*
X278154500Y-76551654D01*
X278154500Y-76356346D01*
X278192603Y-76164790D01*
X278267344Y-75984349D01*
X278375852Y-75821956D01*
X278513956Y-75683852D01*
X278676349Y-75575344D01*
X278856790Y-75500603D01*
X278952568Y-75481552D01*
X279048345Y-75462500D01*
X279243655Y-75462500D01*
X279339432Y-75481551D01*
G37*
G36*
X248277423Y-61431661D02*
G01*
X248668879Y-61593807D01*
X248668881Y-61593808D01*
X249021183Y-61829209D01*
X249320791Y-62128817D01*
X249556192Y-62481119D01*
X249556193Y-62481121D01*
X249718339Y-62872577D01*
X249801000Y-63288144D01*
X249801000Y-63711856D01*
X249718339Y-64127423D01*
X249556193Y-64518879D01*
X249556192Y-64518881D01*
X249320791Y-64871183D01*
X249021183Y-65170791D01*
X248668881Y-65406192D01*
X248668880Y-65406193D01*
X248668879Y-65406193D01*
X248277423Y-65568339D01*
X247861856Y-65651000D01*
X247438144Y-65651000D01*
X247022577Y-65568339D01*
X246631121Y-65406193D01*
X246631120Y-65406193D01*
X246631119Y-65406192D01*
X246278817Y-65170791D01*
X245979209Y-64871183D01*
X245743808Y-64518881D01*
X245743807Y-64518879D01*
X245581661Y-64127423D01*
X245499000Y-63711856D01*
X245499000Y-63288144D01*
X245581661Y-62872577D01*
X245743807Y-62481121D01*
X245743808Y-62481119D01*
X245979209Y-62128817D01*
X246278817Y-61829209D01*
X246631119Y-61593808D01*
X246631121Y-61593807D01*
X247022577Y-61431661D01*
X247438144Y-61349000D01*
X247861856Y-61349000D01*
X248277423Y-61431661D01*
G37*
G36*
X278843331Y-53436211D02*
G01*
X279171092Y-53571974D01*
X279466070Y-53769072D01*
X279716928Y-54019930D01*
X279914026Y-54314908D01*
X280049789Y-54642669D01*
X280119000Y-54990616D01*
X280119000Y-55345384D01*
X280049789Y-55693331D01*
X279914026Y-56021092D01*
X279716928Y-56316070D01*
X279466070Y-56566928D01*
X279171092Y-56764026D01*
X278843331Y-56899789D01*
X278495384Y-56969000D01*
X278140616Y-56969000D01*
X277792669Y-56899789D01*
X277464908Y-56764026D01*
X277169930Y-56566928D01*
X276919072Y-56316070D01*
X276721974Y-56021092D01*
X276586211Y-55693331D01*
X276517000Y-55345384D01*
X276517000Y-54990616D01*
X276586211Y-54642669D01*
X276721974Y-54314908D01*
X276919072Y-54019930D01*
X277169930Y-53769072D01*
X277464908Y-53571974D01*
X277792669Y-53436211D01*
X278140616Y-53367000D01*
X278495384Y-53367000D01*
X278843331Y-53436211D01*
G37*
G36*
X187554821Y-49846144D02*
G01*
X187731500Y-49881287D01*
X187869373Y-49938396D01*
X188064355Y-50019160D01*
X188064356Y-50019161D01*
X188363920Y-50219323D01*
X188618677Y-50474080D01*
X188618678Y-50474082D01*
X188818840Y-50773645D01*
X188956713Y-51106501D01*
X189027000Y-51459858D01*
X189027000Y-51820142D01*
X188956713Y-52173499D01*
X188818840Y-52506355D01*
X188818839Y-52506356D01*
X188618677Y-52805920D01*
X188363920Y-53060677D01*
X188213120Y-53161438D01*
X188064355Y-53260840D01*
X187869373Y-53341604D01*
X187731500Y-53398713D01*
X187554821Y-53433856D01*
X187378142Y-53469000D01*
X187017858Y-53469000D01*
X186841179Y-53433856D01*
X186664500Y-53398713D01*
X186526627Y-53341604D01*
X186331645Y-53260840D01*
X186182880Y-53161438D01*
X186032080Y-53060677D01*
X185777323Y-52805920D01*
X185577161Y-52506356D01*
X185577160Y-52506355D01*
X185439287Y-52173499D01*
X185369000Y-51820142D01*
X185369000Y-51459858D01*
X185439287Y-51106501D01*
X185577160Y-50773645D01*
X185777322Y-50474082D01*
X185777323Y-50474080D01*
X186032080Y-50219323D01*
X186331644Y-50019161D01*
X186331645Y-50019160D01*
X186526627Y-49938396D01*
X186664500Y-49881287D01*
X186841180Y-49846143D01*
X187017858Y-49811000D01*
X187378142Y-49811000D01*
X187554821Y-49846144D01*
G37*
G36*
X86903934Y-49070839D02*
G01*
X87147500Y-49119287D01*
X87285373Y-49176396D01*
X87480355Y-49257160D01*
X87629120Y-49356562D01*
X87779920Y-49457323D01*
X88034677Y-49712080D01*
X88034678Y-49712082D01*
X88234840Y-50011645D01*
X88372713Y-50344501D01*
X88443000Y-50697858D01*
X88443000Y-51058142D01*
X88372713Y-51411499D01*
X88234840Y-51744355D01*
X88135438Y-51893120D01*
X88034677Y-52043920D01*
X87779920Y-52298677D01*
X87629120Y-52399438D01*
X87480355Y-52498840D01*
X87285373Y-52579604D01*
X87147500Y-52636713D01*
X86970820Y-52671857D01*
X86794142Y-52707000D01*
X86433858Y-52707000D01*
X86257179Y-52671856D01*
X86080500Y-52636713D01*
X85942627Y-52579604D01*
X85747645Y-52498840D01*
X85598880Y-52399438D01*
X85448080Y-52298677D01*
X85193323Y-52043920D01*
X85092562Y-51893120D01*
X84993160Y-51744355D01*
X84855287Y-51411499D01*
X84785000Y-51058142D01*
X84785000Y-50697858D01*
X84855287Y-50344501D01*
X84993160Y-50011645D01*
X85193322Y-49712082D01*
X85193323Y-49712080D01*
X85448080Y-49457323D01*
X85598880Y-49356562D01*
X85747645Y-49257160D01*
X85942627Y-49176396D01*
X86080500Y-49119287D01*
X86324066Y-49070839D01*
X86433858Y-49049000D01*
X86794142Y-49049000D01*
X86903934Y-49070839D01*
G37*
G36*
X137195934Y-49070839D02*
G01*
X137439500Y-49119287D01*
X137577373Y-49176396D01*
X137772355Y-49257160D01*
X137921120Y-49356562D01*
X138071920Y-49457323D01*
X138326677Y-49712080D01*
X138326678Y-49712082D01*
X138526840Y-50011645D01*
X138664713Y-50344501D01*
X138735000Y-50697858D01*
X138735000Y-51058142D01*
X138664713Y-51411499D01*
X138526840Y-51744355D01*
X138427438Y-51893120D01*
X138326677Y-52043920D01*
X138071920Y-52298677D01*
X137921120Y-52399438D01*
X137772355Y-52498840D01*
X137577373Y-52579604D01*
X137439500Y-52636713D01*
X137262820Y-52671857D01*
X137086142Y-52707000D01*
X136725858Y-52707000D01*
X136549179Y-52671856D01*
X136372500Y-52636713D01*
X136234627Y-52579604D01*
X136039645Y-52498840D01*
X135890880Y-52399438D01*
X135740080Y-52298677D01*
X135485323Y-52043920D01*
X135384562Y-51893120D01*
X135285160Y-51744355D01*
X135147287Y-51411499D01*
X135077000Y-51058142D01*
X135077000Y-50697858D01*
X135147287Y-50344501D01*
X135285160Y-50011645D01*
X135485322Y-49712082D01*
X135485323Y-49712080D01*
X135740080Y-49457323D01*
X135890880Y-49356562D01*
X136039645Y-49257160D01*
X136234627Y-49176396D01*
X136372500Y-49119287D01*
X136616066Y-49070839D01*
X136725858Y-49049000D01*
X137086142Y-49049000D01*
X137195934Y-49070839D01*
G37*
G36*
X182677000Y-49279000D02*
G01*
X179019000Y-49279000D01*
X179019000Y-45621000D01*
X182677000Y-45621000D01*
X182677000Y-49279000D01*
G37*
G36*
X193760201Y-45627377D02*
G01*
X194081500Y-45691287D01*
X194196689Y-45739000D01*
X194414355Y-45829160D01*
X194504554Y-45889429D01*
X194713920Y-46029323D01*
X194968677Y-46284080D01*
X195026820Y-46371097D01*
X195168840Y-46583645D01*
X195249604Y-46778627D01*
X195286121Y-46866786D01*
X195306713Y-46916501D01*
X195377000Y-47269858D01*
X195377000Y-47630142D01*
X195306713Y-47983499D01*
X195168840Y-48316355D01*
X195168839Y-48316356D01*
X194968677Y-48615920D01*
X194713920Y-48870677D01*
X194563120Y-48971438D01*
X194414355Y-49070840D01*
X194297393Y-49119287D01*
X194081500Y-49208713D01*
X193904820Y-49243857D01*
X193728142Y-49279000D01*
X193367858Y-49279000D01*
X193191180Y-49243857D01*
X193014500Y-49208713D01*
X192798607Y-49119287D01*
X192681645Y-49070840D01*
X192532880Y-48971438D01*
X192382080Y-48870677D01*
X192127323Y-48615920D01*
X191927161Y-48316356D01*
X191927160Y-48316355D01*
X191789287Y-47983499D01*
X191719000Y-47630142D01*
X191719000Y-47269858D01*
X191789287Y-46916501D01*
X191809880Y-46866786D01*
X191846396Y-46778627D01*
X191927160Y-46583645D01*
X192069180Y-46371097D01*
X192127323Y-46284080D01*
X192382080Y-46029323D01*
X192591446Y-45889429D01*
X192681645Y-45829160D01*
X192899311Y-45739000D01*
X193014500Y-45691287D01*
X193335799Y-45627377D01*
X193367858Y-45621000D01*
X193728142Y-45621000D01*
X193760201Y-45627377D01*
G37*
G36*
X132385000Y-48517000D02*
G01*
X128727000Y-48517000D01*
X128727000Y-44859000D01*
X132385000Y-44859000D01*
X132385000Y-48517000D01*
G37*
G36*
X93320820Y-44894143D02*
G01*
X93497500Y-44929287D01*
X93635373Y-44986396D01*
X93830355Y-45067160D01*
X93830356Y-45067161D01*
X94129920Y-45267323D01*
X94384677Y-45522080D01*
X94450773Y-45621000D01*
X94584840Y-45821645D01*
X94665604Y-46016627D01*
X94722713Y-46154500D01*
X94793000Y-46507859D01*
X94793000Y-46868141D01*
X94722713Y-47221500D01*
X94667455Y-47354903D01*
X94584840Y-47554355D01*
X94497596Y-47684925D01*
X94384677Y-47853920D01*
X94129920Y-48108677D01*
X94003834Y-48192925D01*
X93830355Y-48308840D01*
X93635373Y-48389604D01*
X93497500Y-48446713D01*
X93320820Y-48481857D01*
X93144142Y-48517000D01*
X92783858Y-48517000D01*
X92607180Y-48481857D01*
X92430500Y-48446713D01*
X92292627Y-48389604D01*
X92097645Y-48308840D01*
X91924166Y-48192925D01*
X91798080Y-48108677D01*
X91543323Y-47853920D01*
X91430404Y-47684925D01*
X91343160Y-47554355D01*
X91260545Y-47354903D01*
X91205287Y-47221500D01*
X91135000Y-46868141D01*
X91135000Y-46507859D01*
X91205287Y-46154500D01*
X91262396Y-46016627D01*
X91343160Y-45821645D01*
X91477227Y-45621000D01*
X91543323Y-45522080D01*
X91798080Y-45267323D01*
X92097644Y-45067161D01*
X92097645Y-45067160D01*
X92292627Y-44986396D01*
X92430500Y-44929287D01*
X92607179Y-44894144D01*
X92783858Y-44859000D01*
X93144142Y-44859000D01*
X93320820Y-44894143D01*
G37*
G36*
X82093000Y-48517000D02*
G01*
X78435000Y-48517000D01*
X78435000Y-44859000D01*
X82093000Y-44859000D01*
X82093000Y-48517000D01*
G37*
G36*
X143612820Y-44894143D02*
G01*
X143789500Y-44929287D01*
X143927373Y-44986396D01*
X144122355Y-45067160D01*
X144122356Y-45067161D01*
X144421920Y-45267323D01*
X144676677Y-45522080D01*
X144742773Y-45621000D01*
X144876840Y-45821645D01*
X144957604Y-46016627D01*
X145014713Y-46154500D01*
X145085000Y-46507859D01*
X145085000Y-46868141D01*
X145014713Y-47221500D01*
X144959455Y-47354903D01*
X144876840Y-47554355D01*
X144789596Y-47684925D01*
X144676677Y-47853920D01*
X144421920Y-48108677D01*
X144295834Y-48192925D01*
X144122355Y-48308840D01*
X143927373Y-48389604D01*
X143789500Y-48446713D01*
X143612820Y-48481857D01*
X143436142Y-48517000D01*
X143075858Y-48517000D01*
X142899180Y-48481857D01*
X142722500Y-48446713D01*
X142584627Y-48389604D01*
X142389645Y-48308840D01*
X142216166Y-48192925D01*
X142090080Y-48108677D01*
X141835323Y-47853920D01*
X141722404Y-47684925D01*
X141635160Y-47554355D01*
X141552545Y-47354903D01*
X141497287Y-47221500D01*
X141427000Y-46868141D01*
X141427000Y-46507859D01*
X141497287Y-46154500D01*
X141554396Y-46016627D01*
X141635160Y-45821645D01*
X141769227Y-45621000D01*
X141835323Y-45522080D01*
X142090080Y-45267323D01*
X142389644Y-45067161D01*
X142389645Y-45067160D01*
X142584627Y-44986396D01*
X142722500Y-44929287D01*
X142899179Y-44894144D01*
X143075858Y-44859000D01*
X143436142Y-44859000D01*
X143612820Y-44894143D01*
G37*
G36*
X209660903Y-45787075D02*
G01*
X209762506Y-45829160D01*
X209888571Y-45881378D01*
X210093466Y-46018285D01*
X210267715Y-46192534D01*
X210378801Y-46358786D01*
X210404623Y-46397431D01*
X210498925Y-46625097D01*
X210547000Y-46866786D01*
X210547000Y-47113214D01*
X210498925Y-47354903D01*
X210416310Y-47554355D01*
X210404622Y-47582571D01*
X210267715Y-47787466D01*
X210093466Y-47961715D01*
X209888571Y-48098622D01*
X209888570Y-48098623D01*
X209888569Y-48098623D01*
X209660903Y-48192925D01*
X209419214Y-48241000D01*
X209172786Y-48241000D01*
X208931097Y-48192925D01*
X208703431Y-48098623D01*
X208703430Y-48098623D01*
X208703429Y-48098622D01*
X208498534Y-47961715D01*
X208324285Y-47787466D01*
X208187378Y-47582571D01*
X208175691Y-47554355D01*
X208093075Y-47354903D01*
X208045000Y-47113214D01*
X208045000Y-46866786D01*
X208093075Y-46625097D01*
X208187377Y-46397431D01*
X208213199Y-46358786D01*
X208324285Y-46192534D01*
X208498534Y-46018285D01*
X208703429Y-45881378D01*
X208829495Y-45829160D01*
X208931097Y-45787075D01*
X209172786Y-45739000D01*
X209419214Y-45739000D01*
X209660903Y-45787075D01*
G37*
G36*
X218167000Y-48241000D02*
G01*
X215665000Y-48241000D01*
X215665000Y-45739000D01*
X218167000Y-45739000D01*
X218167000Y-48241000D01*
G37*
G36*
X167875000Y-47987000D02*
G01*
X165373000Y-47987000D01*
X165373000Y-45485000D01*
X167875000Y-45485000D01*
X167875000Y-47987000D01*
G37*
G36*
X159368903Y-45533075D02*
G01*
X159581174Y-45621000D01*
X159596571Y-45627378D01*
X159801466Y-45764285D01*
X159975715Y-45938534D01*
X160095027Y-46117097D01*
X160112623Y-46143431D01*
X160206925Y-46371097D01*
X160255000Y-46612786D01*
X160255000Y-46859214D01*
X160253224Y-46868141D01*
X160206925Y-47100903D01*
X160112622Y-47328571D01*
X159975715Y-47533466D01*
X159801466Y-47707715D01*
X159596571Y-47844622D01*
X159596570Y-47844623D01*
X159596569Y-47844623D01*
X159368903Y-47938925D01*
X159127214Y-47987000D01*
X158880786Y-47987000D01*
X158639097Y-47938925D01*
X158411431Y-47844623D01*
X158411430Y-47844623D01*
X158411429Y-47844622D01*
X158206534Y-47707715D01*
X158032285Y-47533466D01*
X157895378Y-47328571D01*
X157801075Y-47100903D01*
X157754776Y-46868141D01*
X157753000Y-46859214D01*
X157753000Y-46612786D01*
X157801075Y-46371097D01*
X157895377Y-46143431D01*
X157912973Y-46117097D01*
X158032285Y-45938534D01*
X158206534Y-45764285D01*
X158411429Y-45627378D01*
X158426827Y-45621000D01*
X158639097Y-45533075D01*
X158880786Y-45485000D01*
X159127214Y-45485000D01*
X159368903Y-45533075D01*
G37*
G36*
X117075000Y-47733000D02*
G01*
X114573000Y-47733000D01*
X114573000Y-45231000D01*
X117075000Y-45231000D01*
X117075000Y-47733000D01*
G37*
G36*
X108509817Y-45267322D02*
G01*
X108568903Y-45279075D01*
X108796571Y-45373378D01*
X109001466Y-45510285D01*
X109175715Y-45684534D01*
X109307242Y-45881378D01*
X109312623Y-45889431D01*
X109406925Y-46117097D01*
X109455000Y-46358786D01*
X109455000Y-46605214D01*
X109451045Y-46625097D01*
X109406925Y-46846903D01*
X109312622Y-47074571D01*
X109175715Y-47279466D01*
X109001466Y-47453715D01*
X108796571Y-47590622D01*
X108796570Y-47590623D01*
X108796569Y-47590623D01*
X108568903Y-47684925D01*
X108327214Y-47733000D01*
X108080786Y-47733000D01*
X107839097Y-47684925D01*
X107611431Y-47590623D01*
X107611430Y-47590623D01*
X107611429Y-47590622D01*
X107406534Y-47453715D01*
X107232285Y-47279466D01*
X107095378Y-47074571D01*
X107001075Y-46846903D01*
X106956955Y-46625097D01*
X106953000Y-46605214D01*
X106953000Y-46358786D01*
X107001075Y-46117097D01*
X107095377Y-45889431D01*
X107100758Y-45881378D01*
X107232285Y-45684534D01*
X107406534Y-45510285D01*
X107611429Y-45373378D01*
X107839097Y-45279075D01*
X107898183Y-45267322D01*
X108080786Y-45231000D01*
X108327214Y-45231000D01*
X108509817Y-45267322D01*
G37*
G36*
X272419000Y-43819000D02*
G01*
X269617000Y-43819000D01*
X269617000Y-41017000D01*
X272419000Y-41017000D01*
X272419000Y-43819000D01*
G37*
G36*
X271336433Y-34052893D02*
G01*
X271426657Y-34070839D01*
X271532267Y-34114585D01*
X271681621Y-34176449D01*
X271681622Y-34176450D01*
X271911086Y-34329772D01*
X272106228Y-34524914D01*
X272208675Y-34678237D01*
X272259551Y-34754379D01*
X272365161Y-35009344D01*
X272419000Y-35280012D01*
X272419000Y-35555988D01*
X272365161Y-35826656D01*
X272259551Y-36081621D01*
X272259550Y-36081622D01*
X272106228Y-36311086D01*
X271911086Y-36506228D01*
X271757763Y-36608675D01*
X271681621Y-36659551D01*
X271532267Y-36721415D01*
X271426657Y-36765161D01*
X271336433Y-36783107D01*
X271155988Y-36819000D01*
X270880012Y-36819000D01*
X270699567Y-36783107D01*
X270609343Y-36765161D01*
X270503733Y-36721415D01*
X270354379Y-36659551D01*
X270278237Y-36608675D01*
X270124914Y-36506228D01*
X269929772Y-36311086D01*
X269776450Y-36081622D01*
X269776449Y-36081621D01*
X269670839Y-35826656D01*
X269617000Y-35555988D01*
X269617000Y-35280012D01*
X269670839Y-35009344D01*
X269776449Y-34754379D01*
X269827325Y-34678237D01*
X269929772Y-34524914D01*
X270124914Y-34329772D01*
X270354378Y-34176450D01*
X270354379Y-34176449D01*
X270503733Y-34114585D01*
X270609343Y-34070839D01*
X270699567Y-34052893D01*
X270880012Y-34017000D01*
X271155988Y-34017000D01*
X271336433Y-34052893D01*
G37*
G36*
X271336433Y-27052893D02*
G01*
X271426657Y-27070839D01*
X271532267Y-27114585D01*
X271681621Y-27176449D01*
X271681622Y-27176450D01*
X271911086Y-27329772D01*
X272106228Y-27524914D01*
X272208675Y-27678237D01*
X272259551Y-27754379D01*
X272365161Y-28009344D01*
X272419000Y-28280012D01*
X272419000Y-28555988D01*
X272365161Y-28826656D01*
X272259551Y-29081621D01*
X272259550Y-29081622D01*
X272106228Y-29311086D01*
X271911086Y-29506228D01*
X271757763Y-29608675D01*
X271681621Y-29659551D01*
X271532267Y-29721415D01*
X271426657Y-29765161D01*
X271336433Y-29783107D01*
X271155988Y-29819000D01*
X270880012Y-29819000D01*
X270699567Y-29783107D01*
X270609343Y-29765161D01*
X270503733Y-29721415D01*
X270354379Y-29659551D01*
X270278237Y-29608675D01*
X270124914Y-29506228D01*
X269929772Y-29311086D01*
X269776450Y-29081622D01*
X269776449Y-29081621D01*
X269670839Y-28826656D01*
X269617000Y-28555988D01*
X269617000Y-28280012D01*
X269670839Y-28009344D01*
X269776449Y-27754379D01*
X269827325Y-27678237D01*
X269929772Y-27524914D01*
X270124914Y-27329772D01*
X270354378Y-27176450D01*
X270354379Y-27176449D01*
X270503733Y-27114585D01*
X270609343Y-27070839D01*
X270699567Y-27052893D01*
X270880012Y-27017000D01*
X271155988Y-27017000D01*
X271336433Y-27052893D01*
G37*
G36*
X64127423Y-23331661D02*
G01*
X64518879Y-23493807D01*
X64518881Y-23493808D01*
X64871183Y-23729209D01*
X65170791Y-24028817D01*
X65406192Y-24381119D01*
X65406193Y-24381121D01*
X65568339Y-24772577D01*
X65651000Y-25188144D01*
X65651000Y-25611856D01*
X65568339Y-26027423D01*
X65406193Y-26418879D01*
X65406192Y-26418881D01*
X65170791Y-26771183D01*
X64871183Y-27070791D01*
X64518881Y-27306192D01*
X64518880Y-27306193D01*
X64518879Y-27306193D01*
X64127423Y-27468339D01*
X63711856Y-27551000D01*
X63288144Y-27551000D01*
X62872577Y-27468339D01*
X62481121Y-27306193D01*
X62481120Y-27306193D01*
X62481119Y-27306192D01*
X62128817Y-27070791D01*
X61829209Y-26771183D01*
X61593808Y-26418881D01*
X61593807Y-26418879D01*
X61431661Y-26027423D01*
X61349000Y-25611856D01*
X61349000Y-25188144D01*
X61431661Y-24772577D01*
X61593807Y-24381121D01*
X61593808Y-24381119D01*
X61829209Y-24028817D01*
X62128817Y-23729209D01*
X62481119Y-23493808D01*
X62481121Y-23493807D01*
X62872577Y-23331661D01*
X63288144Y-23249000D01*
X63711856Y-23249000D01*
X64127423Y-23331661D01*
G37*
G36*
X278843331Y-13936211D02*
G01*
X279171092Y-14071974D01*
X279466070Y-14269072D01*
X279716928Y-14519930D01*
X279914026Y-14814908D01*
X280049789Y-15142669D01*
X280119000Y-15490616D01*
X280119000Y-15845384D01*
X280049789Y-16193331D01*
X279914026Y-16521092D01*
X279716928Y-16816070D01*
X279466070Y-17066928D01*
X279171092Y-17264026D01*
X278843331Y-17399789D01*
X278495384Y-17469000D01*
X278140616Y-17469000D01*
X277792669Y-17399789D01*
X277464908Y-17264026D01*
X277169930Y-17066928D01*
X276919072Y-16816070D01*
X276721974Y-16521092D01*
X276586211Y-16193331D01*
X276517000Y-15845384D01*
X276517000Y-15490616D01*
X276586211Y-15142669D01*
X276721974Y-14814908D01*
X276919072Y-14519930D01*
X277169930Y-14269072D01*
X277464908Y-14071974D01*
X277792669Y-13936211D01*
X278140616Y-13867000D01*
X278495384Y-13867000D01*
X278843331Y-13936211D01*
G37*
M02*
