G04 #@! TF.GenerationSoftware,KiCad,Pcbnew,5.1.5-52549c5~84~ubuntu18.04.1*
G04 #@! TF.CreationDate,2020-02-09T17:31:39-05:00*
G04 #@! TF.ProjectId,cropdroid-reservoir,63726f70-6472-46f6-9964-2d7265736572,0.3a*
G04 #@! TF.SameCoordinates,Original*
G04 #@! TF.FileFunction,Legend,Top*
G04 #@! TF.FilePolarity,Positive*
%FSLAX46Y46*%
G04 Gerber Fmt 4.6, Leading zero omitted, Abs format (unit mm)*
G04 Created by KiCad (PCBNEW 5.1.5-52549c5~84~ubuntu18.04.1) date 2020-02-09 17:31:39*
%MOMM*%
%LPD*%
G04 APERTURE LIST*
%ADD10C,0.150000*%
%ADD11C,0.010000*%
%ADD12C,0.400000*%
%ADD13C,0.127000*%
%ADD14C,0.200000*%
%ADD15C,0.120000*%
%ADD16C,0.152400*%
%ADD17C,0.300000*%
%ADD18C,0.100000*%
%ADD19C,0.015000*%
G04 APERTURE END LIST*
D10*
X224663333Y-96845428D02*
X225425238Y-96845428D01*
X225044285Y-97226380D02*
X225044285Y-96464476D01*
X226377619Y-96226380D02*
X225901428Y-96226380D01*
X225853809Y-96702571D01*
X225901428Y-96654952D01*
X225996666Y-96607333D01*
X226234761Y-96607333D01*
X226330000Y-96654952D01*
X226377619Y-96702571D01*
X226425238Y-96797809D01*
X226425238Y-97035904D01*
X226377619Y-97131142D01*
X226330000Y-97178761D01*
X226234761Y-97226380D01*
X225996666Y-97226380D01*
X225901428Y-97178761D01*
X225853809Y-97131142D01*
X226710952Y-96226380D02*
X227044285Y-97226380D01*
X227377619Y-96226380D01*
X228472857Y-97226380D02*
X228472857Y-96226380D01*
X228710952Y-96226380D01*
X228853809Y-96274000D01*
X228949047Y-96369238D01*
X228996666Y-96464476D01*
X229044285Y-96654952D01*
X229044285Y-96797809D01*
X228996666Y-96988285D01*
X228949047Y-97083523D01*
X228853809Y-97178761D01*
X228710952Y-97226380D01*
X228472857Y-97226380D01*
X230044285Y-97131142D02*
X229996666Y-97178761D01*
X229853809Y-97226380D01*
X229758571Y-97226380D01*
X229615714Y-97178761D01*
X229520476Y-97083523D01*
X229472857Y-96988285D01*
X229425238Y-96797809D01*
X229425238Y-96654952D01*
X229472857Y-96464476D01*
X229520476Y-96369238D01*
X229615714Y-96274000D01*
X229758571Y-96226380D01*
X229853809Y-96226380D01*
X229996666Y-96274000D01*
X230044285Y-96321619D01*
X205438761Y-146883428D02*
X206200666Y-146883428D01*
X205819714Y-147264380D02*
X205819714Y-146502476D01*
X207200666Y-147264380D02*
X206629238Y-147264380D01*
X206914952Y-147264380D02*
X206914952Y-146264380D01*
X206819714Y-146407238D01*
X206724476Y-146502476D01*
X206629238Y-146550095D01*
X207581619Y-146359619D02*
X207629238Y-146312000D01*
X207724476Y-146264380D01*
X207962571Y-146264380D01*
X208057809Y-146312000D01*
X208105428Y-146359619D01*
X208153047Y-146454857D01*
X208153047Y-146550095D01*
X208105428Y-146692952D01*
X207534000Y-147264380D01*
X208153047Y-147264380D01*
X208486380Y-146597714D02*
X208724476Y-147264380D01*
X208962571Y-146597714D01*
X210105428Y-147264380D02*
X210105428Y-146264380D01*
X210343523Y-146264380D01*
X210486380Y-146312000D01*
X210581619Y-146407238D01*
X210629238Y-146502476D01*
X210676857Y-146692952D01*
X210676857Y-146835809D01*
X210629238Y-147026285D01*
X210581619Y-147121523D01*
X210486380Y-147216761D01*
X210343523Y-147264380D01*
X210105428Y-147264380D01*
X211676857Y-147169142D02*
X211629238Y-147216761D01*
X211486380Y-147264380D01*
X211391142Y-147264380D01*
X211248285Y-147216761D01*
X211153047Y-147121523D01*
X211105428Y-147026285D01*
X211057809Y-146835809D01*
X211057809Y-146692952D01*
X211105428Y-146502476D01*
X211153047Y-146407238D01*
X211248285Y-146312000D01*
X211391142Y-146264380D01*
X211486380Y-146264380D01*
X211629238Y-146312000D01*
X211676857Y-146359619D01*
X277796857Y-27948000D02*
X277701619Y-27900380D01*
X277558761Y-27900380D01*
X277415904Y-27948000D01*
X277320666Y-28043238D01*
X277273047Y-28138476D01*
X277225428Y-28328952D01*
X277225428Y-28471809D01*
X277273047Y-28662285D01*
X277320666Y-28757523D01*
X277415904Y-28852761D01*
X277558761Y-28900380D01*
X277654000Y-28900380D01*
X277796857Y-28852761D01*
X277844476Y-28805142D01*
X277844476Y-28471809D01*
X277654000Y-28471809D01*
X278273047Y-28900380D02*
X278273047Y-28233714D01*
X278273047Y-28424190D02*
X278320666Y-28328952D01*
X278368285Y-28281333D01*
X278463523Y-28233714D01*
X278558761Y-28233714D01*
X279034952Y-28900380D02*
X278939714Y-28852761D01*
X278892095Y-28805142D01*
X278844476Y-28709904D01*
X278844476Y-28424190D01*
X278892095Y-28328952D01*
X278939714Y-28281333D01*
X279034952Y-28233714D01*
X279177809Y-28233714D01*
X279273047Y-28281333D01*
X279320666Y-28328952D01*
X279368285Y-28424190D01*
X279368285Y-28709904D01*
X279320666Y-28805142D01*
X279273047Y-28852761D01*
X279177809Y-28900380D01*
X279034952Y-28900380D01*
X280225428Y-28233714D02*
X280225428Y-28900380D01*
X279796857Y-28233714D02*
X279796857Y-28757523D01*
X279844476Y-28852761D01*
X279939714Y-28900380D01*
X280082571Y-28900380D01*
X280177809Y-28852761D01*
X280225428Y-28805142D01*
X280701619Y-28233714D02*
X280701619Y-28900380D01*
X280701619Y-28328952D02*
X280749238Y-28281333D01*
X280844476Y-28233714D01*
X280987333Y-28233714D01*
X281082571Y-28281333D01*
X281130190Y-28376571D01*
X281130190Y-28900380D01*
X282034952Y-28900380D02*
X282034952Y-27900380D01*
X282034952Y-28852761D02*
X281939714Y-28900380D01*
X281749238Y-28900380D01*
X281654000Y-28852761D01*
X281606380Y-28805142D01*
X281558761Y-28709904D01*
X281558761Y-28424190D01*
X281606380Y-28328952D01*
X281654000Y-28281333D01*
X281749238Y-28233714D01*
X281939714Y-28233714D01*
X282034952Y-28281333D01*
X277431809Y-36012380D02*
X277431809Y-35012380D01*
X278003238Y-36012380D01*
X278003238Y-35012380D01*
X278860380Y-35964761D02*
X278765142Y-36012380D01*
X278574666Y-36012380D01*
X278479428Y-35964761D01*
X278431809Y-35869523D01*
X278431809Y-35488571D01*
X278479428Y-35393333D01*
X278574666Y-35345714D01*
X278765142Y-35345714D01*
X278860380Y-35393333D01*
X278908000Y-35488571D01*
X278908000Y-35583809D01*
X278431809Y-35679047D01*
X279765142Y-35345714D02*
X279765142Y-36012380D01*
X279336571Y-35345714D02*
X279336571Y-35869523D01*
X279384190Y-35964761D01*
X279479428Y-36012380D01*
X279622285Y-36012380D01*
X279717523Y-35964761D01*
X279765142Y-35917142D01*
X280098476Y-35345714D02*
X280479428Y-35345714D01*
X280241333Y-35012380D02*
X280241333Y-35869523D01*
X280288952Y-35964761D01*
X280384190Y-36012380D01*
X280479428Y-36012380D01*
X280812761Y-36012380D02*
X280812761Y-35345714D01*
X280812761Y-35536190D02*
X280860380Y-35440952D01*
X280908000Y-35393333D01*
X281003238Y-35345714D01*
X281098476Y-35345714D01*
X281860380Y-36012380D02*
X281860380Y-35488571D01*
X281812761Y-35393333D01*
X281717523Y-35345714D01*
X281527047Y-35345714D01*
X281431809Y-35393333D01*
X281860380Y-35964761D02*
X281765142Y-36012380D01*
X281527047Y-36012380D01*
X281431809Y-35964761D01*
X281384190Y-35869523D01*
X281384190Y-35774285D01*
X281431809Y-35679047D01*
X281527047Y-35631428D01*
X281765142Y-35631428D01*
X281860380Y-35583809D01*
X282479428Y-36012380D02*
X282384190Y-35964761D01*
X282336571Y-35869523D01*
X282336571Y-35012380D01*
X278590476Y-43124380D02*
X278114285Y-43124380D01*
X278114285Y-42124380D01*
X278923809Y-43124380D02*
X278923809Y-42457714D01*
X278923809Y-42124380D02*
X278876190Y-42172000D01*
X278923809Y-42219619D01*
X278971428Y-42172000D01*
X278923809Y-42124380D01*
X278923809Y-42219619D01*
X279400000Y-42457714D02*
X279400000Y-43124380D01*
X279400000Y-42552952D02*
X279447619Y-42505333D01*
X279542857Y-42457714D01*
X279685714Y-42457714D01*
X279780952Y-42505333D01*
X279828571Y-42600571D01*
X279828571Y-43124380D01*
X280685714Y-43076761D02*
X280590476Y-43124380D01*
X280400000Y-43124380D01*
X280304761Y-43076761D01*
X280257142Y-42981523D01*
X280257142Y-42600571D01*
X280304761Y-42505333D01*
X280400000Y-42457714D01*
X280590476Y-42457714D01*
X280685714Y-42505333D01*
X280733333Y-42600571D01*
X280733333Y-42695809D01*
X280257142Y-42791047D01*
X278312857Y-62936380D02*
X277741428Y-62936380D01*
X278027142Y-62936380D02*
X278027142Y-61936380D01*
X277931904Y-62079238D01*
X277836666Y-62174476D01*
X277741428Y-62222095D01*
X278693809Y-62031619D02*
X278741428Y-61984000D01*
X278836666Y-61936380D01*
X279074761Y-61936380D01*
X279170000Y-61984000D01*
X279217619Y-62031619D01*
X279265238Y-62126857D01*
X279265238Y-62222095D01*
X279217619Y-62364952D01*
X278646190Y-62936380D01*
X279265238Y-62936380D01*
X279884285Y-61936380D02*
X279979523Y-61936380D01*
X280074761Y-61984000D01*
X280122380Y-62031619D01*
X280170000Y-62126857D01*
X280217619Y-62317333D01*
X280217619Y-62555428D01*
X280170000Y-62745904D01*
X280122380Y-62841142D01*
X280074761Y-62888761D01*
X279979523Y-62936380D01*
X279884285Y-62936380D01*
X279789047Y-62888761D01*
X279741428Y-62841142D01*
X279693809Y-62745904D01*
X279646190Y-62555428D01*
X279646190Y-62317333D01*
X279693809Y-62126857D01*
X279741428Y-62031619D01*
X279789047Y-61984000D01*
X279884285Y-61936380D01*
X280550952Y-62269714D02*
X280789047Y-62936380D01*
X281027142Y-62269714D01*
X282122380Y-62650666D02*
X282598571Y-62650666D01*
X282027142Y-62936380D02*
X282360476Y-61936380D01*
X282693809Y-62936380D01*
X283598571Y-62841142D02*
X283550952Y-62888761D01*
X283408095Y-62936380D01*
X283312857Y-62936380D01*
X283170000Y-62888761D01*
X283074761Y-62793523D01*
X283027142Y-62698285D01*
X282979523Y-62507809D01*
X282979523Y-62364952D01*
X283027142Y-62174476D01*
X283074761Y-62079238D01*
X283170000Y-61984000D01*
X283312857Y-61936380D01*
X283408095Y-61936380D01*
X283550952Y-61984000D01*
X283598571Y-62031619D01*
X173077142Y-76072666D02*
X173124761Y-76120285D01*
X173172380Y-76263142D01*
X173172380Y-76358380D01*
X173124761Y-76501238D01*
X173029523Y-76596476D01*
X172934285Y-76644095D01*
X172743809Y-76691714D01*
X172600952Y-76691714D01*
X172410476Y-76644095D01*
X172315238Y-76596476D01*
X172220000Y-76501238D01*
X172172380Y-76358380D01*
X172172380Y-76263142D01*
X172220000Y-76120285D01*
X172267619Y-76072666D01*
X173172380Y-75644095D02*
X172172380Y-75644095D01*
X173172380Y-75215523D02*
X172648571Y-75215523D01*
X172553333Y-75263142D01*
X172505714Y-75358380D01*
X172505714Y-75501238D01*
X172553333Y-75596476D01*
X172600952Y-75644095D01*
X173172380Y-74310761D02*
X172648571Y-74310761D01*
X172553333Y-74358380D01*
X172505714Y-74453619D01*
X172505714Y-74644095D01*
X172553333Y-74739333D01*
X173124761Y-74310761D02*
X173172380Y-74406000D01*
X173172380Y-74644095D01*
X173124761Y-74739333D01*
X173029523Y-74786952D01*
X172934285Y-74786952D01*
X172839047Y-74739333D01*
X172791428Y-74644095D01*
X172791428Y-74406000D01*
X172743809Y-74310761D01*
X172505714Y-73834571D02*
X173172380Y-73834571D01*
X172600952Y-73834571D02*
X172553333Y-73786952D01*
X172505714Y-73691714D01*
X172505714Y-73548857D01*
X172553333Y-73453619D01*
X172648571Y-73406000D01*
X173172380Y-73406000D01*
X172505714Y-72929809D02*
X173172380Y-72929809D01*
X172600952Y-72929809D02*
X172553333Y-72882190D01*
X172505714Y-72786952D01*
X172505714Y-72644095D01*
X172553333Y-72548857D01*
X172648571Y-72501238D01*
X173172380Y-72501238D01*
X173124761Y-71644095D02*
X173172380Y-71739333D01*
X173172380Y-71929809D01*
X173124761Y-72025047D01*
X173029523Y-72072666D01*
X172648571Y-72072666D01*
X172553333Y-72025047D01*
X172505714Y-71929809D01*
X172505714Y-71739333D01*
X172553333Y-71644095D01*
X172648571Y-71596476D01*
X172743809Y-71596476D01*
X172839047Y-72072666D01*
X173172380Y-71025047D02*
X173124761Y-71120285D01*
X173029523Y-71167904D01*
X172172380Y-71167904D01*
X172172380Y-70739333D02*
X172172380Y-70120285D01*
X172553333Y-70453619D01*
X172553333Y-70310761D01*
X172600952Y-70215523D01*
X172648571Y-70167904D01*
X172743809Y-70120285D01*
X172981904Y-70120285D01*
X173077142Y-70167904D01*
X173124761Y-70215523D01*
X173172380Y-70310761D01*
X173172380Y-70596476D01*
X173124761Y-70691714D01*
X173077142Y-70739333D01*
X122277142Y-76072666D02*
X122324761Y-76120285D01*
X122372380Y-76263142D01*
X122372380Y-76358380D01*
X122324761Y-76501238D01*
X122229523Y-76596476D01*
X122134285Y-76644095D01*
X121943809Y-76691714D01*
X121800952Y-76691714D01*
X121610476Y-76644095D01*
X121515238Y-76596476D01*
X121420000Y-76501238D01*
X121372380Y-76358380D01*
X121372380Y-76263142D01*
X121420000Y-76120285D01*
X121467619Y-76072666D01*
X122372380Y-75644095D02*
X121372380Y-75644095D01*
X122372380Y-75215523D02*
X121848571Y-75215523D01*
X121753333Y-75263142D01*
X121705714Y-75358380D01*
X121705714Y-75501238D01*
X121753333Y-75596476D01*
X121800952Y-75644095D01*
X122372380Y-74310761D02*
X121848571Y-74310761D01*
X121753333Y-74358380D01*
X121705714Y-74453619D01*
X121705714Y-74644095D01*
X121753333Y-74739333D01*
X122324761Y-74310761D02*
X122372380Y-74406000D01*
X122372380Y-74644095D01*
X122324761Y-74739333D01*
X122229523Y-74786952D01*
X122134285Y-74786952D01*
X122039047Y-74739333D01*
X121991428Y-74644095D01*
X121991428Y-74406000D01*
X121943809Y-74310761D01*
X121705714Y-73834571D02*
X122372380Y-73834571D01*
X121800952Y-73834571D02*
X121753333Y-73786952D01*
X121705714Y-73691714D01*
X121705714Y-73548857D01*
X121753333Y-73453619D01*
X121848571Y-73406000D01*
X122372380Y-73406000D01*
X121705714Y-72929809D02*
X122372380Y-72929809D01*
X121800952Y-72929809D02*
X121753333Y-72882190D01*
X121705714Y-72786952D01*
X121705714Y-72644095D01*
X121753333Y-72548857D01*
X121848571Y-72501238D01*
X122372380Y-72501238D01*
X122324761Y-71644095D02*
X122372380Y-71739333D01*
X122372380Y-71929809D01*
X122324761Y-72025047D01*
X122229523Y-72072666D01*
X121848571Y-72072666D01*
X121753333Y-72025047D01*
X121705714Y-71929809D01*
X121705714Y-71739333D01*
X121753333Y-71644095D01*
X121848571Y-71596476D01*
X121943809Y-71596476D01*
X122039047Y-72072666D01*
X122372380Y-71025047D02*
X122324761Y-71120285D01*
X122229523Y-71167904D01*
X121372380Y-71167904D01*
X121467619Y-70691714D02*
X121420000Y-70644095D01*
X121372380Y-70548857D01*
X121372380Y-70310761D01*
X121420000Y-70215523D01*
X121467619Y-70167904D01*
X121562857Y-70120285D01*
X121658095Y-70120285D01*
X121800952Y-70167904D01*
X122372380Y-70739333D01*
X122372380Y-70120285D01*
X71985142Y-75818666D02*
X72032761Y-75866285D01*
X72080380Y-76009142D01*
X72080380Y-76104380D01*
X72032761Y-76247238D01*
X71937523Y-76342476D01*
X71842285Y-76390095D01*
X71651809Y-76437714D01*
X71508952Y-76437714D01*
X71318476Y-76390095D01*
X71223238Y-76342476D01*
X71128000Y-76247238D01*
X71080380Y-76104380D01*
X71080380Y-76009142D01*
X71128000Y-75866285D01*
X71175619Y-75818666D01*
X72080380Y-75390095D02*
X71080380Y-75390095D01*
X72080380Y-74961523D02*
X71556571Y-74961523D01*
X71461333Y-75009142D01*
X71413714Y-75104380D01*
X71413714Y-75247238D01*
X71461333Y-75342476D01*
X71508952Y-75390095D01*
X72080380Y-74056761D02*
X71556571Y-74056761D01*
X71461333Y-74104380D01*
X71413714Y-74199619D01*
X71413714Y-74390095D01*
X71461333Y-74485333D01*
X72032761Y-74056761D02*
X72080380Y-74152000D01*
X72080380Y-74390095D01*
X72032761Y-74485333D01*
X71937523Y-74532952D01*
X71842285Y-74532952D01*
X71747047Y-74485333D01*
X71699428Y-74390095D01*
X71699428Y-74152000D01*
X71651809Y-74056761D01*
X71413714Y-73580571D02*
X72080380Y-73580571D01*
X71508952Y-73580571D02*
X71461333Y-73532952D01*
X71413714Y-73437714D01*
X71413714Y-73294857D01*
X71461333Y-73199619D01*
X71556571Y-73152000D01*
X72080380Y-73152000D01*
X71413714Y-72675809D02*
X72080380Y-72675809D01*
X71508952Y-72675809D02*
X71461333Y-72628190D01*
X71413714Y-72532952D01*
X71413714Y-72390095D01*
X71461333Y-72294857D01*
X71556571Y-72247238D01*
X72080380Y-72247238D01*
X72032761Y-71390095D02*
X72080380Y-71485333D01*
X72080380Y-71675809D01*
X72032761Y-71771047D01*
X71937523Y-71818666D01*
X71556571Y-71818666D01*
X71461333Y-71771047D01*
X71413714Y-71675809D01*
X71413714Y-71485333D01*
X71461333Y-71390095D01*
X71556571Y-71342476D01*
X71651809Y-71342476D01*
X71747047Y-71818666D01*
X72080380Y-70771047D02*
X72032761Y-70866285D01*
X71937523Y-70913904D01*
X71080380Y-70913904D01*
X72080380Y-69866285D02*
X72080380Y-70437714D01*
X72080380Y-70152000D02*
X71080380Y-70152000D01*
X71223238Y-70247238D01*
X71318476Y-70342476D01*
X71366095Y-70437714D01*
X139065333Y-181713142D02*
X139017714Y-181760761D01*
X138874857Y-181808380D01*
X138779619Y-181808380D01*
X138636761Y-181760761D01*
X138541523Y-181665523D01*
X138493904Y-181570285D01*
X138446285Y-181379809D01*
X138446285Y-181236952D01*
X138493904Y-181046476D01*
X138541523Y-180951238D01*
X138636761Y-180856000D01*
X138779619Y-180808380D01*
X138874857Y-180808380D01*
X139017714Y-180856000D01*
X139065333Y-180903619D01*
X139493904Y-181808380D02*
X139493904Y-180808380D01*
X139922476Y-181808380D02*
X139922476Y-181284571D01*
X139874857Y-181189333D01*
X139779619Y-181141714D01*
X139636761Y-181141714D01*
X139541523Y-181189333D01*
X139493904Y-181236952D01*
X140827238Y-181808380D02*
X140827238Y-181284571D01*
X140779619Y-181189333D01*
X140684380Y-181141714D01*
X140493904Y-181141714D01*
X140398666Y-181189333D01*
X140827238Y-181760761D02*
X140732000Y-181808380D01*
X140493904Y-181808380D01*
X140398666Y-181760761D01*
X140351047Y-181665523D01*
X140351047Y-181570285D01*
X140398666Y-181475047D01*
X140493904Y-181427428D01*
X140732000Y-181427428D01*
X140827238Y-181379809D01*
X141303428Y-181141714D02*
X141303428Y-181808380D01*
X141303428Y-181236952D02*
X141351047Y-181189333D01*
X141446285Y-181141714D01*
X141589142Y-181141714D01*
X141684380Y-181189333D01*
X141732000Y-181284571D01*
X141732000Y-181808380D01*
X142208190Y-181141714D02*
X142208190Y-181808380D01*
X142208190Y-181236952D02*
X142255809Y-181189333D01*
X142351047Y-181141714D01*
X142493904Y-181141714D01*
X142589142Y-181189333D01*
X142636761Y-181284571D01*
X142636761Y-181808380D01*
X143493904Y-181760761D02*
X143398666Y-181808380D01*
X143208190Y-181808380D01*
X143112952Y-181760761D01*
X143065333Y-181665523D01*
X143065333Y-181284571D01*
X143112952Y-181189333D01*
X143208190Y-181141714D01*
X143398666Y-181141714D01*
X143493904Y-181189333D01*
X143541523Y-181284571D01*
X143541523Y-181379809D01*
X143065333Y-181475047D01*
X144112952Y-181808380D02*
X144017714Y-181760761D01*
X143970095Y-181665523D01*
X143970095Y-180808380D01*
X144922476Y-180808380D02*
X144732000Y-180808380D01*
X144636761Y-180856000D01*
X144589142Y-180903619D01*
X144493904Y-181046476D01*
X144446285Y-181236952D01*
X144446285Y-181617904D01*
X144493904Y-181713142D01*
X144541523Y-181760761D01*
X144636761Y-181808380D01*
X144827238Y-181808380D01*
X144922476Y-181760761D01*
X144970095Y-181713142D01*
X145017714Y-181617904D01*
X145017714Y-181379809D01*
X144970095Y-181284571D01*
X144922476Y-181236952D01*
X144827238Y-181189333D01*
X144636761Y-181189333D01*
X144541523Y-181236952D01*
X144493904Y-181284571D01*
X144446285Y-181379809D01*
X122809333Y-181967142D02*
X122761714Y-182014761D01*
X122618857Y-182062380D01*
X122523619Y-182062380D01*
X122380761Y-182014761D01*
X122285523Y-181919523D01*
X122237904Y-181824285D01*
X122190285Y-181633809D01*
X122190285Y-181490952D01*
X122237904Y-181300476D01*
X122285523Y-181205238D01*
X122380761Y-181110000D01*
X122523619Y-181062380D01*
X122618857Y-181062380D01*
X122761714Y-181110000D01*
X122809333Y-181157619D01*
X123237904Y-182062380D02*
X123237904Y-181062380D01*
X123666476Y-182062380D02*
X123666476Y-181538571D01*
X123618857Y-181443333D01*
X123523619Y-181395714D01*
X123380761Y-181395714D01*
X123285523Y-181443333D01*
X123237904Y-181490952D01*
X124571238Y-182062380D02*
X124571238Y-181538571D01*
X124523619Y-181443333D01*
X124428380Y-181395714D01*
X124237904Y-181395714D01*
X124142666Y-181443333D01*
X124571238Y-182014761D02*
X124476000Y-182062380D01*
X124237904Y-182062380D01*
X124142666Y-182014761D01*
X124095047Y-181919523D01*
X124095047Y-181824285D01*
X124142666Y-181729047D01*
X124237904Y-181681428D01*
X124476000Y-181681428D01*
X124571238Y-181633809D01*
X125047428Y-181395714D02*
X125047428Y-182062380D01*
X125047428Y-181490952D02*
X125095047Y-181443333D01*
X125190285Y-181395714D01*
X125333142Y-181395714D01*
X125428380Y-181443333D01*
X125476000Y-181538571D01*
X125476000Y-182062380D01*
X125952190Y-181395714D02*
X125952190Y-182062380D01*
X125952190Y-181490952D02*
X125999809Y-181443333D01*
X126095047Y-181395714D01*
X126237904Y-181395714D01*
X126333142Y-181443333D01*
X126380761Y-181538571D01*
X126380761Y-182062380D01*
X127237904Y-182014761D02*
X127142666Y-182062380D01*
X126952190Y-182062380D01*
X126856952Y-182014761D01*
X126809333Y-181919523D01*
X126809333Y-181538571D01*
X126856952Y-181443333D01*
X126952190Y-181395714D01*
X127142666Y-181395714D01*
X127237904Y-181443333D01*
X127285523Y-181538571D01*
X127285523Y-181633809D01*
X126809333Y-181729047D01*
X127856952Y-182062380D02*
X127761714Y-182014761D01*
X127714095Y-181919523D01*
X127714095Y-181062380D01*
X128714095Y-181062380D02*
X128237904Y-181062380D01*
X128190285Y-181538571D01*
X128237904Y-181490952D01*
X128333142Y-181443333D01*
X128571238Y-181443333D01*
X128666476Y-181490952D01*
X128714095Y-181538571D01*
X128761714Y-181633809D01*
X128761714Y-181871904D01*
X128714095Y-181967142D01*
X128666476Y-182014761D01*
X128571238Y-182062380D01*
X128333142Y-182062380D01*
X128237904Y-182014761D01*
X128190285Y-181967142D01*
X106553333Y-181967142D02*
X106505714Y-182014761D01*
X106362857Y-182062380D01*
X106267619Y-182062380D01*
X106124761Y-182014761D01*
X106029523Y-181919523D01*
X105981904Y-181824285D01*
X105934285Y-181633809D01*
X105934285Y-181490952D01*
X105981904Y-181300476D01*
X106029523Y-181205238D01*
X106124761Y-181110000D01*
X106267619Y-181062380D01*
X106362857Y-181062380D01*
X106505714Y-181110000D01*
X106553333Y-181157619D01*
X106981904Y-182062380D02*
X106981904Y-181062380D01*
X107410476Y-182062380D02*
X107410476Y-181538571D01*
X107362857Y-181443333D01*
X107267619Y-181395714D01*
X107124761Y-181395714D01*
X107029523Y-181443333D01*
X106981904Y-181490952D01*
X108315238Y-182062380D02*
X108315238Y-181538571D01*
X108267619Y-181443333D01*
X108172380Y-181395714D01*
X107981904Y-181395714D01*
X107886666Y-181443333D01*
X108315238Y-182014761D02*
X108220000Y-182062380D01*
X107981904Y-182062380D01*
X107886666Y-182014761D01*
X107839047Y-181919523D01*
X107839047Y-181824285D01*
X107886666Y-181729047D01*
X107981904Y-181681428D01*
X108220000Y-181681428D01*
X108315238Y-181633809D01*
X108791428Y-181395714D02*
X108791428Y-182062380D01*
X108791428Y-181490952D02*
X108839047Y-181443333D01*
X108934285Y-181395714D01*
X109077142Y-181395714D01*
X109172380Y-181443333D01*
X109220000Y-181538571D01*
X109220000Y-182062380D01*
X109696190Y-181395714D02*
X109696190Y-182062380D01*
X109696190Y-181490952D02*
X109743809Y-181443333D01*
X109839047Y-181395714D01*
X109981904Y-181395714D01*
X110077142Y-181443333D01*
X110124761Y-181538571D01*
X110124761Y-182062380D01*
X110981904Y-182014761D02*
X110886666Y-182062380D01*
X110696190Y-182062380D01*
X110600952Y-182014761D01*
X110553333Y-181919523D01*
X110553333Y-181538571D01*
X110600952Y-181443333D01*
X110696190Y-181395714D01*
X110886666Y-181395714D01*
X110981904Y-181443333D01*
X111029523Y-181538571D01*
X111029523Y-181633809D01*
X110553333Y-181729047D01*
X111600952Y-182062380D02*
X111505714Y-182014761D01*
X111458095Y-181919523D01*
X111458095Y-181062380D01*
X112410476Y-181395714D02*
X112410476Y-182062380D01*
X112172380Y-181014761D02*
X111934285Y-181729047D01*
X112553333Y-181729047D01*
X163957333Y-181713142D02*
X163909714Y-181760761D01*
X163766857Y-181808380D01*
X163671619Y-181808380D01*
X163528761Y-181760761D01*
X163433523Y-181665523D01*
X163385904Y-181570285D01*
X163338285Y-181379809D01*
X163338285Y-181236952D01*
X163385904Y-181046476D01*
X163433523Y-180951238D01*
X163528761Y-180856000D01*
X163671619Y-180808380D01*
X163766857Y-180808380D01*
X163909714Y-180856000D01*
X163957333Y-180903619D01*
X164385904Y-181808380D02*
X164385904Y-180808380D01*
X164814476Y-181808380D02*
X164814476Y-181284571D01*
X164766857Y-181189333D01*
X164671619Y-181141714D01*
X164528761Y-181141714D01*
X164433523Y-181189333D01*
X164385904Y-181236952D01*
X165719238Y-181808380D02*
X165719238Y-181284571D01*
X165671619Y-181189333D01*
X165576380Y-181141714D01*
X165385904Y-181141714D01*
X165290666Y-181189333D01*
X165719238Y-181760761D02*
X165624000Y-181808380D01*
X165385904Y-181808380D01*
X165290666Y-181760761D01*
X165243047Y-181665523D01*
X165243047Y-181570285D01*
X165290666Y-181475047D01*
X165385904Y-181427428D01*
X165624000Y-181427428D01*
X165719238Y-181379809D01*
X166195428Y-181141714D02*
X166195428Y-181808380D01*
X166195428Y-181236952D02*
X166243047Y-181189333D01*
X166338285Y-181141714D01*
X166481142Y-181141714D01*
X166576380Y-181189333D01*
X166624000Y-181284571D01*
X166624000Y-181808380D01*
X167100190Y-181141714D02*
X167100190Y-181808380D01*
X167100190Y-181236952D02*
X167147809Y-181189333D01*
X167243047Y-181141714D01*
X167385904Y-181141714D01*
X167481142Y-181189333D01*
X167528761Y-181284571D01*
X167528761Y-181808380D01*
X168385904Y-181760761D02*
X168290666Y-181808380D01*
X168100190Y-181808380D01*
X168004952Y-181760761D01*
X167957333Y-181665523D01*
X167957333Y-181284571D01*
X168004952Y-181189333D01*
X168100190Y-181141714D01*
X168290666Y-181141714D01*
X168385904Y-181189333D01*
X168433523Y-181284571D01*
X168433523Y-181379809D01*
X167957333Y-181475047D01*
X169004952Y-181808380D02*
X168909714Y-181760761D01*
X168862095Y-181665523D01*
X168862095Y-180808380D01*
X169576380Y-180808380D02*
X169671619Y-180808380D01*
X169766857Y-180856000D01*
X169814476Y-180903619D01*
X169862095Y-180998857D01*
X169909714Y-181189333D01*
X169909714Y-181427428D01*
X169862095Y-181617904D01*
X169814476Y-181713142D01*
X169766857Y-181760761D01*
X169671619Y-181808380D01*
X169576380Y-181808380D01*
X169481142Y-181760761D01*
X169433523Y-181713142D01*
X169385904Y-181617904D01*
X169338285Y-181427428D01*
X169338285Y-181189333D01*
X169385904Y-180998857D01*
X169433523Y-180903619D01*
X169481142Y-180856000D01*
X169576380Y-180808380D01*
X80780285Y-181522666D02*
X81256476Y-181522666D01*
X80685047Y-181808380D02*
X81018380Y-180808380D01*
X81351714Y-181808380D01*
X81685047Y-181141714D02*
X81685047Y-181808380D01*
X81685047Y-181236952D02*
X81732666Y-181189333D01*
X81827904Y-181141714D01*
X81970761Y-181141714D01*
X82066000Y-181189333D01*
X82113619Y-181284571D01*
X82113619Y-181808380D01*
X83018380Y-181808380D02*
X83018380Y-181284571D01*
X82970761Y-181189333D01*
X82875523Y-181141714D01*
X82685047Y-181141714D01*
X82589809Y-181189333D01*
X83018380Y-181760761D02*
X82923142Y-181808380D01*
X82685047Y-181808380D01*
X82589809Y-181760761D01*
X82542190Y-181665523D01*
X82542190Y-181570285D01*
X82589809Y-181475047D01*
X82685047Y-181427428D01*
X82923142Y-181427428D01*
X83018380Y-181379809D01*
X83637428Y-181808380D02*
X83542190Y-181760761D01*
X83494571Y-181665523D01*
X83494571Y-180808380D01*
X84161238Y-181808380D02*
X84066000Y-181760761D01*
X84018380Y-181713142D01*
X83970761Y-181617904D01*
X83970761Y-181332190D01*
X84018380Y-181236952D01*
X84066000Y-181189333D01*
X84161238Y-181141714D01*
X84304095Y-181141714D01*
X84399333Y-181189333D01*
X84446952Y-181236952D01*
X84494571Y-181332190D01*
X84494571Y-181617904D01*
X84446952Y-181713142D01*
X84399333Y-181760761D01*
X84304095Y-181808380D01*
X84161238Y-181808380D01*
X85351714Y-181141714D02*
X85351714Y-181951238D01*
X85304095Y-182046476D01*
X85256476Y-182094095D01*
X85161238Y-182141714D01*
X85018380Y-182141714D01*
X84923142Y-182094095D01*
X85351714Y-181760761D02*
X85256476Y-181808380D01*
X85066000Y-181808380D01*
X84970761Y-181760761D01*
X84923142Y-181713142D01*
X84875523Y-181617904D01*
X84875523Y-181332190D01*
X84923142Y-181236952D01*
X84970761Y-181189333D01*
X85066000Y-181141714D01*
X85256476Y-181141714D01*
X85351714Y-181189333D01*
X86351714Y-181808380D02*
X85780285Y-181808380D01*
X86066000Y-181808380D02*
X86066000Y-180808380D01*
X85970761Y-180951238D01*
X85875523Y-181046476D01*
X85780285Y-181094095D01*
X64524285Y-181522666D02*
X65000476Y-181522666D01*
X64429047Y-181808380D02*
X64762380Y-180808380D01*
X65095714Y-181808380D01*
X65429047Y-181141714D02*
X65429047Y-181808380D01*
X65429047Y-181236952D02*
X65476666Y-181189333D01*
X65571904Y-181141714D01*
X65714761Y-181141714D01*
X65810000Y-181189333D01*
X65857619Y-181284571D01*
X65857619Y-181808380D01*
X66762380Y-181808380D02*
X66762380Y-181284571D01*
X66714761Y-181189333D01*
X66619523Y-181141714D01*
X66429047Y-181141714D01*
X66333809Y-181189333D01*
X66762380Y-181760761D02*
X66667142Y-181808380D01*
X66429047Y-181808380D01*
X66333809Y-181760761D01*
X66286190Y-181665523D01*
X66286190Y-181570285D01*
X66333809Y-181475047D01*
X66429047Y-181427428D01*
X66667142Y-181427428D01*
X66762380Y-181379809D01*
X67381428Y-181808380D02*
X67286190Y-181760761D01*
X67238571Y-181665523D01*
X67238571Y-180808380D01*
X67905238Y-181808380D02*
X67810000Y-181760761D01*
X67762380Y-181713142D01*
X67714761Y-181617904D01*
X67714761Y-181332190D01*
X67762380Y-181236952D01*
X67810000Y-181189333D01*
X67905238Y-181141714D01*
X68048095Y-181141714D01*
X68143333Y-181189333D01*
X68190952Y-181236952D01*
X68238571Y-181332190D01*
X68238571Y-181617904D01*
X68190952Y-181713142D01*
X68143333Y-181760761D01*
X68048095Y-181808380D01*
X67905238Y-181808380D01*
X69095714Y-181141714D02*
X69095714Y-181951238D01*
X69048095Y-182046476D01*
X69000476Y-182094095D01*
X68905238Y-182141714D01*
X68762380Y-182141714D01*
X68667142Y-182094095D01*
X69095714Y-181760761D02*
X69000476Y-181808380D01*
X68810000Y-181808380D01*
X68714761Y-181760761D01*
X68667142Y-181713142D01*
X68619523Y-181617904D01*
X68619523Y-181332190D01*
X68667142Y-181236952D01*
X68714761Y-181189333D01*
X68810000Y-181141714D01*
X69000476Y-181141714D01*
X69095714Y-181189333D01*
X69762380Y-180808380D02*
X69857619Y-180808380D01*
X69952857Y-180856000D01*
X70000476Y-180903619D01*
X70048095Y-180998857D01*
X70095714Y-181189333D01*
X70095714Y-181427428D01*
X70048095Y-181617904D01*
X70000476Y-181713142D01*
X69952857Y-181760761D01*
X69857619Y-181808380D01*
X69762380Y-181808380D01*
X69667142Y-181760761D01*
X69619523Y-181713142D01*
X69571904Y-181617904D01*
X69524285Y-181427428D01*
X69524285Y-181189333D01*
X69571904Y-180998857D01*
X69619523Y-180903619D01*
X69667142Y-180856000D01*
X69762380Y-180808380D01*
X40402190Y-180808380D02*
X40592666Y-180808380D01*
X40687904Y-180856000D01*
X40783142Y-180951238D01*
X40830761Y-181141714D01*
X40830761Y-181475047D01*
X40783142Y-181665523D01*
X40687904Y-181760761D01*
X40592666Y-181808380D01*
X40402190Y-181808380D01*
X40306952Y-181760761D01*
X40211714Y-181665523D01*
X40164095Y-181475047D01*
X40164095Y-181141714D01*
X40211714Y-180951238D01*
X40306952Y-180856000D01*
X40402190Y-180808380D01*
X41259333Y-181141714D02*
X41259333Y-181808380D01*
X41259333Y-181236952D02*
X41306952Y-181189333D01*
X41402190Y-181141714D01*
X41545047Y-181141714D01*
X41640285Y-181189333D01*
X41687904Y-181284571D01*
X41687904Y-181808380D01*
X42545047Y-181760761D02*
X42449809Y-181808380D01*
X42259333Y-181808380D01*
X42164095Y-181760761D01*
X42116476Y-181665523D01*
X42116476Y-181284571D01*
X42164095Y-181189333D01*
X42259333Y-181141714D01*
X42449809Y-181141714D01*
X42545047Y-181189333D01*
X42592666Y-181284571D01*
X42592666Y-181379809D01*
X42116476Y-181475047D01*
X42926000Y-180808380D02*
X43164095Y-181808380D01*
X43354571Y-181094095D01*
X43545047Y-181808380D01*
X43783142Y-180808380D01*
X44164095Y-181808380D02*
X44164095Y-181141714D01*
X44164095Y-180808380D02*
X44116476Y-180856000D01*
X44164095Y-180903619D01*
X44211714Y-180856000D01*
X44164095Y-180808380D01*
X44164095Y-180903619D01*
X44640285Y-181808380D02*
X44640285Y-181141714D01*
X44640285Y-181332190D02*
X44687904Y-181236952D01*
X44735523Y-181189333D01*
X44830761Y-181141714D01*
X44925999Y-181141714D01*
X45640285Y-181760761D02*
X45545047Y-181808380D01*
X45354571Y-181808380D01*
X45259333Y-181760761D01*
X45211714Y-181665523D01*
X45211714Y-181284571D01*
X45259333Y-181189333D01*
X45354571Y-181141714D01*
X45545047Y-181141714D01*
X45640285Y-181189333D01*
X45687904Y-181284571D01*
X45687904Y-181379809D01*
X45211714Y-181475047D01*
X19957023Y-17757142D02*
X19909404Y-17804761D01*
X19766547Y-17852380D01*
X19671309Y-17852380D01*
X19528452Y-17804761D01*
X19433214Y-17709523D01*
X19385595Y-17614285D01*
X19337976Y-17423809D01*
X19337976Y-17280952D01*
X19385595Y-17090476D01*
X19433214Y-16995238D01*
X19528452Y-16900000D01*
X19671309Y-16852380D01*
X19766547Y-16852380D01*
X19909404Y-16900000D01*
X19957023Y-16947619D01*
X20385595Y-17852380D02*
X20385595Y-17185714D01*
X20385595Y-17376190D02*
X20433214Y-17280952D01*
X20480833Y-17233333D01*
X20576071Y-17185714D01*
X20671309Y-17185714D01*
X21147500Y-17852380D02*
X21052261Y-17804761D01*
X21004642Y-17757142D01*
X20957023Y-17661904D01*
X20957023Y-17376190D01*
X21004642Y-17280952D01*
X21052261Y-17233333D01*
X21147500Y-17185714D01*
X21290357Y-17185714D01*
X21385595Y-17233333D01*
X21433214Y-17280952D01*
X21480833Y-17376190D01*
X21480833Y-17661904D01*
X21433214Y-17757142D01*
X21385595Y-17804761D01*
X21290357Y-17852380D01*
X21147500Y-17852380D01*
X21909404Y-17185714D02*
X21909404Y-18185714D01*
X21909404Y-17233333D02*
X22004642Y-17185714D01*
X22195119Y-17185714D01*
X22290357Y-17233333D01*
X22337976Y-17280952D01*
X22385595Y-17376190D01*
X22385595Y-17661904D01*
X22337976Y-17757142D01*
X22290357Y-17804761D01*
X22195119Y-17852380D01*
X22004642Y-17852380D01*
X21909404Y-17804761D01*
X22814166Y-17852380D02*
X22814166Y-16852380D01*
X23052261Y-16852380D01*
X23195119Y-16900000D01*
X23290357Y-16995238D01*
X23337976Y-17090476D01*
X23385595Y-17280952D01*
X23385595Y-17423809D01*
X23337976Y-17614285D01*
X23290357Y-17709523D01*
X23195119Y-17804761D01*
X23052261Y-17852380D01*
X22814166Y-17852380D01*
X23814166Y-17852380D02*
X23814166Y-17185714D01*
X23814166Y-17376190D02*
X23861785Y-17280952D01*
X23909404Y-17233333D01*
X24004642Y-17185714D01*
X24099880Y-17185714D01*
X24576071Y-17852380D02*
X24480833Y-17804761D01*
X24433214Y-17757142D01*
X24385595Y-17661904D01*
X24385595Y-17376190D01*
X24433214Y-17280952D01*
X24480833Y-17233333D01*
X24576071Y-17185714D01*
X24718928Y-17185714D01*
X24814166Y-17233333D01*
X24861785Y-17280952D01*
X24909404Y-17376190D01*
X24909404Y-17661904D01*
X24861785Y-17757142D01*
X24814166Y-17804761D01*
X24718928Y-17852380D01*
X24576071Y-17852380D01*
X25337976Y-17852380D02*
X25337976Y-17185714D01*
X25337976Y-16852380D02*
X25290357Y-16900000D01*
X25337976Y-16947619D01*
X25385595Y-16900000D01*
X25337976Y-16852380D01*
X25337976Y-16947619D01*
X26242738Y-17852380D02*
X26242738Y-16852380D01*
X26242738Y-17804761D02*
X26147500Y-17852380D01*
X25957023Y-17852380D01*
X25861785Y-17804761D01*
X25814166Y-17757142D01*
X25766547Y-17661904D01*
X25766547Y-17376190D01*
X25814166Y-17280952D01*
X25861785Y-17233333D01*
X25957023Y-17185714D01*
X26147500Y-17185714D01*
X26242738Y-17233333D01*
X28052261Y-17852380D02*
X27718928Y-17376190D01*
X27480833Y-17852380D02*
X27480833Y-16852380D01*
X27861785Y-16852380D01*
X27957023Y-16900000D01*
X28004642Y-16947619D01*
X28052261Y-17042857D01*
X28052261Y-17185714D01*
X28004642Y-17280952D01*
X27957023Y-17328571D01*
X27861785Y-17376190D01*
X27480833Y-17376190D01*
X28861785Y-17804761D02*
X28766547Y-17852380D01*
X28576071Y-17852380D01*
X28480833Y-17804761D01*
X28433214Y-17709523D01*
X28433214Y-17328571D01*
X28480833Y-17233333D01*
X28576071Y-17185714D01*
X28766547Y-17185714D01*
X28861785Y-17233333D01*
X28909404Y-17328571D01*
X28909404Y-17423809D01*
X28433214Y-17519047D01*
X29290357Y-17804761D02*
X29385595Y-17852380D01*
X29576071Y-17852380D01*
X29671309Y-17804761D01*
X29718928Y-17709523D01*
X29718928Y-17661904D01*
X29671309Y-17566666D01*
X29576071Y-17519047D01*
X29433214Y-17519047D01*
X29337976Y-17471428D01*
X29290357Y-17376190D01*
X29290357Y-17328571D01*
X29337976Y-17233333D01*
X29433214Y-17185714D01*
X29576071Y-17185714D01*
X29671309Y-17233333D01*
X30528452Y-17804761D02*
X30433214Y-17852380D01*
X30242738Y-17852380D01*
X30147500Y-17804761D01*
X30099880Y-17709523D01*
X30099880Y-17328571D01*
X30147500Y-17233333D01*
X30242738Y-17185714D01*
X30433214Y-17185714D01*
X30528452Y-17233333D01*
X30576071Y-17328571D01*
X30576071Y-17423809D01*
X30099880Y-17519047D01*
X31004642Y-17852380D02*
X31004642Y-17185714D01*
X31004642Y-17376190D02*
X31052261Y-17280952D01*
X31099880Y-17233333D01*
X31195119Y-17185714D01*
X31290357Y-17185714D01*
X31528452Y-17185714D02*
X31766547Y-17852380D01*
X32004642Y-17185714D01*
X32528452Y-17852380D02*
X32433214Y-17804761D01*
X32385595Y-17757142D01*
X32337976Y-17661904D01*
X32337976Y-17376190D01*
X32385595Y-17280952D01*
X32433214Y-17233333D01*
X32528452Y-17185714D01*
X32671309Y-17185714D01*
X32766547Y-17233333D01*
X32814166Y-17280952D01*
X32861785Y-17376190D01*
X32861785Y-17661904D01*
X32814166Y-17757142D01*
X32766547Y-17804761D01*
X32671309Y-17852380D01*
X32528452Y-17852380D01*
X33290357Y-17852380D02*
X33290357Y-17185714D01*
X33290357Y-16852380D02*
X33242738Y-16900000D01*
X33290357Y-16947619D01*
X33337976Y-16900000D01*
X33290357Y-16852380D01*
X33290357Y-16947619D01*
X33766547Y-17852380D02*
X33766547Y-17185714D01*
X33766547Y-17376190D02*
X33814166Y-17280952D01*
X33861785Y-17233333D01*
X33957023Y-17185714D01*
X34052261Y-17185714D01*
X35718928Y-17757142D02*
X35671309Y-17804761D01*
X35528452Y-17852380D01*
X35433214Y-17852380D01*
X35290357Y-17804761D01*
X35195119Y-17709523D01*
X35147500Y-17614285D01*
X35099880Y-17423809D01*
X35099880Y-17280952D01*
X35147500Y-17090476D01*
X35195119Y-16995238D01*
X35290357Y-16900000D01*
X35433214Y-16852380D01*
X35528452Y-16852380D01*
X35671309Y-16900000D01*
X35718928Y-16947619D01*
X36290357Y-17852380D02*
X36195119Y-17804761D01*
X36147500Y-17757142D01*
X36099880Y-17661904D01*
X36099880Y-17376190D01*
X36147500Y-17280952D01*
X36195119Y-17233333D01*
X36290357Y-17185714D01*
X36433214Y-17185714D01*
X36528452Y-17233333D01*
X36576071Y-17280952D01*
X36623690Y-17376190D01*
X36623690Y-17661904D01*
X36576071Y-17757142D01*
X36528452Y-17804761D01*
X36433214Y-17852380D01*
X36290357Y-17852380D01*
X37052261Y-17185714D02*
X37052261Y-17852380D01*
X37052261Y-17280952D02*
X37099880Y-17233333D01*
X37195119Y-17185714D01*
X37337976Y-17185714D01*
X37433214Y-17233333D01*
X37480833Y-17328571D01*
X37480833Y-17852380D01*
X37814166Y-17185714D02*
X38195119Y-17185714D01*
X37957023Y-16852380D02*
X37957023Y-17709523D01*
X38004642Y-17804761D01*
X38099880Y-17852380D01*
X38195119Y-17852380D01*
X38528452Y-17852380D02*
X38528452Y-17185714D01*
X38528452Y-17376190D02*
X38576071Y-17280952D01*
X38623690Y-17233333D01*
X38718928Y-17185714D01*
X38814166Y-17185714D01*
X39290357Y-17852380D02*
X39195119Y-17804761D01*
X39147500Y-17757142D01*
X39099880Y-17661904D01*
X39099880Y-17376190D01*
X39147500Y-17280952D01*
X39195119Y-17233333D01*
X39290357Y-17185714D01*
X39433214Y-17185714D01*
X39528452Y-17233333D01*
X39576071Y-17280952D01*
X39623690Y-17376190D01*
X39623690Y-17661904D01*
X39576071Y-17757142D01*
X39528452Y-17804761D01*
X39433214Y-17852380D01*
X39290357Y-17852380D01*
X40195119Y-17852380D02*
X40099880Y-17804761D01*
X40052261Y-17709523D01*
X40052261Y-16852380D01*
X40718928Y-17852380D02*
X40623690Y-17804761D01*
X40576071Y-17709523D01*
X40576071Y-16852380D01*
X41480833Y-17804761D02*
X41385595Y-17852380D01*
X41195119Y-17852380D01*
X41099880Y-17804761D01*
X41052261Y-17709523D01*
X41052261Y-17328571D01*
X41099880Y-17233333D01*
X41195119Y-17185714D01*
X41385595Y-17185714D01*
X41480833Y-17233333D01*
X41528452Y-17328571D01*
X41528452Y-17423809D01*
X41052261Y-17519047D01*
X41957023Y-17852380D02*
X41957023Y-17185714D01*
X41957023Y-17376190D02*
X42004642Y-17280952D01*
X42052261Y-17233333D01*
X42147499Y-17185714D01*
X42242738Y-17185714D01*
X19957023Y-19407142D02*
X19909404Y-19454761D01*
X19766547Y-19502380D01*
X19671309Y-19502380D01*
X19528452Y-19454761D01*
X19433214Y-19359523D01*
X19385595Y-19264285D01*
X19337976Y-19073809D01*
X19337976Y-18930952D01*
X19385595Y-18740476D01*
X19433214Y-18645238D01*
X19528452Y-18550000D01*
X19671309Y-18502380D01*
X19766547Y-18502380D01*
X19909404Y-18550000D01*
X19957023Y-18597619D01*
X20528452Y-19502380D02*
X20433214Y-19454761D01*
X20385595Y-19407142D01*
X20337976Y-19311904D01*
X20337976Y-19026190D01*
X20385595Y-18930952D01*
X20433214Y-18883333D01*
X20528452Y-18835714D01*
X20671309Y-18835714D01*
X20766547Y-18883333D01*
X20814166Y-18930952D01*
X20861785Y-19026190D01*
X20861785Y-19311904D01*
X20814166Y-19407142D01*
X20766547Y-19454761D01*
X20671309Y-19502380D01*
X20528452Y-19502380D01*
X21290357Y-18835714D02*
X21290357Y-19835714D01*
X21290357Y-18883333D02*
X21385595Y-18835714D01*
X21576071Y-18835714D01*
X21671309Y-18883333D01*
X21718928Y-18930952D01*
X21766547Y-19026190D01*
X21766547Y-19311904D01*
X21718928Y-19407142D01*
X21671309Y-19454761D01*
X21576071Y-19502380D01*
X21385595Y-19502380D01*
X21290357Y-19454761D01*
X22099880Y-18835714D02*
X22337976Y-19502380D01*
X22576071Y-18835714D02*
X22337976Y-19502380D01*
X22242738Y-19740476D01*
X22195119Y-19788095D01*
X22099880Y-19835714D01*
X23528452Y-19502380D02*
X23195119Y-19026190D01*
X22957023Y-19502380D02*
X22957023Y-18502380D01*
X23337976Y-18502380D01*
X23433214Y-18550000D01*
X23480833Y-18597619D01*
X23528452Y-18692857D01*
X23528452Y-18835714D01*
X23480833Y-18930952D01*
X23433214Y-18978571D01*
X23337976Y-19026190D01*
X22957023Y-19026190D01*
X23957023Y-19502380D02*
X23957023Y-18835714D01*
X23957023Y-18502380D02*
X23909404Y-18550000D01*
X23957023Y-18597619D01*
X24004642Y-18550000D01*
X23957023Y-18502380D01*
X23957023Y-18597619D01*
X24861785Y-18835714D02*
X24861785Y-19645238D01*
X24814166Y-19740476D01*
X24766547Y-19788095D01*
X24671309Y-19835714D01*
X24528452Y-19835714D01*
X24433214Y-19788095D01*
X24861785Y-19454761D02*
X24766547Y-19502380D01*
X24576071Y-19502380D01*
X24480833Y-19454761D01*
X24433214Y-19407142D01*
X24385595Y-19311904D01*
X24385595Y-19026190D01*
X24433214Y-18930952D01*
X24480833Y-18883333D01*
X24576071Y-18835714D01*
X24766547Y-18835714D01*
X24861785Y-18883333D01*
X25337976Y-19502380D02*
X25337976Y-18502380D01*
X25766547Y-19502380D02*
X25766547Y-18978571D01*
X25718928Y-18883333D01*
X25623690Y-18835714D01*
X25480833Y-18835714D01*
X25385595Y-18883333D01*
X25337976Y-18930952D01*
X26099880Y-18835714D02*
X26480833Y-18835714D01*
X26242738Y-18502380D02*
X26242738Y-19359523D01*
X26290357Y-19454761D01*
X26385595Y-19502380D01*
X26480833Y-19502380D01*
X27861785Y-19883333D02*
X27814166Y-19835714D01*
X27718928Y-19692857D01*
X27671309Y-19597619D01*
X27623690Y-19454761D01*
X27576071Y-19216666D01*
X27576071Y-19026190D01*
X27623690Y-18788095D01*
X27671309Y-18645238D01*
X27718928Y-18550000D01*
X27814166Y-18407142D01*
X27861785Y-18359523D01*
X28671309Y-19454761D02*
X28576071Y-19502380D01*
X28385595Y-19502380D01*
X28290357Y-19454761D01*
X28242738Y-19407142D01*
X28195119Y-19311904D01*
X28195119Y-19026190D01*
X28242738Y-18930952D01*
X28290357Y-18883333D01*
X28385595Y-18835714D01*
X28576071Y-18835714D01*
X28671309Y-18883333D01*
X29004642Y-19883333D02*
X29052261Y-19835714D01*
X29147500Y-19692857D01*
X29195119Y-19597619D01*
X29242738Y-19454761D01*
X29290357Y-19216666D01*
X29290357Y-19026190D01*
X29242738Y-18788095D01*
X29195119Y-18645238D01*
X29147500Y-18550000D01*
X29052261Y-18407142D01*
X29004642Y-18359523D01*
X30480833Y-19216666D02*
X30957023Y-19216666D01*
X30385595Y-19502380D02*
X30718928Y-18502380D01*
X31052261Y-19502380D01*
X31814166Y-18835714D02*
X31814166Y-19502380D01*
X31385595Y-18835714D02*
X31385595Y-19359523D01*
X31433214Y-19454761D01*
X31528452Y-19502380D01*
X31671309Y-19502380D01*
X31766547Y-19454761D01*
X31814166Y-19407142D01*
X32147499Y-18835714D02*
X32528452Y-18835714D01*
X32290357Y-18502380D02*
X32290357Y-19359523D01*
X32337976Y-19454761D01*
X32433214Y-19502380D01*
X32528452Y-19502380D01*
X33004642Y-19502380D02*
X32909404Y-19454761D01*
X32861785Y-19407142D01*
X32814166Y-19311904D01*
X32814166Y-19026190D01*
X32861785Y-18930952D01*
X32909404Y-18883333D01*
X33004642Y-18835714D01*
X33147499Y-18835714D01*
X33242738Y-18883333D01*
X33290357Y-18930952D01*
X33337976Y-19026190D01*
X33337976Y-19311904D01*
X33290357Y-19407142D01*
X33242738Y-19454761D01*
X33147499Y-19502380D01*
X33004642Y-19502380D01*
X33766547Y-19502380D02*
X33766547Y-18835714D01*
X33766547Y-18930952D02*
X33814166Y-18883333D01*
X33909404Y-18835714D01*
X34052261Y-18835714D01*
X34147500Y-18883333D01*
X34195119Y-18978571D01*
X34195119Y-19502380D01*
X34195119Y-18978571D02*
X34242738Y-18883333D01*
X34337976Y-18835714D01*
X34480833Y-18835714D01*
X34576071Y-18883333D01*
X34623690Y-18978571D01*
X34623690Y-19502380D01*
X35528452Y-19502380D02*
X35528452Y-18978571D01*
X35480833Y-18883333D01*
X35385595Y-18835714D01*
X35195119Y-18835714D01*
X35099880Y-18883333D01*
X35528452Y-19454761D02*
X35433214Y-19502380D01*
X35195119Y-19502380D01*
X35099880Y-19454761D01*
X35052261Y-19359523D01*
X35052261Y-19264285D01*
X35099880Y-19169047D01*
X35195119Y-19121428D01*
X35433214Y-19121428D01*
X35528452Y-19073809D01*
X35861785Y-18835714D02*
X36242738Y-18835714D01*
X36004642Y-18502380D02*
X36004642Y-19359523D01*
X36052261Y-19454761D01*
X36147500Y-19502380D01*
X36242738Y-19502380D01*
X36957023Y-19454761D02*
X36861785Y-19502380D01*
X36671309Y-19502380D01*
X36576071Y-19454761D01*
X36528452Y-19359523D01*
X36528452Y-18978571D01*
X36576071Y-18883333D01*
X36671309Y-18835714D01*
X36861785Y-18835714D01*
X36957023Y-18883333D01*
X37004642Y-18978571D01*
X37004642Y-19073809D01*
X36528452Y-19169047D01*
X38052261Y-18502380D02*
X38623690Y-18502380D01*
X38337976Y-19502380D02*
X38337976Y-18502380D01*
X38957023Y-19502380D02*
X38957023Y-18502380D01*
X39385595Y-19502380D02*
X39385595Y-18978571D01*
X39337976Y-18883333D01*
X39242738Y-18835714D01*
X39099880Y-18835714D01*
X39004642Y-18883333D01*
X38957023Y-18930952D01*
X40242738Y-19454761D02*
X40147499Y-19502380D01*
X39957023Y-19502380D01*
X39861785Y-19454761D01*
X39814166Y-19359523D01*
X39814166Y-18978571D01*
X39861785Y-18883333D01*
X39957023Y-18835714D01*
X40147499Y-18835714D01*
X40242738Y-18883333D01*
X40290357Y-18978571D01*
X40290357Y-19073809D01*
X39814166Y-19169047D01*
X41337976Y-18502380D02*
X41909404Y-18502380D01*
X41623690Y-19502380D02*
X41623690Y-18502380D01*
X42242738Y-19502380D02*
X42242738Y-18502380D01*
X42671309Y-19502380D02*
X42671309Y-18978571D01*
X42623690Y-18883333D01*
X42528452Y-18835714D01*
X42385595Y-18835714D01*
X42290357Y-18883333D01*
X42242738Y-18930952D01*
X43147499Y-19502380D02*
X43147499Y-18835714D01*
X43147499Y-18502380D02*
X43099880Y-18550000D01*
X43147499Y-18597619D01*
X43195119Y-18550000D01*
X43147499Y-18502380D01*
X43147499Y-18597619D01*
X43623690Y-18835714D02*
X43623690Y-19502380D01*
X43623690Y-18930952D02*
X43671309Y-18883333D01*
X43766547Y-18835714D01*
X43909404Y-18835714D01*
X44004642Y-18883333D01*
X44052261Y-18978571D01*
X44052261Y-19502380D01*
X44957023Y-18835714D02*
X44957023Y-19645238D01*
X44909404Y-19740476D01*
X44861785Y-19788095D01*
X44766547Y-19835714D01*
X44623690Y-19835714D01*
X44528452Y-19788095D01*
X44957023Y-19454761D02*
X44861785Y-19502380D01*
X44671309Y-19502380D01*
X44576071Y-19454761D01*
X44528452Y-19407142D01*
X44480833Y-19311904D01*
X44480833Y-19026190D01*
X44528452Y-18930952D01*
X44576071Y-18883333D01*
X44671309Y-18835714D01*
X44861785Y-18835714D01*
X44957023Y-18883333D01*
X45385595Y-19454761D02*
X45480833Y-19502380D01*
X45671309Y-19502380D01*
X45766547Y-19454761D01*
X45814166Y-19359523D01*
X45814166Y-19311904D01*
X45766547Y-19216666D01*
X45671309Y-19169047D01*
X45528452Y-19169047D01*
X45433214Y-19121428D01*
X45385595Y-19026190D01*
X45385595Y-18978571D01*
X45433214Y-18883333D01*
X45528452Y-18835714D01*
X45671309Y-18835714D01*
X45766547Y-18883333D01*
X46290357Y-19454761D02*
X46290357Y-19502380D01*
X46242738Y-19597619D01*
X46195119Y-19645238D01*
X47957023Y-19502380D02*
X47480833Y-19502380D01*
X47480833Y-18502380D01*
X48766547Y-19502380D02*
X48290357Y-19502380D01*
X48290357Y-18502380D01*
X49671309Y-19407142D02*
X49623690Y-19454761D01*
X49480833Y-19502380D01*
X49385595Y-19502380D01*
X49242738Y-19454761D01*
X49147499Y-19359523D01*
X49099880Y-19264285D01*
X49052261Y-19073809D01*
X49052261Y-18930952D01*
X49099880Y-18740476D01*
X49147499Y-18645238D01*
X49242738Y-18550000D01*
X49385595Y-18502380D01*
X49480833Y-18502380D01*
X49623690Y-18550000D01*
X49671309Y-18597619D01*
X19385595Y-21152380D02*
X19385595Y-20152380D01*
X19766547Y-20152380D01*
X19861785Y-20200000D01*
X19909404Y-20247619D01*
X19957023Y-20342857D01*
X19957023Y-20485714D01*
X19909404Y-20580952D01*
X19861785Y-20628571D01*
X19766547Y-20676190D01*
X19385595Y-20676190D01*
X20385595Y-21152380D02*
X20385595Y-20485714D01*
X20385595Y-20676190D02*
X20433214Y-20580952D01*
X20480833Y-20533333D01*
X20576071Y-20485714D01*
X20671309Y-20485714D01*
X21147500Y-21152380D02*
X21052261Y-21104761D01*
X21004642Y-21057142D01*
X20957023Y-20961904D01*
X20957023Y-20676190D01*
X21004642Y-20580952D01*
X21052261Y-20533333D01*
X21147500Y-20485714D01*
X21290357Y-20485714D01*
X21385595Y-20533333D01*
X21433214Y-20580952D01*
X21480833Y-20676190D01*
X21480833Y-20961904D01*
X21433214Y-21057142D01*
X21385595Y-21104761D01*
X21290357Y-21152380D01*
X21147500Y-21152380D01*
X21766547Y-20485714D02*
X22147500Y-20485714D01*
X21909404Y-20152380D02*
X21909404Y-21009523D01*
X21957023Y-21104761D01*
X22052261Y-21152380D01*
X22147500Y-21152380D01*
X22623690Y-21152380D02*
X22528452Y-21104761D01*
X22480833Y-21057142D01*
X22433214Y-20961904D01*
X22433214Y-20676190D01*
X22480833Y-20580952D01*
X22528452Y-20533333D01*
X22623690Y-20485714D01*
X22766547Y-20485714D01*
X22861785Y-20533333D01*
X22909404Y-20580952D01*
X22957023Y-20676190D01*
X22957023Y-20961904D01*
X22909404Y-21057142D01*
X22861785Y-21104761D01*
X22766547Y-21152380D01*
X22623690Y-21152380D01*
X23242738Y-20485714D02*
X23623690Y-20485714D01*
X23385595Y-20152380D02*
X23385595Y-21009523D01*
X23433214Y-21104761D01*
X23528452Y-21152380D01*
X23623690Y-21152380D01*
X23861785Y-20485714D02*
X24099880Y-21152380D01*
X24337976Y-20485714D02*
X24099880Y-21152380D01*
X24004642Y-21390476D01*
X23957023Y-21438095D01*
X23861785Y-21485714D01*
X24718928Y-20485714D02*
X24718928Y-21485714D01*
X24718928Y-20533333D02*
X24814166Y-20485714D01*
X25004642Y-20485714D01*
X25099880Y-20533333D01*
X25147500Y-20580952D01*
X25195119Y-20676190D01*
X25195119Y-20961904D01*
X25147500Y-21057142D01*
X25099880Y-21104761D01*
X25004642Y-21152380D01*
X24814166Y-21152380D01*
X24718928Y-21104761D01*
X26004642Y-21104761D02*
X25909404Y-21152380D01*
X25718928Y-21152380D01*
X25623690Y-21104761D01*
X25576071Y-21009523D01*
X25576071Y-20628571D01*
X25623690Y-20533333D01*
X25718928Y-20485714D01*
X25909404Y-20485714D01*
X26004642Y-20533333D01*
X26052261Y-20628571D01*
X26052261Y-20723809D01*
X25576071Y-20819047D01*
X27147500Y-20485714D02*
X27385595Y-21152380D01*
X27623690Y-20485714D01*
X28195119Y-20152380D02*
X28290357Y-20152380D01*
X28385595Y-20200000D01*
X28433214Y-20247619D01*
X28480833Y-20342857D01*
X28528452Y-20533333D01*
X28528452Y-20771428D01*
X28480833Y-20961904D01*
X28433214Y-21057142D01*
X28385595Y-21104761D01*
X28290357Y-21152380D01*
X28195119Y-21152380D01*
X28099880Y-21104761D01*
X28052261Y-21057142D01*
X28004642Y-20961904D01*
X27957023Y-20771428D01*
X27957023Y-20533333D01*
X28004642Y-20342857D01*
X28052261Y-20247619D01*
X28099880Y-20200000D01*
X28195119Y-20152380D01*
X28957023Y-21057142D02*
X29004642Y-21104761D01*
X28957023Y-21152380D01*
X28909404Y-21104761D01*
X28957023Y-21057142D01*
X28957023Y-21152380D01*
X29337976Y-20152380D02*
X29957023Y-20152380D01*
X29623690Y-20533333D01*
X29766547Y-20533333D01*
X29861785Y-20580952D01*
X29909404Y-20628571D01*
X29957023Y-20723809D01*
X29957023Y-20961904D01*
X29909404Y-21057142D01*
X29861785Y-21104761D01*
X29766547Y-21152380D01*
X29480833Y-21152380D01*
X29385595Y-21104761D01*
X29337976Y-21057142D01*
X30814166Y-21152380D02*
X30814166Y-20628571D01*
X30766547Y-20533333D01*
X30671309Y-20485714D01*
X30480833Y-20485714D01*
X30385595Y-20533333D01*
X30814166Y-21104761D02*
X30718928Y-21152380D01*
X30480833Y-21152380D01*
X30385595Y-21104761D01*
X30337976Y-21009523D01*
X30337976Y-20914285D01*
X30385595Y-20819047D01*
X30480833Y-20771428D01*
X30718928Y-20771428D01*
X30814166Y-20723809D01*
D11*
G36*
X36260883Y-31550033D02*
G01*
X36273269Y-31556192D01*
X36406284Y-31653803D01*
X36474821Y-31785674D01*
X36491334Y-31940500D01*
X36467693Y-32119502D01*
X36389594Y-32245415D01*
X36280514Y-32321062D01*
X36099520Y-32378498D01*
X35924585Y-32354469D01*
X35846814Y-32319011D01*
X35724312Y-32222828D01*
X35660532Y-32089395D01*
X35651353Y-31995950D01*
X35735951Y-31995950D01*
X35786772Y-32128784D01*
X35890904Y-32227614D01*
X36008562Y-32286517D01*
X36108589Y-32289961D01*
X36232655Y-32239252D01*
X36234306Y-32238399D01*
X36327355Y-32173867D01*
X36380370Y-32107937D01*
X36403470Y-31949943D01*
X36362209Y-31801084D01*
X36269686Y-31682722D01*
X36139001Y-31616220D01*
X36074355Y-31608889D01*
X35920582Y-31643267D01*
X35808896Y-31732818D01*
X35745339Y-31857170D01*
X35735951Y-31995950D01*
X35651353Y-31995950D01*
X35644667Y-31927889D01*
X35681987Y-31757912D01*
X35781276Y-31623899D01*
X35923527Y-31537088D01*
X36089732Y-31508720D01*
X36260883Y-31550033D01*
G37*
X36260883Y-31550033D02*
X36273269Y-31556192D01*
X36406284Y-31653803D01*
X36474821Y-31785674D01*
X36491334Y-31940500D01*
X36467693Y-32119502D01*
X36389594Y-32245415D01*
X36280514Y-32321062D01*
X36099520Y-32378498D01*
X35924585Y-32354469D01*
X35846814Y-32319011D01*
X35724312Y-32222828D01*
X35660532Y-32089395D01*
X35651353Y-31995950D01*
X35735951Y-31995950D01*
X35786772Y-32128784D01*
X35890904Y-32227614D01*
X36008562Y-32286517D01*
X36108589Y-32289961D01*
X36232655Y-32239252D01*
X36234306Y-32238399D01*
X36327355Y-32173867D01*
X36380370Y-32107937D01*
X36403470Y-31949943D01*
X36362209Y-31801084D01*
X36269686Y-31682722D01*
X36139001Y-31616220D01*
X36074355Y-31608889D01*
X35920582Y-31643267D01*
X35808896Y-31732818D01*
X35745339Y-31857170D01*
X35735951Y-31995950D01*
X35651353Y-31995950D01*
X35644667Y-31927889D01*
X35681987Y-31757912D01*
X35781276Y-31623899D01*
X35923527Y-31537088D01*
X36089732Y-31508720D01*
X36260883Y-31550033D01*
G36*
X38336939Y-32422594D02*
G01*
X38460546Y-32519494D01*
X38557348Y-32651880D01*
X38605906Y-32795931D01*
X38608000Y-32829500D01*
X38590243Y-32953658D01*
X38525427Y-33063386D01*
X38464067Y-33130067D01*
X38308500Y-33242533D01*
X38144658Y-33272615D01*
X38015334Y-33244103D01*
X37882142Y-33157546D01*
X37777833Y-33022546D01*
X37737068Y-32912539D01*
X37739296Y-32858173D01*
X37838972Y-32858173D01*
X37885134Y-33007041D01*
X37997699Y-33119469D01*
X38009240Y-33126135D01*
X38162796Y-33168568D01*
X38310929Y-33129103D01*
X38427873Y-33028818D01*
X38509412Y-32886923D01*
X38508727Y-32750321D01*
X38455561Y-32645748D01*
X38335924Y-32536202D01*
X38193045Y-32493267D01*
X38049449Y-32515013D01*
X37927664Y-32599509D01*
X37866933Y-32696190D01*
X37838972Y-32858173D01*
X37739296Y-32858173D01*
X37744108Y-32740782D01*
X37819961Y-32585392D01*
X37948784Y-32464119D01*
X38114736Y-32394711D01*
X38207965Y-32385000D01*
X38336939Y-32422594D01*
G37*
X38336939Y-32422594D02*
X38460546Y-32519494D01*
X38557348Y-32651880D01*
X38605906Y-32795931D01*
X38608000Y-32829500D01*
X38590243Y-32953658D01*
X38525427Y-33063386D01*
X38464067Y-33130067D01*
X38308500Y-33242533D01*
X38144658Y-33272615D01*
X38015334Y-33244103D01*
X37882142Y-33157546D01*
X37777833Y-33022546D01*
X37737068Y-32912539D01*
X37739296Y-32858173D01*
X37838972Y-32858173D01*
X37885134Y-33007041D01*
X37997699Y-33119469D01*
X38009240Y-33126135D01*
X38162796Y-33168568D01*
X38310929Y-33129103D01*
X38427873Y-33028818D01*
X38509412Y-32886923D01*
X38508727Y-32750321D01*
X38455561Y-32645748D01*
X38335924Y-32536202D01*
X38193045Y-32493267D01*
X38049449Y-32515013D01*
X37927664Y-32599509D01*
X37866933Y-32696190D01*
X37838972Y-32858173D01*
X37739296Y-32858173D01*
X37744108Y-32740782D01*
X37819961Y-32585392D01*
X37948784Y-32464119D01*
X38114736Y-32394711D01*
X38207965Y-32385000D01*
X38336939Y-32422594D01*
G36*
X42136754Y-21085934D02*
G01*
X42122638Y-21201992D01*
X42092733Y-21363076D01*
X42060171Y-21508436D01*
X41918437Y-22173342D01*
X41825006Y-22789539D01*
X41777345Y-23376023D01*
X41769755Y-23685500D01*
X41773460Y-24024285D01*
X41790120Y-24334347D01*
X41822903Y-24629663D01*
X41874979Y-24924209D01*
X41949519Y-25231961D01*
X42049690Y-25566896D01*
X42178663Y-25942989D01*
X42339607Y-26374218D01*
X42435429Y-26620921D01*
X42614753Y-27084410D01*
X42762168Y-27482404D01*
X42880411Y-27826661D01*
X42972220Y-28128937D01*
X43040332Y-28400992D01*
X43087487Y-28654582D01*
X43116420Y-28901465D01*
X43129871Y-29153399D01*
X43130576Y-29422142D01*
X43126304Y-29587969D01*
X43096778Y-30078638D01*
X43039156Y-30523089D01*
X42947025Y-30956950D01*
X42813970Y-31415845D01*
X42776963Y-31528501D01*
X42528039Y-32145142D01*
X42212046Y-32712737D01*
X41832763Y-33227547D01*
X41393970Y-33685833D01*
X40899446Y-34083856D01*
X40352972Y-34417877D01*
X39758327Y-34684157D01*
X39495351Y-34774822D01*
X39264833Y-34842439D01*
X39107676Y-34875937D01*
X39019948Y-34875754D01*
X38997717Y-34842327D01*
X39001549Y-34829750D01*
X39023131Y-34778438D01*
X39073453Y-34659549D01*
X39148129Y-34483424D01*
X39242773Y-34260404D01*
X39352997Y-34000829D01*
X39474415Y-33715039D01*
X39499929Y-33655000D01*
X39656234Y-33283855D01*
X39779873Y-32980493D01*
X39873288Y-32735652D01*
X39938921Y-32540070D01*
X39979212Y-32384484D01*
X39996602Y-32259633D01*
X39993533Y-32156253D01*
X39972445Y-32065084D01*
X39939929Y-31985502D01*
X39886753Y-31890613D01*
X39817101Y-31805527D01*
X39720623Y-31723704D01*
X39586969Y-31638603D01*
X39405789Y-31543682D01*
X39166734Y-31432402D01*
X38859452Y-31298221D01*
X38837558Y-31288845D01*
X38576766Y-31176737D01*
X38383979Y-31091626D01*
X38249179Y-31027638D01*
X38162348Y-30978896D01*
X38113467Y-30939526D01*
X38092518Y-30903651D01*
X38089481Y-30865396D01*
X38090744Y-30850858D01*
X38102506Y-30767248D01*
X38126099Y-30620132D01*
X38158246Y-30429313D01*
X38195670Y-30214592D01*
X38200846Y-30185424D01*
X38236107Y-29981911D01*
X38263728Y-29812216D01*
X38281351Y-29691648D01*
X38286620Y-29635519D01*
X38285833Y-29633334D01*
X38257818Y-29665764D01*
X38189442Y-29755096D01*
X38089632Y-29889385D01*
X37967314Y-30056690D01*
X37902744Y-30145887D01*
X37769658Y-30327155D01*
X37651031Y-30482868D01*
X37556811Y-30600403D01*
X37496951Y-30667141D01*
X37483785Y-30677272D01*
X37431189Y-30667400D01*
X37313605Y-30628781D01*
X37143811Y-30566146D01*
X36934586Y-30484231D01*
X36698708Y-30387767D01*
X36671478Y-30376385D01*
X36356460Y-30247480D01*
X36105255Y-30153391D01*
X35905533Y-30091918D01*
X35744962Y-30060857D01*
X35611211Y-30058006D01*
X35491950Y-30081162D01*
X35374847Y-30128122D01*
X35350212Y-30140375D01*
X35224253Y-30222566D01*
X35119631Y-30320322D01*
X35103169Y-30341458D01*
X35065837Y-30409585D01*
X35000774Y-30544922D01*
X34912892Y-30736556D01*
X34807105Y-30973576D01*
X34688325Y-31245070D01*
X34561464Y-31540127D01*
X34526385Y-31622603D01*
X34400731Y-31917131D01*
X34284439Y-32186675D01*
X34181916Y-32421266D01*
X34097564Y-32610933D01*
X34035788Y-32745706D01*
X34000992Y-32815615D01*
X33996248Y-32822686D01*
X33959642Y-32806847D01*
X33895757Y-32728898D01*
X33813335Y-32603353D01*
X33721116Y-32444725D01*
X33627838Y-32267527D01*
X33542244Y-32086274D01*
X33515971Y-32025167D01*
X33300453Y-31404988D01*
X33164801Y-30772620D01*
X33118575Y-30241271D01*
X33218385Y-30241271D01*
X33286391Y-30869080D01*
X33435943Y-31487004D01*
X33492027Y-31655804D01*
X33560038Y-31836606D01*
X33641526Y-32035041D01*
X33728111Y-32232698D01*
X33811413Y-32411170D01*
X33883050Y-32552050D01*
X33934642Y-32636927D01*
X33943372Y-32647184D01*
X33967929Y-32619637D01*
X34018471Y-32525246D01*
X34089422Y-32375734D01*
X34175208Y-32182821D01*
X34265446Y-31969851D01*
X34391915Y-31665823D01*
X34497564Y-31414814D01*
X34593367Y-31191375D01*
X34690296Y-30970053D01*
X34799325Y-30725398D01*
X34864928Y-30579436D01*
X34905728Y-30478683D01*
X34924809Y-30411566D01*
X34925000Y-30408110D01*
X34953051Y-30359498D01*
X35025080Y-30275399D01*
X35087748Y-30211264D01*
X35253101Y-30087879D01*
X35455185Y-29991447D01*
X35657712Y-29937399D01*
X35746645Y-29931071D01*
X35839670Y-29950120D01*
X36007834Y-30005205D01*
X36249881Y-30095855D01*
X36564560Y-30221598D01*
X36950617Y-30381961D01*
X37003396Y-30404234D01*
X37451958Y-30593821D01*
X37800724Y-30106519D01*
X37939061Y-29911095D01*
X38033197Y-29770788D01*
X38089656Y-29672926D01*
X38114964Y-29604838D01*
X38115648Y-29553852D01*
X38103579Y-29518450D01*
X38058157Y-29338509D01*
X38061720Y-29315834D01*
X38142334Y-29315834D01*
X38171777Y-29425336D01*
X38227000Y-29506334D01*
X38327852Y-29570381D01*
X38417500Y-29591000D01*
X38527002Y-29561557D01*
X38608000Y-29506334D01*
X38678665Y-29383128D01*
X38683843Y-29242211D01*
X38622606Y-29118084D01*
X38513542Y-29051429D01*
X38386632Y-29048148D01*
X38266227Y-29098213D01*
X38176681Y-29191599D01*
X38142334Y-29315834D01*
X38061720Y-29315834D01*
X38083527Y-29177092D01*
X38170641Y-29049820D01*
X38310452Y-28972312D01*
X38429363Y-28956000D01*
X38588315Y-28990620D01*
X38707636Y-29081322D01*
X38779413Y-29208373D01*
X38795733Y-29352039D01*
X38748683Y-29492586D01*
X38677683Y-29575253D01*
X38577352Y-29643050D01*
X38487378Y-29675248D01*
X38479446Y-29675667D01*
X38404116Y-29712724D01*
X38378950Y-29770917D01*
X38319963Y-30076434D01*
X38271031Y-30349439D01*
X38233791Y-30579294D01*
X38209884Y-30755359D01*
X38200948Y-30866995D01*
X38204756Y-30901590D01*
X38258978Y-30943638D01*
X38272293Y-30945667D01*
X38332376Y-30961991D01*
X38437656Y-31003252D01*
X38492045Y-31027136D01*
X38600829Y-31075323D01*
X38765558Y-31146839D01*
X38964147Y-31232152D01*
X39174509Y-31321730D01*
X39181043Y-31324499D01*
X39478519Y-31459359D01*
X39704153Y-31584535D01*
X39868635Y-31709236D01*
X39982653Y-31842667D01*
X40056899Y-31994037D01*
X40088900Y-32106435D01*
X40104329Y-32224936D01*
X40096478Y-32358389D01*
X40062064Y-32519207D01*
X39997804Y-32719803D01*
X39900412Y-32972587D01*
X39790267Y-33235105D01*
X39682407Y-33487102D01*
X39570071Y-33751243D01*
X39464956Y-33999918D01*
X39378762Y-34205517D01*
X39361244Y-34247667D01*
X39289088Y-34421560D01*
X39227862Y-34568831D01*
X39185603Y-34670159D01*
X39171895Y-34702750D01*
X39165542Y-34738525D01*
X39194355Y-34751186D01*
X39270101Y-34739197D01*
X39404548Y-34701020D01*
X39556380Y-34652516D01*
X40098664Y-34435333D01*
X40619263Y-34148653D01*
X41101630Y-33803504D01*
X41529219Y-33410915D01*
X41694556Y-33227389D01*
X41848547Y-33044971D01*
X41955614Y-32916360D01*
X42023962Y-32831102D01*
X42061795Y-32778743D01*
X42077316Y-32748830D01*
X42079334Y-32737100D01*
X42104423Y-32686450D01*
X42139301Y-32642334D01*
X42211345Y-32538731D01*
X42302629Y-32373004D01*
X42405000Y-32163140D01*
X42510307Y-31927129D01*
X42610398Y-31682959D01*
X42697121Y-31448618D01*
X42741278Y-31313951D01*
X42867840Y-30856300D01*
X42954292Y-30426690D01*
X43005724Y-29991214D01*
X43027224Y-29515965D01*
X43028454Y-29400500D01*
X43024804Y-29115608D01*
X43008482Y-28852484D01*
X42976228Y-28597552D01*
X42924780Y-28337238D01*
X42850877Y-28057967D01*
X42751258Y-27746166D01*
X42622662Y-27388258D01*
X42461827Y-26970670D01*
X42418242Y-26860500D01*
X42216448Y-26339879D01*
X42050924Y-25882154D01*
X41918792Y-25475150D01*
X41817176Y-25106691D01*
X41743198Y-24764599D01*
X41693981Y-24436701D01*
X41666648Y-24110818D01*
X41658321Y-23774775D01*
X41659417Y-23649272D01*
X41679497Y-23243006D01*
X41724569Y-22788612D01*
X41790233Y-22317363D01*
X41872087Y-21860533D01*
X41965732Y-21449394D01*
X41972746Y-21422635D01*
X42004156Y-21295319D01*
X42021651Y-21206764D01*
X42022614Y-21180503D01*
X41985247Y-21198347D01*
X41892313Y-21255882D01*
X41757396Y-21343948D01*
X41594081Y-21453385D01*
X41415952Y-21575033D01*
X41236594Y-21699732D01*
X41069592Y-21818321D01*
X40978667Y-21884428D01*
X40827790Y-21993673D01*
X40675795Y-22100938D01*
X40579819Y-22166650D01*
X40470673Y-22240804D01*
X40388150Y-22299048D01*
X40368153Y-22314145D01*
X40229944Y-22423102D01*
X40099918Y-22520694D01*
X39956495Y-22622347D01*
X39778092Y-22743489D01*
X39624000Y-22846051D01*
X39453998Y-22958199D01*
X39305618Y-23054369D01*
X39167219Y-23141205D01*
X39027163Y-23225353D01*
X38873811Y-23313457D01*
X38695524Y-23412163D01*
X38480662Y-23528115D01*
X38217585Y-23667958D01*
X37894656Y-23838338D01*
X37782500Y-23897381D01*
X37585940Y-24002177D01*
X37401413Y-24102949D01*
X37250457Y-24187794D01*
X37158925Y-24242065D01*
X37057487Y-24302659D01*
X36987976Y-24337973D01*
X36975154Y-24341667D01*
X36932840Y-24363691D01*
X36842388Y-24420341D01*
X36724878Y-24497484D01*
X36601387Y-24580986D01*
X36492995Y-24656713D01*
X36420781Y-24710532D01*
X36406667Y-24722840D01*
X36366262Y-24756842D01*
X36275105Y-24830658D01*
X36148891Y-24931632D01*
X36068000Y-24995916D01*
X35583207Y-25415761D01*
X35111115Y-25892367D01*
X34666579Y-26407809D01*
X34264454Y-26944160D01*
X33919597Y-27483495D01*
X33751050Y-27791834D01*
X33498257Y-28378857D01*
X33324856Y-28988127D01*
X33231386Y-29611609D01*
X33218385Y-30241271D01*
X33118575Y-30241271D01*
X33109385Y-30135639D01*
X33134577Y-29501622D01*
X33240749Y-28878146D01*
X33343727Y-28511500D01*
X33460000Y-28204382D01*
X33619644Y-27856245D01*
X33810438Y-27489932D01*
X34020160Y-27128283D01*
X34236590Y-26794141D01*
X34340305Y-26648834D01*
X34532126Y-26406690D01*
X34769448Y-26133494D01*
X35038157Y-25843370D01*
X35324141Y-25550446D01*
X35613287Y-25268847D01*
X35891484Y-25012700D01*
X36144617Y-24796131D01*
X36343167Y-24644033D01*
X36558421Y-24496341D01*
X36783620Y-24350744D01*
X37030915Y-24200122D01*
X37312459Y-24037360D01*
X37640401Y-23855340D01*
X38026894Y-23646945D01*
X38227000Y-23540631D01*
X38756435Y-23249897D01*
X39252850Y-22953814D01*
X39744035Y-22634892D01*
X40257784Y-22275636D01*
X40394645Y-22176270D01*
X40675126Y-21973785D01*
X40954118Y-21776963D01*
X41222900Y-21591544D01*
X41472748Y-21423263D01*
X41694940Y-21277859D01*
X41880753Y-21161069D01*
X42021464Y-21078629D01*
X42108351Y-21036278D01*
X42132282Y-21033349D01*
X42136754Y-21085934D01*
G37*
X42136754Y-21085934D02*
X42122638Y-21201992D01*
X42092733Y-21363076D01*
X42060171Y-21508436D01*
X41918437Y-22173342D01*
X41825006Y-22789539D01*
X41777345Y-23376023D01*
X41769755Y-23685500D01*
X41773460Y-24024285D01*
X41790120Y-24334347D01*
X41822903Y-24629663D01*
X41874979Y-24924209D01*
X41949519Y-25231961D01*
X42049690Y-25566896D01*
X42178663Y-25942989D01*
X42339607Y-26374218D01*
X42435429Y-26620921D01*
X42614753Y-27084410D01*
X42762168Y-27482404D01*
X42880411Y-27826661D01*
X42972220Y-28128937D01*
X43040332Y-28400992D01*
X43087487Y-28654582D01*
X43116420Y-28901465D01*
X43129871Y-29153399D01*
X43130576Y-29422142D01*
X43126304Y-29587969D01*
X43096778Y-30078638D01*
X43039156Y-30523089D01*
X42947025Y-30956950D01*
X42813970Y-31415845D01*
X42776963Y-31528501D01*
X42528039Y-32145142D01*
X42212046Y-32712737D01*
X41832763Y-33227547D01*
X41393970Y-33685833D01*
X40899446Y-34083856D01*
X40352972Y-34417877D01*
X39758327Y-34684157D01*
X39495351Y-34774822D01*
X39264833Y-34842439D01*
X39107676Y-34875937D01*
X39019948Y-34875754D01*
X38997717Y-34842327D01*
X39001549Y-34829750D01*
X39023131Y-34778438D01*
X39073453Y-34659549D01*
X39148129Y-34483424D01*
X39242773Y-34260404D01*
X39352997Y-34000829D01*
X39474415Y-33715039D01*
X39499929Y-33655000D01*
X39656234Y-33283855D01*
X39779873Y-32980493D01*
X39873288Y-32735652D01*
X39938921Y-32540070D01*
X39979212Y-32384484D01*
X39996602Y-32259633D01*
X39993533Y-32156253D01*
X39972445Y-32065084D01*
X39939929Y-31985502D01*
X39886753Y-31890613D01*
X39817101Y-31805527D01*
X39720623Y-31723704D01*
X39586969Y-31638603D01*
X39405789Y-31543682D01*
X39166734Y-31432402D01*
X38859452Y-31298221D01*
X38837558Y-31288845D01*
X38576766Y-31176737D01*
X38383979Y-31091626D01*
X38249179Y-31027638D01*
X38162348Y-30978896D01*
X38113467Y-30939526D01*
X38092518Y-30903651D01*
X38089481Y-30865396D01*
X38090744Y-30850858D01*
X38102506Y-30767248D01*
X38126099Y-30620132D01*
X38158246Y-30429313D01*
X38195670Y-30214592D01*
X38200846Y-30185424D01*
X38236107Y-29981911D01*
X38263728Y-29812216D01*
X38281351Y-29691648D01*
X38286620Y-29635519D01*
X38285833Y-29633334D01*
X38257818Y-29665764D01*
X38189442Y-29755096D01*
X38089632Y-29889385D01*
X37967314Y-30056690D01*
X37902744Y-30145887D01*
X37769658Y-30327155D01*
X37651031Y-30482868D01*
X37556811Y-30600403D01*
X37496951Y-30667141D01*
X37483785Y-30677272D01*
X37431189Y-30667400D01*
X37313605Y-30628781D01*
X37143811Y-30566146D01*
X36934586Y-30484231D01*
X36698708Y-30387767D01*
X36671478Y-30376385D01*
X36356460Y-30247480D01*
X36105255Y-30153391D01*
X35905533Y-30091918D01*
X35744962Y-30060857D01*
X35611211Y-30058006D01*
X35491950Y-30081162D01*
X35374847Y-30128122D01*
X35350212Y-30140375D01*
X35224253Y-30222566D01*
X35119631Y-30320322D01*
X35103169Y-30341458D01*
X35065837Y-30409585D01*
X35000774Y-30544922D01*
X34912892Y-30736556D01*
X34807105Y-30973576D01*
X34688325Y-31245070D01*
X34561464Y-31540127D01*
X34526385Y-31622603D01*
X34400731Y-31917131D01*
X34284439Y-32186675D01*
X34181916Y-32421266D01*
X34097564Y-32610933D01*
X34035788Y-32745706D01*
X34000992Y-32815615D01*
X33996248Y-32822686D01*
X33959642Y-32806847D01*
X33895757Y-32728898D01*
X33813335Y-32603353D01*
X33721116Y-32444725D01*
X33627838Y-32267527D01*
X33542244Y-32086274D01*
X33515971Y-32025167D01*
X33300453Y-31404988D01*
X33164801Y-30772620D01*
X33118575Y-30241271D01*
X33218385Y-30241271D01*
X33286391Y-30869080D01*
X33435943Y-31487004D01*
X33492027Y-31655804D01*
X33560038Y-31836606D01*
X33641526Y-32035041D01*
X33728111Y-32232698D01*
X33811413Y-32411170D01*
X33883050Y-32552050D01*
X33934642Y-32636927D01*
X33943372Y-32647184D01*
X33967929Y-32619637D01*
X34018471Y-32525246D01*
X34089422Y-32375734D01*
X34175208Y-32182821D01*
X34265446Y-31969851D01*
X34391915Y-31665823D01*
X34497564Y-31414814D01*
X34593367Y-31191375D01*
X34690296Y-30970053D01*
X34799325Y-30725398D01*
X34864928Y-30579436D01*
X34905728Y-30478683D01*
X34924809Y-30411566D01*
X34925000Y-30408110D01*
X34953051Y-30359498D01*
X35025080Y-30275399D01*
X35087748Y-30211264D01*
X35253101Y-30087879D01*
X35455185Y-29991447D01*
X35657712Y-29937399D01*
X35746645Y-29931071D01*
X35839670Y-29950120D01*
X36007834Y-30005205D01*
X36249881Y-30095855D01*
X36564560Y-30221598D01*
X36950617Y-30381961D01*
X37003396Y-30404234D01*
X37451958Y-30593821D01*
X37800724Y-30106519D01*
X37939061Y-29911095D01*
X38033197Y-29770788D01*
X38089656Y-29672926D01*
X38114964Y-29604838D01*
X38115648Y-29553852D01*
X38103579Y-29518450D01*
X38058157Y-29338509D01*
X38061720Y-29315834D01*
X38142334Y-29315834D01*
X38171777Y-29425336D01*
X38227000Y-29506334D01*
X38327852Y-29570381D01*
X38417500Y-29591000D01*
X38527002Y-29561557D01*
X38608000Y-29506334D01*
X38678665Y-29383128D01*
X38683843Y-29242211D01*
X38622606Y-29118084D01*
X38513542Y-29051429D01*
X38386632Y-29048148D01*
X38266227Y-29098213D01*
X38176681Y-29191599D01*
X38142334Y-29315834D01*
X38061720Y-29315834D01*
X38083527Y-29177092D01*
X38170641Y-29049820D01*
X38310452Y-28972312D01*
X38429363Y-28956000D01*
X38588315Y-28990620D01*
X38707636Y-29081322D01*
X38779413Y-29208373D01*
X38795733Y-29352039D01*
X38748683Y-29492586D01*
X38677683Y-29575253D01*
X38577352Y-29643050D01*
X38487378Y-29675248D01*
X38479446Y-29675667D01*
X38404116Y-29712724D01*
X38378950Y-29770917D01*
X38319963Y-30076434D01*
X38271031Y-30349439D01*
X38233791Y-30579294D01*
X38209884Y-30755359D01*
X38200948Y-30866995D01*
X38204756Y-30901590D01*
X38258978Y-30943638D01*
X38272293Y-30945667D01*
X38332376Y-30961991D01*
X38437656Y-31003252D01*
X38492045Y-31027136D01*
X38600829Y-31075323D01*
X38765558Y-31146839D01*
X38964147Y-31232152D01*
X39174509Y-31321730D01*
X39181043Y-31324499D01*
X39478519Y-31459359D01*
X39704153Y-31584535D01*
X39868635Y-31709236D01*
X39982653Y-31842667D01*
X40056899Y-31994037D01*
X40088900Y-32106435D01*
X40104329Y-32224936D01*
X40096478Y-32358389D01*
X40062064Y-32519207D01*
X39997804Y-32719803D01*
X39900412Y-32972587D01*
X39790267Y-33235105D01*
X39682407Y-33487102D01*
X39570071Y-33751243D01*
X39464956Y-33999918D01*
X39378762Y-34205517D01*
X39361244Y-34247667D01*
X39289088Y-34421560D01*
X39227862Y-34568831D01*
X39185603Y-34670159D01*
X39171895Y-34702750D01*
X39165542Y-34738525D01*
X39194355Y-34751186D01*
X39270101Y-34739197D01*
X39404548Y-34701020D01*
X39556380Y-34652516D01*
X40098664Y-34435333D01*
X40619263Y-34148653D01*
X41101630Y-33803504D01*
X41529219Y-33410915D01*
X41694556Y-33227389D01*
X41848547Y-33044971D01*
X41955614Y-32916360D01*
X42023962Y-32831102D01*
X42061795Y-32778743D01*
X42077316Y-32748830D01*
X42079334Y-32737100D01*
X42104423Y-32686450D01*
X42139301Y-32642334D01*
X42211345Y-32538731D01*
X42302629Y-32373004D01*
X42405000Y-32163140D01*
X42510307Y-31927129D01*
X42610398Y-31682959D01*
X42697121Y-31448618D01*
X42741278Y-31313951D01*
X42867840Y-30856300D01*
X42954292Y-30426690D01*
X43005724Y-29991214D01*
X43027224Y-29515965D01*
X43028454Y-29400500D01*
X43024804Y-29115608D01*
X43008482Y-28852484D01*
X42976228Y-28597552D01*
X42924780Y-28337238D01*
X42850877Y-28057967D01*
X42751258Y-27746166D01*
X42622662Y-27388258D01*
X42461827Y-26970670D01*
X42418242Y-26860500D01*
X42216448Y-26339879D01*
X42050924Y-25882154D01*
X41918792Y-25475150D01*
X41817176Y-25106691D01*
X41743198Y-24764599D01*
X41693981Y-24436701D01*
X41666648Y-24110818D01*
X41658321Y-23774775D01*
X41659417Y-23649272D01*
X41679497Y-23243006D01*
X41724569Y-22788612D01*
X41790233Y-22317363D01*
X41872087Y-21860533D01*
X41965732Y-21449394D01*
X41972746Y-21422635D01*
X42004156Y-21295319D01*
X42021651Y-21206764D01*
X42022614Y-21180503D01*
X41985247Y-21198347D01*
X41892313Y-21255882D01*
X41757396Y-21343948D01*
X41594081Y-21453385D01*
X41415952Y-21575033D01*
X41236594Y-21699732D01*
X41069592Y-21818321D01*
X40978667Y-21884428D01*
X40827790Y-21993673D01*
X40675795Y-22100938D01*
X40579819Y-22166650D01*
X40470673Y-22240804D01*
X40388150Y-22299048D01*
X40368153Y-22314145D01*
X40229944Y-22423102D01*
X40099918Y-22520694D01*
X39956495Y-22622347D01*
X39778092Y-22743489D01*
X39624000Y-22846051D01*
X39453998Y-22958199D01*
X39305618Y-23054369D01*
X39167219Y-23141205D01*
X39027163Y-23225353D01*
X38873811Y-23313457D01*
X38695524Y-23412163D01*
X38480662Y-23528115D01*
X38217585Y-23667958D01*
X37894656Y-23838338D01*
X37782500Y-23897381D01*
X37585940Y-24002177D01*
X37401413Y-24102949D01*
X37250457Y-24187794D01*
X37158925Y-24242065D01*
X37057487Y-24302659D01*
X36987976Y-24337973D01*
X36975154Y-24341667D01*
X36932840Y-24363691D01*
X36842388Y-24420341D01*
X36724878Y-24497484D01*
X36601387Y-24580986D01*
X36492995Y-24656713D01*
X36420781Y-24710532D01*
X36406667Y-24722840D01*
X36366262Y-24756842D01*
X36275105Y-24830658D01*
X36148891Y-24931632D01*
X36068000Y-24995916D01*
X35583207Y-25415761D01*
X35111115Y-25892367D01*
X34666579Y-26407809D01*
X34264454Y-26944160D01*
X33919597Y-27483495D01*
X33751050Y-27791834D01*
X33498257Y-28378857D01*
X33324856Y-28988127D01*
X33231386Y-29611609D01*
X33218385Y-30241271D01*
X33118575Y-30241271D01*
X33109385Y-30135639D01*
X33134577Y-29501622D01*
X33240749Y-28878146D01*
X33343727Y-28511500D01*
X33460000Y-28204382D01*
X33619644Y-27856245D01*
X33810438Y-27489932D01*
X34020160Y-27128283D01*
X34236590Y-26794141D01*
X34340305Y-26648834D01*
X34532126Y-26406690D01*
X34769448Y-26133494D01*
X35038157Y-25843370D01*
X35324141Y-25550446D01*
X35613287Y-25268847D01*
X35891484Y-25012700D01*
X36144617Y-24796131D01*
X36343167Y-24644033D01*
X36558421Y-24496341D01*
X36783620Y-24350744D01*
X37030915Y-24200122D01*
X37312459Y-24037360D01*
X37640401Y-23855340D01*
X38026894Y-23646945D01*
X38227000Y-23540631D01*
X38756435Y-23249897D01*
X39252850Y-22953814D01*
X39744035Y-22634892D01*
X40257784Y-22275636D01*
X40394645Y-22176270D01*
X40675126Y-21973785D01*
X40954118Y-21776963D01*
X41222900Y-21591544D01*
X41472748Y-21423263D01*
X41694940Y-21277859D01*
X41880753Y-21161069D01*
X42021464Y-21078629D01*
X42108351Y-21036278D01*
X42132282Y-21033349D01*
X42136754Y-21085934D01*
D12*
X284076000Y-96814000D02*
G75*
G03X284076000Y-96814000I-200000J0D01*
G01*
D13*
X281686000Y-73914000D02*
X281686000Y-99314000D01*
X230886000Y-73914000D02*
X281686000Y-73914000D01*
X230886000Y-99314000D02*
X230886000Y-73914000D01*
X281686000Y-99314000D02*
X230886000Y-99314000D01*
D14*
X19754010Y-196030000D02*
X19754010Y-149410000D01*
X13773990Y-196030000D02*
X19754010Y-196030000D01*
X13773990Y-149410000D02*
X13773990Y-196030000D01*
X19754010Y-149410000D02*
X13773990Y-149410000D01*
D15*
X281940000Y-158380000D02*
X281940000Y-119380000D01*
X212440000Y-158380000D02*
X281940000Y-158380000D01*
X212440000Y-119380000D02*
X212440000Y-158380000D01*
X281940000Y-119380000D02*
X212440000Y-119380000D01*
D14*
X267468000Y-42618000D02*
G75*
G03X267468000Y-42618000I-150000J0D01*
G01*
D13*
X268018000Y-26218000D02*
X268018000Y-44618000D01*
X268018000Y-52518000D02*
X268018000Y-44618000D01*
X278618000Y-60418000D02*
G75*
G02X268018000Y-52518000I341185J11519184D01*
G01*
X287018000Y-60418000D02*
X278618000Y-60418000D01*
X268018000Y-18218000D02*
X268018000Y-26218000D01*
X278617999Y-10418000D02*
G75*
G03X268018000Y-18218000I269778J-11469184D01*
G01*
X287018000Y-10418000D02*
X278618000Y-10418000D01*
X290018000Y-50318000D02*
X287018000Y-50318000D01*
X290018000Y-20518000D02*
X287018000Y-20518000D01*
X290018000Y-20518000D02*
X290018000Y-50318000D01*
X287018000Y-50318000D02*
X287018000Y-60418000D01*
X287018000Y-20518000D02*
X287018000Y-50318000D01*
X287018000Y-10418000D02*
X287018000Y-20518000D01*
D14*
X175218000Y-95504000D02*
G75*
G03X175218000Y-95504000I-100000J0D01*
G01*
D16*
X201468000Y-70104000D02*
X174038000Y-70104000D01*
X201468000Y-82904000D02*
X201468000Y-70104000D01*
X196688000Y-82904000D02*
X201468000Y-82904000D01*
X196688000Y-102614000D02*
X196688000Y-82904000D01*
X176398000Y-102614000D02*
X196688000Y-102614000D01*
X176398000Y-87704000D02*
X176398000Y-102614000D01*
X174038000Y-87704000D02*
X176398000Y-87704000D01*
X174038000Y-70104000D02*
X174038000Y-87704000D01*
D15*
X139422000Y-118364000D02*
X138652000Y-118364000D01*
X131342000Y-118364000D02*
X132112000Y-118364000D01*
X138652000Y-116994000D02*
X132112000Y-116994000D01*
X138652000Y-119734000D02*
X138652000Y-116994000D01*
X132112000Y-119734000D02*
X138652000Y-119734000D01*
X132112000Y-116994000D02*
X132112000Y-119734000D01*
D17*
X84256000Y-113098000D02*
G75*
G03X84256000Y-113098000I-100000J0D01*
G01*
D13*
X83756000Y-110998000D02*
G75*
G03X83756000Y-110998000I-4000000J0D01*
G01*
D15*
X189968000Y-118364000D02*
X189198000Y-118364000D01*
X181888000Y-118364000D02*
X182658000Y-118364000D01*
X189198000Y-116994000D02*
X182658000Y-116994000D01*
X189198000Y-119734000D02*
X189198000Y-116994000D01*
X182658000Y-119734000D02*
X189198000Y-119734000D01*
X182658000Y-116994000D02*
X182658000Y-119734000D01*
X88622000Y-118364000D02*
X87852000Y-118364000D01*
X80542000Y-118364000D02*
X81312000Y-118364000D01*
X87852000Y-116994000D02*
X81312000Y-116994000D01*
X87852000Y-119734000D02*
X87852000Y-116994000D01*
X81312000Y-119734000D02*
X87852000Y-119734000D01*
X81312000Y-116994000D02*
X81312000Y-119734000D01*
D14*
X217016000Y-52690000D02*
G75*
G03X217016000Y-52690000I-100000J0D01*
G01*
D13*
X205486000Y-39090000D02*
X220726000Y-39090000D01*
X220726000Y-51690000D02*
X205486000Y-51690000D01*
X205486000Y-51690000D02*
X205486000Y-39090000D01*
X220726000Y-39090000D02*
X220726000Y-51690000D01*
D14*
X166724000Y-52436000D02*
G75*
G03X166724000Y-52436000I-100000J0D01*
G01*
D13*
X155194000Y-38836000D02*
X170434000Y-38836000D01*
X170434000Y-51436000D02*
X155194000Y-51436000D01*
X155194000Y-51436000D02*
X155194000Y-38836000D01*
X170434000Y-38836000D02*
X170434000Y-51436000D01*
D17*
X184840000Y-113098000D02*
G75*
G03X184840000Y-113098000I-100000J0D01*
G01*
D13*
X184340000Y-110998000D02*
G75*
G03X184340000Y-110998000I-4000000J0D01*
G01*
D17*
X134548000Y-113098000D02*
G75*
G03X134548000Y-113098000I-100000J0D01*
G01*
D13*
X134048000Y-110998000D02*
G75*
G03X134048000Y-110998000I-4000000J0D01*
G01*
D18*
X170743000Y-176889000D02*
X170393000Y-176889000D01*
X170743000Y-176514000D02*
X170743000Y-176889000D01*
X162993000Y-176889000D02*
X162993000Y-176464000D01*
X163393000Y-176889000D02*
X162993000Y-176889000D01*
X163018000Y-161639000D02*
X163293000Y-161639000D01*
X163018000Y-161964000D02*
X163018000Y-161639000D01*
X170768000Y-161639000D02*
X170518000Y-161639000D01*
X170768000Y-161964000D02*
X170768000Y-161639000D01*
D15*
X76708000Y-165838000D02*
X76708000Y-165068000D01*
X76708000Y-157758000D02*
X76708000Y-158528000D01*
X78078000Y-165068000D02*
X78078000Y-158528000D01*
X75338000Y-165068000D02*
X78078000Y-165068000D01*
X75338000Y-158528000D02*
X75338000Y-165068000D01*
X78078000Y-158528000D02*
X75338000Y-158528000D01*
X31750000Y-186206000D02*
X31750000Y-186976000D01*
X31750000Y-194286000D02*
X31750000Y-193516000D01*
X30380000Y-186976000D02*
X30380000Y-193516000D01*
X33120000Y-186976000D02*
X30380000Y-186976000D01*
X33120000Y-193516000D02*
X33120000Y-186976000D01*
X30380000Y-193516000D02*
X33120000Y-193516000D01*
D18*
X29740000Y-158582000D02*
X29740000Y-158982000D01*
X30140000Y-158582000D02*
X29740000Y-158582000D01*
X29550000Y-164562000D02*
X30550000Y-165562000D01*
X29550000Y-164262000D02*
X29550000Y-164562000D01*
X30550000Y-165562000D02*
X30550000Y-165932000D01*
X30550000Y-165942000D02*
X30550000Y-166192000D01*
X50650000Y-158662000D02*
X50450000Y-158662000D01*
X50650000Y-158962000D02*
X50650000Y-158662000D01*
X50650000Y-165562000D02*
X50650000Y-165262000D01*
X50450000Y-165562000D02*
X50650000Y-165562000D01*
D14*
X124672000Y-95504000D02*
G75*
G03X124672000Y-95504000I-100000J0D01*
G01*
D16*
X150922000Y-70104000D02*
X123492000Y-70104000D01*
X150922000Y-82904000D02*
X150922000Y-70104000D01*
X146142000Y-82904000D02*
X150922000Y-82904000D01*
X146142000Y-102614000D02*
X146142000Y-82904000D01*
X125852000Y-102614000D02*
X146142000Y-102614000D01*
X125852000Y-87704000D02*
X125852000Y-102614000D01*
X123492000Y-87704000D02*
X125852000Y-87704000D01*
X123492000Y-70104000D02*
X123492000Y-87704000D01*
D14*
X74380000Y-95504000D02*
G75*
G03X74380000Y-95504000I-100000J0D01*
G01*
D16*
X100630000Y-70104000D02*
X73200000Y-70104000D01*
X100630000Y-82904000D02*
X100630000Y-70104000D01*
X95850000Y-82904000D02*
X100630000Y-82904000D01*
X95850000Y-102614000D02*
X95850000Y-82904000D01*
X75560000Y-102614000D02*
X95850000Y-102614000D01*
X75560000Y-87704000D02*
X75560000Y-102614000D01*
X73200000Y-87704000D02*
X75560000Y-87704000D01*
X73200000Y-70104000D02*
X73200000Y-87704000D01*
D12*
X170498000Y-47380000D02*
G75*
G03X170498000Y-47380000I-200000J0D01*
G01*
D13*
X202758000Y-32700000D02*
X171638000Y-32700000D01*
X202758000Y-63820000D02*
X202758000Y-32700000D01*
X171638000Y-63820000D02*
X202758000Y-63820000D01*
X171638000Y-32700000D02*
X171638000Y-63820000D01*
D12*
X120206000Y-46618000D02*
G75*
G03X120206000Y-46618000I-200000J0D01*
G01*
D13*
X152466000Y-31938000D02*
X121346000Y-31938000D01*
X152466000Y-63058000D02*
X152466000Y-31938000D01*
X121346000Y-63058000D02*
X152466000Y-63058000D01*
X121346000Y-31938000D02*
X121346000Y-63058000D01*
D12*
X69914000Y-46618000D02*
G75*
G03X69914000Y-46618000I-200000J0D01*
G01*
D13*
X102174000Y-31938000D02*
X71054000Y-31938000D01*
X102174000Y-63058000D02*
X102174000Y-31938000D01*
X71054000Y-63058000D02*
X102174000Y-63058000D01*
X71054000Y-31938000D02*
X71054000Y-63058000D01*
D14*
X115924000Y-52182000D02*
G75*
G03X115924000Y-52182000I-100000J0D01*
G01*
D13*
X104394000Y-38582000D02*
X119634000Y-38582000D01*
X119634000Y-51182000D02*
X104394000Y-51182000D01*
X104394000Y-51182000D02*
X104394000Y-38582000D01*
X119634000Y-38582000D02*
X119634000Y-51182000D01*
D18*
X68958000Y-158092000D02*
X68958000Y-158592000D01*
X68958000Y-158092000D02*
X69458000Y-158092000D01*
X68958000Y-165992000D02*
X68958000Y-165492000D01*
X68958000Y-165992000D02*
X69458000Y-165992000D01*
X71758000Y-165992000D02*
X71258000Y-165992000D01*
X71758000Y-165992000D02*
X71758000Y-165492000D01*
X71758000Y-158092000D02*
X71758000Y-158592000D01*
X71758000Y-158092000D02*
X71258000Y-158092000D01*
D15*
X170742000Y-102524000D02*
X173682000Y-102524000D01*
X170742000Y-102284000D02*
X173682000Y-102284000D01*
X170742000Y-102404000D02*
X173682000Y-102404000D01*
X172212000Y-96844000D02*
X172212000Y-97864000D01*
X172212000Y-104324000D02*
X172212000Y-103304000D01*
X170742000Y-97864000D02*
X170742000Y-103304000D01*
X173682000Y-97864000D02*
X170742000Y-97864000D01*
X173682000Y-103304000D02*
X173682000Y-97864000D01*
X170742000Y-103304000D02*
X173682000Y-103304000D01*
X120450000Y-102524000D02*
X123390000Y-102524000D01*
X120450000Y-102284000D02*
X123390000Y-102284000D01*
X120450000Y-102404000D02*
X123390000Y-102404000D01*
X121920000Y-96844000D02*
X121920000Y-97864000D01*
X121920000Y-104324000D02*
X121920000Y-103304000D01*
X120450000Y-97864000D02*
X120450000Y-103304000D01*
X123390000Y-97864000D02*
X120450000Y-97864000D01*
X123390000Y-103304000D02*
X123390000Y-97864000D01*
X120450000Y-103304000D02*
X123390000Y-103304000D01*
X69650000Y-102270000D02*
X72590000Y-102270000D01*
X69650000Y-102030000D02*
X72590000Y-102030000D01*
X69650000Y-102150000D02*
X72590000Y-102150000D01*
X71120000Y-96590000D02*
X71120000Y-97610000D01*
X71120000Y-104070000D02*
X71120000Y-103050000D01*
X69650000Y-97610000D02*
X69650000Y-103050000D01*
X72590000Y-97610000D02*
X69650000Y-97610000D01*
X72590000Y-103050000D02*
X72590000Y-97610000D01*
X69650000Y-103050000D02*
X72590000Y-103050000D01*
D18*
X161470000Y-197328000D02*
X161470000Y-197528000D01*
X161170000Y-197328000D02*
X161470000Y-197328000D01*
X160270000Y-196428000D02*
X161170000Y-197328000D01*
X160270000Y-196028000D02*
X160270000Y-196428000D01*
X160270000Y-183128000D02*
X161770000Y-183128000D01*
X160270000Y-183728000D02*
X160270000Y-183128000D01*
X172470000Y-183128000D02*
X171070000Y-183128000D01*
X172470000Y-183728000D02*
X172470000Y-183128000D01*
X172470000Y-197328000D02*
X171270000Y-197328000D01*
X172470000Y-196728000D02*
X172470000Y-197328000D01*
X136832000Y-197328000D02*
X136832000Y-197528000D01*
X136532000Y-197328000D02*
X136832000Y-197328000D01*
X135632000Y-196428000D02*
X136532000Y-197328000D01*
X135632000Y-196028000D02*
X135632000Y-196428000D01*
X135632000Y-183128000D02*
X137132000Y-183128000D01*
X135632000Y-183728000D02*
X135632000Y-183128000D01*
X147832000Y-183128000D02*
X146432000Y-183128000D01*
X147832000Y-183728000D02*
X147832000Y-183128000D01*
X147832000Y-197328000D02*
X146632000Y-197328000D01*
X147832000Y-196728000D02*
X147832000Y-197328000D01*
X120576000Y-197328000D02*
X120576000Y-197528000D01*
X120276000Y-197328000D02*
X120576000Y-197328000D01*
X119376000Y-196428000D02*
X120276000Y-197328000D01*
X119376000Y-196028000D02*
X119376000Y-196428000D01*
X119376000Y-183128000D02*
X120876000Y-183128000D01*
X119376000Y-183728000D02*
X119376000Y-183128000D01*
X131576000Y-183128000D02*
X130176000Y-183128000D01*
X131576000Y-183728000D02*
X131576000Y-183128000D01*
X131576000Y-197328000D02*
X130376000Y-197328000D01*
X131576000Y-196728000D02*
X131576000Y-197328000D01*
X78666000Y-197328000D02*
X78666000Y-197528000D01*
X78366000Y-197328000D02*
X78666000Y-197328000D01*
X77466000Y-196428000D02*
X78366000Y-197328000D01*
X77466000Y-196028000D02*
X77466000Y-196428000D01*
X77466000Y-183128000D02*
X78966000Y-183128000D01*
X77466000Y-183728000D02*
X77466000Y-183128000D01*
X89666000Y-183128000D02*
X88266000Y-183128000D01*
X89666000Y-183728000D02*
X89666000Y-183128000D01*
X89666000Y-197328000D02*
X88466000Y-197328000D01*
X89666000Y-196728000D02*
X89666000Y-197328000D01*
X104320000Y-197328000D02*
X104320000Y-197528000D01*
X104020000Y-197328000D02*
X104320000Y-197328000D01*
X103120000Y-196428000D02*
X104020000Y-197328000D01*
X103120000Y-196028000D02*
X103120000Y-196428000D01*
X103120000Y-183128000D02*
X104620000Y-183128000D01*
X103120000Y-183728000D02*
X103120000Y-183128000D01*
X115320000Y-183128000D02*
X113920000Y-183128000D01*
X115320000Y-183728000D02*
X115320000Y-183128000D01*
X115320000Y-197328000D02*
X114120000Y-197328000D01*
X115320000Y-196728000D02*
X115320000Y-197328000D01*
X62410000Y-197328000D02*
X62410000Y-197528000D01*
X62110000Y-197328000D02*
X62410000Y-197328000D01*
X61210000Y-196428000D02*
X62110000Y-197328000D01*
X61210000Y-196028000D02*
X61210000Y-196428000D01*
X61210000Y-183128000D02*
X62710000Y-183128000D01*
X61210000Y-183728000D02*
X61210000Y-183128000D01*
X73410000Y-183128000D02*
X72010000Y-183128000D01*
X73410000Y-183728000D02*
X73410000Y-183128000D01*
X73410000Y-197328000D02*
X72210000Y-197328000D01*
X73410000Y-196728000D02*
X73410000Y-197328000D01*
X37598000Y-197328000D02*
X37598000Y-197528000D01*
X37298000Y-197328000D02*
X37598000Y-197328000D01*
X36398000Y-196428000D02*
X37298000Y-197328000D01*
X36398000Y-196028000D02*
X36398000Y-196428000D01*
X36398000Y-183128000D02*
X37898000Y-183128000D01*
X36398000Y-183728000D02*
X36398000Y-183128000D01*
X48598000Y-183128000D02*
X47198000Y-183128000D01*
X48598000Y-183728000D02*
X48598000Y-183128000D01*
X48598000Y-197328000D02*
X47398000Y-197328000D01*
X48598000Y-196728000D02*
X48598000Y-197328000D01*
D10*
X245873809Y-67004761D02*
X246016666Y-67052380D01*
X246254761Y-67052380D01*
X246350000Y-67004761D01*
X246397619Y-66957142D01*
X246445238Y-66861904D01*
X246445238Y-66766666D01*
X246397619Y-66671428D01*
X246350000Y-66623809D01*
X246254761Y-66576190D01*
X246064285Y-66528571D01*
X245969047Y-66480952D01*
X245921428Y-66433333D01*
X245873809Y-66338095D01*
X245873809Y-66242857D01*
X245921428Y-66147619D01*
X245969047Y-66100000D01*
X246064285Y-66052380D01*
X246302380Y-66052380D01*
X246445238Y-66100000D01*
X247302380Y-67004761D02*
X247207142Y-67052380D01*
X247016666Y-67052380D01*
X246921428Y-67004761D01*
X246873809Y-66957142D01*
X246826190Y-66861904D01*
X246826190Y-66576190D01*
X246873809Y-66480952D01*
X246921428Y-66433333D01*
X247016666Y-66385714D01*
X247207142Y-66385714D01*
X247302380Y-66433333D01*
X247730952Y-67052380D02*
X247730952Y-66385714D01*
X247730952Y-66576190D02*
X247778571Y-66480952D01*
X247826190Y-66433333D01*
X247921428Y-66385714D01*
X248016666Y-66385714D01*
X248730952Y-67004761D02*
X248635714Y-67052380D01*
X248445238Y-67052380D01*
X248350000Y-67004761D01*
X248302380Y-66909523D01*
X248302380Y-66528571D01*
X248350000Y-66433333D01*
X248445238Y-66385714D01*
X248635714Y-66385714D01*
X248730952Y-66433333D01*
X248778571Y-66528571D01*
X248778571Y-66623809D01*
X248302380Y-66719047D01*
X249111904Y-66385714D02*
X249302380Y-67052380D01*
X249492857Y-66576190D01*
X249683333Y-67052380D01*
X249873809Y-66385714D01*
X29973809Y-130504761D02*
X30116666Y-130552380D01*
X30354761Y-130552380D01*
X30450000Y-130504761D01*
X30497619Y-130457142D01*
X30545238Y-130361904D01*
X30545238Y-130266666D01*
X30497619Y-130171428D01*
X30450000Y-130123809D01*
X30354761Y-130076190D01*
X30164285Y-130028571D01*
X30069047Y-129980952D01*
X30021428Y-129933333D01*
X29973809Y-129838095D01*
X29973809Y-129742857D01*
X30021428Y-129647619D01*
X30069047Y-129600000D01*
X30164285Y-129552380D01*
X30402380Y-129552380D01*
X30545238Y-129600000D01*
X31402380Y-130504761D02*
X31307142Y-130552380D01*
X31116666Y-130552380D01*
X31021428Y-130504761D01*
X30973809Y-130457142D01*
X30926190Y-130361904D01*
X30926190Y-130076190D01*
X30973809Y-129980952D01*
X31021428Y-129933333D01*
X31116666Y-129885714D01*
X31307142Y-129885714D01*
X31402380Y-129933333D01*
X31830952Y-130552380D02*
X31830952Y-129885714D01*
X31830952Y-130076190D02*
X31878571Y-129980952D01*
X31926190Y-129933333D01*
X32021428Y-129885714D01*
X32116666Y-129885714D01*
X32830952Y-130504761D02*
X32735714Y-130552380D01*
X32545238Y-130552380D01*
X32450000Y-130504761D01*
X32402380Y-130409523D01*
X32402380Y-130028571D01*
X32450000Y-129933333D01*
X32545238Y-129885714D01*
X32735714Y-129885714D01*
X32830952Y-129933333D01*
X32878571Y-130028571D01*
X32878571Y-130123809D01*
X32402380Y-130219047D01*
X33211904Y-129885714D02*
X33402380Y-130552380D01*
X33592857Y-130076190D01*
X33783333Y-130552380D01*
X33973809Y-129885714D01*
X277623809Y-194004761D02*
X277766666Y-194052380D01*
X278004761Y-194052380D01*
X278100000Y-194004761D01*
X278147619Y-193957142D01*
X278195238Y-193861904D01*
X278195238Y-193766666D01*
X278147619Y-193671428D01*
X278100000Y-193623809D01*
X278004761Y-193576190D01*
X277814285Y-193528571D01*
X277719047Y-193480952D01*
X277671428Y-193433333D01*
X277623809Y-193338095D01*
X277623809Y-193242857D01*
X277671428Y-193147619D01*
X277719047Y-193100000D01*
X277814285Y-193052380D01*
X278052380Y-193052380D01*
X278195238Y-193100000D01*
X279052380Y-194004761D02*
X278957142Y-194052380D01*
X278766666Y-194052380D01*
X278671428Y-194004761D01*
X278623809Y-193957142D01*
X278576190Y-193861904D01*
X278576190Y-193576190D01*
X278623809Y-193480952D01*
X278671428Y-193433333D01*
X278766666Y-193385714D01*
X278957142Y-193385714D01*
X279052380Y-193433333D01*
X279480952Y-194052380D02*
X279480952Y-193385714D01*
X279480952Y-193576190D02*
X279528571Y-193480952D01*
X279576190Y-193433333D01*
X279671428Y-193385714D01*
X279766666Y-193385714D01*
X280480952Y-194004761D02*
X280385714Y-194052380D01*
X280195238Y-194052380D01*
X280100000Y-194004761D01*
X280052380Y-193909523D01*
X280052380Y-193528571D01*
X280100000Y-193433333D01*
X280195238Y-193385714D01*
X280385714Y-193385714D01*
X280480952Y-193433333D01*
X280528571Y-193528571D01*
X280528571Y-193623809D01*
X280052380Y-193719047D01*
X280861904Y-193385714D02*
X281052380Y-194052380D01*
X281242857Y-193576190D01*
X281433333Y-194052380D01*
X281623809Y-193385714D01*
X61723809Y-28904761D02*
X61866666Y-28952380D01*
X62104761Y-28952380D01*
X62200000Y-28904761D01*
X62247619Y-28857142D01*
X62295238Y-28761904D01*
X62295238Y-28666666D01*
X62247619Y-28571428D01*
X62200000Y-28523809D01*
X62104761Y-28476190D01*
X61914285Y-28428571D01*
X61819047Y-28380952D01*
X61771428Y-28333333D01*
X61723809Y-28238095D01*
X61723809Y-28142857D01*
X61771428Y-28047619D01*
X61819047Y-28000000D01*
X61914285Y-27952380D01*
X62152380Y-27952380D01*
X62295238Y-28000000D01*
X63152380Y-28904761D02*
X63057142Y-28952380D01*
X62866666Y-28952380D01*
X62771428Y-28904761D01*
X62723809Y-28857142D01*
X62676190Y-28761904D01*
X62676190Y-28476190D01*
X62723809Y-28380952D01*
X62771428Y-28333333D01*
X62866666Y-28285714D01*
X63057142Y-28285714D01*
X63152380Y-28333333D01*
X63580952Y-28952380D02*
X63580952Y-28285714D01*
X63580952Y-28476190D02*
X63628571Y-28380952D01*
X63676190Y-28333333D01*
X63771428Y-28285714D01*
X63866666Y-28285714D01*
X64580952Y-28904761D02*
X64485714Y-28952380D01*
X64295238Y-28952380D01*
X64200000Y-28904761D01*
X64152380Y-28809523D01*
X64152380Y-28428571D01*
X64200000Y-28333333D01*
X64295238Y-28285714D01*
X64485714Y-28285714D01*
X64580952Y-28333333D01*
X64628571Y-28428571D01*
X64628571Y-28523809D01*
X64152380Y-28619047D01*
X64961904Y-28285714D02*
X65152380Y-28952380D01*
X65342857Y-28476190D01*
X65533333Y-28952380D01*
X65723809Y-28285714D01*
D19*
X274552201Y-101907436D02*
X274552201Y-100502743D01*
X275087322Y-100502743D01*
X275221102Y-100569633D01*
X275287992Y-100636523D01*
X275354883Y-100770303D01*
X275354883Y-100970974D01*
X275287992Y-101104754D01*
X275221102Y-101171644D01*
X275087322Y-101238534D01*
X274552201Y-101238534D01*
X275890004Y-101840546D02*
X276090674Y-101907436D01*
X276425125Y-101907436D01*
X276558905Y-101840546D01*
X276625795Y-101773656D01*
X276692685Y-101639875D01*
X276692685Y-101506095D01*
X276625795Y-101372315D01*
X276558905Y-101305425D01*
X276425125Y-101238534D01*
X276157564Y-101171644D01*
X276023784Y-101104754D01*
X275956894Y-101037864D01*
X275890004Y-100904084D01*
X275890004Y-100770303D01*
X275956894Y-100636523D01*
X276023784Y-100569633D01*
X276157564Y-100502743D01*
X276492015Y-100502743D01*
X276692685Y-100569633D01*
X278030488Y-101907436D02*
X277227807Y-101907436D01*
X277629147Y-101907436D02*
X277629147Y-100502743D01*
X277495367Y-100703413D01*
X277361587Y-100837194D01*
X277227807Y-100904084D01*
X11543061Y-147841500D02*
X12614490Y-147841500D01*
X12828775Y-147912928D01*
X12971632Y-148055785D01*
X13043061Y-148270071D01*
X13043061Y-148412928D01*
X11543061Y-146412928D02*
X11543061Y-147127214D01*
X12257347Y-147198642D01*
X12185918Y-147127214D01*
X12114490Y-146984357D01*
X12114490Y-146627214D01*
X12185918Y-146484357D01*
X12257347Y-146412928D01*
X12400204Y-146341500D01*
X12757347Y-146341500D01*
X12900204Y-146412928D01*
X12971632Y-146484357D01*
X13043061Y-146627214D01*
X13043061Y-146984357D01*
X12971632Y-147127214D01*
X12900204Y-147198642D01*
X16851380Y-197180523D02*
X16851380Y-196561476D01*
X17232333Y-196894809D01*
X17232333Y-196751952D01*
X17279952Y-196656714D01*
X17327571Y-196609095D01*
X17422809Y-196561476D01*
X17660904Y-196561476D01*
X17756142Y-196609095D01*
X17803761Y-196656714D01*
X17851380Y-196751952D01*
X17851380Y-197037666D01*
X17803761Y-197132904D01*
X17756142Y-197180523D01*
X16851380Y-195704333D02*
X16851380Y-195894809D01*
X16899000Y-195990047D01*
X16946619Y-196037666D01*
X17089476Y-196132904D01*
X17279952Y-196180523D01*
X17660904Y-196180523D01*
X17756142Y-196132904D01*
X17803761Y-196085285D01*
X17851380Y-195990047D01*
X17851380Y-195799571D01*
X17803761Y-195704333D01*
X17756142Y-195656714D01*
X17660904Y-195609095D01*
X17422809Y-195609095D01*
X17327571Y-195656714D01*
X17279952Y-195704333D01*
X17232333Y-195799571D01*
X17232333Y-195990047D01*
X17279952Y-196085285D01*
X17327571Y-196132904D01*
X17422809Y-196180523D01*
X14311380Y-197180523D02*
X14311380Y-196561476D01*
X14692333Y-196894809D01*
X14692333Y-196751952D01*
X14739952Y-196656714D01*
X14787571Y-196609095D01*
X14882809Y-196561476D01*
X15120904Y-196561476D01*
X15216142Y-196609095D01*
X15263761Y-196656714D01*
X15311380Y-196751952D01*
X15311380Y-197037666D01*
X15263761Y-197132904D01*
X15216142Y-197180523D01*
X14311380Y-195656714D02*
X14311380Y-196132904D01*
X14787571Y-196180523D01*
X14739952Y-196132904D01*
X14692333Y-196037666D01*
X14692333Y-195799571D01*
X14739952Y-195704333D01*
X14787571Y-195656714D01*
X14882809Y-195609095D01*
X15120904Y-195609095D01*
X15216142Y-195656714D01*
X15263761Y-195704333D01*
X15311380Y-195799571D01*
X15311380Y-196037666D01*
X15263761Y-196132904D01*
X15216142Y-196180523D01*
X16946619Y-148325714D02*
X16899000Y-148278095D01*
X16851380Y-148182857D01*
X16851380Y-147944761D01*
X16899000Y-147849523D01*
X16946619Y-147801904D01*
X17041857Y-147754285D01*
X17137095Y-147754285D01*
X17279952Y-147801904D01*
X17851380Y-148373333D01*
X17851380Y-147754285D01*
X15311380Y-147754285D02*
X15311380Y-148325714D01*
X15311380Y-148040000D02*
X14311380Y-148040000D01*
X14454238Y-148135238D01*
X14549476Y-148230476D01*
X14597095Y-148325714D01*
D10*
X277768095Y-160412380D02*
X277768095Y-161221904D01*
X277815714Y-161317142D01*
X277863333Y-161364761D01*
X277958571Y-161412380D01*
X278149047Y-161412380D01*
X278244285Y-161364761D01*
X278291904Y-161317142D01*
X278339523Y-161221904D01*
X278339523Y-160412380D01*
X279339523Y-161412380D02*
X278768095Y-161412380D01*
X279053809Y-161412380D02*
X279053809Y-160412380D01*
X278958571Y-160555238D01*
X278863333Y-160650476D01*
X278768095Y-160698095D01*
D19*
X269199302Y-59485117D02*
X269914994Y-59485117D01*
X270058133Y-59532830D01*
X270153558Y-59628256D01*
X270201271Y-59771394D01*
X270201271Y-59866820D01*
X270201271Y-58483148D02*
X270201271Y-59055702D01*
X270201271Y-58769425D02*
X269199302Y-58769425D01*
X269342441Y-58864851D01*
X269437866Y-58960276D01*
X269485579Y-59055702D01*
X269294728Y-58101446D02*
X269247015Y-58053733D01*
X269199302Y-57958307D01*
X269199302Y-57719743D01*
X269247015Y-57624318D01*
X269294728Y-57576605D01*
X269390153Y-57528892D01*
X269485579Y-57528892D01*
X269628717Y-57576605D01*
X270201271Y-58149159D01*
X270201271Y-57528892D01*
X177422971Y-68915257D02*
X177422971Y-67519769D01*
X178220393Y-68915257D02*
X177622327Y-68117835D01*
X178220393Y-67519769D02*
X177422971Y-68317190D01*
X178685556Y-67519769D02*
X179549429Y-67519769D01*
X179084267Y-68051383D01*
X179283622Y-68051383D01*
X179416526Y-68117835D01*
X179482978Y-68184287D01*
X179549429Y-68317190D01*
X179549429Y-68649449D01*
X179482978Y-68782353D01*
X179416526Y-68848805D01*
X179283622Y-68915257D01*
X178884911Y-68915257D01*
X178752008Y-68848805D01*
X178685556Y-68782353D01*
D10*
X135215333Y-116446380D02*
X134882000Y-115970190D01*
X134643904Y-116446380D02*
X134643904Y-115446380D01*
X135024857Y-115446380D01*
X135120095Y-115494000D01*
X135167714Y-115541619D01*
X135215333Y-115636857D01*
X135215333Y-115779714D01*
X135167714Y-115874952D01*
X135120095Y-115922571D01*
X135024857Y-115970190D01*
X134643904Y-115970190D01*
X136072476Y-115779714D02*
X136072476Y-116446380D01*
X135834380Y-115398761D02*
X135596285Y-116113047D01*
X136215333Y-116113047D01*
D19*
X77493904Y-106116380D02*
X77493904Y-105116380D01*
X77732000Y-105116380D01*
X77874857Y-105164000D01*
X77970095Y-105259238D01*
X78017714Y-105354476D01*
X78065333Y-105544952D01*
X78065333Y-105687809D01*
X78017714Y-105878285D01*
X77970095Y-105973523D01*
X77874857Y-106068761D01*
X77732000Y-106116380D01*
X77493904Y-106116380D01*
X78446285Y-105211619D02*
X78493904Y-105164000D01*
X78589142Y-105116380D01*
X78827238Y-105116380D01*
X78922476Y-105164000D01*
X78970095Y-105211619D01*
X79017714Y-105306857D01*
X79017714Y-105402095D01*
X78970095Y-105544952D01*
X78398666Y-106116380D01*
X79017714Y-106116380D01*
D10*
X185761333Y-116446380D02*
X185428000Y-115970190D01*
X185189904Y-116446380D02*
X185189904Y-115446380D01*
X185570857Y-115446380D01*
X185666095Y-115494000D01*
X185713714Y-115541619D01*
X185761333Y-115636857D01*
X185761333Y-115779714D01*
X185713714Y-115874952D01*
X185666095Y-115922571D01*
X185570857Y-115970190D01*
X185189904Y-115970190D01*
X186666095Y-115446380D02*
X186189904Y-115446380D01*
X186142285Y-115922571D01*
X186189904Y-115874952D01*
X186285142Y-115827333D01*
X186523238Y-115827333D01*
X186618476Y-115874952D01*
X186666095Y-115922571D01*
X186713714Y-116017809D01*
X186713714Y-116255904D01*
X186666095Y-116351142D01*
X186618476Y-116398761D01*
X186523238Y-116446380D01*
X186285142Y-116446380D01*
X186189904Y-116398761D01*
X186142285Y-116351142D01*
X84415333Y-116446380D02*
X84082000Y-115970190D01*
X83843904Y-116446380D02*
X83843904Y-115446380D01*
X84224857Y-115446380D01*
X84320095Y-115494000D01*
X84367714Y-115541619D01*
X84415333Y-115636857D01*
X84415333Y-115779714D01*
X84367714Y-115874952D01*
X84320095Y-115922571D01*
X84224857Y-115970190D01*
X83843904Y-115970190D01*
X84748666Y-115446380D02*
X85367714Y-115446380D01*
X85034380Y-115827333D01*
X85177238Y-115827333D01*
X85272476Y-115874952D01*
X85320095Y-115922571D01*
X85367714Y-116017809D01*
X85367714Y-116255904D01*
X85320095Y-116351142D01*
X85272476Y-116398761D01*
X85177238Y-116446380D01*
X84891523Y-116446380D01*
X84796285Y-116398761D01*
X84748666Y-116351142D01*
D19*
X216814333Y-52812333D02*
X216814333Y-53812333D01*
X216747666Y-54012333D01*
X216614333Y-54145666D01*
X216414333Y-54212333D01*
X216281000Y-54212333D01*
X217547666Y-54212333D02*
X217814333Y-54212333D01*
X217947666Y-54145666D01*
X218014333Y-54079000D01*
X218147666Y-53879000D01*
X218214333Y-53612333D01*
X218214333Y-53079000D01*
X218147666Y-52945666D01*
X218081000Y-52879000D01*
X217947666Y-52812333D01*
X217681000Y-52812333D01*
X217547666Y-52879000D01*
X217481000Y-52945666D01*
X217414333Y-53079000D01*
X217414333Y-53412333D01*
X217481000Y-53545666D01*
X217547666Y-53612333D01*
X217681000Y-53679000D01*
X217947666Y-53679000D01*
X218081000Y-53612333D01*
X218147666Y-53545666D01*
X218214333Y-53412333D01*
X166522333Y-52558333D02*
X166522333Y-53558333D01*
X166455666Y-53758333D01*
X166322333Y-53891666D01*
X166122333Y-53958333D01*
X165989000Y-53958333D01*
X167055666Y-52558333D02*
X167989000Y-52558333D01*
X167389000Y-53958333D01*
X177061904Y-106624380D02*
X177061904Y-105624380D01*
X177300000Y-105624380D01*
X177442857Y-105672000D01*
X177538095Y-105767238D01*
X177585714Y-105862476D01*
X177633333Y-106052952D01*
X177633333Y-106195809D01*
X177585714Y-106386285D01*
X177538095Y-106481523D01*
X177442857Y-106576761D01*
X177300000Y-106624380D01*
X177061904Y-106624380D01*
X178490476Y-105624380D02*
X178300000Y-105624380D01*
X178204761Y-105672000D01*
X178157142Y-105719619D01*
X178061904Y-105862476D01*
X178014285Y-106052952D01*
X178014285Y-106433904D01*
X178061904Y-106529142D01*
X178109523Y-106576761D01*
X178204761Y-106624380D01*
X178395238Y-106624380D01*
X178490476Y-106576761D01*
X178538095Y-106529142D01*
X178585714Y-106433904D01*
X178585714Y-106195809D01*
X178538095Y-106100571D01*
X178490476Y-106052952D01*
X178395238Y-106005333D01*
X178204761Y-106005333D01*
X178109523Y-106052952D01*
X178061904Y-106100571D01*
X178014285Y-106195809D01*
X127277904Y-106370380D02*
X127277904Y-105370380D01*
X127516000Y-105370380D01*
X127658857Y-105418000D01*
X127754095Y-105513238D01*
X127801714Y-105608476D01*
X127849333Y-105798952D01*
X127849333Y-105941809D01*
X127801714Y-106132285D01*
X127754095Y-106227523D01*
X127658857Y-106322761D01*
X127516000Y-106370380D01*
X127277904Y-106370380D01*
X128706476Y-105703714D02*
X128706476Y-106370380D01*
X128468380Y-105322761D02*
X128230285Y-106037047D01*
X128849333Y-106037047D01*
D10*
X171945380Y-170214000D02*
X171469190Y-170547333D01*
X171945380Y-170785428D02*
X170945380Y-170785428D01*
X170945380Y-170404476D01*
X170993000Y-170309238D01*
X171040619Y-170261619D01*
X171135857Y-170214000D01*
X171278714Y-170214000D01*
X171373952Y-170261619D01*
X171421571Y-170309238D01*
X171469190Y-170404476D01*
X171469190Y-170785428D01*
X171945380Y-169309238D02*
X171945380Y-169785428D01*
X170945380Y-169785428D01*
X171469190Y-168785428D02*
X171945380Y-168785428D01*
X170945380Y-169118761D02*
X171469190Y-168785428D01*
X170945380Y-168452095D01*
X171945380Y-167594952D02*
X171945380Y-168166380D01*
X171945380Y-167880666D02*
X170945380Y-167880666D01*
X171088238Y-167975904D01*
X171183476Y-168071142D01*
X171231095Y-168166380D01*
X79530380Y-161964666D02*
X79054190Y-162298000D01*
X79530380Y-162536095D02*
X78530380Y-162536095D01*
X78530380Y-162155142D01*
X78578000Y-162059904D01*
X78625619Y-162012285D01*
X78720857Y-161964666D01*
X78863714Y-161964666D01*
X78958952Y-162012285D01*
X79006571Y-162059904D01*
X79054190Y-162155142D01*
X79054190Y-162536095D01*
X78625619Y-161583714D02*
X78578000Y-161536095D01*
X78530380Y-161440857D01*
X78530380Y-161202761D01*
X78578000Y-161107523D01*
X78625619Y-161059904D01*
X78720857Y-161012285D01*
X78816095Y-161012285D01*
X78958952Y-161059904D01*
X79530380Y-161631333D01*
X79530380Y-161012285D01*
X29832380Y-190412666D02*
X29356190Y-190746000D01*
X29832380Y-190984095D02*
X28832380Y-190984095D01*
X28832380Y-190603142D01*
X28880000Y-190507904D01*
X28927619Y-190460285D01*
X29022857Y-190412666D01*
X29165714Y-190412666D01*
X29260952Y-190460285D01*
X29308571Y-190507904D01*
X29356190Y-190603142D01*
X29356190Y-190984095D01*
X29832380Y-189460285D02*
X29832380Y-190031714D01*
X29832380Y-189746000D02*
X28832380Y-189746000D01*
X28975238Y-189841238D01*
X29070476Y-189936476D01*
X29118095Y-190031714D01*
X29097619Y-162017238D02*
X29050000Y-162112476D01*
X28954761Y-162207714D01*
X28811904Y-162350571D01*
X28764285Y-162445809D01*
X28764285Y-162541047D01*
X29002380Y-162493428D02*
X28954761Y-162588666D01*
X28859523Y-162683904D01*
X28669047Y-162731523D01*
X28335714Y-162731523D01*
X28145238Y-162683904D01*
X28050000Y-162588666D01*
X28002380Y-162493428D01*
X28002380Y-162302952D01*
X28050000Y-162207714D01*
X28145238Y-162112476D01*
X28335714Y-162064857D01*
X28669047Y-162064857D01*
X28859523Y-162112476D01*
X28954761Y-162207714D01*
X29002380Y-162302952D01*
X29002380Y-162493428D01*
X29002380Y-161112476D02*
X29002380Y-161683904D01*
X29002380Y-161398190D02*
X28002380Y-161398190D01*
X28145238Y-161493428D01*
X28240476Y-161588666D01*
X28288095Y-161683904D01*
D19*
X126876971Y-68915257D02*
X126876971Y-67519769D01*
X127674393Y-68915257D02*
X127076327Y-68117835D01*
X127674393Y-67519769D02*
X126876971Y-68317190D01*
X128206008Y-67652672D02*
X128272459Y-67586221D01*
X128405363Y-67519769D01*
X128737622Y-67519769D01*
X128870526Y-67586221D01*
X128936978Y-67652672D01*
X129003429Y-67785576D01*
X129003429Y-67918480D01*
X128936978Y-68117835D01*
X128139556Y-68915257D01*
X129003429Y-68915257D01*
X76584971Y-68915257D02*
X76584971Y-67519769D01*
X77382393Y-68915257D02*
X76784327Y-68117835D01*
X77382393Y-67519769D02*
X76584971Y-68317190D01*
X78711429Y-68915257D02*
X77914008Y-68915257D01*
X78312719Y-68915257D02*
X78312719Y-67519769D01*
X78179815Y-67719124D01*
X78046911Y-67852028D01*
X77914008Y-67918480D01*
X175390634Y-30136587D02*
X175390634Y-31079477D01*
X175327774Y-31268055D01*
X175202056Y-31393774D01*
X175013478Y-31456634D01*
X174887759Y-31456634D01*
X176207806Y-30702321D02*
X176082087Y-30639462D01*
X176019228Y-30576602D01*
X175956368Y-30450884D01*
X175956368Y-30388024D01*
X176019228Y-30262305D01*
X176082087Y-30199446D01*
X176207806Y-30136587D01*
X176459243Y-30136587D01*
X176584962Y-30199446D01*
X176647821Y-30262305D01*
X176710681Y-30388024D01*
X176710681Y-30450884D01*
X176647821Y-30576602D01*
X176584962Y-30639462D01*
X176459243Y-30702321D01*
X176207806Y-30702321D01*
X176082087Y-30765180D01*
X176019228Y-30828040D01*
X175956368Y-30953759D01*
X175956368Y-31205196D01*
X176019228Y-31330915D01*
X176082087Y-31393774D01*
X176207806Y-31456634D01*
X176459243Y-31456634D01*
X176584962Y-31393774D01*
X176647821Y-31330915D01*
X176710681Y-31205196D01*
X176710681Y-30953759D01*
X176647821Y-30828040D01*
X176584962Y-30765180D01*
X176459243Y-30702321D01*
X125098634Y-29374587D02*
X125098634Y-30317477D01*
X125035774Y-30506055D01*
X124910056Y-30631774D01*
X124721478Y-30694634D01*
X124595759Y-30694634D01*
X126292962Y-29374587D02*
X126041525Y-29374587D01*
X125915806Y-29437446D01*
X125852946Y-29500305D01*
X125727228Y-29688884D01*
X125664368Y-29940321D01*
X125664368Y-30443196D01*
X125727228Y-30568915D01*
X125790087Y-30631774D01*
X125915806Y-30694634D01*
X126167243Y-30694634D01*
X126292962Y-30631774D01*
X126355821Y-30568915D01*
X126418681Y-30443196D01*
X126418681Y-30128899D01*
X126355821Y-30003180D01*
X126292962Y-29940321D01*
X126167243Y-29877462D01*
X125915806Y-29877462D01*
X125790087Y-29940321D01*
X125727228Y-30003180D01*
X125664368Y-30128899D01*
X74806634Y-29374587D02*
X74806634Y-30317477D01*
X74743774Y-30506055D01*
X74618056Y-30631774D01*
X74429478Y-30694634D01*
X74303759Y-30694634D01*
X75309509Y-29374587D02*
X76126681Y-29374587D01*
X75686665Y-29877462D01*
X75875243Y-29877462D01*
X76000962Y-29940321D01*
X76063821Y-30003180D01*
X76126681Y-30128899D01*
X76126681Y-30443196D01*
X76063821Y-30568915D01*
X76000962Y-30631774D01*
X75875243Y-30694634D01*
X75498087Y-30694634D01*
X75372368Y-30631774D01*
X75309509Y-30568915D01*
X115722333Y-52304333D02*
X115722333Y-53304333D01*
X115655666Y-53504333D01*
X115522333Y-53637666D01*
X115322333Y-53704333D01*
X115189000Y-53704333D01*
X116989000Y-52771000D02*
X116989000Y-53704333D01*
X116655666Y-52237666D02*
X116322333Y-53237666D01*
X117189000Y-53237666D01*
D10*
X67530380Y-162075333D02*
X68244666Y-162075333D01*
X68387523Y-162122952D01*
X68482761Y-162218190D01*
X68530380Y-162361047D01*
X68530380Y-162456285D01*
X68530380Y-161075333D02*
X68530380Y-161646761D01*
X68530380Y-161361047D02*
X67530380Y-161361047D01*
X67673238Y-161456285D01*
X67768476Y-161551523D01*
X67816095Y-161646761D01*
X170194380Y-101322095D02*
X169194380Y-101322095D01*
X169194380Y-101084000D01*
X169242000Y-100941142D01*
X169337238Y-100845904D01*
X169432476Y-100798285D01*
X169622952Y-100750666D01*
X169765809Y-100750666D01*
X169956285Y-100798285D01*
X170051523Y-100845904D01*
X170146761Y-100941142D01*
X170194380Y-101084000D01*
X170194380Y-101322095D01*
X169194380Y-99845904D02*
X169194380Y-100322095D01*
X169670571Y-100369714D01*
X169622952Y-100322095D01*
X169575333Y-100226857D01*
X169575333Y-99988761D01*
X169622952Y-99893523D01*
X169670571Y-99845904D01*
X169765809Y-99798285D01*
X170003904Y-99798285D01*
X170099142Y-99845904D01*
X170146761Y-99893523D01*
X170194380Y-99988761D01*
X170194380Y-100226857D01*
X170146761Y-100322095D01*
X170099142Y-100369714D01*
X170564380Y-105925904D02*
X169564380Y-105925904D01*
X170564380Y-105354476D02*
X169992952Y-105783047D01*
X169564380Y-105354476D02*
X170135809Y-105925904D01*
X119902380Y-101322095D02*
X118902380Y-101322095D01*
X118902380Y-101084000D01*
X118950000Y-100941142D01*
X119045238Y-100845904D01*
X119140476Y-100798285D01*
X119330952Y-100750666D01*
X119473809Y-100750666D01*
X119664285Y-100798285D01*
X119759523Y-100845904D01*
X119854761Y-100941142D01*
X119902380Y-101084000D01*
X119902380Y-101322095D01*
X118902380Y-100417333D02*
X118902380Y-99798285D01*
X119283333Y-100131619D01*
X119283333Y-99988761D01*
X119330952Y-99893523D01*
X119378571Y-99845904D01*
X119473809Y-99798285D01*
X119711904Y-99798285D01*
X119807142Y-99845904D01*
X119854761Y-99893523D01*
X119902380Y-99988761D01*
X119902380Y-100274476D01*
X119854761Y-100369714D01*
X119807142Y-100417333D01*
X120272380Y-105925904D02*
X119272380Y-105925904D01*
X120272380Y-105354476D02*
X119700952Y-105783047D01*
X119272380Y-105354476D02*
X119843809Y-105925904D01*
X69102380Y-101068095D02*
X68102380Y-101068095D01*
X68102380Y-100830000D01*
X68150000Y-100687142D01*
X68245238Y-100591904D01*
X68340476Y-100544285D01*
X68530952Y-100496666D01*
X68673809Y-100496666D01*
X68864285Y-100544285D01*
X68959523Y-100591904D01*
X69054761Y-100687142D01*
X69102380Y-100830000D01*
X69102380Y-101068095D01*
X69102380Y-99544285D02*
X69102380Y-100115714D01*
X69102380Y-99830000D02*
X68102380Y-99830000D01*
X68245238Y-99925238D01*
X68340476Y-100020476D01*
X68388095Y-100115714D01*
X69472380Y-105671904D02*
X68472380Y-105671904D01*
X69472380Y-105100476D02*
X68900952Y-105529047D01*
X68472380Y-105100476D02*
X69043809Y-105671904D01*
X159727142Y-191642285D02*
X159774761Y-191689904D01*
X159822380Y-191832761D01*
X159822380Y-191928000D01*
X159774761Y-192070857D01*
X159679523Y-192166095D01*
X159584285Y-192213714D01*
X159393809Y-192261333D01*
X159250952Y-192261333D01*
X159060476Y-192213714D01*
X158965238Y-192166095D01*
X158870000Y-192070857D01*
X158822380Y-191928000D01*
X158822380Y-191832761D01*
X158870000Y-191689904D01*
X158917619Y-191642285D01*
X158822380Y-191023238D02*
X158822380Y-190832761D01*
X158870000Y-190737523D01*
X158965238Y-190642285D01*
X159155714Y-190594666D01*
X159489047Y-190594666D01*
X159679523Y-190642285D01*
X159774761Y-190737523D01*
X159822380Y-190832761D01*
X159822380Y-191023238D01*
X159774761Y-191118476D01*
X159679523Y-191213714D01*
X159489047Y-191261333D01*
X159155714Y-191261333D01*
X158965238Y-191213714D01*
X158870000Y-191118476D01*
X158822380Y-191023238D01*
X159822380Y-190166095D02*
X158822380Y-190166095D01*
X159822380Y-189594666D01*
X158822380Y-189594666D01*
X158822380Y-189213714D02*
X158822380Y-188547047D01*
X159822380Y-188975619D01*
X135089142Y-191642285D02*
X135136761Y-191689904D01*
X135184380Y-191832761D01*
X135184380Y-191928000D01*
X135136761Y-192070857D01*
X135041523Y-192166095D01*
X134946285Y-192213714D01*
X134755809Y-192261333D01*
X134612952Y-192261333D01*
X134422476Y-192213714D01*
X134327238Y-192166095D01*
X134232000Y-192070857D01*
X134184380Y-191928000D01*
X134184380Y-191832761D01*
X134232000Y-191689904D01*
X134279619Y-191642285D01*
X134184380Y-191023238D02*
X134184380Y-190832761D01*
X134232000Y-190737523D01*
X134327238Y-190642285D01*
X134517714Y-190594666D01*
X134851047Y-190594666D01*
X135041523Y-190642285D01*
X135136761Y-190737523D01*
X135184380Y-190832761D01*
X135184380Y-191023238D01*
X135136761Y-191118476D01*
X135041523Y-191213714D01*
X134851047Y-191261333D01*
X134517714Y-191261333D01*
X134327238Y-191213714D01*
X134232000Y-191118476D01*
X134184380Y-191023238D01*
X135184380Y-190166095D02*
X134184380Y-190166095D01*
X135184380Y-189594666D01*
X134184380Y-189594666D01*
X134184380Y-188689904D02*
X134184380Y-188880380D01*
X134232000Y-188975619D01*
X134279619Y-189023238D01*
X134422476Y-189118476D01*
X134612952Y-189166095D01*
X134993904Y-189166095D01*
X135089142Y-189118476D01*
X135136761Y-189070857D01*
X135184380Y-188975619D01*
X135184380Y-188785142D01*
X135136761Y-188689904D01*
X135089142Y-188642285D01*
X134993904Y-188594666D01*
X134755809Y-188594666D01*
X134660571Y-188642285D01*
X134612952Y-188689904D01*
X134565333Y-188785142D01*
X134565333Y-188975619D01*
X134612952Y-189070857D01*
X134660571Y-189118476D01*
X134755809Y-189166095D01*
X118833142Y-191642285D02*
X118880761Y-191689904D01*
X118928380Y-191832761D01*
X118928380Y-191928000D01*
X118880761Y-192070857D01*
X118785523Y-192166095D01*
X118690285Y-192213714D01*
X118499809Y-192261333D01*
X118356952Y-192261333D01*
X118166476Y-192213714D01*
X118071238Y-192166095D01*
X117976000Y-192070857D01*
X117928380Y-191928000D01*
X117928380Y-191832761D01*
X117976000Y-191689904D01*
X118023619Y-191642285D01*
X117928380Y-191023238D02*
X117928380Y-190832761D01*
X117976000Y-190737523D01*
X118071238Y-190642285D01*
X118261714Y-190594666D01*
X118595047Y-190594666D01*
X118785523Y-190642285D01*
X118880761Y-190737523D01*
X118928380Y-190832761D01*
X118928380Y-191023238D01*
X118880761Y-191118476D01*
X118785523Y-191213714D01*
X118595047Y-191261333D01*
X118261714Y-191261333D01*
X118071238Y-191213714D01*
X117976000Y-191118476D01*
X117928380Y-191023238D01*
X118928380Y-190166095D02*
X117928380Y-190166095D01*
X118928380Y-189594666D01*
X117928380Y-189594666D01*
X117928380Y-188642285D02*
X117928380Y-189118476D01*
X118404571Y-189166095D01*
X118356952Y-189118476D01*
X118309333Y-189023238D01*
X118309333Y-188785142D01*
X118356952Y-188689904D01*
X118404571Y-188642285D01*
X118499809Y-188594666D01*
X118737904Y-188594666D01*
X118833142Y-188642285D01*
X118880761Y-188689904D01*
X118928380Y-188785142D01*
X118928380Y-189023238D01*
X118880761Y-189118476D01*
X118833142Y-189166095D01*
X76923142Y-191642285D02*
X76970761Y-191689904D01*
X77018380Y-191832761D01*
X77018380Y-191928000D01*
X76970761Y-192070857D01*
X76875523Y-192166095D01*
X76780285Y-192213714D01*
X76589809Y-192261333D01*
X76446952Y-192261333D01*
X76256476Y-192213714D01*
X76161238Y-192166095D01*
X76066000Y-192070857D01*
X76018380Y-191928000D01*
X76018380Y-191832761D01*
X76066000Y-191689904D01*
X76113619Y-191642285D01*
X76018380Y-191023238D02*
X76018380Y-190832761D01*
X76066000Y-190737523D01*
X76161238Y-190642285D01*
X76351714Y-190594666D01*
X76685047Y-190594666D01*
X76875523Y-190642285D01*
X76970761Y-190737523D01*
X77018380Y-190832761D01*
X77018380Y-191023238D01*
X76970761Y-191118476D01*
X76875523Y-191213714D01*
X76685047Y-191261333D01*
X76351714Y-191261333D01*
X76161238Y-191213714D01*
X76066000Y-191118476D01*
X76018380Y-191023238D01*
X77018380Y-190166095D02*
X76018380Y-190166095D01*
X77018380Y-189594666D01*
X76018380Y-189594666D01*
X76351714Y-188689904D02*
X77018380Y-188689904D01*
X75970761Y-188928000D02*
X76685047Y-189166095D01*
X76685047Y-188547047D01*
X102577142Y-191642285D02*
X102624761Y-191689904D01*
X102672380Y-191832761D01*
X102672380Y-191928000D01*
X102624761Y-192070857D01*
X102529523Y-192166095D01*
X102434285Y-192213714D01*
X102243809Y-192261333D01*
X102100952Y-192261333D01*
X101910476Y-192213714D01*
X101815238Y-192166095D01*
X101720000Y-192070857D01*
X101672380Y-191928000D01*
X101672380Y-191832761D01*
X101720000Y-191689904D01*
X101767619Y-191642285D01*
X101672380Y-191023238D02*
X101672380Y-190832761D01*
X101720000Y-190737523D01*
X101815238Y-190642285D01*
X102005714Y-190594666D01*
X102339047Y-190594666D01*
X102529523Y-190642285D01*
X102624761Y-190737523D01*
X102672380Y-190832761D01*
X102672380Y-191023238D01*
X102624761Y-191118476D01*
X102529523Y-191213714D01*
X102339047Y-191261333D01*
X102005714Y-191261333D01*
X101815238Y-191213714D01*
X101720000Y-191118476D01*
X101672380Y-191023238D01*
X102672380Y-190166095D02*
X101672380Y-190166095D01*
X102672380Y-189594666D01*
X101672380Y-189594666D01*
X101672380Y-189213714D02*
X101672380Y-188594666D01*
X102053333Y-188928000D01*
X102053333Y-188785142D01*
X102100952Y-188689904D01*
X102148571Y-188642285D01*
X102243809Y-188594666D01*
X102481904Y-188594666D01*
X102577142Y-188642285D01*
X102624761Y-188689904D01*
X102672380Y-188785142D01*
X102672380Y-189070857D01*
X102624761Y-189166095D01*
X102577142Y-189213714D01*
X60667142Y-191642285D02*
X60714761Y-191689904D01*
X60762380Y-191832761D01*
X60762380Y-191928000D01*
X60714761Y-192070857D01*
X60619523Y-192166095D01*
X60524285Y-192213714D01*
X60333809Y-192261333D01*
X60190952Y-192261333D01*
X60000476Y-192213714D01*
X59905238Y-192166095D01*
X59810000Y-192070857D01*
X59762380Y-191928000D01*
X59762380Y-191832761D01*
X59810000Y-191689904D01*
X59857619Y-191642285D01*
X59762380Y-191023238D02*
X59762380Y-190832761D01*
X59810000Y-190737523D01*
X59905238Y-190642285D01*
X60095714Y-190594666D01*
X60429047Y-190594666D01*
X60619523Y-190642285D01*
X60714761Y-190737523D01*
X60762380Y-190832761D01*
X60762380Y-191023238D01*
X60714761Y-191118476D01*
X60619523Y-191213714D01*
X60429047Y-191261333D01*
X60095714Y-191261333D01*
X59905238Y-191213714D01*
X59810000Y-191118476D01*
X59762380Y-191023238D01*
X60762380Y-190166095D02*
X59762380Y-190166095D01*
X60762380Y-189594666D01*
X59762380Y-189594666D01*
X59857619Y-189166095D02*
X59810000Y-189118476D01*
X59762380Y-189023238D01*
X59762380Y-188785142D01*
X59810000Y-188689904D01*
X59857619Y-188642285D01*
X59952857Y-188594666D01*
X60048095Y-188594666D01*
X60190952Y-188642285D01*
X60762380Y-189213714D01*
X60762380Y-188594666D01*
X35855142Y-191642285D02*
X35902761Y-191689904D01*
X35950380Y-191832761D01*
X35950380Y-191928000D01*
X35902761Y-192070857D01*
X35807523Y-192166095D01*
X35712285Y-192213714D01*
X35521809Y-192261333D01*
X35378952Y-192261333D01*
X35188476Y-192213714D01*
X35093238Y-192166095D01*
X34998000Y-192070857D01*
X34950380Y-191928000D01*
X34950380Y-191832761D01*
X34998000Y-191689904D01*
X35045619Y-191642285D01*
X34950380Y-191023238D02*
X34950380Y-190832761D01*
X34998000Y-190737523D01*
X35093238Y-190642285D01*
X35283714Y-190594666D01*
X35617047Y-190594666D01*
X35807523Y-190642285D01*
X35902761Y-190737523D01*
X35950380Y-190832761D01*
X35950380Y-191023238D01*
X35902761Y-191118476D01*
X35807523Y-191213714D01*
X35617047Y-191261333D01*
X35283714Y-191261333D01*
X35093238Y-191213714D01*
X34998000Y-191118476D01*
X34950380Y-191023238D01*
X35950380Y-190166095D02*
X34950380Y-190166095D01*
X35950380Y-189594666D01*
X34950380Y-189594666D01*
X35950380Y-188594666D02*
X35950380Y-189166095D01*
X35950380Y-188880380D02*
X34950380Y-188880380D01*
X35093238Y-188975619D01*
X35188476Y-189070857D01*
X35236095Y-189166095D01*
M02*
