G04 #@! TF.GenerationSoftware,KiCad,Pcbnew,5.1.5-52549c5~84~ubuntu18.04.1*
G04 #@! TF.CreationDate,2020-02-20T19:04:47-05:00*
G04 #@! TF.ProjectId,cropdroid-reservoir,63726f70-6472-46f6-9964-2d7265736572,0.5a*
G04 #@! TF.SameCoordinates,Original*
G04 #@! TF.FileFunction,Legend,Top*
G04 #@! TF.FilePolarity,Positive*
%FSLAX46Y46*%
G04 Gerber Fmt 4.6, Leading zero omitted, Abs format (unit mm)*
G04 Created by KiCad (PCBNEW 5.1.5-52549c5~84~ubuntu18.04.1) date 2020-02-20 19:04:47*
%MOMM*%
%LPD*%
G04 APERTURE LIST*
%ADD10C,0.150000*%
%ADD11C,0.120000*%
%ADD12C,0.200000*%
%ADD13C,0.152400*%
%ADD14C,0.127000*%
%ADD15C,0.400000*%
%ADD16C,0.100000*%
%ADD17C,0.300000*%
%ADD18C,0.010000*%
%ADD19C,0.015000*%
G04 APERTURE END LIST*
D10*
X304749533Y-143759228D02*
X305511438Y-143759228D01*
X305130485Y-144140180D02*
X305130485Y-143378276D01*
X306463819Y-143140180D02*
X305987628Y-143140180D01*
X305940009Y-143616371D01*
X305987628Y-143568752D01*
X306082866Y-143521133D01*
X306320961Y-143521133D01*
X306416200Y-143568752D01*
X306463819Y-143616371D01*
X306511438Y-143711609D01*
X306511438Y-143949704D01*
X306463819Y-144044942D01*
X306416200Y-144092561D01*
X306320961Y-144140180D01*
X306082866Y-144140180D01*
X305987628Y-144092561D01*
X305940009Y-144044942D01*
X306797152Y-143140180D02*
X307130485Y-144140180D01*
X307463819Y-143140180D01*
X308559057Y-144140180D02*
X308559057Y-143140180D01*
X308797152Y-143140180D01*
X308940009Y-143187800D01*
X309035247Y-143283038D01*
X309082866Y-143378276D01*
X309130485Y-143568752D01*
X309130485Y-143711609D01*
X309082866Y-143902085D01*
X309035247Y-143997323D01*
X308940009Y-144092561D01*
X308797152Y-144140180D01*
X308559057Y-144140180D01*
X310130485Y-144044942D02*
X310082866Y-144092561D01*
X309940009Y-144140180D01*
X309844771Y-144140180D01*
X309701914Y-144092561D01*
X309606676Y-143997323D01*
X309559057Y-143902085D01*
X309511438Y-143711609D01*
X309511438Y-143568752D01*
X309559057Y-143378276D01*
X309606676Y-143283038D01*
X309701914Y-143187800D01*
X309844771Y-143140180D01*
X309940009Y-143140180D01*
X310082866Y-143187800D01*
X310130485Y-143235419D01*
X102732676Y-199512180D02*
X102732676Y-198512180D01*
X102970771Y-198512180D01*
X103113628Y-198559800D01*
X103208866Y-198655038D01*
X103256485Y-198750276D01*
X103304104Y-198940752D01*
X103304104Y-199083609D01*
X103256485Y-199274085D01*
X103208866Y-199369323D01*
X103113628Y-199464561D01*
X102970771Y-199512180D01*
X102732676Y-199512180D01*
X103732676Y-199512180D02*
X103732676Y-198512180D01*
X103732676Y-198988371D02*
X104304104Y-198988371D01*
X104304104Y-199512180D02*
X104304104Y-198512180D01*
X104637438Y-198512180D02*
X105208866Y-198512180D01*
X104923152Y-199512180D02*
X104923152Y-198512180D01*
X105494580Y-198607419D02*
X105542200Y-198559800D01*
X105637438Y-198512180D01*
X105875533Y-198512180D01*
X105970771Y-198559800D01*
X106018390Y-198607419D01*
X106066009Y-198702657D01*
X106066009Y-198797895D01*
X106018390Y-198940752D01*
X105446961Y-199512180D01*
X106066009Y-199512180D01*
X106446961Y-198607419D02*
X106494580Y-198559800D01*
X106589819Y-198512180D01*
X106827914Y-198512180D01*
X106923152Y-198559800D01*
X106970771Y-198607419D01*
X107018390Y-198702657D01*
X107018390Y-198797895D01*
X106970771Y-198940752D01*
X106399342Y-199512180D01*
X107018390Y-199512180D01*
X108923152Y-198464561D02*
X108066009Y-199750276D01*
X109970771Y-199226466D02*
X110446961Y-199226466D01*
X109875533Y-199512180D02*
X110208866Y-198512180D01*
X110542200Y-199512180D01*
X110875533Y-199512180D02*
X110875533Y-198512180D01*
X111208866Y-199226466D01*
X111542200Y-198512180D01*
X111542200Y-199512180D01*
X111970771Y-198607419D02*
X112018390Y-198559800D01*
X112113628Y-198512180D01*
X112351723Y-198512180D01*
X112446961Y-198559800D01*
X112494580Y-198607419D01*
X112542200Y-198702657D01*
X112542200Y-198797895D01*
X112494580Y-198940752D01*
X111923152Y-199512180D01*
X112542200Y-199512180D01*
X112875533Y-198512180D02*
X113494580Y-198512180D01*
X113161247Y-198893133D01*
X113304104Y-198893133D01*
X113399342Y-198940752D01*
X113446961Y-198988371D01*
X113494580Y-199083609D01*
X113494580Y-199321704D01*
X113446961Y-199416942D01*
X113399342Y-199464561D01*
X113304104Y-199512180D01*
X113018390Y-199512180D01*
X112923152Y-199464561D01*
X112875533Y-199416942D01*
X114113628Y-198512180D02*
X114208866Y-198512180D01*
X114304104Y-198559800D01*
X114351723Y-198607419D01*
X114399342Y-198702657D01*
X114446961Y-198893133D01*
X114446961Y-199131228D01*
X114399342Y-199321704D01*
X114351723Y-199416942D01*
X114304104Y-199464561D01*
X114208866Y-199512180D01*
X114113628Y-199512180D01*
X114018390Y-199464561D01*
X113970771Y-199416942D01*
X113923152Y-199321704D01*
X113875533Y-199131228D01*
X113875533Y-198893133D01*
X113923152Y-198702657D01*
X113970771Y-198607419D01*
X114018390Y-198559800D01*
X114113628Y-198512180D01*
X114780295Y-198512180D02*
X115399342Y-198512180D01*
X115066009Y-198893133D01*
X115208866Y-198893133D01*
X115304104Y-198940752D01*
X115351723Y-198988371D01*
X115399342Y-199083609D01*
X115399342Y-199321704D01*
X115351723Y-199416942D01*
X115304104Y-199464561D01*
X115208866Y-199512180D01*
X114923152Y-199512180D01*
X114827914Y-199464561D01*
X114780295Y-199416942D01*
X286032961Y-185669228D02*
X286794866Y-185669228D01*
X286413914Y-186050180D02*
X286413914Y-185288276D01*
X287794866Y-186050180D02*
X287223438Y-186050180D01*
X287509152Y-186050180D02*
X287509152Y-185050180D01*
X287413914Y-185193038D01*
X287318676Y-185288276D01*
X287223438Y-185335895D01*
X288175819Y-185145419D02*
X288223438Y-185097800D01*
X288318676Y-185050180D01*
X288556771Y-185050180D01*
X288652009Y-185097800D01*
X288699628Y-185145419D01*
X288747247Y-185240657D01*
X288747247Y-185335895D01*
X288699628Y-185478752D01*
X288128200Y-186050180D01*
X288747247Y-186050180D01*
X289080580Y-185383514D02*
X289318676Y-186050180D01*
X289556771Y-185383514D01*
X290699628Y-186050180D02*
X290699628Y-185050180D01*
X290937723Y-185050180D01*
X291080580Y-185097800D01*
X291175819Y-185193038D01*
X291223438Y-185288276D01*
X291271057Y-185478752D01*
X291271057Y-185621609D01*
X291223438Y-185812085D01*
X291175819Y-185907323D01*
X291080580Y-186002561D01*
X290937723Y-186050180D01*
X290699628Y-186050180D01*
X292271057Y-185954942D02*
X292223438Y-186002561D01*
X292080580Y-186050180D01*
X291985342Y-186050180D01*
X291842485Y-186002561D01*
X291747247Y-185907323D01*
X291699628Y-185812085D01*
X291652009Y-185621609D01*
X291652009Y-185478752D01*
X291699628Y-185288276D01*
X291747247Y-185193038D01*
X291842485Y-185097800D01*
X291985342Y-185050180D01*
X292080580Y-185050180D01*
X292223438Y-185097800D01*
X292271057Y-185145419D01*
X357975209Y-64384180D02*
X357975209Y-63384180D01*
X358546638Y-64384180D01*
X358546638Y-63384180D01*
X359403780Y-64336561D02*
X359308542Y-64384180D01*
X359118066Y-64384180D01*
X359022828Y-64336561D01*
X358975209Y-64241323D01*
X358975209Y-63860371D01*
X359022828Y-63765133D01*
X359118066Y-63717514D01*
X359308542Y-63717514D01*
X359403780Y-63765133D01*
X359451400Y-63860371D01*
X359451400Y-63955609D01*
X358975209Y-64050847D01*
X360308542Y-63717514D02*
X360308542Y-64384180D01*
X359879971Y-63717514D02*
X359879971Y-64241323D01*
X359927590Y-64336561D01*
X360022828Y-64384180D01*
X360165685Y-64384180D01*
X360260923Y-64336561D01*
X360308542Y-64288942D01*
X360641876Y-63717514D02*
X361022828Y-63717514D01*
X360784733Y-63384180D02*
X360784733Y-64241323D01*
X360832352Y-64336561D01*
X360927590Y-64384180D01*
X361022828Y-64384180D01*
X361356161Y-64384180D02*
X361356161Y-63717514D01*
X361356161Y-63907990D02*
X361403780Y-63812752D01*
X361451400Y-63765133D01*
X361546638Y-63717514D01*
X361641876Y-63717514D01*
X362403780Y-64384180D02*
X362403780Y-63860371D01*
X362356161Y-63765133D01*
X362260923Y-63717514D01*
X362070447Y-63717514D01*
X361975209Y-63765133D01*
X362403780Y-64336561D02*
X362308542Y-64384180D01*
X362070447Y-64384180D01*
X361975209Y-64336561D01*
X361927590Y-64241323D01*
X361927590Y-64146085D01*
X361975209Y-64050847D01*
X362070447Y-64003228D01*
X362308542Y-64003228D01*
X362403780Y-63955609D01*
X363022828Y-64384180D02*
X362927590Y-64336561D01*
X362879971Y-64241323D01*
X362879971Y-63384180D01*
X358229114Y-70362771D02*
X358562447Y-70362771D01*
X358705304Y-70886580D02*
X358229114Y-70886580D01*
X358229114Y-69886580D01*
X358705304Y-69886580D01*
X359562447Y-70886580D02*
X359562447Y-70362771D01*
X359514828Y-70267533D01*
X359419590Y-70219914D01*
X359229114Y-70219914D01*
X359133876Y-70267533D01*
X359562447Y-70838961D02*
X359467209Y-70886580D01*
X359229114Y-70886580D01*
X359133876Y-70838961D01*
X359086257Y-70743723D01*
X359086257Y-70648485D01*
X359133876Y-70553247D01*
X359229114Y-70505628D01*
X359467209Y-70505628D01*
X359562447Y-70458009D01*
X360038638Y-70886580D02*
X360038638Y-70219914D01*
X360038638Y-70410390D02*
X360086257Y-70315152D01*
X360133876Y-70267533D01*
X360229114Y-70219914D01*
X360324352Y-70219914D01*
X360514828Y-70219914D02*
X360895780Y-70219914D01*
X360657685Y-69886580D02*
X360657685Y-70743723D01*
X360705304Y-70838961D01*
X360800542Y-70886580D01*
X360895780Y-70886580D01*
X361229114Y-70886580D02*
X361229114Y-69886580D01*
X361657685Y-70886580D02*
X361657685Y-70362771D01*
X361610066Y-70267533D01*
X361514828Y-70219914D01*
X361371971Y-70219914D01*
X361276733Y-70267533D01*
X361229114Y-70315152D01*
X358702076Y-78379580D02*
X358225885Y-78379580D01*
X358225885Y-77379580D01*
X359035409Y-78379580D02*
X359035409Y-77712914D01*
X359035409Y-77379580D02*
X358987790Y-77427200D01*
X359035409Y-77474819D01*
X359083028Y-77427200D01*
X359035409Y-77379580D01*
X359035409Y-77474819D01*
X359511600Y-77712914D02*
X359511600Y-78379580D01*
X359511600Y-77808152D02*
X359559219Y-77760533D01*
X359654457Y-77712914D01*
X359797314Y-77712914D01*
X359892552Y-77760533D01*
X359940171Y-77855771D01*
X359940171Y-78379580D01*
X360797314Y-78331961D02*
X360702076Y-78379580D01*
X360511600Y-78379580D01*
X360416361Y-78331961D01*
X360368742Y-78236723D01*
X360368742Y-77855771D01*
X360416361Y-77760533D01*
X360511600Y-77712914D01*
X360702076Y-77712914D01*
X360797314Y-77760533D01*
X360844933Y-77855771D01*
X360844933Y-77951009D01*
X360368742Y-78046247D01*
X211367642Y-93535166D02*
X211415261Y-93582785D01*
X211462880Y-93725642D01*
X211462880Y-93820880D01*
X211415261Y-93963738D01*
X211320023Y-94058976D01*
X211224785Y-94106595D01*
X211034309Y-94154214D01*
X210891452Y-94154214D01*
X210700976Y-94106595D01*
X210605738Y-94058976D01*
X210510500Y-93963738D01*
X210462880Y-93820880D01*
X210462880Y-93725642D01*
X210510500Y-93582785D01*
X210558119Y-93535166D01*
X211462880Y-93106595D02*
X210462880Y-93106595D01*
X211462880Y-92678023D02*
X210939071Y-92678023D01*
X210843833Y-92725642D01*
X210796214Y-92820880D01*
X210796214Y-92963738D01*
X210843833Y-93058976D01*
X210891452Y-93106595D01*
X211462880Y-91773261D02*
X210939071Y-91773261D01*
X210843833Y-91820880D01*
X210796214Y-91916119D01*
X210796214Y-92106595D01*
X210843833Y-92201833D01*
X211415261Y-91773261D02*
X211462880Y-91868500D01*
X211462880Y-92106595D01*
X211415261Y-92201833D01*
X211320023Y-92249452D01*
X211224785Y-92249452D01*
X211129547Y-92201833D01*
X211081928Y-92106595D01*
X211081928Y-91868500D01*
X211034309Y-91773261D01*
X210796214Y-91297071D02*
X211462880Y-91297071D01*
X210891452Y-91297071D02*
X210843833Y-91249452D01*
X210796214Y-91154214D01*
X210796214Y-91011357D01*
X210843833Y-90916119D01*
X210939071Y-90868500D01*
X211462880Y-90868500D01*
X210796214Y-90392309D02*
X211462880Y-90392309D01*
X210891452Y-90392309D02*
X210843833Y-90344690D01*
X210796214Y-90249452D01*
X210796214Y-90106595D01*
X210843833Y-90011357D01*
X210939071Y-89963738D01*
X211462880Y-89963738D01*
X211415261Y-89106595D02*
X211462880Y-89201833D01*
X211462880Y-89392309D01*
X211415261Y-89487547D01*
X211320023Y-89535166D01*
X210939071Y-89535166D01*
X210843833Y-89487547D01*
X210796214Y-89392309D01*
X210796214Y-89201833D01*
X210843833Y-89106595D01*
X210939071Y-89058976D01*
X211034309Y-89058976D01*
X211129547Y-89535166D01*
X211462880Y-88487547D02*
X211415261Y-88582785D01*
X211320023Y-88630404D01*
X210462880Y-88630404D01*
X210462880Y-88201833D02*
X210462880Y-87582785D01*
X210843833Y-87916119D01*
X210843833Y-87773261D01*
X210891452Y-87678023D01*
X210939071Y-87630404D01*
X211034309Y-87582785D01*
X211272404Y-87582785D01*
X211367642Y-87630404D01*
X211415261Y-87678023D01*
X211462880Y-87773261D01*
X211462880Y-88058976D01*
X211415261Y-88154214D01*
X211367642Y-88201833D01*
X160567642Y-93535166D02*
X160615261Y-93582785D01*
X160662880Y-93725642D01*
X160662880Y-93820880D01*
X160615261Y-93963738D01*
X160520023Y-94058976D01*
X160424785Y-94106595D01*
X160234309Y-94154214D01*
X160091452Y-94154214D01*
X159900976Y-94106595D01*
X159805738Y-94058976D01*
X159710500Y-93963738D01*
X159662880Y-93820880D01*
X159662880Y-93725642D01*
X159710500Y-93582785D01*
X159758119Y-93535166D01*
X160662880Y-93106595D02*
X159662880Y-93106595D01*
X160662880Y-92678023D02*
X160139071Y-92678023D01*
X160043833Y-92725642D01*
X159996214Y-92820880D01*
X159996214Y-92963738D01*
X160043833Y-93058976D01*
X160091452Y-93106595D01*
X160662880Y-91773261D02*
X160139071Y-91773261D01*
X160043833Y-91820880D01*
X159996214Y-91916119D01*
X159996214Y-92106595D01*
X160043833Y-92201833D01*
X160615261Y-91773261D02*
X160662880Y-91868500D01*
X160662880Y-92106595D01*
X160615261Y-92201833D01*
X160520023Y-92249452D01*
X160424785Y-92249452D01*
X160329547Y-92201833D01*
X160281928Y-92106595D01*
X160281928Y-91868500D01*
X160234309Y-91773261D01*
X159996214Y-91297071D02*
X160662880Y-91297071D01*
X160091452Y-91297071D02*
X160043833Y-91249452D01*
X159996214Y-91154214D01*
X159996214Y-91011357D01*
X160043833Y-90916119D01*
X160139071Y-90868500D01*
X160662880Y-90868500D01*
X159996214Y-90392309D02*
X160662880Y-90392309D01*
X160091452Y-90392309D02*
X160043833Y-90344690D01*
X159996214Y-90249452D01*
X159996214Y-90106595D01*
X160043833Y-90011357D01*
X160139071Y-89963738D01*
X160662880Y-89963738D01*
X160615261Y-89106595D02*
X160662880Y-89201833D01*
X160662880Y-89392309D01*
X160615261Y-89487547D01*
X160520023Y-89535166D01*
X160139071Y-89535166D01*
X160043833Y-89487547D01*
X159996214Y-89392309D01*
X159996214Y-89201833D01*
X160043833Y-89106595D01*
X160139071Y-89058976D01*
X160234309Y-89058976D01*
X160329547Y-89535166D01*
X160662880Y-88487547D02*
X160615261Y-88582785D01*
X160520023Y-88630404D01*
X159662880Y-88630404D01*
X159758119Y-88154214D02*
X159710500Y-88106595D01*
X159662880Y-88011357D01*
X159662880Y-87773261D01*
X159710500Y-87678023D01*
X159758119Y-87630404D01*
X159853357Y-87582785D01*
X159948595Y-87582785D01*
X160091452Y-87630404D01*
X160662880Y-88201833D01*
X160662880Y-87582785D01*
X110275642Y-93281166D02*
X110323261Y-93328785D01*
X110370880Y-93471642D01*
X110370880Y-93566880D01*
X110323261Y-93709738D01*
X110228023Y-93804976D01*
X110132785Y-93852595D01*
X109942309Y-93900214D01*
X109799452Y-93900214D01*
X109608976Y-93852595D01*
X109513738Y-93804976D01*
X109418500Y-93709738D01*
X109370880Y-93566880D01*
X109370880Y-93471642D01*
X109418500Y-93328785D01*
X109466119Y-93281166D01*
X110370880Y-92852595D02*
X109370880Y-92852595D01*
X110370880Y-92424023D02*
X109847071Y-92424023D01*
X109751833Y-92471642D01*
X109704214Y-92566880D01*
X109704214Y-92709738D01*
X109751833Y-92804976D01*
X109799452Y-92852595D01*
X110370880Y-91519261D02*
X109847071Y-91519261D01*
X109751833Y-91566880D01*
X109704214Y-91662119D01*
X109704214Y-91852595D01*
X109751833Y-91947833D01*
X110323261Y-91519261D02*
X110370880Y-91614500D01*
X110370880Y-91852595D01*
X110323261Y-91947833D01*
X110228023Y-91995452D01*
X110132785Y-91995452D01*
X110037547Y-91947833D01*
X109989928Y-91852595D01*
X109989928Y-91614500D01*
X109942309Y-91519261D01*
X109704214Y-91043071D02*
X110370880Y-91043071D01*
X109799452Y-91043071D02*
X109751833Y-90995452D01*
X109704214Y-90900214D01*
X109704214Y-90757357D01*
X109751833Y-90662119D01*
X109847071Y-90614500D01*
X110370880Y-90614500D01*
X109704214Y-90138309D02*
X110370880Y-90138309D01*
X109799452Y-90138309D02*
X109751833Y-90090690D01*
X109704214Y-89995452D01*
X109704214Y-89852595D01*
X109751833Y-89757357D01*
X109847071Y-89709738D01*
X110370880Y-89709738D01*
X110323261Y-88852595D02*
X110370880Y-88947833D01*
X110370880Y-89138309D01*
X110323261Y-89233547D01*
X110228023Y-89281166D01*
X109847071Y-89281166D01*
X109751833Y-89233547D01*
X109704214Y-89138309D01*
X109704214Y-88947833D01*
X109751833Y-88852595D01*
X109847071Y-88804976D01*
X109942309Y-88804976D01*
X110037547Y-89281166D01*
X110370880Y-88233547D02*
X110323261Y-88328785D01*
X110228023Y-88376404D01*
X109370880Y-88376404D01*
X110370880Y-87328785D02*
X110370880Y-87900214D01*
X110370880Y-87614500D02*
X109370880Y-87614500D01*
X109513738Y-87709738D01*
X109608976Y-87804976D01*
X109656595Y-87900214D01*
X203352733Y-199162942D02*
X203305114Y-199210561D01*
X203162257Y-199258180D01*
X203067019Y-199258180D01*
X202924161Y-199210561D01*
X202828923Y-199115323D01*
X202781304Y-199020085D01*
X202733685Y-198829609D01*
X202733685Y-198686752D01*
X202781304Y-198496276D01*
X202828923Y-198401038D01*
X202924161Y-198305800D01*
X203067019Y-198258180D01*
X203162257Y-198258180D01*
X203305114Y-198305800D01*
X203352733Y-198353419D01*
X203781304Y-199258180D02*
X203781304Y-198258180D01*
X204209876Y-199258180D02*
X204209876Y-198734371D01*
X204162257Y-198639133D01*
X204067019Y-198591514D01*
X203924161Y-198591514D01*
X203828923Y-198639133D01*
X203781304Y-198686752D01*
X205114638Y-199258180D02*
X205114638Y-198734371D01*
X205067019Y-198639133D01*
X204971780Y-198591514D01*
X204781304Y-198591514D01*
X204686066Y-198639133D01*
X205114638Y-199210561D02*
X205019400Y-199258180D01*
X204781304Y-199258180D01*
X204686066Y-199210561D01*
X204638447Y-199115323D01*
X204638447Y-199020085D01*
X204686066Y-198924847D01*
X204781304Y-198877228D01*
X205019400Y-198877228D01*
X205114638Y-198829609D01*
X205590828Y-198591514D02*
X205590828Y-199258180D01*
X205590828Y-198686752D02*
X205638447Y-198639133D01*
X205733685Y-198591514D01*
X205876542Y-198591514D01*
X205971780Y-198639133D01*
X206019400Y-198734371D01*
X206019400Y-199258180D01*
X206495590Y-198591514D02*
X206495590Y-199258180D01*
X206495590Y-198686752D02*
X206543209Y-198639133D01*
X206638447Y-198591514D01*
X206781304Y-198591514D01*
X206876542Y-198639133D01*
X206924161Y-198734371D01*
X206924161Y-199258180D01*
X207781304Y-199210561D02*
X207686066Y-199258180D01*
X207495590Y-199258180D01*
X207400352Y-199210561D01*
X207352733Y-199115323D01*
X207352733Y-198734371D01*
X207400352Y-198639133D01*
X207495590Y-198591514D01*
X207686066Y-198591514D01*
X207781304Y-198639133D01*
X207828923Y-198734371D01*
X207828923Y-198829609D01*
X207352733Y-198924847D01*
X208400352Y-199258180D02*
X208305114Y-199210561D01*
X208257495Y-199115323D01*
X208257495Y-198258180D01*
X209209876Y-198258180D02*
X209019400Y-198258180D01*
X208924161Y-198305800D01*
X208876542Y-198353419D01*
X208781304Y-198496276D01*
X208733685Y-198686752D01*
X208733685Y-199067704D01*
X208781304Y-199162942D01*
X208828923Y-199210561D01*
X208924161Y-199258180D01*
X209114638Y-199258180D01*
X209209876Y-199210561D01*
X209257495Y-199162942D01*
X209305114Y-199067704D01*
X209305114Y-198829609D01*
X209257495Y-198734371D01*
X209209876Y-198686752D01*
X209114638Y-198639133D01*
X208924161Y-198639133D01*
X208828923Y-198686752D01*
X208781304Y-198734371D01*
X208733685Y-198829609D01*
X187096733Y-199416942D02*
X187049114Y-199464561D01*
X186906257Y-199512180D01*
X186811019Y-199512180D01*
X186668161Y-199464561D01*
X186572923Y-199369323D01*
X186525304Y-199274085D01*
X186477685Y-199083609D01*
X186477685Y-198940752D01*
X186525304Y-198750276D01*
X186572923Y-198655038D01*
X186668161Y-198559800D01*
X186811019Y-198512180D01*
X186906257Y-198512180D01*
X187049114Y-198559800D01*
X187096733Y-198607419D01*
X187525304Y-199512180D02*
X187525304Y-198512180D01*
X187953876Y-199512180D02*
X187953876Y-198988371D01*
X187906257Y-198893133D01*
X187811019Y-198845514D01*
X187668161Y-198845514D01*
X187572923Y-198893133D01*
X187525304Y-198940752D01*
X188858638Y-199512180D02*
X188858638Y-198988371D01*
X188811019Y-198893133D01*
X188715780Y-198845514D01*
X188525304Y-198845514D01*
X188430066Y-198893133D01*
X188858638Y-199464561D02*
X188763400Y-199512180D01*
X188525304Y-199512180D01*
X188430066Y-199464561D01*
X188382447Y-199369323D01*
X188382447Y-199274085D01*
X188430066Y-199178847D01*
X188525304Y-199131228D01*
X188763400Y-199131228D01*
X188858638Y-199083609D01*
X189334828Y-198845514D02*
X189334828Y-199512180D01*
X189334828Y-198940752D02*
X189382447Y-198893133D01*
X189477685Y-198845514D01*
X189620542Y-198845514D01*
X189715780Y-198893133D01*
X189763400Y-198988371D01*
X189763400Y-199512180D01*
X190239590Y-198845514D02*
X190239590Y-199512180D01*
X190239590Y-198940752D02*
X190287209Y-198893133D01*
X190382447Y-198845514D01*
X190525304Y-198845514D01*
X190620542Y-198893133D01*
X190668161Y-198988371D01*
X190668161Y-199512180D01*
X191525304Y-199464561D02*
X191430066Y-199512180D01*
X191239590Y-199512180D01*
X191144352Y-199464561D01*
X191096733Y-199369323D01*
X191096733Y-198988371D01*
X191144352Y-198893133D01*
X191239590Y-198845514D01*
X191430066Y-198845514D01*
X191525304Y-198893133D01*
X191572923Y-198988371D01*
X191572923Y-199083609D01*
X191096733Y-199178847D01*
X192144352Y-199512180D02*
X192049114Y-199464561D01*
X192001495Y-199369323D01*
X192001495Y-198512180D01*
X193001495Y-198512180D02*
X192525304Y-198512180D01*
X192477685Y-198988371D01*
X192525304Y-198940752D01*
X192620542Y-198893133D01*
X192858638Y-198893133D01*
X192953876Y-198940752D01*
X193001495Y-198988371D01*
X193049114Y-199083609D01*
X193049114Y-199321704D01*
X193001495Y-199416942D01*
X192953876Y-199464561D01*
X192858638Y-199512180D01*
X192620542Y-199512180D01*
X192525304Y-199464561D01*
X192477685Y-199416942D01*
X170840733Y-199416942D02*
X170793114Y-199464561D01*
X170650257Y-199512180D01*
X170555019Y-199512180D01*
X170412161Y-199464561D01*
X170316923Y-199369323D01*
X170269304Y-199274085D01*
X170221685Y-199083609D01*
X170221685Y-198940752D01*
X170269304Y-198750276D01*
X170316923Y-198655038D01*
X170412161Y-198559800D01*
X170555019Y-198512180D01*
X170650257Y-198512180D01*
X170793114Y-198559800D01*
X170840733Y-198607419D01*
X171269304Y-199512180D02*
X171269304Y-198512180D01*
X171697876Y-199512180D02*
X171697876Y-198988371D01*
X171650257Y-198893133D01*
X171555019Y-198845514D01*
X171412161Y-198845514D01*
X171316923Y-198893133D01*
X171269304Y-198940752D01*
X172602638Y-199512180D02*
X172602638Y-198988371D01*
X172555019Y-198893133D01*
X172459780Y-198845514D01*
X172269304Y-198845514D01*
X172174066Y-198893133D01*
X172602638Y-199464561D02*
X172507400Y-199512180D01*
X172269304Y-199512180D01*
X172174066Y-199464561D01*
X172126447Y-199369323D01*
X172126447Y-199274085D01*
X172174066Y-199178847D01*
X172269304Y-199131228D01*
X172507400Y-199131228D01*
X172602638Y-199083609D01*
X173078828Y-198845514D02*
X173078828Y-199512180D01*
X173078828Y-198940752D02*
X173126447Y-198893133D01*
X173221685Y-198845514D01*
X173364542Y-198845514D01*
X173459780Y-198893133D01*
X173507400Y-198988371D01*
X173507400Y-199512180D01*
X173983590Y-198845514D02*
X173983590Y-199512180D01*
X173983590Y-198940752D02*
X174031209Y-198893133D01*
X174126447Y-198845514D01*
X174269304Y-198845514D01*
X174364542Y-198893133D01*
X174412161Y-198988371D01*
X174412161Y-199512180D01*
X175269304Y-199464561D02*
X175174066Y-199512180D01*
X174983590Y-199512180D01*
X174888352Y-199464561D01*
X174840733Y-199369323D01*
X174840733Y-198988371D01*
X174888352Y-198893133D01*
X174983590Y-198845514D01*
X175174066Y-198845514D01*
X175269304Y-198893133D01*
X175316923Y-198988371D01*
X175316923Y-199083609D01*
X174840733Y-199178847D01*
X175888352Y-199512180D02*
X175793114Y-199464561D01*
X175745495Y-199369323D01*
X175745495Y-198512180D01*
X176697876Y-198845514D02*
X176697876Y-199512180D01*
X176459780Y-198464561D02*
X176221685Y-199178847D01*
X176840733Y-199178847D01*
X226314333Y-199112142D02*
X226266714Y-199159761D01*
X226123857Y-199207380D01*
X226028619Y-199207380D01*
X225885761Y-199159761D01*
X225790523Y-199064523D01*
X225742904Y-198969285D01*
X225695285Y-198778809D01*
X225695285Y-198635952D01*
X225742904Y-198445476D01*
X225790523Y-198350238D01*
X225885761Y-198255000D01*
X226028619Y-198207380D01*
X226123857Y-198207380D01*
X226266714Y-198255000D01*
X226314333Y-198302619D01*
X226742904Y-199207380D02*
X226742904Y-198207380D01*
X227171476Y-199207380D02*
X227171476Y-198683571D01*
X227123857Y-198588333D01*
X227028619Y-198540714D01*
X226885761Y-198540714D01*
X226790523Y-198588333D01*
X226742904Y-198635952D01*
X228076238Y-199207380D02*
X228076238Y-198683571D01*
X228028619Y-198588333D01*
X227933380Y-198540714D01*
X227742904Y-198540714D01*
X227647666Y-198588333D01*
X228076238Y-199159761D02*
X227981000Y-199207380D01*
X227742904Y-199207380D01*
X227647666Y-199159761D01*
X227600047Y-199064523D01*
X227600047Y-198969285D01*
X227647666Y-198874047D01*
X227742904Y-198826428D01*
X227981000Y-198826428D01*
X228076238Y-198778809D01*
X228552428Y-198540714D02*
X228552428Y-199207380D01*
X228552428Y-198635952D02*
X228600047Y-198588333D01*
X228695285Y-198540714D01*
X228838142Y-198540714D01*
X228933380Y-198588333D01*
X228981000Y-198683571D01*
X228981000Y-199207380D01*
X229457190Y-198540714D02*
X229457190Y-199207380D01*
X229457190Y-198635952D02*
X229504809Y-198588333D01*
X229600047Y-198540714D01*
X229742904Y-198540714D01*
X229838142Y-198588333D01*
X229885761Y-198683571D01*
X229885761Y-199207380D01*
X230742904Y-199159761D02*
X230647666Y-199207380D01*
X230457190Y-199207380D01*
X230361952Y-199159761D01*
X230314333Y-199064523D01*
X230314333Y-198683571D01*
X230361952Y-198588333D01*
X230457190Y-198540714D01*
X230647666Y-198540714D01*
X230742904Y-198588333D01*
X230790523Y-198683571D01*
X230790523Y-198778809D01*
X230314333Y-198874047D01*
X231361952Y-199207380D02*
X231266714Y-199159761D01*
X231219095Y-199064523D01*
X231219095Y-198207380D01*
X231933380Y-198207380D02*
X232028619Y-198207380D01*
X232123857Y-198255000D01*
X232171476Y-198302619D01*
X232219095Y-198397857D01*
X232266714Y-198588333D01*
X232266714Y-198826428D01*
X232219095Y-199016904D01*
X232171476Y-199112142D01*
X232123857Y-199159761D01*
X232028619Y-199207380D01*
X231933380Y-199207380D01*
X231838142Y-199159761D01*
X231790523Y-199112142D01*
X231742904Y-199016904D01*
X231695285Y-198826428D01*
X231695285Y-198588333D01*
X231742904Y-198397857D01*
X231790523Y-198302619D01*
X231838142Y-198255000D01*
X231933380Y-198207380D01*
X145067685Y-198972466D02*
X145543876Y-198972466D01*
X144972447Y-199258180D02*
X145305780Y-198258180D01*
X145639114Y-199258180D01*
X145972447Y-198591514D02*
X145972447Y-199258180D01*
X145972447Y-198686752D02*
X146020066Y-198639133D01*
X146115304Y-198591514D01*
X146258161Y-198591514D01*
X146353400Y-198639133D01*
X146401019Y-198734371D01*
X146401019Y-199258180D01*
X147305780Y-199258180D02*
X147305780Y-198734371D01*
X147258161Y-198639133D01*
X147162923Y-198591514D01*
X146972447Y-198591514D01*
X146877209Y-198639133D01*
X147305780Y-199210561D02*
X147210542Y-199258180D01*
X146972447Y-199258180D01*
X146877209Y-199210561D01*
X146829590Y-199115323D01*
X146829590Y-199020085D01*
X146877209Y-198924847D01*
X146972447Y-198877228D01*
X147210542Y-198877228D01*
X147305780Y-198829609D01*
X147924828Y-199258180D02*
X147829590Y-199210561D01*
X147781971Y-199115323D01*
X147781971Y-198258180D01*
X148448638Y-199258180D02*
X148353400Y-199210561D01*
X148305780Y-199162942D01*
X148258161Y-199067704D01*
X148258161Y-198781990D01*
X148305780Y-198686752D01*
X148353400Y-198639133D01*
X148448638Y-198591514D01*
X148591495Y-198591514D01*
X148686733Y-198639133D01*
X148734352Y-198686752D01*
X148781971Y-198781990D01*
X148781971Y-199067704D01*
X148734352Y-199162942D01*
X148686733Y-199210561D01*
X148591495Y-199258180D01*
X148448638Y-199258180D01*
X149639114Y-198591514D02*
X149639114Y-199401038D01*
X149591495Y-199496276D01*
X149543876Y-199543895D01*
X149448638Y-199591514D01*
X149305780Y-199591514D01*
X149210542Y-199543895D01*
X149639114Y-199210561D02*
X149543876Y-199258180D01*
X149353400Y-199258180D01*
X149258161Y-199210561D01*
X149210542Y-199162942D01*
X149162923Y-199067704D01*
X149162923Y-198781990D01*
X149210542Y-198686752D01*
X149258161Y-198639133D01*
X149353400Y-198591514D01*
X149543876Y-198591514D01*
X149639114Y-198639133D01*
X150639114Y-199258180D02*
X150067685Y-199258180D01*
X150353400Y-199258180D02*
X150353400Y-198258180D01*
X150258161Y-198401038D01*
X150162923Y-198496276D01*
X150067685Y-198543895D01*
X128811685Y-198972466D02*
X129287876Y-198972466D01*
X128716447Y-199258180D02*
X129049780Y-198258180D01*
X129383114Y-199258180D01*
X129716447Y-198591514D02*
X129716447Y-199258180D01*
X129716447Y-198686752D02*
X129764066Y-198639133D01*
X129859304Y-198591514D01*
X130002161Y-198591514D01*
X130097400Y-198639133D01*
X130145019Y-198734371D01*
X130145019Y-199258180D01*
X131049780Y-199258180D02*
X131049780Y-198734371D01*
X131002161Y-198639133D01*
X130906923Y-198591514D01*
X130716447Y-198591514D01*
X130621209Y-198639133D01*
X131049780Y-199210561D02*
X130954542Y-199258180D01*
X130716447Y-199258180D01*
X130621209Y-199210561D01*
X130573590Y-199115323D01*
X130573590Y-199020085D01*
X130621209Y-198924847D01*
X130716447Y-198877228D01*
X130954542Y-198877228D01*
X131049780Y-198829609D01*
X131668828Y-199258180D02*
X131573590Y-199210561D01*
X131525971Y-199115323D01*
X131525971Y-198258180D01*
X132192638Y-199258180D02*
X132097400Y-199210561D01*
X132049780Y-199162942D01*
X132002161Y-199067704D01*
X132002161Y-198781990D01*
X132049780Y-198686752D01*
X132097400Y-198639133D01*
X132192638Y-198591514D01*
X132335495Y-198591514D01*
X132430733Y-198639133D01*
X132478352Y-198686752D01*
X132525971Y-198781990D01*
X132525971Y-199067704D01*
X132478352Y-199162942D01*
X132430733Y-199210561D01*
X132335495Y-199258180D01*
X132192638Y-199258180D01*
X133383114Y-198591514D02*
X133383114Y-199401038D01*
X133335495Y-199496276D01*
X133287876Y-199543895D01*
X133192638Y-199591514D01*
X133049780Y-199591514D01*
X132954542Y-199543895D01*
X133383114Y-199210561D02*
X133287876Y-199258180D01*
X133097400Y-199258180D01*
X133002161Y-199210561D01*
X132954542Y-199162942D01*
X132906923Y-199067704D01*
X132906923Y-198781990D01*
X132954542Y-198686752D01*
X133002161Y-198639133D01*
X133097400Y-198591514D01*
X133287876Y-198591514D01*
X133383114Y-198639133D01*
X134049780Y-198258180D02*
X134145019Y-198258180D01*
X134240257Y-198305800D01*
X134287876Y-198353419D01*
X134335495Y-198448657D01*
X134383114Y-198639133D01*
X134383114Y-198877228D01*
X134335495Y-199067704D01*
X134287876Y-199162942D01*
X134240257Y-199210561D01*
X134145019Y-199258180D01*
X134049780Y-199258180D01*
X133954542Y-199210561D01*
X133906923Y-199162942D01*
X133859304Y-199067704D01*
X133811685Y-198877228D01*
X133811685Y-198639133D01*
X133859304Y-198448657D01*
X133906923Y-198353419D01*
X133954542Y-198305800D01*
X134049780Y-198258180D01*
X84204490Y-198270880D02*
X84394966Y-198270880D01*
X84490204Y-198318500D01*
X84585442Y-198413738D01*
X84633061Y-198604214D01*
X84633061Y-198937547D01*
X84585442Y-199128023D01*
X84490204Y-199223261D01*
X84394966Y-199270880D01*
X84204490Y-199270880D01*
X84109252Y-199223261D01*
X84014014Y-199128023D01*
X83966395Y-198937547D01*
X83966395Y-198604214D01*
X84014014Y-198413738D01*
X84109252Y-198318500D01*
X84204490Y-198270880D01*
X85061633Y-198604214D02*
X85061633Y-199270880D01*
X85061633Y-198699452D02*
X85109252Y-198651833D01*
X85204490Y-198604214D01*
X85347347Y-198604214D01*
X85442585Y-198651833D01*
X85490204Y-198747071D01*
X85490204Y-199270880D01*
X86347347Y-199223261D02*
X86252109Y-199270880D01*
X86061633Y-199270880D01*
X85966395Y-199223261D01*
X85918776Y-199128023D01*
X85918776Y-198747071D01*
X85966395Y-198651833D01*
X86061633Y-198604214D01*
X86252109Y-198604214D01*
X86347347Y-198651833D01*
X86394966Y-198747071D01*
X86394966Y-198842309D01*
X85918776Y-198937547D01*
X86728300Y-198270880D02*
X86966395Y-199270880D01*
X87156871Y-198556595D01*
X87347347Y-199270880D01*
X87585442Y-198270880D01*
X87966395Y-199270880D02*
X87966395Y-198604214D01*
X87966395Y-198270880D02*
X87918776Y-198318500D01*
X87966395Y-198366119D01*
X88014014Y-198318500D01*
X87966395Y-198270880D01*
X87966395Y-198366119D01*
X88442585Y-199270880D02*
X88442585Y-198604214D01*
X88442585Y-198794690D02*
X88490204Y-198699452D01*
X88537823Y-198651833D01*
X88633061Y-198604214D01*
X88728300Y-198604214D01*
X89442585Y-199223261D02*
X89347347Y-199270880D01*
X89156871Y-199270880D01*
X89061633Y-199223261D01*
X89014014Y-199128023D01*
X89014014Y-198747071D01*
X89061633Y-198651833D01*
X89156871Y-198604214D01*
X89347347Y-198604214D01*
X89442585Y-198651833D01*
X89490204Y-198747071D01*
X89490204Y-198842309D01*
X89014014Y-198937547D01*
X54094623Y-48326042D02*
X54047004Y-48373661D01*
X53904147Y-48421280D01*
X53808909Y-48421280D01*
X53666052Y-48373661D01*
X53570814Y-48278423D01*
X53523195Y-48183185D01*
X53475576Y-47992709D01*
X53475576Y-47849852D01*
X53523195Y-47659376D01*
X53570814Y-47564138D01*
X53666052Y-47468900D01*
X53808909Y-47421280D01*
X53904147Y-47421280D01*
X54047004Y-47468900D01*
X54094623Y-47516519D01*
X54523195Y-48421280D02*
X54523195Y-47754614D01*
X54523195Y-47945090D02*
X54570814Y-47849852D01*
X54618433Y-47802233D01*
X54713671Y-47754614D01*
X54808909Y-47754614D01*
X55285100Y-48421280D02*
X55189861Y-48373661D01*
X55142242Y-48326042D01*
X55094623Y-48230804D01*
X55094623Y-47945090D01*
X55142242Y-47849852D01*
X55189861Y-47802233D01*
X55285100Y-47754614D01*
X55427957Y-47754614D01*
X55523195Y-47802233D01*
X55570814Y-47849852D01*
X55618433Y-47945090D01*
X55618433Y-48230804D01*
X55570814Y-48326042D01*
X55523195Y-48373661D01*
X55427957Y-48421280D01*
X55285100Y-48421280D01*
X56047004Y-47754614D02*
X56047004Y-48754614D01*
X56047004Y-47802233D02*
X56142242Y-47754614D01*
X56332719Y-47754614D01*
X56427957Y-47802233D01*
X56475576Y-47849852D01*
X56523195Y-47945090D01*
X56523195Y-48230804D01*
X56475576Y-48326042D01*
X56427957Y-48373661D01*
X56332719Y-48421280D01*
X56142242Y-48421280D01*
X56047004Y-48373661D01*
X56951766Y-48421280D02*
X56951766Y-47421280D01*
X57189861Y-47421280D01*
X57332719Y-47468900D01*
X57427957Y-47564138D01*
X57475576Y-47659376D01*
X57523195Y-47849852D01*
X57523195Y-47992709D01*
X57475576Y-48183185D01*
X57427957Y-48278423D01*
X57332719Y-48373661D01*
X57189861Y-48421280D01*
X56951766Y-48421280D01*
X57951766Y-48421280D02*
X57951766Y-47754614D01*
X57951766Y-47945090D02*
X57999385Y-47849852D01*
X58047004Y-47802233D01*
X58142242Y-47754614D01*
X58237480Y-47754614D01*
X58713671Y-48421280D02*
X58618433Y-48373661D01*
X58570814Y-48326042D01*
X58523195Y-48230804D01*
X58523195Y-47945090D01*
X58570814Y-47849852D01*
X58618433Y-47802233D01*
X58713671Y-47754614D01*
X58856528Y-47754614D01*
X58951766Y-47802233D01*
X58999385Y-47849852D01*
X59047004Y-47945090D01*
X59047004Y-48230804D01*
X58999385Y-48326042D01*
X58951766Y-48373661D01*
X58856528Y-48421280D01*
X58713671Y-48421280D01*
X59475576Y-48421280D02*
X59475576Y-47754614D01*
X59475576Y-47421280D02*
X59427957Y-47468900D01*
X59475576Y-47516519D01*
X59523195Y-47468900D01*
X59475576Y-47421280D01*
X59475576Y-47516519D01*
X60380338Y-48421280D02*
X60380338Y-47421280D01*
X60380338Y-48373661D02*
X60285100Y-48421280D01*
X60094623Y-48421280D01*
X59999385Y-48373661D01*
X59951766Y-48326042D01*
X59904147Y-48230804D01*
X59904147Y-47945090D01*
X59951766Y-47849852D01*
X59999385Y-47802233D01*
X60094623Y-47754614D01*
X60285100Y-47754614D01*
X60380338Y-47802233D01*
X62189861Y-48421280D02*
X61856528Y-47945090D01*
X61618433Y-48421280D02*
X61618433Y-47421280D01*
X61999385Y-47421280D01*
X62094623Y-47468900D01*
X62142242Y-47516519D01*
X62189861Y-47611757D01*
X62189861Y-47754614D01*
X62142242Y-47849852D01*
X62094623Y-47897471D01*
X61999385Y-47945090D01*
X61618433Y-47945090D01*
X62999385Y-48373661D02*
X62904147Y-48421280D01*
X62713671Y-48421280D01*
X62618433Y-48373661D01*
X62570814Y-48278423D01*
X62570814Y-47897471D01*
X62618433Y-47802233D01*
X62713671Y-47754614D01*
X62904147Y-47754614D01*
X62999385Y-47802233D01*
X63047004Y-47897471D01*
X63047004Y-47992709D01*
X62570814Y-48087947D01*
X63427957Y-48373661D02*
X63523195Y-48421280D01*
X63713671Y-48421280D01*
X63808909Y-48373661D01*
X63856528Y-48278423D01*
X63856528Y-48230804D01*
X63808909Y-48135566D01*
X63713671Y-48087947D01*
X63570814Y-48087947D01*
X63475576Y-48040328D01*
X63427957Y-47945090D01*
X63427957Y-47897471D01*
X63475576Y-47802233D01*
X63570814Y-47754614D01*
X63713671Y-47754614D01*
X63808909Y-47802233D01*
X64666052Y-48373661D02*
X64570814Y-48421280D01*
X64380338Y-48421280D01*
X64285100Y-48373661D01*
X64237480Y-48278423D01*
X64237480Y-47897471D01*
X64285100Y-47802233D01*
X64380338Y-47754614D01*
X64570814Y-47754614D01*
X64666052Y-47802233D01*
X64713671Y-47897471D01*
X64713671Y-47992709D01*
X64237480Y-48087947D01*
X65142242Y-48421280D02*
X65142242Y-47754614D01*
X65142242Y-47945090D02*
X65189861Y-47849852D01*
X65237480Y-47802233D01*
X65332719Y-47754614D01*
X65427957Y-47754614D01*
X65666052Y-47754614D02*
X65904147Y-48421280D01*
X66142242Y-47754614D01*
X66666052Y-48421280D02*
X66570814Y-48373661D01*
X66523195Y-48326042D01*
X66475576Y-48230804D01*
X66475576Y-47945090D01*
X66523195Y-47849852D01*
X66570814Y-47802233D01*
X66666052Y-47754614D01*
X66808909Y-47754614D01*
X66904147Y-47802233D01*
X66951766Y-47849852D01*
X66999385Y-47945090D01*
X66999385Y-48230804D01*
X66951766Y-48326042D01*
X66904147Y-48373661D01*
X66808909Y-48421280D01*
X66666052Y-48421280D01*
X67427957Y-48421280D02*
X67427957Y-47754614D01*
X67427957Y-47421280D02*
X67380338Y-47468900D01*
X67427957Y-47516519D01*
X67475576Y-47468900D01*
X67427957Y-47421280D01*
X67427957Y-47516519D01*
X67904147Y-48421280D02*
X67904147Y-47754614D01*
X67904147Y-47945090D02*
X67951766Y-47849852D01*
X67999385Y-47802233D01*
X68094623Y-47754614D01*
X68189861Y-47754614D01*
X69856528Y-48326042D02*
X69808909Y-48373661D01*
X69666052Y-48421280D01*
X69570814Y-48421280D01*
X69427957Y-48373661D01*
X69332719Y-48278423D01*
X69285100Y-48183185D01*
X69237480Y-47992709D01*
X69237480Y-47849852D01*
X69285100Y-47659376D01*
X69332719Y-47564138D01*
X69427957Y-47468900D01*
X69570814Y-47421280D01*
X69666052Y-47421280D01*
X69808909Y-47468900D01*
X69856528Y-47516519D01*
X70427957Y-48421280D02*
X70332719Y-48373661D01*
X70285100Y-48326042D01*
X70237480Y-48230804D01*
X70237480Y-47945090D01*
X70285100Y-47849852D01*
X70332719Y-47802233D01*
X70427957Y-47754614D01*
X70570814Y-47754614D01*
X70666052Y-47802233D01*
X70713671Y-47849852D01*
X70761290Y-47945090D01*
X70761290Y-48230804D01*
X70713671Y-48326042D01*
X70666052Y-48373661D01*
X70570814Y-48421280D01*
X70427957Y-48421280D01*
X71189861Y-47754614D02*
X71189861Y-48421280D01*
X71189861Y-47849852D02*
X71237480Y-47802233D01*
X71332719Y-47754614D01*
X71475576Y-47754614D01*
X71570814Y-47802233D01*
X71618433Y-47897471D01*
X71618433Y-48421280D01*
X71951766Y-47754614D02*
X72332719Y-47754614D01*
X72094623Y-47421280D02*
X72094623Y-48278423D01*
X72142242Y-48373661D01*
X72237480Y-48421280D01*
X72332719Y-48421280D01*
X72666052Y-48421280D02*
X72666052Y-47754614D01*
X72666052Y-47945090D02*
X72713671Y-47849852D01*
X72761290Y-47802233D01*
X72856528Y-47754614D01*
X72951766Y-47754614D01*
X73427957Y-48421280D02*
X73332719Y-48373661D01*
X73285100Y-48326042D01*
X73237480Y-48230804D01*
X73237480Y-47945090D01*
X73285100Y-47849852D01*
X73332719Y-47802233D01*
X73427957Y-47754614D01*
X73570814Y-47754614D01*
X73666052Y-47802233D01*
X73713671Y-47849852D01*
X73761290Y-47945090D01*
X73761290Y-48230804D01*
X73713671Y-48326042D01*
X73666052Y-48373661D01*
X73570814Y-48421280D01*
X73427957Y-48421280D01*
X74332719Y-48421280D02*
X74237480Y-48373661D01*
X74189861Y-48278423D01*
X74189861Y-47421280D01*
X74856528Y-48421280D02*
X74761290Y-48373661D01*
X74713671Y-48278423D01*
X74713671Y-47421280D01*
X75618433Y-48373661D02*
X75523195Y-48421280D01*
X75332719Y-48421280D01*
X75237480Y-48373661D01*
X75189861Y-48278423D01*
X75189861Y-47897471D01*
X75237480Y-47802233D01*
X75332719Y-47754614D01*
X75523195Y-47754614D01*
X75618433Y-47802233D01*
X75666052Y-47897471D01*
X75666052Y-47992709D01*
X75189861Y-48087947D01*
X76094623Y-48421280D02*
X76094623Y-47754614D01*
X76094623Y-47945090D02*
X76142242Y-47849852D01*
X76189861Y-47802233D01*
X76285100Y-47754614D01*
X76380338Y-47754614D01*
X54094623Y-49976042D02*
X54047004Y-50023661D01*
X53904147Y-50071280D01*
X53808909Y-50071280D01*
X53666052Y-50023661D01*
X53570814Y-49928423D01*
X53523195Y-49833185D01*
X53475576Y-49642709D01*
X53475576Y-49499852D01*
X53523195Y-49309376D01*
X53570814Y-49214138D01*
X53666052Y-49118900D01*
X53808909Y-49071280D01*
X53904147Y-49071280D01*
X54047004Y-49118900D01*
X54094623Y-49166519D01*
X54666052Y-50071280D02*
X54570814Y-50023661D01*
X54523195Y-49976042D01*
X54475576Y-49880804D01*
X54475576Y-49595090D01*
X54523195Y-49499852D01*
X54570814Y-49452233D01*
X54666052Y-49404614D01*
X54808909Y-49404614D01*
X54904147Y-49452233D01*
X54951766Y-49499852D01*
X54999385Y-49595090D01*
X54999385Y-49880804D01*
X54951766Y-49976042D01*
X54904147Y-50023661D01*
X54808909Y-50071280D01*
X54666052Y-50071280D01*
X55427957Y-49404614D02*
X55427957Y-50404614D01*
X55427957Y-49452233D02*
X55523195Y-49404614D01*
X55713671Y-49404614D01*
X55808909Y-49452233D01*
X55856528Y-49499852D01*
X55904147Y-49595090D01*
X55904147Y-49880804D01*
X55856528Y-49976042D01*
X55808909Y-50023661D01*
X55713671Y-50071280D01*
X55523195Y-50071280D01*
X55427957Y-50023661D01*
X56237480Y-49404614D02*
X56475576Y-50071280D01*
X56713671Y-49404614D02*
X56475576Y-50071280D01*
X56380338Y-50309376D01*
X56332719Y-50356995D01*
X56237480Y-50404614D01*
X57666052Y-50071280D02*
X57332719Y-49595090D01*
X57094623Y-50071280D02*
X57094623Y-49071280D01*
X57475576Y-49071280D01*
X57570814Y-49118900D01*
X57618433Y-49166519D01*
X57666052Y-49261757D01*
X57666052Y-49404614D01*
X57618433Y-49499852D01*
X57570814Y-49547471D01*
X57475576Y-49595090D01*
X57094623Y-49595090D01*
X58094623Y-50071280D02*
X58094623Y-49404614D01*
X58094623Y-49071280D02*
X58047004Y-49118900D01*
X58094623Y-49166519D01*
X58142242Y-49118900D01*
X58094623Y-49071280D01*
X58094623Y-49166519D01*
X58999385Y-49404614D02*
X58999385Y-50214138D01*
X58951766Y-50309376D01*
X58904147Y-50356995D01*
X58808909Y-50404614D01*
X58666052Y-50404614D01*
X58570814Y-50356995D01*
X58999385Y-50023661D02*
X58904147Y-50071280D01*
X58713671Y-50071280D01*
X58618433Y-50023661D01*
X58570814Y-49976042D01*
X58523195Y-49880804D01*
X58523195Y-49595090D01*
X58570814Y-49499852D01*
X58618433Y-49452233D01*
X58713671Y-49404614D01*
X58904147Y-49404614D01*
X58999385Y-49452233D01*
X59475576Y-50071280D02*
X59475576Y-49071280D01*
X59904147Y-50071280D02*
X59904147Y-49547471D01*
X59856528Y-49452233D01*
X59761290Y-49404614D01*
X59618433Y-49404614D01*
X59523195Y-49452233D01*
X59475576Y-49499852D01*
X60237480Y-49404614D02*
X60618433Y-49404614D01*
X60380338Y-49071280D02*
X60380338Y-49928423D01*
X60427957Y-50023661D01*
X60523195Y-50071280D01*
X60618433Y-50071280D01*
X61999385Y-50452233D02*
X61951766Y-50404614D01*
X61856528Y-50261757D01*
X61808909Y-50166519D01*
X61761290Y-50023661D01*
X61713671Y-49785566D01*
X61713671Y-49595090D01*
X61761290Y-49356995D01*
X61808909Y-49214138D01*
X61856528Y-49118900D01*
X61951766Y-48976042D01*
X61999385Y-48928423D01*
X62808909Y-50023661D02*
X62713671Y-50071280D01*
X62523195Y-50071280D01*
X62427957Y-50023661D01*
X62380338Y-49976042D01*
X62332719Y-49880804D01*
X62332719Y-49595090D01*
X62380338Y-49499852D01*
X62427957Y-49452233D01*
X62523195Y-49404614D01*
X62713671Y-49404614D01*
X62808909Y-49452233D01*
X63142242Y-50452233D02*
X63189861Y-50404614D01*
X63285100Y-50261757D01*
X63332719Y-50166519D01*
X63380338Y-50023661D01*
X63427957Y-49785566D01*
X63427957Y-49595090D01*
X63380338Y-49356995D01*
X63332719Y-49214138D01*
X63285100Y-49118900D01*
X63189861Y-48976042D01*
X63142242Y-48928423D01*
X64618433Y-49785566D02*
X65094623Y-49785566D01*
X64523195Y-50071280D02*
X64856528Y-49071280D01*
X65189861Y-50071280D01*
X65951766Y-49404614D02*
X65951766Y-50071280D01*
X65523195Y-49404614D02*
X65523195Y-49928423D01*
X65570814Y-50023661D01*
X65666052Y-50071280D01*
X65808909Y-50071280D01*
X65904147Y-50023661D01*
X65951766Y-49976042D01*
X66285100Y-49404614D02*
X66666052Y-49404614D01*
X66427957Y-49071280D02*
X66427957Y-49928423D01*
X66475576Y-50023661D01*
X66570814Y-50071280D01*
X66666052Y-50071280D01*
X67142242Y-50071280D02*
X67047004Y-50023661D01*
X66999385Y-49976042D01*
X66951766Y-49880804D01*
X66951766Y-49595090D01*
X66999385Y-49499852D01*
X67047004Y-49452233D01*
X67142242Y-49404614D01*
X67285100Y-49404614D01*
X67380338Y-49452233D01*
X67427957Y-49499852D01*
X67475576Y-49595090D01*
X67475576Y-49880804D01*
X67427957Y-49976042D01*
X67380338Y-50023661D01*
X67285100Y-50071280D01*
X67142242Y-50071280D01*
X67904147Y-50071280D02*
X67904147Y-49404614D01*
X67904147Y-49499852D02*
X67951766Y-49452233D01*
X68047004Y-49404614D01*
X68189861Y-49404614D01*
X68285100Y-49452233D01*
X68332719Y-49547471D01*
X68332719Y-50071280D01*
X68332719Y-49547471D02*
X68380338Y-49452233D01*
X68475576Y-49404614D01*
X68618433Y-49404614D01*
X68713671Y-49452233D01*
X68761290Y-49547471D01*
X68761290Y-50071280D01*
X69666052Y-50071280D02*
X69666052Y-49547471D01*
X69618433Y-49452233D01*
X69523195Y-49404614D01*
X69332719Y-49404614D01*
X69237480Y-49452233D01*
X69666052Y-50023661D02*
X69570814Y-50071280D01*
X69332719Y-50071280D01*
X69237480Y-50023661D01*
X69189861Y-49928423D01*
X69189861Y-49833185D01*
X69237480Y-49737947D01*
X69332719Y-49690328D01*
X69570814Y-49690328D01*
X69666052Y-49642709D01*
X69999385Y-49404614D02*
X70380338Y-49404614D01*
X70142242Y-49071280D02*
X70142242Y-49928423D01*
X70189861Y-50023661D01*
X70285100Y-50071280D01*
X70380338Y-50071280D01*
X71094623Y-50023661D02*
X70999385Y-50071280D01*
X70808909Y-50071280D01*
X70713671Y-50023661D01*
X70666052Y-49928423D01*
X70666052Y-49547471D01*
X70713671Y-49452233D01*
X70808909Y-49404614D01*
X70999385Y-49404614D01*
X71094623Y-49452233D01*
X71142242Y-49547471D01*
X71142242Y-49642709D01*
X70666052Y-49737947D01*
X72189861Y-49071280D02*
X72761290Y-49071280D01*
X72475576Y-50071280D02*
X72475576Y-49071280D01*
X73094623Y-50071280D02*
X73094623Y-49071280D01*
X73523195Y-50071280D02*
X73523195Y-49547471D01*
X73475576Y-49452233D01*
X73380338Y-49404614D01*
X73237480Y-49404614D01*
X73142242Y-49452233D01*
X73094623Y-49499852D01*
X74380338Y-50023661D02*
X74285100Y-50071280D01*
X74094623Y-50071280D01*
X73999385Y-50023661D01*
X73951766Y-49928423D01*
X73951766Y-49547471D01*
X73999385Y-49452233D01*
X74094623Y-49404614D01*
X74285100Y-49404614D01*
X74380338Y-49452233D01*
X74427957Y-49547471D01*
X74427957Y-49642709D01*
X73951766Y-49737947D01*
X75475576Y-49071280D02*
X76047004Y-49071280D01*
X75761290Y-50071280D02*
X75761290Y-49071280D01*
X76380338Y-50071280D02*
X76380338Y-49071280D01*
X76808909Y-50071280D02*
X76808909Y-49547471D01*
X76761290Y-49452233D01*
X76666052Y-49404614D01*
X76523195Y-49404614D01*
X76427957Y-49452233D01*
X76380338Y-49499852D01*
X77285100Y-50071280D02*
X77285100Y-49404614D01*
X77285100Y-49071280D02*
X77237480Y-49118900D01*
X77285100Y-49166519D01*
X77332719Y-49118900D01*
X77285100Y-49071280D01*
X77285100Y-49166519D01*
X77761290Y-49404614D02*
X77761290Y-50071280D01*
X77761290Y-49499852D02*
X77808909Y-49452233D01*
X77904147Y-49404614D01*
X78047004Y-49404614D01*
X78142242Y-49452233D01*
X78189861Y-49547471D01*
X78189861Y-50071280D01*
X79094623Y-49404614D02*
X79094623Y-50214138D01*
X79047004Y-50309376D01*
X78999385Y-50356995D01*
X78904147Y-50404614D01*
X78761290Y-50404614D01*
X78666052Y-50356995D01*
X79094623Y-50023661D02*
X78999385Y-50071280D01*
X78808909Y-50071280D01*
X78713671Y-50023661D01*
X78666052Y-49976042D01*
X78618433Y-49880804D01*
X78618433Y-49595090D01*
X78666052Y-49499852D01*
X78713671Y-49452233D01*
X78808909Y-49404614D01*
X78999385Y-49404614D01*
X79094623Y-49452233D01*
X79523195Y-50023661D02*
X79618433Y-50071280D01*
X79808909Y-50071280D01*
X79904147Y-50023661D01*
X79951766Y-49928423D01*
X79951766Y-49880804D01*
X79904147Y-49785566D01*
X79808909Y-49737947D01*
X79666052Y-49737947D01*
X79570814Y-49690328D01*
X79523195Y-49595090D01*
X79523195Y-49547471D01*
X79570814Y-49452233D01*
X79666052Y-49404614D01*
X79808909Y-49404614D01*
X79904147Y-49452233D01*
X80427957Y-50023661D02*
X80427957Y-50071280D01*
X80380338Y-50166519D01*
X80332719Y-50214138D01*
X82094623Y-50071280D02*
X81618433Y-50071280D01*
X81618433Y-49071280D01*
X82904147Y-50071280D02*
X82427957Y-50071280D01*
X82427957Y-49071280D01*
X83808909Y-49976042D02*
X83761290Y-50023661D01*
X83618433Y-50071280D01*
X83523195Y-50071280D01*
X83380338Y-50023661D01*
X83285100Y-49928423D01*
X83237480Y-49833185D01*
X83189861Y-49642709D01*
X83189861Y-49499852D01*
X83237480Y-49309376D01*
X83285100Y-49214138D01*
X83380338Y-49118900D01*
X83523195Y-49071280D01*
X83618433Y-49071280D01*
X83761290Y-49118900D01*
X83808909Y-49166519D01*
X53523195Y-51721280D02*
X53523195Y-50721280D01*
X53904147Y-50721280D01*
X53999385Y-50768900D01*
X54047004Y-50816519D01*
X54094623Y-50911757D01*
X54094623Y-51054614D01*
X54047004Y-51149852D01*
X53999385Y-51197471D01*
X53904147Y-51245090D01*
X53523195Y-51245090D01*
X54523195Y-51721280D02*
X54523195Y-51054614D01*
X54523195Y-51245090D02*
X54570814Y-51149852D01*
X54618433Y-51102233D01*
X54713671Y-51054614D01*
X54808909Y-51054614D01*
X55285100Y-51721280D02*
X55189861Y-51673661D01*
X55142242Y-51626042D01*
X55094623Y-51530804D01*
X55094623Y-51245090D01*
X55142242Y-51149852D01*
X55189861Y-51102233D01*
X55285100Y-51054614D01*
X55427957Y-51054614D01*
X55523195Y-51102233D01*
X55570814Y-51149852D01*
X55618433Y-51245090D01*
X55618433Y-51530804D01*
X55570814Y-51626042D01*
X55523195Y-51673661D01*
X55427957Y-51721280D01*
X55285100Y-51721280D01*
X55904147Y-51054614D02*
X56285100Y-51054614D01*
X56047004Y-50721280D02*
X56047004Y-51578423D01*
X56094623Y-51673661D01*
X56189861Y-51721280D01*
X56285100Y-51721280D01*
X56761290Y-51721280D02*
X56666052Y-51673661D01*
X56618433Y-51626042D01*
X56570814Y-51530804D01*
X56570814Y-51245090D01*
X56618433Y-51149852D01*
X56666052Y-51102233D01*
X56761290Y-51054614D01*
X56904147Y-51054614D01*
X56999385Y-51102233D01*
X57047004Y-51149852D01*
X57094623Y-51245090D01*
X57094623Y-51530804D01*
X57047004Y-51626042D01*
X56999385Y-51673661D01*
X56904147Y-51721280D01*
X56761290Y-51721280D01*
X57380338Y-51054614D02*
X57761290Y-51054614D01*
X57523195Y-50721280D02*
X57523195Y-51578423D01*
X57570814Y-51673661D01*
X57666052Y-51721280D01*
X57761290Y-51721280D01*
X57999385Y-51054614D02*
X58237480Y-51721280D01*
X58475576Y-51054614D02*
X58237480Y-51721280D01*
X58142242Y-51959376D01*
X58094623Y-52006995D01*
X57999385Y-52054614D01*
X58856528Y-51054614D02*
X58856528Y-52054614D01*
X58856528Y-51102233D02*
X58951766Y-51054614D01*
X59142242Y-51054614D01*
X59237480Y-51102233D01*
X59285100Y-51149852D01*
X59332719Y-51245090D01*
X59332719Y-51530804D01*
X59285100Y-51626042D01*
X59237480Y-51673661D01*
X59142242Y-51721280D01*
X58951766Y-51721280D01*
X58856528Y-51673661D01*
X60142242Y-51673661D02*
X60047004Y-51721280D01*
X59856528Y-51721280D01*
X59761290Y-51673661D01*
X59713671Y-51578423D01*
X59713671Y-51197471D01*
X59761290Y-51102233D01*
X59856528Y-51054614D01*
X60047004Y-51054614D01*
X60142242Y-51102233D01*
X60189861Y-51197471D01*
X60189861Y-51292709D01*
X59713671Y-51387947D01*
X61285100Y-51054614D02*
X61523195Y-51721280D01*
X61761290Y-51054614D01*
X62332719Y-50721280D02*
X62427957Y-50721280D01*
X62523195Y-50768900D01*
X62570814Y-50816519D01*
X62618433Y-50911757D01*
X62666052Y-51102233D01*
X62666052Y-51340328D01*
X62618433Y-51530804D01*
X62570814Y-51626042D01*
X62523195Y-51673661D01*
X62427957Y-51721280D01*
X62332719Y-51721280D01*
X62237480Y-51673661D01*
X62189861Y-51626042D01*
X62142242Y-51530804D01*
X62094623Y-51340328D01*
X62094623Y-51102233D01*
X62142242Y-50911757D01*
X62189861Y-50816519D01*
X62237480Y-50768900D01*
X62332719Y-50721280D01*
X63094623Y-51626042D02*
X63142242Y-51673661D01*
X63094623Y-51721280D01*
X63047004Y-51673661D01*
X63094623Y-51626042D01*
X63094623Y-51721280D01*
X63999385Y-51054614D02*
X63999385Y-51721280D01*
X63761290Y-50673661D02*
X63523195Y-51387947D01*
X64142242Y-51387947D01*
X64951766Y-51721280D02*
X64951766Y-51197471D01*
X64904147Y-51102233D01*
X64808909Y-51054614D01*
X64618433Y-51054614D01*
X64523195Y-51102233D01*
X64951766Y-51673661D02*
X64856528Y-51721280D01*
X64618433Y-51721280D01*
X64523195Y-51673661D01*
X64475576Y-51578423D01*
X64475576Y-51483185D01*
X64523195Y-51387947D01*
X64618433Y-51340328D01*
X64856528Y-51340328D01*
X64951766Y-51292709D01*
D11*
X362788200Y-195387800D02*
X362788200Y-156387800D01*
X293288200Y-195387800D02*
X362788200Y-195387800D01*
X293288200Y-156387800D02*
X293288200Y-195387800D01*
X362788200Y-156387800D02*
X293288200Y-156387800D01*
D12*
X213508500Y-112966500D02*
G75*
G03X213508500Y-112966500I-100000J0D01*
G01*
D13*
X239758500Y-87566500D02*
X212328500Y-87566500D01*
X239758500Y-100366500D02*
X239758500Y-87566500D01*
X234978500Y-100366500D02*
X239758500Y-100366500D01*
X234978500Y-120076500D02*
X234978500Y-100366500D01*
X214688500Y-120076500D02*
X234978500Y-120076500D01*
X214688500Y-105166500D02*
X214688500Y-120076500D01*
X212328500Y-105166500D02*
X214688500Y-105166500D01*
X212328500Y-87566500D02*
X212328500Y-105166500D01*
D12*
X348062200Y-77670000D02*
G75*
G03X348062200Y-77670000I-150000J0D01*
G01*
D14*
X348612200Y-61270000D02*
X348612200Y-79670000D01*
X348612200Y-87570000D02*
X348612200Y-79670000D01*
X359212200Y-95470000D02*
G75*
G02X348612200Y-87570000I341185J11519184D01*
G01*
X367612200Y-95470000D02*
X359212200Y-95470000D01*
X348612200Y-53270000D02*
X348612200Y-61270000D01*
X359212199Y-45470000D02*
G75*
G03X348612200Y-53270000I269778J-11469184D01*
G01*
X367612200Y-45470000D02*
X359212200Y-45470000D01*
X370612200Y-85370000D02*
X367612200Y-85370000D01*
X370612200Y-55570000D02*
X367612200Y-55570000D01*
X370612200Y-55570000D02*
X370612200Y-85370000D01*
X367612200Y-85370000D02*
X367612200Y-95470000D01*
X367612200Y-55570000D02*
X367612200Y-85370000D01*
X367612200Y-45470000D02*
X367612200Y-55570000D01*
D12*
X59454210Y-211955800D02*
X59454210Y-165335800D01*
X53474190Y-211955800D02*
X59454210Y-211955800D01*
X53474190Y-165335800D02*
X53474190Y-211955800D01*
X59454210Y-165335800D02*
X53474190Y-165335800D01*
D15*
X364162200Y-143727800D02*
G75*
G03X364162200Y-143727800I-200000J0D01*
G01*
D14*
X361772200Y-120827800D02*
X361772200Y-146227800D01*
X310972200Y-120827800D02*
X361772200Y-120827800D01*
X310972200Y-146227800D02*
X310972200Y-120827800D01*
X361772200Y-146227800D02*
X310972200Y-146227800D01*
D15*
X159004500Y-56782500D02*
G75*
G03X159004500Y-56782500I-200000J0D01*
G01*
D14*
X191264500Y-42102500D02*
X160144500Y-42102500D01*
X191264500Y-73222500D02*
X191264500Y-42102500D01*
X160144500Y-73222500D02*
X191264500Y-73222500D01*
X160144500Y-42102500D02*
X160144500Y-73222500D01*
D11*
X278182200Y-135813800D02*
X277412200Y-135813800D01*
X270102200Y-135813800D02*
X270872200Y-135813800D01*
X277412200Y-134443800D02*
X270872200Y-134443800D01*
X277412200Y-137183800D02*
X277412200Y-134443800D01*
X270872200Y-137183800D02*
X277412200Y-137183800D01*
X270872200Y-134443800D02*
X270872200Y-137183800D01*
D16*
X118462200Y-166710000D02*
X118462200Y-167110000D01*
X118862200Y-166710000D02*
X118462200Y-166710000D01*
X118272200Y-172690000D02*
X119272200Y-173690000D01*
X118272200Y-172390000D02*
X118272200Y-172690000D01*
X119272200Y-173690000D02*
X119272200Y-174060000D01*
X119272200Y-174070000D02*
X119272200Y-174320000D01*
X139372200Y-166790000D02*
X139172200Y-166790000D01*
X139372200Y-167090000D02*
X139372200Y-166790000D01*
X139372200Y-173690000D02*
X139372200Y-173390000D01*
X139172200Y-173690000D02*
X139372200Y-173690000D01*
D12*
X263356000Y-112966500D02*
G75*
G03X263356000Y-112966500I-100000J0D01*
G01*
D13*
X289606000Y-87566500D02*
X262176000Y-87566500D01*
X289606000Y-100366500D02*
X289606000Y-87566500D01*
X284826000Y-100366500D02*
X289606000Y-100366500D01*
X284826000Y-120076500D02*
X284826000Y-100366500D01*
X264536000Y-120076500D02*
X284826000Y-120076500D01*
X264536000Y-105166500D02*
X264536000Y-120076500D01*
X262176000Y-105166500D02*
X264536000Y-105166500D01*
X262176000Y-87566500D02*
X262176000Y-105166500D01*
D15*
X259077960Y-56782500D02*
G75*
G03X259077960Y-56782500I-200000J0D01*
G01*
D14*
X291337960Y-42102500D02*
X260217960Y-42102500D01*
X291337960Y-73222500D02*
X291337960Y-42102500D01*
X260217960Y-73222500D02*
X291337960Y-73222500D01*
X260217960Y-42102500D02*
X260217960Y-73222500D01*
D17*
X273308200Y-130547800D02*
G75*
G03X273308200Y-130547800I-100000J0D01*
G01*
D14*
X272808200Y-128447800D02*
G75*
G03X272808200Y-128447800I-4000000J0D01*
G01*
D11*
X258702200Y-119986500D02*
X261642200Y-119986500D01*
X258702200Y-119746500D02*
X261642200Y-119746500D01*
X258702200Y-119866500D02*
X261642200Y-119866500D01*
X260172200Y-114306500D02*
X260172200Y-115326500D01*
X260172200Y-121786500D02*
X260172200Y-120766500D01*
X258702200Y-115326500D02*
X258702200Y-120766500D01*
X261642200Y-115326500D02*
X258702200Y-115326500D01*
X261642200Y-120766500D02*
X261642200Y-115326500D01*
X258702200Y-120766500D02*
X261642200Y-120766500D01*
D16*
X184761800Y-214777800D02*
X184761800Y-214977800D01*
X184461800Y-214777800D02*
X184761800Y-214777800D01*
X183561800Y-213877800D02*
X184461800Y-214777800D01*
X183561800Y-213477800D02*
X183561800Y-213877800D01*
X183561800Y-200577800D02*
X185061800Y-200577800D01*
X183561800Y-201177800D02*
X183561800Y-200577800D01*
X195761800Y-200577800D02*
X194361800Y-200577800D01*
X195761800Y-201177800D02*
X195761800Y-200577800D01*
X195761800Y-214777800D02*
X194561800Y-214777800D01*
X195761800Y-214177800D02*
X195761800Y-214777800D01*
X126697400Y-214777800D02*
X126697400Y-214977800D01*
X126397400Y-214777800D02*
X126697400Y-214777800D01*
X125497400Y-213877800D02*
X126397400Y-214777800D01*
X125497400Y-213477800D02*
X125497400Y-213877800D01*
X125497400Y-200577800D02*
X126997400Y-200577800D01*
X125497400Y-201177800D02*
X125497400Y-200577800D01*
X137697400Y-200577800D02*
X136297400Y-200577800D01*
X137697400Y-201177800D02*
X137697400Y-200577800D01*
X137697400Y-214777800D02*
X136497400Y-214777800D01*
X137697400Y-214177800D02*
X137697400Y-214777800D01*
X201119400Y-214777800D02*
X201119400Y-214977800D01*
X200819400Y-214777800D02*
X201119400Y-214777800D01*
X199919400Y-213877800D02*
X200819400Y-214777800D01*
X199919400Y-213477800D02*
X199919400Y-213877800D01*
X199919400Y-200577800D02*
X201419400Y-200577800D01*
X199919400Y-201177800D02*
X199919400Y-200577800D01*
X212119400Y-200577800D02*
X210719400Y-200577800D01*
X212119400Y-201177800D02*
X212119400Y-200577800D01*
X212119400Y-214777800D02*
X210919400Y-214777800D01*
X212119400Y-214177800D02*
X212119400Y-214777800D01*
X81247900Y-214790500D02*
X81247900Y-214990500D01*
X80947900Y-214790500D02*
X81247900Y-214790500D01*
X80047900Y-213890500D02*
X80947900Y-214790500D01*
X80047900Y-213490500D02*
X80047900Y-213890500D01*
X80047900Y-200590500D02*
X81547900Y-200590500D01*
X80047900Y-201190500D02*
X80047900Y-200590500D01*
X92247900Y-200590500D02*
X90847900Y-200590500D01*
X92247900Y-201190500D02*
X92247900Y-200590500D01*
X92247900Y-214790500D02*
X91047900Y-214790500D01*
X92247900Y-214190500D02*
X92247900Y-214790500D01*
X103964400Y-214777800D02*
X103964400Y-214977800D01*
X103664400Y-214777800D02*
X103964400Y-214777800D01*
X102764400Y-213877800D02*
X103664400Y-214777800D01*
X102764400Y-213477800D02*
X102764400Y-213877800D01*
X102764400Y-200577800D02*
X104264400Y-200577800D01*
X102764400Y-201177800D02*
X102764400Y-200577800D01*
X114964400Y-200577800D02*
X113564400Y-200577800D01*
X114964400Y-201177800D02*
X114964400Y-200577800D01*
X114964400Y-214777800D02*
X113764400Y-214777800D01*
X114964400Y-214177800D02*
X114964400Y-214777800D01*
D18*
G36*
X70398483Y-62118933D02*
G01*
X70410869Y-62125092D01*
X70543884Y-62222703D01*
X70612421Y-62354574D01*
X70628934Y-62509400D01*
X70605293Y-62688402D01*
X70527194Y-62814315D01*
X70418114Y-62889962D01*
X70237120Y-62947398D01*
X70062185Y-62923369D01*
X69984414Y-62887911D01*
X69861912Y-62791728D01*
X69798132Y-62658295D01*
X69788953Y-62564850D01*
X69873551Y-62564850D01*
X69924372Y-62697684D01*
X70028504Y-62796514D01*
X70146162Y-62855417D01*
X70246189Y-62858861D01*
X70370255Y-62808152D01*
X70371906Y-62807299D01*
X70464955Y-62742767D01*
X70517970Y-62676837D01*
X70541070Y-62518843D01*
X70499809Y-62369984D01*
X70407286Y-62251622D01*
X70276601Y-62185120D01*
X70211955Y-62177789D01*
X70058182Y-62212167D01*
X69946496Y-62301718D01*
X69882939Y-62426070D01*
X69873551Y-62564850D01*
X69788953Y-62564850D01*
X69782267Y-62496789D01*
X69819587Y-62326812D01*
X69918876Y-62192799D01*
X70061127Y-62105988D01*
X70227332Y-62077620D01*
X70398483Y-62118933D01*
G37*
X70398483Y-62118933D02*
X70410869Y-62125092D01*
X70543884Y-62222703D01*
X70612421Y-62354574D01*
X70628934Y-62509400D01*
X70605293Y-62688402D01*
X70527194Y-62814315D01*
X70418114Y-62889962D01*
X70237120Y-62947398D01*
X70062185Y-62923369D01*
X69984414Y-62887911D01*
X69861912Y-62791728D01*
X69798132Y-62658295D01*
X69788953Y-62564850D01*
X69873551Y-62564850D01*
X69924372Y-62697684D01*
X70028504Y-62796514D01*
X70146162Y-62855417D01*
X70246189Y-62858861D01*
X70370255Y-62808152D01*
X70371906Y-62807299D01*
X70464955Y-62742767D01*
X70517970Y-62676837D01*
X70541070Y-62518843D01*
X70499809Y-62369984D01*
X70407286Y-62251622D01*
X70276601Y-62185120D01*
X70211955Y-62177789D01*
X70058182Y-62212167D01*
X69946496Y-62301718D01*
X69882939Y-62426070D01*
X69873551Y-62564850D01*
X69788953Y-62564850D01*
X69782267Y-62496789D01*
X69819587Y-62326812D01*
X69918876Y-62192799D01*
X70061127Y-62105988D01*
X70227332Y-62077620D01*
X70398483Y-62118933D01*
G36*
X72474539Y-62991494D02*
G01*
X72598146Y-63088394D01*
X72694948Y-63220780D01*
X72743506Y-63364831D01*
X72745600Y-63398400D01*
X72727843Y-63522558D01*
X72663027Y-63632286D01*
X72601667Y-63698967D01*
X72446100Y-63811433D01*
X72282258Y-63841515D01*
X72152934Y-63813003D01*
X72019742Y-63726446D01*
X71915433Y-63591446D01*
X71874668Y-63481439D01*
X71876896Y-63427073D01*
X71976572Y-63427073D01*
X72022734Y-63575941D01*
X72135299Y-63688369D01*
X72146840Y-63695035D01*
X72300396Y-63737468D01*
X72448529Y-63698003D01*
X72565473Y-63597718D01*
X72647012Y-63455823D01*
X72646327Y-63319221D01*
X72593161Y-63214648D01*
X72473524Y-63105102D01*
X72330645Y-63062167D01*
X72187049Y-63083913D01*
X72065264Y-63168409D01*
X72004533Y-63265090D01*
X71976572Y-63427073D01*
X71876896Y-63427073D01*
X71881708Y-63309682D01*
X71957561Y-63154292D01*
X72086384Y-63033019D01*
X72252336Y-62963611D01*
X72345565Y-62953900D01*
X72474539Y-62991494D01*
G37*
X72474539Y-62991494D02*
X72598146Y-63088394D01*
X72694948Y-63220780D01*
X72743506Y-63364831D01*
X72745600Y-63398400D01*
X72727843Y-63522558D01*
X72663027Y-63632286D01*
X72601667Y-63698967D01*
X72446100Y-63811433D01*
X72282258Y-63841515D01*
X72152934Y-63813003D01*
X72019742Y-63726446D01*
X71915433Y-63591446D01*
X71874668Y-63481439D01*
X71876896Y-63427073D01*
X71976572Y-63427073D01*
X72022734Y-63575941D01*
X72135299Y-63688369D01*
X72146840Y-63695035D01*
X72300396Y-63737468D01*
X72448529Y-63698003D01*
X72565473Y-63597718D01*
X72647012Y-63455823D01*
X72646327Y-63319221D01*
X72593161Y-63214648D01*
X72473524Y-63105102D01*
X72330645Y-63062167D01*
X72187049Y-63083913D01*
X72065264Y-63168409D01*
X72004533Y-63265090D01*
X71976572Y-63427073D01*
X71876896Y-63427073D01*
X71881708Y-63309682D01*
X71957561Y-63154292D01*
X72086384Y-63033019D01*
X72252336Y-62963611D01*
X72345565Y-62953900D01*
X72474539Y-62991494D01*
G36*
X76274354Y-51654834D02*
G01*
X76260238Y-51770892D01*
X76230333Y-51931976D01*
X76197771Y-52077336D01*
X76056037Y-52742242D01*
X75962606Y-53358439D01*
X75914945Y-53944923D01*
X75907355Y-54254400D01*
X75911060Y-54593185D01*
X75927720Y-54903247D01*
X75960503Y-55198563D01*
X76012579Y-55493109D01*
X76087119Y-55800861D01*
X76187290Y-56135796D01*
X76316263Y-56511889D01*
X76477207Y-56943118D01*
X76573029Y-57189821D01*
X76752353Y-57653310D01*
X76899768Y-58051304D01*
X77018011Y-58395561D01*
X77109820Y-58697837D01*
X77177932Y-58969892D01*
X77225087Y-59223482D01*
X77254020Y-59470365D01*
X77267471Y-59722299D01*
X77268176Y-59991042D01*
X77263904Y-60156869D01*
X77234378Y-60647538D01*
X77176756Y-61091989D01*
X77084625Y-61525850D01*
X76951570Y-61984745D01*
X76914563Y-62097401D01*
X76665639Y-62714042D01*
X76349646Y-63281637D01*
X75970363Y-63796447D01*
X75531570Y-64254733D01*
X75037046Y-64652756D01*
X74490572Y-64986777D01*
X73895927Y-65253057D01*
X73632951Y-65343722D01*
X73402433Y-65411339D01*
X73245276Y-65444837D01*
X73157548Y-65444654D01*
X73135317Y-65411227D01*
X73139149Y-65398650D01*
X73160731Y-65347338D01*
X73211053Y-65228449D01*
X73285729Y-65052324D01*
X73380373Y-64829304D01*
X73490597Y-64569729D01*
X73612015Y-64283939D01*
X73637529Y-64223900D01*
X73793834Y-63852755D01*
X73917473Y-63549393D01*
X74010888Y-63304552D01*
X74076521Y-63108970D01*
X74116812Y-62953384D01*
X74134202Y-62828533D01*
X74131133Y-62725153D01*
X74110045Y-62633984D01*
X74077529Y-62554402D01*
X74024353Y-62459513D01*
X73954701Y-62374427D01*
X73858223Y-62292604D01*
X73724569Y-62207503D01*
X73543389Y-62112582D01*
X73304334Y-62001302D01*
X72997052Y-61867121D01*
X72975158Y-61857745D01*
X72714366Y-61745637D01*
X72521579Y-61660526D01*
X72386779Y-61596538D01*
X72299948Y-61547796D01*
X72251067Y-61508426D01*
X72230118Y-61472551D01*
X72227081Y-61434296D01*
X72228344Y-61419758D01*
X72240106Y-61336148D01*
X72263699Y-61189032D01*
X72295846Y-60998213D01*
X72333270Y-60783492D01*
X72338446Y-60754324D01*
X72373707Y-60550811D01*
X72401328Y-60381116D01*
X72418951Y-60260548D01*
X72424220Y-60204419D01*
X72423433Y-60202234D01*
X72395418Y-60234664D01*
X72327042Y-60323996D01*
X72227232Y-60458285D01*
X72104914Y-60625590D01*
X72040344Y-60714787D01*
X71907258Y-60896055D01*
X71788631Y-61051768D01*
X71694411Y-61169303D01*
X71634551Y-61236041D01*
X71621385Y-61246172D01*
X71568789Y-61236300D01*
X71451205Y-61197681D01*
X71281411Y-61135046D01*
X71072186Y-61053131D01*
X70836308Y-60956667D01*
X70809078Y-60945285D01*
X70494060Y-60816380D01*
X70242855Y-60722291D01*
X70043133Y-60660818D01*
X69882562Y-60629757D01*
X69748811Y-60626906D01*
X69629550Y-60650062D01*
X69512447Y-60697022D01*
X69487812Y-60709275D01*
X69361853Y-60791466D01*
X69257231Y-60889222D01*
X69240769Y-60910358D01*
X69203437Y-60978485D01*
X69138374Y-61113822D01*
X69050492Y-61305456D01*
X68944705Y-61542476D01*
X68825925Y-61813970D01*
X68699064Y-62109027D01*
X68663985Y-62191503D01*
X68538331Y-62486031D01*
X68422039Y-62755575D01*
X68319516Y-62990166D01*
X68235164Y-63179833D01*
X68173388Y-63314606D01*
X68138592Y-63384515D01*
X68133848Y-63391586D01*
X68097242Y-63375747D01*
X68033357Y-63297798D01*
X67950935Y-63172253D01*
X67858716Y-63013625D01*
X67765438Y-62836427D01*
X67679844Y-62655174D01*
X67653571Y-62594067D01*
X67438053Y-61973888D01*
X67302401Y-61341520D01*
X67256175Y-60810171D01*
X67355985Y-60810171D01*
X67423991Y-61437980D01*
X67573543Y-62055904D01*
X67629627Y-62224704D01*
X67697638Y-62405506D01*
X67779126Y-62603941D01*
X67865711Y-62801598D01*
X67949013Y-62980070D01*
X68020650Y-63120950D01*
X68072242Y-63205827D01*
X68080972Y-63216084D01*
X68105529Y-63188537D01*
X68156071Y-63094146D01*
X68227022Y-62944634D01*
X68312808Y-62751721D01*
X68403046Y-62538751D01*
X68529515Y-62234723D01*
X68635164Y-61983714D01*
X68730967Y-61760275D01*
X68827896Y-61538953D01*
X68936925Y-61294298D01*
X69002528Y-61148336D01*
X69043328Y-61047583D01*
X69062409Y-60980466D01*
X69062600Y-60977010D01*
X69090651Y-60928398D01*
X69162680Y-60844299D01*
X69225348Y-60780164D01*
X69390701Y-60656779D01*
X69592785Y-60560347D01*
X69795312Y-60506299D01*
X69884245Y-60499971D01*
X69977270Y-60519020D01*
X70145434Y-60574105D01*
X70387481Y-60664755D01*
X70702160Y-60790498D01*
X71088217Y-60950861D01*
X71140996Y-60973134D01*
X71589558Y-61162721D01*
X71938324Y-60675419D01*
X72076661Y-60479995D01*
X72170797Y-60339688D01*
X72227256Y-60241826D01*
X72252564Y-60173738D01*
X72253248Y-60122752D01*
X72241179Y-60087350D01*
X72195757Y-59907409D01*
X72199320Y-59884734D01*
X72279934Y-59884734D01*
X72309377Y-59994236D01*
X72364600Y-60075234D01*
X72465452Y-60139281D01*
X72555100Y-60159900D01*
X72664602Y-60130457D01*
X72745600Y-60075234D01*
X72816265Y-59952028D01*
X72821443Y-59811111D01*
X72760206Y-59686984D01*
X72651142Y-59620329D01*
X72524232Y-59617048D01*
X72403827Y-59667113D01*
X72314281Y-59760499D01*
X72279934Y-59884734D01*
X72199320Y-59884734D01*
X72221127Y-59745992D01*
X72308241Y-59618720D01*
X72448052Y-59541212D01*
X72566963Y-59524900D01*
X72725915Y-59559520D01*
X72845236Y-59650222D01*
X72917013Y-59777273D01*
X72933333Y-59920939D01*
X72886283Y-60061486D01*
X72815283Y-60144153D01*
X72714952Y-60211950D01*
X72624978Y-60244148D01*
X72617046Y-60244567D01*
X72541716Y-60281624D01*
X72516550Y-60339817D01*
X72457563Y-60645334D01*
X72408631Y-60918339D01*
X72371391Y-61148194D01*
X72347484Y-61324259D01*
X72338548Y-61435895D01*
X72342356Y-61470490D01*
X72396578Y-61512538D01*
X72409893Y-61514567D01*
X72469976Y-61530891D01*
X72575256Y-61572152D01*
X72629645Y-61596036D01*
X72738429Y-61644223D01*
X72903158Y-61715739D01*
X73101747Y-61801052D01*
X73312109Y-61890630D01*
X73318643Y-61893399D01*
X73616119Y-62028259D01*
X73841753Y-62153435D01*
X74006235Y-62278136D01*
X74120253Y-62411567D01*
X74194499Y-62562937D01*
X74226500Y-62675335D01*
X74241929Y-62793836D01*
X74234078Y-62927289D01*
X74199664Y-63088107D01*
X74135404Y-63288703D01*
X74038012Y-63541487D01*
X73927867Y-63804005D01*
X73820007Y-64056002D01*
X73707671Y-64320143D01*
X73602556Y-64568818D01*
X73516362Y-64774417D01*
X73498844Y-64816567D01*
X73426688Y-64990460D01*
X73365462Y-65137731D01*
X73323203Y-65239059D01*
X73309495Y-65271650D01*
X73303142Y-65307425D01*
X73331955Y-65320086D01*
X73407701Y-65308097D01*
X73542148Y-65269920D01*
X73693980Y-65221416D01*
X74236264Y-65004233D01*
X74756863Y-64717553D01*
X75239230Y-64372404D01*
X75666819Y-63979815D01*
X75832156Y-63796289D01*
X75986147Y-63613871D01*
X76093214Y-63485260D01*
X76161562Y-63400002D01*
X76199395Y-63347643D01*
X76214916Y-63317730D01*
X76216934Y-63306000D01*
X76242023Y-63255350D01*
X76276901Y-63211234D01*
X76348945Y-63107631D01*
X76440229Y-62941904D01*
X76542600Y-62732040D01*
X76647907Y-62496029D01*
X76747998Y-62251859D01*
X76834721Y-62017518D01*
X76878878Y-61882851D01*
X77005440Y-61425200D01*
X77091892Y-60995590D01*
X77143324Y-60560114D01*
X77164824Y-60084865D01*
X77166054Y-59969400D01*
X77162404Y-59684508D01*
X77146082Y-59421384D01*
X77113828Y-59166452D01*
X77062380Y-58906138D01*
X76988477Y-58626867D01*
X76888858Y-58315066D01*
X76760262Y-57957158D01*
X76599427Y-57539570D01*
X76555842Y-57429400D01*
X76354048Y-56908779D01*
X76188524Y-56451054D01*
X76056392Y-56044050D01*
X75954776Y-55675591D01*
X75880798Y-55333499D01*
X75831581Y-55005601D01*
X75804248Y-54679718D01*
X75795921Y-54343675D01*
X75797017Y-54218172D01*
X75817097Y-53811906D01*
X75862169Y-53357512D01*
X75927833Y-52886263D01*
X76009687Y-52429433D01*
X76103332Y-52018294D01*
X76110346Y-51991535D01*
X76141756Y-51864219D01*
X76159251Y-51775664D01*
X76160214Y-51749403D01*
X76122847Y-51767247D01*
X76029913Y-51824782D01*
X75894996Y-51912848D01*
X75731681Y-52022285D01*
X75553552Y-52143933D01*
X75374194Y-52268632D01*
X75207192Y-52387221D01*
X75116267Y-52453328D01*
X74965390Y-52562573D01*
X74813395Y-52669838D01*
X74717419Y-52735550D01*
X74608273Y-52809704D01*
X74525750Y-52867948D01*
X74505753Y-52883045D01*
X74367544Y-52992002D01*
X74237518Y-53089594D01*
X74094095Y-53191247D01*
X73915692Y-53312389D01*
X73761600Y-53414951D01*
X73591598Y-53527099D01*
X73443218Y-53623269D01*
X73304819Y-53710105D01*
X73164763Y-53794253D01*
X73011411Y-53882357D01*
X72833124Y-53981063D01*
X72618262Y-54097015D01*
X72355185Y-54236858D01*
X72032256Y-54407238D01*
X71920100Y-54466281D01*
X71723540Y-54571077D01*
X71539013Y-54671849D01*
X71388057Y-54756694D01*
X71296525Y-54810965D01*
X71195087Y-54871559D01*
X71125576Y-54906873D01*
X71112754Y-54910567D01*
X71070440Y-54932591D01*
X70979988Y-54989241D01*
X70862478Y-55066384D01*
X70738987Y-55149886D01*
X70630595Y-55225613D01*
X70558381Y-55279432D01*
X70544267Y-55291740D01*
X70503862Y-55325742D01*
X70412705Y-55399558D01*
X70286491Y-55500532D01*
X70205600Y-55564816D01*
X69720807Y-55984661D01*
X69248715Y-56461267D01*
X68804179Y-56976709D01*
X68402054Y-57513060D01*
X68057197Y-58052395D01*
X67888650Y-58360734D01*
X67635857Y-58947757D01*
X67462456Y-59557027D01*
X67368986Y-60180509D01*
X67355985Y-60810171D01*
X67256175Y-60810171D01*
X67246985Y-60704539D01*
X67272177Y-60070522D01*
X67378349Y-59447046D01*
X67481327Y-59080400D01*
X67597600Y-58773282D01*
X67757244Y-58425145D01*
X67948038Y-58058832D01*
X68157760Y-57697183D01*
X68374190Y-57363041D01*
X68477905Y-57217734D01*
X68669726Y-56975590D01*
X68907048Y-56702394D01*
X69175757Y-56412270D01*
X69461741Y-56119346D01*
X69750887Y-55837747D01*
X70029084Y-55581600D01*
X70282217Y-55365031D01*
X70480767Y-55212933D01*
X70696021Y-55065241D01*
X70921220Y-54919644D01*
X71168515Y-54769022D01*
X71450059Y-54606260D01*
X71778001Y-54424240D01*
X72164494Y-54215845D01*
X72364600Y-54109531D01*
X72894035Y-53818797D01*
X73390450Y-53522714D01*
X73881635Y-53203792D01*
X74395384Y-52844536D01*
X74532245Y-52745170D01*
X74812726Y-52542685D01*
X75091718Y-52345863D01*
X75360500Y-52160444D01*
X75610348Y-51992163D01*
X75832540Y-51846759D01*
X76018353Y-51729969D01*
X76159064Y-51647529D01*
X76245951Y-51605178D01*
X76269882Y-51602249D01*
X76274354Y-51654834D01*
G37*
X76274354Y-51654834D02*
X76260238Y-51770892D01*
X76230333Y-51931976D01*
X76197771Y-52077336D01*
X76056037Y-52742242D01*
X75962606Y-53358439D01*
X75914945Y-53944923D01*
X75907355Y-54254400D01*
X75911060Y-54593185D01*
X75927720Y-54903247D01*
X75960503Y-55198563D01*
X76012579Y-55493109D01*
X76087119Y-55800861D01*
X76187290Y-56135796D01*
X76316263Y-56511889D01*
X76477207Y-56943118D01*
X76573029Y-57189821D01*
X76752353Y-57653310D01*
X76899768Y-58051304D01*
X77018011Y-58395561D01*
X77109820Y-58697837D01*
X77177932Y-58969892D01*
X77225087Y-59223482D01*
X77254020Y-59470365D01*
X77267471Y-59722299D01*
X77268176Y-59991042D01*
X77263904Y-60156869D01*
X77234378Y-60647538D01*
X77176756Y-61091989D01*
X77084625Y-61525850D01*
X76951570Y-61984745D01*
X76914563Y-62097401D01*
X76665639Y-62714042D01*
X76349646Y-63281637D01*
X75970363Y-63796447D01*
X75531570Y-64254733D01*
X75037046Y-64652756D01*
X74490572Y-64986777D01*
X73895927Y-65253057D01*
X73632951Y-65343722D01*
X73402433Y-65411339D01*
X73245276Y-65444837D01*
X73157548Y-65444654D01*
X73135317Y-65411227D01*
X73139149Y-65398650D01*
X73160731Y-65347338D01*
X73211053Y-65228449D01*
X73285729Y-65052324D01*
X73380373Y-64829304D01*
X73490597Y-64569729D01*
X73612015Y-64283939D01*
X73637529Y-64223900D01*
X73793834Y-63852755D01*
X73917473Y-63549393D01*
X74010888Y-63304552D01*
X74076521Y-63108970D01*
X74116812Y-62953384D01*
X74134202Y-62828533D01*
X74131133Y-62725153D01*
X74110045Y-62633984D01*
X74077529Y-62554402D01*
X74024353Y-62459513D01*
X73954701Y-62374427D01*
X73858223Y-62292604D01*
X73724569Y-62207503D01*
X73543389Y-62112582D01*
X73304334Y-62001302D01*
X72997052Y-61867121D01*
X72975158Y-61857745D01*
X72714366Y-61745637D01*
X72521579Y-61660526D01*
X72386779Y-61596538D01*
X72299948Y-61547796D01*
X72251067Y-61508426D01*
X72230118Y-61472551D01*
X72227081Y-61434296D01*
X72228344Y-61419758D01*
X72240106Y-61336148D01*
X72263699Y-61189032D01*
X72295846Y-60998213D01*
X72333270Y-60783492D01*
X72338446Y-60754324D01*
X72373707Y-60550811D01*
X72401328Y-60381116D01*
X72418951Y-60260548D01*
X72424220Y-60204419D01*
X72423433Y-60202234D01*
X72395418Y-60234664D01*
X72327042Y-60323996D01*
X72227232Y-60458285D01*
X72104914Y-60625590D01*
X72040344Y-60714787D01*
X71907258Y-60896055D01*
X71788631Y-61051768D01*
X71694411Y-61169303D01*
X71634551Y-61236041D01*
X71621385Y-61246172D01*
X71568789Y-61236300D01*
X71451205Y-61197681D01*
X71281411Y-61135046D01*
X71072186Y-61053131D01*
X70836308Y-60956667D01*
X70809078Y-60945285D01*
X70494060Y-60816380D01*
X70242855Y-60722291D01*
X70043133Y-60660818D01*
X69882562Y-60629757D01*
X69748811Y-60626906D01*
X69629550Y-60650062D01*
X69512447Y-60697022D01*
X69487812Y-60709275D01*
X69361853Y-60791466D01*
X69257231Y-60889222D01*
X69240769Y-60910358D01*
X69203437Y-60978485D01*
X69138374Y-61113822D01*
X69050492Y-61305456D01*
X68944705Y-61542476D01*
X68825925Y-61813970D01*
X68699064Y-62109027D01*
X68663985Y-62191503D01*
X68538331Y-62486031D01*
X68422039Y-62755575D01*
X68319516Y-62990166D01*
X68235164Y-63179833D01*
X68173388Y-63314606D01*
X68138592Y-63384515D01*
X68133848Y-63391586D01*
X68097242Y-63375747D01*
X68033357Y-63297798D01*
X67950935Y-63172253D01*
X67858716Y-63013625D01*
X67765438Y-62836427D01*
X67679844Y-62655174D01*
X67653571Y-62594067D01*
X67438053Y-61973888D01*
X67302401Y-61341520D01*
X67256175Y-60810171D01*
X67355985Y-60810171D01*
X67423991Y-61437980D01*
X67573543Y-62055904D01*
X67629627Y-62224704D01*
X67697638Y-62405506D01*
X67779126Y-62603941D01*
X67865711Y-62801598D01*
X67949013Y-62980070D01*
X68020650Y-63120950D01*
X68072242Y-63205827D01*
X68080972Y-63216084D01*
X68105529Y-63188537D01*
X68156071Y-63094146D01*
X68227022Y-62944634D01*
X68312808Y-62751721D01*
X68403046Y-62538751D01*
X68529515Y-62234723D01*
X68635164Y-61983714D01*
X68730967Y-61760275D01*
X68827896Y-61538953D01*
X68936925Y-61294298D01*
X69002528Y-61148336D01*
X69043328Y-61047583D01*
X69062409Y-60980466D01*
X69062600Y-60977010D01*
X69090651Y-60928398D01*
X69162680Y-60844299D01*
X69225348Y-60780164D01*
X69390701Y-60656779D01*
X69592785Y-60560347D01*
X69795312Y-60506299D01*
X69884245Y-60499971D01*
X69977270Y-60519020D01*
X70145434Y-60574105D01*
X70387481Y-60664755D01*
X70702160Y-60790498D01*
X71088217Y-60950861D01*
X71140996Y-60973134D01*
X71589558Y-61162721D01*
X71938324Y-60675419D01*
X72076661Y-60479995D01*
X72170797Y-60339688D01*
X72227256Y-60241826D01*
X72252564Y-60173738D01*
X72253248Y-60122752D01*
X72241179Y-60087350D01*
X72195757Y-59907409D01*
X72199320Y-59884734D01*
X72279934Y-59884734D01*
X72309377Y-59994236D01*
X72364600Y-60075234D01*
X72465452Y-60139281D01*
X72555100Y-60159900D01*
X72664602Y-60130457D01*
X72745600Y-60075234D01*
X72816265Y-59952028D01*
X72821443Y-59811111D01*
X72760206Y-59686984D01*
X72651142Y-59620329D01*
X72524232Y-59617048D01*
X72403827Y-59667113D01*
X72314281Y-59760499D01*
X72279934Y-59884734D01*
X72199320Y-59884734D01*
X72221127Y-59745992D01*
X72308241Y-59618720D01*
X72448052Y-59541212D01*
X72566963Y-59524900D01*
X72725915Y-59559520D01*
X72845236Y-59650222D01*
X72917013Y-59777273D01*
X72933333Y-59920939D01*
X72886283Y-60061486D01*
X72815283Y-60144153D01*
X72714952Y-60211950D01*
X72624978Y-60244148D01*
X72617046Y-60244567D01*
X72541716Y-60281624D01*
X72516550Y-60339817D01*
X72457563Y-60645334D01*
X72408631Y-60918339D01*
X72371391Y-61148194D01*
X72347484Y-61324259D01*
X72338548Y-61435895D01*
X72342356Y-61470490D01*
X72396578Y-61512538D01*
X72409893Y-61514567D01*
X72469976Y-61530891D01*
X72575256Y-61572152D01*
X72629645Y-61596036D01*
X72738429Y-61644223D01*
X72903158Y-61715739D01*
X73101747Y-61801052D01*
X73312109Y-61890630D01*
X73318643Y-61893399D01*
X73616119Y-62028259D01*
X73841753Y-62153435D01*
X74006235Y-62278136D01*
X74120253Y-62411567D01*
X74194499Y-62562937D01*
X74226500Y-62675335D01*
X74241929Y-62793836D01*
X74234078Y-62927289D01*
X74199664Y-63088107D01*
X74135404Y-63288703D01*
X74038012Y-63541487D01*
X73927867Y-63804005D01*
X73820007Y-64056002D01*
X73707671Y-64320143D01*
X73602556Y-64568818D01*
X73516362Y-64774417D01*
X73498844Y-64816567D01*
X73426688Y-64990460D01*
X73365462Y-65137731D01*
X73323203Y-65239059D01*
X73309495Y-65271650D01*
X73303142Y-65307425D01*
X73331955Y-65320086D01*
X73407701Y-65308097D01*
X73542148Y-65269920D01*
X73693980Y-65221416D01*
X74236264Y-65004233D01*
X74756863Y-64717553D01*
X75239230Y-64372404D01*
X75666819Y-63979815D01*
X75832156Y-63796289D01*
X75986147Y-63613871D01*
X76093214Y-63485260D01*
X76161562Y-63400002D01*
X76199395Y-63347643D01*
X76214916Y-63317730D01*
X76216934Y-63306000D01*
X76242023Y-63255350D01*
X76276901Y-63211234D01*
X76348945Y-63107631D01*
X76440229Y-62941904D01*
X76542600Y-62732040D01*
X76647907Y-62496029D01*
X76747998Y-62251859D01*
X76834721Y-62017518D01*
X76878878Y-61882851D01*
X77005440Y-61425200D01*
X77091892Y-60995590D01*
X77143324Y-60560114D01*
X77164824Y-60084865D01*
X77166054Y-59969400D01*
X77162404Y-59684508D01*
X77146082Y-59421384D01*
X77113828Y-59166452D01*
X77062380Y-58906138D01*
X76988477Y-58626867D01*
X76888858Y-58315066D01*
X76760262Y-57957158D01*
X76599427Y-57539570D01*
X76555842Y-57429400D01*
X76354048Y-56908779D01*
X76188524Y-56451054D01*
X76056392Y-56044050D01*
X75954776Y-55675591D01*
X75880798Y-55333499D01*
X75831581Y-55005601D01*
X75804248Y-54679718D01*
X75795921Y-54343675D01*
X75797017Y-54218172D01*
X75817097Y-53811906D01*
X75862169Y-53357512D01*
X75927833Y-52886263D01*
X76009687Y-52429433D01*
X76103332Y-52018294D01*
X76110346Y-51991535D01*
X76141756Y-51864219D01*
X76159251Y-51775664D01*
X76160214Y-51749403D01*
X76122847Y-51767247D01*
X76029913Y-51824782D01*
X75894996Y-51912848D01*
X75731681Y-52022285D01*
X75553552Y-52143933D01*
X75374194Y-52268632D01*
X75207192Y-52387221D01*
X75116267Y-52453328D01*
X74965390Y-52562573D01*
X74813395Y-52669838D01*
X74717419Y-52735550D01*
X74608273Y-52809704D01*
X74525750Y-52867948D01*
X74505753Y-52883045D01*
X74367544Y-52992002D01*
X74237518Y-53089594D01*
X74094095Y-53191247D01*
X73915692Y-53312389D01*
X73761600Y-53414951D01*
X73591598Y-53527099D01*
X73443218Y-53623269D01*
X73304819Y-53710105D01*
X73164763Y-53794253D01*
X73011411Y-53882357D01*
X72833124Y-53981063D01*
X72618262Y-54097015D01*
X72355185Y-54236858D01*
X72032256Y-54407238D01*
X71920100Y-54466281D01*
X71723540Y-54571077D01*
X71539013Y-54671849D01*
X71388057Y-54756694D01*
X71296525Y-54810965D01*
X71195087Y-54871559D01*
X71125576Y-54906873D01*
X71112754Y-54910567D01*
X71070440Y-54932591D01*
X70979988Y-54989241D01*
X70862478Y-55066384D01*
X70738987Y-55149886D01*
X70630595Y-55225613D01*
X70558381Y-55279432D01*
X70544267Y-55291740D01*
X70503862Y-55325742D01*
X70412705Y-55399558D01*
X70286491Y-55500532D01*
X70205600Y-55564816D01*
X69720807Y-55984661D01*
X69248715Y-56461267D01*
X68804179Y-56976709D01*
X68402054Y-57513060D01*
X68057197Y-58052395D01*
X67888650Y-58360734D01*
X67635857Y-58947757D01*
X67462456Y-59557027D01*
X67368986Y-60180509D01*
X67355985Y-60810171D01*
X67256175Y-60810171D01*
X67246985Y-60704539D01*
X67272177Y-60070522D01*
X67378349Y-59447046D01*
X67481327Y-59080400D01*
X67597600Y-58773282D01*
X67757244Y-58425145D01*
X67948038Y-58058832D01*
X68157760Y-57697183D01*
X68374190Y-57363041D01*
X68477905Y-57217734D01*
X68669726Y-56975590D01*
X68907048Y-56702394D01*
X69175757Y-56412270D01*
X69461741Y-56119346D01*
X69750887Y-55837747D01*
X70029084Y-55581600D01*
X70282217Y-55365031D01*
X70480767Y-55212933D01*
X70696021Y-55065241D01*
X70921220Y-54919644D01*
X71168515Y-54769022D01*
X71450059Y-54606260D01*
X71778001Y-54424240D01*
X72164494Y-54215845D01*
X72364600Y-54109531D01*
X72894035Y-53818797D01*
X73390450Y-53522714D01*
X73881635Y-53203792D01*
X74395384Y-52844536D01*
X74532245Y-52745170D01*
X74812726Y-52542685D01*
X75091718Y-52345863D01*
X75360500Y-52160444D01*
X75610348Y-51992163D01*
X75832540Y-51846759D01*
X76018353Y-51729969D01*
X76159064Y-51647529D01*
X76245951Y-51605178D01*
X76269882Y-51602249D01*
X76274354Y-51654834D01*
D11*
X177712500Y-135826500D02*
X176942500Y-135826500D01*
X169632500Y-135826500D02*
X170402500Y-135826500D01*
X176942500Y-134456500D02*
X170402500Y-134456500D01*
X176942500Y-137196500D02*
X176942500Y-134456500D01*
X170402500Y-137196500D02*
X176942500Y-137196500D01*
X170402500Y-134456500D02*
X170402500Y-137196500D01*
D17*
X122546500Y-130560500D02*
G75*
G03X122546500Y-130560500I-100000J0D01*
G01*
D14*
X122046500Y-128460500D02*
G75*
G03X122046500Y-128460500I-4000000J0D01*
G01*
D11*
X228258500Y-135826500D02*
X227488500Y-135826500D01*
X220178500Y-135826500D02*
X220948500Y-135826500D01*
X227488500Y-134456500D02*
X220948500Y-134456500D01*
X227488500Y-137196500D02*
X227488500Y-134456500D01*
X220948500Y-137196500D02*
X227488500Y-137196500D01*
X220948500Y-134456500D02*
X220948500Y-137196500D01*
X126912500Y-135826500D02*
X126142500Y-135826500D01*
X118832500Y-135826500D02*
X119602500Y-135826500D01*
X126142500Y-134456500D02*
X119602500Y-134456500D01*
X126142500Y-137196500D02*
X126142500Y-134456500D01*
X119602500Y-137196500D02*
X126142500Y-137196500D01*
X119602500Y-134456500D02*
X119602500Y-137196500D01*
D17*
X223130500Y-130560500D02*
G75*
G03X223130500Y-130560500I-100000J0D01*
G01*
D14*
X222630500Y-128460500D02*
G75*
G03X222630500Y-128460500I-4000000J0D01*
G01*
D17*
X172838500Y-130560500D02*
G75*
G03X172838500Y-130560500I-100000J0D01*
G01*
D14*
X172338500Y-128460500D02*
G75*
G03X172338500Y-128460500I-4000000J0D01*
G01*
D16*
X233100000Y-194288000D02*
X232750000Y-194288000D01*
X233100000Y-193913000D02*
X233100000Y-194288000D01*
X225350000Y-194288000D02*
X225350000Y-193863000D01*
X225750000Y-194288000D02*
X225350000Y-194288000D01*
X225375000Y-179038000D02*
X225650000Y-179038000D01*
X225375000Y-179363000D02*
X225375000Y-179038000D01*
X233125000Y-179038000D02*
X232875000Y-179038000D01*
X233125000Y-179363000D02*
X233125000Y-179038000D01*
D11*
X104773600Y-188976000D02*
X105543600Y-188976000D01*
X112853600Y-188976000D02*
X112083600Y-188976000D01*
X105543600Y-190346000D02*
X112083600Y-190346000D01*
X105543600Y-187606000D02*
X105543600Y-190346000D01*
X112083600Y-187606000D02*
X105543600Y-187606000D01*
X112083600Y-190346000D02*
X112083600Y-187606000D01*
X75552300Y-203668500D02*
X75552300Y-204438500D01*
X75552300Y-211748500D02*
X75552300Y-210978500D01*
X74182300Y-204438500D02*
X74182300Y-210978500D01*
X76922300Y-204438500D02*
X74182300Y-204438500D01*
X76922300Y-210978500D02*
X76922300Y-204438500D01*
X74182300Y-210978500D02*
X76922300Y-210978500D01*
D16*
X84426200Y-166710000D02*
X84426200Y-167110000D01*
X84826200Y-166710000D02*
X84426200Y-166710000D01*
X84236200Y-172690000D02*
X85236200Y-173690000D01*
X84236200Y-172390000D02*
X84236200Y-172690000D01*
X85236200Y-173690000D02*
X85236200Y-174060000D01*
X85236200Y-174070000D02*
X85236200Y-174320000D01*
X105336200Y-166790000D02*
X105136200Y-166790000D01*
X105336200Y-167090000D02*
X105336200Y-166790000D01*
X105336200Y-173690000D02*
X105336200Y-173390000D01*
X105136200Y-173690000D02*
X105336200Y-173690000D01*
D12*
X162962500Y-112966500D02*
G75*
G03X162962500Y-112966500I-100000J0D01*
G01*
D13*
X189212500Y-87566500D02*
X161782500Y-87566500D01*
X189212500Y-100366500D02*
X189212500Y-87566500D01*
X184432500Y-100366500D02*
X189212500Y-100366500D01*
X184432500Y-120076500D02*
X184432500Y-100366500D01*
X164142500Y-120076500D02*
X184432500Y-120076500D01*
X164142500Y-105166500D02*
X164142500Y-120076500D01*
X161782500Y-105166500D02*
X164142500Y-105166500D01*
X161782500Y-87566500D02*
X161782500Y-105166500D01*
D12*
X112670500Y-112966500D02*
G75*
G03X112670500Y-112966500I-100000J0D01*
G01*
D13*
X138920500Y-87566500D02*
X111490500Y-87566500D01*
X138920500Y-100366500D02*
X138920500Y-87566500D01*
X134140500Y-100366500D02*
X138920500Y-100366500D01*
X134140500Y-120076500D02*
X134140500Y-100366500D01*
X113850500Y-120076500D02*
X134140500Y-120076500D01*
X113850500Y-105166500D02*
X113850500Y-120076500D01*
X111490500Y-105166500D02*
X113850500Y-105166500D01*
X111490500Y-87566500D02*
X111490500Y-105166500D01*
D15*
X209042500Y-56782500D02*
G75*
G03X209042500Y-56782500I-200000J0D01*
G01*
D14*
X241302500Y-42102500D02*
X210182500Y-42102500D01*
X241302500Y-73222500D02*
X241302500Y-42102500D01*
X210182500Y-73222500D02*
X241302500Y-73222500D01*
X210182500Y-42102500D02*
X210182500Y-73222500D01*
D15*
X108966500Y-56782500D02*
G75*
G03X108966500Y-56782500I-200000J0D01*
G01*
D14*
X141226500Y-42102500D02*
X110106500Y-42102500D01*
X141226500Y-73222500D02*
X141226500Y-42102500D01*
X110106500Y-73222500D02*
X141226500Y-73222500D01*
X110106500Y-42102500D02*
X110106500Y-73222500D01*
D11*
X209032500Y-119986500D02*
X211972500Y-119986500D01*
X209032500Y-119746500D02*
X211972500Y-119746500D01*
X209032500Y-119866500D02*
X211972500Y-119866500D01*
X210502500Y-114306500D02*
X210502500Y-115326500D01*
X210502500Y-121786500D02*
X210502500Y-120766500D01*
X209032500Y-115326500D02*
X209032500Y-120766500D01*
X211972500Y-115326500D02*
X209032500Y-115326500D01*
X211972500Y-120766500D02*
X211972500Y-115326500D01*
X209032500Y-120766500D02*
X211972500Y-120766500D01*
X158740500Y-119986500D02*
X161680500Y-119986500D01*
X158740500Y-119746500D02*
X161680500Y-119746500D01*
X158740500Y-119866500D02*
X161680500Y-119866500D01*
X160210500Y-114306500D02*
X160210500Y-115326500D01*
X160210500Y-121786500D02*
X160210500Y-120766500D01*
X158740500Y-115326500D02*
X158740500Y-120766500D01*
X161680500Y-115326500D02*
X158740500Y-115326500D01*
X161680500Y-120766500D02*
X161680500Y-115326500D01*
X158740500Y-120766500D02*
X161680500Y-120766500D01*
X107940500Y-119732500D02*
X110880500Y-119732500D01*
X107940500Y-119492500D02*
X110880500Y-119492500D01*
X107940500Y-119612500D02*
X110880500Y-119612500D01*
X109410500Y-114052500D02*
X109410500Y-115072500D01*
X109410500Y-121532500D02*
X109410500Y-120512500D01*
X107940500Y-115072500D02*
X107940500Y-120512500D01*
X110880500Y-115072500D02*
X107940500Y-115072500D01*
X110880500Y-120512500D02*
X110880500Y-115072500D01*
X107940500Y-120512500D02*
X110880500Y-120512500D01*
D16*
X223827000Y-214727000D02*
X223827000Y-214927000D01*
X223527000Y-214727000D02*
X223827000Y-214727000D01*
X222627000Y-213827000D02*
X223527000Y-214727000D01*
X222627000Y-213427000D02*
X222627000Y-213827000D01*
X222627000Y-200527000D02*
X224127000Y-200527000D01*
X222627000Y-201127000D02*
X222627000Y-200527000D01*
X234827000Y-200527000D02*
X233427000Y-200527000D01*
X234827000Y-201127000D02*
X234827000Y-200527000D01*
X234827000Y-214727000D02*
X233627000Y-214727000D01*
X234827000Y-214127000D02*
X234827000Y-214727000D01*
X142953400Y-214777800D02*
X142953400Y-214977800D01*
X142653400Y-214777800D02*
X142953400Y-214777800D01*
X141753400Y-213877800D02*
X142653400Y-214777800D01*
X141753400Y-213477800D02*
X141753400Y-213877800D01*
X141753400Y-200577800D02*
X143253400Y-200577800D01*
X141753400Y-201177800D02*
X141753400Y-200577800D01*
X153953400Y-200577800D02*
X152553400Y-200577800D01*
X153953400Y-201177800D02*
X153953400Y-200577800D01*
X153953400Y-214777800D02*
X152753400Y-214777800D01*
X153953400Y-214177800D02*
X153953400Y-214777800D01*
X168404200Y-214777800D02*
X168404200Y-214977800D01*
X168104200Y-214777800D02*
X168404200Y-214777800D01*
X167204200Y-213877800D02*
X168104200Y-214777800D01*
X167204200Y-213477800D02*
X167204200Y-213877800D01*
X167204200Y-200577800D02*
X168704200Y-200577800D01*
X167204200Y-201177800D02*
X167204200Y-200577800D01*
X179404200Y-200577800D02*
X178004200Y-200577800D01*
X179404200Y-201177800D02*
X179404200Y-200577800D01*
X179404200Y-214777800D02*
X178204200Y-214777800D01*
X179404200Y-214177800D02*
X179404200Y-214777800D01*
D10*
X358616295Y-197420180D02*
X358616295Y-198229704D01*
X358663914Y-198324942D01*
X358711533Y-198372561D01*
X358806771Y-198420180D01*
X358997247Y-198420180D01*
X359092485Y-198372561D01*
X359140104Y-198324942D01*
X359187723Y-198229704D01*
X359187723Y-197420180D01*
X360187723Y-198420180D02*
X359616295Y-198420180D01*
X359902009Y-198420180D02*
X359902009Y-197420180D01*
X359806771Y-197563038D01*
X359711533Y-197658276D01*
X359616295Y-197705895D01*
D19*
X215713471Y-86377757D02*
X215713471Y-84982269D01*
X216510893Y-86377757D02*
X215912827Y-85580335D01*
X216510893Y-84982269D02*
X215713471Y-85779690D01*
X216976056Y-84982269D02*
X217839929Y-84982269D01*
X217374767Y-85513883D01*
X217574122Y-85513883D01*
X217707026Y-85580335D01*
X217773478Y-85646787D01*
X217839929Y-85779690D01*
X217839929Y-86111949D01*
X217773478Y-86244853D01*
X217707026Y-86311305D01*
X217574122Y-86377757D01*
X217175411Y-86377757D01*
X217042508Y-86311305D01*
X216976056Y-86244853D01*
X346227252Y-84622739D02*
X346942944Y-84622739D01*
X347086083Y-84670452D01*
X347181508Y-84765878D01*
X347229221Y-84909016D01*
X347229221Y-85004442D01*
X347229221Y-83620770D02*
X347229221Y-84193324D01*
X347229221Y-83907047D02*
X346227252Y-83907047D01*
X346370391Y-84002473D01*
X346465816Y-84097898D01*
X346513529Y-84193324D01*
X51243261Y-163767300D02*
X52314690Y-163767300D01*
X52528975Y-163838728D01*
X52671832Y-163981585D01*
X52743261Y-164195871D01*
X52743261Y-164338728D01*
X51743261Y-162410157D02*
X52743261Y-162410157D01*
X51171832Y-162767300D02*
X52243261Y-163124442D01*
X52243261Y-162195871D01*
X56551580Y-213106323D02*
X56551580Y-212487276D01*
X56932533Y-212820609D01*
X56932533Y-212677752D01*
X56980152Y-212582514D01*
X57027771Y-212534895D01*
X57123009Y-212487276D01*
X57361104Y-212487276D01*
X57456342Y-212534895D01*
X57503961Y-212582514D01*
X57551580Y-212677752D01*
X57551580Y-212963466D01*
X57503961Y-213058704D01*
X57456342Y-213106323D01*
X56551580Y-211630133D02*
X56551580Y-211820609D01*
X56599200Y-211915847D01*
X56646819Y-211963466D01*
X56789676Y-212058704D01*
X56980152Y-212106323D01*
X57361104Y-212106323D01*
X57456342Y-212058704D01*
X57503961Y-212011085D01*
X57551580Y-211915847D01*
X57551580Y-211725371D01*
X57503961Y-211630133D01*
X57456342Y-211582514D01*
X57361104Y-211534895D01*
X57123009Y-211534895D01*
X57027771Y-211582514D01*
X56980152Y-211630133D01*
X56932533Y-211725371D01*
X56932533Y-211915847D01*
X56980152Y-212011085D01*
X57027771Y-212058704D01*
X57123009Y-212106323D01*
X54011580Y-213106323D02*
X54011580Y-212487276D01*
X54392533Y-212820609D01*
X54392533Y-212677752D01*
X54440152Y-212582514D01*
X54487771Y-212534895D01*
X54583009Y-212487276D01*
X54821104Y-212487276D01*
X54916342Y-212534895D01*
X54963961Y-212582514D01*
X55011580Y-212677752D01*
X55011580Y-212963466D01*
X54963961Y-213058704D01*
X54916342Y-213106323D01*
X54011580Y-211582514D02*
X54011580Y-212058704D01*
X54487771Y-212106323D01*
X54440152Y-212058704D01*
X54392533Y-211963466D01*
X54392533Y-211725371D01*
X54440152Y-211630133D01*
X54487771Y-211582514D01*
X54583009Y-211534895D01*
X54821104Y-211534895D01*
X54916342Y-211582514D01*
X54963961Y-211630133D01*
X55011580Y-211725371D01*
X55011580Y-211963466D01*
X54963961Y-212058704D01*
X54916342Y-212106323D01*
X56646819Y-164251514D02*
X56599200Y-164203895D01*
X56551580Y-164108657D01*
X56551580Y-163870561D01*
X56599200Y-163775323D01*
X56646819Y-163727704D01*
X56742057Y-163680085D01*
X56837295Y-163680085D01*
X56980152Y-163727704D01*
X57551580Y-164299133D01*
X57551580Y-163680085D01*
X55011580Y-163680085D02*
X55011580Y-164251514D01*
X55011580Y-163965800D02*
X54011580Y-163965800D01*
X54154438Y-164061038D01*
X54249676Y-164156276D01*
X54297295Y-164251514D01*
X354638401Y-148821236D02*
X354638401Y-147416543D01*
X355173522Y-147416543D01*
X355307302Y-147483433D01*
X355374192Y-147550323D01*
X355441083Y-147684103D01*
X355441083Y-147884774D01*
X355374192Y-148018554D01*
X355307302Y-148085444D01*
X355173522Y-148152334D01*
X354638401Y-148152334D01*
X355976204Y-148754346D02*
X356176874Y-148821236D01*
X356511325Y-148821236D01*
X356645105Y-148754346D01*
X356711995Y-148687456D01*
X356778885Y-148553675D01*
X356778885Y-148419895D01*
X356711995Y-148286115D01*
X356645105Y-148219225D01*
X356511325Y-148152334D01*
X356243764Y-148085444D01*
X356109984Y-148018554D01*
X356043094Y-147951664D01*
X355976204Y-147817884D01*
X355976204Y-147684103D01*
X356043094Y-147550323D01*
X356109984Y-147483433D01*
X356243764Y-147416543D01*
X356578215Y-147416543D01*
X356778885Y-147483433D01*
X358116688Y-148821236D02*
X357314007Y-148821236D01*
X357715347Y-148821236D02*
X357715347Y-147416543D01*
X357581567Y-147617213D01*
X357447787Y-147750994D01*
X357314007Y-147817884D01*
X163897134Y-39539087D02*
X163897134Y-40481977D01*
X163834274Y-40670555D01*
X163708556Y-40796274D01*
X163519978Y-40859134D01*
X163394259Y-40859134D01*
X164400009Y-39539087D02*
X165217181Y-39539087D01*
X164777165Y-40041962D01*
X164965743Y-40041962D01*
X165091462Y-40104821D01*
X165154321Y-40167680D01*
X165217181Y-40293399D01*
X165217181Y-40607696D01*
X165154321Y-40733415D01*
X165091462Y-40796274D01*
X164965743Y-40859134D01*
X164588587Y-40859134D01*
X164462868Y-40796274D01*
X164400009Y-40733415D01*
D10*
X273975533Y-133896180D02*
X273642200Y-133419990D01*
X273404104Y-133896180D02*
X273404104Y-132896180D01*
X273785057Y-132896180D01*
X273880295Y-132943800D01*
X273927914Y-132991419D01*
X273975533Y-133086657D01*
X273975533Y-133229514D01*
X273927914Y-133324752D01*
X273880295Y-133372371D01*
X273785057Y-133419990D01*
X273404104Y-133419990D01*
X274832676Y-132896180D02*
X274642200Y-132896180D01*
X274546961Y-132943800D01*
X274499342Y-132991419D01*
X274404104Y-133134276D01*
X274356485Y-133324752D01*
X274356485Y-133705704D01*
X274404104Y-133800942D01*
X274451723Y-133848561D01*
X274546961Y-133896180D01*
X274737438Y-133896180D01*
X274832676Y-133848561D01*
X274880295Y-133800942D01*
X274927914Y-133705704D01*
X274927914Y-133467609D01*
X274880295Y-133372371D01*
X274832676Y-133324752D01*
X274737438Y-133277133D01*
X274546961Y-133277133D01*
X274451723Y-133324752D01*
X274404104Y-133372371D01*
X274356485Y-133467609D01*
X117819819Y-170145238D02*
X117772200Y-170240476D01*
X117676961Y-170335714D01*
X117534104Y-170478571D01*
X117486485Y-170573809D01*
X117486485Y-170669047D01*
X117724580Y-170621428D02*
X117676961Y-170716666D01*
X117581723Y-170811904D01*
X117391247Y-170859523D01*
X117057914Y-170859523D01*
X116867438Y-170811904D01*
X116772200Y-170716666D01*
X116724580Y-170621428D01*
X116724580Y-170430952D01*
X116772200Y-170335714D01*
X116867438Y-170240476D01*
X117057914Y-170192857D01*
X117391247Y-170192857D01*
X117581723Y-170240476D01*
X117676961Y-170335714D01*
X117724580Y-170430952D01*
X117724580Y-170621428D01*
X116819819Y-169811904D02*
X116772200Y-169764285D01*
X116724580Y-169669047D01*
X116724580Y-169430952D01*
X116772200Y-169335714D01*
X116819819Y-169288095D01*
X116915057Y-169240476D01*
X117010295Y-169240476D01*
X117153152Y-169288095D01*
X117724580Y-169859523D01*
X117724580Y-169240476D01*
D19*
X265560971Y-86377757D02*
X265560971Y-84982269D01*
X266358393Y-86377757D02*
X265760327Y-85580335D01*
X266358393Y-84982269D02*
X265560971Y-85779690D01*
X267554526Y-85447431D02*
X267554526Y-86377757D01*
X267222267Y-84915817D02*
X266890008Y-85912594D01*
X267753881Y-85912594D01*
X263970594Y-39539087D02*
X263970594Y-40481977D01*
X263907734Y-40670555D01*
X263782016Y-40796274D01*
X263593438Y-40859134D01*
X263467719Y-40859134D01*
X265164922Y-39539087D02*
X264913485Y-39539087D01*
X264787766Y-39601946D01*
X264724906Y-39664805D01*
X264599188Y-39853384D01*
X264536328Y-40104821D01*
X264536328Y-40607696D01*
X264599188Y-40733415D01*
X264662047Y-40796274D01*
X264787766Y-40859134D01*
X265039203Y-40859134D01*
X265164922Y-40796274D01*
X265227781Y-40733415D01*
X265290641Y-40607696D01*
X265290641Y-40293399D01*
X265227781Y-40167680D01*
X265164922Y-40104821D01*
X265039203Y-40041962D01*
X264787766Y-40041962D01*
X264662047Y-40104821D01*
X264599188Y-40167680D01*
X264536328Y-40293399D01*
X265276104Y-123820180D02*
X265276104Y-122820180D01*
X265514200Y-122820180D01*
X265657057Y-122867800D01*
X265752295Y-122963038D01*
X265799914Y-123058276D01*
X265847533Y-123248752D01*
X265847533Y-123391609D01*
X265799914Y-123582085D01*
X265752295Y-123677323D01*
X265657057Y-123772561D01*
X265514200Y-123820180D01*
X265276104Y-123820180D01*
X266418961Y-123248752D02*
X266323723Y-123201133D01*
X266276104Y-123153514D01*
X266228485Y-123058276D01*
X266228485Y-123010657D01*
X266276104Y-122915419D01*
X266323723Y-122867800D01*
X266418961Y-122820180D01*
X266609438Y-122820180D01*
X266704676Y-122867800D01*
X266752295Y-122915419D01*
X266799914Y-123010657D01*
X266799914Y-123058276D01*
X266752295Y-123153514D01*
X266704676Y-123201133D01*
X266609438Y-123248752D01*
X266418961Y-123248752D01*
X266323723Y-123296371D01*
X266276104Y-123343990D01*
X266228485Y-123439228D01*
X266228485Y-123629704D01*
X266276104Y-123724942D01*
X266323723Y-123772561D01*
X266418961Y-123820180D01*
X266609438Y-123820180D01*
X266704676Y-123772561D01*
X266752295Y-123724942D01*
X266799914Y-123629704D01*
X266799914Y-123439228D01*
X266752295Y-123343990D01*
X266704676Y-123296371D01*
X266609438Y-123248752D01*
D10*
X258154580Y-118784595D02*
X257154580Y-118784595D01*
X257154580Y-118546500D01*
X257202200Y-118403642D01*
X257297438Y-118308404D01*
X257392676Y-118260785D01*
X257583152Y-118213166D01*
X257726009Y-118213166D01*
X257916485Y-118260785D01*
X258011723Y-118308404D01*
X258106961Y-118403642D01*
X258154580Y-118546500D01*
X258154580Y-118784595D01*
X257154580Y-117879833D02*
X257154580Y-117213166D01*
X258154580Y-117641738D01*
X183018942Y-209092085D02*
X183066561Y-209139704D01*
X183114180Y-209282561D01*
X183114180Y-209377800D01*
X183066561Y-209520657D01*
X182971323Y-209615895D01*
X182876085Y-209663514D01*
X182685609Y-209711133D01*
X182542752Y-209711133D01*
X182352276Y-209663514D01*
X182257038Y-209615895D01*
X182161800Y-209520657D01*
X182114180Y-209377800D01*
X182114180Y-209282561D01*
X182161800Y-209139704D01*
X182209419Y-209092085D01*
X182114180Y-208473038D02*
X182114180Y-208282561D01*
X182161800Y-208187323D01*
X182257038Y-208092085D01*
X182447514Y-208044466D01*
X182780847Y-208044466D01*
X182971323Y-208092085D01*
X183066561Y-208187323D01*
X183114180Y-208282561D01*
X183114180Y-208473038D01*
X183066561Y-208568276D01*
X182971323Y-208663514D01*
X182780847Y-208711133D01*
X182447514Y-208711133D01*
X182257038Y-208663514D01*
X182161800Y-208568276D01*
X182114180Y-208473038D01*
X183114180Y-207615895D02*
X182114180Y-207615895D01*
X183114180Y-207044466D01*
X182114180Y-207044466D01*
X182114180Y-206139704D02*
X182114180Y-206330180D01*
X182161800Y-206425419D01*
X182209419Y-206473038D01*
X182352276Y-206568276D01*
X182542752Y-206615895D01*
X182923704Y-206615895D01*
X183018942Y-206568276D01*
X183066561Y-206520657D01*
X183114180Y-206425419D01*
X183114180Y-206234942D01*
X183066561Y-206139704D01*
X183018942Y-206092085D01*
X182923704Y-206044466D01*
X182685609Y-206044466D01*
X182590371Y-206092085D01*
X182542752Y-206139704D01*
X182495133Y-206234942D01*
X182495133Y-206425419D01*
X182542752Y-206520657D01*
X182590371Y-206568276D01*
X182685609Y-206615895D01*
X124954542Y-209092085D02*
X125002161Y-209139704D01*
X125049780Y-209282561D01*
X125049780Y-209377800D01*
X125002161Y-209520657D01*
X124906923Y-209615895D01*
X124811685Y-209663514D01*
X124621209Y-209711133D01*
X124478352Y-209711133D01*
X124287876Y-209663514D01*
X124192638Y-209615895D01*
X124097400Y-209520657D01*
X124049780Y-209377800D01*
X124049780Y-209282561D01*
X124097400Y-209139704D01*
X124145019Y-209092085D01*
X124049780Y-208473038D02*
X124049780Y-208282561D01*
X124097400Y-208187323D01*
X124192638Y-208092085D01*
X124383114Y-208044466D01*
X124716447Y-208044466D01*
X124906923Y-208092085D01*
X125002161Y-208187323D01*
X125049780Y-208282561D01*
X125049780Y-208473038D01*
X125002161Y-208568276D01*
X124906923Y-208663514D01*
X124716447Y-208711133D01*
X124383114Y-208711133D01*
X124192638Y-208663514D01*
X124097400Y-208568276D01*
X124049780Y-208473038D01*
X125049780Y-207615895D02*
X124049780Y-207615895D01*
X125049780Y-207044466D01*
X124049780Y-207044466D01*
X124049780Y-206663514D02*
X124049780Y-206044466D01*
X124430733Y-206377800D01*
X124430733Y-206234942D01*
X124478352Y-206139704D01*
X124525971Y-206092085D01*
X124621209Y-206044466D01*
X124859304Y-206044466D01*
X124954542Y-206092085D01*
X125002161Y-206139704D01*
X125049780Y-206234942D01*
X125049780Y-206520657D01*
X125002161Y-206615895D01*
X124954542Y-206663514D01*
X199376542Y-209092085D02*
X199424161Y-209139704D01*
X199471780Y-209282561D01*
X199471780Y-209377800D01*
X199424161Y-209520657D01*
X199328923Y-209615895D01*
X199233685Y-209663514D01*
X199043209Y-209711133D01*
X198900352Y-209711133D01*
X198709876Y-209663514D01*
X198614638Y-209615895D01*
X198519400Y-209520657D01*
X198471780Y-209377800D01*
X198471780Y-209282561D01*
X198519400Y-209139704D01*
X198567019Y-209092085D01*
X198471780Y-208473038D02*
X198471780Y-208282561D01*
X198519400Y-208187323D01*
X198614638Y-208092085D01*
X198805114Y-208044466D01*
X199138447Y-208044466D01*
X199328923Y-208092085D01*
X199424161Y-208187323D01*
X199471780Y-208282561D01*
X199471780Y-208473038D01*
X199424161Y-208568276D01*
X199328923Y-208663514D01*
X199138447Y-208711133D01*
X198805114Y-208711133D01*
X198614638Y-208663514D01*
X198519400Y-208568276D01*
X198471780Y-208473038D01*
X199471780Y-207615895D02*
X198471780Y-207615895D01*
X199471780Y-207044466D01*
X198471780Y-207044466D01*
X198471780Y-206663514D02*
X198471780Y-205996847D01*
X199471780Y-206425419D01*
X92334009Y-61796561D02*
X92476866Y-61844180D01*
X92714961Y-61844180D01*
X92810200Y-61796561D01*
X92857819Y-61748942D01*
X92905438Y-61653704D01*
X92905438Y-61558466D01*
X92857819Y-61463228D01*
X92810200Y-61415609D01*
X92714961Y-61367990D01*
X92524485Y-61320371D01*
X92429247Y-61272752D01*
X92381628Y-61225133D01*
X92334009Y-61129895D01*
X92334009Y-61034657D01*
X92381628Y-60939419D01*
X92429247Y-60891800D01*
X92524485Y-60844180D01*
X92762580Y-60844180D01*
X92905438Y-60891800D01*
X93762580Y-61796561D02*
X93667342Y-61844180D01*
X93476866Y-61844180D01*
X93381628Y-61796561D01*
X93334009Y-61748942D01*
X93286390Y-61653704D01*
X93286390Y-61367990D01*
X93334009Y-61272752D01*
X93381628Y-61225133D01*
X93476866Y-61177514D01*
X93667342Y-61177514D01*
X93762580Y-61225133D01*
X94191152Y-61844180D02*
X94191152Y-61177514D01*
X94191152Y-61367990D02*
X94238771Y-61272752D01*
X94286390Y-61225133D01*
X94381628Y-61177514D01*
X94476866Y-61177514D01*
X95191152Y-61796561D02*
X95095914Y-61844180D01*
X94905438Y-61844180D01*
X94810200Y-61796561D01*
X94762580Y-61701323D01*
X94762580Y-61320371D01*
X94810200Y-61225133D01*
X94905438Y-61177514D01*
X95095914Y-61177514D01*
X95191152Y-61225133D01*
X95238771Y-61320371D01*
X95238771Y-61415609D01*
X94762580Y-61510847D01*
X95572104Y-61177514D02*
X95762580Y-61844180D01*
X95953057Y-61367990D01*
X96143533Y-61844180D01*
X96334009Y-61177514D01*
X79505042Y-209104785D02*
X79552661Y-209152404D01*
X79600280Y-209295261D01*
X79600280Y-209390500D01*
X79552661Y-209533357D01*
X79457423Y-209628595D01*
X79362185Y-209676214D01*
X79171709Y-209723833D01*
X79028852Y-209723833D01*
X78838376Y-209676214D01*
X78743138Y-209628595D01*
X78647900Y-209533357D01*
X78600280Y-209390500D01*
X78600280Y-209295261D01*
X78647900Y-209152404D01*
X78695519Y-209104785D01*
X78600280Y-208485738D02*
X78600280Y-208295261D01*
X78647900Y-208200023D01*
X78743138Y-208104785D01*
X78933614Y-208057166D01*
X79266947Y-208057166D01*
X79457423Y-208104785D01*
X79552661Y-208200023D01*
X79600280Y-208295261D01*
X79600280Y-208485738D01*
X79552661Y-208580976D01*
X79457423Y-208676214D01*
X79266947Y-208723833D01*
X78933614Y-208723833D01*
X78743138Y-208676214D01*
X78647900Y-208580976D01*
X78600280Y-208485738D01*
X79600280Y-207628595D02*
X78600280Y-207628595D01*
X79600280Y-207057166D01*
X78600280Y-207057166D01*
X78695519Y-206628595D02*
X78647900Y-206580976D01*
X78600280Y-206485738D01*
X78600280Y-206247642D01*
X78647900Y-206152404D01*
X78695519Y-206104785D01*
X78790757Y-206057166D01*
X78885995Y-206057166D01*
X79028852Y-206104785D01*
X79600280Y-206676214D01*
X79600280Y-206057166D01*
X102221542Y-209092085D02*
X102269161Y-209139704D01*
X102316780Y-209282561D01*
X102316780Y-209377800D01*
X102269161Y-209520657D01*
X102173923Y-209615895D01*
X102078685Y-209663514D01*
X101888209Y-209711133D01*
X101745352Y-209711133D01*
X101554876Y-209663514D01*
X101459638Y-209615895D01*
X101364400Y-209520657D01*
X101316780Y-209377800D01*
X101316780Y-209282561D01*
X101364400Y-209139704D01*
X101412019Y-209092085D01*
X101316780Y-208473038D02*
X101316780Y-208282561D01*
X101364400Y-208187323D01*
X101459638Y-208092085D01*
X101650114Y-208044466D01*
X101983447Y-208044466D01*
X102173923Y-208092085D01*
X102269161Y-208187323D01*
X102316780Y-208282561D01*
X102316780Y-208473038D01*
X102269161Y-208568276D01*
X102173923Y-208663514D01*
X101983447Y-208711133D01*
X101650114Y-208711133D01*
X101459638Y-208663514D01*
X101364400Y-208568276D01*
X101316780Y-208473038D01*
X102316780Y-207615895D02*
X101316780Y-207615895D01*
X102316780Y-207044466D01*
X101316780Y-207044466D01*
X102316780Y-206044466D02*
X102316780Y-206615895D01*
X102316780Y-206330180D02*
X101316780Y-206330180D01*
X101459638Y-206425419D01*
X101554876Y-206520657D01*
X101602495Y-206615895D01*
X315092009Y-95832561D02*
X315234866Y-95880180D01*
X315472961Y-95880180D01*
X315568200Y-95832561D01*
X315615819Y-95784942D01*
X315663438Y-95689704D01*
X315663438Y-95594466D01*
X315615819Y-95499228D01*
X315568200Y-95451609D01*
X315472961Y-95403990D01*
X315282485Y-95356371D01*
X315187247Y-95308752D01*
X315139628Y-95261133D01*
X315092009Y-95165895D01*
X315092009Y-95070657D01*
X315139628Y-94975419D01*
X315187247Y-94927800D01*
X315282485Y-94880180D01*
X315520580Y-94880180D01*
X315663438Y-94927800D01*
X316520580Y-95832561D02*
X316425342Y-95880180D01*
X316234866Y-95880180D01*
X316139628Y-95832561D01*
X316092009Y-95784942D01*
X316044390Y-95689704D01*
X316044390Y-95403990D01*
X316092009Y-95308752D01*
X316139628Y-95261133D01*
X316234866Y-95213514D01*
X316425342Y-95213514D01*
X316520580Y-95261133D01*
X316949152Y-95880180D02*
X316949152Y-95213514D01*
X316949152Y-95403990D02*
X316996771Y-95308752D01*
X317044390Y-95261133D01*
X317139628Y-95213514D01*
X317234866Y-95213514D01*
X317949152Y-95832561D02*
X317853914Y-95880180D01*
X317663438Y-95880180D01*
X317568200Y-95832561D01*
X317520580Y-95737323D01*
X317520580Y-95356371D01*
X317568200Y-95261133D01*
X317663438Y-95213514D01*
X317853914Y-95213514D01*
X317949152Y-95261133D01*
X317996771Y-95356371D01*
X317996771Y-95451609D01*
X317520580Y-95546847D01*
X318330104Y-95213514D02*
X318520580Y-95880180D01*
X318711057Y-95403990D01*
X318901533Y-95880180D01*
X319092009Y-95213514D01*
X68470709Y-148397861D02*
X68613566Y-148445480D01*
X68851661Y-148445480D01*
X68946900Y-148397861D01*
X68994519Y-148350242D01*
X69042138Y-148255004D01*
X69042138Y-148159766D01*
X68994519Y-148064528D01*
X68946900Y-148016909D01*
X68851661Y-147969290D01*
X68661185Y-147921671D01*
X68565947Y-147874052D01*
X68518328Y-147826433D01*
X68470709Y-147731195D01*
X68470709Y-147635957D01*
X68518328Y-147540719D01*
X68565947Y-147493100D01*
X68661185Y-147445480D01*
X68899280Y-147445480D01*
X69042138Y-147493100D01*
X69899280Y-148397861D02*
X69804042Y-148445480D01*
X69613566Y-148445480D01*
X69518328Y-148397861D01*
X69470709Y-148350242D01*
X69423090Y-148255004D01*
X69423090Y-147969290D01*
X69470709Y-147874052D01*
X69518328Y-147826433D01*
X69613566Y-147778814D01*
X69804042Y-147778814D01*
X69899280Y-147826433D01*
X70327852Y-148445480D02*
X70327852Y-147778814D01*
X70327852Y-147969290D02*
X70375471Y-147874052D01*
X70423090Y-147826433D01*
X70518328Y-147778814D01*
X70613566Y-147778814D01*
X71327852Y-148397861D02*
X71232614Y-148445480D01*
X71042138Y-148445480D01*
X70946900Y-148397861D01*
X70899280Y-148302623D01*
X70899280Y-147921671D01*
X70946900Y-147826433D01*
X71042138Y-147778814D01*
X71232614Y-147778814D01*
X71327852Y-147826433D01*
X71375471Y-147921671D01*
X71375471Y-148016909D01*
X70899280Y-148112147D01*
X71708804Y-147778814D02*
X71899280Y-148445480D01*
X72089757Y-147969290D01*
X72280233Y-148445480D01*
X72470709Y-147778814D01*
X359046709Y-211135861D02*
X359189566Y-211183480D01*
X359427661Y-211183480D01*
X359522900Y-211135861D01*
X359570519Y-211088242D01*
X359618138Y-210993004D01*
X359618138Y-210897766D01*
X359570519Y-210802528D01*
X359522900Y-210754909D01*
X359427661Y-210707290D01*
X359237185Y-210659671D01*
X359141947Y-210612052D01*
X359094328Y-210564433D01*
X359046709Y-210469195D01*
X359046709Y-210373957D01*
X359094328Y-210278719D01*
X359141947Y-210231100D01*
X359237185Y-210183480D01*
X359475280Y-210183480D01*
X359618138Y-210231100D01*
X360475280Y-211135861D02*
X360380042Y-211183480D01*
X360189566Y-211183480D01*
X360094328Y-211135861D01*
X360046709Y-211088242D01*
X359999090Y-210993004D01*
X359999090Y-210707290D01*
X360046709Y-210612052D01*
X360094328Y-210564433D01*
X360189566Y-210516814D01*
X360380042Y-210516814D01*
X360475280Y-210564433D01*
X360903852Y-211183480D02*
X360903852Y-210516814D01*
X360903852Y-210707290D02*
X360951471Y-210612052D01*
X360999090Y-210564433D01*
X361094328Y-210516814D01*
X361189566Y-210516814D01*
X361903852Y-211135861D02*
X361808614Y-211183480D01*
X361618138Y-211183480D01*
X361522900Y-211135861D01*
X361475280Y-211040623D01*
X361475280Y-210659671D01*
X361522900Y-210564433D01*
X361618138Y-210516814D01*
X361808614Y-210516814D01*
X361903852Y-210564433D01*
X361951471Y-210659671D01*
X361951471Y-210754909D01*
X361475280Y-210850147D01*
X362284804Y-210516814D02*
X362475280Y-211183480D01*
X362665757Y-210707290D01*
X362856233Y-211183480D01*
X363046709Y-210516814D01*
X173505833Y-133908880D02*
X173172500Y-133432690D01*
X172934404Y-133908880D02*
X172934404Y-132908880D01*
X173315357Y-132908880D01*
X173410595Y-132956500D01*
X173458214Y-133004119D01*
X173505833Y-133099357D01*
X173505833Y-133242214D01*
X173458214Y-133337452D01*
X173410595Y-133385071D01*
X173315357Y-133432690D01*
X172934404Y-133432690D01*
X174362976Y-133242214D02*
X174362976Y-133908880D01*
X174124880Y-132861261D02*
X173886785Y-133575547D01*
X174505833Y-133575547D01*
D19*
X115784404Y-123578880D02*
X115784404Y-122578880D01*
X116022500Y-122578880D01*
X116165357Y-122626500D01*
X116260595Y-122721738D01*
X116308214Y-122816976D01*
X116355833Y-123007452D01*
X116355833Y-123150309D01*
X116308214Y-123340785D01*
X116260595Y-123436023D01*
X116165357Y-123531261D01*
X116022500Y-123578880D01*
X115784404Y-123578880D01*
X116736785Y-122674119D02*
X116784404Y-122626500D01*
X116879642Y-122578880D01*
X117117738Y-122578880D01*
X117212976Y-122626500D01*
X117260595Y-122674119D01*
X117308214Y-122769357D01*
X117308214Y-122864595D01*
X117260595Y-123007452D01*
X116689166Y-123578880D01*
X117308214Y-123578880D01*
D10*
X224051833Y-133908880D02*
X223718500Y-133432690D01*
X223480404Y-133908880D02*
X223480404Y-132908880D01*
X223861357Y-132908880D01*
X223956595Y-132956500D01*
X224004214Y-133004119D01*
X224051833Y-133099357D01*
X224051833Y-133242214D01*
X224004214Y-133337452D01*
X223956595Y-133385071D01*
X223861357Y-133432690D01*
X223480404Y-133432690D01*
X224956595Y-132908880D02*
X224480404Y-132908880D01*
X224432785Y-133385071D01*
X224480404Y-133337452D01*
X224575642Y-133289833D01*
X224813738Y-133289833D01*
X224908976Y-133337452D01*
X224956595Y-133385071D01*
X225004214Y-133480309D01*
X225004214Y-133718404D01*
X224956595Y-133813642D01*
X224908976Y-133861261D01*
X224813738Y-133908880D01*
X224575642Y-133908880D01*
X224480404Y-133861261D01*
X224432785Y-133813642D01*
X122705833Y-133908880D02*
X122372500Y-133432690D01*
X122134404Y-133908880D02*
X122134404Y-132908880D01*
X122515357Y-132908880D01*
X122610595Y-132956500D01*
X122658214Y-133004119D01*
X122705833Y-133099357D01*
X122705833Y-133242214D01*
X122658214Y-133337452D01*
X122610595Y-133385071D01*
X122515357Y-133432690D01*
X122134404Y-133432690D01*
X123039166Y-132908880D02*
X123658214Y-132908880D01*
X123324880Y-133289833D01*
X123467738Y-133289833D01*
X123562976Y-133337452D01*
X123610595Y-133385071D01*
X123658214Y-133480309D01*
X123658214Y-133718404D01*
X123610595Y-133813642D01*
X123562976Y-133861261D01*
X123467738Y-133908880D01*
X123182023Y-133908880D01*
X123086785Y-133861261D01*
X123039166Y-133813642D01*
D19*
X215352404Y-124086880D02*
X215352404Y-123086880D01*
X215590500Y-123086880D01*
X215733357Y-123134500D01*
X215828595Y-123229738D01*
X215876214Y-123324976D01*
X215923833Y-123515452D01*
X215923833Y-123658309D01*
X215876214Y-123848785D01*
X215828595Y-123944023D01*
X215733357Y-124039261D01*
X215590500Y-124086880D01*
X215352404Y-124086880D01*
X216780976Y-123086880D02*
X216590500Y-123086880D01*
X216495261Y-123134500D01*
X216447642Y-123182119D01*
X216352404Y-123324976D01*
X216304785Y-123515452D01*
X216304785Y-123896404D01*
X216352404Y-123991642D01*
X216400023Y-124039261D01*
X216495261Y-124086880D01*
X216685738Y-124086880D01*
X216780976Y-124039261D01*
X216828595Y-123991642D01*
X216876214Y-123896404D01*
X216876214Y-123658309D01*
X216828595Y-123563071D01*
X216780976Y-123515452D01*
X216685738Y-123467833D01*
X216495261Y-123467833D01*
X216400023Y-123515452D01*
X216352404Y-123563071D01*
X216304785Y-123658309D01*
X165568404Y-123832880D02*
X165568404Y-122832880D01*
X165806500Y-122832880D01*
X165949357Y-122880500D01*
X166044595Y-122975738D01*
X166092214Y-123070976D01*
X166139833Y-123261452D01*
X166139833Y-123404309D01*
X166092214Y-123594785D01*
X166044595Y-123690023D01*
X165949357Y-123785261D01*
X165806500Y-123832880D01*
X165568404Y-123832880D01*
X166996976Y-123166214D02*
X166996976Y-123832880D01*
X166758880Y-122785261D02*
X166520785Y-123499547D01*
X167139833Y-123499547D01*
D10*
X234302380Y-187613000D02*
X233826190Y-187946333D01*
X234302380Y-188184428D02*
X233302380Y-188184428D01*
X233302380Y-187803476D01*
X233350000Y-187708238D01*
X233397619Y-187660619D01*
X233492857Y-187613000D01*
X233635714Y-187613000D01*
X233730952Y-187660619D01*
X233778571Y-187708238D01*
X233826190Y-187803476D01*
X233826190Y-188184428D01*
X234302380Y-186708238D02*
X234302380Y-187184428D01*
X233302380Y-187184428D01*
X233826190Y-186184428D02*
X234302380Y-186184428D01*
X233302380Y-186517761D02*
X233826190Y-186184428D01*
X233302380Y-185851095D01*
X234302380Y-184993952D02*
X234302380Y-185565380D01*
X234302380Y-185279666D02*
X233302380Y-185279666D01*
X233445238Y-185374904D01*
X233540476Y-185470142D01*
X233588095Y-185565380D01*
X108646933Y-191798380D02*
X108313600Y-191322190D01*
X108075504Y-191798380D02*
X108075504Y-190798380D01*
X108456457Y-190798380D01*
X108551695Y-190846000D01*
X108599314Y-190893619D01*
X108646933Y-190988857D01*
X108646933Y-191131714D01*
X108599314Y-191226952D01*
X108551695Y-191274571D01*
X108456457Y-191322190D01*
X108075504Y-191322190D01*
X109027885Y-190893619D02*
X109075504Y-190846000D01*
X109170742Y-190798380D01*
X109408838Y-190798380D01*
X109504076Y-190846000D01*
X109551695Y-190893619D01*
X109599314Y-190988857D01*
X109599314Y-191084095D01*
X109551695Y-191226952D01*
X108980266Y-191798380D01*
X109599314Y-191798380D01*
X73634680Y-207875166D02*
X73158490Y-208208500D01*
X73634680Y-208446595D02*
X72634680Y-208446595D01*
X72634680Y-208065642D01*
X72682300Y-207970404D01*
X72729919Y-207922785D01*
X72825157Y-207875166D01*
X72968014Y-207875166D01*
X73063252Y-207922785D01*
X73110871Y-207970404D01*
X73158490Y-208065642D01*
X73158490Y-208446595D01*
X73634680Y-206922785D02*
X73634680Y-207494214D01*
X73634680Y-207208500D02*
X72634680Y-207208500D01*
X72777538Y-207303738D01*
X72872776Y-207398976D01*
X72920395Y-207494214D01*
X83783819Y-170145238D02*
X83736200Y-170240476D01*
X83640961Y-170335714D01*
X83498104Y-170478571D01*
X83450485Y-170573809D01*
X83450485Y-170669047D01*
X83688580Y-170621428D02*
X83640961Y-170716666D01*
X83545723Y-170811904D01*
X83355247Y-170859523D01*
X83021914Y-170859523D01*
X82831438Y-170811904D01*
X82736200Y-170716666D01*
X82688580Y-170621428D01*
X82688580Y-170430952D01*
X82736200Y-170335714D01*
X82831438Y-170240476D01*
X83021914Y-170192857D01*
X83355247Y-170192857D01*
X83545723Y-170240476D01*
X83640961Y-170335714D01*
X83688580Y-170430952D01*
X83688580Y-170621428D01*
X83688580Y-169240476D02*
X83688580Y-169811904D01*
X83688580Y-169526190D02*
X82688580Y-169526190D01*
X82831438Y-169621428D01*
X82926676Y-169716666D01*
X82974295Y-169811904D01*
D19*
X165167471Y-86377757D02*
X165167471Y-84982269D01*
X165964893Y-86377757D02*
X165366827Y-85580335D01*
X165964893Y-84982269D02*
X165167471Y-85779690D01*
X166496508Y-85115172D02*
X166562959Y-85048721D01*
X166695863Y-84982269D01*
X167028122Y-84982269D01*
X167161026Y-85048721D01*
X167227478Y-85115172D01*
X167293929Y-85248076D01*
X167293929Y-85380980D01*
X167227478Y-85580335D01*
X166430056Y-86377757D01*
X167293929Y-86377757D01*
X114875471Y-86377757D02*
X114875471Y-84982269D01*
X115672893Y-86377757D02*
X115074827Y-85580335D01*
X115672893Y-84982269D02*
X114875471Y-85779690D01*
X117001929Y-86377757D02*
X116204508Y-86377757D01*
X116603219Y-86377757D02*
X116603219Y-84982269D01*
X116470315Y-85181624D01*
X116337411Y-85314528D01*
X116204508Y-85380980D01*
X213935134Y-39539087D02*
X213935134Y-40481977D01*
X213872274Y-40670555D01*
X213746556Y-40796274D01*
X213557978Y-40859134D01*
X213432259Y-40859134D01*
X215192321Y-39539087D02*
X214563728Y-39539087D01*
X214500868Y-40167680D01*
X214563728Y-40104821D01*
X214689446Y-40041962D01*
X215003743Y-40041962D01*
X215129462Y-40104821D01*
X215192321Y-40167680D01*
X215255181Y-40293399D01*
X215255181Y-40607696D01*
X215192321Y-40733415D01*
X215129462Y-40796274D01*
X215003743Y-40859134D01*
X214689446Y-40859134D01*
X214563728Y-40796274D01*
X214500868Y-40733415D01*
X113859134Y-39539087D02*
X113859134Y-40481977D01*
X113796274Y-40670555D01*
X113670556Y-40796274D01*
X113481978Y-40859134D01*
X113356259Y-40859134D01*
X114424868Y-39664805D02*
X114487728Y-39601946D01*
X114613446Y-39539087D01*
X114927743Y-39539087D01*
X115053462Y-39601946D01*
X115116321Y-39664805D01*
X115179181Y-39790524D01*
X115179181Y-39916243D01*
X115116321Y-40104821D01*
X114362009Y-40859134D01*
X115179181Y-40859134D01*
D10*
X208484880Y-118784595D02*
X207484880Y-118784595D01*
X207484880Y-118546500D01*
X207532500Y-118403642D01*
X207627738Y-118308404D01*
X207722976Y-118260785D01*
X207913452Y-118213166D01*
X208056309Y-118213166D01*
X208246785Y-118260785D01*
X208342023Y-118308404D01*
X208437261Y-118403642D01*
X208484880Y-118546500D01*
X208484880Y-118784595D01*
X207484880Y-117308404D02*
X207484880Y-117784595D01*
X207961071Y-117832214D01*
X207913452Y-117784595D01*
X207865833Y-117689357D01*
X207865833Y-117451261D01*
X207913452Y-117356023D01*
X207961071Y-117308404D01*
X208056309Y-117260785D01*
X208294404Y-117260785D01*
X208389642Y-117308404D01*
X208437261Y-117356023D01*
X208484880Y-117451261D01*
X208484880Y-117689357D01*
X208437261Y-117784595D01*
X208389642Y-117832214D01*
X158192880Y-118784595D02*
X157192880Y-118784595D01*
X157192880Y-118546500D01*
X157240500Y-118403642D01*
X157335738Y-118308404D01*
X157430976Y-118260785D01*
X157621452Y-118213166D01*
X157764309Y-118213166D01*
X157954785Y-118260785D01*
X158050023Y-118308404D01*
X158145261Y-118403642D01*
X158192880Y-118546500D01*
X158192880Y-118784595D01*
X157192880Y-117879833D02*
X157192880Y-117260785D01*
X157573833Y-117594119D01*
X157573833Y-117451261D01*
X157621452Y-117356023D01*
X157669071Y-117308404D01*
X157764309Y-117260785D01*
X158002404Y-117260785D01*
X158097642Y-117308404D01*
X158145261Y-117356023D01*
X158192880Y-117451261D01*
X158192880Y-117736976D01*
X158145261Y-117832214D01*
X158097642Y-117879833D01*
X107392880Y-118530595D02*
X106392880Y-118530595D01*
X106392880Y-118292500D01*
X106440500Y-118149642D01*
X106535738Y-118054404D01*
X106630976Y-118006785D01*
X106821452Y-117959166D01*
X106964309Y-117959166D01*
X107154785Y-118006785D01*
X107250023Y-118054404D01*
X107345261Y-118149642D01*
X107392880Y-118292500D01*
X107392880Y-118530595D01*
X107392880Y-117006785D02*
X107392880Y-117578214D01*
X107392880Y-117292500D02*
X106392880Y-117292500D01*
X106535738Y-117387738D01*
X106630976Y-117482976D01*
X106678595Y-117578214D01*
X222084142Y-209041285D02*
X222131761Y-209088904D01*
X222179380Y-209231761D01*
X222179380Y-209327000D01*
X222131761Y-209469857D01*
X222036523Y-209565095D01*
X221941285Y-209612714D01*
X221750809Y-209660333D01*
X221607952Y-209660333D01*
X221417476Y-209612714D01*
X221322238Y-209565095D01*
X221227000Y-209469857D01*
X221179380Y-209327000D01*
X221179380Y-209231761D01*
X221227000Y-209088904D01*
X221274619Y-209041285D01*
X221179380Y-208422238D02*
X221179380Y-208231761D01*
X221227000Y-208136523D01*
X221322238Y-208041285D01*
X221512714Y-207993666D01*
X221846047Y-207993666D01*
X222036523Y-208041285D01*
X222131761Y-208136523D01*
X222179380Y-208231761D01*
X222179380Y-208422238D01*
X222131761Y-208517476D01*
X222036523Y-208612714D01*
X221846047Y-208660333D01*
X221512714Y-208660333D01*
X221322238Y-208612714D01*
X221227000Y-208517476D01*
X221179380Y-208422238D01*
X222179380Y-207565095D02*
X221179380Y-207565095D01*
X222179380Y-206993666D01*
X221179380Y-206993666D01*
X221607952Y-206374619D02*
X221560333Y-206469857D01*
X221512714Y-206517476D01*
X221417476Y-206565095D01*
X221369857Y-206565095D01*
X221274619Y-206517476D01*
X221227000Y-206469857D01*
X221179380Y-206374619D01*
X221179380Y-206184142D01*
X221227000Y-206088904D01*
X221274619Y-206041285D01*
X221369857Y-205993666D01*
X221417476Y-205993666D01*
X221512714Y-206041285D01*
X221560333Y-206088904D01*
X221607952Y-206184142D01*
X221607952Y-206374619D01*
X221655571Y-206469857D01*
X221703190Y-206517476D01*
X221798428Y-206565095D01*
X221988904Y-206565095D01*
X222084142Y-206517476D01*
X222131761Y-206469857D01*
X222179380Y-206374619D01*
X222179380Y-206184142D01*
X222131761Y-206088904D01*
X222084142Y-206041285D01*
X221988904Y-205993666D01*
X221798428Y-205993666D01*
X221703190Y-206041285D01*
X221655571Y-206088904D01*
X221607952Y-206184142D01*
X141210542Y-209092085D02*
X141258161Y-209139704D01*
X141305780Y-209282561D01*
X141305780Y-209377800D01*
X141258161Y-209520657D01*
X141162923Y-209615895D01*
X141067685Y-209663514D01*
X140877209Y-209711133D01*
X140734352Y-209711133D01*
X140543876Y-209663514D01*
X140448638Y-209615895D01*
X140353400Y-209520657D01*
X140305780Y-209377800D01*
X140305780Y-209282561D01*
X140353400Y-209139704D01*
X140401019Y-209092085D01*
X140305780Y-208473038D02*
X140305780Y-208282561D01*
X140353400Y-208187323D01*
X140448638Y-208092085D01*
X140639114Y-208044466D01*
X140972447Y-208044466D01*
X141162923Y-208092085D01*
X141258161Y-208187323D01*
X141305780Y-208282561D01*
X141305780Y-208473038D01*
X141258161Y-208568276D01*
X141162923Y-208663514D01*
X140972447Y-208711133D01*
X140639114Y-208711133D01*
X140448638Y-208663514D01*
X140353400Y-208568276D01*
X140305780Y-208473038D01*
X141305780Y-207615895D02*
X140305780Y-207615895D01*
X141305780Y-207044466D01*
X140305780Y-207044466D01*
X140639114Y-206139704D02*
X141305780Y-206139704D01*
X140258161Y-206377800D02*
X140972447Y-206615895D01*
X140972447Y-205996847D01*
X166661342Y-209092085D02*
X166708961Y-209139704D01*
X166756580Y-209282561D01*
X166756580Y-209377800D01*
X166708961Y-209520657D01*
X166613723Y-209615895D01*
X166518485Y-209663514D01*
X166328009Y-209711133D01*
X166185152Y-209711133D01*
X165994676Y-209663514D01*
X165899438Y-209615895D01*
X165804200Y-209520657D01*
X165756580Y-209377800D01*
X165756580Y-209282561D01*
X165804200Y-209139704D01*
X165851819Y-209092085D01*
X165756580Y-208473038D02*
X165756580Y-208282561D01*
X165804200Y-208187323D01*
X165899438Y-208092085D01*
X166089914Y-208044466D01*
X166423247Y-208044466D01*
X166613723Y-208092085D01*
X166708961Y-208187323D01*
X166756580Y-208282561D01*
X166756580Y-208473038D01*
X166708961Y-208568276D01*
X166613723Y-208663514D01*
X166423247Y-208711133D01*
X166089914Y-208711133D01*
X165899438Y-208663514D01*
X165804200Y-208568276D01*
X165756580Y-208473038D01*
X166756580Y-207615895D02*
X165756580Y-207615895D01*
X166756580Y-207044466D01*
X165756580Y-207044466D01*
X165756580Y-206092085D02*
X165756580Y-206568276D01*
X166232771Y-206615895D01*
X166185152Y-206568276D01*
X166137533Y-206473038D01*
X166137533Y-206234942D01*
X166185152Y-206139704D01*
X166232771Y-206092085D01*
X166328009Y-206044466D01*
X166566104Y-206044466D01*
X166661342Y-206092085D01*
X166708961Y-206139704D01*
X166756580Y-206234942D01*
X166756580Y-206473038D01*
X166708961Y-206568276D01*
X166661342Y-206615895D01*
M02*
