M48
; DRILL file {KiCad 5.1.5-52549c5~84~ubuntu18.04.1} date Thu 20 Feb 2020 07:04:46 PM EST
; FORMAT={-:-/ absolute / inch / decimal}
; #@! TF.CreationDate,2020-02-20T19:04:46-05:00
; #@! TF.GenerationSoftware,Kicad,Pcbnew,5.1.5-52549c5~84~ubuntu18.04.1
FMAT,2
INCH
T1C0.0315
T2C0.0323
T3C0.0394
T4C0.0402
T5C0.0433
T6C0.0461
T7C0.0494
T8C0.0709
T9C0.0811
T10C0.0862
T11C0.1000
T12C0.1260
T13C0.0472
T14C0.1378
%
G90
G05
T1
X8.925Y-7.095
X8.925Y-7.295
X8.925Y-7.395
X8.925Y-7.495
X9.125Y-7.095
X9.125Y-7.295
X9.125Y-7.395
X9.125Y-7.495
X8.6275Y-5.3475
X9.0275Y-5.3475
X4.6375Y-5.3475
X5.0375Y-5.3475
X6.6375Y-5.3475
X7.0375Y-5.3475
X4.084Y-7.44
X4.484Y-7.44
X2.9745Y-7.9775
X2.9745Y-8.3775
X10.593Y-5.347
X10.993Y-5.347
T2
X6.5586Y-5.0575
X6.6964Y-5.0575
X8.5386Y-5.0575
X8.6764Y-5.0575
X10.5141Y-5.057
X10.6519Y-5.057
X4.5786Y-5.0575
X4.7164Y-5.0575
T3
X3.403Y-6.55
X3.403Y-6.85
X3.503Y-6.55
X3.503Y-6.85
X3.603Y-6.55
X3.603Y-6.85
X3.703Y-6.55
X3.703Y-6.85
X3.803Y-6.55
X3.803Y-6.85
X3.903Y-6.55
X3.903Y-6.85
X4.003Y-6.55
X4.003Y-6.85
X4.103Y-6.55
X4.103Y-6.85
X4.743Y-6.55
X4.743Y-6.85
X4.843Y-6.55
X4.843Y-6.85
X4.943Y-6.55
X4.943Y-6.85
X5.043Y-6.55
X5.043Y-6.85
X5.143Y-6.55
X5.143Y-6.85
X5.243Y-6.55
X5.243Y-6.85
X5.343Y-6.55
X5.343Y-6.85
X5.443Y-6.55
X5.443Y-6.85
T4
X2.173Y-6.577
X2.173Y-6.677
X2.173Y-6.777
X2.173Y-6.877
X2.173Y-6.977
X2.173Y-7.077
X2.173Y-7.177
X2.173Y-7.277
X2.173Y-7.377
X2.173Y-7.477
X2.173Y-7.577
X2.173Y-7.677
X2.173Y-7.777
X2.173Y-7.877
X2.173Y-7.977
X2.173Y-8.077
X2.173Y-8.177
X2.173Y-8.277
X2.273Y-6.577
X2.273Y-6.677
X2.273Y-6.777
X2.273Y-6.877
X2.273Y-6.977
X2.273Y-7.077
X2.273Y-7.177
X2.273Y-7.277
X2.273Y-7.377
X2.273Y-7.477
X2.273Y-7.577
X2.273Y-7.677
X2.273Y-7.777
X2.273Y-7.877
X2.273Y-7.977
X2.273Y-8.077
X2.273Y-8.177
X2.273Y-8.277
T5
X8.2875Y-4.4475
X8.2875Y-4.8475
X6.3075Y-4.4475
X6.3075Y-4.8475
X11.7239Y-7.2987
X11.7239Y-7.5153
X14.1255Y-7.1609
X14.1255Y-7.5153
X4.3075Y-4.4375
X4.3075Y-4.8375
X10.243Y-4.4475
X10.243Y-4.8475
T6
X10.64Y-4.4475
X11.04Y-4.4475
X6.6875Y-4.4475
X7.0875Y-4.4475
X4.7075Y-4.4475
X5.1075Y-4.4475
X8.6775Y-4.4475
X9.0775Y-4.4475
T7
X12.343Y-5.257
X12.343Y-5.657
X14.143Y-4.857
X14.143Y-5.657
T8
X13.843Y-2.4988
X13.843Y-2.7744
X13.843Y-3.05
T9
X6.5375Y-3.9475
X4.5575Y-3.9475
X8.5275Y-3.9475
X10.49Y-3.9475
T10
X11.19Y-3.8475
X7.2375Y-3.8475
X5.2575Y-3.8475
X9.2275Y-3.8475
T11
X6.6675Y-2.2383
X6.9175Y-2.4032
X7.1675Y-2.2383
X4.6975Y-2.2383
X4.9475Y-2.4032
X5.1975Y-2.2383
X8.6375Y-2.2383
X8.8875Y-2.4032
X9.1375Y-2.2383
X10.6074Y-2.2383
X10.8574Y-2.4032
X11.1074Y-2.2383
T12
X14.223Y-8.167
X12.488Y-3.627
X2.778Y-5.687
X3.723Y-2.277
T13
X5.6241Y-8.2039
X5.6241Y-8.3023
X5.821Y-8.007
X6.0179Y-8.2039
X6.0179Y-8.3023
X8.8081Y-8.2019
X8.8081Y-8.3003
X9.005Y-8.005
X9.2019Y-8.2019
X9.2019Y-8.3003
X6.6261Y-8.2039
X6.6261Y-8.3023
X6.823Y-8.007
X7.0199Y-8.2039
X7.0199Y-8.3023
X4.0891Y-8.2039
X4.0891Y-8.3023
X4.286Y-8.007
X4.4829Y-8.2039
X4.4829Y-8.3023
X3.1948Y-8.2044
X3.1948Y-8.3028
X3.3916Y-8.0075
X3.5885Y-8.2044
X3.5885Y-8.3028
X7.9141Y-8.2039
X7.9141Y-8.3023
X8.111Y-8.007
X8.3079Y-8.2039
X8.3079Y-8.3023
X4.9841Y-8.2039
X4.9841Y-8.3023
X5.181Y-8.007
X5.3779Y-8.2039
X5.3779Y-8.3023
X7.2701Y-8.2039
X7.2701Y-8.3023
X7.467Y-8.007
X7.6639Y-8.2039
X7.6639Y-8.3023
T14
X14.1304Y-1.9969
X14.1304Y-3.552
T1
G00X8.8081Y-8.0188
M15
G01X8.8081Y-7.9912
M16
G05
G00X8.9912Y-8.2019
M15
G01X9.0188Y-8.2019
M16
G05
G00X9.2019Y-8.0188
M15
G01X9.2019Y-7.9912
M16
G05
G00X6.6261Y-8.0208
M15
G01X6.6261Y-7.9932
M16
G05
G00X6.8092Y-8.2039
M15
G01X6.8368Y-8.2039
M16
G05
G00X7.0199Y-8.0208
M15
G01X7.0199Y-7.9932
M16
G05
G00X4.0891Y-8.0208
M15
G01X4.0891Y-7.9932
M16
G05
G00X4.2722Y-8.2039
M15
G01X4.2998Y-8.2039
M16
G05
G00X4.4829Y-8.0208
M15
G01X4.4829Y-7.9932
M16
G05
G00X3.1948Y-8.0213
M15
G01X3.1948Y-7.9937
M16
G05
G00X3.3779Y-8.2044
M15
G01X3.4054Y-8.2044
M16
G05
G00X3.5885Y-8.0213
M15
G01X3.5885Y-7.9937
M16
G05
G00X7.9141Y-8.0208
M15
G01X7.9141Y-7.9932
M16
G05
G00X8.0972Y-8.2039
M15
G01X8.1248Y-8.2039
M16
G05
G00X8.3079Y-8.0208
M15
G01X8.3079Y-7.9932
M16
G05
G00X4.9841Y-8.0208
M15
G01X4.9841Y-7.9932
M16
G05
G00X5.1672Y-8.2039
M15
G01X5.1948Y-8.2039
M16
G05
G00X5.3779Y-8.0208
M15
G01X5.3779Y-7.9932
M16
G05
G00X7.2701Y-8.0208
M15
G01X7.2701Y-7.9932
M16
G05
G00X7.4532Y-8.2039
M15
G01X7.4808Y-8.2039
M16
G05
G00X7.6639Y-8.0208
M15
G01X7.6639Y-7.9932
M16
G05
G00X5.6241Y-8.0208
M15
G01X5.6241Y-7.9932
M16
G05
G00X5.8072Y-8.2039
M15
G01X5.8348Y-8.2039
M16
G05
G00X6.0179Y-8.0208
M15
G01X6.0179Y-7.9932
M16
G05
T0
M30
