G04 #@! TF.GenerationSoftware,KiCad,Pcbnew,5.1.5-52549c5~84~ubuntu18.04.1*
G04 #@! TF.CreationDate,2020-02-03T02:30:07-05:00*
G04 #@! TF.ProjectId,cropdroid-reservoir,63726f70-6472-46f6-9964-2d7265736572,v1*
G04 #@! TF.SameCoordinates,Original*
G04 #@! TF.FileFunction,Copper,L1,Top*
G04 #@! TF.FilePolarity,Positive*
%FSLAX46Y46*%
G04 Gerber Fmt 4.6, Leading zero omitted, Abs format (unit mm)*
G04 Created by KiCad (PCBNEW 5.1.5-52549c5~84~ubuntu18.04.1) date 2020-02-03 02:30:07*
%MOMM*%
%LPD*%
G04 APERTURE LIST*
%ADD10R,2.500000X2.500000*%
%ADD11C,2.500000*%
%ADD12R,1.800000X2.500000*%
%ADD13R,2.500000X1.800000*%
%ADD14C,2.100000*%
%ADD15C,1.620010*%
%ADD16R,2.600000X2.000000*%
%ADD17R,2.000000X2.600000*%
%ADD18C,1.760000*%
%ADD19R,1.760000X1.760000*%
%ADD20C,3.090000*%
%ADD21C,3.290000*%
%ADD22R,1.600000X1.600000*%
%ADD23C,1.600000*%
%ADD24O,1.400000X1.400000*%
%ADD25C,1.400000*%
%ADD26C,1.800000*%
%ADD27R,1.800000X1.800000*%
%ADD28C,0.254000*%
%ADD29C,2.794000*%
G04 APERTURE END LIST*
D10*
X117856000Y-67056000D03*
D11*
X112856000Y-67056000D03*
D12*
X106506000Y-120396000D03*
X116506000Y-120396000D03*
D13*
X111506000Y-125396000D03*
X127000000Y-125396000D03*
D12*
X132000000Y-120396000D03*
X122000000Y-120396000D03*
X137494000Y-120396000D03*
X147494000Y-120396000D03*
D13*
X142494000Y-125396000D03*
D12*
X152734000Y-120396000D03*
X162734000Y-120396000D03*
D13*
X157734000Y-125396000D03*
X173482000Y-125142000D03*
D12*
X178482000Y-120142000D03*
X168482000Y-120142000D03*
D14*
X201422000Y-113792000D03*
X203962000Y-113792000D03*
X206502000Y-113792000D03*
D11*
X144606000Y-67310000D03*
D10*
X149606000Y-67310000D03*
X181102000Y-67056000D03*
D11*
X176102000Y-67056000D03*
D15*
X66802000Y-74930000D03*
X69342000Y-74930000D03*
X66802000Y-77470000D03*
X69342000Y-77470000D03*
X66802000Y-80010000D03*
X69342000Y-80010000D03*
X66802000Y-82550000D03*
X69342000Y-82550000D03*
X66802000Y-85090000D03*
X69342000Y-85090000D03*
X66802000Y-87630000D03*
X69342000Y-87630000D03*
X66802000Y-90170000D03*
X69342000Y-90170000D03*
X66802000Y-92710000D03*
X69342000Y-92710000D03*
X66802000Y-95250000D03*
X69342000Y-95250000D03*
X66802000Y-97790000D03*
X69342000Y-97790000D03*
X66802000Y-100330000D03*
X69342000Y-100330000D03*
X66802000Y-102870000D03*
X69342000Y-102870000D03*
X66802000Y-105410000D03*
X69342000Y-105410000D03*
X66802000Y-107950000D03*
X69342000Y-107950000D03*
X66802000Y-110490000D03*
X69342000Y-110490000D03*
X66802000Y-113030000D03*
X69342000Y-113030000D03*
X66802000Y-115570000D03*
X69342000Y-115570000D03*
X66802000Y-118110000D03*
X69342000Y-118110000D03*
D16*
X226314000Y-102998000D03*
D17*
X229314000Y-98298000D03*
X223314000Y-98298000D03*
D18*
X119380000Y-100076000D03*
D19*
X109220000Y-100076000D03*
D20*
X105410000Y-87376000D03*
D21*
X123190000Y-84836000D03*
X154940000Y-84836000D03*
D20*
X137160000Y-87376000D03*
D19*
X140970000Y-100076000D03*
D18*
X151130000Y-100076000D03*
X182880000Y-100076000D03*
D19*
X172720000Y-100076000D03*
D20*
X168910000Y-87376000D03*
D21*
X186690000Y-84836000D03*
D22*
X82550000Y-78740000D03*
D23*
X82550000Y-81280000D03*
X82550000Y-83820000D03*
X82550000Y-86360000D03*
X82550000Y-88900000D03*
X82550000Y-91440000D03*
X82550000Y-93980000D03*
X90170000Y-93980000D03*
X90170000Y-91440000D03*
X90170000Y-88900000D03*
X90170000Y-86360000D03*
X90170000Y-83820000D03*
X90170000Y-81280000D03*
X90170000Y-78740000D03*
X82550000Y-96520000D03*
X90170000Y-96520000D03*
D24*
X90170000Y-112522000D03*
D25*
X90170000Y-104902000D03*
X90170000Y-118110000D03*
D24*
X90170000Y-125730000D03*
X200660000Y-123190000D03*
D25*
X208280000Y-123190000D03*
X114808000Y-114808000D03*
D24*
X107188000Y-114808000D03*
D26*
X200914000Y-98298000D03*
X200914000Y-93218000D03*
X200914000Y-90678000D03*
X200914000Y-88138000D03*
X205994000Y-88138000D03*
X205994000Y-90678000D03*
X205994000Y-93218000D03*
D27*
X205994000Y-98298000D03*
D28*
X90170000Y-118110000D02*
X90170000Y-112522000D01*
X92456000Y-120396000D02*
X90170000Y-118110000D01*
X106506000Y-120396000D02*
X92456000Y-120396000D01*
X200660000Y-114554000D02*
X201422000Y-113792000D01*
X200660000Y-123190000D02*
X200660000Y-114554000D01*
X107188000Y-119714000D02*
X106506000Y-120396000D01*
X107188000Y-114808000D02*
X107188000Y-119714000D01*
X108177949Y-114808000D02*
X107188000Y-114808000D01*
X115396950Y-122027001D02*
X108177949Y-114808000D01*
X193186999Y-122027001D02*
X115396950Y-122027001D01*
X201422000Y-113792000D02*
X193186999Y-122027001D01*
X94524000Y-99568000D02*
X87345882Y-99568000D01*
X115352000Y-120396000D02*
X94524000Y-99568000D01*
X116506000Y-120396000D02*
X115352000Y-120396000D01*
X116506000Y-116506000D02*
X116506000Y-120396000D01*
X114808000Y-114808000D02*
X116506000Y-116506000D01*
X83146999Y-95338999D02*
X83312000Y-95504000D01*
X81983119Y-95338999D02*
X83146999Y-95338999D01*
X80723124Y-96598994D02*
X81983119Y-95338999D01*
X67993006Y-96598994D02*
X80723124Y-96598994D01*
X66802000Y-97790000D02*
X67993006Y-96598994D01*
X83312000Y-95504000D02*
X83116881Y-95338999D01*
X87345882Y-99568000D02*
X83312000Y-95504000D01*
X111506000Y-125396000D02*
X111506000Y-126550000D01*
X90869999Y-125030001D02*
X90170000Y-125730000D01*
X111156000Y-125396000D02*
X110002000Y-124242000D01*
X111506000Y-125396000D02*
X111156000Y-125396000D01*
X223314000Y-98298000D02*
X221996000Y-98298000D01*
X82550000Y-118110000D02*
X90170000Y-125730000D01*
X147494000Y-118892000D02*
X130710000Y-102108000D01*
X147494000Y-120396000D02*
X147494000Y-118892000D01*
X89370001Y-92239999D02*
X90170000Y-91440000D01*
X88988999Y-92621001D02*
X89370001Y-92239999D01*
X88988999Y-94546881D02*
X88988999Y-92621001D01*
X89730126Y-95288008D02*
X88988999Y-94546881D01*
X92748008Y-95288008D02*
X89730126Y-95288008D01*
X99568000Y-102108000D02*
X92748008Y-95288008D01*
X130710000Y-102108000D02*
X99568000Y-102108000D01*
X90969999Y-94779999D02*
X90170000Y-93980000D01*
X162734000Y-120396000D02*
X161580000Y-120396000D01*
X162734000Y-118892000D02*
X145188000Y-101346000D01*
X162734000Y-120396000D02*
X162734000Y-118892000D01*
X145188000Y-101346000D02*
X100330000Y-101346000D01*
X92964000Y-93980000D02*
X90170000Y-93980000D01*
X100330000Y-101346000D02*
X92964000Y-93980000D01*
X200914000Y-88138000D02*
X205994000Y-93218000D01*
X207275001Y-95771793D02*
X207275001Y-99502801D01*
X205994000Y-94490792D02*
X207275001Y-95771793D01*
X207275001Y-99502801D02*
X207198801Y-99579001D01*
X205994000Y-93218000D02*
X205994000Y-94490792D01*
X206193793Y-100584009D02*
X207275001Y-99502801D01*
X196535990Y-100584010D02*
X206193793Y-100584009D01*
X178482000Y-120142000D02*
X178482000Y-118638000D01*
X178482000Y-118638000D02*
X196535990Y-100584010D01*
D29*
X117856000Y-79502000D02*
X123190000Y-84836000D01*
X117856000Y-67056000D02*
X117856000Y-79502000D01*
X105410000Y-87376000D02*
X105410000Y-74502000D01*
X105410000Y-74502000D02*
X112856000Y-67056000D01*
X137160000Y-74756000D02*
X144606000Y-67310000D01*
X137160000Y-87376000D02*
X137160000Y-74756000D01*
X149606000Y-79502000D02*
X154940000Y-84836000D01*
X149606000Y-67310000D02*
X149606000Y-79502000D01*
X181102000Y-79248000D02*
X186690000Y-84836000D01*
X181102000Y-67056000D02*
X181102000Y-79248000D01*
X168910000Y-74248000D02*
X176102000Y-67056000D01*
X168910000Y-87376000D02*
X168910000Y-74248000D01*
D28*
X67612004Y-76659996D02*
X66802000Y-77470000D01*
X67993006Y-76278994D02*
X67612004Y-76659996D01*
X79034994Y-76278994D02*
X67993006Y-76278994D01*
X81496000Y-78740000D02*
X79034994Y-76278994D01*
X82550000Y-78740000D02*
X81496000Y-78740000D01*
X82550000Y-81280000D02*
X78740000Y-77470000D01*
X78740000Y-77470000D02*
X69342000Y-77470000D01*
X67612004Y-79199996D02*
X66802000Y-80010000D01*
X76417624Y-78818994D02*
X67993006Y-78818994D01*
X81418630Y-83820000D02*
X76417624Y-78818994D01*
X67993006Y-78818994D02*
X67612004Y-79199996D01*
X82550000Y-83820000D02*
X81418630Y-83820000D01*
X76200000Y-80010000D02*
X69342000Y-80010000D01*
X82550000Y-86360000D02*
X76200000Y-80010000D01*
X67612004Y-81739996D02*
X66802000Y-82550000D01*
X67993006Y-81358994D02*
X67612004Y-81739996D01*
X75008994Y-81358994D02*
X67993006Y-81358994D01*
X82550000Y-88900000D02*
X75008994Y-81358994D01*
X81750001Y-90640001D02*
X81750001Y-89878001D01*
X82550000Y-91440000D02*
X81750001Y-90640001D01*
X74422000Y-82550000D02*
X69342000Y-82550000D01*
X81750001Y-89878001D02*
X74422000Y-82550000D01*
X82550000Y-93980000D02*
X80518000Y-91948000D01*
X80518000Y-91948000D02*
X80518000Y-90424000D01*
X67612004Y-84279996D02*
X66802000Y-85090000D01*
X67993006Y-83898994D02*
X67612004Y-84279996D01*
X73992994Y-83898994D02*
X67993006Y-83898994D01*
X80518000Y-90424000D02*
X73992994Y-83898994D01*
X88480989Y-82969011D02*
X89370001Y-82079999D01*
X88480989Y-88958871D02*
X88480989Y-82969011D01*
X89603119Y-90081001D02*
X88480989Y-88958871D01*
X90558883Y-90081001D02*
X89603119Y-90081001D01*
X89370001Y-82079999D02*
X90170000Y-81280000D01*
X100553882Y-100076000D02*
X90558883Y-90081001D01*
X109220000Y-100076000D02*
X100553882Y-100076000D01*
X89370001Y-84619999D02*
X90170000Y-83820000D01*
X88988999Y-87210999D02*
X88988999Y-85001001D01*
X89319001Y-87541001D02*
X88988999Y-87210999D01*
X90558883Y-87541001D02*
X89319001Y-87541001D01*
X130184010Y-90424010D02*
X93441892Y-90424010D01*
X88988999Y-85001001D02*
X89370001Y-84619999D01*
X139836000Y-100076000D02*
X130184010Y-90424010D01*
X93441892Y-90424010D02*
X90558883Y-87541001D01*
X140970000Y-100076000D02*
X139836000Y-100076000D01*
X172720000Y-100076000D02*
X171586000Y-100076000D01*
X172720000Y-98942000D02*
X163694000Y-89916000D01*
X172720000Y-100076000D02*
X172720000Y-98942000D01*
X93726000Y-89916000D02*
X90170000Y-86360000D01*
X163694000Y-89916000D02*
X93726000Y-89916000D01*
X100732001Y-89302001D02*
X191918001Y-89302001D01*
X90170000Y-78740000D02*
X100732001Y-89302001D01*
X191918001Y-89302001D02*
X200914000Y-98298000D01*
X203962000Y-118872000D02*
X203962000Y-113792000D01*
X208280000Y-123190000D02*
X203962000Y-118872000D01*
X202195001Y-91959001D02*
X201813999Y-91577999D01*
X201031882Y-100076000D02*
X202195001Y-98912881D01*
X201813999Y-91577999D02*
X200914000Y-90678000D01*
X202195001Y-98912881D02*
X202195001Y-91959001D01*
X182880000Y-100076000D02*
X201031882Y-100076000D01*
X205994000Y-95758000D02*
X200914000Y-90678000D01*
X205994000Y-98298000D02*
X205994000Y-95758000D01*
G36*
X233022273Y-133960000D02*
G01*
X64162279Y-133960000D01*
X64183608Y-127774363D01*
X105271000Y-127774363D01*
X105271000Y-128017637D01*
X105318460Y-128256236D01*
X105411557Y-128480992D01*
X105546713Y-128683267D01*
X105718733Y-128855287D01*
X105921008Y-128990443D01*
X106145764Y-129083540D01*
X106384363Y-129131000D01*
X106627637Y-129131000D01*
X106866236Y-129083540D01*
X107090992Y-128990443D01*
X107293267Y-128855287D01*
X107465287Y-128683267D01*
X107600443Y-128480992D01*
X107693540Y-128256236D01*
X107741000Y-128017637D01*
X107741000Y-127774363D01*
X115271000Y-127774363D01*
X115271000Y-128017637D01*
X115318460Y-128256236D01*
X115411557Y-128480992D01*
X115546713Y-128683267D01*
X115718733Y-128855287D01*
X115921008Y-128990443D01*
X116145764Y-129083540D01*
X116384363Y-129131000D01*
X116627637Y-129131000D01*
X116866236Y-129083540D01*
X117090992Y-128990443D01*
X117293267Y-128855287D01*
X117465287Y-128683267D01*
X117600443Y-128480992D01*
X117693540Y-128256236D01*
X117741000Y-128017637D01*
X117741000Y-127774363D01*
X120765000Y-127774363D01*
X120765000Y-128017637D01*
X120812460Y-128256236D01*
X120905557Y-128480992D01*
X121040713Y-128683267D01*
X121212733Y-128855287D01*
X121415008Y-128990443D01*
X121639764Y-129083540D01*
X121878363Y-129131000D01*
X122121637Y-129131000D01*
X122360236Y-129083540D01*
X122584992Y-128990443D01*
X122787267Y-128855287D01*
X122959287Y-128683267D01*
X123094443Y-128480992D01*
X123187540Y-128256236D01*
X123235000Y-128017637D01*
X123235000Y-127774363D01*
X130765000Y-127774363D01*
X130765000Y-128017637D01*
X130812460Y-128256236D01*
X130905557Y-128480992D01*
X131040713Y-128683267D01*
X131212733Y-128855287D01*
X131415008Y-128990443D01*
X131639764Y-129083540D01*
X131878363Y-129131000D01*
X132121637Y-129131000D01*
X132360236Y-129083540D01*
X132584992Y-128990443D01*
X132787267Y-128855287D01*
X132959287Y-128683267D01*
X133094443Y-128480992D01*
X133187540Y-128256236D01*
X133235000Y-128017637D01*
X133235000Y-127774363D01*
X136259000Y-127774363D01*
X136259000Y-128017637D01*
X136306460Y-128256236D01*
X136399557Y-128480992D01*
X136534713Y-128683267D01*
X136706733Y-128855287D01*
X136909008Y-128990443D01*
X137133764Y-129083540D01*
X137372363Y-129131000D01*
X137615637Y-129131000D01*
X137854236Y-129083540D01*
X138078992Y-128990443D01*
X138281267Y-128855287D01*
X138453287Y-128683267D01*
X138588443Y-128480992D01*
X138681540Y-128256236D01*
X138729000Y-128017637D01*
X138729000Y-127774363D01*
X146259000Y-127774363D01*
X146259000Y-128017637D01*
X146306460Y-128256236D01*
X146399557Y-128480992D01*
X146534713Y-128683267D01*
X146706733Y-128855287D01*
X146909008Y-128990443D01*
X147133764Y-129083540D01*
X147372363Y-129131000D01*
X147615637Y-129131000D01*
X147854236Y-129083540D01*
X148078992Y-128990443D01*
X148281267Y-128855287D01*
X148453287Y-128683267D01*
X148588443Y-128480992D01*
X148681540Y-128256236D01*
X148729000Y-128017637D01*
X148729000Y-127774363D01*
X151499000Y-127774363D01*
X151499000Y-128017637D01*
X151546460Y-128256236D01*
X151639557Y-128480992D01*
X151774713Y-128683267D01*
X151946733Y-128855287D01*
X152149008Y-128990443D01*
X152373764Y-129083540D01*
X152612363Y-129131000D01*
X152855637Y-129131000D01*
X153094236Y-129083540D01*
X153318992Y-128990443D01*
X153521267Y-128855287D01*
X153693287Y-128683267D01*
X153828443Y-128480992D01*
X153921540Y-128256236D01*
X153969000Y-128017637D01*
X153969000Y-127774363D01*
X161499000Y-127774363D01*
X161499000Y-128017637D01*
X161546460Y-128256236D01*
X161639557Y-128480992D01*
X161774713Y-128683267D01*
X161946733Y-128855287D01*
X162149008Y-128990443D01*
X162373764Y-129083540D01*
X162612363Y-129131000D01*
X162855637Y-129131000D01*
X163094236Y-129083540D01*
X163318992Y-128990443D01*
X163521267Y-128855287D01*
X163693287Y-128683267D01*
X163828443Y-128480992D01*
X163921540Y-128256236D01*
X163969000Y-128017637D01*
X163969000Y-127774363D01*
X163921540Y-127535764D01*
X163915161Y-127520363D01*
X167247000Y-127520363D01*
X167247000Y-127763637D01*
X167294460Y-128002236D01*
X167387557Y-128226992D01*
X167522713Y-128429267D01*
X167694733Y-128601287D01*
X167897008Y-128736443D01*
X168121764Y-128829540D01*
X168360363Y-128877000D01*
X168603637Y-128877000D01*
X168842236Y-128829540D01*
X169066992Y-128736443D01*
X169269267Y-128601287D01*
X169441287Y-128429267D01*
X169576443Y-128226992D01*
X169669540Y-128002236D01*
X169717000Y-127763637D01*
X169717000Y-127520363D01*
X177247000Y-127520363D01*
X177247000Y-127763637D01*
X177294460Y-128002236D01*
X177387557Y-128226992D01*
X177522713Y-128429267D01*
X177694733Y-128601287D01*
X177897008Y-128736443D01*
X178121764Y-128829540D01*
X178360363Y-128877000D01*
X178603637Y-128877000D01*
X178842236Y-128829540D01*
X179066992Y-128736443D01*
X179269267Y-128601287D01*
X179441287Y-128429267D01*
X179576443Y-128226992D01*
X179669540Y-128002236D01*
X179717000Y-127763637D01*
X179717000Y-127520363D01*
X179669540Y-127281764D01*
X179576443Y-127057008D01*
X179441287Y-126854733D01*
X179269267Y-126682713D01*
X179066992Y-126547557D01*
X178842236Y-126454460D01*
X178603637Y-126407000D01*
X178360363Y-126407000D01*
X178121764Y-126454460D01*
X177897008Y-126547557D01*
X177694733Y-126682713D01*
X177522713Y-126854733D01*
X177387557Y-127057008D01*
X177294460Y-127281764D01*
X177247000Y-127520363D01*
X169717000Y-127520363D01*
X169669540Y-127281764D01*
X169576443Y-127057008D01*
X169441287Y-126854733D01*
X169269267Y-126682713D01*
X169066992Y-126547557D01*
X168842236Y-126454460D01*
X168603637Y-126407000D01*
X168360363Y-126407000D01*
X168121764Y-126454460D01*
X167897008Y-126547557D01*
X167694733Y-126682713D01*
X167522713Y-126854733D01*
X167387557Y-127057008D01*
X167294460Y-127281764D01*
X167247000Y-127520363D01*
X163915161Y-127520363D01*
X163828443Y-127311008D01*
X163693287Y-127108733D01*
X163521267Y-126936713D01*
X163318992Y-126801557D01*
X163094236Y-126708460D01*
X162855637Y-126661000D01*
X162612363Y-126661000D01*
X162373764Y-126708460D01*
X162149008Y-126801557D01*
X161946733Y-126936713D01*
X161774713Y-127108733D01*
X161639557Y-127311008D01*
X161546460Y-127535764D01*
X161499000Y-127774363D01*
X153969000Y-127774363D01*
X153921540Y-127535764D01*
X153828443Y-127311008D01*
X153693287Y-127108733D01*
X153521267Y-126936713D01*
X153318992Y-126801557D01*
X153094236Y-126708460D01*
X152855637Y-126661000D01*
X152612363Y-126661000D01*
X152373764Y-126708460D01*
X152149008Y-126801557D01*
X151946733Y-126936713D01*
X151774713Y-127108733D01*
X151639557Y-127311008D01*
X151546460Y-127535764D01*
X151499000Y-127774363D01*
X148729000Y-127774363D01*
X148681540Y-127535764D01*
X148588443Y-127311008D01*
X148453287Y-127108733D01*
X148281267Y-126936713D01*
X148078992Y-126801557D01*
X147854236Y-126708460D01*
X147615637Y-126661000D01*
X147372363Y-126661000D01*
X147133764Y-126708460D01*
X146909008Y-126801557D01*
X146706733Y-126936713D01*
X146534713Y-127108733D01*
X146399557Y-127311008D01*
X146306460Y-127535764D01*
X146259000Y-127774363D01*
X138729000Y-127774363D01*
X138681540Y-127535764D01*
X138588443Y-127311008D01*
X138453287Y-127108733D01*
X138281267Y-126936713D01*
X138078992Y-126801557D01*
X137854236Y-126708460D01*
X137615637Y-126661000D01*
X137372363Y-126661000D01*
X137133764Y-126708460D01*
X136909008Y-126801557D01*
X136706733Y-126936713D01*
X136534713Y-127108733D01*
X136399557Y-127311008D01*
X136306460Y-127535764D01*
X136259000Y-127774363D01*
X133235000Y-127774363D01*
X133187540Y-127535764D01*
X133094443Y-127311008D01*
X132959287Y-127108733D01*
X132787267Y-126936713D01*
X132584992Y-126801557D01*
X132360236Y-126708460D01*
X132121637Y-126661000D01*
X131878363Y-126661000D01*
X131639764Y-126708460D01*
X131415008Y-126801557D01*
X131212733Y-126936713D01*
X131040713Y-127108733D01*
X130905557Y-127311008D01*
X130812460Y-127535764D01*
X130765000Y-127774363D01*
X123235000Y-127774363D01*
X123187540Y-127535764D01*
X123094443Y-127311008D01*
X122959287Y-127108733D01*
X122787267Y-126936713D01*
X122584992Y-126801557D01*
X122360236Y-126708460D01*
X122121637Y-126661000D01*
X121878363Y-126661000D01*
X121639764Y-126708460D01*
X121415008Y-126801557D01*
X121212733Y-126936713D01*
X121040713Y-127108733D01*
X120905557Y-127311008D01*
X120812460Y-127535764D01*
X120765000Y-127774363D01*
X117741000Y-127774363D01*
X117693540Y-127535764D01*
X117600443Y-127311008D01*
X117465287Y-127108733D01*
X117293267Y-126936713D01*
X117090992Y-126801557D01*
X116866236Y-126708460D01*
X116627637Y-126661000D01*
X116384363Y-126661000D01*
X116145764Y-126708460D01*
X115921008Y-126801557D01*
X115718733Y-126936713D01*
X115546713Y-127108733D01*
X115411557Y-127311008D01*
X115318460Y-127535764D01*
X115271000Y-127774363D01*
X107741000Y-127774363D01*
X107693540Y-127535764D01*
X107600443Y-127311008D01*
X107465287Y-127108733D01*
X107293267Y-126936713D01*
X107090992Y-126801557D01*
X106866236Y-126708460D01*
X106627637Y-126661000D01*
X106384363Y-126661000D01*
X106145764Y-126708460D01*
X105921008Y-126801557D01*
X105718733Y-126936713D01*
X105546713Y-127108733D01*
X105411557Y-127311008D01*
X105318460Y-127535764D01*
X105271000Y-127774363D01*
X64183608Y-127774363D01*
X64189508Y-126063330D01*
X88877278Y-126063330D01*
X88967147Y-126309123D01*
X89103241Y-126532660D01*
X89280330Y-126725351D01*
X89491608Y-126879792D01*
X89728956Y-126990047D01*
X89836671Y-127022716D01*
X90043000Y-126899374D01*
X90043000Y-125857000D01*
X90297000Y-125857000D01*
X90297000Y-126899374D01*
X90503329Y-127022716D01*
X90611044Y-126990047D01*
X90848392Y-126879792D01*
X91059670Y-126725351D01*
X91236759Y-126532660D01*
X91372853Y-126309123D01*
X91462722Y-126063330D01*
X91340201Y-125857000D01*
X90297000Y-125857000D01*
X90043000Y-125857000D01*
X88999799Y-125857000D01*
X88877278Y-126063330D01*
X64189508Y-126063330D01*
X64191806Y-125396670D01*
X88877278Y-125396670D01*
X88999799Y-125603000D01*
X90043000Y-125603000D01*
X90043000Y-124560626D01*
X90297000Y-124560626D01*
X90297000Y-125603000D01*
X91340201Y-125603000D01*
X91462722Y-125396670D01*
X91418004Y-125274363D01*
X105271000Y-125274363D01*
X105271000Y-125517637D01*
X105318460Y-125756236D01*
X105411557Y-125980992D01*
X105546713Y-126183267D01*
X105718733Y-126355287D01*
X105921008Y-126490443D01*
X106145764Y-126583540D01*
X106384363Y-126631000D01*
X106627637Y-126631000D01*
X106866236Y-126583540D01*
X107090992Y-126490443D01*
X107293267Y-126355287D01*
X107352554Y-126296000D01*
X109617928Y-126296000D01*
X109630188Y-126420482D01*
X109666498Y-126540180D01*
X109725463Y-126650494D01*
X109804815Y-126747185D01*
X109901506Y-126826537D01*
X110011820Y-126885502D01*
X110131518Y-126921812D01*
X110256000Y-126934072D01*
X111220250Y-126931000D01*
X111379000Y-126772250D01*
X111379000Y-125523000D01*
X111633000Y-125523000D01*
X111633000Y-126772250D01*
X111791750Y-126931000D01*
X112756000Y-126934072D01*
X112880482Y-126921812D01*
X113000180Y-126885502D01*
X113110494Y-126826537D01*
X113207185Y-126747185D01*
X113286537Y-126650494D01*
X113345502Y-126540180D01*
X113381812Y-126420482D01*
X113394072Y-126296000D01*
X113391000Y-125681750D01*
X113232250Y-125523000D01*
X111633000Y-125523000D01*
X111379000Y-125523000D01*
X109779750Y-125523000D01*
X109621000Y-125681750D01*
X109617928Y-126296000D01*
X107352554Y-126296000D01*
X107465287Y-126183267D01*
X107600443Y-125980992D01*
X107693540Y-125756236D01*
X107741000Y-125517637D01*
X107741000Y-125274363D01*
X115271000Y-125274363D01*
X115271000Y-125517637D01*
X115318460Y-125756236D01*
X115411557Y-125980992D01*
X115546713Y-126183267D01*
X115718733Y-126355287D01*
X115921008Y-126490443D01*
X116145764Y-126583540D01*
X116384363Y-126631000D01*
X116627637Y-126631000D01*
X116866236Y-126583540D01*
X117090992Y-126490443D01*
X117293267Y-126355287D01*
X117465287Y-126183267D01*
X117600443Y-125980992D01*
X117693540Y-125756236D01*
X117741000Y-125517637D01*
X117741000Y-125274363D01*
X120765000Y-125274363D01*
X120765000Y-125517637D01*
X120812460Y-125756236D01*
X120905557Y-125980992D01*
X121040713Y-126183267D01*
X121212733Y-126355287D01*
X121415008Y-126490443D01*
X121639764Y-126583540D01*
X121878363Y-126631000D01*
X122121637Y-126631000D01*
X122360236Y-126583540D01*
X122584992Y-126490443D01*
X122787267Y-126355287D01*
X122959287Y-126183267D01*
X123094443Y-125980992D01*
X123187540Y-125756236D01*
X123235000Y-125517637D01*
X123235000Y-125274363D01*
X123187540Y-125035764D01*
X123094443Y-124811008D01*
X122959287Y-124608733D01*
X122846554Y-124496000D01*
X125111928Y-124496000D01*
X125111928Y-126296000D01*
X125124188Y-126420482D01*
X125160498Y-126540180D01*
X125219463Y-126650494D01*
X125298815Y-126747185D01*
X125395506Y-126826537D01*
X125505820Y-126885502D01*
X125625518Y-126921812D01*
X125750000Y-126934072D01*
X128250000Y-126934072D01*
X128374482Y-126921812D01*
X128494180Y-126885502D01*
X128604494Y-126826537D01*
X128701185Y-126747185D01*
X128780537Y-126650494D01*
X128839502Y-126540180D01*
X128875812Y-126420482D01*
X128888072Y-126296000D01*
X128888072Y-125274363D01*
X130765000Y-125274363D01*
X130765000Y-125517637D01*
X130812460Y-125756236D01*
X130905557Y-125980992D01*
X131040713Y-126183267D01*
X131212733Y-126355287D01*
X131415008Y-126490443D01*
X131639764Y-126583540D01*
X131878363Y-126631000D01*
X132121637Y-126631000D01*
X132360236Y-126583540D01*
X132584992Y-126490443D01*
X132787267Y-126355287D01*
X132959287Y-126183267D01*
X133094443Y-125980992D01*
X133187540Y-125756236D01*
X133235000Y-125517637D01*
X133235000Y-125274363D01*
X136259000Y-125274363D01*
X136259000Y-125517637D01*
X136306460Y-125756236D01*
X136399557Y-125980992D01*
X136534713Y-126183267D01*
X136706733Y-126355287D01*
X136909008Y-126490443D01*
X137133764Y-126583540D01*
X137372363Y-126631000D01*
X137615637Y-126631000D01*
X137854236Y-126583540D01*
X138078992Y-126490443D01*
X138281267Y-126355287D01*
X138453287Y-126183267D01*
X138588443Y-125980992D01*
X138681540Y-125756236D01*
X138729000Y-125517637D01*
X138729000Y-125274363D01*
X138681540Y-125035764D01*
X138588443Y-124811008D01*
X138453287Y-124608733D01*
X138340554Y-124496000D01*
X140605928Y-124496000D01*
X140605928Y-126296000D01*
X140618188Y-126420482D01*
X140654498Y-126540180D01*
X140713463Y-126650494D01*
X140792815Y-126747185D01*
X140889506Y-126826537D01*
X140999820Y-126885502D01*
X141119518Y-126921812D01*
X141244000Y-126934072D01*
X143744000Y-126934072D01*
X143868482Y-126921812D01*
X143988180Y-126885502D01*
X144098494Y-126826537D01*
X144195185Y-126747185D01*
X144274537Y-126650494D01*
X144333502Y-126540180D01*
X144369812Y-126420482D01*
X144382072Y-126296000D01*
X144382072Y-125274363D01*
X146259000Y-125274363D01*
X146259000Y-125517637D01*
X146306460Y-125756236D01*
X146399557Y-125980992D01*
X146534713Y-126183267D01*
X146706733Y-126355287D01*
X146909008Y-126490443D01*
X147133764Y-126583540D01*
X147372363Y-126631000D01*
X147615637Y-126631000D01*
X147854236Y-126583540D01*
X148078992Y-126490443D01*
X148281267Y-126355287D01*
X148453287Y-126183267D01*
X148588443Y-125980992D01*
X148681540Y-125756236D01*
X148729000Y-125517637D01*
X148729000Y-125274363D01*
X151499000Y-125274363D01*
X151499000Y-125517637D01*
X151546460Y-125756236D01*
X151639557Y-125980992D01*
X151774713Y-126183267D01*
X151946733Y-126355287D01*
X152149008Y-126490443D01*
X152373764Y-126583540D01*
X152612363Y-126631000D01*
X152855637Y-126631000D01*
X153094236Y-126583540D01*
X153318992Y-126490443D01*
X153521267Y-126355287D01*
X153693287Y-126183267D01*
X153828443Y-125980992D01*
X153921540Y-125756236D01*
X153969000Y-125517637D01*
X153969000Y-125274363D01*
X153921540Y-125035764D01*
X153828443Y-124811008D01*
X153693287Y-124608733D01*
X153580554Y-124496000D01*
X155845928Y-124496000D01*
X155845928Y-126296000D01*
X155858188Y-126420482D01*
X155894498Y-126540180D01*
X155953463Y-126650494D01*
X156032815Y-126747185D01*
X156129506Y-126826537D01*
X156239820Y-126885502D01*
X156359518Y-126921812D01*
X156484000Y-126934072D01*
X158984000Y-126934072D01*
X159108482Y-126921812D01*
X159228180Y-126885502D01*
X159338494Y-126826537D01*
X159435185Y-126747185D01*
X159514537Y-126650494D01*
X159573502Y-126540180D01*
X159609812Y-126420482D01*
X159622072Y-126296000D01*
X159622072Y-125274363D01*
X161499000Y-125274363D01*
X161499000Y-125517637D01*
X161546460Y-125756236D01*
X161639557Y-125980992D01*
X161774713Y-126183267D01*
X161946733Y-126355287D01*
X162149008Y-126490443D01*
X162373764Y-126583540D01*
X162612363Y-126631000D01*
X162855637Y-126631000D01*
X163094236Y-126583540D01*
X163318992Y-126490443D01*
X163521267Y-126355287D01*
X163693287Y-126183267D01*
X163828443Y-125980992D01*
X163921540Y-125756236D01*
X163969000Y-125517637D01*
X163969000Y-125274363D01*
X163921540Y-125035764D01*
X163915161Y-125020363D01*
X167247000Y-125020363D01*
X167247000Y-125263637D01*
X167294460Y-125502236D01*
X167387557Y-125726992D01*
X167522713Y-125929267D01*
X167694733Y-126101287D01*
X167897008Y-126236443D01*
X168121764Y-126329540D01*
X168360363Y-126377000D01*
X168603637Y-126377000D01*
X168842236Y-126329540D01*
X169066992Y-126236443D01*
X169269267Y-126101287D01*
X169441287Y-125929267D01*
X169576443Y-125726992D01*
X169669540Y-125502236D01*
X169717000Y-125263637D01*
X169717000Y-125020363D01*
X169669540Y-124781764D01*
X169576443Y-124557008D01*
X169441287Y-124354733D01*
X169328554Y-124242000D01*
X171593928Y-124242000D01*
X171593928Y-126042000D01*
X171606188Y-126166482D01*
X171642498Y-126286180D01*
X171701463Y-126396494D01*
X171780815Y-126493185D01*
X171877506Y-126572537D01*
X171987820Y-126631502D01*
X172107518Y-126667812D01*
X172232000Y-126680072D01*
X174732000Y-126680072D01*
X174856482Y-126667812D01*
X174976180Y-126631502D01*
X175086494Y-126572537D01*
X175183185Y-126493185D01*
X175262537Y-126396494D01*
X175321502Y-126286180D01*
X175357812Y-126166482D01*
X175370072Y-126042000D01*
X175370072Y-125020363D01*
X177247000Y-125020363D01*
X177247000Y-125263637D01*
X177294460Y-125502236D01*
X177387557Y-125726992D01*
X177522713Y-125929267D01*
X177694733Y-126101287D01*
X177897008Y-126236443D01*
X178121764Y-126329540D01*
X178360363Y-126377000D01*
X178603637Y-126377000D01*
X178842236Y-126329540D01*
X179066992Y-126236443D01*
X179269267Y-126101287D01*
X179441287Y-125929267D01*
X179576443Y-125726992D01*
X179669540Y-125502236D01*
X179717000Y-125263637D01*
X179717000Y-125020363D01*
X179669540Y-124781764D01*
X179576443Y-124557008D01*
X179441287Y-124354733D01*
X179269267Y-124182713D01*
X179066992Y-124047557D01*
X178842236Y-123954460D01*
X178603637Y-123907000D01*
X178360363Y-123907000D01*
X178121764Y-123954460D01*
X177897008Y-124047557D01*
X177694733Y-124182713D01*
X177522713Y-124354733D01*
X177387557Y-124557008D01*
X177294460Y-124781764D01*
X177247000Y-125020363D01*
X175370072Y-125020363D01*
X175370072Y-124242000D01*
X175357812Y-124117518D01*
X175321502Y-123997820D01*
X175262537Y-123887506D01*
X175183185Y-123790815D01*
X175086494Y-123711463D01*
X174976180Y-123652498D01*
X174856482Y-123616188D01*
X174732000Y-123603928D01*
X172232000Y-123603928D01*
X172107518Y-123616188D01*
X171987820Y-123652498D01*
X171877506Y-123711463D01*
X171780815Y-123790815D01*
X171701463Y-123887506D01*
X171642498Y-123997820D01*
X171606188Y-124117518D01*
X171593928Y-124242000D01*
X169328554Y-124242000D01*
X169269267Y-124182713D01*
X169066992Y-124047557D01*
X168842236Y-123954460D01*
X168603637Y-123907000D01*
X168360363Y-123907000D01*
X168121764Y-123954460D01*
X167897008Y-124047557D01*
X167694733Y-124182713D01*
X167522713Y-124354733D01*
X167387557Y-124557008D01*
X167294460Y-124781764D01*
X167247000Y-125020363D01*
X163915161Y-125020363D01*
X163828443Y-124811008D01*
X163693287Y-124608733D01*
X163521267Y-124436713D01*
X163318992Y-124301557D01*
X163094236Y-124208460D01*
X162855637Y-124161000D01*
X162612363Y-124161000D01*
X162373764Y-124208460D01*
X162149008Y-124301557D01*
X161946733Y-124436713D01*
X161774713Y-124608733D01*
X161639557Y-124811008D01*
X161546460Y-125035764D01*
X161499000Y-125274363D01*
X159622072Y-125274363D01*
X159622072Y-124496000D01*
X159609812Y-124371518D01*
X159573502Y-124251820D01*
X159514537Y-124141506D01*
X159435185Y-124044815D01*
X159338494Y-123965463D01*
X159228180Y-123906498D01*
X159108482Y-123870188D01*
X158984000Y-123857928D01*
X156484000Y-123857928D01*
X156359518Y-123870188D01*
X156239820Y-123906498D01*
X156129506Y-123965463D01*
X156032815Y-124044815D01*
X155953463Y-124141506D01*
X155894498Y-124251820D01*
X155858188Y-124371518D01*
X155845928Y-124496000D01*
X153580554Y-124496000D01*
X153521267Y-124436713D01*
X153318992Y-124301557D01*
X153094236Y-124208460D01*
X152855637Y-124161000D01*
X152612363Y-124161000D01*
X152373764Y-124208460D01*
X152149008Y-124301557D01*
X151946733Y-124436713D01*
X151774713Y-124608733D01*
X151639557Y-124811008D01*
X151546460Y-125035764D01*
X151499000Y-125274363D01*
X148729000Y-125274363D01*
X148681540Y-125035764D01*
X148588443Y-124811008D01*
X148453287Y-124608733D01*
X148281267Y-124436713D01*
X148078992Y-124301557D01*
X147854236Y-124208460D01*
X147615637Y-124161000D01*
X147372363Y-124161000D01*
X147133764Y-124208460D01*
X146909008Y-124301557D01*
X146706733Y-124436713D01*
X146534713Y-124608733D01*
X146399557Y-124811008D01*
X146306460Y-125035764D01*
X146259000Y-125274363D01*
X144382072Y-125274363D01*
X144382072Y-124496000D01*
X144369812Y-124371518D01*
X144333502Y-124251820D01*
X144274537Y-124141506D01*
X144195185Y-124044815D01*
X144098494Y-123965463D01*
X143988180Y-123906498D01*
X143868482Y-123870188D01*
X143744000Y-123857928D01*
X141244000Y-123857928D01*
X141119518Y-123870188D01*
X140999820Y-123906498D01*
X140889506Y-123965463D01*
X140792815Y-124044815D01*
X140713463Y-124141506D01*
X140654498Y-124251820D01*
X140618188Y-124371518D01*
X140605928Y-124496000D01*
X138340554Y-124496000D01*
X138281267Y-124436713D01*
X138078992Y-124301557D01*
X137854236Y-124208460D01*
X137615637Y-124161000D01*
X137372363Y-124161000D01*
X137133764Y-124208460D01*
X136909008Y-124301557D01*
X136706733Y-124436713D01*
X136534713Y-124608733D01*
X136399557Y-124811008D01*
X136306460Y-125035764D01*
X136259000Y-125274363D01*
X133235000Y-125274363D01*
X133187540Y-125035764D01*
X133094443Y-124811008D01*
X132959287Y-124608733D01*
X132787267Y-124436713D01*
X132584992Y-124301557D01*
X132360236Y-124208460D01*
X132121637Y-124161000D01*
X131878363Y-124161000D01*
X131639764Y-124208460D01*
X131415008Y-124301557D01*
X131212733Y-124436713D01*
X131040713Y-124608733D01*
X130905557Y-124811008D01*
X130812460Y-125035764D01*
X130765000Y-125274363D01*
X128888072Y-125274363D01*
X128888072Y-124496000D01*
X128875812Y-124371518D01*
X128839502Y-124251820D01*
X128780537Y-124141506D01*
X128701185Y-124044815D01*
X128604494Y-123965463D01*
X128494180Y-123906498D01*
X128374482Y-123870188D01*
X128250000Y-123857928D01*
X125750000Y-123857928D01*
X125625518Y-123870188D01*
X125505820Y-123906498D01*
X125395506Y-123965463D01*
X125298815Y-124044815D01*
X125219463Y-124141506D01*
X125160498Y-124251820D01*
X125124188Y-124371518D01*
X125111928Y-124496000D01*
X122846554Y-124496000D01*
X122787267Y-124436713D01*
X122584992Y-124301557D01*
X122360236Y-124208460D01*
X122121637Y-124161000D01*
X121878363Y-124161000D01*
X121639764Y-124208460D01*
X121415008Y-124301557D01*
X121212733Y-124436713D01*
X121040713Y-124608733D01*
X120905557Y-124811008D01*
X120812460Y-125035764D01*
X120765000Y-125274363D01*
X117741000Y-125274363D01*
X117693540Y-125035764D01*
X117600443Y-124811008D01*
X117465287Y-124608733D01*
X117293267Y-124436713D01*
X117090992Y-124301557D01*
X116866236Y-124208460D01*
X116627637Y-124161000D01*
X116384363Y-124161000D01*
X116145764Y-124208460D01*
X115921008Y-124301557D01*
X115718733Y-124436713D01*
X115546713Y-124608733D01*
X115411557Y-124811008D01*
X115318460Y-125035764D01*
X115271000Y-125274363D01*
X107741000Y-125274363D01*
X107693540Y-125035764D01*
X107600443Y-124811008D01*
X107465287Y-124608733D01*
X107352554Y-124496000D01*
X109617928Y-124496000D01*
X109621000Y-125110250D01*
X109779750Y-125269000D01*
X111379000Y-125269000D01*
X111379000Y-124019750D01*
X111633000Y-124019750D01*
X111633000Y-125269000D01*
X113232250Y-125269000D01*
X113391000Y-125110250D01*
X113394072Y-124496000D01*
X113381812Y-124371518D01*
X113345502Y-124251820D01*
X113286537Y-124141506D01*
X113207185Y-124044815D01*
X113110494Y-123965463D01*
X113000180Y-123906498D01*
X112880482Y-123870188D01*
X112756000Y-123857928D01*
X111791750Y-123861000D01*
X111633000Y-124019750D01*
X111379000Y-124019750D01*
X111220250Y-123861000D01*
X110256000Y-123857928D01*
X110131518Y-123870188D01*
X110011820Y-123906498D01*
X109901506Y-123965463D01*
X109804815Y-124044815D01*
X109725463Y-124141506D01*
X109666498Y-124251820D01*
X109630188Y-124371518D01*
X109617928Y-124496000D01*
X107352554Y-124496000D01*
X107293267Y-124436713D01*
X107090992Y-124301557D01*
X106866236Y-124208460D01*
X106627637Y-124161000D01*
X106384363Y-124161000D01*
X106145764Y-124208460D01*
X105921008Y-124301557D01*
X105718733Y-124436713D01*
X105546713Y-124608733D01*
X105411557Y-124811008D01*
X105318460Y-125035764D01*
X105271000Y-125274363D01*
X91418004Y-125274363D01*
X91372853Y-125150877D01*
X91236759Y-124927340D01*
X91059670Y-124734649D01*
X90848392Y-124580208D01*
X90611044Y-124469953D01*
X90503329Y-124437284D01*
X90297000Y-124560626D01*
X90043000Y-124560626D01*
X89836671Y-124437284D01*
X89728956Y-124469953D01*
X89491608Y-124580208D01*
X89280330Y-124734649D01*
X89103241Y-124927340D01*
X88967147Y-125150877D01*
X88877278Y-125396670D01*
X64191806Y-125396670D01*
X64366321Y-74787679D01*
X65356995Y-74787679D01*
X65356995Y-75072321D01*
X65412526Y-75351492D01*
X65521453Y-75614467D01*
X65679591Y-75851137D01*
X65880863Y-76052409D01*
X66101748Y-76200000D01*
X65880863Y-76347591D01*
X65679591Y-76548863D01*
X65521453Y-76785533D01*
X65412526Y-77048508D01*
X65356995Y-77327679D01*
X65356995Y-77612321D01*
X65412526Y-77891492D01*
X65521453Y-78154467D01*
X65679591Y-78391137D01*
X65880863Y-78592409D01*
X66101748Y-78740000D01*
X65880863Y-78887591D01*
X65679591Y-79088863D01*
X65521453Y-79325533D01*
X65412526Y-79588508D01*
X65356995Y-79867679D01*
X65356995Y-80152321D01*
X65412526Y-80431492D01*
X65521453Y-80694467D01*
X65679591Y-80931137D01*
X65880863Y-81132409D01*
X66101748Y-81280000D01*
X65880863Y-81427591D01*
X65679591Y-81628863D01*
X65521453Y-81865533D01*
X65412526Y-82128508D01*
X65356995Y-82407679D01*
X65356995Y-82692321D01*
X65412526Y-82971492D01*
X65521453Y-83234467D01*
X65679591Y-83471137D01*
X65880863Y-83672409D01*
X66101748Y-83820000D01*
X65880863Y-83967591D01*
X65679591Y-84168863D01*
X65521453Y-84405533D01*
X65412526Y-84668508D01*
X65356995Y-84947679D01*
X65356995Y-85232321D01*
X65412526Y-85511492D01*
X65521453Y-85774467D01*
X65679591Y-86011137D01*
X65880863Y-86212409D01*
X66101748Y-86360000D01*
X65880863Y-86507591D01*
X65679591Y-86708863D01*
X65521453Y-86945533D01*
X65412526Y-87208508D01*
X65356995Y-87487679D01*
X65356995Y-87772321D01*
X65412526Y-88051492D01*
X65521453Y-88314467D01*
X65679591Y-88551137D01*
X65880863Y-88752409D01*
X66101748Y-88900000D01*
X65880863Y-89047591D01*
X65679591Y-89248863D01*
X65521453Y-89485533D01*
X65412526Y-89748508D01*
X65356995Y-90027679D01*
X65356995Y-90312321D01*
X65412526Y-90591492D01*
X65521453Y-90854467D01*
X65679591Y-91091137D01*
X65880863Y-91292409D01*
X66101748Y-91440000D01*
X65880863Y-91587591D01*
X65679591Y-91788863D01*
X65521453Y-92025533D01*
X65412526Y-92288508D01*
X65356995Y-92567679D01*
X65356995Y-92852321D01*
X65412526Y-93131492D01*
X65521453Y-93394467D01*
X65679591Y-93631137D01*
X65880863Y-93832409D01*
X66101748Y-93980000D01*
X65880863Y-94127591D01*
X65679591Y-94328863D01*
X65521453Y-94565533D01*
X65412526Y-94828508D01*
X65356995Y-95107679D01*
X65356995Y-95392321D01*
X65412526Y-95671492D01*
X65521453Y-95934467D01*
X65679591Y-96171137D01*
X65880863Y-96372409D01*
X66101748Y-96520000D01*
X65880863Y-96667591D01*
X65679591Y-96868863D01*
X65521453Y-97105533D01*
X65412526Y-97368508D01*
X65356995Y-97647679D01*
X65356995Y-97932321D01*
X65412526Y-98211492D01*
X65521453Y-98474467D01*
X65679591Y-98711137D01*
X65880863Y-98912409D01*
X66101748Y-99060000D01*
X65880863Y-99207591D01*
X65679591Y-99408863D01*
X65521453Y-99645533D01*
X65412526Y-99908508D01*
X65356995Y-100187679D01*
X65356995Y-100472321D01*
X65412526Y-100751492D01*
X65521453Y-101014467D01*
X65679591Y-101251137D01*
X65880863Y-101452409D01*
X66101748Y-101600000D01*
X65880863Y-101747591D01*
X65679591Y-101948863D01*
X65521453Y-102185533D01*
X65412526Y-102448508D01*
X65356995Y-102727679D01*
X65356995Y-103012321D01*
X65412526Y-103291492D01*
X65521453Y-103554467D01*
X65679591Y-103791137D01*
X65880863Y-103992409D01*
X66101748Y-104140000D01*
X65880863Y-104287591D01*
X65679591Y-104488863D01*
X65521453Y-104725533D01*
X65412526Y-104988508D01*
X65356995Y-105267679D01*
X65356995Y-105552321D01*
X65412526Y-105831492D01*
X65521453Y-106094467D01*
X65679591Y-106331137D01*
X65880863Y-106532409D01*
X66101748Y-106680000D01*
X65880863Y-106827591D01*
X65679591Y-107028863D01*
X65521453Y-107265533D01*
X65412526Y-107528508D01*
X65356995Y-107807679D01*
X65356995Y-108092321D01*
X65412526Y-108371492D01*
X65521453Y-108634467D01*
X65679591Y-108871137D01*
X65880863Y-109072409D01*
X66101748Y-109220000D01*
X65880863Y-109367591D01*
X65679591Y-109568863D01*
X65521453Y-109805533D01*
X65412526Y-110068508D01*
X65356995Y-110347679D01*
X65356995Y-110632321D01*
X65412526Y-110911492D01*
X65521453Y-111174467D01*
X65679591Y-111411137D01*
X65880863Y-111612409D01*
X66101748Y-111760000D01*
X65880863Y-111907591D01*
X65679591Y-112108863D01*
X65521453Y-112345533D01*
X65412526Y-112608508D01*
X65356995Y-112887679D01*
X65356995Y-113172321D01*
X65412526Y-113451492D01*
X65521453Y-113714467D01*
X65679591Y-113951137D01*
X65880863Y-114152409D01*
X66101748Y-114300000D01*
X65880863Y-114447591D01*
X65679591Y-114648863D01*
X65521453Y-114885533D01*
X65412526Y-115148508D01*
X65356995Y-115427679D01*
X65356995Y-115712321D01*
X65412526Y-115991492D01*
X65521453Y-116254467D01*
X65679591Y-116491137D01*
X65880863Y-116692409D01*
X66101748Y-116840000D01*
X65880863Y-116987591D01*
X65679591Y-117188863D01*
X65521453Y-117425533D01*
X65412526Y-117688508D01*
X65356995Y-117967679D01*
X65356995Y-118252321D01*
X65412526Y-118531492D01*
X65521453Y-118794467D01*
X65679591Y-119031137D01*
X65880863Y-119232409D01*
X66117533Y-119390547D01*
X66380508Y-119499474D01*
X66659679Y-119555005D01*
X66944321Y-119555005D01*
X67223492Y-119499474D01*
X67486467Y-119390547D01*
X67723137Y-119232409D01*
X67924409Y-119031137D01*
X68072000Y-118810252D01*
X68219591Y-119031137D01*
X68420863Y-119232409D01*
X68657533Y-119390547D01*
X68920508Y-119499474D01*
X69199679Y-119555005D01*
X69484321Y-119555005D01*
X69763492Y-119499474D01*
X70026467Y-119390547D01*
X70263137Y-119232409D01*
X70464409Y-119031137D01*
X70622547Y-118794467D01*
X70731474Y-118531492D01*
X70787005Y-118252321D01*
X70787005Y-117967679D01*
X70731474Y-117688508D01*
X70622547Y-117425533D01*
X70464409Y-117188863D01*
X70263137Y-116987591D01*
X70042252Y-116840000D01*
X70263137Y-116692409D01*
X70464409Y-116491137D01*
X70622547Y-116254467D01*
X70731474Y-115991492D01*
X70787005Y-115712321D01*
X70787005Y-115427679D01*
X70731474Y-115148508D01*
X70622547Y-114885533D01*
X70464409Y-114648863D01*
X70263137Y-114447591D01*
X70042252Y-114300000D01*
X70263137Y-114152409D01*
X70464409Y-113951137D01*
X70622547Y-113714467D01*
X70731474Y-113451492D01*
X70787005Y-113172321D01*
X70787005Y-112887679D01*
X70731474Y-112608508D01*
X70622547Y-112345533D01*
X70464409Y-112108863D01*
X70263137Y-111907591D01*
X70042252Y-111760000D01*
X70263137Y-111612409D01*
X70464409Y-111411137D01*
X70622547Y-111174467D01*
X70731474Y-110911492D01*
X70787005Y-110632321D01*
X70787005Y-110347679D01*
X70731474Y-110068508D01*
X70622547Y-109805533D01*
X70464409Y-109568863D01*
X70263137Y-109367591D01*
X70042252Y-109220000D01*
X70263137Y-109072409D01*
X70464409Y-108871137D01*
X70622547Y-108634467D01*
X70731474Y-108371492D01*
X70787005Y-108092321D01*
X70787005Y-107807679D01*
X70731474Y-107528508D01*
X70622547Y-107265533D01*
X70464409Y-107028863D01*
X70263137Y-106827591D01*
X70042252Y-106680000D01*
X70263137Y-106532409D01*
X70464409Y-106331137D01*
X70622547Y-106094467D01*
X70731474Y-105831492D01*
X70787005Y-105552321D01*
X70787005Y-105267679D01*
X70731474Y-104988508D01*
X70641179Y-104770514D01*
X88835000Y-104770514D01*
X88835000Y-105033486D01*
X88886304Y-105291405D01*
X88986939Y-105534359D01*
X89133038Y-105753013D01*
X89318987Y-105938962D01*
X89537641Y-106085061D01*
X89780595Y-106185696D01*
X90038514Y-106237000D01*
X90301486Y-106237000D01*
X90559405Y-106185696D01*
X90802359Y-106085061D01*
X91021013Y-105938962D01*
X91206962Y-105753013D01*
X91353061Y-105534359D01*
X91453696Y-105291405D01*
X91505000Y-105033486D01*
X91505000Y-104770514D01*
X91453696Y-104512595D01*
X91353061Y-104269641D01*
X91206962Y-104050987D01*
X91021013Y-103865038D01*
X90802359Y-103718939D01*
X90559405Y-103618304D01*
X90301486Y-103567000D01*
X90038514Y-103567000D01*
X89780595Y-103618304D01*
X89537641Y-103718939D01*
X89318987Y-103865038D01*
X89133038Y-104050987D01*
X88986939Y-104269641D01*
X88886304Y-104512595D01*
X88835000Y-104770514D01*
X70641179Y-104770514D01*
X70622547Y-104725533D01*
X70464409Y-104488863D01*
X70263137Y-104287591D01*
X70042252Y-104140000D01*
X70263137Y-103992409D01*
X70464409Y-103791137D01*
X70622547Y-103554467D01*
X70731474Y-103291492D01*
X70787005Y-103012321D01*
X70787005Y-102727679D01*
X70731474Y-102448508D01*
X70622547Y-102185533D01*
X70464409Y-101948863D01*
X70263137Y-101747591D01*
X70042252Y-101600000D01*
X70263137Y-101452409D01*
X70464409Y-101251137D01*
X70622547Y-101014467D01*
X70731474Y-100751492D01*
X70787005Y-100472321D01*
X70787005Y-100187679D01*
X70731474Y-99908508D01*
X70622547Y-99645533D01*
X70464409Y-99408863D01*
X70263137Y-99207591D01*
X70042252Y-99060000D01*
X70263137Y-98912409D01*
X70464409Y-98711137D01*
X70622547Y-98474467D01*
X70731474Y-98211492D01*
X70787005Y-97932321D01*
X70787005Y-97647679D01*
X70760157Y-97512702D01*
X81736903Y-97512702D01*
X81808486Y-97756671D01*
X82063996Y-97877571D01*
X82338184Y-97946300D01*
X82620512Y-97960217D01*
X82900130Y-97918787D01*
X83166292Y-97823603D01*
X83291514Y-97756671D01*
X83363097Y-97512702D01*
X82550000Y-96699605D01*
X81736903Y-97512702D01*
X70760157Y-97512702D01*
X70731474Y-97368508D01*
X70728362Y-97360994D01*
X80685701Y-97360994D01*
X80723124Y-97364680D01*
X80760547Y-97360994D01*
X80760550Y-97360994D01*
X80872502Y-97349968D01*
X81016139Y-97306396D01*
X81148516Y-97235639D01*
X81253463Y-97149512D01*
X81313329Y-97261514D01*
X81557298Y-97333097D01*
X82370395Y-96520000D01*
X82356253Y-96505858D01*
X82535858Y-96326253D01*
X82550000Y-96340395D01*
X82564143Y-96326253D01*
X82743748Y-96505858D01*
X82729605Y-96520000D01*
X83542702Y-97333097D01*
X83786671Y-97261514D01*
X83849999Y-97127677D01*
X86779700Y-100079252D01*
X86804460Y-100109422D01*
X86861386Y-100156139D01*
X86918124Y-100203058D01*
X86919385Y-100203738D01*
X86920490Y-100204645D01*
X86985389Y-100239334D01*
X87050237Y-100274307D01*
X87051605Y-100274728D01*
X87052867Y-100275402D01*
X87123445Y-100296812D01*
X87193711Y-100318412D01*
X87195130Y-100318557D01*
X87196504Y-100318974D01*
X87269894Y-100326202D01*
X87343034Y-100333681D01*
X87381888Y-100330000D01*
X94208370Y-100330000D01*
X107359286Y-113480917D01*
X107319486Y-113473000D01*
X107056514Y-113473000D01*
X106798595Y-113524304D01*
X106555641Y-113624939D01*
X106336987Y-113771038D01*
X106151038Y-113956987D01*
X106004939Y-114175641D01*
X105904304Y-114418595D01*
X105853000Y-114676514D01*
X105853000Y-114939486D01*
X105904304Y-115197405D01*
X106004939Y-115440359D01*
X106151038Y-115659013D01*
X106336987Y-115844962D01*
X106426000Y-115904438D01*
X106426001Y-118507928D01*
X105606000Y-118507928D01*
X105481518Y-118520188D01*
X105361820Y-118556498D01*
X105251506Y-118615463D01*
X105154815Y-118694815D01*
X105075463Y-118791506D01*
X105016498Y-118901820D01*
X104980188Y-119021518D01*
X104967928Y-119146000D01*
X104967928Y-119634000D01*
X92771631Y-119634000D01*
X91484114Y-118346484D01*
X91505000Y-118241486D01*
X91505000Y-117978514D01*
X91453696Y-117720595D01*
X91353061Y-117477641D01*
X91206962Y-117258987D01*
X91021013Y-117073038D01*
X90932000Y-117013562D01*
X90932000Y-113618438D01*
X91021013Y-113558962D01*
X91206962Y-113373013D01*
X91353061Y-113154359D01*
X91453696Y-112911405D01*
X91505000Y-112653486D01*
X91505000Y-112390514D01*
X91453696Y-112132595D01*
X91353061Y-111889641D01*
X91206962Y-111670987D01*
X91021013Y-111485038D01*
X90802359Y-111338939D01*
X90559405Y-111238304D01*
X90301486Y-111187000D01*
X90038514Y-111187000D01*
X89780595Y-111238304D01*
X89537641Y-111338939D01*
X89318987Y-111485038D01*
X89133038Y-111670987D01*
X88986939Y-111889641D01*
X88886304Y-112132595D01*
X88835000Y-112390514D01*
X88835000Y-112653486D01*
X88886304Y-112911405D01*
X88986939Y-113154359D01*
X89133038Y-113373013D01*
X89318987Y-113558962D01*
X89408001Y-113618439D01*
X89408000Y-117013562D01*
X89318987Y-117073038D01*
X89133038Y-117258987D01*
X88986939Y-117477641D01*
X88886304Y-117720595D01*
X88835000Y-117978514D01*
X88835000Y-118241486D01*
X88886304Y-118499405D01*
X88986939Y-118742359D01*
X89133038Y-118961013D01*
X89318987Y-119146962D01*
X89537641Y-119293061D01*
X89780595Y-119393696D01*
X90038514Y-119445000D01*
X90301486Y-119445000D01*
X90406484Y-119424114D01*
X91890721Y-120908352D01*
X91914578Y-120937422D01*
X92030608Y-121032645D01*
X92162985Y-121103402D01*
X92306622Y-121146974D01*
X92418574Y-121158000D01*
X92418576Y-121158000D01*
X92455999Y-121161686D01*
X92493422Y-121158000D01*
X104967928Y-121158000D01*
X104967928Y-121646000D01*
X104980188Y-121770482D01*
X105016498Y-121890180D01*
X105075463Y-122000494D01*
X105154815Y-122097185D01*
X105251506Y-122176537D01*
X105361820Y-122235502D01*
X105481518Y-122271812D01*
X105606000Y-122284072D01*
X107406000Y-122284072D01*
X107530482Y-122271812D01*
X107650180Y-122235502D01*
X107760494Y-122176537D01*
X107857185Y-122097185D01*
X107936537Y-122000494D01*
X107995502Y-121890180D01*
X108031812Y-121770482D01*
X108044072Y-121646000D01*
X108044072Y-119146000D01*
X108031812Y-119021518D01*
X107995502Y-118901820D01*
X107950000Y-118816693D01*
X107950000Y-115904438D01*
X108039013Y-115844962D01*
X108088147Y-115795828D01*
X111453318Y-119161000D01*
X111384363Y-119161000D01*
X111145764Y-119208460D01*
X110921008Y-119301557D01*
X110718733Y-119436713D01*
X110546713Y-119608733D01*
X110411557Y-119811008D01*
X110318460Y-120035764D01*
X110271000Y-120274363D01*
X110271000Y-120517637D01*
X110318460Y-120756236D01*
X110411557Y-120980992D01*
X110546713Y-121183267D01*
X110718733Y-121355287D01*
X110921008Y-121490443D01*
X111145764Y-121583540D01*
X111384363Y-121631000D01*
X111627637Y-121631000D01*
X111866236Y-121583540D01*
X112090992Y-121490443D01*
X112293267Y-121355287D01*
X112465287Y-121183267D01*
X112600443Y-120980992D01*
X112693540Y-120756236D01*
X112741000Y-120517637D01*
X112741000Y-120448682D01*
X114831671Y-122539353D01*
X114855528Y-122568423D01*
X114971558Y-122663646D01*
X115103935Y-122734403D01*
X115247572Y-122777975D01*
X115359524Y-122789001D01*
X115359526Y-122789001D01*
X115396949Y-122792687D01*
X115434372Y-122789001D01*
X193149576Y-122789001D01*
X193186999Y-122792687D01*
X193224422Y-122789001D01*
X193224425Y-122789001D01*
X193336377Y-122777975D01*
X193480014Y-122734403D01*
X193612391Y-122663646D01*
X193728421Y-122568423D01*
X193752283Y-122539347D01*
X199898001Y-116393630D01*
X199898000Y-122093562D01*
X199808987Y-122153038D01*
X199623038Y-122338987D01*
X199476939Y-122557641D01*
X199376304Y-122800595D01*
X199325000Y-123058514D01*
X199325000Y-123321486D01*
X199376304Y-123579405D01*
X199476939Y-123822359D01*
X199623038Y-124041013D01*
X199808987Y-124226962D01*
X200027641Y-124373061D01*
X200270595Y-124473696D01*
X200528514Y-124525000D01*
X200791486Y-124525000D01*
X201049405Y-124473696D01*
X201292359Y-124373061D01*
X201511013Y-124226962D01*
X201696962Y-124041013D01*
X201843061Y-123822359D01*
X201943696Y-123579405D01*
X201995000Y-123321486D01*
X201995000Y-123058514D01*
X201943696Y-122800595D01*
X201843061Y-122557641D01*
X201696962Y-122338987D01*
X201511013Y-122153038D01*
X201422000Y-122093562D01*
X201422000Y-115477000D01*
X201587958Y-115477000D01*
X201913496Y-115412246D01*
X202220147Y-115285228D01*
X202496125Y-115100825D01*
X202692000Y-114904950D01*
X202887875Y-115100825D01*
X203163853Y-115285228D01*
X203200001Y-115300201D01*
X203200000Y-118834577D01*
X203196314Y-118872000D01*
X203200000Y-118909423D01*
X203200000Y-118909425D01*
X203211026Y-119021377D01*
X203254598Y-119165014D01*
X203287535Y-119226635D01*
X203325355Y-119297392D01*
X203341769Y-119317392D01*
X203420578Y-119413422D01*
X203449654Y-119437284D01*
X206965886Y-122953516D01*
X206945000Y-123058514D01*
X206945000Y-123321486D01*
X206996304Y-123579405D01*
X207096939Y-123822359D01*
X207243038Y-124041013D01*
X207428987Y-124226962D01*
X207647641Y-124373061D01*
X207890595Y-124473696D01*
X208148514Y-124525000D01*
X208411486Y-124525000D01*
X208669405Y-124473696D01*
X208912359Y-124373061D01*
X209131013Y-124226962D01*
X209316962Y-124041013D01*
X209463061Y-123822359D01*
X209563696Y-123579405D01*
X209615000Y-123321486D01*
X209615000Y-123058514D01*
X209563696Y-122800595D01*
X209463061Y-122557641D01*
X209316962Y-122338987D01*
X209131013Y-122153038D01*
X208912359Y-122006939D01*
X208669405Y-121906304D01*
X208411486Y-121855000D01*
X208148514Y-121855000D01*
X208043516Y-121875886D01*
X204724000Y-118556370D01*
X204724000Y-115300200D01*
X204760147Y-115285228D01*
X205036125Y-115100825D01*
X205173884Y-114963066D01*
X205510539Y-114963066D01*
X205612339Y-115232579D01*
X205910477Y-115378463D01*
X206231346Y-115463380D01*
X206562617Y-115484066D01*
X206891557Y-115439728D01*
X207205527Y-115332069D01*
X207391661Y-115232579D01*
X207493461Y-114963066D01*
X206502000Y-113971605D01*
X205510539Y-114963066D01*
X205173884Y-114963066D01*
X205270825Y-114866125D01*
X205327042Y-114781991D01*
X205330934Y-114783461D01*
X206322395Y-113792000D01*
X206681605Y-113792000D01*
X207673066Y-114783461D01*
X207942579Y-114681661D01*
X208088463Y-114383523D01*
X208173380Y-114062654D01*
X208194066Y-113731383D01*
X208149728Y-113402443D01*
X208042069Y-113088473D01*
X207942579Y-112902339D01*
X207673066Y-112800539D01*
X206681605Y-113792000D01*
X206322395Y-113792000D01*
X205330934Y-112800539D01*
X205327042Y-112802009D01*
X205270825Y-112717875D01*
X205173884Y-112620934D01*
X205510539Y-112620934D01*
X206502000Y-113612395D01*
X207493461Y-112620934D01*
X207391661Y-112351421D01*
X207093523Y-112205537D01*
X206772654Y-112120620D01*
X206441383Y-112099934D01*
X206112443Y-112144272D01*
X205798473Y-112251931D01*
X205612339Y-112351421D01*
X205510539Y-112620934D01*
X205173884Y-112620934D01*
X205036125Y-112483175D01*
X204760147Y-112298772D01*
X204453496Y-112171754D01*
X204127958Y-112107000D01*
X203796042Y-112107000D01*
X203470504Y-112171754D01*
X203163853Y-112298772D01*
X202887875Y-112483175D01*
X202692000Y-112679050D01*
X202496125Y-112483175D01*
X202220147Y-112298772D01*
X201913496Y-112171754D01*
X201587958Y-112107000D01*
X201256042Y-112107000D01*
X200930504Y-112171754D01*
X200623853Y-112298772D01*
X200347875Y-112483175D01*
X200113175Y-112717875D01*
X199928772Y-112993853D01*
X199801754Y-113300504D01*
X199737000Y-113626042D01*
X199737000Y-113957958D01*
X199801754Y-114283496D01*
X199816726Y-114319643D01*
X192871369Y-121265001D01*
X180020072Y-121265001D01*
X180020072Y-118892000D01*
X180007812Y-118767518D01*
X179971502Y-118647820D01*
X179912537Y-118537506D01*
X179833185Y-118440815D01*
X179791239Y-118406391D01*
X196199630Y-101998000D01*
X224375928Y-101998000D01*
X224375928Y-103998000D01*
X224388188Y-104122482D01*
X224424498Y-104242180D01*
X224483463Y-104352494D01*
X224562815Y-104449185D01*
X224659506Y-104528537D01*
X224769820Y-104587502D01*
X224889518Y-104623812D01*
X225014000Y-104636072D01*
X227614000Y-104636072D01*
X227738482Y-104623812D01*
X227858180Y-104587502D01*
X227968494Y-104528537D01*
X228065185Y-104449185D01*
X228144537Y-104352494D01*
X228203502Y-104242180D01*
X228239812Y-104122482D01*
X228252072Y-103998000D01*
X228252072Y-101998000D01*
X228239812Y-101873518D01*
X228203502Y-101753820D01*
X228144537Y-101643506D01*
X228065185Y-101546815D01*
X227968494Y-101467463D01*
X227858180Y-101408498D01*
X227738482Y-101372188D01*
X227614000Y-101359928D01*
X225014000Y-101359928D01*
X224889518Y-101372188D01*
X224769820Y-101408498D01*
X224659506Y-101467463D01*
X224562815Y-101546815D01*
X224483463Y-101643506D01*
X224424498Y-101753820D01*
X224388188Y-101873518D01*
X224375928Y-101998000D01*
X196199630Y-101998000D01*
X196851620Y-101346010D01*
X206156360Y-101346008D01*
X206193793Y-101349695D01*
X206343171Y-101334982D01*
X206486808Y-101291410D01*
X206619185Y-101220654D01*
X206706144Y-101149288D01*
X206706145Y-101149287D01*
X206735215Y-101125430D01*
X206759072Y-101096360D01*
X207787353Y-100068080D01*
X207816423Y-100044223D01*
X207911646Y-99928193D01*
X207982403Y-99795816D01*
X208025975Y-99652179D01*
X208031311Y-99598000D01*
X221675928Y-99598000D01*
X221688188Y-99722482D01*
X221724498Y-99842180D01*
X221783463Y-99952494D01*
X221862815Y-100049185D01*
X221959506Y-100128537D01*
X222069820Y-100187502D01*
X222189518Y-100223812D01*
X222314000Y-100236072D01*
X223028250Y-100233000D01*
X223187000Y-100074250D01*
X223187000Y-98425000D01*
X223441000Y-98425000D01*
X223441000Y-100074250D01*
X223599750Y-100233000D01*
X224314000Y-100236072D01*
X224438482Y-100223812D01*
X224558180Y-100187502D01*
X224668494Y-100128537D01*
X224765185Y-100049185D01*
X224844537Y-99952494D01*
X224903502Y-99842180D01*
X224939812Y-99722482D01*
X224952072Y-99598000D01*
X224949000Y-98583750D01*
X224790250Y-98425000D01*
X223441000Y-98425000D01*
X223187000Y-98425000D01*
X221837750Y-98425000D01*
X221679000Y-98583750D01*
X221675928Y-99598000D01*
X208031311Y-99598000D01*
X208037001Y-99540227D01*
X208037001Y-99540225D01*
X208040687Y-99502802D01*
X208037001Y-99465379D01*
X208037001Y-96998000D01*
X221675928Y-96998000D01*
X221679000Y-98012250D01*
X221837750Y-98171000D01*
X223187000Y-98171000D01*
X223187000Y-96521750D01*
X223441000Y-96521750D01*
X223441000Y-98171000D01*
X224790250Y-98171000D01*
X224949000Y-98012250D01*
X224952072Y-96998000D01*
X227675928Y-96998000D01*
X227675928Y-99598000D01*
X227688188Y-99722482D01*
X227724498Y-99842180D01*
X227783463Y-99952494D01*
X227862815Y-100049185D01*
X227959506Y-100128537D01*
X228069820Y-100187502D01*
X228189518Y-100223812D01*
X228314000Y-100236072D01*
X230314000Y-100236072D01*
X230438482Y-100223812D01*
X230558180Y-100187502D01*
X230668494Y-100128537D01*
X230765185Y-100049185D01*
X230844537Y-99952494D01*
X230903502Y-99842180D01*
X230939812Y-99722482D01*
X230952072Y-99598000D01*
X230952072Y-96998000D01*
X230939812Y-96873518D01*
X230903502Y-96753820D01*
X230844537Y-96643506D01*
X230765185Y-96546815D01*
X230668494Y-96467463D01*
X230558180Y-96408498D01*
X230438482Y-96372188D01*
X230314000Y-96359928D01*
X228314000Y-96359928D01*
X228189518Y-96372188D01*
X228069820Y-96408498D01*
X227959506Y-96467463D01*
X227862815Y-96546815D01*
X227783463Y-96643506D01*
X227724498Y-96753820D01*
X227688188Y-96873518D01*
X227675928Y-96998000D01*
X224952072Y-96998000D01*
X224939812Y-96873518D01*
X224903502Y-96753820D01*
X224844537Y-96643506D01*
X224765185Y-96546815D01*
X224668494Y-96467463D01*
X224558180Y-96408498D01*
X224438482Y-96372188D01*
X224314000Y-96359928D01*
X223599750Y-96363000D01*
X223441000Y-96521750D01*
X223187000Y-96521750D01*
X223028250Y-96363000D01*
X222314000Y-96359928D01*
X222189518Y-96372188D01*
X222069820Y-96408498D01*
X221959506Y-96467463D01*
X221862815Y-96546815D01*
X221783463Y-96643506D01*
X221724498Y-96753820D01*
X221688188Y-96873518D01*
X221675928Y-96998000D01*
X208037001Y-96998000D01*
X208037001Y-95809216D01*
X208040687Y-95771793D01*
X208037001Y-95734367D01*
X208025975Y-95622415D01*
X207982403Y-95478778D01*
X207936191Y-95392321D01*
X207911646Y-95346400D01*
X207840280Y-95259441D01*
X207816423Y-95230371D01*
X207787354Y-95206515D01*
X206981828Y-94400989D01*
X207186312Y-94196505D01*
X207354299Y-93945095D01*
X207470011Y-93665743D01*
X207529000Y-93369184D01*
X207529000Y-93066816D01*
X207470011Y-92770257D01*
X207354299Y-92490905D01*
X207186312Y-92239495D01*
X206972505Y-92025688D01*
X206818895Y-91923049D01*
X206878475Y-91742080D01*
X205994000Y-90857605D01*
X205979858Y-90871748D01*
X205800253Y-90692143D01*
X205814395Y-90678000D01*
X206173605Y-90678000D01*
X207058080Y-91562475D01*
X207312261Y-91478792D01*
X207443158Y-91206225D01*
X207518365Y-90913358D01*
X207534991Y-90611447D01*
X207492397Y-90312093D01*
X207392222Y-90026801D01*
X207312261Y-89877208D01*
X207058080Y-89793525D01*
X206173605Y-90678000D01*
X205814395Y-90678000D01*
X204929920Y-89793525D01*
X204675739Y-89877208D01*
X204544842Y-90149775D01*
X204469635Y-90442642D01*
X204460586Y-90606956D01*
X202398201Y-88544570D01*
X202449000Y-88289184D01*
X202449000Y-87986816D01*
X204459000Y-87986816D01*
X204459000Y-88289184D01*
X204517989Y-88585743D01*
X204633701Y-88865095D01*
X204801688Y-89116505D01*
X205015495Y-89330312D01*
X205169105Y-89432951D01*
X205109525Y-89613920D01*
X205994000Y-90498395D01*
X206878475Y-89613920D01*
X206818895Y-89432951D01*
X206972505Y-89330312D01*
X207186312Y-89116505D01*
X207354299Y-88865095D01*
X207470011Y-88585743D01*
X207529000Y-88289184D01*
X207529000Y-87986816D01*
X207470011Y-87690257D01*
X207354299Y-87410905D01*
X207186312Y-87159495D01*
X206972505Y-86945688D01*
X206721095Y-86777701D01*
X206441743Y-86661989D01*
X206145184Y-86603000D01*
X205842816Y-86603000D01*
X205546257Y-86661989D01*
X205266905Y-86777701D01*
X205015495Y-86945688D01*
X204801688Y-87159495D01*
X204633701Y-87410905D01*
X204517989Y-87690257D01*
X204459000Y-87986816D01*
X202449000Y-87986816D01*
X202390011Y-87690257D01*
X202274299Y-87410905D01*
X202106312Y-87159495D01*
X201892505Y-86945688D01*
X201641095Y-86777701D01*
X201361743Y-86661989D01*
X201065184Y-86603000D01*
X200762816Y-86603000D01*
X200466257Y-86661989D01*
X200186905Y-86777701D01*
X199935495Y-86945688D01*
X199721688Y-87159495D01*
X199553701Y-87410905D01*
X199437989Y-87690257D01*
X199379000Y-87986816D01*
X199379000Y-88289184D01*
X199437989Y-88585743D01*
X199553701Y-88865095D01*
X199721688Y-89116505D01*
X199935495Y-89330312D01*
X200051763Y-89408000D01*
X199935495Y-89485688D01*
X199721688Y-89699495D01*
X199553701Y-89950905D01*
X199437989Y-90230257D01*
X199379000Y-90526816D01*
X199379000Y-90829184D01*
X199437989Y-91125743D01*
X199553701Y-91405095D01*
X199721688Y-91656505D01*
X199935495Y-91870312D01*
X200051763Y-91948000D01*
X199935495Y-92025688D01*
X199721688Y-92239495D01*
X199553701Y-92490905D01*
X199437989Y-92770257D01*
X199379000Y-93066816D01*
X199379000Y-93369184D01*
X199437989Y-93665743D01*
X199553701Y-93945095D01*
X199721688Y-94196505D01*
X199935495Y-94410312D01*
X200186905Y-94578299D01*
X200466257Y-94694011D01*
X200762816Y-94753000D01*
X201065184Y-94753000D01*
X201361743Y-94694011D01*
X201433002Y-94664495D01*
X201433001Y-96851505D01*
X201361743Y-96821989D01*
X201065184Y-96763000D01*
X200762816Y-96763000D01*
X200507430Y-96813799D01*
X192483285Y-88789655D01*
X192459423Y-88760579D01*
X192343393Y-88665356D01*
X192211016Y-88594599D01*
X192067379Y-88551027D01*
X191955427Y-88540001D01*
X191955424Y-88540001D01*
X191918001Y-88536315D01*
X191880578Y-88540001D01*
X170754103Y-88540001D01*
X170841891Y-88408617D01*
X171006224Y-88011883D01*
X171090000Y-87590711D01*
X171090000Y-87161289D01*
X171006224Y-86740117D01*
X170942000Y-86585067D01*
X170942000Y-79248000D01*
X179060169Y-79248000D01*
X179099403Y-79646340D01*
X179215594Y-80029374D01*
X179404280Y-80382381D01*
X179512555Y-80514314D01*
X179658208Y-80691793D01*
X179735743Y-80755425D01*
X184509109Y-85528791D01*
X184669490Y-85915985D01*
X184919008Y-86289415D01*
X185236585Y-86606992D01*
X185610015Y-86856510D01*
X186024949Y-87028381D01*
X186465440Y-87116000D01*
X186914560Y-87116000D01*
X187355051Y-87028381D01*
X187769985Y-86856510D01*
X188143415Y-86606992D01*
X188460992Y-86289415D01*
X188710510Y-85915985D01*
X188882381Y-85501051D01*
X188970000Y-85060560D01*
X188970000Y-84611440D01*
X188882381Y-84170949D01*
X188710510Y-83756015D01*
X188460992Y-83382585D01*
X188143415Y-83065008D01*
X187769985Y-82815490D01*
X187382791Y-82655109D01*
X183134000Y-78406319D01*
X183134000Y-66956184D01*
X183104598Y-66657659D01*
X182990072Y-66280117D01*
X182990072Y-65806000D01*
X182977812Y-65681518D01*
X182941502Y-65561820D01*
X182882537Y-65451506D01*
X182803185Y-65354815D01*
X182706494Y-65275463D01*
X182596180Y-65216498D01*
X182476482Y-65180188D01*
X182352000Y-65167928D01*
X181877882Y-65167928D01*
X181500340Y-65053402D01*
X181102000Y-65014169D01*
X180703659Y-65053402D01*
X180326117Y-65167928D01*
X179852000Y-65167928D01*
X179727518Y-65180188D01*
X179607820Y-65216498D01*
X179497506Y-65275463D01*
X179400815Y-65354815D01*
X179321463Y-65451506D01*
X179262498Y-65561820D01*
X179226188Y-65681518D01*
X179213928Y-65806000D01*
X179213928Y-66280118D01*
X179099402Y-66657660D01*
X179070000Y-66956185D01*
X179070001Y-79148177D01*
X179060169Y-79248000D01*
X170942000Y-79248000D01*
X170942000Y-75089681D01*
X177609421Y-68422261D01*
X177799720Y-68190381D01*
X177988406Y-67837375D01*
X178104597Y-67454341D01*
X178143831Y-67056000D01*
X178104597Y-66657660D01*
X177988406Y-66274626D01*
X177799720Y-65921619D01*
X177545792Y-65612208D01*
X177236381Y-65358280D01*
X176883374Y-65169594D01*
X176500340Y-65053403D01*
X176102000Y-65014169D01*
X175703659Y-65053403D01*
X175320625Y-65169594D01*
X174967619Y-65358280D01*
X174735739Y-65548579D01*
X167543744Y-72740575D01*
X167466208Y-72804207D01*
X167402579Y-72881740D01*
X167212280Y-73113619D01*
X167023594Y-73466626D01*
X166907403Y-73849660D01*
X166868169Y-74248000D01*
X166878001Y-74347823D01*
X166878000Y-86585067D01*
X166813776Y-86740117D01*
X166730000Y-87161289D01*
X166730000Y-87590711D01*
X166813776Y-88011883D01*
X166978109Y-88408617D01*
X167065897Y-88540001D01*
X139004103Y-88540001D01*
X139091891Y-88408617D01*
X139256224Y-88011883D01*
X139340000Y-87590711D01*
X139340000Y-87161289D01*
X139256224Y-86740117D01*
X139192000Y-86585067D01*
X139192000Y-79502000D01*
X147564169Y-79502000D01*
X147584887Y-79712347D01*
X147603403Y-79900341D01*
X147618761Y-79950969D01*
X147719594Y-80283374D01*
X147908280Y-80636381D01*
X148010531Y-80760974D01*
X148162208Y-80945793D01*
X148239743Y-81009425D01*
X152759109Y-85528791D01*
X152919490Y-85915985D01*
X153169008Y-86289415D01*
X153486585Y-86606992D01*
X153860015Y-86856510D01*
X154274949Y-87028381D01*
X154715440Y-87116000D01*
X155164560Y-87116000D01*
X155605051Y-87028381D01*
X156019985Y-86856510D01*
X156393415Y-86606992D01*
X156710992Y-86289415D01*
X156960510Y-85915985D01*
X157132381Y-85501051D01*
X157220000Y-85060560D01*
X157220000Y-84611440D01*
X157132381Y-84170949D01*
X156960510Y-83756015D01*
X156710992Y-83382585D01*
X156393415Y-83065008D01*
X156019985Y-82815490D01*
X155632791Y-82655109D01*
X151638000Y-78660319D01*
X151638000Y-67210184D01*
X151608598Y-66911659D01*
X151494072Y-66534117D01*
X151494072Y-66060000D01*
X151481812Y-65935518D01*
X151445502Y-65815820D01*
X151386537Y-65705506D01*
X151307185Y-65608815D01*
X151210494Y-65529463D01*
X151100180Y-65470498D01*
X150980482Y-65434188D01*
X150856000Y-65421928D01*
X150381882Y-65421928D01*
X150004340Y-65307402D01*
X149606000Y-65268169D01*
X149207659Y-65307402D01*
X148830117Y-65421928D01*
X148356000Y-65421928D01*
X148231518Y-65434188D01*
X148111820Y-65470498D01*
X148001506Y-65529463D01*
X147904815Y-65608815D01*
X147825463Y-65705506D01*
X147766498Y-65815820D01*
X147730188Y-65935518D01*
X147717928Y-66060000D01*
X147717928Y-66534118D01*
X147603402Y-66911660D01*
X147574000Y-67210185D01*
X147574001Y-79402177D01*
X147564169Y-79502000D01*
X139192000Y-79502000D01*
X139192000Y-75597681D01*
X146113421Y-68676261D01*
X146303720Y-68444382D01*
X146492405Y-68091376D01*
X146608597Y-67708341D01*
X146647831Y-67310001D01*
X146608597Y-66911660D01*
X146492405Y-66528626D01*
X146303720Y-66175620D01*
X146049792Y-65866208D01*
X145740380Y-65612280D01*
X145387374Y-65423595D01*
X145004340Y-65307403D01*
X144605999Y-65268169D01*
X144207659Y-65307403D01*
X143824624Y-65423595D01*
X143471618Y-65612280D01*
X143239739Y-65802579D01*
X135793744Y-73248575D01*
X135716208Y-73312207D01*
X135652579Y-73389740D01*
X135462280Y-73621619D01*
X135273594Y-73974626D01*
X135157403Y-74357660D01*
X135118169Y-74756000D01*
X135128001Y-74855823D01*
X135128000Y-86585067D01*
X135063776Y-86740117D01*
X134980000Y-87161289D01*
X134980000Y-87590711D01*
X135063776Y-88011883D01*
X135228109Y-88408617D01*
X135315897Y-88540001D01*
X107254103Y-88540001D01*
X107341891Y-88408617D01*
X107506224Y-88011883D01*
X107590000Y-87590711D01*
X107590000Y-87161289D01*
X107506224Y-86740117D01*
X107442000Y-86585067D01*
X107442000Y-79502000D01*
X115814169Y-79502000D01*
X115834887Y-79712347D01*
X115853403Y-79900341D01*
X115868761Y-79950969D01*
X115969594Y-80283374D01*
X116158280Y-80636381D01*
X116260531Y-80760974D01*
X116412208Y-80945793D01*
X116489743Y-81009425D01*
X121009109Y-85528791D01*
X121169490Y-85915985D01*
X121419008Y-86289415D01*
X121736585Y-86606992D01*
X122110015Y-86856510D01*
X122524949Y-87028381D01*
X122965440Y-87116000D01*
X123414560Y-87116000D01*
X123855051Y-87028381D01*
X124269985Y-86856510D01*
X124643415Y-86606992D01*
X124960992Y-86289415D01*
X125210510Y-85915985D01*
X125382381Y-85501051D01*
X125470000Y-85060560D01*
X125470000Y-84611440D01*
X125382381Y-84170949D01*
X125210510Y-83756015D01*
X124960992Y-83382585D01*
X124643415Y-83065008D01*
X124269985Y-82815490D01*
X123882791Y-82655109D01*
X119888000Y-78660319D01*
X119888000Y-66956184D01*
X119858598Y-66657659D01*
X119744072Y-66280117D01*
X119744072Y-65806000D01*
X119731812Y-65681518D01*
X119695502Y-65561820D01*
X119636537Y-65451506D01*
X119557185Y-65354815D01*
X119460494Y-65275463D01*
X119350180Y-65216498D01*
X119230482Y-65180188D01*
X119106000Y-65167928D01*
X118631882Y-65167928D01*
X118254340Y-65053402D01*
X117856000Y-65014169D01*
X117457659Y-65053402D01*
X117080117Y-65167928D01*
X116606000Y-65167928D01*
X116481518Y-65180188D01*
X116361820Y-65216498D01*
X116251506Y-65275463D01*
X116154815Y-65354815D01*
X116075463Y-65451506D01*
X116016498Y-65561820D01*
X115980188Y-65681518D01*
X115967928Y-65806000D01*
X115967928Y-66280118D01*
X115853402Y-66657660D01*
X115824000Y-66956185D01*
X115824001Y-79402177D01*
X115814169Y-79502000D01*
X107442000Y-79502000D01*
X107442000Y-75343681D01*
X114363421Y-68422261D01*
X114553720Y-68190382D01*
X114742405Y-67837376D01*
X114858597Y-67454341D01*
X114897831Y-67056001D01*
X114858597Y-66657660D01*
X114742405Y-66274626D01*
X114553720Y-65921620D01*
X114299792Y-65612208D01*
X113990380Y-65358280D01*
X113637374Y-65169595D01*
X113254340Y-65053403D01*
X112855999Y-65014169D01*
X112457659Y-65053403D01*
X112074624Y-65169595D01*
X111721618Y-65358280D01*
X111489739Y-65548579D01*
X104043744Y-72994575D01*
X103966208Y-73058207D01*
X103902579Y-73135740D01*
X103712280Y-73367619D01*
X103523594Y-73720626D01*
X103407403Y-74103660D01*
X103368169Y-74502000D01*
X103378001Y-74601823D01*
X103378000Y-86585067D01*
X103313776Y-86740117D01*
X103230000Y-87161289D01*
X103230000Y-87590711D01*
X103313776Y-88011883D01*
X103478109Y-88408617D01*
X103565897Y-88540001D01*
X101047632Y-88540001D01*
X91569157Y-79061527D01*
X91605000Y-78881335D01*
X91605000Y-78598665D01*
X91549853Y-78321426D01*
X91441680Y-78060273D01*
X91284637Y-77825241D01*
X91084759Y-77625363D01*
X90849727Y-77468320D01*
X90588574Y-77360147D01*
X90311335Y-77305000D01*
X90028665Y-77305000D01*
X89751426Y-77360147D01*
X89490273Y-77468320D01*
X89255241Y-77625363D01*
X89055363Y-77825241D01*
X88898320Y-78060273D01*
X88790147Y-78321426D01*
X88735000Y-78598665D01*
X88735000Y-78881335D01*
X88790147Y-79158574D01*
X88898320Y-79419727D01*
X89055363Y-79654759D01*
X89255241Y-79854637D01*
X89487759Y-80010000D01*
X89255241Y-80165363D01*
X89055363Y-80365241D01*
X88898320Y-80600273D01*
X88790147Y-80861426D01*
X88735000Y-81138665D01*
X88735000Y-81421335D01*
X88770843Y-81601526D01*
X87968638Y-82403732D01*
X87939568Y-82427589D01*
X87915711Y-82456659D01*
X87915710Y-82456660D01*
X87844344Y-82543619D01*
X87773588Y-82675996D01*
X87730016Y-82819633D01*
X87715303Y-82969011D01*
X87718990Y-83006444D01*
X87718989Y-88921448D01*
X87715303Y-88958871D01*
X87718989Y-88996294D01*
X87718989Y-88996296D01*
X87730015Y-89108248D01*
X87773587Y-89251885D01*
X87773588Y-89251886D01*
X87844344Y-89384263D01*
X87860253Y-89403648D01*
X87939567Y-89500293D01*
X87968643Y-89524155D01*
X89021063Y-90576575D01*
X88898320Y-90760273D01*
X88790147Y-91021426D01*
X88735000Y-91298665D01*
X88735000Y-91581335D01*
X88770843Y-91761527D01*
X88476648Y-92055722D01*
X88447578Y-92079579D01*
X88423721Y-92108649D01*
X88423720Y-92108650D01*
X88352354Y-92195609D01*
X88281598Y-92327986D01*
X88238026Y-92471623D01*
X88223313Y-92621001D01*
X88227000Y-92658434D01*
X88226999Y-94509457D01*
X88223313Y-94546881D01*
X88226999Y-94584304D01*
X88226999Y-94584306D01*
X88238025Y-94696258D01*
X88281597Y-94839895D01*
X88281598Y-94839896D01*
X88352354Y-94972273D01*
X88391982Y-95020559D01*
X88447577Y-95088303D01*
X88476652Y-95112165D01*
X89021063Y-95656575D01*
X88898320Y-95840273D01*
X88790147Y-96101426D01*
X88735000Y-96378665D01*
X88735000Y-96661335D01*
X88790147Y-96938574D01*
X88898320Y-97199727D01*
X89055363Y-97434759D01*
X89255241Y-97634637D01*
X89490273Y-97791680D01*
X89751426Y-97899853D01*
X90028665Y-97955000D01*
X90311335Y-97955000D01*
X90588574Y-97899853D01*
X90849727Y-97791680D01*
X91084759Y-97634637D01*
X91284637Y-97434759D01*
X91441680Y-97199727D01*
X91549853Y-96938574D01*
X91605000Y-96661335D01*
X91605000Y-96378665D01*
X91549853Y-96101426D01*
X91528555Y-96050008D01*
X92432378Y-96050008D01*
X99002720Y-102620351D01*
X99026578Y-102649422D01*
X99142608Y-102744645D01*
X99274985Y-102815402D01*
X99418622Y-102858974D01*
X99530574Y-102870000D01*
X99530576Y-102870000D01*
X99567999Y-102873686D01*
X99605422Y-102870000D01*
X130394370Y-102870000D01*
X146184760Y-118660391D01*
X146142815Y-118694815D01*
X146063463Y-118791506D01*
X146004498Y-118901820D01*
X145968188Y-119021518D01*
X145955928Y-119146000D01*
X145955928Y-121265001D01*
X143371553Y-121265001D01*
X143453287Y-121183267D01*
X143588443Y-120980992D01*
X143681540Y-120756236D01*
X143729000Y-120517637D01*
X143729000Y-120274363D01*
X143681540Y-120035764D01*
X143588443Y-119811008D01*
X143453287Y-119608733D01*
X143281267Y-119436713D01*
X143078992Y-119301557D01*
X142854236Y-119208460D01*
X142615637Y-119161000D01*
X142372363Y-119161000D01*
X142133764Y-119208460D01*
X141909008Y-119301557D01*
X141706733Y-119436713D01*
X141534713Y-119608733D01*
X141399557Y-119811008D01*
X141306460Y-120035764D01*
X141259000Y-120274363D01*
X141259000Y-120517637D01*
X141306460Y-120756236D01*
X141399557Y-120980992D01*
X141534713Y-121183267D01*
X141616447Y-121265001D01*
X139032072Y-121265001D01*
X139032072Y-119146000D01*
X139019812Y-119021518D01*
X138983502Y-118901820D01*
X138924537Y-118791506D01*
X138845185Y-118694815D01*
X138748494Y-118615463D01*
X138638180Y-118556498D01*
X138518482Y-118520188D01*
X138394000Y-118507928D01*
X136594000Y-118507928D01*
X136469518Y-118520188D01*
X136349820Y-118556498D01*
X136239506Y-118615463D01*
X136142815Y-118694815D01*
X136063463Y-118791506D01*
X136004498Y-118901820D01*
X135968188Y-119021518D01*
X135955928Y-119146000D01*
X135955928Y-121265001D01*
X133538072Y-121265001D01*
X133538072Y-119146000D01*
X133525812Y-119021518D01*
X133489502Y-118901820D01*
X133430537Y-118791506D01*
X133351185Y-118694815D01*
X133254494Y-118615463D01*
X133144180Y-118556498D01*
X133024482Y-118520188D01*
X132900000Y-118507928D01*
X131100000Y-118507928D01*
X130975518Y-118520188D01*
X130855820Y-118556498D01*
X130745506Y-118615463D01*
X130648815Y-118694815D01*
X130569463Y-118791506D01*
X130510498Y-118901820D01*
X130474188Y-119021518D01*
X130461928Y-119146000D01*
X130461928Y-121265001D01*
X127877553Y-121265001D01*
X127959287Y-121183267D01*
X128094443Y-120980992D01*
X128187540Y-120756236D01*
X128235000Y-120517637D01*
X128235000Y-120274363D01*
X128187540Y-120035764D01*
X128094443Y-119811008D01*
X127959287Y-119608733D01*
X127787267Y-119436713D01*
X127584992Y-119301557D01*
X127360236Y-119208460D01*
X127121637Y-119161000D01*
X126878363Y-119161000D01*
X126639764Y-119208460D01*
X126415008Y-119301557D01*
X126212733Y-119436713D01*
X126040713Y-119608733D01*
X125905557Y-119811008D01*
X125812460Y-120035764D01*
X125765000Y-120274363D01*
X125765000Y-120517637D01*
X125812460Y-120756236D01*
X125905557Y-120980992D01*
X126040713Y-121183267D01*
X126122447Y-121265001D01*
X123538072Y-121265001D01*
X123538072Y-119146000D01*
X123525812Y-119021518D01*
X123489502Y-118901820D01*
X123430537Y-118791506D01*
X123351185Y-118694815D01*
X123254494Y-118615463D01*
X123144180Y-118556498D01*
X123024482Y-118520188D01*
X122900000Y-118507928D01*
X121100000Y-118507928D01*
X120975518Y-118520188D01*
X120855820Y-118556498D01*
X120745506Y-118615463D01*
X120648815Y-118694815D01*
X120569463Y-118791506D01*
X120510498Y-118901820D01*
X120474188Y-119021518D01*
X120461928Y-119146000D01*
X120461928Y-121265001D01*
X118044072Y-121265001D01*
X118044072Y-119146000D01*
X118031812Y-119021518D01*
X117995502Y-118901820D01*
X117936537Y-118791506D01*
X117857185Y-118694815D01*
X117760494Y-118615463D01*
X117650180Y-118556498D01*
X117530482Y-118520188D01*
X117406000Y-118507928D01*
X117268000Y-118507928D01*
X117268000Y-116543423D01*
X117271686Y-116506000D01*
X117268000Y-116468574D01*
X117256974Y-116356622D01*
X117213402Y-116212985D01*
X117142646Y-116080609D01*
X117142645Y-116080607D01*
X117107857Y-116038219D01*
X117047422Y-115964578D01*
X117018347Y-115940717D01*
X116122114Y-115044484D01*
X116143000Y-114939486D01*
X116143000Y-114676514D01*
X116091696Y-114418595D01*
X115991061Y-114175641D01*
X115844962Y-113956987D01*
X115659013Y-113771038D01*
X115440359Y-113624939D01*
X115197405Y-113524304D01*
X114939486Y-113473000D01*
X114676514Y-113473000D01*
X114418595Y-113524304D01*
X114175641Y-113624939D01*
X113956987Y-113771038D01*
X113771038Y-113956987D01*
X113624939Y-114175641D01*
X113524304Y-114418595D01*
X113473000Y-114676514D01*
X113473000Y-114939486D01*
X113524304Y-115197405D01*
X113624939Y-115440359D01*
X113771038Y-115659013D01*
X113956987Y-115844962D01*
X114175641Y-115991061D01*
X114418595Y-116091696D01*
X114676514Y-116143000D01*
X114939486Y-116143000D01*
X115044484Y-116122114D01*
X115744000Y-116821630D01*
X115744001Y-118507928D01*
X115606000Y-118507928D01*
X115481518Y-118520188D01*
X115361820Y-118556498D01*
X115251506Y-118615463D01*
X115154815Y-118694815D01*
X115075463Y-118791506D01*
X115016498Y-118901820D01*
X114997635Y-118964004D01*
X95089284Y-99055654D01*
X95065422Y-99026578D01*
X94949392Y-98931355D01*
X94817015Y-98860598D01*
X94673378Y-98817026D01*
X94561426Y-98806000D01*
X94561423Y-98806000D01*
X94524000Y-98802314D01*
X94486577Y-98806000D01*
X87663175Y-98806000D01*
X83878172Y-94992738D01*
X83877279Y-94991650D01*
X83854774Y-94969145D01*
X83832612Y-94946320D01*
X83829411Y-94943613D01*
X83826450Y-94940630D01*
X83825348Y-94939719D01*
X83712284Y-94826654D01*
X83711104Y-94825216D01*
X83821680Y-94659727D01*
X83929853Y-94398574D01*
X83985000Y-94121335D01*
X83985000Y-93838665D01*
X83929853Y-93561426D01*
X83821680Y-93300273D01*
X83664637Y-93065241D01*
X83464759Y-92865363D01*
X83232241Y-92710000D01*
X83464759Y-92554637D01*
X83664637Y-92354759D01*
X83821680Y-92119727D01*
X83929853Y-91858574D01*
X83985000Y-91581335D01*
X83985000Y-91298665D01*
X83929853Y-91021426D01*
X83821680Y-90760273D01*
X83664637Y-90525241D01*
X83464759Y-90325363D01*
X83232241Y-90170000D01*
X83464759Y-90014637D01*
X83664637Y-89814759D01*
X83821680Y-89579727D01*
X83929853Y-89318574D01*
X83985000Y-89041335D01*
X83985000Y-88758665D01*
X83929853Y-88481426D01*
X83821680Y-88220273D01*
X83664637Y-87985241D01*
X83464759Y-87785363D01*
X83232241Y-87630000D01*
X83464759Y-87474637D01*
X83664637Y-87274759D01*
X83821680Y-87039727D01*
X83929853Y-86778574D01*
X83985000Y-86501335D01*
X83985000Y-86218665D01*
X83929853Y-85941426D01*
X83821680Y-85680273D01*
X83664637Y-85445241D01*
X83464759Y-85245363D01*
X83232241Y-85090000D01*
X83464759Y-84934637D01*
X83664637Y-84734759D01*
X83821680Y-84499727D01*
X83929853Y-84238574D01*
X83985000Y-83961335D01*
X83985000Y-83678665D01*
X83929853Y-83401426D01*
X83821680Y-83140273D01*
X83664637Y-82905241D01*
X83464759Y-82705363D01*
X83232241Y-82550000D01*
X83464759Y-82394637D01*
X83664637Y-82194759D01*
X83821680Y-81959727D01*
X83929853Y-81698574D01*
X83985000Y-81421335D01*
X83985000Y-81138665D01*
X83929853Y-80861426D01*
X83821680Y-80600273D01*
X83664637Y-80365241D01*
X83466039Y-80166643D01*
X83474482Y-80165812D01*
X83594180Y-80129502D01*
X83704494Y-80070537D01*
X83801185Y-79991185D01*
X83880537Y-79894494D01*
X83939502Y-79784180D01*
X83975812Y-79664482D01*
X83988072Y-79540000D01*
X83988072Y-77940000D01*
X83975812Y-77815518D01*
X83939502Y-77695820D01*
X83880537Y-77585506D01*
X83801185Y-77488815D01*
X83704494Y-77409463D01*
X83594180Y-77350498D01*
X83474482Y-77314188D01*
X83350000Y-77301928D01*
X81750000Y-77301928D01*
X81625518Y-77314188D01*
X81505820Y-77350498D01*
X81395506Y-77409463D01*
X81311794Y-77478163D01*
X79600278Y-75766648D01*
X79576416Y-75737572D01*
X79460386Y-75642349D01*
X79328009Y-75571592D01*
X79184372Y-75528020D01*
X79072420Y-75516994D01*
X79072417Y-75516994D01*
X79034994Y-75513308D01*
X78997571Y-75516994D01*
X70662921Y-75516994D01*
X70731474Y-75351492D01*
X70787005Y-75072321D01*
X70787005Y-74787679D01*
X70731474Y-74508508D01*
X70622547Y-74245533D01*
X70464409Y-74008863D01*
X70263137Y-73807591D01*
X70026467Y-73649453D01*
X69763492Y-73540526D01*
X69484321Y-73484995D01*
X69199679Y-73484995D01*
X68920508Y-73540526D01*
X68657533Y-73649453D01*
X68420863Y-73807591D01*
X68219591Y-74008863D01*
X68072000Y-74229748D01*
X67924409Y-74008863D01*
X67723137Y-73807591D01*
X67486467Y-73649453D01*
X67223492Y-73540526D01*
X66944321Y-73484995D01*
X66659679Y-73484995D01*
X66380508Y-73540526D01*
X66117533Y-73649453D01*
X65880863Y-73807591D01*
X65679591Y-74008863D01*
X65521453Y-74245533D01*
X65412526Y-74508508D01*
X65356995Y-74787679D01*
X64366321Y-74787679D01*
X64411727Y-61620000D01*
X233271721Y-61620000D01*
X233022273Y-133960000D01*
G37*
X233022273Y-133960000D02*
X64162279Y-133960000D01*
X64183608Y-127774363D01*
X105271000Y-127774363D01*
X105271000Y-128017637D01*
X105318460Y-128256236D01*
X105411557Y-128480992D01*
X105546713Y-128683267D01*
X105718733Y-128855287D01*
X105921008Y-128990443D01*
X106145764Y-129083540D01*
X106384363Y-129131000D01*
X106627637Y-129131000D01*
X106866236Y-129083540D01*
X107090992Y-128990443D01*
X107293267Y-128855287D01*
X107465287Y-128683267D01*
X107600443Y-128480992D01*
X107693540Y-128256236D01*
X107741000Y-128017637D01*
X107741000Y-127774363D01*
X115271000Y-127774363D01*
X115271000Y-128017637D01*
X115318460Y-128256236D01*
X115411557Y-128480992D01*
X115546713Y-128683267D01*
X115718733Y-128855287D01*
X115921008Y-128990443D01*
X116145764Y-129083540D01*
X116384363Y-129131000D01*
X116627637Y-129131000D01*
X116866236Y-129083540D01*
X117090992Y-128990443D01*
X117293267Y-128855287D01*
X117465287Y-128683267D01*
X117600443Y-128480992D01*
X117693540Y-128256236D01*
X117741000Y-128017637D01*
X117741000Y-127774363D01*
X120765000Y-127774363D01*
X120765000Y-128017637D01*
X120812460Y-128256236D01*
X120905557Y-128480992D01*
X121040713Y-128683267D01*
X121212733Y-128855287D01*
X121415008Y-128990443D01*
X121639764Y-129083540D01*
X121878363Y-129131000D01*
X122121637Y-129131000D01*
X122360236Y-129083540D01*
X122584992Y-128990443D01*
X122787267Y-128855287D01*
X122959287Y-128683267D01*
X123094443Y-128480992D01*
X123187540Y-128256236D01*
X123235000Y-128017637D01*
X123235000Y-127774363D01*
X130765000Y-127774363D01*
X130765000Y-128017637D01*
X130812460Y-128256236D01*
X130905557Y-128480992D01*
X131040713Y-128683267D01*
X131212733Y-128855287D01*
X131415008Y-128990443D01*
X131639764Y-129083540D01*
X131878363Y-129131000D01*
X132121637Y-129131000D01*
X132360236Y-129083540D01*
X132584992Y-128990443D01*
X132787267Y-128855287D01*
X132959287Y-128683267D01*
X133094443Y-128480992D01*
X133187540Y-128256236D01*
X133235000Y-128017637D01*
X133235000Y-127774363D01*
X136259000Y-127774363D01*
X136259000Y-128017637D01*
X136306460Y-128256236D01*
X136399557Y-128480992D01*
X136534713Y-128683267D01*
X136706733Y-128855287D01*
X136909008Y-128990443D01*
X137133764Y-129083540D01*
X137372363Y-129131000D01*
X137615637Y-129131000D01*
X137854236Y-129083540D01*
X138078992Y-128990443D01*
X138281267Y-128855287D01*
X138453287Y-128683267D01*
X138588443Y-128480992D01*
X138681540Y-128256236D01*
X138729000Y-128017637D01*
X138729000Y-127774363D01*
X146259000Y-127774363D01*
X146259000Y-128017637D01*
X146306460Y-128256236D01*
X146399557Y-128480992D01*
X146534713Y-128683267D01*
X146706733Y-128855287D01*
X146909008Y-128990443D01*
X147133764Y-129083540D01*
X147372363Y-129131000D01*
X147615637Y-129131000D01*
X147854236Y-129083540D01*
X148078992Y-128990443D01*
X148281267Y-128855287D01*
X148453287Y-128683267D01*
X148588443Y-128480992D01*
X148681540Y-128256236D01*
X148729000Y-128017637D01*
X148729000Y-127774363D01*
X151499000Y-127774363D01*
X151499000Y-128017637D01*
X151546460Y-128256236D01*
X151639557Y-128480992D01*
X151774713Y-128683267D01*
X151946733Y-128855287D01*
X152149008Y-128990443D01*
X152373764Y-129083540D01*
X152612363Y-129131000D01*
X152855637Y-129131000D01*
X153094236Y-129083540D01*
X153318992Y-128990443D01*
X153521267Y-128855287D01*
X153693287Y-128683267D01*
X153828443Y-128480992D01*
X153921540Y-128256236D01*
X153969000Y-128017637D01*
X153969000Y-127774363D01*
X161499000Y-127774363D01*
X161499000Y-128017637D01*
X161546460Y-128256236D01*
X161639557Y-128480992D01*
X161774713Y-128683267D01*
X161946733Y-128855287D01*
X162149008Y-128990443D01*
X162373764Y-129083540D01*
X162612363Y-129131000D01*
X162855637Y-129131000D01*
X163094236Y-129083540D01*
X163318992Y-128990443D01*
X163521267Y-128855287D01*
X163693287Y-128683267D01*
X163828443Y-128480992D01*
X163921540Y-128256236D01*
X163969000Y-128017637D01*
X163969000Y-127774363D01*
X163921540Y-127535764D01*
X163915161Y-127520363D01*
X167247000Y-127520363D01*
X167247000Y-127763637D01*
X167294460Y-128002236D01*
X167387557Y-128226992D01*
X167522713Y-128429267D01*
X167694733Y-128601287D01*
X167897008Y-128736443D01*
X168121764Y-128829540D01*
X168360363Y-128877000D01*
X168603637Y-128877000D01*
X168842236Y-128829540D01*
X169066992Y-128736443D01*
X169269267Y-128601287D01*
X169441287Y-128429267D01*
X169576443Y-128226992D01*
X169669540Y-128002236D01*
X169717000Y-127763637D01*
X169717000Y-127520363D01*
X177247000Y-127520363D01*
X177247000Y-127763637D01*
X177294460Y-128002236D01*
X177387557Y-128226992D01*
X177522713Y-128429267D01*
X177694733Y-128601287D01*
X177897008Y-128736443D01*
X178121764Y-128829540D01*
X178360363Y-128877000D01*
X178603637Y-128877000D01*
X178842236Y-128829540D01*
X179066992Y-128736443D01*
X179269267Y-128601287D01*
X179441287Y-128429267D01*
X179576443Y-128226992D01*
X179669540Y-128002236D01*
X179717000Y-127763637D01*
X179717000Y-127520363D01*
X179669540Y-127281764D01*
X179576443Y-127057008D01*
X179441287Y-126854733D01*
X179269267Y-126682713D01*
X179066992Y-126547557D01*
X178842236Y-126454460D01*
X178603637Y-126407000D01*
X178360363Y-126407000D01*
X178121764Y-126454460D01*
X177897008Y-126547557D01*
X177694733Y-126682713D01*
X177522713Y-126854733D01*
X177387557Y-127057008D01*
X177294460Y-127281764D01*
X177247000Y-127520363D01*
X169717000Y-127520363D01*
X169669540Y-127281764D01*
X169576443Y-127057008D01*
X169441287Y-126854733D01*
X169269267Y-126682713D01*
X169066992Y-126547557D01*
X168842236Y-126454460D01*
X168603637Y-126407000D01*
X168360363Y-126407000D01*
X168121764Y-126454460D01*
X167897008Y-126547557D01*
X167694733Y-126682713D01*
X167522713Y-126854733D01*
X167387557Y-127057008D01*
X167294460Y-127281764D01*
X167247000Y-127520363D01*
X163915161Y-127520363D01*
X163828443Y-127311008D01*
X163693287Y-127108733D01*
X163521267Y-126936713D01*
X163318992Y-126801557D01*
X163094236Y-126708460D01*
X162855637Y-126661000D01*
X162612363Y-126661000D01*
X162373764Y-126708460D01*
X162149008Y-126801557D01*
X161946733Y-126936713D01*
X161774713Y-127108733D01*
X161639557Y-127311008D01*
X161546460Y-127535764D01*
X161499000Y-127774363D01*
X153969000Y-127774363D01*
X153921540Y-127535764D01*
X153828443Y-127311008D01*
X153693287Y-127108733D01*
X153521267Y-126936713D01*
X153318992Y-126801557D01*
X153094236Y-126708460D01*
X152855637Y-126661000D01*
X152612363Y-126661000D01*
X152373764Y-126708460D01*
X152149008Y-126801557D01*
X151946733Y-126936713D01*
X151774713Y-127108733D01*
X151639557Y-127311008D01*
X151546460Y-127535764D01*
X151499000Y-127774363D01*
X148729000Y-127774363D01*
X148681540Y-127535764D01*
X148588443Y-127311008D01*
X148453287Y-127108733D01*
X148281267Y-126936713D01*
X148078992Y-126801557D01*
X147854236Y-126708460D01*
X147615637Y-126661000D01*
X147372363Y-126661000D01*
X147133764Y-126708460D01*
X146909008Y-126801557D01*
X146706733Y-126936713D01*
X146534713Y-127108733D01*
X146399557Y-127311008D01*
X146306460Y-127535764D01*
X146259000Y-127774363D01*
X138729000Y-127774363D01*
X138681540Y-127535764D01*
X138588443Y-127311008D01*
X138453287Y-127108733D01*
X138281267Y-126936713D01*
X138078992Y-126801557D01*
X137854236Y-126708460D01*
X137615637Y-126661000D01*
X137372363Y-126661000D01*
X137133764Y-126708460D01*
X136909008Y-126801557D01*
X136706733Y-126936713D01*
X136534713Y-127108733D01*
X136399557Y-127311008D01*
X136306460Y-127535764D01*
X136259000Y-127774363D01*
X133235000Y-127774363D01*
X133187540Y-127535764D01*
X133094443Y-127311008D01*
X132959287Y-127108733D01*
X132787267Y-126936713D01*
X132584992Y-126801557D01*
X132360236Y-126708460D01*
X132121637Y-126661000D01*
X131878363Y-126661000D01*
X131639764Y-126708460D01*
X131415008Y-126801557D01*
X131212733Y-126936713D01*
X131040713Y-127108733D01*
X130905557Y-127311008D01*
X130812460Y-127535764D01*
X130765000Y-127774363D01*
X123235000Y-127774363D01*
X123187540Y-127535764D01*
X123094443Y-127311008D01*
X122959287Y-127108733D01*
X122787267Y-126936713D01*
X122584992Y-126801557D01*
X122360236Y-126708460D01*
X122121637Y-126661000D01*
X121878363Y-126661000D01*
X121639764Y-126708460D01*
X121415008Y-126801557D01*
X121212733Y-126936713D01*
X121040713Y-127108733D01*
X120905557Y-127311008D01*
X120812460Y-127535764D01*
X120765000Y-127774363D01*
X117741000Y-127774363D01*
X117693540Y-127535764D01*
X117600443Y-127311008D01*
X117465287Y-127108733D01*
X117293267Y-126936713D01*
X117090992Y-126801557D01*
X116866236Y-126708460D01*
X116627637Y-126661000D01*
X116384363Y-126661000D01*
X116145764Y-126708460D01*
X115921008Y-126801557D01*
X115718733Y-126936713D01*
X115546713Y-127108733D01*
X115411557Y-127311008D01*
X115318460Y-127535764D01*
X115271000Y-127774363D01*
X107741000Y-127774363D01*
X107693540Y-127535764D01*
X107600443Y-127311008D01*
X107465287Y-127108733D01*
X107293267Y-126936713D01*
X107090992Y-126801557D01*
X106866236Y-126708460D01*
X106627637Y-126661000D01*
X106384363Y-126661000D01*
X106145764Y-126708460D01*
X105921008Y-126801557D01*
X105718733Y-126936713D01*
X105546713Y-127108733D01*
X105411557Y-127311008D01*
X105318460Y-127535764D01*
X105271000Y-127774363D01*
X64183608Y-127774363D01*
X64189508Y-126063330D01*
X88877278Y-126063330D01*
X88967147Y-126309123D01*
X89103241Y-126532660D01*
X89280330Y-126725351D01*
X89491608Y-126879792D01*
X89728956Y-126990047D01*
X89836671Y-127022716D01*
X90043000Y-126899374D01*
X90043000Y-125857000D01*
X90297000Y-125857000D01*
X90297000Y-126899374D01*
X90503329Y-127022716D01*
X90611044Y-126990047D01*
X90848392Y-126879792D01*
X91059670Y-126725351D01*
X91236759Y-126532660D01*
X91372853Y-126309123D01*
X91462722Y-126063330D01*
X91340201Y-125857000D01*
X90297000Y-125857000D01*
X90043000Y-125857000D01*
X88999799Y-125857000D01*
X88877278Y-126063330D01*
X64189508Y-126063330D01*
X64191806Y-125396670D01*
X88877278Y-125396670D01*
X88999799Y-125603000D01*
X90043000Y-125603000D01*
X90043000Y-124560626D01*
X90297000Y-124560626D01*
X90297000Y-125603000D01*
X91340201Y-125603000D01*
X91462722Y-125396670D01*
X91418004Y-125274363D01*
X105271000Y-125274363D01*
X105271000Y-125517637D01*
X105318460Y-125756236D01*
X105411557Y-125980992D01*
X105546713Y-126183267D01*
X105718733Y-126355287D01*
X105921008Y-126490443D01*
X106145764Y-126583540D01*
X106384363Y-126631000D01*
X106627637Y-126631000D01*
X106866236Y-126583540D01*
X107090992Y-126490443D01*
X107293267Y-126355287D01*
X107352554Y-126296000D01*
X109617928Y-126296000D01*
X109630188Y-126420482D01*
X109666498Y-126540180D01*
X109725463Y-126650494D01*
X109804815Y-126747185D01*
X109901506Y-126826537D01*
X110011820Y-126885502D01*
X110131518Y-126921812D01*
X110256000Y-126934072D01*
X111220250Y-126931000D01*
X111379000Y-126772250D01*
X111379000Y-125523000D01*
X111633000Y-125523000D01*
X111633000Y-126772250D01*
X111791750Y-126931000D01*
X112756000Y-126934072D01*
X112880482Y-126921812D01*
X113000180Y-126885502D01*
X113110494Y-126826537D01*
X113207185Y-126747185D01*
X113286537Y-126650494D01*
X113345502Y-126540180D01*
X113381812Y-126420482D01*
X113394072Y-126296000D01*
X113391000Y-125681750D01*
X113232250Y-125523000D01*
X111633000Y-125523000D01*
X111379000Y-125523000D01*
X109779750Y-125523000D01*
X109621000Y-125681750D01*
X109617928Y-126296000D01*
X107352554Y-126296000D01*
X107465287Y-126183267D01*
X107600443Y-125980992D01*
X107693540Y-125756236D01*
X107741000Y-125517637D01*
X107741000Y-125274363D01*
X115271000Y-125274363D01*
X115271000Y-125517637D01*
X115318460Y-125756236D01*
X115411557Y-125980992D01*
X115546713Y-126183267D01*
X115718733Y-126355287D01*
X115921008Y-126490443D01*
X116145764Y-126583540D01*
X116384363Y-126631000D01*
X116627637Y-126631000D01*
X116866236Y-126583540D01*
X117090992Y-126490443D01*
X117293267Y-126355287D01*
X117465287Y-126183267D01*
X117600443Y-125980992D01*
X117693540Y-125756236D01*
X117741000Y-125517637D01*
X117741000Y-125274363D01*
X120765000Y-125274363D01*
X120765000Y-125517637D01*
X120812460Y-125756236D01*
X120905557Y-125980992D01*
X121040713Y-126183267D01*
X121212733Y-126355287D01*
X121415008Y-126490443D01*
X121639764Y-126583540D01*
X121878363Y-126631000D01*
X122121637Y-126631000D01*
X122360236Y-126583540D01*
X122584992Y-126490443D01*
X122787267Y-126355287D01*
X122959287Y-126183267D01*
X123094443Y-125980992D01*
X123187540Y-125756236D01*
X123235000Y-125517637D01*
X123235000Y-125274363D01*
X123187540Y-125035764D01*
X123094443Y-124811008D01*
X122959287Y-124608733D01*
X122846554Y-124496000D01*
X125111928Y-124496000D01*
X125111928Y-126296000D01*
X125124188Y-126420482D01*
X125160498Y-126540180D01*
X125219463Y-126650494D01*
X125298815Y-126747185D01*
X125395506Y-126826537D01*
X125505820Y-126885502D01*
X125625518Y-126921812D01*
X125750000Y-126934072D01*
X128250000Y-126934072D01*
X128374482Y-126921812D01*
X128494180Y-126885502D01*
X128604494Y-126826537D01*
X128701185Y-126747185D01*
X128780537Y-126650494D01*
X128839502Y-126540180D01*
X128875812Y-126420482D01*
X128888072Y-126296000D01*
X128888072Y-125274363D01*
X130765000Y-125274363D01*
X130765000Y-125517637D01*
X130812460Y-125756236D01*
X130905557Y-125980992D01*
X131040713Y-126183267D01*
X131212733Y-126355287D01*
X131415008Y-126490443D01*
X131639764Y-126583540D01*
X131878363Y-126631000D01*
X132121637Y-126631000D01*
X132360236Y-126583540D01*
X132584992Y-126490443D01*
X132787267Y-126355287D01*
X132959287Y-126183267D01*
X133094443Y-125980992D01*
X133187540Y-125756236D01*
X133235000Y-125517637D01*
X133235000Y-125274363D01*
X136259000Y-125274363D01*
X136259000Y-125517637D01*
X136306460Y-125756236D01*
X136399557Y-125980992D01*
X136534713Y-126183267D01*
X136706733Y-126355287D01*
X136909008Y-126490443D01*
X137133764Y-126583540D01*
X137372363Y-126631000D01*
X137615637Y-126631000D01*
X137854236Y-126583540D01*
X138078992Y-126490443D01*
X138281267Y-126355287D01*
X138453287Y-126183267D01*
X138588443Y-125980992D01*
X138681540Y-125756236D01*
X138729000Y-125517637D01*
X138729000Y-125274363D01*
X138681540Y-125035764D01*
X138588443Y-124811008D01*
X138453287Y-124608733D01*
X138340554Y-124496000D01*
X140605928Y-124496000D01*
X140605928Y-126296000D01*
X140618188Y-126420482D01*
X140654498Y-126540180D01*
X140713463Y-126650494D01*
X140792815Y-126747185D01*
X140889506Y-126826537D01*
X140999820Y-126885502D01*
X141119518Y-126921812D01*
X141244000Y-126934072D01*
X143744000Y-126934072D01*
X143868482Y-126921812D01*
X143988180Y-126885502D01*
X144098494Y-126826537D01*
X144195185Y-126747185D01*
X144274537Y-126650494D01*
X144333502Y-126540180D01*
X144369812Y-126420482D01*
X144382072Y-126296000D01*
X144382072Y-125274363D01*
X146259000Y-125274363D01*
X146259000Y-125517637D01*
X146306460Y-125756236D01*
X146399557Y-125980992D01*
X146534713Y-126183267D01*
X146706733Y-126355287D01*
X146909008Y-126490443D01*
X147133764Y-126583540D01*
X147372363Y-126631000D01*
X147615637Y-126631000D01*
X147854236Y-126583540D01*
X148078992Y-126490443D01*
X148281267Y-126355287D01*
X148453287Y-126183267D01*
X148588443Y-125980992D01*
X148681540Y-125756236D01*
X148729000Y-125517637D01*
X148729000Y-125274363D01*
X151499000Y-125274363D01*
X151499000Y-125517637D01*
X151546460Y-125756236D01*
X151639557Y-125980992D01*
X151774713Y-126183267D01*
X151946733Y-126355287D01*
X152149008Y-126490443D01*
X152373764Y-126583540D01*
X152612363Y-126631000D01*
X152855637Y-126631000D01*
X153094236Y-126583540D01*
X153318992Y-126490443D01*
X153521267Y-126355287D01*
X153693287Y-126183267D01*
X153828443Y-125980992D01*
X153921540Y-125756236D01*
X153969000Y-125517637D01*
X153969000Y-125274363D01*
X153921540Y-125035764D01*
X153828443Y-124811008D01*
X153693287Y-124608733D01*
X153580554Y-124496000D01*
X155845928Y-124496000D01*
X155845928Y-126296000D01*
X155858188Y-126420482D01*
X155894498Y-126540180D01*
X155953463Y-126650494D01*
X156032815Y-126747185D01*
X156129506Y-126826537D01*
X156239820Y-126885502D01*
X156359518Y-126921812D01*
X156484000Y-126934072D01*
X158984000Y-126934072D01*
X159108482Y-126921812D01*
X159228180Y-126885502D01*
X159338494Y-126826537D01*
X159435185Y-126747185D01*
X159514537Y-126650494D01*
X159573502Y-126540180D01*
X159609812Y-126420482D01*
X159622072Y-126296000D01*
X159622072Y-125274363D01*
X161499000Y-125274363D01*
X161499000Y-125517637D01*
X161546460Y-125756236D01*
X161639557Y-125980992D01*
X161774713Y-126183267D01*
X161946733Y-126355287D01*
X162149008Y-126490443D01*
X162373764Y-126583540D01*
X162612363Y-126631000D01*
X162855637Y-126631000D01*
X163094236Y-126583540D01*
X163318992Y-126490443D01*
X163521267Y-126355287D01*
X163693287Y-126183267D01*
X163828443Y-125980992D01*
X163921540Y-125756236D01*
X163969000Y-125517637D01*
X163969000Y-125274363D01*
X163921540Y-125035764D01*
X163915161Y-125020363D01*
X167247000Y-125020363D01*
X167247000Y-125263637D01*
X167294460Y-125502236D01*
X167387557Y-125726992D01*
X167522713Y-125929267D01*
X167694733Y-126101287D01*
X167897008Y-126236443D01*
X168121764Y-126329540D01*
X168360363Y-126377000D01*
X168603637Y-126377000D01*
X168842236Y-126329540D01*
X169066992Y-126236443D01*
X169269267Y-126101287D01*
X169441287Y-125929267D01*
X169576443Y-125726992D01*
X169669540Y-125502236D01*
X169717000Y-125263637D01*
X169717000Y-125020363D01*
X169669540Y-124781764D01*
X169576443Y-124557008D01*
X169441287Y-124354733D01*
X169328554Y-124242000D01*
X171593928Y-124242000D01*
X171593928Y-126042000D01*
X171606188Y-126166482D01*
X171642498Y-126286180D01*
X171701463Y-126396494D01*
X171780815Y-126493185D01*
X171877506Y-126572537D01*
X171987820Y-126631502D01*
X172107518Y-126667812D01*
X172232000Y-126680072D01*
X174732000Y-126680072D01*
X174856482Y-126667812D01*
X174976180Y-126631502D01*
X175086494Y-126572537D01*
X175183185Y-126493185D01*
X175262537Y-126396494D01*
X175321502Y-126286180D01*
X175357812Y-126166482D01*
X175370072Y-126042000D01*
X175370072Y-125020363D01*
X177247000Y-125020363D01*
X177247000Y-125263637D01*
X177294460Y-125502236D01*
X177387557Y-125726992D01*
X177522713Y-125929267D01*
X177694733Y-126101287D01*
X177897008Y-126236443D01*
X178121764Y-126329540D01*
X178360363Y-126377000D01*
X178603637Y-126377000D01*
X178842236Y-126329540D01*
X179066992Y-126236443D01*
X179269267Y-126101287D01*
X179441287Y-125929267D01*
X179576443Y-125726992D01*
X179669540Y-125502236D01*
X179717000Y-125263637D01*
X179717000Y-125020363D01*
X179669540Y-124781764D01*
X179576443Y-124557008D01*
X179441287Y-124354733D01*
X179269267Y-124182713D01*
X179066992Y-124047557D01*
X178842236Y-123954460D01*
X178603637Y-123907000D01*
X178360363Y-123907000D01*
X178121764Y-123954460D01*
X177897008Y-124047557D01*
X177694733Y-124182713D01*
X177522713Y-124354733D01*
X177387557Y-124557008D01*
X177294460Y-124781764D01*
X177247000Y-125020363D01*
X175370072Y-125020363D01*
X175370072Y-124242000D01*
X175357812Y-124117518D01*
X175321502Y-123997820D01*
X175262537Y-123887506D01*
X175183185Y-123790815D01*
X175086494Y-123711463D01*
X174976180Y-123652498D01*
X174856482Y-123616188D01*
X174732000Y-123603928D01*
X172232000Y-123603928D01*
X172107518Y-123616188D01*
X171987820Y-123652498D01*
X171877506Y-123711463D01*
X171780815Y-123790815D01*
X171701463Y-123887506D01*
X171642498Y-123997820D01*
X171606188Y-124117518D01*
X171593928Y-124242000D01*
X169328554Y-124242000D01*
X169269267Y-124182713D01*
X169066992Y-124047557D01*
X168842236Y-123954460D01*
X168603637Y-123907000D01*
X168360363Y-123907000D01*
X168121764Y-123954460D01*
X167897008Y-124047557D01*
X167694733Y-124182713D01*
X167522713Y-124354733D01*
X167387557Y-124557008D01*
X167294460Y-124781764D01*
X167247000Y-125020363D01*
X163915161Y-125020363D01*
X163828443Y-124811008D01*
X163693287Y-124608733D01*
X163521267Y-124436713D01*
X163318992Y-124301557D01*
X163094236Y-124208460D01*
X162855637Y-124161000D01*
X162612363Y-124161000D01*
X162373764Y-124208460D01*
X162149008Y-124301557D01*
X161946733Y-124436713D01*
X161774713Y-124608733D01*
X161639557Y-124811008D01*
X161546460Y-125035764D01*
X161499000Y-125274363D01*
X159622072Y-125274363D01*
X159622072Y-124496000D01*
X159609812Y-124371518D01*
X159573502Y-124251820D01*
X159514537Y-124141506D01*
X159435185Y-124044815D01*
X159338494Y-123965463D01*
X159228180Y-123906498D01*
X159108482Y-123870188D01*
X158984000Y-123857928D01*
X156484000Y-123857928D01*
X156359518Y-123870188D01*
X156239820Y-123906498D01*
X156129506Y-123965463D01*
X156032815Y-124044815D01*
X155953463Y-124141506D01*
X155894498Y-124251820D01*
X155858188Y-124371518D01*
X155845928Y-124496000D01*
X153580554Y-124496000D01*
X153521267Y-124436713D01*
X153318992Y-124301557D01*
X153094236Y-124208460D01*
X152855637Y-124161000D01*
X152612363Y-124161000D01*
X152373764Y-124208460D01*
X152149008Y-124301557D01*
X151946733Y-124436713D01*
X151774713Y-124608733D01*
X151639557Y-124811008D01*
X151546460Y-125035764D01*
X151499000Y-125274363D01*
X148729000Y-125274363D01*
X148681540Y-125035764D01*
X148588443Y-124811008D01*
X148453287Y-124608733D01*
X148281267Y-124436713D01*
X148078992Y-124301557D01*
X147854236Y-124208460D01*
X147615637Y-124161000D01*
X147372363Y-124161000D01*
X147133764Y-124208460D01*
X146909008Y-124301557D01*
X146706733Y-124436713D01*
X146534713Y-124608733D01*
X146399557Y-124811008D01*
X146306460Y-125035764D01*
X146259000Y-125274363D01*
X144382072Y-125274363D01*
X144382072Y-124496000D01*
X144369812Y-124371518D01*
X144333502Y-124251820D01*
X144274537Y-124141506D01*
X144195185Y-124044815D01*
X144098494Y-123965463D01*
X143988180Y-123906498D01*
X143868482Y-123870188D01*
X143744000Y-123857928D01*
X141244000Y-123857928D01*
X141119518Y-123870188D01*
X140999820Y-123906498D01*
X140889506Y-123965463D01*
X140792815Y-124044815D01*
X140713463Y-124141506D01*
X140654498Y-124251820D01*
X140618188Y-124371518D01*
X140605928Y-124496000D01*
X138340554Y-124496000D01*
X138281267Y-124436713D01*
X138078992Y-124301557D01*
X137854236Y-124208460D01*
X137615637Y-124161000D01*
X137372363Y-124161000D01*
X137133764Y-124208460D01*
X136909008Y-124301557D01*
X136706733Y-124436713D01*
X136534713Y-124608733D01*
X136399557Y-124811008D01*
X136306460Y-125035764D01*
X136259000Y-125274363D01*
X133235000Y-125274363D01*
X133187540Y-125035764D01*
X133094443Y-124811008D01*
X132959287Y-124608733D01*
X132787267Y-124436713D01*
X132584992Y-124301557D01*
X132360236Y-124208460D01*
X132121637Y-124161000D01*
X131878363Y-124161000D01*
X131639764Y-124208460D01*
X131415008Y-124301557D01*
X131212733Y-124436713D01*
X131040713Y-124608733D01*
X130905557Y-124811008D01*
X130812460Y-125035764D01*
X130765000Y-125274363D01*
X128888072Y-125274363D01*
X128888072Y-124496000D01*
X128875812Y-124371518D01*
X128839502Y-124251820D01*
X128780537Y-124141506D01*
X128701185Y-124044815D01*
X128604494Y-123965463D01*
X128494180Y-123906498D01*
X128374482Y-123870188D01*
X128250000Y-123857928D01*
X125750000Y-123857928D01*
X125625518Y-123870188D01*
X125505820Y-123906498D01*
X125395506Y-123965463D01*
X125298815Y-124044815D01*
X125219463Y-124141506D01*
X125160498Y-124251820D01*
X125124188Y-124371518D01*
X125111928Y-124496000D01*
X122846554Y-124496000D01*
X122787267Y-124436713D01*
X122584992Y-124301557D01*
X122360236Y-124208460D01*
X122121637Y-124161000D01*
X121878363Y-124161000D01*
X121639764Y-124208460D01*
X121415008Y-124301557D01*
X121212733Y-124436713D01*
X121040713Y-124608733D01*
X120905557Y-124811008D01*
X120812460Y-125035764D01*
X120765000Y-125274363D01*
X117741000Y-125274363D01*
X117693540Y-125035764D01*
X117600443Y-124811008D01*
X117465287Y-124608733D01*
X117293267Y-124436713D01*
X117090992Y-124301557D01*
X116866236Y-124208460D01*
X116627637Y-124161000D01*
X116384363Y-124161000D01*
X116145764Y-124208460D01*
X115921008Y-124301557D01*
X115718733Y-124436713D01*
X115546713Y-124608733D01*
X115411557Y-124811008D01*
X115318460Y-125035764D01*
X115271000Y-125274363D01*
X107741000Y-125274363D01*
X107693540Y-125035764D01*
X107600443Y-124811008D01*
X107465287Y-124608733D01*
X107352554Y-124496000D01*
X109617928Y-124496000D01*
X109621000Y-125110250D01*
X109779750Y-125269000D01*
X111379000Y-125269000D01*
X111379000Y-124019750D01*
X111633000Y-124019750D01*
X111633000Y-125269000D01*
X113232250Y-125269000D01*
X113391000Y-125110250D01*
X113394072Y-124496000D01*
X113381812Y-124371518D01*
X113345502Y-124251820D01*
X113286537Y-124141506D01*
X113207185Y-124044815D01*
X113110494Y-123965463D01*
X113000180Y-123906498D01*
X112880482Y-123870188D01*
X112756000Y-123857928D01*
X111791750Y-123861000D01*
X111633000Y-124019750D01*
X111379000Y-124019750D01*
X111220250Y-123861000D01*
X110256000Y-123857928D01*
X110131518Y-123870188D01*
X110011820Y-123906498D01*
X109901506Y-123965463D01*
X109804815Y-124044815D01*
X109725463Y-124141506D01*
X109666498Y-124251820D01*
X109630188Y-124371518D01*
X109617928Y-124496000D01*
X107352554Y-124496000D01*
X107293267Y-124436713D01*
X107090992Y-124301557D01*
X106866236Y-124208460D01*
X106627637Y-124161000D01*
X106384363Y-124161000D01*
X106145764Y-124208460D01*
X105921008Y-124301557D01*
X105718733Y-124436713D01*
X105546713Y-124608733D01*
X105411557Y-124811008D01*
X105318460Y-125035764D01*
X105271000Y-125274363D01*
X91418004Y-125274363D01*
X91372853Y-125150877D01*
X91236759Y-124927340D01*
X91059670Y-124734649D01*
X90848392Y-124580208D01*
X90611044Y-124469953D01*
X90503329Y-124437284D01*
X90297000Y-124560626D01*
X90043000Y-124560626D01*
X89836671Y-124437284D01*
X89728956Y-124469953D01*
X89491608Y-124580208D01*
X89280330Y-124734649D01*
X89103241Y-124927340D01*
X88967147Y-125150877D01*
X88877278Y-125396670D01*
X64191806Y-125396670D01*
X64366321Y-74787679D01*
X65356995Y-74787679D01*
X65356995Y-75072321D01*
X65412526Y-75351492D01*
X65521453Y-75614467D01*
X65679591Y-75851137D01*
X65880863Y-76052409D01*
X66101748Y-76200000D01*
X65880863Y-76347591D01*
X65679591Y-76548863D01*
X65521453Y-76785533D01*
X65412526Y-77048508D01*
X65356995Y-77327679D01*
X65356995Y-77612321D01*
X65412526Y-77891492D01*
X65521453Y-78154467D01*
X65679591Y-78391137D01*
X65880863Y-78592409D01*
X66101748Y-78740000D01*
X65880863Y-78887591D01*
X65679591Y-79088863D01*
X65521453Y-79325533D01*
X65412526Y-79588508D01*
X65356995Y-79867679D01*
X65356995Y-80152321D01*
X65412526Y-80431492D01*
X65521453Y-80694467D01*
X65679591Y-80931137D01*
X65880863Y-81132409D01*
X66101748Y-81280000D01*
X65880863Y-81427591D01*
X65679591Y-81628863D01*
X65521453Y-81865533D01*
X65412526Y-82128508D01*
X65356995Y-82407679D01*
X65356995Y-82692321D01*
X65412526Y-82971492D01*
X65521453Y-83234467D01*
X65679591Y-83471137D01*
X65880863Y-83672409D01*
X66101748Y-83820000D01*
X65880863Y-83967591D01*
X65679591Y-84168863D01*
X65521453Y-84405533D01*
X65412526Y-84668508D01*
X65356995Y-84947679D01*
X65356995Y-85232321D01*
X65412526Y-85511492D01*
X65521453Y-85774467D01*
X65679591Y-86011137D01*
X65880863Y-86212409D01*
X66101748Y-86360000D01*
X65880863Y-86507591D01*
X65679591Y-86708863D01*
X65521453Y-86945533D01*
X65412526Y-87208508D01*
X65356995Y-87487679D01*
X65356995Y-87772321D01*
X65412526Y-88051492D01*
X65521453Y-88314467D01*
X65679591Y-88551137D01*
X65880863Y-88752409D01*
X66101748Y-88900000D01*
X65880863Y-89047591D01*
X65679591Y-89248863D01*
X65521453Y-89485533D01*
X65412526Y-89748508D01*
X65356995Y-90027679D01*
X65356995Y-90312321D01*
X65412526Y-90591492D01*
X65521453Y-90854467D01*
X65679591Y-91091137D01*
X65880863Y-91292409D01*
X66101748Y-91440000D01*
X65880863Y-91587591D01*
X65679591Y-91788863D01*
X65521453Y-92025533D01*
X65412526Y-92288508D01*
X65356995Y-92567679D01*
X65356995Y-92852321D01*
X65412526Y-93131492D01*
X65521453Y-93394467D01*
X65679591Y-93631137D01*
X65880863Y-93832409D01*
X66101748Y-93980000D01*
X65880863Y-94127591D01*
X65679591Y-94328863D01*
X65521453Y-94565533D01*
X65412526Y-94828508D01*
X65356995Y-95107679D01*
X65356995Y-95392321D01*
X65412526Y-95671492D01*
X65521453Y-95934467D01*
X65679591Y-96171137D01*
X65880863Y-96372409D01*
X66101748Y-96520000D01*
X65880863Y-96667591D01*
X65679591Y-96868863D01*
X65521453Y-97105533D01*
X65412526Y-97368508D01*
X65356995Y-97647679D01*
X65356995Y-97932321D01*
X65412526Y-98211492D01*
X65521453Y-98474467D01*
X65679591Y-98711137D01*
X65880863Y-98912409D01*
X66101748Y-99060000D01*
X65880863Y-99207591D01*
X65679591Y-99408863D01*
X65521453Y-99645533D01*
X65412526Y-99908508D01*
X65356995Y-100187679D01*
X65356995Y-100472321D01*
X65412526Y-100751492D01*
X65521453Y-101014467D01*
X65679591Y-101251137D01*
X65880863Y-101452409D01*
X66101748Y-101600000D01*
X65880863Y-101747591D01*
X65679591Y-101948863D01*
X65521453Y-102185533D01*
X65412526Y-102448508D01*
X65356995Y-102727679D01*
X65356995Y-103012321D01*
X65412526Y-103291492D01*
X65521453Y-103554467D01*
X65679591Y-103791137D01*
X65880863Y-103992409D01*
X66101748Y-104140000D01*
X65880863Y-104287591D01*
X65679591Y-104488863D01*
X65521453Y-104725533D01*
X65412526Y-104988508D01*
X65356995Y-105267679D01*
X65356995Y-105552321D01*
X65412526Y-105831492D01*
X65521453Y-106094467D01*
X65679591Y-106331137D01*
X65880863Y-106532409D01*
X66101748Y-106680000D01*
X65880863Y-106827591D01*
X65679591Y-107028863D01*
X65521453Y-107265533D01*
X65412526Y-107528508D01*
X65356995Y-107807679D01*
X65356995Y-108092321D01*
X65412526Y-108371492D01*
X65521453Y-108634467D01*
X65679591Y-108871137D01*
X65880863Y-109072409D01*
X66101748Y-109220000D01*
X65880863Y-109367591D01*
X65679591Y-109568863D01*
X65521453Y-109805533D01*
X65412526Y-110068508D01*
X65356995Y-110347679D01*
X65356995Y-110632321D01*
X65412526Y-110911492D01*
X65521453Y-111174467D01*
X65679591Y-111411137D01*
X65880863Y-111612409D01*
X66101748Y-111760000D01*
X65880863Y-111907591D01*
X65679591Y-112108863D01*
X65521453Y-112345533D01*
X65412526Y-112608508D01*
X65356995Y-112887679D01*
X65356995Y-113172321D01*
X65412526Y-113451492D01*
X65521453Y-113714467D01*
X65679591Y-113951137D01*
X65880863Y-114152409D01*
X66101748Y-114300000D01*
X65880863Y-114447591D01*
X65679591Y-114648863D01*
X65521453Y-114885533D01*
X65412526Y-115148508D01*
X65356995Y-115427679D01*
X65356995Y-115712321D01*
X65412526Y-115991492D01*
X65521453Y-116254467D01*
X65679591Y-116491137D01*
X65880863Y-116692409D01*
X66101748Y-116840000D01*
X65880863Y-116987591D01*
X65679591Y-117188863D01*
X65521453Y-117425533D01*
X65412526Y-117688508D01*
X65356995Y-117967679D01*
X65356995Y-118252321D01*
X65412526Y-118531492D01*
X65521453Y-118794467D01*
X65679591Y-119031137D01*
X65880863Y-119232409D01*
X66117533Y-119390547D01*
X66380508Y-119499474D01*
X66659679Y-119555005D01*
X66944321Y-119555005D01*
X67223492Y-119499474D01*
X67486467Y-119390547D01*
X67723137Y-119232409D01*
X67924409Y-119031137D01*
X68072000Y-118810252D01*
X68219591Y-119031137D01*
X68420863Y-119232409D01*
X68657533Y-119390547D01*
X68920508Y-119499474D01*
X69199679Y-119555005D01*
X69484321Y-119555005D01*
X69763492Y-119499474D01*
X70026467Y-119390547D01*
X70263137Y-119232409D01*
X70464409Y-119031137D01*
X70622547Y-118794467D01*
X70731474Y-118531492D01*
X70787005Y-118252321D01*
X70787005Y-117967679D01*
X70731474Y-117688508D01*
X70622547Y-117425533D01*
X70464409Y-117188863D01*
X70263137Y-116987591D01*
X70042252Y-116840000D01*
X70263137Y-116692409D01*
X70464409Y-116491137D01*
X70622547Y-116254467D01*
X70731474Y-115991492D01*
X70787005Y-115712321D01*
X70787005Y-115427679D01*
X70731474Y-115148508D01*
X70622547Y-114885533D01*
X70464409Y-114648863D01*
X70263137Y-114447591D01*
X70042252Y-114300000D01*
X70263137Y-114152409D01*
X70464409Y-113951137D01*
X70622547Y-113714467D01*
X70731474Y-113451492D01*
X70787005Y-113172321D01*
X70787005Y-112887679D01*
X70731474Y-112608508D01*
X70622547Y-112345533D01*
X70464409Y-112108863D01*
X70263137Y-111907591D01*
X70042252Y-111760000D01*
X70263137Y-111612409D01*
X70464409Y-111411137D01*
X70622547Y-111174467D01*
X70731474Y-110911492D01*
X70787005Y-110632321D01*
X70787005Y-110347679D01*
X70731474Y-110068508D01*
X70622547Y-109805533D01*
X70464409Y-109568863D01*
X70263137Y-109367591D01*
X70042252Y-109220000D01*
X70263137Y-109072409D01*
X70464409Y-108871137D01*
X70622547Y-108634467D01*
X70731474Y-108371492D01*
X70787005Y-108092321D01*
X70787005Y-107807679D01*
X70731474Y-107528508D01*
X70622547Y-107265533D01*
X70464409Y-107028863D01*
X70263137Y-106827591D01*
X70042252Y-106680000D01*
X70263137Y-106532409D01*
X70464409Y-106331137D01*
X70622547Y-106094467D01*
X70731474Y-105831492D01*
X70787005Y-105552321D01*
X70787005Y-105267679D01*
X70731474Y-104988508D01*
X70641179Y-104770514D01*
X88835000Y-104770514D01*
X88835000Y-105033486D01*
X88886304Y-105291405D01*
X88986939Y-105534359D01*
X89133038Y-105753013D01*
X89318987Y-105938962D01*
X89537641Y-106085061D01*
X89780595Y-106185696D01*
X90038514Y-106237000D01*
X90301486Y-106237000D01*
X90559405Y-106185696D01*
X90802359Y-106085061D01*
X91021013Y-105938962D01*
X91206962Y-105753013D01*
X91353061Y-105534359D01*
X91453696Y-105291405D01*
X91505000Y-105033486D01*
X91505000Y-104770514D01*
X91453696Y-104512595D01*
X91353061Y-104269641D01*
X91206962Y-104050987D01*
X91021013Y-103865038D01*
X90802359Y-103718939D01*
X90559405Y-103618304D01*
X90301486Y-103567000D01*
X90038514Y-103567000D01*
X89780595Y-103618304D01*
X89537641Y-103718939D01*
X89318987Y-103865038D01*
X89133038Y-104050987D01*
X88986939Y-104269641D01*
X88886304Y-104512595D01*
X88835000Y-104770514D01*
X70641179Y-104770514D01*
X70622547Y-104725533D01*
X70464409Y-104488863D01*
X70263137Y-104287591D01*
X70042252Y-104140000D01*
X70263137Y-103992409D01*
X70464409Y-103791137D01*
X70622547Y-103554467D01*
X70731474Y-103291492D01*
X70787005Y-103012321D01*
X70787005Y-102727679D01*
X70731474Y-102448508D01*
X70622547Y-102185533D01*
X70464409Y-101948863D01*
X70263137Y-101747591D01*
X70042252Y-101600000D01*
X70263137Y-101452409D01*
X70464409Y-101251137D01*
X70622547Y-101014467D01*
X70731474Y-100751492D01*
X70787005Y-100472321D01*
X70787005Y-100187679D01*
X70731474Y-99908508D01*
X70622547Y-99645533D01*
X70464409Y-99408863D01*
X70263137Y-99207591D01*
X70042252Y-99060000D01*
X70263137Y-98912409D01*
X70464409Y-98711137D01*
X70622547Y-98474467D01*
X70731474Y-98211492D01*
X70787005Y-97932321D01*
X70787005Y-97647679D01*
X70760157Y-97512702D01*
X81736903Y-97512702D01*
X81808486Y-97756671D01*
X82063996Y-97877571D01*
X82338184Y-97946300D01*
X82620512Y-97960217D01*
X82900130Y-97918787D01*
X83166292Y-97823603D01*
X83291514Y-97756671D01*
X83363097Y-97512702D01*
X82550000Y-96699605D01*
X81736903Y-97512702D01*
X70760157Y-97512702D01*
X70731474Y-97368508D01*
X70728362Y-97360994D01*
X80685701Y-97360994D01*
X80723124Y-97364680D01*
X80760547Y-97360994D01*
X80760550Y-97360994D01*
X80872502Y-97349968D01*
X81016139Y-97306396D01*
X81148516Y-97235639D01*
X81253463Y-97149512D01*
X81313329Y-97261514D01*
X81557298Y-97333097D01*
X82370395Y-96520000D01*
X82356253Y-96505858D01*
X82535858Y-96326253D01*
X82550000Y-96340395D01*
X82564143Y-96326253D01*
X82743748Y-96505858D01*
X82729605Y-96520000D01*
X83542702Y-97333097D01*
X83786671Y-97261514D01*
X83849999Y-97127677D01*
X86779700Y-100079252D01*
X86804460Y-100109422D01*
X86861386Y-100156139D01*
X86918124Y-100203058D01*
X86919385Y-100203738D01*
X86920490Y-100204645D01*
X86985389Y-100239334D01*
X87050237Y-100274307D01*
X87051605Y-100274728D01*
X87052867Y-100275402D01*
X87123445Y-100296812D01*
X87193711Y-100318412D01*
X87195130Y-100318557D01*
X87196504Y-100318974D01*
X87269894Y-100326202D01*
X87343034Y-100333681D01*
X87381888Y-100330000D01*
X94208370Y-100330000D01*
X107359286Y-113480917D01*
X107319486Y-113473000D01*
X107056514Y-113473000D01*
X106798595Y-113524304D01*
X106555641Y-113624939D01*
X106336987Y-113771038D01*
X106151038Y-113956987D01*
X106004939Y-114175641D01*
X105904304Y-114418595D01*
X105853000Y-114676514D01*
X105853000Y-114939486D01*
X105904304Y-115197405D01*
X106004939Y-115440359D01*
X106151038Y-115659013D01*
X106336987Y-115844962D01*
X106426000Y-115904438D01*
X106426001Y-118507928D01*
X105606000Y-118507928D01*
X105481518Y-118520188D01*
X105361820Y-118556498D01*
X105251506Y-118615463D01*
X105154815Y-118694815D01*
X105075463Y-118791506D01*
X105016498Y-118901820D01*
X104980188Y-119021518D01*
X104967928Y-119146000D01*
X104967928Y-119634000D01*
X92771631Y-119634000D01*
X91484114Y-118346484D01*
X91505000Y-118241486D01*
X91505000Y-117978514D01*
X91453696Y-117720595D01*
X91353061Y-117477641D01*
X91206962Y-117258987D01*
X91021013Y-117073038D01*
X90932000Y-117013562D01*
X90932000Y-113618438D01*
X91021013Y-113558962D01*
X91206962Y-113373013D01*
X91353061Y-113154359D01*
X91453696Y-112911405D01*
X91505000Y-112653486D01*
X91505000Y-112390514D01*
X91453696Y-112132595D01*
X91353061Y-111889641D01*
X91206962Y-111670987D01*
X91021013Y-111485038D01*
X90802359Y-111338939D01*
X90559405Y-111238304D01*
X90301486Y-111187000D01*
X90038514Y-111187000D01*
X89780595Y-111238304D01*
X89537641Y-111338939D01*
X89318987Y-111485038D01*
X89133038Y-111670987D01*
X88986939Y-111889641D01*
X88886304Y-112132595D01*
X88835000Y-112390514D01*
X88835000Y-112653486D01*
X88886304Y-112911405D01*
X88986939Y-113154359D01*
X89133038Y-113373013D01*
X89318987Y-113558962D01*
X89408001Y-113618439D01*
X89408000Y-117013562D01*
X89318987Y-117073038D01*
X89133038Y-117258987D01*
X88986939Y-117477641D01*
X88886304Y-117720595D01*
X88835000Y-117978514D01*
X88835000Y-118241486D01*
X88886304Y-118499405D01*
X88986939Y-118742359D01*
X89133038Y-118961013D01*
X89318987Y-119146962D01*
X89537641Y-119293061D01*
X89780595Y-119393696D01*
X90038514Y-119445000D01*
X90301486Y-119445000D01*
X90406484Y-119424114D01*
X91890721Y-120908352D01*
X91914578Y-120937422D01*
X92030608Y-121032645D01*
X92162985Y-121103402D01*
X92306622Y-121146974D01*
X92418574Y-121158000D01*
X92418576Y-121158000D01*
X92455999Y-121161686D01*
X92493422Y-121158000D01*
X104967928Y-121158000D01*
X104967928Y-121646000D01*
X104980188Y-121770482D01*
X105016498Y-121890180D01*
X105075463Y-122000494D01*
X105154815Y-122097185D01*
X105251506Y-122176537D01*
X105361820Y-122235502D01*
X105481518Y-122271812D01*
X105606000Y-122284072D01*
X107406000Y-122284072D01*
X107530482Y-122271812D01*
X107650180Y-122235502D01*
X107760494Y-122176537D01*
X107857185Y-122097185D01*
X107936537Y-122000494D01*
X107995502Y-121890180D01*
X108031812Y-121770482D01*
X108044072Y-121646000D01*
X108044072Y-119146000D01*
X108031812Y-119021518D01*
X107995502Y-118901820D01*
X107950000Y-118816693D01*
X107950000Y-115904438D01*
X108039013Y-115844962D01*
X108088147Y-115795828D01*
X111453318Y-119161000D01*
X111384363Y-119161000D01*
X111145764Y-119208460D01*
X110921008Y-119301557D01*
X110718733Y-119436713D01*
X110546713Y-119608733D01*
X110411557Y-119811008D01*
X110318460Y-120035764D01*
X110271000Y-120274363D01*
X110271000Y-120517637D01*
X110318460Y-120756236D01*
X110411557Y-120980992D01*
X110546713Y-121183267D01*
X110718733Y-121355287D01*
X110921008Y-121490443D01*
X111145764Y-121583540D01*
X111384363Y-121631000D01*
X111627637Y-121631000D01*
X111866236Y-121583540D01*
X112090992Y-121490443D01*
X112293267Y-121355287D01*
X112465287Y-121183267D01*
X112600443Y-120980992D01*
X112693540Y-120756236D01*
X112741000Y-120517637D01*
X112741000Y-120448682D01*
X114831671Y-122539353D01*
X114855528Y-122568423D01*
X114971558Y-122663646D01*
X115103935Y-122734403D01*
X115247572Y-122777975D01*
X115359524Y-122789001D01*
X115359526Y-122789001D01*
X115396949Y-122792687D01*
X115434372Y-122789001D01*
X193149576Y-122789001D01*
X193186999Y-122792687D01*
X193224422Y-122789001D01*
X193224425Y-122789001D01*
X193336377Y-122777975D01*
X193480014Y-122734403D01*
X193612391Y-122663646D01*
X193728421Y-122568423D01*
X193752283Y-122539347D01*
X199898001Y-116393630D01*
X199898000Y-122093562D01*
X199808987Y-122153038D01*
X199623038Y-122338987D01*
X199476939Y-122557641D01*
X199376304Y-122800595D01*
X199325000Y-123058514D01*
X199325000Y-123321486D01*
X199376304Y-123579405D01*
X199476939Y-123822359D01*
X199623038Y-124041013D01*
X199808987Y-124226962D01*
X200027641Y-124373061D01*
X200270595Y-124473696D01*
X200528514Y-124525000D01*
X200791486Y-124525000D01*
X201049405Y-124473696D01*
X201292359Y-124373061D01*
X201511013Y-124226962D01*
X201696962Y-124041013D01*
X201843061Y-123822359D01*
X201943696Y-123579405D01*
X201995000Y-123321486D01*
X201995000Y-123058514D01*
X201943696Y-122800595D01*
X201843061Y-122557641D01*
X201696962Y-122338987D01*
X201511013Y-122153038D01*
X201422000Y-122093562D01*
X201422000Y-115477000D01*
X201587958Y-115477000D01*
X201913496Y-115412246D01*
X202220147Y-115285228D01*
X202496125Y-115100825D01*
X202692000Y-114904950D01*
X202887875Y-115100825D01*
X203163853Y-115285228D01*
X203200001Y-115300201D01*
X203200000Y-118834577D01*
X203196314Y-118872000D01*
X203200000Y-118909423D01*
X203200000Y-118909425D01*
X203211026Y-119021377D01*
X203254598Y-119165014D01*
X203287535Y-119226635D01*
X203325355Y-119297392D01*
X203341769Y-119317392D01*
X203420578Y-119413422D01*
X203449654Y-119437284D01*
X206965886Y-122953516D01*
X206945000Y-123058514D01*
X206945000Y-123321486D01*
X206996304Y-123579405D01*
X207096939Y-123822359D01*
X207243038Y-124041013D01*
X207428987Y-124226962D01*
X207647641Y-124373061D01*
X207890595Y-124473696D01*
X208148514Y-124525000D01*
X208411486Y-124525000D01*
X208669405Y-124473696D01*
X208912359Y-124373061D01*
X209131013Y-124226962D01*
X209316962Y-124041013D01*
X209463061Y-123822359D01*
X209563696Y-123579405D01*
X209615000Y-123321486D01*
X209615000Y-123058514D01*
X209563696Y-122800595D01*
X209463061Y-122557641D01*
X209316962Y-122338987D01*
X209131013Y-122153038D01*
X208912359Y-122006939D01*
X208669405Y-121906304D01*
X208411486Y-121855000D01*
X208148514Y-121855000D01*
X208043516Y-121875886D01*
X204724000Y-118556370D01*
X204724000Y-115300200D01*
X204760147Y-115285228D01*
X205036125Y-115100825D01*
X205173884Y-114963066D01*
X205510539Y-114963066D01*
X205612339Y-115232579D01*
X205910477Y-115378463D01*
X206231346Y-115463380D01*
X206562617Y-115484066D01*
X206891557Y-115439728D01*
X207205527Y-115332069D01*
X207391661Y-115232579D01*
X207493461Y-114963066D01*
X206502000Y-113971605D01*
X205510539Y-114963066D01*
X205173884Y-114963066D01*
X205270825Y-114866125D01*
X205327042Y-114781991D01*
X205330934Y-114783461D01*
X206322395Y-113792000D01*
X206681605Y-113792000D01*
X207673066Y-114783461D01*
X207942579Y-114681661D01*
X208088463Y-114383523D01*
X208173380Y-114062654D01*
X208194066Y-113731383D01*
X208149728Y-113402443D01*
X208042069Y-113088473D01*
X207942579Y-112902339D01*
X207673066Y-112800539D01*
X206681605Y-113792000D01*
X206322395Y-113792000D01*
X205330934Y-112800539D01*
X205327042Y-112802009D01*
X205270825Y-112717875D01*
X205173884Y-112620934D01*
X205510539Y-112620934D01*
X206502000Y-113612395D01*
X207493461Y-112620934D01*
X207391661Y-112351421D01*
X207093523Y-112205537D01*
X206772654Y-112120620D01*
X206441383Y-112099934D01*
X206112443Y-112144272D01*
X205798473Y-112251931D01*
X205612339Y-112351421D01*
X205510539Y-112620934D01*
X205173884Y-112620934D01*
X205036125Y-112483175D01*
X204760147Y-112298772D01*
X204453496Y-112171754D01*
X204127958Y-112107000D01*
X203796042Y-112107000D01*
X203470504Y-112171754D01*
X203163853Y-112298772D01*
X202887875Y-112483175D01*
X202692000Y-112679050D01*
X202496125Y-112483175D01*
X202220147Y-112298772D01*
X201913496Y-112171754D01*
X201587958Y-112107000D01*
X201256042Y-112107000D01*
X200930504Y-112171754D01*
X200623853Y-112298772D01*
X200347875Y-112483175D01*
X200113175Y-112717875D01*
X199928772Y-112993853D01*
X199801754Y-113300504D01*
X199737000Y-113626042D01*
X199737000Y-113957958D01*
X199801754Y-114283496D01*
X199816726Y-114319643D01*
X192871369Y-121265001D01*
X180020072Y-121265001D01*
X180020072Y-118892000D01*
X180007812Y-118767518D01*
X179971502Y-118647820D01*
X179912537Y-118537506D01*
X179833185Y-118440815D01*
X179791239Y-118406391D01*
X196199630Y-101998000D01*
X224375928Y-101998000D01*
X224375928Y-103998000D01*
X224388188Y-104122482D01*
X224424498Y-104242180D01*
X224483463Y-104352494D01*
X224562815Y-104449185D01*
X224659506Y-104528537D01*
X224769820Y-104587502D01*
X224889518Y-104623812D01*
X225014000Y-104636072D01*
X227614000Y-104636072D01*
X227738482Y-104623812D01*
X227858180Y-104587502D01*
X227968494Y-104528537D01*
X228065185Y-104449185D01*
X228144537Y-104352494D01*
X228203502Y-104242180D01*
X228239812Y-104122482D01*
X228252072Y-103998000D01*
X228252072Y-101998000D01*
X228239812Y-101873518D01*
X228203502Y-101753820D01*
X228144537Y-101643506D01*
X228065185Y-101546815D01*
X227968494Y-101467463D01*
X227858180Y-101408498D01*
X227738482Y-101372188D01*
X227614000Y-101359928D01*
X225014000Y-101359928D01*
X224889518Y-101372188D01*
X224769820Y-101408498D01*
X224659506Y-101467463D01*
X224562815Y-101546815D01*
X224483463Y-101643506D01*
X224424498Y-101753820D01*
X224388188Y-101873518D01*
X224375928Y-101998000D01*
X196199630Y-101998000D01*
X196851620Y-101346010D01*
X206156360Y-101346008D01*
X206193793Y-101349695D01*
X206343171Y-101334982D01*
X206486808Y-101291410D01*
X206619185Y-101220654D01*
X206706144Y-101149288D01*
X206706145Y-101149287D01*
X206735215Y-101125430D01*
X206759072Y-101096360D01*
X207787353Y-100068080D01*
X207816423Y-100044223D01*
X207911646Y-99928193D01*
X207982403Y-99795816D01*
X208025975Y-99652179D01*
X208031311Y-99598000D01*
X221675928Y-99598000D01*
X221688188Y-99722482D01*
X221724498Y-99842180D01*
X221783463Y-99952494D01*
X221862815Y-100049185D01*
X221959506Y-100128537D01*
X222069820Y-100187502D01*
X222189518Y-100223812D01*
X222314000Y-100236072D01*
X223028250Y-100233000D01*
X223187000Y-100074250D01*
X223187000Y-98425000D01*
X223441000Y-98425000D01*
X223441000Y-100074250D01*
X223599750Y-100233000D01*
X224314000Y-100236072D01*
X224438482Y-100223812D01*
X224558180Y-100187502D01*
X224668494Y-100128537D01*
X224765185Y-100049185D01*
X224844537Y-99952494D01*
X224903502Y-99842180D01*
X224939812Y-99722482D01*
X224952072Y-99598000D01*
X224949000Y-98583750D01*
X224790250Y-98425000D01*
X223441000Y-98425000D01*
X223187000Y-98425000D01*
X221837750Y-98425000D01*
X221679000Y-98583750D01*
X221675928Y-99598000D01*
X208031311Y-99598000D01*
X208037001Y-99540227D01*
X208037001Y-99540225D01*
X208040687Y-99502802D01*
X208037001Y-99465379D01*
X208037001Y-96998000D01*
X221675928Y-96998000D01*
X221679000Y-98012250D01*
X221837750Y-98171000D01*
X223187000Y-98171000D01*
X223187000Y-96521750D01*
X223441000Y-96521750D01*
X223441000Y-98171000D01*
X224790250Y-98171000D01*
X224949000Y-98012250D01*
X224952072Y-96998000D01*
X227675928Y-96998000D01*
X227675928Y-99598000D01*
X227688188Y-99722482D01*
X227724498Y-99842180D01*
X227783463Y-99952494D01*
X227862815Y-100049185D01*
X227959506Y-100128537D01*
X228069820Y-100187502D01*
X228189518Y-100223812D01*
X228314000Y-100236072D01*
X230314000Y-100236072D01*
X230438482Y-100223812D01*
X230558180Y-100187502D01*
X230668494Y-100128537D01*
X230765185Y-100049185D01*
X230844537Y-99952494D01*
X230903502Y-99842180D01*
X230939812Y-99722482D01*
X230952072Y-99598000D01*
X230952072Y-96998000D01*
X230939812Y-96873518D01*
X230903502Y-96753820D01*
X230844537Y-96643506D01*
X230765185Y-96546815D01*
X230668494Y-96467463D01*
X230558180Y-96408498D01*
X230438482Y-96372188D01*
X230314000Y-96359928D01*
X228314000Y-96359928D01*
X228189518Y-96372188D01*
X228069820Y-96408498D01*
X227959506Y-96467463D01*
X227862815Y-96546815D01*
X227783463Y-96643506D01*
X227724498Y-96753820D01*
X227688188Y-96873518D01*
X227675928Y-96998000D01*
X224952072Y-96998000D01*
X224939812Y-96873518D01*
X224903502Y-96753820D01*
X224844537Y-96643506D01*
X224765185Y-96546815D01*
X224668494Y-96467463D01*
X224558180Y-96408498D01*
X224438482Y-96372188D01*
X224314000Y-96359928D01*
X223599750Y-96363000D01*
X223441000Y-96521750D01*
X223187000Y-96521750D01*
X223028250Y-96363000D01*
X222314000Y-96359928D01*
X222189518Y-96372188D01*
X222069820Y-96408498D01*
X221959506Y-96467463D01*
X221862815Y-96546815D01*
X221783463Y-96643506D01*
X221724498Y-96753820D01*
X221688188Y-96873518D01*
X221675928Y-96998000D01*
X208037001Y-96998000D01*
X208037001Y-95809216D01*
X208040687Y-95771793D01*
X208037001Y-95734367D01*
X208025975Y-95622415D01*
X207982403Y-95478778D01*
X207936191Y-95392321D01*
X207911646Y-95346400D01*
X207840280Y-95259441D01*
X207816423Y-95230371D01*
X207787354Y-95206515D01*
X206981828Y-94400989D01*
X207186312Y-94196505D01*
X207354299Y-93945095D01*
X207470011Y-93665743D01*
X207529000Y-93369184D01*
X207529000Y-93066816D01*
X207470011Y-92770257D01*
X207354299Y-92490905D01*
X207186312Y-92239495D01*
X206972505Y-92025688D01*
X206818895Y-91923049D01*
X206878475Y-91742080D01*
X205994000Y-90857605D01*
X205979858Y-90871748D01*
X205800253Y-90692143D01*
X205814395Y-90678000D01*
X206173605Y-90678000D01*
X207058080Y-91562475D01*
X207312261Y-91478792D01*
X207443158Y-91206225D01*
X207518365Y-90913358D01*
X207534991Y-90611447D01*
X207492397Y-90312093D01*
X207392222Y-90026801D01*
X207312261Y-89877208D01*
X207058080Y-89793525D01*
X206173605Y-90678000D01*
X205814395Y-90678000D01*
X204929920Y-89793525D01*
X204675739Y-89877208D01*
X204544842Y-90149775D01*
X204469635Y-90442642D01*
X204460586Y-90606956D01*
X202398201Y-88544570D01*
X202449000Y-88289184D01*
X202449000Y-87986816D01*
X204459000Y-87986816D01*
X204459000Y-88289184D01*
X204517989Y-88585743D01*
X204633701Y-88865095D01*
X204801688Y-89116505D01*
X205015495Y-89330312D01*
X205169105Y-89432951D01*
X205109525Y-89613920D01*
X205994000Y-90498395D01*
X206878475Y-89613920D01*
X206818895Y-89432951D01*
X206972505Y-89330312D01*
X207186312Y-89116505D01*
X207354299Y-88865095D01*
X207470011Y-88585743D01*
X207529000Y-88289184D01*
X207529000Y-87986816D01*
X207470011Y-87690257D01*
X207354299Y-87410905D01*
X207186312Y-87159495D01*
X206972505Y-86945688D01*
X206721095Y-86777701D01*
X206441743Y-86661989D01*
X206145184Y-86603000D01*
X205842816Y-86603000D01*
X205546257Y-86661989D01*
X205266905Y-86777701D01*
X205015495Y-86945688D01*
X204801688Y-87159495D01*
X204633701Y-87410905D01*
X204517989Y-87690257D01*
X204459000Y-87986816D01*
X202449000Y-87986816D01*
X202390011Y-87690257D01*
X202274299Y-87410905D01*
X202106312Y-87159495D01*
X201892505Y-86945688D01*
X201641095Y-86777701D01*
X201361743Y-86661989D01*
X201065184Y-86603000D01*
X200762816Y-86603000D01*
X200466257Y-86661989D01*
X200186905Y-86777701D01*
X199935495Y-86945688D01*
X199721688Y-87159495D01*
X199553701Y-87410905D01*
X199437989Y-87690257D01*
X199379000Y-87986816D01*
X199379000Y-88289184D01*
X199437989Y-88585743D01*
X199553701Y-88865095D01*
X199721688Y-89116505D01*
X199935495Y-89330312D01*
X200051763Y-89408000D01*
X199935495Y-89485688D01*
X199721688Y-89699495D01*
X199553701Y-89950905D01*
X199437989Y-90230257D01*
X199379000Y-90526816D01*
X199379000Y-90829184D01*
X199437989Y-91125743D01*
X199553701Y-91405095D01*
X199721688Y-91656505D01*
X199935495Y-91870312D01*
X200051763Y-91948000D01*
X199935495Y-92025688D01*
X199721688Y-92239495D01*
X199553701Y-92490905D01*
X199437989Y-92770257D01*
X199379000Y-93066816D01*
X199379000Y-93369184D01*
X199437989Y-93665743D01*
X199553701Y-93945095D01*
X199721688Y-94196505D01*
X199935495Y-94410312D01*
X200186905Y-94578299D01*
X200466257Y-94694011D01*
X200762816Y-94753000D01*
X201065184Y-94753000D01*
X201361743Y-94694011D01*
X201433002Y-94664495D01*
X201433001Y-96851505D01*
X201361743Y-96821989D01*
X201065184Y-96763000D01*
X200762816Y-96763000D01*
X200507430Y-96813799D01*
X192483285Y-88789655D01*
X192459423Y-88760579D01*
X192343393Y-88665356D01*
X192211016Y-88594599D01*
X192067379Y-88551027D01*
X191955427Y-88540001D01*
X191955424Y-88540001D01*
X191918001Y-88536315D01*
X191880578Y-88540001D01*
X170754103Y-88540001D01*
X170841891Y-88408617D01*
X171006224Y-88011883D01*
X171090000Y-87590711D01*
X171090000Y-87161289D01*
X171006224Y-86740117D01*
X170942000Y-86585067D01*
X170942000Y-79248000D01*
X179060169Y-79248000D01*
X179099403Y-79646340D01*
X179215594Y-80029374D01*
X179404280Y-80382381D01*
X179512555Y-80514314D01*
X179658208Y-80691793D01*
X179735743Y-80755425D01*
X184509109Y-85528791D01*
X184669490Y-85915985D01*
X184919008Y-86289415D01*
X185236585Y-86606992D01*
X185610015Y-86856510D01*
X186024949Y-87028381D01*
X186465440Y-87116000D01*
X186914560Y-87116000D01*
X187355051Y-87028381D01*
X187769985Y-86856510D01*
X188143415Y-86606992D01*
X188460992Y-86289415D01*
X188710510Y-85915985D01*
X188882381Y-85501051D01*
X188970000Y-85060560D01*
X188970000Y-84611440D01*
X188882381Y-84170949D01*
X188710510Y-83756015D01*
X188460992Y-83382585D01*
X188143415Y-83065008D01*
X187769985Y-82815490D01*
X187382791Y-82655109D01*
X183134000Y-78406319D01*
X183134000Y-66956184D01*
X183104598Y-66657659D01*
X182990072Y-66280117D01*
X182990072Y-65806000D01*
X182977812Y-65681518D01*
X182941502Y-65561820D01*
X182882537Y-65451506D01*
X182803185Y-65354815D01*
X182706494Y-65275463D01*
X182596180Y-65216498D01*
X182476482Y-65180188D01*
X182352000Y-65167928D01*
X181877882Y-65167928D01*
X181500340Y-65053402D01*
X181102000Y-65014169D01*
X180703659Y-65053402D01*
X180326117Y-65167928D01*
X179852000Y-65167928D01*
X179727518Y-65180188D01*
X179607820Y-65216498D01*
X179497506Y-65275463D01*
X179400815Y-65354815D01*
X179321463Y-65451506D01*
X179262498Y-65561820D01*
X179226188Y-65681518D01*
X179213928Y-65806000D01*
X179213928Y-66280118D01*
X179099402Y-66657660D01*
X179070000Y-66956185D01*
X179070001Y-79148177D01*
X179060169Y-79248000D01*
X170942000Y-79248000D01*
X170942000Y-75089681D01*
X177609421Y-68422261D01*
X177799720Y-68190381D01*
X177988406Y-67837375D01*
X178104597Y-67454341D01*
X178143831Y-67056000D01*
X178104597Y-66657660D01*
X177988406Y-66274626D01*
X177799720Y-65921619D01*
X177545792Y-65612208D01*
X177236381Y-65358280D01*
X176883374Y-65169594D01*
X176500340Y-65053403D01*
X176102000Y-65014169D01*
X175703659Y-65053403D01*
X175320625Y-65169594D01*
X174967619Y-65358280D01*
X174735739Y-65548579D01*
X167543744Y-72740575D01*
X167466208Y-72804207D01*
X167402579Y-72881740D01*
X167212280Y-73113619D01*
X167023594Y-73466626D01*
X166907403Y-73849660D01*
X166868169Y-74248000D01*
X166878001Y-74347823D01*
X166878000Y-86585067D01*
X166813776Y-86740117D01*
X166730000Y-87161289D01*
X166730000Y-87590711D01*
X166813776Y-88011883D01*
X166978109Y-88408617D01*
X167065897Y-88540001D01*
X139004103Y-88540001D01*
X139091891Y-88408617D01*
X139256224Y-88011883D01*
X139340000Y-87590711D01*
X139340000Y-87161289D01*
X139256224Y-86740117D01*
X139192000Y-86585067D01*
X139192000Y-79502000D01*
X147564169Y-79502000D01*
X147584887Y-79712347D01*
X147603403Y-79900341D01*
X147618761Y-79950969D01*
X147719594Y-80283374D01*
X147908280Y-80636381D01*
X148010531Y-80760974D01*
X148162208Y-80945793D01*
X148239743Y-81009425D01*
X152759109Y-85528791D01*
X152919490Y-85915985D01*
X153169008Y-86289415D01*
X153486585Y-86606992D01*
X153860015Y-86856510D01*
X154274949Y-87028381D01*
X154715440Y-87116000D01*
X155164560Y-87116000D01*
X155605051Y-87028381D01*
X156019985Y-86856510D01*
X156393415Y-86606992D01*
X156710992Y-86289415D01*
X156960510Y-85915985D01*
X157132381Y-85501051D01*
X157220000Y-85060560D01*
X157220000Y-84611440D01*
X157132381Y-84170949D01*
X156960510Y-83756015D01*
X156710992Y-83382585D01*
X156393415Y-83065008D01*
X156019985Y-82815490D01*
X155632791Y-82655109D01*
X151638000Y-78660319D01*
X151638000Y-67210184D01*
X151608598Y-66911659D01*
X151494072Y-66534117D01*
X151494072Y-66060000D01*
X151481812Y-65935518D01*
X151445502Y-65815820D01*
X151386537Y-65705506D01*
X151307185Y-65608815D01*
X151210494Y-65529463D01*
X151100180Y-65470498D01*
X150980482Y-65434188D01*
X150856000Y-65421928D01*
X150381882Y-65421928D01*
X150004340Y-65307402D01*
X149606000Y-65268169D01*
X149207659Y-65307402D01*
X148830117Y-65421928D01*
X148356000Y-65421928D01*
X148231518Y-65434188D01*
X148111820Y-65470498D01*
X148001506Y-65529463D01*
X147904815Y-65608815D01*
X147825463Y-65705506D01*
X147766498Y-65815820D01*
X147730188Y-65935518D01*
X147717928Y-66060000D01*
X147717928Y-66534118D01*
X147603402Y-66911660D01*
X147574000Y-67210185D01*
X147574001Y-79402177D01*
X147564169Y-79502000D01*
X139192000Y-79502000D01*
X139192000Y-75597681D01*
X146113421Y-68676261D01*
X146303720Y-68444382D01*
X146492405Y-68091376D01*
X146608597Y-67708341D01*
X146647831Y-67310001D01*
X146608597Y-66911660D01*
X146492405Y-66528626D01*
X146303720Y-66175620D01*
X146049792Y-65866208D01*
X145740380Y-65612280D01*
X145387374Y-65423595D01*
X145004340Y-65307403D01*
X144605999Y-65268169D01*
X144207659Y-65307403D01*
X143824624Y-65423595D01*
X143471618Y-65612280D01*
X143239739Y-65802579D01*
X135793744Y-73248575D01*
X135716208Y-73312207D01*
X135652579Y-73389740D01*
X135462280Y-73621619D01*
X135273594Y-73974626D01*
X135157403Y-74357660D01*
X135118169Y-74756000D01*
X135128001Y-74855823D01*
X135128000Y-86585067D01*
X135063776Y-86740117D01*
X134980000Y-87161289D01*
X134980000Y-87590711D01*
X135063776Y-88011883D01*
X135228109Y-88408617D01*
X135315897Y-88540001D01*
X107254103Y-88540001D01*
X107341891Y-88408617D01*
X107506224Y-88011883D01*
X107590000Y-87590711D01*
X107590000Y-87161289D01*
X107506224Y-86740117D01*
X107442000Y-86585067D01*
X107442000Y-79502000D01*
X115814169Y-79502000D01*
X115834887Y-79712347D01*
X115853403Y-79900341D01*
X115868761Y-79950969D01*
X115969594Y-80283374D01*
X116158280Y-80636381D01*
X116260531Y-80760974D01*
X116412208Y-80945793D01*
X116489743Y-81009425D01*
X121009109Y-85528791D01*
X121169490Y-85915985D01*
X121419008Y-86289415D01*
X121736585Y-86606992D01*
X122110015Y-86856510D01*
X122524949Y-87028381D01*
X122965440Y-87116000D01*
X123414560Y-87116000D01*
X123855051Y-87028381D01*
X124269985Y-86856510D01*
X124643415Y-86606992D01*
X124960992Y-86289415D01*
X125210510Y-85915985D01*
X125382381Y-85501051D01*
X125470000Y-85060560D01*
X125470000Y-84611440D01*
X125382381Y-84170949D01*
X125210510Y-83756015D01*
X124960992Y-83382585D01*
X124643415Y-83065008D01*
X124269985Y-82815490D01*
X123882791Y-82655109D01*
X119888000Y-78660319D01*
X119888000Y-66956184D01*
X119858598Y-66657659D01*
X119744072Y-66280117D01*
X119744072Y-65806000D01*
X119731812Y-65681518D01*
X119695502Y-65561820D01*
X119636537Y-65451506D01*
X119557185Y-65354815D01*
X119460494Y-65275463D01*
X119350180Y-65216498D01*
X119230482Y-65180188D01*
X119106000Y-65167928D01*
X118631882Y-65167928D01*
X118254340Y-65053402D01*
X117856000Y-65014169D01*
X117457659Y-65053402D01*
X117080117Y-65167928D01*
X116606000Y-65167928D01*
X116481518Y-65180188D01*
X116361820Y-65216498D01*
X116251506Y-65275463D01*
X116154815Y-65354815D01*
X116075463Y-65451506D01*
X116016498Y-65561820D01*
X115980188Y-65681518D01*
X115967928Y-65806000D01*
X115967928Y-66280118D01*
X115853402Y-66657660D01*
X115824000Y-66956185D01*
X115824001Y-79402177D01*
X115814169Y-79502000D01*
X107442000Y-79502000D01*
X107442000Y-75343681D01*
X114363421Y-68422261D01*
X114553720Y-68190382D01*
X114742405Y-67837376D01*
X114858597Y-67454341D01*
X114897831Y-67056001D01*
X114858597Y-66657660D01*
X114742405Y-66274626D01*
X114553720Y-65921620D01*
X114299792Y-65612208D01*
X113990380Y-65358280D01*
X113637374Y-65169595D01*
X113254340Y-65053403D01*
X112855999Y-65014169D01*
X112457659Y-65053403D01*
X112074624Y-65169595D01*
X111721618Y-65358280D01*
X111489739Y-65548579D01*
X104043744Y-72994575D01*
X103966208Y-73058207D01*
X103902579Y-73135740D01*
X103712280Y-73367619D01*
X103523594Y-73720626D01*
X103407403Y-74103660D01*
X103368169Y-74502000D01*
X103378001Y-74601823D01*
X103378000Y-86585067D01*
X103313776Y-86740117D01*
X103230000Y-87161289D01*
X103230000Y-87590711D01*
X103313776Y-88011883D01*
X103478109Y-88408617D01*
X103565897Y-88540001D01*
X101047632Y-88540001D01*
X91569157Y-79061527D01*
X91605000Y-78881335D01*
X91605000Y-78598665D01*
X91549853Y-78321426D01*
X91441680Y-78060273D01*
X91284637Y-77825241D01*
X91084759Y-77625363D01*
X90849727Y-77468320D01*
X90588574Y-77360147D01*
X90311335Y-77305000D01*
X90028665Y-77305000D01*
X89751426Y-77360147D01*
X89490273Y-77468320D01*
X89255241Y-77625363D01*
X89055363Y-77825241D01*
X88898320Y-78060273D01*
X88790147Y-78321426D01*
X88735000Y-78598665D01*
X88735000Y-78881335D01*
X88790147Y-79158574D01*
X88898320Y-79419727D01*
X89055363Y-79654759D01*
X89255241Y-79854637D01*
X89487759Y-80010000D01*
X89255241Y-80165363D01*
X89055363Y-80365241D01*
X88898320Y-80600273D01*
X88790147Y-80861426D01*
X88735000Y-81138665D01*
X88735000Y-81421335D01*
X88770843Y-81601526D01*
X87968638Y-82403732D01*
X87939568Y-82427589D01*
X87915711Y-82456659D01*
X87915710Y-82456660D01*
X87844344Y-82543619D01*
X87773588Y-82675996D01*
X87730016Y-82819633D01*
X87715303Y-82969011D01*
X87718990Y-83006444D01*
X87718989Y-88921448D01*
X87715303Y-88958871D01*
X87718989Y-88996294D01*
X87718989Y-88996296D01*
X87730015Y-89108248D01*
X87773587Y-89251885D01*
X87773588Y-89251886D01*
X87844344Y-89384263D01*
X87860253Y-89403648D01*
X87939567Y-89500293D01*
X87968643Y-89524155D01*
X89021063Y-90576575D01*
X88898320Y-90760273D01*
X88790147Y-91021426D01*
X88735000Y-91298665D01*
X88735000Y-91581335D01*
X88770843Y-91761527D01*
X88476648Y-92055722D01*
X88447578Y-92079579D01*
X88423721Y-92108649D01*
X88423720Y-92108650D01*
X88352354Y-92195609D01*
X88281598Y-92327986D01*
X88238026Y-92471623D01*
X88223313Y-92621001D01*
X88227000Y-92658434D01*
X88226999Y-94509457D01*
X88223313Y-94546881D01*
X88226999Y-94584304D01*
X88226999Y-94584306D01*
X88238025Y-94696258D01*
X88281597Y-94839895D01*
X88281598Y-94839896D01*
X88352354Y-94972273D01*
X88391982Y-95020559D01*
X88447577Y-95088303D01*
X88476652Y-95112165D01*
X89021063Y-95656575D01*
X88898320Y-95840273D01*
X88790147Y-96101426D01*
X88735000Y-96378665D01*
X88735000Y-96661335D01*
X88790147Y-96938574D01*
X88898320Y-97199727D01*
X89055363Y-97434759D01*
X89255241Y-97634637D01*
X89490273Y-97791680D01*
X89751426Y-97899853D01*
X90028665Y-97955000D01*
X90311335Y-97955000D01*
X90588574Y-97899853D01*
X90849727Y-97791680D01*
X91084759Y-97634637D01*
X91284637Y-97434759D01*
X91441680Y-97199727D01*
X91549853Y-96938574D01*
X91605000Y-96661335D01*
X91605000Y-96378665D01*
X91549853Y-96101426D01*
X91528555Y-96050008D01*
X92432378Y-96050008D01*
X99002720Y-102620351D01*
X99026578Y-102649422D01*
X99142608Y-102744645D01*
X99274985Y-102815402D01*
X99418622Y-102858974D01*
X99530574Y-102870000D01*
X99530576Y-102870000D01*
X99567999Y-102873686D01*
X99605422Y-102870000D01*
X130394370Y-102870000D01*
X146184760Y-118660391D01*
X146142815Y-118694815D01*
X146063463Y-118791506D01*
X146004498Y-118901820D01*
X145968188Y-119021518D01*
X145955928Y-119146000D01*
X145955928Y-121265001D01*
X143371553Y-121265001D01*
X143453287Y-121183267D01*
X143588443Y-120980992D01*
X143681540Y-120756236D01*
X143729000Y-120517637D01*
X143729000Y-120274363D01*
X143681540Y-120035764D01*
X143588443Y-119811008D01*
X143453287Y-119608733D01*
X143281267Y-119436713D01*
X143078992Y-119301557D01*
X142854236Y-119208460D01*
X142615637Y-119161000D01*
X142372363Y-119161000D01*
X142133764Y-119208460D01*
X141909008Y-119301557D01*
X141706733Y-119436713D01*
X141534713Y-119608733D01*
X141399557Y-119811008D01*
X141306460Y-120035764D01*
X141259000Y-120274363D01*
X141259000Y-120517637D01*
X141306460Y-120756236D01*
X141399557Y-120980992D01*
X141534713Y-121183267D01*
X141616447Y-121265001D01*
X139032072Y-121265001D01*
X139032072Y-119146000D01*
X139019812Y-119021518D01*
X138983502Y-118901820D01*
X138924537Y-118791506D01*
X138845185Y-118694815D01*
X138748494Y-118615463D01*
X138638180Y-118556498D01*
X138518482Y-118520188D01*
X138394000Y-118507928D01*
X136594000Y-118507928D01*
X136469518Y-118520188D01*
X136349820Y-118556498D01*
X136239506Y-118615463D01*
X136142815Y-118694815D01*
X136063463Y-118791506D01*
X136004498Y-118901820D01*
X135968188Y-119021518D01*
X135955928Y-119146000D01*
X135955928Y-121265001D01*
X133538072Y-121265001D01*
X133538072Y-119146000D01*
X133525812Y-119021518D01*
X133489502Y-118901820D01*
X133430537Y-118791506D01*
X133351185Y-118694815D01*
X133254494Y-118615463D01*
X133144180Y-118556498D01*
X133024482Y-118520188D01*
X132900000Y-118507928D01*
X131100000Y-118507928D01*
X130975518Y-118520188D01*
X130855820Y-118556498D01*
X130745506Y-118615463D01*
X130648815Y-118694815D01*
X130569463Y-118791506D01*
X130510498Y-118901820D01*
X130474188Y-119021518D01*
X130461928Y-119146000D01*
X130461928Y-121265001D01*
X127877553Y-121265001D01*
X127959287Y-121183267D01*
X128094443Y-120980992D01*
X128187540Y-120756236D01*
X128235000Y-120517637D01*
X128235000Y-120274363D01*
X128187540Y-120035764D01*
X128094443Y-119811008D01*
X127959287Y-119608733D01*
X127787267Y-119436713D01*
X127584992Y-119301557D01*
X127360236Y-119208460D01*
X127121637Y-119161000D01*
X126878363Y-119161000D01*
X126639764Y-119208460D01*
X126415008Y-119301557D01*
X126212733Y-119436713D01*
X126040713Y-119608733D01*
X125905557Y-119811008D01*
X125812460Y-120035764D01*
X125765000Y-120274363D01*
X125765000Y-120517637D01*
X125812460Y-120756236D01*
X125905557Y-120980992D01*
X126040713Y-121183267D01*
X126122447Y-121265001D01*
X123538072Y-121265001D01*
X123538072Y-119146000D01*
X123525812Y-119021518D01*
X123489502Y-118901820D01*
X123430537Y-118791506D01*
X123351185Y-118694815D01*
X123254494Y-118615463D01*
X123144180Y-118556498D01*
X123024482Y-118520188D01*
X122900000Y-118507928D01*
X121100000Y-118507928D01*
X120975518Y-118520188D01*
X120855820Y-118556498D01*
X120745506Y-118615463D01*
X120648815Y-118694815D01*
X120569463Y-118791506D01*
X120510498Y-118901820D01*
X120474188Y-119021518D01*
X120461928Y-119146000D01*
X120461928Y-121265001D01*
X118044072Y-121265001D01*
X118044072Y-119146000D01*
X118031812Y-119021518D01*
X117995502Y-118901820D01*
X117936537Y-118791506D01*
X117857185Y-118694815D01*
X117760494Y-118615463D01*
X117650180Y-118556498D01*
X117530482Y-118520188D01*
X117406000Y-118507928D01*
X117268000Y-118507928D01*
X117268000Y-116543423D01*
X117271686Y-116506000D01*
X117268000Y-116468574D01*
X117256974Y-116356622D01*
X117213402Y-116212985D01*
X117142646Y-116080609D01*
X117142645Y-116080607D01*
X117107857Y-116038219D01*
X117047422Y-115964578D01*
X117018347Y-115940717D01*
X116122114Y-115044484D01*
X116143000Y-114939486D01*
X116143000Y-114676514D01*
X116091696Y-114418595D01*
X115991061Y-114175641D01*
X115844962Y-113956987D01*
X115659013Y-113771038D01*
X115440359Y-113624939D01*
X115197405Y-113524304D01*
X114939486Y-113473000D01*
X114676514Y-113473000D01*
X114418595Y-113524304D01*
X114175641Y-113624939D01*
X113956987Y-113771038D01*
X113771038Y-113956987D01*
X113624939Y-114175641D01*
X113524304Y-114418595D01*
X113473000Y-114676514D01*
X113473000Y-114939486D01*
X113524304Y-115197405D01*
X113624939Y-115440359D01*
X113771038Y-115659013D01*
X113956987Y-115844962D01*
X114175641Y-115991061D01*
X114418595Y-116091696D01*
X114676514Y-116143000D01*
X114939486Y-116143000D01*
X115044484Y-116122114D01*
X115744000Y-116821630D01*
X115744001Y-118507928D01*
X115606000Y-118507928D01*
X115481518Y-118520188D01*
X115361820Y-118556498D01*
X115251506Y-118615463D01*
X115154815Y-118694815D01*
X115075463Y-118791506D01*
X115016498Y-118901820D01*
X114997635Y-118964004D01*
X95089284Y-99055654D01*
X95065422Y-99026578D01*
X94949392Y-98931355D01*
X94817015Y-98860598D01*
X94673378Y-98817026D01*
X94561426Y-98806000D01*
X94561423Y-98806000D01*
X94524000Y-98802314D01*
X94486577Y-98806000D01*
X87663175Y-98806000D01*
X83878172Y-94992738D01*
X83877279Y-94991650D01*
X83854774Y-94969145D01*
X83832612Y-94946320D01*
X83829411Y-94943613D01*
X83826450Y-94940630D01*
X83825348Y-94939719D01*
X83712284Y-94826654D01*
X83711104Y-94825216D01*
X83821680Y-94659727D01*
X83929853Y-94398574D01*
X83985000Y-94121335D01*
X83985000Y-93838665D01*
X83929853Y-93561426D01*
X83821680Y-93300273D01*
X83664637Y-93065241D01*
X83464759Y-92865363D01*
X83232241Y-92710000D01*
X83464759Y-92554637D01*
X83664637Y-92354759D01*
X83821680Y-92119727D01*
X83929853Y-91858574D01*
X83985000Y-91581335D01*
X83985000Y-91298665D01*
X83929853Y-91021426D01*
X83821680Y-90760273D01*
X83664637Y-90525241D01*
X83464759Y-90325363D01*
X83232241Y-90170000D01*
X83464759Y-90014637D01*
X83664637Y-89814759D01*
X83821680Y-89579727D01*
X83929853Y-89318574D01*
X83985000Y-89041335D01*
X83985000Y-88758665D01*
X83929853Y-88481426D01*
X83821680Y-88220273D01*
X83664637Y-87985241D01*
X83464759Y-87785363D01*
X83232241Y-87630000D01*
X83464759Y-87474637D01*
X83664637Y-87274759D01*
X83821680Y-87039727D01*
X83929853Y-86778574D01*
X83985000Y-86501335D01*
X83985000Y-86218665D01*
X83929853Y-85941426D01*
X83821680Y-85680273D01*
X83664637Y-85445241D01*
X83464759Y-85245363D01*
X83232241Y-85090000D01*
X83464759Y-84934637D01*
X83664637Y-84734759D01*
X83821680Y-84499727D01*
X83929853Y-84238574D01*
X83985000Y-83961335D01*
X83985000Y-83678665D01*
X83929853Y-83401426D01*
X83821680Y-83140273D01*
X83664637Y-82905241D01*
X83464759Y-82705363D01*
X83232241Y-82550000D01*
X83464759Y-82394637D01*
X83664637Y-82194759D01*
X83821680Y-81959727D01*
X83929853Y-81698574D01*
X83985000Y-81421335D01*
X83985000Y-81138665D01*
X83929853Y-80861426D01*
X83821680Y-80600273D01*
X83664637Y-80365241D01*
X83466039Y-80166643D01*
X83474482Y-80165812D01*
X83594180Y-80129502D01*
X83704494Y-80070537D01*
X83801185Y-79991185D01*
X83880537Y-79894494D01*
X83939502Y-79784180D01*
X83975812Y-79664482D01*
X83988072Y-79540000D01*
X83988072Y-77940000D01*
X83975812Y-77815518D01*
X83939502Y-77695820D01*
X83880537Y-77585506D01*
X83801185Y-77488815D01*
X83704494Y-77409463D01*
X83594180Y-77350498D01*
X83474482Y-77314188D01*
X83350000Y-77301928D01*
X81750000Y-77301928D01*
X81625518Y-77314188D01*
X81505820Y-77350498D01*
X81395506Y-77409463D01*
X81311794Y-77478163D01*
X79600278Y-75766648D01*
X79576416Y-75737572D01*
X79460386Y-75642349D01*
X79328009Y-75571592D01*
X79184372Y-75528020D01*
X79072420Y-75516994D01*
X79072417Y-75516994D01*
X79034994Y-75513308D01*
X78997571Y-75516994D01*
X70662921Y-75516994D01*
X70731474Y-75351492D01*
X70787005Y-75072321D01*
X70787005Y-74787679D01*
X70731474Y-74508508D01*
X70622547Y-74245533D01*
X70464409Y-74008863D01*
X70263137Y-73807591D01*
X70026467Y-73649453D01*
X69763492Y-73540526D01*
X69484321Y-73484995D01*
X69199679Y-73484995D01*
X68920508Y-73540526D01*
X68657533Y-73649453D01*
X68420863Y-73807591D01*
X68219591Y-74008863D01*
X68072000Y-74229748D01*
X67924409Y-74008863D01*
X67723137Y-73807591D01*
X67486467Y-73649453D01*
X67223492Y-73540526D01*
X66944321Y-73484995D01*
X66659679Y-73484995D01*
X66380508Y-73540526D01*
X66117533Y-73649453D01*
X65880863Y-73807591D01*
X65679591Y-74008863D01*
X65521453Y-74245533D01*
X65412526Y-74508508D01*
X65356995Y-74787679D01*
X64366321Y-74787679D01*
X64411727Y-61620000D01*
X233271721Y-61620000D01*
X233022273Y-133960000D01*
M02*
