G04 #@! TF.GenerationSoftware,KiCad,Pcbnew,5.1.5-52549c5~84~ubuntu18.04.1*
G04 #@! TF.CreationDate,2020-02-03T20:08:21-05:00*
G04 #@! TF.ProjectId,cropdroid-reservoir,63726f70-6472-46f6-9964-2d7265736572,v1*
G04 #@! TF.SameCoordinates,Original*
G04 #@! TF.FileFunction,Copper,L1,Top*
G04 #@! TF.FilePolarity,Positive*
%FSLAX46Y46*%
G04 Gerber Fmt 4.6, Leading zero omitted, Abs format (unit mm)*
G04 Created by KiCad (PCBNEW 5.1.5-52549c5~84~ubuntu18.04.1) date 2020-02-03 20:08:21*
%MOMM*%
%LPD*%
G04 APERTURE LIST*
%ADD10O,1.600000X1.600000*%
%ADD11C,1.600000*%
%ADD12R,1.800000X2.500000*%
%ADD13R,2.500000X1.800000*%
%ADD14O,2.200000X2.200000*%
%ADD15R,2.200000X2.200000*%
%ADD16R,2.500000X2.500000*%
%ADD17C,2.500000*%
%ADD18C,2.100000*%
%ADD19C,1.620010*%
%ADD20R,2.600000X2.000000*%
%ADD21R,2.000000X2.600000*%
%ADD22C,1.760000*%
%ADD23R,1.760000X1.760000*%
%ADD24C,3.090000*%
%ADD25C,3.290000*%
%ADD26R,1.600000X1.600000*%
%ADD27C,1.800000*%
%ADD28R,1.800000X1.800000*%
%ADD29C,0.254000*%
%ADD30C,2.794000*%
G04 APERTURE END LIST*
D10*
X86106000Y-120650000D03*
D11*
X86106000Y-130810000D03*
D12*
X92790000Y-120396000D03*
X102790000Y-120396000D03*
D13*
X97790000Y-125396000D03*
D10*
X218948000Y-72390000D03*
D11*
X229108000Y-72390000D03*
D13*
X182118000Y-125396000D03*
D12*
X187118000Y-120396000D03*
X177118000Y-120396000D03*
D13*
X198962000Y-125396000D03*
D12*
X203962000Y-120396000D03*
X193962000Y-120396000D03*
D14*
X189992000Y-91948000D03*
D15*
X189992000Y-102108000D03*
D14*
X157988000Y-91694000D03*
D15*
X157988000Y-101854000D03*
D14*
X130810000Y-86614000D03*
D15*
X130810000Y-96774000D03*
D16*
X117856000Y-67056000D03*
D17*
X112856000Y-67056000D03*
D13*
X127000000Y-125396000D03*
D12*
X132000000Y-120396000D03*
X122000000Y-120396000D03*
X137494000Y-120396000D03*
X147494000Y-120396000D03*
D13*
X142494000Y-125396000D03*
D12*
X152734000Y-120396000D03*
X162734000Y-120396000D03*
D13*
X157734000Y-125396000D03*
X224790000Y-125396000D03*
D12*
X229790000Y-120396000D03*
X219790000Y-120396000D03*
D18*
X222250000Y-77724000D03*
X224790000Y-77724000D03*
X227330000Y-77724000D03*
D17*
X144606000Y-67310000D03*
D16*
X149606000Y-67310000D03*
X181102000Y-67056000D03*
D17*
X176102000Y-67056000D03*
D19*
X66802000Y-74930000D03*
X69342000Y-74930000D03*
X66802000Y-77470000D03*
X69342000Y-77470000D03*
X66802000Y-80010000D03*
X69342000Y-80010000D03*
X66802000Y-82550000D03*
X69342000Y-82550000D03*
X66802000Y-85090000D03*
X69342000Y-85090000D03*
X66802000Y-87630000D03*
X69342000Y-87630000D03*
X66802000Y-90170000D03*
X69342000Y-90170000D03*
X66802000Y-92710000D03*
X69342000Y-92710000D03*
X66802000Y-95250000D03*
X69342000Y-95250000D03*
X66802000Y-97790000D03*
X69342000Y-97790000D03*
X66802000Y-100330000D03*
X69342000Y-100330000D03*
X66802000Y-102870000D03*
X69342000Y-102870000D03*
X66802000Y-105410000D03*
X69342000Y-105410000D03*
X66802000Y-107950000D03*
X69342000Y-107950000D03*
X66802000Y-110490000D03*
X69342000Y-110490000D03*
X66802000Y-113030000D03*
X69342000Y-113030000D03*
X66802000Y-115570000D03*
X69342000Y-115570000D03*
X66802000Y-118110000D03*
X69342000Y-118110000D03*
D20*
X226314000Y-102998000D03*
D21*
X229314000Y-98298000D03*
X223314000Y-98298000D03*
D22*
X119380000Y-100076000D03*
D23*
X109220000Y-100076000D03*
D24*
X105410000Y-87376000D03*
D25*
X123190000Y-84836000D03*
X154940000Y-84836000D03*
D24*
X137160000Y-87376000D03*
D23*
X140970000Y-100076000D03*
D22*
X151130000Y-100076000D03*
X182880000Y-100076000D03*
D23*
X172720000Y-100076000D03*
D24*
X168910000Y-87376000D03*
D25*
X186690000Y-84836000D03*
D26*
X82550000Y-78740000D03*
D11*
X82550000Y-81280000D03*
X82550000Y-83820000D03*
X82550000Y-86360000D03*
X82550000Y-88900000D03*
X82550000Y-91440000D03*
X82550000Y-93980000D03*
X90170000Y-93980000D03*
X90170000Y-91440000D03*
X90170000Y-88900000D03*
X90170000Y-86360000D03*
X90170000Y-83820000D03*
X90170000Y-81280000D03*
X90170000Y-78740000D03*
X82550000Y-96520000D03*
X90170000Y-96520000D03*
D27*
X200914000Y-98298000D03*
X200914000Y-93218000D03*
X200914000Y-90678000D03*
X200914000Y-88138000D03*
X205994000Y-88138000D03*
X205994000Y-90678000D03*
X205994000Y-93218000D03*
D28*
X205994000Y-98298000D03*
D29*
X203962000Y-120476000D02*
X203962000Y-121980000D01*
X223314000Y-98298000D02*
X221996000Y-98298000D01*
X66802000Y-118110000D02*
X67056000Y-117856000D01*
X82550000Y-97651370D02*
X82550000Y-96520000D01*
X224568000Y-98298000D02*
X223314000Y-98298000D01*
X223314000Y-96744000D02*
X223314000Y-98298000D01*
X102790000Y-122154000D02*
X102790000Y-120650000D01*
X103771001Y-128620881D02*
X103771001Y-123135001D01*
X103771001Y-123135001D02*
X102790000Y-122154000D01*
X101581882Y-130810000D02*
X103771001Y-128620881D01*
X86106000Y-130810000D02*
X101581882Y-130810000D01*
X84974630Y-130810000D02*
X86106000Y-130810000D01*
X65610994Y-118681684D02*
X77739310Y-130810000D01*
X77739310Y-130810000D02*
X84974630Y-130810000D01*
X65610994Y-97835486D02*
X65610994Y-118681684D01*
X65656480Y-97790000D02*
X65610994Y-97835486D01*
X66802000Y-97790000D02*
X65656480Y-97790000D01*
X218148001Y-73189999D02*
X200189999Y-73189999D01*
X218948000Y-72390000D02*
X218148001Y-73189999D01*
X200189999Y-73189999D02*
X191008000Y-64008000D01*
X77724000Y-64008000D02*
X66802000Y-74930000D01*
X191008000Y-64008000D02*
X77724000Y-64008000D01*
X218948000Y-74422000D02*
X222250000Y-77724000D01*
X218948000Y-72390000D02*
X218948000Y-74422000D01*
X86106000Y-120650000D02*
X92790000Y-120650000D01*
X147494000Y-118892000D02*
X130710000Y-102108000D01*
X147494000Y-120396000D02*
X147494000Y-118892000D01*
X89370001Y-92239999D02*
X90170000Y-91440000D01*
X88988999Y-92621001D02*
X89370001Y-92239999D01*
X88988999Y-94546881D02*
X88988999Y-92621001D01*
X89730126Y-95288008D02*
X88988999Y-94546881D01*
X92748008Y-95288008D02*
X89730126Y-95288008D01*
X99568000Y-102108000D02*
X92748008Y-95288008D01*
X130710000Y-102108000D02*
X99568000Y-102108000D01*
X224790000Y-76708000D02*
X224790000Y-77724000D01*
X229108000Y-72390000D02*
X224790000Y-76708000D01*
X70487520Y-100330000D02*
X69342000Y-100330000D01*
X90639802Y-100330000D02*
X70487520Y-100330000D01*
X112797812Y-122488010D02*
X90639802Y-100330000D01*
X230533792Y-122488010D02*
X112797812Y-122488010D01*
X231071001Y-121950801D02*
X230533792Y-122488010D01*
X231071001Y-84005001D02*
X231071001Y-121950801D01*
X224790000Y-77724000D02*
X231071001Y-84005001D01*
D30*
X168910000Y-74248000D02*
X176102000Y-67056000D01*
X168910000Y-87376000D02*
X168910000Y-74248000D01*
X181102000Y-79248000D02*
X186690000Y-84836000D01*
X181102000Y-67056000D02*
X181102000Y-79248000D01*
D29*
X100732001Y-89302001D02*
X191918001Y-89302001D01*
X90170000Y-78740000D02*
X100732001Y-89302001D01*
X191918001Y-89302001D02*
X200914000Y-98298000D01*
D30*
X137160000Y-74756000D02*
X144606000Y-67310000D01*
X137160000Y-87376000D02*
X137160000Y-74756000D01*
D29*
X202195001Y-91959001D02*
X201813999Y-91577999D01*
X201031882Y-100076000D02*
X202195001Y-98912881D01*
X201813999Y-91577999D02*
X200914000Y-90678000D01*
X202195001Y-98912881D02*
X202195001Y-91959001D01*
X182880000Y-100076000D02*
X201031882Y-100076000D01*
X184912000Y-102108000D02*
X182880000Y-100076000D01*
X189992000Y-102108000D02*
X184912000Y-102108000D01*
X152908000Y-101854000D02*
X151130000Y-100076000D01*
X157988000Y-101854000D02*
X152908000Y-101854000D01*
X122682000Y-96774000D02*
X119380000Y-100076000D01*
X130810000Y-96774000D02*
X122682000Y-96774000D01*
X88480989Y-82969011D02*
X89370001Y-82079999D01*
X88480989Y-88958871D02*
X88480989Y-82969011D01*
X89603119Y-90081001D02*
X88480989Y-88958871D01*
X89370001Y-82079999D02*
X90170000Y-81280000D01*
X100553882Y-100076000D02*
X90558883Y-90081001D01*
X109220000Y-100076000D02*
X100553882Y-100076000D01*
X90558883Y-90081001D02*
X89603119Y-90081001D01*
X89370001Y-84619999D02*
X90170000Y-83820000D01*
X88988999Y-87210999D02*
X88988999Y-85001001D01*
X89319001Y-87541001D02*
X88988999Y-87210999D01*
X90558883Y-87541001D02*
X89319001Y-87541001D01*
X130184010Y-90424010D02*
X93441892Y-90424010D01*
X88988999Y-85001001D02*
X89370001Y-84619999D01*
X139836000Y-100076000D02*
X130184010Y-90424010D01*
X93441892Y-90424010D02*
X90558883Y-87541001D01*
X140970000Y-100076000D02*
X139836000Y-100076000D01*
X172720000Y-100076000D02*
X171586000Y-100076000D01*
X172720000Y-98942000D02*
X163694000Y-89916000D01*
X172720000Y-100076000D02*
X172720000Y-98942000D01*
X93726000Y-89916000D02*
X90170000Y-86360000D01*
X163694000Y-89916000D02*
X93726000Y-89916000D01*
D30*
X117856000Y-79502000D02*
X123190000Y-84836000D01*
X117856000Y-67056000D02*
X117856000Y-79502000D01*
X105410000Y-87376000D02*
X105410000Y-74502000D01*
X105410000Y-74502000D02*
X112856000Y-67056000D01*
X149606000Y-79502000D02*
X154940000Y-84836000D01*
X149606000Y-67310000D02*
X149606000Y-79502000D01*
D29*
X67612004Y-76659996D02*
X66802000Y-77470000D01*
X67993006Y-76278994D02*
X67612004Y-76659996D01*
X79034994Y-76278994D02*
X67993006Y-76278994D01*
X81496000Y-78740000D02*
X79034994Y-76278994D01*
X82550000Y-78740000D02*
X81496000Y-78740000D01*
X82550000Y-81280000D02*
X78740000Y-77470000D01*
X78740000Y-77470000D02*
X69342000Y-77470000D01*
X67612004Y-79199996D02*
X66802000Y-80010000D01*
X76417624Y-78818994D02*
X67993006Y-78818994D01*
X81418630Y-83820000D02*
X76417624Y-78818994D01*
X67993006Y-78818994D02*
X67612004Y-79199996D01*
X82550000Y-83820000D02*
X81418630Y-83820000D01*
X76200000Y-80010000D02*
X69342000Y-80010000D01*
X82550000Y-86360000D02*
X76200000Y-80010000D01*
X67612004Y-81739996D02*
X66802000Y-82550000D01*
X67993006Y-81358994D02*
X67612004Y-81739996D01*
X75008994Y-81358994D02*
X67993006Y-81358994D01*
X82550000Y-88900000D02*
X75008994Y-81358994D01*
X81750001Y-90640001D02*
X81750001Y-89878001D01*
X82550000Y-91440000D02*
X81750001Y-90640001D01*
X74422000Y-82550000D02*
X69342000Y-82550000D01*
X81750001Y-89878001D02*
X74422000Y-82550000D01*
X82550000Y-93980000D02*
X80518000Y-91948000D01*
X80518000Y-91948000D02*
X80518000Y-90424000D01*
X67612004Y-84279996D02*
X66802000Y-85090000D01*
X67993006Y-83898994D02*
X67612004Y-84279996D01*
X73992994Y-83898994D02*
X67993006Y-83898994D01*
X80518000Y-90424000D02*
X73992994Y-83898994D01*
X162734000Y-120396000D02*
X161580000Y-120396000D01*
X162734000Y-118892000D02*
X145188000Y-101346000D01*
X162734000Y-120396000D02*
X162734000Y-118892000D01*
X145188000Y-101346000D02*
X100330000Y-101346000D01*
X92964000Y-93980000D02*
X90170000Y-93980000D01*
X100330000Y-101346000D02*
X92964000Y-93980000D01*
X201813999Y-89037999D02*
X205994000Y-93218000D01*
X200914000Y-88138000D02*
X201813999Y-89037999D01*
X229790000Y-117014000D02*
X205994000Y-93218000D01*
X229790000Y-120396000D02*
X229790000Y-117014000D01*
G36*
X233022273Y-133960000D02*
G01*
X64162279Y-133960000D01*
X64286846Y-97835486D01*
X64845308Y-97835486D01*
X64848994Y-97872909D01*
X64848995Y-118644251D01*
X64845308Y-118681684D01*
X64860021Y-118831062D01*
X64903593Y-118974699D01*
X64974349Y-119107076D01*
X65045715Y-119194035D01*
X65069573Y-119223106D01*
X65098643Y-119246963D01*
X77174031Y-131322352D01*
X77197888Y-131351422D01*
X77226958Y-131375279D01*
X77313917Y-131446645D01*
X77384674Y-131484465D01*
X77446295Y-131517402D01*
X77589932Y-131560974D01*
X77701884Y-131572000D01*
X77701887Y-131572000D01*
X77739310Y-131575686D01*
X77776733Y-131572000D01*
X84889293Y-131572000D01*
X84991363Y-131724759D01*
X85191241Y-131924637D01*
X85426273Y-132081680D01*
X85687426Y-132189853D01*
X85964665Y-132245000D01*
X86247335Y-132245000D01*
X86524574Y-132189853D01*
X86785727Y-132081680D01*
X87020759Y-131924637D01*
X87220637Y-131724759D01*
X87322707Y-131572000D01*
X101544459Y-131572000D01*
X101581882Y-131575686D01*
X101619305Y-131572000D01*
X101619308Y-131572000D01*
X101731260Y-131560974D01*
X101874897Y-131517402D01*
X102007274Y-131446645D01*
X102123304Y-131351422D01*
X102147166Y-131322346D01*
X104283354Y-129186159D01*
X104312423Y-129162303D01*
X104377062Y-129083540D01*
X104407646Y-129046274D01*
X104478402Y-128913897D01*
X104478403Y-128913896D01*
X104521975Y-128770259D01*
X104533001Y-128658307D01*
X104533001Y-128658304D01*
X104536687Y-128620881D01*
X104533001Y-128583458D01*
X104533001Y-127774363D01*
X120765000Y-127774363D01*
X120765000Y-128017637D01*
X120812460Y-128256236D01*
X120905557Y-128480992D01*
X121040713Y-128683267D01*
X121212733Y-128855287D01*
X121415008Y-128990443D01*
X121639764Y-129083540D01*
X121878363Y-129131000D01*
X122121637Y-129131000D01*
X122360236Y-129083540D01*
X122584992Y-128990443D01*
X122787267Y-128855287D01*
X122959287Y-128683267D01*
X123094443Y-128480992D01*
X123187540Y-128256236D01*
X123235000Y-128017637D01*
X123235000Y-127774363D01*
X130765000Y-127774363D01*
X130765000Y-128017637D01*
X130812460Y-128256236D01*
X130905557Y-128480992D01*
X131040713Y-128683267D01*
X131212733Y-128855287D01*
X131415008Y-128990443D01*
X131639764Y-129083540D01*
X131878363Y-129131000D01*
X132121637Y-129131000D01*
X132360236Y-129083540D01*
X132584992Y-128990443D01*
X132787267Y-128855287D01*
X132959287Y-128683267D01*
X133094443Y-128480992D01*
X133187540Y-128256236D01*
X133235000Y-128017637D01*
X133235000Y-127774363D01*
X136259000Y-127774363D01*
X136259000Y-128017637D01*
X136306460Y-128256236D01*
X136399557Y-128480992D01*
X136534713Y-128683267D01*
X136706733Y-128855287D01*
X136909008Y-128990443D01*
X137133764Y-129083540D01*
X137372363Y-129131000D01*
X137615637Y-129131000D01*
X137854236Y-129083540D01*
X138078992Y-128990443D01*
X138281267Y-128855287D01*
X138453287Y-128683267D01*
X138588443Y-128480992D01*
X138681540Y-128256236D01*
X138729000Y-128017637D01*
X138729000Y-127774363D01*
X146259000Y-127774363D01*
X146259000Y-128017637D01*
X146306460Y-128256236D01*
X146399557Y-128480992D01*
X146534713Y-128683267D01*
X146706733Y-128855287D01*
X146909008Y-128990443D01*
X147133764Y-129083540D01*
X147372363Y-129131000D01*
X147615637Y-129131000D01*
X147854236Y-129083540D01*
X148078992Y-128990443D01*
X148281267Y-128855287D01*
X148453287Y-128683267D01*
X148588443Y-128480992D01*
X148681540Y-128256236D01*
X148729000Y-128017637D01*
X148729000Y-127774363D01*
X151499000Y-127774363D01*
X151499000Y-128017637D01*
X151546460Y-128256236D01*
X151639557Y-128480992D01*
X151774713Y-128683267D01*
X151946733Y-128855287D01*
X152149008Y-128990443D01*
X152373764Y-129083540D01*
X152612363Y-129131000D01*
X152855637Y-129131000D01*
X153094236Y-129083540D01*
X153318992Y-128990443D01*
X153521267Y-128855287D01*
X153693287Y-128683267D01*
X153828443Y-128480992D01*
X153921540Y-128256236D01*
X153969000Y-128017637D01*
X153969000Y-127774363D01*
X161499000Y-127774363D01*
X161499000Y-128017637D01*
X161546460Y-128256236D01*
X161639557Y-128480992D01*
X161774713Y-128683267D01*
X161946733Y-128855287D01*
X162149008Y-128990443D01*
X162373764Y-129083540D01*
X162612363Y-129131000D01*
X162855637Y-129131000D01*
X163094236Y-129083540D01*
X163318992Y-128990443D01*
X163521267Y-128855287D01*
X163693287Y-128683267D01*
X163828443Y-128480992D01*
X163921540Y-128256236D01*
X163969000Y-128017637D01*
X163969000Y-127774363D01*
X175883000Y-127774363D01*
X175883000Y-128017637D01*
X175930460Y-128256236D01*
X176023557Y-128480992D01*
X176158713Y-128683267D01*
X176330733Y-128855287D01*
X176533008Y-128990443D01*
X176757764Y-129083540D01*
X176996363Y-129131000D01*
X177239637Y-129131000D01*
X177478236Y-129083540D01*
X177702992Y-128990443D01*
X177905267Y-128855287D01*
X178077287Y-128683267D01*
X178212443Y-128480992D01*
X178305540Y-128256236D01*
X178353000Y-128017637D01*
X178353000Y-127774363D01*
X185883000Y-127774363D01*
X185883000Y-128017637D01*
X185930460Y-128256236D01*
X186023557Y-128480992D01*
X186158713Y-128683267D01*
X186330733Y-128855287D01*
X186533008Y-128990443D01*
X186757764Y-129083540D01*
X186996363Y-129131000D01*
X187239637Y-129131000D01*
X187478236Y-129083540D01*
X187702992Y-128990443D01*
X187905267Y-128855287D01*
X188077287Y-128683267D01*
X188212443Y-128480992D01*
X188305540Y-128256236D01*
X188353000Y-128017637D01*
X188353000Y-127774363D01*
X192727000Y-127774363D01*
X192727000Y-128017637D01*
X192774460Y-128256236D01*
X192867557Y-128480992D01*
X193002713Y-128683267D01*
X193174733Y-128855287D01*
X193377008Y-128990443D01*
X193601764Y-129083540D01*
X193840363Y-129131000D01*
X194083637Y-129131000D01*
X194322236Y-129083540D01*
X194546992Y-128990443D01*
X194749267Y-128855287D01*
X194921287Y-128683267D01*
X195056443Y-128480992D01*
X195149540Y-128256236D01*
X195197000Y-128017637D01*
X195197000Y-127774363D01*
X202727000Y-127774363D01*
X202727000Y-128017637D01*
X202774460Y-128256236D01*
X202867557Y-128480992D01*
X203002713Y-128683267D01*
X203174733Y-128855287D01*
X203377008Y-128990443D01*
X203601764Y-129083540D01*
X203840363Y-129131000D01*
X204083637Y-129131000D01*
X204322236Y-129083540D01*
X204546992Y-128990443D01*
X204749267Y-128855287D01*
X204921287Y-128683267D01*
X205056443Y-128480992D01*
X205149540Y-128256236D01*
X205197000Y-128017637D01*
X205197000Y-127774363D01*
X218555000Y-127774363D01*
X218555000Y-128017637D01*
X218602460Y-128256236D01*
X218695557Y-128480992D01*
X218830713Y-128683267D01*
X219002733Y-128855287D01*
X219205008Y-128990443D01*
X219429764Y-129083540D01*
X219668363Y-129131000D01*
X219911637Y-129131000D01*
X220150236Y-129083540D01*
X220374992Y-128990443D01*
X220577267Y-128855287D01*
X220749287Y-128683267D01*
X220884443Y-128480992D01*
X220977540Y-128256236D01*
X221025000Y-128017637D01*
X221025000Y-127774363D01*
X228555000Y-127774363D01*
X228555000Y-128017637D01*
X228602460Y-128256236D01*
X228695557Y-128480992D01*
X228830713Y-128683267D01*
X229002733Y-128855287D01*
X229205008Y-128990443D01*
X229429764Y-129083540D01*
X229668363Y-129131000D01*
X229911637Y-129131000D01*
X230150236Y-129083540D01*
X230374992Y-128990443D01*
X230577267Y-128855287D01*
X230749287Y-128683267D01*
X230884443Y-128480992D01*
X230977540Y-128256236D01*
X231025000Y-128017637D01*
X231025000Y-127774363D01*
X230977540Y-127535764D01*
X230884443Y-127311008D01*
X230749287Y-127108733D01*
X230577267Y-126936713D01*
X230374992Y-126801557D01*
X230150236Y-126708460D01*
X229911637Y-126661000D01*
X229668363Y-126661000D01*
X229429764Y-126708460D01*
X229205008Y-126801557D01*
X229002733Y-126936713D01*
X228830713Y-127108733D01*
X228695557Y-127311008D01*
X228602460Y-127535764D01*
X228555000Y-127774363D01*
X221025000Y-127774363D01*
X220977540Y-127535764D01*
X220884443Y-127311008D01*
X220749287Y-127108733D01*
X220577267Y-126936713D01*
X220374992Y-126801557D01*
X220150236Y-126708460D01*
X219911637Y-126661000D01*
X219668363Y-126661000D01*
X219429764Y-126708460D01*
X219205008Y-126801557D01*
X219002733Y-126936713D01*
X218830713Y-127108733D01*
X218695557Y-127311008D01*
X218602460Y-127535764D01*
X218555000Y-127774363D01*
X205197000Y-127774363D01*
X205149540Y-127535764D01*
X205056443Y-127311008D01*
X204921287Y-127108733D01*
X204749267Y-126936713D01*
X204546992Y-126801557D01*
X204322236Y-126708460D01*
X204083637Y-126661000D01*
X203840363Y-126661000D01*
X203601764Y-126708460D01*
X203377008Y-126801557D01*
X203174733Y-126936713D01*
X203002713Y-127108733D01*
X202867557Y-127311008D01*
X202774460Y-127535764D01*
X202727000Y-127774363D01*
X195197000Y-127774363D01*
X195149540Y-127535764D01*
X195056443Y-127311008D01*
X194921287Y-127108733D01*
X194749267Y-126936713D01*
X194546992Y-126801557D01*
X194322236Y-126708460D01*
X194083637Y-126661000D01*
X193840363Y-126661000D01*
X193601764Y-126708460D01*
X193377008Y-126801557D01*
X193174733Y-126936713D01*
X193002713Y-127108733D01*
X192867557Y-127311008D01*
X192774460Y-127535764D01*
X192727000Y-127774363D01*
X188353000Y-127774363D01*
X188305540Y-127535764D01*
X188212443Y-127311008D01*
X188077287Y-127108733D01*
X187905267Y-126936713D01*
X187702992Y-126801557D01*
X187478236Y-126708460D01*
X187239637Y-126661000D01*
X186996363Y-126661000D01*
X186757764Y-126708460D01*
X186533008Y-126801557D01*
X186330733Y-126936713D01*
X186158713Y-127108733D01*
X186023557Y-127311008D01*
X185930460Y-127535764D01*
X185883000Y-127774363D01*
X178353000Y-127774363D01*
X178305540Y-127535764D01*
X178212443Y-127311008D01*
X178077287Y-127108733D01*
X177905267Y-126936713D01*
X177702992Y-126801557D01*
X177478236Y-126708460D01*
X177239637Y-126661000D01*
X176996363Y-126661000D01*
X176757764Y-126708460D01*
X176533008Y-126801557D01*
X176330733Y-126936713D01*
X176158713Y-127108733D01*
X176023557Y-127311008D01*
X175930460Y-127535764D01*
X175883000Y-127774363D01*
X163969000Y-127774363D01*
X163921540Y-127535764D01*
X163828443Y-127311008D01*
X163693287Y-127108733D01*
X163521267Y-126936713D01*
X163318992Y-126801557D01*
X163094236Y-126708460D01*
X162855637Y-126661000D01*
X162612363Y-126661000D01*
X162373764Y-126708460D01*
X162149008Y-126801557D01*
X161946733Y-126936713D01*
X161774713Y-127108733D01*
X161639557Y-127311008D01*
X161546460Y-127535764D01*
X161499000Y-127774363D01*
X153969000Y-127774363D01*
X153921540Y-127535764D01*
X153828443Y-127311008D01*
X153693287Y-127108733D01*
X153521267Y-126936713D01*
X153318992Y-126801557D01*
X153094236Y-126708460D01*
X152855637Y-126661000D01*
X152612363Y-126661000D01*
X152373764Y-126708460D01*
X152149008Y-126801557D01*
X151946733Y-126936713D01*
X151774713Y-127108733D01*
X151639557Y-127311008D01*
X151546460Y-127535764D01*
X151499000Y-127774363D01*
X148729000Y-127774363D01*
X148681540Y-127535764D01*
X148588443Y-127311008D01*
X148453287Y-127108733D01*
X148281267Y-126936713D01*
X148078992Y-126801557D01*
X147854236Y-126708460D01*
X147615637Y-126661000D01*
X147372363Y-126661000D01*
X147133764Y-126708460D01*
X146909008Y-126801557D01*
X146706733Y-126936713D01*
X146534713Y-127108733D01*
X146399557Y-127311008D01*
X146306460Y-127535764D01*
X146259000Y-127774363D01*
X138729000Y-127774363D01*
X138681540Y-127535764D01*
X138588443Y-127311008D01*
X138453287Y-127108733D01*
X138281267Y-126936713D01*
X138078992Y-126801557D01*
X137854236Y-126708460D01*
X137615637Y-126661000D01*
X137372363Y-126661000D01*
X137133764Y-126708460D01*
X136909008Y-126801557D01*
X136706733Y-126936713D01*
X136534713Y-127108733D01*
X136399557Y-127311008D01*
X136306460Y-127535764D01*
X136259000Y-127774363D01*
X133235000Y-127774363D01*
X133187540Y-127535764D01*
X133094443Y-127311008D01*
X132959287Y-127108733D01*
X132787267Y-126936713D01*
X132584992Y-126801557D01*
X132360236Y-126708460D01*
X132121637Y-126661000D01*
X131878363Y-126661000D01*
X131639764Y-126708460D01*
X131415008Y-126801557D01*
X131212733Y-126936713D01*
X131040713Y-127108733D01*
X130905557Y-127311008D01*
X130812460Y-127535764D01*
X130765000Y-127774363D01*
X123235000Y-127774363D01*
X123187540Y-127535764D01*
X123094443Y-127311008D01*
X122959287Y-127108733D01*
X122787267Y-126936713D01*
X122584992Y-126801557D01*
X122360236Y-126708460D01*
X122121637Y-126661000D01*
X121878363Y-126661000D01*
X121639764Y-126708460D01*
X121415008Y-126801557D01*
X121212733Y-126936713D01*
X121040713Y-127108733D01*
X120905557Y-127311008D01*
X120812460Y-127535764D01*
X120765000Y-127774363D01*
X104533001Y-127774363D01*
X104533001Y-125274363D01*
X120765000Y-125274363D01*
X120765000Y-125517637D01*
X120812460Y-125756236D01*
X120905557Y-125980992D01*
X121040713Y-126183267D01*
X121212733Y-126355287D01*
X121415008Y-126490443D01*
X121639764Y-126583540D01*
X121878363Y-126631000D01*
X122121637Y-126631000D01*
X122360236Y-126583540D01*
X122584992Y-126490443D01*
X122787267Y-126355287D01*
X122959287Y-126183267D01*
X123094443Y-125980992D01*
X123187540Y-125756236D01*
X123235000Y-125517637D01*
X123235000Y-125274363D01*
X123187540Y-125035764D01*
X123094443Y-124811008D01*
X122959287Y-124608733D01*
X122846554Y-124496000D01*
X125111928Y-124496000D01*
X125111928Y-126296000D01*
X125124188Y-126420482D01*
X125160498Y-126540180D01*
X125219463Y-126650494D01*
X125298815Y-126747185D01*
X125395506Y-126826537D01*
X125505820Y-126885502D01*
X125625518Y-126921812D01*
X125750000Y-126934072D01*
X128250000Y-126934072D01*
X128374482Y-126921812D01*
X128494180Y-126885502D01*
X128604494Y-126826537D01*
X128701185Y-126747185D01*
X128780537Y-126650494D01*
X128839502Y-126540180D01*
X128875812Y-126420482D01*
X128888072Y-126296000D01*
X128888072Y-125274363D01*
X130765000Y-125274363D01*
X130765000Y-125517637D01*
X130812460Y-125756236D01*
X130905557Y-125980992D01*
X131040713Y-126183267D01*
X131212733Y-126355287D01*
X131415008Y-126490443D01*
X131639764Y-126583540D01*
X131878363Y-126631000D01*
X132121637Y-126631000D01*
X132360236Y-126583540D01*
X132584992Y-126490443D01*
X132787267Y-126355287D01*
X132959287Y-126183267D01*
X133094443Y-125980992D01*
X133187540Y-125756236D01*
X133235000Y-125517637D01*
X133235000Y-125274363D01*
X136259000Y-125274363D01*
X136259000Y-125517637D01*
X136306460Y-125756236D01*
X136399557Y-125980992D01*
X136534713Y-126183267D01*
X136706733Y-126355287D01*
X136909008Y-126490443D01*
X137133764Y-126583540D01*
X137372363Y-126631000D01*
X137615637Y-126631000D01*
X137854236Y-126583540D01*
X138078992Y-126490443D01*
X138281267Y-126355287D01*
X138453287Y-126183267D01*
X138588443Y-125980992D01*
X138681540Y-125756236D01*
X138729000Y-125517637D01*
X138729000Y-125274363D01*
X138681540Y-125035764D01*
X138588443Y-124811008D01*
X138453287Y-124608733D01*
X138340554Y-124496000D01*
X140605928Y-124496000D01*
X140605928Y-126296000D01*
X140618188Y-126420482D01*
X140654498Y-126540180D01*
X140713463Y-126650494D01*
X140792815Y-126747185D01*
X140889506Y-126826537D01*
X140999820Y-126885502D01*
X141119518Y-126921812D01*
X141244000Y-126934072D01*
X143744000Y-126934072D01*
X143868482Y-126921812D01*
X143988180Y-126885502D01*
X144098494Y-126826537D01*
X144195185Y-126747185D01*
X144274537Y-126650494D01*
X144333502Y-126540180D01*
X144369812Y-126420482D01*
X144382072Y-126296000D01*
X144382072Y-125274363D01*
X146259000Y-125274363D01*
X146259000Y-125517637D01*
X146306460Y-125756236D01*
X146399557Y-125980992D01*
X146534713Y-126183267D01*
X146706733Y-126355287D01*
X146909008Y-126490443D01*
X147133764Y-126583540D01*
X147372363Y-126631000D01*
X147615637Y-126631000D01*
X147854236Y-126583540D01*
X148078992Y-126490443D01*
X148281267Y-126355287D01*
X148453287Y-126183267D01*
X148588443Y-125980992D01*
X148681540Y-125756236D01*
X148729000Y-125517637D01*
X148729000Y-125274363D01*
X151499000Y-125274363D01*
X151499000Y-125517637D01*
X151546460Y-125756236D01*
X151639557Y-125980992D01*
X151774713Y-126183267D01*
X151946733Y-126355287D01*
X152149008Y-126490443D01*
X152373764Y-126583540D01*
X152612363Y-126631000D01*
X152855637Y-126631000D01*
X153094236Y-126583540D01*
X153318992Y-126490443D01*
X153521267Y-126355287D01*
X153693287Y-126183267D01*
X153828443Y-125980992D01*
X153921540Y-125756236D01*
X153969000Y-125517637D01*
X153969000Y-125274363D01*
X153921540Y-125035764D01*
X153828443Y-124811008D01*
X153693287Y-124608733D01*
X153580554Y-124496000D01*
X155845928Y-124496000D01*
X155845928Y-126296000D01*
X155858188Y-126420482D01*
X155894498Y-126540180D01*
X155953463Y-126650494D01*
X156032815Y-126747185D01*
X156129506Y-126826537D01*
X156239820Y-126885502D01*
X156359518Y-126921812D01*
X156484000Y-126934072D01*
X158984000Y-126934072D01*
X159108482Y-126921812D01*
X159228180Y-126885502D01*
X159338494Y-126826537D01*
X159435185Y-126747185D01*
X159514537Y-126650494D01*
X159573502Y-126540180D01*
X159609812Y-126420482D01*
X159622072Y-126296000D01*
X159622072Y-125274363D01*
X161499000Y-125274363D01*
X161499000Y-125517637D01*
X161546460Y-125756236D01*
X161639557Y-125980992D01*
X161774713Y-126183267D01*
X161946733Y-126355287D01*
X162149008Y-126490443D01*
X162373764Y-126583540D01*
X162612363Y-126631000D01*
X162855637Y-126631000D01*
X163094236Y-126583540D01*
X163318992Y-126490443D01*
X163521267Y-126355287D01*
X163693287Y-126183267D01*
X163828443Y-125980992D01*
X163921540Y-125756236D01*
X163969000Y-125517637D01*
X163969000Y-125274363D01*
X175883000Y-125274363D01*
X175883000Y-125517637D01*
X175930460Y-125756236D01*
X176023557Y-125980992D01*
X176158713Y-126183267D01*
X176330733Y-126355287D01*
X176533008Y-126490443D01*
X176757764Y-126583540D01*
X176996363Y-126631000D01*
X177239637Y-126631000D01*
X177478236Y-126583540D01*
X177702992Y-126490443D01*
X177905267Y-126355287D01*
X177964554Y-126296000D01*
X180229928Y-126296000D01*
X180242188Y-126420482D01*
X180278498Y-126540180D01*
X180337463Y-126650494D01*
X180416815Y-126747185D01*
X180513506Y-126826537D01*
X180623820Y-126885502D01*
X180743518Y-126921812D01*
X180868000Y-126934072D01*
X181832250Y-126931000D01*
X181991000Y-126772250D01*
X181991000Y-125523000D01*
X182245000Y-125523000D01*
X182245000Y-126772250D01*
X182403750Y-126931000D01*
X183368000Y-126934072D01*
X183492482Y-126921812D01*
X183612180Y-126885502D01*
X183722494Y-126826537D01*
X183819185Y-126747185D01*
X183898537Y-126650494D01*
X183957502Y-126540180D01*
X183993812Y-126420482D01*
X184006072Y-126296000D01*
X184003000Y-125681750D01*
X183844250Y-125523000D01*
X182245000Y-125523000D01*
X181991000Y-125523000D01*
X180391750Y-125523000D01*
X180233000Y-125681750D01*
X180229928Y-126296000D01*
X177964554Y-126296000D01*
X178077287Y-126183267D01*
X178212443Y-125980992D01*
X178305540Y-125756236D01*
X178353000Y-125517637D01*
X178353000Y-125274363D01*
X185883000Y-125274363D01*
X185883000Y-125517637D01*
X185930460Y-125756236D01*
X186023557Y-125980992D01*
X186158713Y-126183267D01*
X186330733Y-126355287D01*
X186533008Y-126490443D01*
X186757764Y-126583540D01*
X186996363Y-126631000D01*
X187239637Y-126631000D01*
X187478236Y-126583540D01*
X187702992Y-126490443D01*
X187905267Y-126355287D01*
X188077287Y-126183267D01*
X188212443Y-125980992D01*
X188305540Y-125756236D01*
X188353000Y-125517637D01*
X188353000Y-125274363D01*
X192727000Y-125274363D01*
X192727000Y-125517637D01*
X192774460Y-125756236D01*
X192867557Y-125980992D01*
X193002713Y-126183267D01*
X193174733Y-126355287D01*
X193377008Y-126490443D01*
X193601764Y-126583540D01*
X193840363Y-126631000D01*
X194083637Y-126631000D01*
X194322236Y-126583540D01*
X194546992Y-126490443D01*
X194749267Y-126355287D01*
X194808554Y-126296000D01*
X197073928Y-126296000D01*
X197086188Y-126420482D01*
X197122498Y-126540180D01*
X197181463Y-126650494D01*
X197260815Y-126747185D01*
X197357506Y-126826537D01*
X197467820Y-126885502D01*
X197587518Y-126921812D01*
X197712000Y-126934072D01*
X198676250Y-126931000D01*
X198835000Y-126772250D01*
X198835000Y-125523000D01*
X199089000Y-125523000D01*
X199089000Y-126772250D01*
X199247750Y-126931000D01*
X200212000Y-126934072D01*
X200336482Y-126921812D01*
X200456180Y-126885502D01*
X200566494Y-126826537D01*
X200663185Y-126747185D01*
X200742537Y-126650494D01*
X200801502Y-126540180D01*
X200837812Y-126420482D01*
X200850072Y-126296000D01*
X200847000Y-125681750D01*
X200688250Y-125523000D01*
X199089000Y-125523000D01*
X198835000Y-125523000D01*
X197235750Y-125523000D01*
X197077000Y-125681750D01*
X197073928Y-126296000D01*
X194808554Y-126296000D01*
X194921287Y-126183267D01*
X195056443Y-125980992D01*
X195149540Y-125756236D01*
X195197000Y-125517637D01*
X195197000Y-125274363D01*
X202727000Y-125274363D01*
X202727000Y-125517637D01*
X202774460Y-125756236D01*
X202867557Y-125980992D01*
X203002713Y-126183267D01*
X203174733Y-126355287D01*
X203377008Y-126490443D01*
X203601764Y-126583540D01*
X203840363Y-126631000D01*
X204083637Y-126631000D01*
X204322236Y-126583540D01*
X204546992Y-126490443D01*
X204749267Y-126355287D01*
X204921287Y-126183267D01*
X205056443Y-125980992D01*
X205149540Y-125756236D01*
X205197000Y-125517637D01*
X205197000Y-125274363D01*
X218555000Y-125274363D01*
X218555000Y-125517637D01*
X218602460Y-125756236D01*
X218695557Y-125980992D01*
X218830713Y-126183267D01*
X219002733Y-126355287D01*
X219205008Y-126490443D01*
X219429764Y-126583540D01*
X219668363Y-126631000D01*
X219911637Y-126631000D01*
X220150236Y-126583540D01*
X220374992Y-126490443D01*
X220577267Y-126355287D01*
X220749287Y-126183267D01*
X220884443Y-125980992D01*
X220977540Y-125756236D01*
X221025000Y-125517637D01*
X221025000Y-125274363D01*
X220977540Y-125035764D01*
X220884443Y-124811008D01*
X220749287Y-124608733D01*
X220636554Y-124496000D01*
X222901928Y-124496000D01*
X222901928Y-126296000D01*
X222914188Y-126420482D01*
X222950498Y-126540180D01*
X223009463Y-126650494D01*
X223088815Y-126747185D01*
X223185506Y-126826537D01*
X223295820Y-126885502D01*
X223415518Y-126921812D01*
X223540000Y-126934072D01*
X226040000Y-126934072D01*
X226164482Y-126921812D01*
X226284180Y-126885502D01*
X226394494Y-126826537D01*
X226491185Y-126747185D01*
X226570537Y-126650494D01*
X226629502Y-126540180D01*
X226665812Y-126420482D01*
X226678072Y-126296000D01*
X226678072Y-125274363D01*
X228555000Y-125274363D01*
X228555000Y-125517637D01*
X228602460Y-125756236D01*
X228695557Y-125980992D01*
X228830713Y-126183267D01*
X229002733Y-126355287D01*
X229205008Y-126490443D01*
X229429764Y-126583540D01*
X229668363Y-126631000D01*
X229911637Y-126631000D01*
X230150236Y-126583540D01*
X230374992Y-126490443D01*
X230577267Y-126355287D01*
X230749287Y-126183267D01*
X230884443Y-125980992D01*
X230977540Y-125756236D01*
X231025000Y-125517637D01*
X231025000Y-125274363D01*
X230977540Y-125035764D01*
X230884443Y-124811008D01*
X230749287Y-124608733D01*
X230577267Y-124436713D01*
X230374992Y-124301557D01*
X230150236Y-124208460D01*
X229911637Y-124161000D01*
X229668363Y-124161000D01*
X229429764Y-124208460D01*
X229205008Y-124301557D01*
X229002733Y-124436713D01*
X228830713Y-124608733D01*
X228695557Y-124811008D01*
X228602460Y-125035764D01*
X228555000Y-125274363D01*
X226678072Y-125274363D01*
X226678072Y-124496000D01*
X226665812Y-124371518D01*
X226629502Y-124251820D01*
X226570537Y-124141506D01*
X226491185Y-124044815D01*
X226394494Y-123965463D01*
X226284180Y-123906498D01*
X226164482Y-123870188D01*
X226040000Y-123857928D01*
X223540000Y-123857928D01*
X223415518Y-123870188D01*
X223295820Y-123906498D01*
X223185506Y-123965463D01*
X223088815Y-124044815D01*
X223009463Y-124141506D01*
X222950498Y-124251820D01*
X222914188Y-124371518D01*
X222901928Y-124496000D01*
X220636554Y-124496000D01*
X220577267Y-124436713D01*
X220374992Y-124301557D01*
X220150236Y-124208460D01*
X219911637Y-124161000D01*
X219668363Y-124161000D01*
X219429764Y-124208460D01*
X219205008Y-124301557D01*
X219002733Y-124436713D01*
X218830713Y-124608733D01*
X218695557Y-124811008D01*
X218602460Y-125035764D01*
X218555000Y-125274363D01*
X205197000Y-125274363D01*
X205149540Y-125035764D01*
X205056443Y-124811008D01*
X204921287Y-124608733D01*
X204749267Y-124436713D01*
X204546992Y-124301557D01*
X204322236Y-124208460D01*
X204083637Y-124161000D01*
X203840363Y-124161000D01*
X203601764Y-124208460D01*
X203377008Y-124301557D01*
X203174733Y-124436713D01*
X203002713Y-124608733D01*
X202867557Y-124811008D01*
X202774460Y-125035764D01*
X202727000Y-125274363D01*
X195197000Y-125274363D01*
X195149540Y-125035764D01*
X195056443Y-124811008D01*
X194921287Y-124608733D01*
X194808554Y-124496000D01*
X197073928Y-124496000D01*
X197077000Y-125110250D01*
X197235750Y-125269000D01*
X198835000Y-125269000D01*
X198835000Y-124019750D01*
X199089000Y-124019750D01*
X199089000Y-125269000D01*
X200688250Y-125269000D01*
X200847000Y-125110250D01*
X200850072Y-124496000D01*
X200837812Y-124371518D01*
X200801502Y-124251820D01*
X200742537Y-124141506D01*
X200663185Y-124044815D01*
X200566494Y-123965463D01*
X200456180Y-123906498D01*
X200336482Y-123870188D01*
X200212000Y-123857928D01*
X199247750Y-123861000D01*
X199089000Y-124019750D01*
X198835000Y-124019750D01*
X198676250Y-123861000D01*
X197712000Y-123857928D01*
X197587518Y-123870188D01*
X197467820Y-123906498D01*
X197357506Y-123965463D01*
X197260815Y-124044815D01*
X197181463Y-124141506D01*
X197122498Y-124251820D01*
X197086188Y-124371518D01*
X197073928Y-124496000D01*
X194808554Y-124496000D01*
X194749267Y-124436713D01*
X194546992Y-124301557D01*
X194322236Y-124208460D01*
X194083637Y-124161000D01*
X193840363Y-124161000D01*
X193601764Y-124208460D01*
X193377008Y-124301557D01*
X193174733Y-124436713D01*
X193002713Y-124608733D01*
X192867557Y-124811008D01*
X192774460Y-125035764D01*
X192727000Y-125274363D01*
X188353000Y-125274363D01*
X188305540Y-125035764D01*
X188212443Y-124811008D01*
X188077287Y-124608733D01*
X187905267Y-124436713D01*
X187702992Y-124301557D01*
X187478236Y-124208460D01*
X187239637Y-124161000D01*
X186996363Y-124161000D01*
X186757764Y-124208460D01*
X186533008Y-124301557D01*
X186330733Y-124436713D01*
X186158713Y-124608733D01*
X186023557Y-124811008D01*
X185930460Y-125035764D01*
X185883000Y-125274363D01*
X178353000Y-125274363D01*
X178305540Y-125035764D01*
X178212443Y-124811008D01*
X178077287Y-124608733D01*
X177964554Y-124496000D01*
X180229928Y-124496000D01*
X180233000Y-125110250D01*
X180391750Y-125269000D01*
X181991000Y-125269000D01*
X181991000Y-124019750D01*
X182245000Y-124019750D01*
X182245000Y-125269000D01*
X183844250Y-125269000D01*
X184003000Y-125110250D01*
X184006072Y-124496000D01*
X183993812Y-124371518D01*
X183957502Y-124251820D01*
X183898537Y-124141506D01*
X183819185Y-124044815D01*
X183722494Y-123965463D01*
X183612180Y-123906498D01*
X183492482Y-123870188D01*
X183368000Y-123857928D01*
X182403750Y-123861000D01*
X182245000Y-124019750D01*
X181991000Y-124019750D01*
X181832250Y-123861000D01*
X180868000Y-123857928D01*
X180743518Y-123870188D01*
X180623820Y-123906498D01*
X180513506Y-123965463D01*
X180416815Y-124044815D01*
X180337463Y-124141506D01*
X180278498Y-124251820D01*
X180242188Y-124371518D01*
X180229928Y-124496000D01*
X177964554Y-124496000D01*
X177905267Y-124436713D01*
X177702992Y-124301557D01*
X177478236Y-124208460D01*
X177239637Y-124161000D01*
X176996363Y-124161000D01*
X176757764Y-124208460D01*
X176533008Y-124301557D01*
X176330733Y-124436713D01*
X176158713Y-124608733D01*
X176023557Y-124811008D01*
X175930460Y-125035764D01*
X175883000Y-125274363D01*
X163969000Y-125274363D01*
X163921540Y-125035764D01*
X163828443Y-124811008D01*
X163693287Y-124608733D01*
X163521267Y-124436713D01*
X163318992Y-124301557D01*
X163094236Y-124208460D01*
X162855637Y-124161000D01*
X162612363Y-124161000D01*
X162373764Y-124208460D01*
X162149008Y-124301557D01*
X161946733Y-124436713D01*
X161774713Y-124608733D01*
X161639557Y-124811008D01*
X161546460Y-125035764D01*
X161499000Y-125274363D01*
X159622072Y-125274363D01*
X159622072Y-124496000D01*
X159609812Y-124371518D01*
X159573502Y-124251820D01*
X159514537Y-124141506D01*
X159435185Y-124044815D01*
X159338494Y-123965463D01*
X159228180Y-123906498D01*
X159108482Y-123870188D01*
X158984000Y-123857928D01*
X156484000Y-123857928D01*
X156359518Y-123870188D01*
X156239820Y-123906498D01*
X156129506Y-123965463D01*
X156032815Y-124044815D01*
X155953463Y-124141506D01*
X155894498Y-124251820D01*
X155858188Y-124371518D01*
X155845928Y-124496000D01*
X153580554Y-124496000D01*
X153521267Y-124436713D01*
X153318992Y-124301557D01*
X153094236Y-124208460D01*
X152855637Y-124161000D01*
X152612363Y-124161000D01*
X152373764Y-124208460D01*
X152149008Y-124301557D01*
X151946733Y-124436713D01*
X151774713Y-124608733D01*
X151639557Y-124811008D01*
X151546460Y-125035764D01*
X151499000Y-125274363D01*
X148729000Y-125274363D01*
X148681540Y-125035764D01*
X148588443Y-124811008D01*
X148453287Y-124608733D01*
X148281267Y-124436713D01*
X148078992Y-124301557D01*
X147854236Y-124208460D01*
X147615637Y-124161000D01*
X147372363Y-124161000D01*
X147133764Y-124208460D01*
X146909008Y-124301557D01*
X146706733Y-124436713D01*
X146534713Y-124608733D01*
X146399557Y-124811008D01*
X146306460Y-125035764D01*
X146259000Y-125274363D01*
X144382072Y-125274363D01*
X144382072Y-124496000D01*
X144369812Y-124371518D01*
X144333502Y-124251820D01*
X144274537Y-124141506D01*
X144195185Y-124044815D01*
X144098494Y-123965463D01*
X143988180Y-123906498D01*
X143868482Y-123870188D01*
X143744000Y-123857928D01*
X141244000Y-123857928D01*
X141119518Y-123870188D01*
X140999820Y-123906498D01*
X140889506Y-123965463D01*
X140792815Y-124044815D01*
X140713463Y-124141506D01*
X140654498Y-124251820D01*
X140618188Y-124371518D01*
X140605928Y-124496000D01*
X138340554Y-124496000D01*
X138281267Y-124436713D01*
X138078992Y-124301557D01*
X137854236Y-124208460D01*
X137615637Y-124161000D01*
X137372363Y-124161000D01*
X137133764Y-124208460D01*
X136909008Y-124301557D01*
X136706733Y-124436713D01*
X136534713Y-124608733D01*
X136399557Y-124811008D01*
X136306460Y-125035764D01*
X136259000Y-125274363D01*
X133235000Y-125274363D01*
X133187540Y-125035764D01*
X133094443Y-124811008D01*
X132959287Y-124608733D01*
X132787267Y-124436713D01*
X132584992Y-124301557D01*
X132360236Y-124208460D01*
X132121637Y-124161000D01*
X131878363Y-124161000D01*
X131639764Y-124208460D01*
X131415008Y-124301557D01*
X131212733Y-124436713D01*
X131040713Y-124608733D01*
X130905557Y-124811008D01*
X130812460Y-125035764D01*
X130765000Y-125274363D01*
X128888072Y-125274363D01*
X128888072Y-124496000D01*
X128875812Y-124371518D01*
X128839502Y-124251820D01*
X128780537Y-124141506D01*
X128701185Y-124044815D01*
X128604494Y-123965463D01*
X128494180Y-123906498D01*
X128374482Y-123870188D01*
X128250000Y-123857928D01*
X125750000Y-123857928D01*
X125625518Y-123870188D01*
X125505820Y-123906498D01*
X125395506Y-123965463D01*
X125298815Y-124044815D01*
X125219463Y-124141506D01*
X125160498Y-124251820D01*
X125124188Y-124371518D01*
X125111928Y-124496000D01*
X122846554Y-124496000D01*
X122787267Y-124436713D01*
X122584992Y-124301557D01*
X122360236Y-124208460D01*
X122121637Y-124161000D01*
X121878363Y-124161000D01*
X121639764Y-124208460D01*
X121415008Y-124301557D01*
X121212733Y-124436713D01*
X121040713Y-124608733D01*
X120905557Y-124811008D01*
X120812460Y-125035764D01*
X120765000Y-125274363D01*
X104533001Y-125274363D01*
X104533001Y-123172424D01*
X104536687Y-123135001D01*
X104528639Y-123053289D01*
X104521975Y-122985623D01*
X104478403Y-122841986D01*
X104419066Y-122730974D01*
X104407646Y-122709608D01*
X104336280Y-122622649D01*
X104312423Y-122593579D01*
X104283352Y-122569722D01*
X103943924Y-122230294D01*
X104044494Y-122176537D01*
X104141185Y-122097185D01*
X104220537Y-122000494D01*
X104279502Y-121890180D01*
X104315812Y-121770482D01*
X104328072Y-121646000D01*
X104328072Y-119146000D01*
X104315812Y-119021518D01*
X104279502Y-118901820D01*
X104220537Y-118791506D01*
X104141185Y-118694815D01*
X104044494Y-118615463D01*
X103934180Y-118556498D01*
X103814482Y-118520188D01*
X103690000Y-118507928D01*
X101890000Y-118507928D01*
X101765518Y-118520188D01*
X101645820Y-118556498D01*
X101535506Y-118615463D01*
X101438815Y-118694815D01*
X101359463Y-118791506D01*
X101300498Y-118901820D01*
X101264188Y-119021518D01*
X101251928Y-119146000D01*
X101251928Y-121646000D01*
X101264188Y-121770482D01*
X101300498Y-121890180D01*
X101359463Y-122000494D01*
X101438815Y-122097185D01*
X101535506Y-122176537D01*
X101645820Y-122235502D01*
X101765518Y-122271812D01*
X101890000Y-122284072D01*
X102037125Y-122284072D01*
X102039026Y-122303377D01*
X102082598Y-122447014D01*
X102104510Y-122488009D01*
X102153355Y-122579392D01*
X102183928Y-122616645D01*
X102248578Y-122695422D01*
X102277654Y-122719284D01*
X103009002Y-123450633D01*
X103009002Y-124180367D01*
X102911637Y-124161000D01*
X102668363Y-124161000D01*
X102429764Y-124208460D01*
X102205008Y-124301557D01*
X102002733Y-124436713D01*
X101830713Y-124608733D01*
X101695557Y-124811008D01*
X101602460Y-125035764D01*
X101555000Y-125274363D01*
X101555000Y-125517637D01*
X101602460Y-125756236D01*
X101695557Y-125980992D01*
X101830713Y-126183267D01*
X102002733Y-126355287D01*
X102205008Y-126490443D01*
X102429764Y-126583540D01*
X102668363Y-126631000D01*
X102911637Y-126631000D01*
X103009001Y-126611633D01*
X103009001Y-126680367D01*
X102911637Y-126661000D01*
X102668363Y-126661000D01*
X102429764Y-126708460D01*
X102205008Y-126801557D01*
X102002733Y-126936713D01*
X101830713Y-127108733D01*
X101695557Y-127311008D01*
X101602460Y-127535764D01*
X101555000Y-127774363D01*
X101555000Y-128017637D01*
X101602460Y-128256236D01*
X101695557Y-128480992D01*
X101830713Y-128683267D01*
X102002733Y-128855287D01*
X102205008Y-128990443D01*
X102289013Y-129025239D01*
X101266252Y-130048000D01*
X87322707Y-130048000D01*
X87220637Y-129895241D01*
X87020759Y-129695363D01*
X86785727Y-129538320D01*
X86524574Y-129430147D01*
X86247335Y-129375000D01*
X85964665Y-129375000D01*
X85687426Y-129430147D01*
X85426273Y-129538320D01*
X85191241Y-129695363D01*
X84991363Y-129895241D01*
X84889293Y-130048000D01*
X78054941Y-130048000D01*
X75781304Y-127774363D01*
X91555000Y-127774363D01*
X91555000Y-128017637D01*
X91602460Y-128256236D01*
X91695557Y-128480992D01*
X91830713Y-128683267D01*
X92002733Y-128855287D01*
X92205008Y-128990443D01*
X92429764Y-129083540D01*
X92668363Y-129131000D01*
X92911637Y-129131000D01*
X93150236Y-129083540D01*
X93374992Y-128990443D01*
X93577267Y-128855287D01*
X93749287Y-128683267D01*
X93884443Y-128480992D01*
X93977540Y-128256236D01*
X94025000Y-128017637D01*
X94025000Y-127774363D01*
X93977540Y-127535764D01*
X93884443Y-127311008D01*
X93749287Y-127108733D01*
X93577267Y-126936713D01*
X93374992Y-126801557D01*
X93150236Y-126708460D01*
X92911637Y-126661000D01*
X92668363Y-126661000D01*
X92429764Y-126708460D01*
X92205008Y-126801557D01*
X92002733Y-126936713D01*
X91830713Y-127108733D01*
X91695557Y-127311008D01*
X91602460Y-127535764D01*
X91555000Y-127774363D01*
X75781304Y-127774363D01*
X73281304Y-125274363D01*
X91555000Y-125274363D01*
X91555000Y-125517637D01*
X91602460Y-125756236D01*
X91695557Y-125980992D01*
X91830713Y-126183267D01*
X92002733Y-126355287D01*
X92205008Y-126490443D01*
X92429764Y-126583540D01*
X92668363Y-126631000D01*
X92911637Y-126631000D01*
X93150236Y-126583540D01*
X93374992Y-126490443D01*
X93577267Y-126355287D01*
X93636554Y-126296000D01*
X95901928Y-126296000D01*
X95914188Y-126420482D01*
X95950498Y-126540180D01*
X96009463Y-126650494D01*
X96088815Y-126747185D01*
X96185506Y-126826537D01*
X96295820Y-126885502D01*
X96415518Y-126921812D01*
X96540000Y-126934072D01*
X97504250Y-126931000D01*
X97663000Y-126772250D01*
X97663000Y-125523000D01*
X97917000Y-125523000D01*
X97917000Y-126772250D01*
X98075750Y-126931000D01*
X99040000Y-126934072D01*
X99164482Y-126921812D01*
X99284180Y-126885502D01*
X99394494Y-126826537D01*
X99491185Y-126747185D01*
X99570537Y-126650494D01*
X99629502Y-126540180D01*
X99665812Y-126420482D01*
X99678072Y-126296000D01*
X99675000Y-125681750D01*
X99516250Y-125523000D01*
X97917000Y-125523000D01*
X97663000Y-125523000D01*
X96063750Y-125523000D01*
X95905000Y-125681750D01*
X95901928Y-126296000D01*
X93636554Y-126296000D01*
X93749287Y-126183267D01*
X93884443Y-125980992D01*
X93977540Y-125756236D01*
X94025000Y-125517637D01*
X94025000Y-125274363D01*
X93977540Y-125035764D01*
X93884443Y-124811008D01*
X93749287Y-124608733D01*
X93636554Y-124496000D01*
X95901928Y-124496000D01*
X95905000Y-125110250D01*
X96063750Y-125269000D01*
X97663000Y-125269000D01*
X97663000Y-124019750D01*
X97917000Y-124019750D01*
X97917000Y-125269000D01*
X99516250Y-125269000D01*
X99675000Y-125110250D01*
X99678072Y-124496000D01*
X99665812Y-124371518D01*
X99629502Y-124251820D01*
X99570537Y-124141506D01*
X99491185Y-124044815D01*
X99394494Y-123965463D01*
X99284180Y-123906498D01*
X99164482Y-123870188D01*
X99040000Y-123857928D01*
X98075750Y-123861000D01*
X97917000Y-124019750D01*
X97663000Y-124019750D01*
X97504250Y-123861000D01*
X96540000Y-123857928D01*
X96415518Y-123870188D01*
X96295820Y-123906498D01*
X96185506Y-123965463D01*
X96088815Y-124044815D01*
X96009463Y-124141506D01*
X95950498Y-124251820D01*
X95914188Y-124371518D01*
X95901928Y-124496000D01*
X93636554Y-124496000D01*
X93577267Y-124436713D01*
X93374992Y-124301557D01*
X93150236Y-124208460D01*
X92911637Y-124161000D01*
X92668363Y-124161000D01*
X92429764Y-124208460D01*
X92205008Y-124301557D01*
X92002733Y-124436713D01*
X91830713Y-124608733D01*
X91695557Y-124811008D01*
X91602460Y-125035764D01*
X91555000Y-125274363D01*
X73281304Y-125274363D01*
X68515606Y-120508665D01*
X84671000Y-120508665D01*
X84671000Y-120791335D01*
X84726147Y-121068574D01*
X84834320Y-121329727D01*
X84991363Y-121564759D01*
X85191241Y-121764637D01*
X85426273Y-121921680D01*
X85687426Y-122029853D01*
X85964665Y-122085000D01*
X86247335Y-122085000D01*
X86524574Y-122029853D01*
X86785727Y-121921680D01*
X87020759Y-121764637D01*
X87220637Y-121564759D01*
X87322707Y-121412000D01*
X91251928Y-121412000D01*
X91251928Y-121646000D01*
X91264188Y-121770482D01*
X91300498Y-121890180D01*
X91359463Y-122000494D01*
X91438815Y-122097185D01*
X91535506Y-122176537D01*
X91645820Y-122235502D01*
X91765518Y-122271812D01*
X91890000Y-122284072D01*
X93690000Y-122284072D01*
X93814482Y-122271812D01*
X93934180Y-122235502D01*
X94044494Y-122176537D01*
X94141185Y-122097185D01*
X94220537Y-122000494D01*
X94279502Y-121890180D01*
X94315812Y-121770482D01*
X94328072Y-121646000D01*
X94328072Y-120274363D01*
X96555000Y-120274363D01*
X96555000Y-120517637D01*
X96602460Y-120756236D01*
X96695557Y-120980992D01*
X96830713Y-121183267D01*
X97002733Y-121355287D01*
X97205008Y-121490443D01*
X97429764Y-121583540D01*
X97668363Y-121631000D01*
X97911637Y-121631000D01*
X98150236Y-121583540D01*
X98374992Y-121490443D01*
X98577267Y-121355287D01*
X98749287Y-121183267D01*
X98884443Y-120980992D01*
X98977540Y-120756236D01*
X99025000Y-120517637D01*
X99025000Y-120274363D01*
X98977540Y-120035764D01*
X98884443Y-119811008D01*
X98749287Y-119608733D01*
X98577267Y-119436713D01*
X98374992Y-119301557D01*
X98150236Y-119208460D01*
X97911637Y-119161000D01*
X97668363Y-119161000D01*
X97429764Y-119208460D01*
X97205008Y-119301557D01*
X97002733Y-119436713D01*
X96830713Y-119608733D01*
X96695557Y-119811008D01*
X96602460Y-120035764D01*
X96555000Y-120274363D01*
X94328072Y-120274363D01*
X94328072Y-119146000D01*
X94315812Y-119021518D01*
X94279502Y-118901820D01*
X94220537Y-118791506D01*
X94141185Y-118694815D01*
X94044494Y-118615463D01*
X93934180Y-118556498D01*
X93814482Y-118520188D01*
X93690000Y-118507928D01*
X91890000Y-118507928D01*
X91765518Y-118520188D01*
X91645820Y-118556498D01*
X91535506Y-118615463D01*
X91438815Y-118694815D01*
X91359463Y-118791506D01*
X91300498Y-118901820D01*
X91264188Y-119021518D01*
X91251928Y-119146000D01*
X91251928Y-119888000D01*
X87322707Y-119888000D01*
X87220637Y-119735241D01*
X87020759Y-119535363D01*
X86785727Y-119378320D01*
X86524574Y-119270147D01*
X86247335Y-119215000D01*
X85964665Y-119215000D01*
X85687426Y-119270147D01*
X85426273Y-119378320D01*
X85191241Y-119535363D01*
X84991363Y-119735241D01*
X84834320Y-119970273D01*
X84726147Y-120231426D01*
X84671000Y-120508665D01*
X68515606Y-120508665D01*
X67427147Y-119420207D01*
X67549447Y-119354837D01*
X67622241Y-119109846D01*
X66802000Y-118289605D01*
X66787858Y-118303748D01*
X66608253Y-118124143D01*
X66622395Y-118110000D01*
X66608253Y-118095858D01*
X66787858Y-117916253D01*
X66802000Y-117930395D01*
X67622241Y-117110154D01*
X67549447Y-116865163D01*
X67499803Y-116841636D01*
X67723137Y-116692409D01*
X67924409Y-116491137D01*
X68072000Y-116270252D01*
X68219591Y-116491137D01*
X68420863Y-116692409D01*
X68641748Y-116840000D01*
X68420863Y-116987591D01*
X68219591Y-117188863D01*
X68072035Y-117409696D01*
X68046837Y-117362553D01*
X67801846Y-117289759D01*
X66981605Y-118110000D01*
X67801846Y-118930241D01*
X68046837Y-118857447D01*
X68070364Y-118807803D01*
X68219591Y-119031137D01*
X68420863Y-119232409D01*
X68657533Y-119390547D01*
X68920508Y-119499474D01*
X69199679Y-119555005D01*
X69484321Y-119555005D01*
X69763492Y-119499474D01*
X70026467Y-119390547D01*
X70263137Y-119232409D01*
X70464409Y-119031137D01*
X70622547Y-118794467D01*
X70731474Y-118531492D01*
X70787005Y-118252321D01*
X70787005Y-117967679D01*
X70731474Y-117688508D01*
X70622547Y-117425533D01*
X70464409Y-117188863D01*
X70263137Y-116987591D01*
X70042252Y-116840000D01*
X70263137Y-116692409D01*
X70464409Y-116491137D01*
X70622547Y-116254467D01*
X70731474Y-115991492D01*
X70787005Y-115712321D01*
X70787005Y-115427679D01*
X70731474Y-115148508D01*
X70622547Y-114885533D01*
X70464409Y-114648863D01*
X70263137Y-114447591D01*
X70042252Y-114300000D01*
X70263137Y-114152409D01*
X70464409Y-113951137D01*
X70622547Y-113714467D01*
X70731474Y-113451492D01*
X70787005Y-113172321D01*
X70787005Y-112887679D01*
X70731474Y-112608508D01*
X70622547Y-112345533D01*
X70464409Y-112108863D01*
X70263137Y-111907591D01*
X70042252Y-111760000D01*
X70263137Y-111612409D01*
X70464409Y-111411137D01*
X70622547Y-111174467D01*
X70731474Y-110911492D01*
X70787005Y-110632321D01*
X70787005Y-110347679D01*
X70731474Y-110068508D01*
X70622547Y-109805533D01*
X70464409Y-109568863D01*
X70263137Y-109367591D01*
X70042252Y-109220000D01*
X70263137Y-109072409D01*
X70464409Y-108871137D01*
X70622547Y-108634467D01*
X70731474Y-108371492D01*
X70787005Y-108092321D01*
X70787005Y-107807679D01*
X70731474Y-107528508D01*
X70622547Y-107265533D01*
X70464409Y-107028863D01*
X70263137Y-106827591D01*
X70042252Y-106680000D01*
X70263137Y-106532409D01*
X70464409Y-106331137D01*
X70622547Y-106094467D01*
X70731474Y-105831492D01*
X70787005Y-105552321D01*
X70787005Y-105267679D01*
X70731474Y-104988508D01*
X70622547Y-104725533D01*
X70464409Y-104488863D01*
X70263137Y-104287591D01*
X70042252Y-104140000D01*
X70263137Y-103992409D01*
X70464409Y-103791137D01*
X70622547Y-103554467D01*
X70731474Y-103291492D01*
X70787005Y-103012321D01*
X70787005Y-102727679D01*
X70731474Y-102448508D01*
X70622547Y-102185533D01*
X70464409Y-101948863D01*
X70263137Y-101747591D01*
X70042252Y-101600000D01*
X70263137Y-101452409D01*
X70464409Y-101251137D01*
X70570741Y-101092000D01*
X90324172Y-101092000D01*
X112232533Y-123000362D01*
X112256390Y-123029432D01*
X112372420Y-123124655D01*
X112504797Y-123195412D01*
X112648434Y-123238984D01*
X112760386Y-123250010D01*
X112760388Y-123250010D01*
X112797811Y-123253696D01*
X112835234Y-123250010D01*
X230496369Y-123250010D01*
X230533792Y-123253696D01*
X230571215Y-123250010D01*
X230571218Y-123250010D01*
X230683170Y-123238984D01*
X230826807Y-123195412D01*
X230959184Y-123124655D01*
X231075214Y-123029432D01*
X231099075Y-123000357D01*
X231583352Y-122516081D01*
X231612423Y-122492223D01*
X231707646Y-122376193D01*
X231778403Y-122243816D01*
X231821975Y-122100179D01*
X231833001Y-121988227D01*
X231833001Y-121988225D01*
X231836687Y-121950802D01*
X231833001Y-121913379D01*
X231833001Y-84042424D01*
X231836687Y-84005001D01*
X231827586Y-83912598D01*
X231821975Y-83855623D01*
X231778403Y-83711986D01*
X231721741Y-83605979D01*
X231707646Y-83579608D01*
X231636280Y-83492649D01*
X231612423Y-83463579D01*
X231583354Y-83439723D01*
X227539613Y-79395983D01*
X227719557Y-79371728D01*
X228033527Y-79264069D01*
X228219661Y-79164579D01*
X228321461Y-78895066D01*
X227330000Y-77903605D01*
X227315858Y-77917748D01*
X227136253Y-77738143D01*
X227150395Y-77724000D01*
X227509605Y-77724000D01*
X228501066Y-78715461D01*
X228770579Y-78613661D01*
X228916463Y-78315523D01*
X229001380Y-77994654D01*
X229022066Y-77663383D01*
X228977728Y-77334443D01*
X228870069Y-77020473D01*
X228770579Y-76834339D01*
X228501066Y-76732539D01*
X227509605Y-77724000D01*
X227150395Y-77724000D01*
X226158934Y-76732539D01*
X226155042Y-76734009D01*
X226098825Y-76649875D01*
X226012290Y-76563340D01*
X226022696Y-76552934D01*
X226338539Y-76552934D01*
X227330000Y-77544395D01*
X228321461Y-76552934D01*
X228219661Y-76283421D01*
X227921523Y-76137537D01*
X227600654Y-76052620D01*
X227269383Y-76031934D01*
X226940443Y-76076272D01*
X226626473Y-76183931D01*
X226440339Y-76283421D01*
X226338539Y-76552934D01*
X226022696Y-76552934D01*
X228786474Y-73789157D01*
X228966665Y-73825000D01*
X229249335Y-73825000D01*
X229526574Y-73769853D01*
X229787727Y-73661680D01*
X230022759Y-73504637D01*
X230222637Y-73304759D01*
X230379680Y-73069727D01*
X230487853Y-72808574D01*
X230543000Y-72531335D01*
X230543000Y-72248665D01*
X230487853Y-71971426D01*
X230379680Y-71710273D01*
X230222637Y-71475241D01*
X230022759Y-71275363D01*
X229787727Y-71118320D01*
X229526574Y-71010147D01*
X229249335Y-70955000D01*
X228966665Y-70955000D01*
X228689426Y-71010147D01*
X228428273Y-71118320D01*
X228193241Y-71275363D01*
X227993363Y-71475241D01*
X227836320Y-71710273D01*
X227728147Y-71971426D01*
X227673000Y-72248665D01*
X227673000Y-72531335D01*
X227708843Y-72711526D01*
X224321113Y-76099257D01*
X224298504Y-76103754D01*
X223991853Y-76230772D01*
X223715875Y-76415175D01*
X223520000Y-76611050D01*
X223324125Y-76415175D01*
X223048147Y-76230772D01*
X222741496Y-76103754D01*
X222415958Y-76039000D01*
X222084042Y-76039000D01*
X221758504Y-76103754D01*
X221722357Y-76118726D01*
X219710000Y-74106370D01*
X219710000Y-73606707D01*
X219862759Y-73504637D01*
X220062637Y-73304759D01*
X220219680Y-73069727D01*
X220327853Y-72808574D01*
X220383000Y-72531335D01*
X220383000Y-72248665D01*
X220327853Y-71971426D01*
X220219680Y-71710273D01*
X220062637Y-71475241D01*
X219862759Y-71275363D01*
X219627727Y-71118320D01*
X219366574Y-71010147D01*
X219089335Y-70955000D01*
X218806665Y-70955000D01*
X218529426Y-71010147D01*
X218268273Y-71118320D01*
X218033241Y-71275363D01*
X217833363Y-71475241D01*
X217676320Y-71710273D01*
X217568147Y-71971426D01*
X217513000Y-72248665D01*
X217513000Y-72427999D01*
X200505629Y-72427999D01*
X191573284Y-63495654D01*
X191549422Y-63466578D01*
X191433392Y-63371355D01*
X191301015Y-63300598D01*
X191157378Y-63257026D01*
X191045426Y-63246000D01*
X191045423Y-63246000D01*
X191008000Y-63242314D01*
X190970577Y-63246000D01*
X77761423Y-63246000D01*
X77724000Y-63242314D01*
X77686577Y-63246000D01*
X77686574Y-63246000D01*
X77574622Y-63257026D01*
X77430985Y-63300598D01*
X77369364Y-63333535D01*
X77298607Y-63371355D01*
X77256219Y-63406143D01*
X77182578Y-63466578D01*
X77158716Y-63495654D01*
X67132036Y-73522334D01*
X66944321Y-73484995D01*
X66659679Y-73484995D01*
X66380508Y-73540526D01*
X66117533Y-73649453D01*
X65880863Y-73807591D01*
X65679591Y-74008863D01*
X65521453Y-74245533D01*
X65412526Y-74508508D01*
X65356995Y-74787679D01*
X65356995Y-75072321D01*
X65412526Y-75351492D01*
X65521453Y-75614467D01*
X65679591Y-75851137D01*
X65880863Y-76052409D01*
X66101748Y-76200000D01*
X65880863Y-76347591D01*
X65679591Y-76548863D01*
X65521453Y-76785533D01*
X65412526Y-77048508D01*
X65356995Y-77327679D01*
X65356995Y-77612321D01*
X65412526Y-77891492D01*
X65521453Y-78154467D01*
X65679591Y-78391137D01*
X65880863Y-78592409D01*
X66101748Y-78740000D01*
X65880863Y-78887591D01*
X65679591Y-79088863D01*
X65521453Y-79325533D01*
X65412526Y-79588508D01*
X65356995Y-79867679D01*
X65356995Y-80152321D01*
X65412526Y-80431492D01*
X65521453Y-80694467D01*
X65679591Y-80931137D01*
X65880863Y-81132409D01*
X66101748Y-81280000D01*
X65880863Y-81427591D01*
X65679591Y-81628863D01*
X65521453Y-81865533D01*
X65412526Y-82128508D01*
X65356995Y-82407679D01*
X65356995Y-82692321D01*
X65412526Y-82971492D01*
X65521453Y-83234467D01*
X65679591Y-83471137D01*
X65880863Y-83672409D01*
X66101748Y-83820000D01*
X65880863Y-83967591D01*
X65679591Y-84168863D01*
X65521453Y-84405533D01*
X65412526Y-84668508D01*
X65356995Y-84947679D01*
X65356995Y-85232321D01*
X65412526Y-85511492D01*
X65521453Y-85774467D01*
X65679591Y-86011137D01*
X65880863Y-86212409D01*
X66101748Y-86360000D01*
X65880863Y-86507591D01*
X65679591Y-86708863D01*
X65521453Y-86945533D01*
X65412526Y-87208508D01*
X65356995Y-87487679D01*
X65356995Y-87772321D01*
X65412526Y-88051492D01*
X65521453Y-88314467D01*
X65679591Y-88551137D01*
X65880863Y-88752409D01*
X66101748Y-88900000D01*
X65880863Y-89047591D01*
X65679591Y-89248863D01*
X65521453Y-89485533D01*
X65412526Y-89748508D01*
X65356995Y-90027679D01*
X65356995Y-90312321D01*
X65412526Y-90591492D01*
X65521453Y-90854467D01*
X65679591Y-91091137D01*
X65880863Y-91292409D01*
X66101748Y-91440000D01*
X65880863Y-91587591D01*
X65679591Y-91788863D01*
X65521453Y-92025533D01*
X65412526Y-92288508D01*
X65356995Y-92567679D01*
X65356995Y-92852321D01*
X65412526Y-93131492D01*
X65521453Y-93394467D01*
X65679591Y-93631137D01*
X65880863Y-93832409D01*
X66101748Y-93980000D01*
X65880863Y-94127591D01*
X65679591Y-94328863D01*
X65521453Y-94565533D01*
X65412526Y-94828508D01*
X65356995Y-95107679D01*
X65356995Y-95392321D01*
X65412526Y-95671492D01*
X65521453Y-95934467D01*
X65679591Y-96171137D01*
X65880863Y-96372409D01*
X66101748Y-96520000D01*
X65880863Y-96667591D01*
X65679591Y-96868863D01*
X65570033Y-97032828D01*
X65507102Y-97039026D01*
X65363465Y-97082598D01*
X65231088Y-97153355D01*
X65115058Y-97248578D01*
X65094555Y-97273561D01*
X65069572Y-97294064D01*
X65037539Y-97333097D01*
X64974349Y-97410094D01*
X64936529Y-97480851D01*
X64903592Y-97542472D01*
X64860020Y-97686109D01*
X64848994Y-97798060D01*
X64845308Y-97835486D01*
X64286846Y-97835486D01*
X64411727Y-61620000D01*
X233271721Y-61620000D01*
X233022273Y-133960000D01*
G37*
X233022273Y-133960000D02*
X64162279Y-133960000D01*
X64286846Y-97835486D01*
X64845308Y-97835486D01*
X64848994Y-97872909D01*
X64848995Y-118644251D01*
X64845308Y-118681684D01*
X64860021Y-118831062D01*
X64903593Y-118974699D01*
X64974349Y-119107076D01*
X65045715Y-119194035D01*
X65069573Y-119223106D01*
X65098643Y-119246963D01*
X77174031Y-131322352D01*
X77197888Y-131351422D01*
X77226958Y-131375279D01*
X77313917Y-131446645D01*
X77384674Y-131484465D01*
X77446295Y-131517402D01*
X77589932Y-131560974D01*
X77701884Y-131572000D01*
X77701887Y-131572000D01*
X77739310Y-131575686D01*
X77776733Y-131572000D01*
X84889293Y-131572000D01*
X84991363Y-131724759D01*
X85191241Y-131924637D01*
X85426273Y-132081680D01*
X85687426Y-132189853D01*
X85964665Y-132245000D01*
X86247335Y-132245000D01*
X86524574Y-132189853D01*
X86785727Y-132081680D01*
X87020759Y-131924637D01*
X87220637Y-131724759D01*
X87322707Y-131572000D01*
X101544459Y-131572000D01*
X101581882Y-131575686D01*
X101619305Y-131572000D01*
X101619308Y-131572000D01*
X101731260Y-131560974D01*
X101874897Y-131517402D01*
X102007274Y-131446645D01*
X102123304Y-131351422D01*
X102147166Y-131322346D01*
X104283354Y-129186159D01*
X104312423Y-129162303D01*
X104377062Y-129083540D01*
X104407646Y-129046274D01*
X104478402Y-128913897D01*
X104478403Y-128913896D01*
X104521975Y-128770259D01*
X104533001Y-128658307D01*
X104533001Y-128658304D01*
X104536687Y-128620881D01*
X104533001Y-128583458D01*
X104533001Y-127774363D01*
X120765000Y-127774363D01*
X120765000Y-128017637D01*
X120812460Y-128256236D01*
X120905557Y-128480992D01*
X121040713Y-128683267D01*
X121212733Y-128855287D01*
X121415008Y-128990443D01*
X121639764Y-129083540D01*
X121878363Y-129131000D01*
X122121637Y-129131000D01*
X122360236Y-129083540D01*
X122584992Y-128990443D01*
X122787267Y-128855287D01*
X122959287Y-128683267D01*
X123094443Y-128480992D01*
X123187540Y-128256236D01*
X123235000Y-128017637D01*
X123235000Y-127774363D01*
X130765000Y-127774363D01*
X130765000Y-128017637D01*
X130812460Y-128256236D01*
X130905557Y-128480992D01*
X131040713Y-128683267D01*
X131212733Y-128855287D01*
X131415008Y-128990443D01*
X131639764Y-129083540D01*
X131878363Y-129131000D01*
X132121637Y-129131000D01*
X132360236Y-129083540D01*
X132584992Y-128990443D01*
X132787267Y-128855287D01*
X132959287Y-128683267D01*
X133094443Y-128480992D01*
X133187540Y-128256236D01*
X133235000Y-128017637D01*
X133235000Y-127774363D01*
X136259000Y-127774363D01*
X136259000Y-128017637D01*
X136306460Y-128256236D01*
X136399557Y-128480992D01*
X136534713Y-128683267D01*
X136706733Y-128855287D01*
X136909008Y-128990443D01*
X137133764Y-129083540D01*
X137372363Y-129131000D01*
X137615637Y-129131000D01*
X137854236Y-129083540D01*
X138078992Y-128990443D01*
X138281267Y-128855287D01*
X138453287Y-128683267D01*
X138588443Y-128480992D01*
X138681540Y-128256236D01*
X138729000Y-128017637D01*
X138729000Y-127774363D01*
X146259000Y-127774363D01*
X146259000Y-128017637D01*
X146306460Y-128256236D01*
X146399557Y-128480992D01*
X146534713Y-128683267D01*
X146706733Y-128855287D01*
X146909008Y-128990443D01*
X147133764Y-129083540D01*
X147372363Y-129131000D01*
X147615637Y-129131000D01*
X147854236Y-129083540D01*
X148078992Y-128990443D01*
X148281267Y-128855287D01*
X148453287Y-128683267D01*
X148588443Y-128480992D01*
X148681540Y-128256236D01*
X148729000Y-128017637D01*
X148729000Y-127774363D01*
X151499000Y-127774363D01*
X151499000Y-128017637D01*
X151546460Y-128256236D01*
X151639557Y-128480992D01*
X151774713Y-128683267D01*
X151946733Y-128855287D01*
X152149008Y-128990443D01*
X152373764Y-129083540D01*
X152612363Y-129131000D01*
X152855637Y-129131000D01*
X153094236Y-129083540D01*
X153318992Y-128990443D01*
X153521267Y-128855287D01*
X153693287Y-128683267D01*
X153828443Y-128480992D01*
X153921540Y-128256236D01*
X153969000Y-128017637D01*
X153969000Y-127774363D01*
X161499000Y-127774363D01*
X161499000Y-128017637D01*
X161546460Y-128256236D01*
X161639557Y-128480992D01*
X161774713Y-128683267D01*
X161946733Y-128855287D01*
X162149008Y-128990443D01*
X162373764Y-129083540D01*
X162612363Y-129131000D01*
X162855637Y-129131000D01*
X163094236Y-129083540D01*
X163318992Y-128990443D01*
X163521267Y-128855287D01*
X163693287Y-128683267D01*
X163828443Y-128480992D01*
X163921540Y-128256236D01*
X163969000Y-128017637D01*
X163969000Y-127774363D01*
X175883000Y-127774363D01*
X175883000Y-128017637D01*
X175930460Y-128256236D01*
X176023557Y-128480992D01*
X176158713Y-128683267D01*
X176330733Y-128855287D01*
X176533008Y-128990443D01*
X176757764Y-129083540D01*
X176996363Y-129131000D01*
X177239637Y-129131000D01*
X177478236Y-129083540D01*
X177702992Y-128990443D01*
X177905267Y-128855287D01*
X178077287Y-128683267D01*
X178212443Y-128480992D01*
X178305540Y-128256236D01*
X178353000Y-128017637D01*
X178353000Y-127774363D01*
X185883000Y-127774363D01*
X185883000Y-128017637D01*
X185930460Y-128256236D01*
X186023557Y-128480992D01*
X186158713Y-128683267D01*
X186330733Y-128855287D01*
X186533008Y-128990443D01*
X186757764Y-129083540D01*
X186996363Y-129131000D01*
X187239637Y-129131000D01*
X187478236Y-129083540D01*
X187702992Y-128990443D01*
X187905267Y-128855287D01*
X188077287Y-128683267D01*
X188212443Y-128480992D01*
X188305540Y-128256236D01*
X188353000Y-128017637D01*
X188353000Y-127774363D01*
X192727000Y-127774363D01*
X192727000Y-128017637D01*
X192774460Y-128256236D01*
X192867557Y-128480992D01*
X193002713Y-128683267D01*
X193174733Y-128855287D01*
X193377008Y-128990443D01*
X193601764Y-129083540D01*
X193840363Y-129131000D01*
X194083637Y-129131000D01*
X194322236Y-129083540D01*
X194546992Y-128990443D01*
X194749267Y-128855287D01*
X194921287Y-128683267D01*
X195056443Y-128480992D01*
X195149540Y-128256236D01*
X195197000Y-128017637D01*
X195197000Y-127774363D01*
X202727000Y-127774363D01*
X202727000Y-128017637D01*
X202774460Y-128256236D01*
X202867557Y-128480992D01*
X203002713Y-128683267D01*
X203174733Y-128855287D01*
X203377008Y-128990443D01*
X203601764Y-129083540D01*
X203840363Y-129131000D01*
X204083637Y-129131000D01*
X204322236Y-129083540D01*
X204546992Y-128990443D01*
X204749267Y-128855287D01*
X204921287Y-128683267D01*
X205056443Y-128480992D01*
X205149540Y-128256236D01*
X205197000Y-128017637D01*
X205197000Y-127774363D01*
X218555000Y-127774363D01*
X218555000Y-128017637D01*
X218602460Y-128256236D01*
X218695557Y-128480992D01*
X218830713Y-128683267D01*
X219002733Y-128855287D01*
X219205008Y-128990443D01*
X219429764Y-129083540D01*
X219668363Y-129131000D01*
X219911637Y-129131000D01*
X220150236Y-129083540D01*
X220374992Y-128990443D01*
X220577267Y-128855287D01*
X220749287Y-128683267D01*
X220884443Y-128480992D01*
X220977540Y-128256236D01*
X221025000Y-128017637D01*
X221025000Y-127774363D01*
X228555000Y-127774363D01*
X228555000Y-128017637D01*
X228602460Y-128256236D01*
X228695557Y-128480992D01*
X228830713Y-128683267D01*
X229002733Y-128855287D01*
X229205008Y-128990443D01*
X229429764Y-129083540D01*
X229668363Y-129131000D01*
X229911637Y-129131000D01*
X230150236Y-129083540D01*
X230374992Y-128990443D01*
X230577267Y-128855287D01*
X230749287Y-128683267D01*
X230884443Y-128480992D01*
X230977540Y-128256236D01*
X231025000Y-128017637D01*
X231025000Y-127774363D01*
X230977540Y-127535764D01*
X230884443Y-127311008D01*
X230749287Y-127108733D01*
X230577267Y-126936713D01*
X230374992Y-126801557D01*
X230150236Y-126708460D01*
X229911637Y-126661000D01*
X229668363Y-126661000D01*
X229429764Y-126708460D01*
X229205008Y-126801557D01*
X229002733Y-126936713D01*
X228830713Y-127108733D01*
X228695557Y-127311008D01*
X228602460Y-127535764D01*
X228555000Y-127774363D01*
X221025000Y-127774363D01*
X220977540Y-127535764D01*
X220884443Y-127311008D01*
X220749287Y-127108733D01*
X220577267Y-126936713D01*
X220374992Y-126801557D01*
X220150236Y-126708460D01*
X219911637Y-126661000D01*
X219668363Y-126661000D01*
X219429764Y-126708460D01*
X219205008Y-126801557D01*
X219002733Y-126936713D01*
X218830713Y-127108733D01*
X218695557Y-127311008D01*
X218602460Y-127535764D01*
X218555000Y-127774363D01*
X205197000Y-127774363D01*
X205149540Y-127535764D01*
X205056443Y-127311008D01*
X204921287Y-127108733D01*
X204749267Y-126936713D01*
X204546992Y-126801557D01*
X204322236Y-126708460D01*
X204083637Y-126661000D01*
X203840363Y-126661000D01*
X203601764Y-126708460D01*
X203377008Y-126801557D01*
X203174733Y-126936713D01*
X203002713Y-127108733D01*
X202867557Y-127311008D01*
X202774460Y-127535764D01*
X202727000Y-127774363D01*
X195197000Y-127774363D01*
X195149540Y-127535764D01*
X195056443Y-127311008D01*
X194921287Y-127108733D01*
X194749267Y-126936713D01*
X194546992Y-126801557D01*
X194322236Y-126708460D01*
X194083637Y-126661000D01*
X193840363Y-126661000D01*
X193601764Y-126708460D01*
X193377008Y-126801557D01*
X193174733Y-126936713D01*
X193002713Y-127108733D01*
X192867557Y-127311008D01*
X192774460Y-127535764D01*
X192727000Y-127774363D01*
X188353000Y-127774363D01*
X188305540Y-127535764D01*
X188212443Y-127311008D01*
X188077287Y-127108733D01*
X187905267Y-126936713D01*
X187702992Y-126801557D01*
X187478236Y-126708460D01*
X187239637Y-126661000D01*
X186996363Y-126661000D01*
X186757764Y-126708460D01*
X186533008Y-126801557D01*
X186330733Y-126936713D01*
X186158713Y-127108733D01*
X186023557Y-127311008D01*
X185930460Y-127535764D01*
X185883000Y-127774363D01*
X178353000Y-127774363D01*
X178305540Y-127535764D01*
X178212443Y-127311008D01*
X178077287Y-127108733D01*
X177905267Y-126936713D01*
X177702992Y-126801557D01*
X177478236Y-126708460D01*
X177239637Y-126661000D01*
X176996363Y-126661000D01*
X176757764Y-126708460D01*
X176533008Y-126801557D01*
X176330733Y-126936713D01*
X176158713Y-127108733D01*
X176023557Y-127311008D01*
X175930460Y-127535764D01*
X175883000Y-127774363D01*
X163969000Y-127774363D01*
X163921540Y-127535764D01*
X163828443Y-127311008D01*
X163693287Y-127108733D01*
X163521267Y-126936713D01*
X163318992Y-126801557D01*
X163094236Y-126708460D01*
X162855637Y-126661000D01*
X162612363Y-126661000D01*
X162373764Y-126708460D01*
X162149008Y-126801557D01*
X161946733Y-126936713D01*
X161774713Y-127108733D01*
X161639557Y-127311008D01*
X161546460Y-127535764D01*
X161499000Y-127774363D01*
X153969000Y-127774363D01*
X153921540Y-127535764D01*
X153828443Y-127311008D01*
X153693287Y-127108733D01*
X153521267Y-126936713D01*
X153318992Y-126801557D01*
X153094236Y-126708460D01*
X152855637Y-126661000D01*
X152612363Y-126661000D01*
X152373764Y-126708460D01*
X152149008Y-126801557D01*
X151946733Y-126936713D01*
X151774713Y-127108733D01*
X151639557Y-127311008D01*
X151546460Y-127535764D01*
X151499000Y-127774363D01*
X148729000Y-127774363D01*
X148681540Y-127535764D01*
X148588443Y-127311008D01*
X148453287Y-127108733D01*
X148281267Y-126936713D01*
X148078992Y-126801557D01*
X147854236Y-126708460D01*
X147615637Y-126661000D01*
X147372363Y-126661000D01*
X147133764Y-126708460D01*
X146909008Y-126801557D01*
X146706733Y-126936713D01*
X146534713Y-127108733D01*
X146399557Y-127311008D01*
X146306460Y-127535764D01*
X146259000Y-127774363D01*
X138729000Y-127774363D01*
X138681540Y-127535764D01*
X138588443Y-127311008D01*
X138453287Y-127108733D01*
X138281267Y-126936713D01*
X138078992Y-126801557D01*
X137854236Y-126708460D01*
X137615637Y-126661000D01*
X137372363Y-126661000D01*
X137133764Y-126708460D01*
X136909008Y-126801557D01*
X136706733Y-126936713D01*
X136534713Y-127108733D01*
X136399557Y-127311008D01*
X136306460Y-127535764D01*
X136259000Y-127774363D01*
X133235000Y-127774363D01*
X133187540Y-127535764D01*
X133094443Y-127311008D01*
X132959287Y-127108733D01*
X132787267Y-126936713D01*
X132584992Y-126801557D01*
X132360236Y-126708460D01*
X132121637Y-126661000D01*
X131878363Y-126661000D01*
X131639764Y-126708460D01*
X131415008Y-126801557D01*
X131212733Y-126936713D01*
X131040713Y-127108733D01*
X130905557Y-127311008D01*
X130812460Y-127535764D01*
X130765000Y-127774363D01*
X123235000Y-127774363D01*
X123187540Y-127535764D01*
X123094443Y-127311008D01*
X122959287Y-127108733D01*
X122787267Y-126936713D01*
X122584992Y-126801557D01*
X122360236Y-126708460D01*
X122121637Y-126661000D01*
X121878363Y-126661000D01*
X121639764Y-126708460D01*
X121415008Y-126801557D01*
X121212733Y-126936713D01*
X121040713Y-127108733D01*
X120905557Y-127311008D01*
X120812460Y-127535764D01*
X120765000Y-127774363D01*
X104533001Y-127774363D01*
X104533001Y-125274363D01*
X120765000Y-125274363D01*
X120765000Y-125517637D01*
X120812460Y-125756236D01*
X120905557Y-125980992D01*
X121040713Y-126183267D01*
X121212733Y-126355287D01*
X121415008Y-126490443D01*
X121639764Y-126583540D01*
X121878363Y-126631000D01*
X122121637Y-126631000D01*
X122360236Y-126583540D01*
X122584992Y-126490443D01*
X122787267Y-126355287D01*
X122959287Y-126183267D01*
X123094443Y-125980992D01*
X123187540Y-125756236D01*
X123235000Y-125517637D01*
X123235000Y-125274363D01*
X123187540Y-125035764D01*
X123094443Y-124811008D01*
X122959287Y-124608733D01*
X122846554Y-124496000D01*
X125111928Y-124496000D01*
X125111928Y-126296000D01*
X125124188Y-126420482D01*
X125160498Y-126540180D01*
X125219463Y-126650494D01*
X125298815Y-126747185D01*
X125395506Y-126826537D01*
X125505820Y-126885502D01*
X125625518Y-126921812D01*
X125750000Y-126934072D01*
X128250000Y-126934072D01*
X128374482Y-126921812D01*
X128494180Y-126885502D01*
X128604494Y-126826537D01*
X128701185Y-126747185D01*
X128780537Y-126650494D01*
X128839502Y-126540180D01*
X128875812Y-126420482D01*
X128888072Y-126296000D01*
X128888072Y-125274363D01*
X130765000Y-125274363D01*
X130765000Y-125517637D01*
X130812460Y-125756236D01*
X130905557Y-125980992D01*
X131040713Y-126183267D01*
X131212733Y-126355287D01*
X131415008Y-126490443D01*
X131639764Y-126583540D01*
X131878363Y-126631000D01*
X132121637Y-126631000D01*
X132360236Y-126583540D01*
X132584992Y-126490443D01*
X132787267Y-126355287D01*
X132959287Y-126183267D01*
X133094443Y-125980992D01*
X133187540Y-125756236D01*
X133235000Y-125517637D01*
X133235000Y-125274363D01*
X136259000Y-125274363D01*
X136259000Y-125517637D01*
X136306460Y-125756236D01*
X136399557Y-125980992D01*
X136534713Y-126183267D01*
X136706733Y-126355287D01*
X136909008Y-126490443D01*
X137133764Y-126583540D01*
X137372363Y-126631000D01*
X137615637Y-126631000D01*
X137854236Y-126583540D01*
X138078992Y-126490443D01*
X138281267Y-126355287D01*
X138453287Y-126183267D01*
X138588443Y-125980992D01*
X138681540Y-125756236D01*
X138729000Y-125517637D01*
X138729000Y-125274363D01*
X138681540Y-125035764D01*
X138588443Y-124811008D01*
X138453287Y-124608733D01*
X138340554Y-124496000D01*
X140605928Y-124496000D01*
X140605928Y-126296000D01*
X140618188Y-126420482D01*
X140654498Y-126540180D01*
X140713463Y-126650494D01*
X140792815Y-126747185D01*
X140889506Y-126826537D01*
X140999820Y-126885502D01*
X141119518Y-126921812D01*
X141244000Y-126934072D01*
X143744000Y-126934072D01*
X143868482Y-126921812D01*
X143988180Y-126885502D01*
X144098494Y-126826537D01*
X144195185Y-126747185D01*
X144274537Y-126650494D01*
X144333502Y-126540180D01*
X144369812Y-126420482D01*
X144382072Y-126296000D01*
X144382072Y-125274363D01*
X146259000Y-125274363D01*
X146259000Y-125517637D01*
X146306460Y-125756236D01*
X146399557Y-125980992D01*
X146534713Y-126183267D01*
X146706733Y-126355287D01*
X146909008Y-126490443D01*
X147133764Y-126583540D01*
X147372363Y-126631000D01*
X147615637Y-126631000D01*
X147854236Y-126583540D01*
X148078992Y-126490443D01*
X148281267Y-126355287D01*
X148453287Y-126183267D01*
X148588443Y-125980992D01*
X148681540Y-125756236D01*
X148729000Y-125517637D01*
X148729000Y-125274363D01*
X151499000Y-125274363D01*
X151499000Y-125517637D01*
X151546460Y-125756236D01*
X151639557Y-125980992D01*
X151774713Y-126183267D01*
X151946733Y-126355287D01*
X152149008Y-126490443D01*
X152373764Y-126583540D01*
X152612363Y-126631000D01*
X152855637Y-126631000D01*
X153094236Y-126583540D01*
X153318992Y-126490443D01*
X153521267Y-126355287D01*
X153693287Y-126183267D01*
X153828443Y-125980992D01*
X153921540Y-125756236D01*
X153969000Y-125517637D01*
X153969000Y-125274363D01*
X153921540Y-125035764D01*
X153828443Y-124811008D01*
X153693287Y-124608733D01*
X153580554Y-124496000D01*
X155845928Y-124496000D01*
X155845928Y-126296000D01*
X155858188Y-126420482D01*
X155894498Y-126540180D01*
X155953463Y-126650494D01*
X156032815Y-126747185D01*
X156129506Y-126826537D01*
X156239820Y-126885502D01*
X156359518Y-126921812D01*
X156484000Y-126934072D01*
X158984000Y-126934072D01*
X159108482Y-126921812D01*
X159228180Y-126885502D01*
X159338494Y-126826537D01*
X159435185Y-126747185D01*
X159514537Y-126650494D01*
X159573502Y-126540180D01*
X159609812Y-126420482D01*
X159622072Y-126296000D01*
X159622072Y-125274363D01*
X161499000Y-125274363D01*
X161499000Y-125517637D01*
X161546460Y-125756236D01*
X161639557Y-125980992D01*
X161774713Y-126183267D01*
X161946733Y-126355287D01*
X162149008Y-126490443D01*
X162373764Y-126583540D01*
X162612363Y-126631000D01*
X162855637Y-126631000D01*
X163094236Y-126583540D01*
X163318992Y-126490443D01*
X163521267Y-126355287D01*
X163693287Y-126183267D01*
X163828443Y-125980992D01*
X163921540Y-125756236D01*
X163969000Y-125517637D01*
X163969000Y-125274363D01*
X175883000Y-125274363D01*
X175883000Y-125517637D01*
X175930460Y-125756236D01*
X176023557Y-125980992D01*
X176158713Y-126183267D01*
X176330733Y-126355287D01*
X176533008Y-126490443D01*
X176757764Y-126583540D01*
X176996363Y-126631000D01*
X177239637Y-126631000D01*
X177478236Y-126583540D01*
X177702992Y-126490443D01*
X177905267Y-126355287D01*
X177964554Y-126296000D01*
X180229928Y-126296000D01*
X180242188Y-126420482D01*
X180278498Y-126540180D01*
X180337463Y-126650494D01*
X180416815Y-126747185D01*
X180513506Y-126826537D01*
X180623820Y-126885502D01*
X180743518Y-126921812D01*
X180868000Y-126934072D01*
X181832250Y-126931000D01*
X181991000Y-126772250D01*
X181991000Y-125523000D01*
X182245000Y-125523000D01*
X182245000Y-126772250D01*
X182403750Y-126931000D01*
X183368000Y-126934072D01*
X183492482Y-126921812D01*
X183612180Y-126885502D01*
X183722494Y-126826537D01*
X183819185Y-126747185D01*
X183898537Y-126650494D01*
X183957502Y-126540180D01*
X183993812Y-126420482D01*
X184006072Y-126296000D01*
X184003000Y-125681750D01*
X183844250Y-125523000D01*
X182245000Y-125523000D01*
X181991000Y-125523000D01*
X180391750Y-125523000D01*
X180233000Y-125681750D01*
X180229928Y-126296000D01*
X177964554Y-126296000D01*
X178077287Y-126183267D01*
X178212443Y-125980992D01*
X178305540Y-125756236D01*
X178353000Y-125517637D01*
X178353000Y-125274363D01*
X185883000Y-125274363D01*
X185883000Y-125517637D01*
X185930460Y-125756236D01*
X186023557Y-125980992D01*
X186158713Y-126183267D01*
X186330733Y-126355287D01*
X186533008Y-126490443D01*
X186757764Y-126583540D01*
X186996363Y-126631000D01*
X187239637Y-126631000D01*
X187478236Y-126583540D01*
X187702992Y-126490443D01*
X187905267Y-126355287D01*
X188077287Y-126183267D01*
X188212443Y-125980992D01*
X188305540Y-125756236D01*
X188353000Y-125517637D01*
X188353000Y-125274363D01*
X192727000Y-125274363D01*
X192727000Y-125517637D01*
X192774460Y-125756236D01*
X192867557Y-125980992D01*
X193002713Y-126183267D01*
X193174733Y-126355287D01*
X193377008Y-126490443D01*
X193601764Y-126583540D01*
X193840363Y-126631000D01*
X194083637Y-126631000D01*
X194322236Y-126583540D01*
X194546992Y-126490443D01*
X194749267Y-126355287D01*
X194808554Y-126296000D01*
X197073928Y-126296000D01*
X197086188Y-126420482D01*
X197122498Y-126540180D01*
X197181463Y-126650494D01*
X197260815Y-126747185D01*
X197357506Y-126826537D01*
X197467820Y-126885502D01*
X197587518Y-126921812D01*
X197712000Y-126934072D01*
X198676250Y-126931000D01*
X198835000Y-126772250D01*
X198835000Y-125523000D01*
X199089000Y-125523000D01*
X199089000Y-126772250D01*
X199247750Y-126931000D01*
X200212000Y-126934072D01*
X200336482Y-126921812D01*
X200456180Y-126885502D01*
X200566494Y-126826537D01*
X200663185Y-126747185D01*
X200742537Y-126650494D01*
X200801502Y-126540180D01*
X200837812Y-126420482D01*
X200850072Y-126296000D01*
X200847000Y-125681750D01*
X200688250Y-125523000D01*
X199089000Y-125523000D01*
X198835000Y-125523000D01*
X197235750Y-125523000D01*
X197077000Y-125681750D01*
X197073928Y-126296000D01*
X194808554Y-126296000D01*
X194921287Y-126183267D01*
X195056443Y-125980992D01*
X195149540Y-125756236D01*
X195197000Y-125517637D01*
X195197000Y-125274363D01*
X202727000Y-125274363D01*
X202727000Y-125517637D01*
X202774460Y-125756236D01*
X202867557Y-125980992D01*
X203002713Y-126183267D01*
X203174733Y-126355287D01*
X203377008Y-126490443D01*
X203601764Y-126583540D01*
X203840363Y-126631000D01*
X204083637Y-126631000D01*
X204322236Y-126583540D01*
X204546992Y-126490443D01*
X204749267Y-126355287D01*
X204921287Y-126183267D01*
X205056443Y-125980992D01*
X205149540Y-125756236D01*
X205197000Y-125517637D01*
X205197000Y-125274363D01*
X218555000Y-125274363D01*
X218555000Y-125517637D01*
X218602460Y-125756236D01*
X218695557Y-125980992D01*
X218830713Y-126183267D01*
X219002733Y-126355287D01*
X219205008Y-126490443D01*
X219429764Y-126583540D01*
X219668363Y-126631000D01*
X219911637Y-126631000D01*
X220150236Y-126583540D01*
X220374992Y-126490443D01*
X220577267Y-126355287D01*
X220749287Y-126183267D01*
X220884443Y-125980992D01*
X220977540Y-125756236D01*
X221025000Y-125517637D01*
X221025000Y-125274363D01*
X220977540Y-125035764D01*
X220884443Y-124811008D01*
X220749287Y-124608733D01*
X220636554Y-124496000D01*
X222901928Y-124496000D01*
X222901928Y-126296000D01*
X222914188Y-126420482D01*
X222950498Y-126540180D01*
X223009463Y-126650494D01*
X223088815Y-126747185D01*
X223185506Y-126826537D01*
X223295820Y-126885502D01*
X223415518Y-126921812D01*
X223540000Y-126934072D01*
X226040000Y-126934072D01*
X226164482Y-126921812D01*
X226284180Y-126885502D01*
X226394494Y-126826537D01*
X226491185Y-126747185D01*
X226570537Y-126650494D01*
X226629502Y-126540180D01*
X226665812Y-126420482D01*
X226678072Y-126296000D01*
X226678072Y-125274363D01*
X228555000Y-125274363D01*
X228555000Y-125517637D01*
X228602460Y-125756236D01*
X228695557Y-125980992D01*
X228830713Y-126183267D01*
X229002733Y-126355287D01*
X229205008Y-126490443D01*
X229429764Y-126583540D01*
X229668363Y-126631000D01*
X229911637Y-126631000D01*
X230150236Y-126583540D01*
X230374992Y-126490443D01*
X230577267Y-126355287D01*
X230749287Y-126183267D01*
X230884443Y-125980992D01*
X230977540Y-125756236D01*
X231025000Y-125517637D01*
X231025000Y-125274363D01*
X230977540Y-125035764D01*
X230884443Y-124811008D01*
X230749287Y-124608733D01*
X230577267Y-124436713D01*
X230374992Y-124301557D01*
X230150236Y-124208460D01*
X229911637Y-124161000D01*
X229668363Y-124161000D01*
X229429764Y-124208460D01*
X229205008Y-124301557D01*
X229002733Y-124436713D01*
X228830713Y-124608733D01*
X228695557Y-124811008D01*
X228602460Y-125035764D01*
X228555000Y-125274363D01*
X226678072Y-125274363D01*
X226678072Y-124496000D01*
X226665812Y-124371518D01*
X226629502Y-124251820D01*
X226570537Y-124141506D01*
X226491185Y-124044815D01*
X226394494Y-123965463D01*
X226284180Y-123906498D01*
X226164482Y-123870188D01*
X226040000Y-123857928D01*
X223540000Y-123857928D01*
X223415518Y-123870188D01*
X223295820Y-123906498D01*
X223185506Y-123965463D01*
X223088815Y-124044815D01*
X223009463Y-124141506D01*
X222950498Y-124251820D01*
X222914188Y-124371518D01*
X222901928Y-124496000D01*
X220636554Y-124496000D01*
X220577267Y-124436713D01*
X220374992Y-124301557D01*
X220150236Y-124208460D01*
X219911637Y-124161000D01*
X219668363Y-124161000D01*
X219429764Y-124208460D01*
X219205008Y-124301557D01*
X219002733Y-124436713D01*
X218830713Y-124608733D01*
X218695557Y-124811008D01*
X218602460Y-125035764D01*
X218555000Y-125274363D01*
X205197000Y-125274363D01*
X205149540Y-125035764D01*
X205056443Y-124811008D01*
X204921287Y-124608733D01*
X204749267Y-124436713D01*
X204546992Y-124301557D01*
X204322236Y-124208460D01*
X204083637Y-124161000D01*
X203840363Y-124161000D01*
X203601764Y-124208460D01*
X203377008Y-124301557D01*
X203174733Y-124436713D01*
X203002713Y-124608733D01*
X202867557Y-124811008D01*
X202774460Y-125035764D01*
X202727000Y-125274363D01*
X195197000Y-125274363D01*
X195149540Y-125035764D01*
X195056443Y-124811008D01*
X194921287Y-124608733D01*
X194808554Y-124496000D01*
X197073928Y-124496000D01*
X197077000Y-125110250D01*
X197235750Y-125269000D01*
X198835000Y-125269000D01*
X198835000Y-124019750D01*
X199089000Y-124019750D01*
X199089000Y-125269000D01*
X200688250Y-125269000D01*
X200847000Y-125110250D01*
X200850072Y-124496000D01*
X200837812Y-124371518D01*
X200801502Y-124251820D01*
X200742537Y-124141506D01*
X200663185Y-124044815D01*
X200566494Y-123965463D01*
X200456180Y-123906498D01*
X200336482Y-123870188D01*
X200212000Y-123857928D01*
X199247750Y-123861000D01*
X199089000Y-124019750D01*
X198835000Y-124019750D01*
X198676250Y-123861000D01*
X197712000Y-123857928D01*
X197587518Y-123870188D01*
X197467820Y-123906498D01*
X197357506Y-123965463D01*
X197260815Y-124044815D01*
X197181463Y-124141506D01*
X197122498Y-124251820D01*
X197086188Y-124371518D01*
X197073928Y-124496000D01*
X194808554Y-124496000D01*
X194749267Y-124436713D01*
X194546992Y-124301557D01*
X194322236Y-124208460D01*
X194083637Y-124161000D01*
X193840363Y-124161000D01*
X193601764Y-124208460D01*
X193377008Y-124301557D01*
X193174733Y-124436713D01*
X193002713Y-124608733D01*
X192867557Y-124811008D01*
X192774460Y-125035764D01*
X192727000Y-125274363D01*
X188353000Y-125274363D01*
X188305540Y-125035764D01*
X188212443Y-124811008D01*
X188077287Y-124608733D01*
X187905267Y-124436713D01*
X187702992Y-124301557D01*
X187478236Y-124208460D01*
X187239637Y-124161000D01*
X186996363Y-124161000D01*
X186757764Y-124208460D01*
X186533008Y-124301557D01*
X186330733Y-124436713D01*
X186158713Y-124608733D01*
X186023557Y-124811008D01*
X185930460Y-125035764D01*
X185883000Y-125274363D01*
X178353000Y-125274363D01*
X178305540Y-125035764D01*
X178212443Y-124811008D01*
X178077287Y-124608733D01*
X177964554Y-124496000D01*
X180229928Y-124496000D01*
X180233000Y-125110250D01*
X180391750Y-125269000D01*
X181991000Y-125269000D01*
X181991000Y-124019750D01*
X182245000Y-124019750D01*
X182245000Y-125269000D01*
X183844250Y-125269000D01*
X184003000Y-125110250D01*
X184006072Y-124496000D01*
X183993812Y-124371518D01*
X183957502Y-124251820D01*
X183898537Y-124141506D01*
X183819185Y-124044815D01*
X183722494Y-123965463D01*
X183612180Y-123906498D01*
X183492482Y-123870188D01*
X183368000Y-123857928D01*
X182403750Y-123861000D01*
X182245000Y-124019750D01*
X181991000Y-124019750D01*
X181832250Y-123861000D01*
X180868000Y-123857928D01*
X180743518Y-123870188D01*
X180623820Y-123906498D01*
X180513506Y-123965463D01*
X180416815Y-124044815D01*
X180337463Y-124141506D01*
X180278498Y-124251820D01*
X180242188Y-124371518D01*
X180229928Y-124496000D01*
X177964554Y-124496000D01*
X177905267Y-124436713D01*
X177702992Y-124301557D01*
X177478236Y-124208460D01*
X177239637Y-124161000D01*
X176996363Y-124161000D01*
X176757764Y-124208460D01*
X176533008Y-124301557D01*
X176330733Y-124436713D01*
X176158713Y-124608733D01*
X176023557Y-124811008D01*
X175930460Y-125035764D01*
X175883000Y-125274363D01*
X163969000Y-125274363D01*
X163921540Y-125035764D01*
X163828443Y-124811008D01*
X163693287Y-124608733D01*
X163521267Y-124436713D01*
X163318992Y-124301557D01*
X163094236Y-124208460D01*
X162855637Y-124161000D01*
X162612363Y-124161000D01*
X162373764Y-124208460D01*
X162149008Y-124301557D01*
X161946733Y-124436713D01*
X161774713Y-124608733D01*
X161639557Y-124811008D01*
X161546460Y-125035764D01*
X161499000Y-125274363D01*
X159622072Y-125274363D01*
X159622072Y-124496000D01*
X159609812Y-124371518D01*
X159573502Y-124251820D01*
X159514537Y-124141506D01*
X159435185Y-124044815D01*
X159338494Y-123965463D01*
X159228180Y-123906498D01*
X159108482Y-123870188D01*
X158984000Y-123857928D01*
X156484000Y-123857928D01*
X156359518Y-123870188D01*
X156239820Y-123906498D01*
X156129506Y-123965463D01*
X156032815Y-124044815D01*
X155953463Y-124141506D01*
X155894498Y-124251820D01*
X155858188Y-124371518D01*
X155845928Y-124496000D01*
X153580554Y-124496000D01*
X153521267Y-124436713D01*
X153318992Y-124301557D01*
X153094236Y-124208460D01*
X152855637Y-124161000D01*
X152612363Y-124161000D01*
X152373764Y-124208460D01*
X152149008Y-124301557D01*
X151946733Y-124436713D01*
X151774713Y-124608733D01*
X151639557Y-124811008D01*
X151546460Y-125035764D01*
X151499000Y-125274363D01*
X148729000Y-125274363D01*
X148681540Y-125035764D01*
X148588443Y-124811008D01*
X148453287Y-124608733D01*
X148281267Y-124436713D01*
X148078992Y-124301557D01*
X147854236Y-124208460D01*
X147615637Y-124161000D01*
X147372363Y-124161000D01*
X147133764Y-124208460D01*
X146909008Y-124301557D01*
X146706733Y-124436713D01*
X146534713Y-124608733D01*
X146399557Y-124811008D01*
X146306460Y-125035764D01*
X146259000Y-125274363D01*
X144382072Y-125274363D01*
X144382072Y-124496000D01*
X144369812Y-124371518D01*
X144333502Y-124251820D01*
X144274537Y-124141506D01*
X144195185Y-124044815D01*
X144098494Y-123965463D01*
X143988180Y-123906498D01*
X143868482Y-123870188D01*
X143744000Y-123857928D01*
X141244000Y-123857928D01*
X141119518Y-123870188D01*
X140999820Y-123906498D01*
X140889506Y-123965463D01*
X140792815Y-124044815D01*
X140713463Y-124141506D01*
X140654498Y-124251820D01*
X140618188Y-124371518D01*
X140605928Y-124496000D01*
X138340554Y-124496000D01*
X138281267Y-124436713D01*
X138078992Y-124301557D01*
X137854236Y-124208460D01*
X137615637Y-124161000D01*
X137372363Y-124161000D01*
X137133764Y-124208460D01*
X136909008Y-124301557D01*
X136706733Y-124436713D01*
X136534713Y-124608733D01*
X136399557Y-124811008D01*
X136306460Y-125035764D01*
X136259000Y-125274363D01*
X133235000Y-125274363D01*
X133187540Y-125035764D01*
X133094443Y-124811008D01*
X132959287Y-124608733D01*
X132787267Y-124436713D01*
X132584992Y-124301557D01*
X132360236Y-124208460D01*
X132121637Y-124161000D01*
X131878363Y-124161000D01*
X131639764Y-124208460D01*
X131415008Y-124301557D01*
X131212733Y-124436713D01*
X131040713Y-124608733D01*
X130905557Y-124811008D01*
X130812460Y-125035764D01*
X130765000Y-125274363D01*
X128888072Y-125274363D01*
X128888072Y-124496000D01*
X128875812Y-124371518D01*
X128839502Y-124251820D01*
X128780537Y-124141506D01*
X128701185Y-124044815D01*
X128604494Y-123965463D01*
X128494180Y-123906498D01*
X128374482Y-123870188D01*
X128250000Y-123857928D01*
X125750000Y-123857928D01*
X125625518Y-123870188D01*
X125505820Y-123906498D01*
X125395506Y-123965463D01*
X125298815Y-124044815D01*
X125219463Y-124141506D01*
X125160498Y-124251820D01*
X125124188Y-124371518D01*
X125111928Y-124496000D01*
X122846554Y-124496000D01*
X122787267Y-124436713D01*
X122584992Y-124301557D01*
X122360236Y-124208460D01*
X122121637Y-124161000D01*
X121878363Y-124161000D01*
X121639764Y-124208460D01*
X121415008Y-124301557D01*
X121212733Y-124436713D01*
X121040713Y-124608733D01*
X120905557Y-124811008D01*
X120812460Y-125035764D01*
X120765000Y-125274363D01*
X104533001Y-125274363D01*
X104533001Y-123172424D01*
X104536687Y-123135001D01*
X104528639Y-123053289D01*
X104521975Y-122985623D01*
X104478403Y-122841986D01*
X104419066Y-122730974D01*
X104407646Y-122709608D01*
X104336280Y-122622649D01*
X104312423Y-122593579D01*
X104283352Y-122569722D01*
X103943924Y-122230294D01*
X104044494Y-122176537D01*
X104141185Y-122097185D01*
X104220537Y-122000494D01*
X104279502Y-121890180D01*
X104315812Y-121770482D01*
X104328072Y-121646000D01*
X104328072Y-119146000D01*
X104315812Y-119021518D01*
X104279502Y-118901820D01*
X104220537Y-118791506D01*
X104141185Y-118694815D01*
X104044494Y-118615463D01*
X103934180Y-118556498D01*
X103814482Y-118520188D01*
X103690000Y-118507928D01*
X101890000Y-118507928D01*
X101765518Y-118520188D01*
X101645820Y-118556498D01*
X101535506Y-118615463D01*
X101438815Y-118694815D01*
X101359463Y-118791506D01*
X101300498Y-118901820D01*
X101264188Y-119021518D01*
X101251928Y-119146000D01*
X101251928Y-121646000D01*
X101264188Y-121770482D01*
X101300498Y-121890180D01*
X101359463Y-122000494D01*
X101438815Y-122097185D01*
X101535506Y-122176537D01*
X101645820Y-122235502D01*
X101765518Y-122271812D01*
X101890000Y-122284072D01*
X102037125Y-122284072D01*
X102039026Y-122303377D01*
X102082598Y-122447014D01*
X102104510Y-122488009D01*
X102153355Y-122579392D01*
X102183928Y-122616645D01*
X102248578Y-122695422D01*
X102277654Y-122719284D01*
X103009002Y-123450633D01*
X103009002Y-124180367D01*
X102911637Y-124161000D01*
X102668363Y-124161000D01*
X102429764Y-124208460D01*
X102205008Y-124301557D01*
X102002733Y-124436713D01*
X101830713Y-124608733D01*
X101695557Y-124811008D01*
X101602460Y-125035764D01*
X101555000Y-125274363D01*
X101555000Y-125517637D01*
X101602460Y-125756236D01*
X101695557Y-125980992D01*
X101830713Y-126183267D01*
X102002733Y-126355287D01*
X102205008Y-126490443D01*
X102429764Y-126583540D01*
X102668363Y-126631000D01*
X102911637Y-126631000D01*
X103009001Y-126611633D01*
X103009001Y-126680367D01*
X102911637Y-126661000D01*
X102668363Y-126661000D01*
X102429764Y-126708460D01*
X102205008Y-126801557D01*
X102002733Y-126936713D01*
X101830713Y-127108733D01*
X101695557Y-127311008D01*
X101602460Y-127535764D01*
X101555000Y-127774363D01*
X101555000Y-128017637D01*
X101602460Y-128256236D01*
X101695557Y-128480992D01*
X101830713Y-128683267D01*
X102002733Y-128855287D01*
X102205008Y-128990443D01*
X102289013Y-129025239D01*
X101266252Y-130048000D01*
X87322707Y-130048000D01*
X87220637Y-129895241D01*
X87020759Y-129695363D01*
X86785727Y-129538320D01*
X86524574Y-129430147D01*
X86247335Y-129375000D01*
X85964665Y-129375000D01*
X85687426Y-129430147D01*
X85426273Y-129538320D01*
X85191241Y-129695363D01*
X84991363Y-129895241D01*
X84889293Y-130048000D01*
X78054941Y-130048000D01*
X75781304Y-127774363D01*
X91555000Y-127774363D01*
X91555000Y-128017637D01*
X91602460Y-128256236D01*
X91695557Y-128480992D01*
X91830713Y-128683267D01*
X92002733Y-128855287D01*
X92205008Y-128990443D01*
X92429764Y-129083540D01*
X92668363Y-129131000D01*
X92911637Y-129131000D01*
X93150236Y-129083540D01*
X93374992Y-128990443D01*
X93577267Y-128855287D01*
X93749287Y-128683267D01*
X93884443Y-128480992D01*
X93977540Y-128256236D01*
X94025000Y-128017637D01*
X94025000Y-127774363D01*
X93977540Y-127535764D01*
X93884443Y-127311008D01*
X93749287Y-127108733D01*
X93577267Y-126936713D01*
X93374992Y-126801557D01*
X93150236Y-126708460D01*
X92911637Y-126661000D01*
X92668363Y-126661000D01*
X92429764Y-126708460D01*
X92205008Y-126801557D01*
X92002733Y-126936713D01*
X91830713Y-127108733D01*
X91695557Y-127311008D01*
X91602460Y-127535764D01*
X91555000Y-127774363D01*
X75781304Y-127774363D01*
X73281304Y-125274363D01*
X91555000Y-125274363D01*
X91555000Y-125517637D01*
X91602460Y-125756236D01*
X91695557Y-125980992D01*
X91830713Y-126183267D01*
X92002733Y-126355287D01*
X92205008Y-126490443D01*
X92429764Y-126583540D01*
X92668363Y-126631000D01*
X92911637Y-126631000D01*
X93150236Y-126583540D01*
X93374992Y-126490443D01*
X93577267Y-126355287D01*
X93636554Y-126296000D01*
X95901928Y-126296000D01*
X95914188Y-126420482D01*
X95950498Y-126540180D01*
X96009463Y-126650494D01*
X96088815Y-126747185D01*
X96185506Y-126826537D01*
X96295820Y-126885502D01*
X96415518Y-126921812D01*
X96540000Y-126934072D01*
X97504250Y-126931000D01*
X97663000Y-126772250D01*
X97663000Y-125523000D01*
X97917000Y-125523000D01*
X97917000Y-126772250D01*
X98075750Y-126931000D01*
X99040000Y-126934072D01*
X99164482Y-126921812D01*
X99284180Y-126885502D01*
X99394494Y-126826537D01*
X99491185Y-126747185D01*
X99570537Y-126650494D01*
X99629502Y-126540180D01*
X99665812Y-126420482D01*
X99678072Y-126296000D01*
X99675000Y-125681750D01*
X99516250Y-125523000D01*
X97917000Y-125523000D01*
X97663000Y-125523000D01*
X96063750Y-125523000D01*
X95905000Y-125681750D01*
X95901928Y-126296000D01*
X93636554Y-126296000D01*
X93749287Y-126183267D01*
X93884443Y-125980992D01*
X93977540Y-125756236D01*
X94025000Y-125517637D01*
X94025000Y-125274363D01*
X93977540Y-125035764D01*
X93884443Y-124811008D01*
X93749287Y-124608733D01*
X93636554Y-124496000D01*
X95901928Y-124496000D01*
X95905000Y-125110250D01*
X96063750Y-125269000D01*
X97663000Y-125269000D01*
X97663000Y-124019750D01*
X97917000Y-124019750D01*
X97917000Y-125269000D01*
X99516250Y-125269000D01*
X99675000Y-125110250D01*
X99678072Y-124496000D01*
X99665812Y-124371518D01*
X99629502Y-124251820D01*
X99570537Y-124141506D01*
X99491185Y-124044815D01*
X99394494Y-123965463D01*
X99284180Y-123906498D01*
X99164482Y-123870188D01*
X99040000Y-123857928D01*
X98075750Y-123861000D01*
X97917000Y-124019750D01*
X97663000Y-124019750D01*
X97504250Y-123861000D01*
X96540000Y-123857928D01*
X96415518Y-123870188D01*
X96295820Y-123906498D01*
X96185506Y-123965463D01*
X96088815Y-124044815D01*
X96009463Y-124141506D01*
X95950498Y-124251820D01*
X95914188Y-124371518D01*
X95901928Y-124496000D01*
X93636554Y-124496000D01*
X93577267Y-124436713D01*
X93374992Y-124301557D01*
X93150236Y-124208460D01*
X92911637Y-124161000D01*
X92668363Y-124161000D01*
X92429764Y-124208460D01*
X92205008Y-124301557D01*
X92002733Y-124436713D01*
X91830713Y-124608733D01*
X91695557Y-124811008D01*
X91602460Y-125035764D01*
X91555000Y-125274363D01*
X73281304Y-125274363D01*
X68515606Y-120508665D01*
X84671000Y-120508665D01*
X84671000Y-120791335D01*
X84726147Y-121068574D01*
X84834320Y-121329727D01*
X84991363Y-121564759D01*
X85191241Y-121764637D01*
X85426273Y-121921680D01*
X85687426Y-122029853D01*
X85964665Y-122085000D01*
X86247335Y-122085000D01*
X86524574Y-122029853D01*
X86785727Y-121921680D01*
X87020759Y-121764637D01*
X87220637Y-121564759D01*
X87322707Y-121412000D01*
X91251928Y-121412000D01*
X91251928Y-121646000D01*
X91264188Y-121770482D01*
X91300498Y-121890180D01*
X91359463Y-122000494D01*
X91438815Y-122097185D01*
X91535506Y-122176537D01*
X91645820Y-122235502D01*
X91765518Y-122271812D01*
X91890000Y-122284072D01*
X93690000Y-122284072D01*
X93814482Y-122271812D01*
X93934180Y-122235502D01*
X94044494Y-122176537D01*
X94141185Y-122097185D01*
X94220537Y-122000494D01*
X94279502Y-121890180D01*
X94315812Y-121770482D01*
X94328072Y-121646000D01*
X94328072Y-120274363D01*
X96555000Y-120274363D01*
X96555000Y-120517637D01*
X96602460Y-120756236D01*
X96695557Y-120980992D01*
X96830713Y-121183267D01*
X97002733Y-121355287D01*
X97205008Y-121490443D01*
X97429764Y-121583540D01*
X97668363Y-121631000D01*
X97911637Y-121631000D01*
X98150236Y-121583540D01*
X98374992Y-121490443D01*
X98577267Y-121355287D01*
X98749287Y-121183267D01*
X98884443Y-120980992D01*
X98977540Y-120756236D01*
X99025000Y-120517637D01*
X99025000Y-120274363D01*
X98977540Y-120035764D01*
X98884443Y-119811008D01*
X98749287Y-119608733D01*
X98577267Y-119436713D01*
X98374992Y-119301557D01*
X98150236Y-119208460D01*
X97911637Y-119161000D01*
X97668363Y-119161000D01*
X97429764Y-119208460D01*
X97205008Y-119301557D01*
X97002733Y-119436713D01*
X96830713Y-119608733D01*
X96695557Y-119811008D01*
X96602460Y-120035764D01*
X96555000Y-120274363D01*
X94328072Y-120274363D01*
X94328072Y-119146000D01*
X94315812Y-119021518D01*
X94279502Y-118901820D01*
X94220537Y-118791506D01*
X94141185Y-118694815D01*
X94044494Y-118615463D01*
X93934180Y-118556498D01*
X93814482Y-118520188D01*
X93690000Y-118507928D01*
X91890000Y-118507928D01*
X91765518Y-118520188D01*
X91645820Y-118556498D01*
X91535506Y-118615463D01*
X91438815Y-118694815D01*
X91359463Y-118791506D01*
X91300498Y-118901820D01*
X91264188Y-119021518D01*
X91251928Y-119146000D01*
X91251928Y-119888000D01*
X87322707Y-119888000D01*
X87220637Y-119735241D01*
X87020759Y-119535363D01*
X86785727Y-119378320D01*
X86524574Y-119270147D01*
X86247335Y-119215000D01*
X85964665Y-119215000D01*
X85687426Y-119270147D01*
X85426273Y-119378320D01*
X85191241Y-119535363D01*
X84991363Y-119735241D01*
X84834320Y-119970273D01*
X84726147Y-120231426D01*
X84671000Y-120508665D01*
X68515606Y-120508665D01*
X67427147Y-119420207D01*
X67549447Y-119354837D01*
X67622241Y-119109846D01*
X66802000Y-118289605D01*
X66787858Y-118303748D01*
X66608253Y-118124143D01*
X66622395Y-118110000D01*
X66608253Y-118095858D01*
X66787858Y-117916253D01*
X66802000Y-117930395D01*
X67622241Y-117110154D01*
X67549447Y-116865163D01*
X67499803Y-116841636D01*
X67723137Y-116692409D01*
X67924409Y-116491137D01*
X68072000Y-116270252D01*
X68219591Y-116491137D01*
X68420863Y-116692409D01*
X68641748Y-116840000D01*
X68420863Y-116987591D01*
X68219591Y-117188863D01*
X68072035Y-117409696D01*
X68046837Y-117362553D01*
X67801846Y-117289759D01*
X66981605Y-118110000D01*
X67801846Y-118930241D01*
X68046837Y-118857447D01*
X68070364Y-118807803D01*
X68219591Y-119031137D01*
X68420863Y-119232409D01*
X68657533Y-119390547D01*
X68920508Y-119499474D01*
X69199679Y-119555005D01*
X69484321Y-119555005D01*
X69763492Y-119499474D01*
X70026467Y-119390547D01*
X70263137Y-119232409D01*
X70464409Y-119031137D01*
X70622547Y-118794467D01*
X70731474Y-118531492D01*
X70787005Y-118252321D01*
X70787005Y-117967679D01*
X70731474Y-117688508D01*
X70622547Y-117425533D01*
X70464409Y-117188863D01*
X70263137Y-116987591D01*
X70042252Y-116840000D01*
X70263137Y-116692409D01*
X70464409Y-116491137D01*
X70622547Y-116254467D01*
X70731474Y-115991492D01*
X70787005Y-115712321D01*
X70787005Y-115427679D01*
X70731474Y-115148508D01*
X70622547Y-114885533D01*
X70464409Y-114648863D01*
X70263137Y-114447591D01*
X70042252Y-114300000D01*
X70263137Y-114152409D01*
X70464409Y-113951137D01*
X70622547Y-113714467D01*
X70731474Y-113451492D01*
X70787005Y-113172321D01*
X70787005Y-112887679D01*
X70731474Y-112608508D01*
X70622547Y-112345533D01*
X70464409Y-112108863D01*
X70263137Y-111907591D01*
X70042252Y-111760000D01*
X70263137Y-111612409D01*
X70464409Y-111411137D01*
X70622547Y-111174467D01*
X70731474Y-110911492D01*
X70787005Y-110632321D01*
X70787005Y-110347679D01*
X70731474Y-110068508D01*
X70622547Y-109805533D01*
X70464409Y-109568863D01*
X70263137Y-109367591D01*
X70042252Y-109220000D01*
X70263137Y-109072409D01*
X70464409Y-108871137D01*
X70622547Y-108634467D01*
X70731474Y-108371492D01*
X70787005Y-108092321D01*
X70787005Y-107807679D01*
X70731474Y-107528508D01*
X70622547Y-107265533D01*
X70464409Y-107028863D01*
X70263137Y-106827591D01*
X70042252Y-106680000D01*
X70263137Y-106532409D01*
X70464409Y-106331137D01*
X70622547Y-106094467D01*
X70731474Y-105831492D01*
X70787005Y-105552321D01*
X70787005Y-105267679D01*
X70731474Y-104988508D01*
X70622547Y-104725533D01*
X70464409Y-104488863D01*
X70263137Y-104287591D01*
X70042252Y-104140000D01*
X70263137Y-103992409D01*
X70464409Y-103791137D01*
X70622547Y-103554467D01*
X70731474Y-103291492D01*
X70787005Y-103012321D01*
X70787005Y-102727679D01*
X70731474Y-102448508D01*
X70622547Y-102185533D01*
X70464409Y-101948863D01*
X70263137Y-101747591D01*
X70042252Y-101600000D01*
X70263137Y-101452409D01*
X70464409Y-101251137D01*
X70570741Y-101092000D01*
X90324172Y-101092000D01*
X112232533Y-123000362D01*
X112256390Y-123029432D01*
X112372420Y-123124655D01*
X112504797Y-123195412D01*
X112648434Y-123238984D01*
X112760386Y-123250010D01*
X112760388Y-123250010D01*
X112797811Y-123253696D01*
X112835234Y-123250010D01*
X230496369Y-123250010D01*
X230533792Y-123253696D01*
X230571215Y-123250010D01*
X230571218Y-123250010D01*
X230683170Y-123238984D01*
X230826807Y-123195412D01*
X230959184Y-123124655D01*
X231075214Y-123029432D01*
X231099075Y-123000357D01*
X231583352Y-122516081D01*
X231612423Y-122492223D01*
X231707646Y-122376193D01*
X231778403Y-122243816D01*
X231821975Y-122100179D01*
X231833001Y-121988227D01*
X231833001Y-121988225D01*
X231836687Y-121950802D01*
X231833001Y-121913379D01*
X231833001Y-84042424D01*
X231836687Y-84005001D01*
X231827586Y-83912598D01*
X231821975Y-83855623D01*
X231778403Y-83711986D01*
X231721741Y-83605979D01*
X231707646Y-83579608D01*
X231636280Y-83492649D01*
X231612423Y-83463579D01*
X231583354Y-83439723D01*
X227539613Y-79395983D01*
X227719557Y-79371728D01*
X228033527Y-79264069D01*
X228219661Y-79164579D01*
X228321461Y-78895066D01*
X227330000Y-77903605D01*
X227315858Y-77917748D01*
X227136253Y-77738143D01*
X227150395Y-77724000D01*
X227509605Y-77724000D01*
X228501066Y-78715461D01*
X228770579Y-78613661D01*
X228916463Y-78315523D01*
X229001380Y-77994654D01*
X229022066Y-77663383D01*
X228977728Y-77334443D01*
X228870069Y-77020473D01*
X228770579Y-76834339D01*
X228501066Y-76732539D01*
X227509605Y-77724000D01*
X227150395Y-77724000D01*
X226158934Y-76732539D01*
X226155042Y-76734009D01*
X226098825Y-76649875D01*
X226012290Y-76563340D01*
X226022696Y-76552934D01*
X226338539Y-76552934D01*
X227330000Y-77544395D01*
X228321461Y-76552934D01*
X228219661Y-76283421D01*
X227921523Y-76137537D01*
X227600654Y-76052620D01*
X227269383Y-76031934D01*
X226940443Y-76076272D01*
X226626473Y-76183931D01*
X226440339Y-76283421D01*
X226338539Y-76552934D01*
X226022696Y-76552934D01*
X228786474Y-73789157D01*
X228966665Y-73825000D01*
X229249335Y-73825000D01*
X229526574Y-73769853D01*
X229787727Y-73661680D01*
X230022759Y-73504637D01*
X230222637Y-73304759D01*
X230379680Y-73069727D01*
X230487853Y-72808574D01*
X230543000Y-72531335D01*
X230543000Y-72248665D01*
X230487853Y-71971426D01*
X230379680Y-71710273D01*
X230222637Y-71475241D01*
X230022759Y-71275363D01*
X229787727Y-71118320D01*
X229526574Y-71010147D01*
X229249335Y-70955000D01*
X228966665Y-70955000D01*
X228689426Y-71010147D01*
X228428273Y-71118320D01*
X228193241Y-71275363D01*
X227993363Y-71475241D01*
X227836320Y-71710273D01*
X227728147Y-71971426D01*
X227673000Y-72248665D01*
X227673000Y-72531335D01*
X227708843Y-72711526D01*
X224321113Y-76099257D01*
X224298504Y-76103754D01*
X223991853Y-76230772D01*
X223715875Y-76415175D01*
X223520000Y-76611050D01*
X223324125Y-76415175D01*
X223048147Y-76230772D01*
X222741496Y-76103754D01*
X222415958Y-76039000D01*
X222084042Y-76039000D01*
X221758504Y-76103754D01*
X221722357Y-76118726D01*
X219710000Y-74106370D01*
X219710000Y-73606707D01*
X219862759Y-73504637D01*
X220062637Y-73304759D01*
X220219680Y-73069727D01*
X220327853Y-72808574D01*
X220383000Y-72531335D01*
X220383000Y-72248665D01*
X220327853Y-71971426D01*
X220219680Y-71710273D01*
X220062637Y-71475241D01*
X219862759Y-71275363D01*
X219627727Y-71118320D01*
X219366574Y-71010147D01*
X219089335Y-70955000D01*
X218806665Y-70955000D01*
X218529426Y-71010147D01*
X218268273Y-71118320D01*
X218033241Y-71275363D01*
X217833363Y-71475241D01*
X217676320Y-71710273D01*
X217568147Y-71971426D01*
X217513000Y-72248665D01*
X217513000Y-72427999D01*
X200505629Y-72427999D01*
X191573284Y-63495654D01*
X191549422Y-63466578D01*
X191433392Y-63371355D01*
X191301015Y-63300598D01*
X191157378Y-63257026D01*
X191045426Y-63246000D01*
X191045423Y-63246000D01*
X191008000Y-63242314D01*
X190970577Y-63246000D01*
X77761423Y-63246000D01*
X77724000Y-63242314D01*
X77686577Y-63246000D01*
X77686574Y-63246000D01*
X77574622Y-63257026D01*
X77430985Y-63300598D01*
X77369364Y-63333535D01*
X77298607Y-63371355D01*
X77256219Y-63406143D01*
X77182578Y-63466578D01*
X77158716Y-63495654D01*
X67132036Y-73522334D01*
X66944321Y-73484995D01*
X66659679Y-73484995D01*
X66380508Y-73540526D01*
X66117533Y-73649453D01*
X65880863Y-73807591D01*
X65679591Y-74008863D01*
X65521453Y-74245533D01*
X65412526Y-74508508D01*
X65356995Y-74787679D01*
X65356995Y-75072321D01*
X65412526Y-75351492D01*
X65521453Y-75614467D01*
X65679591Y-75851137D01*
X65880863Y-76052409D01*
X66101748Y-76200000D01*
X65880863Y-76347591D01*
X65679591Y-76548863D01*
X65521453Y-76785533D01*
X65412526Y-77048508D01*
X65356995Y-77327679D01*
X65356995Y-77612321D01*
X65412526Y-77891492D01*
X65521453Y-78154467D01*
X65679591Y-78391137D01*
X65880863Y-78592409D01*
X66101748Y-78740000D01*
X65880863Y-78887591D01*
X65679591Y-79088863D01*
X65521453Y-79325533D01*
X65412526Y-79588508D01*
X65356995Y-79867679D01*
X65356995Y-80152321D01*
X65412526Y-80431492D01*
X65521453Y-80694467D01*
X65679591Y-80931137D01*
X65880863Y-81132409D01*
X66101748Y-81280000D01*
X65880863Y-81427591D01*
X65679591Y-81628863D01*
X65521453Y-81865533D01*
X65412526Y-82128508D01*
X65356995Y-82407679D01*
X65356995Y-82692321D01*
X65412526Y-82971492D01*
X65521453Y-83234467D01*
X65679591Y-83471137D01*
X65880863Y-83672409D01*
X66101748Y-83820000D01*
X65880863Y-83967591D01*
X65679591Y-84168863D01*
X65521453Y-84405533D01*
X65412526Y-84668508D01*
X65356995Y-84947679D01*
X65356995Y-85232321D01*
X65412526Y-85511492D01*
X65521453Y-85774467D01*
X65679591Y-86011137D01*
X65880863Y-86212409D01*
X66101748Y-86360000D01*
X65880863Y-86507591D01*
X65679591Y-86708863D01*
X65521453Y-86945533D01*
X65412526Y-87208508D01*
X65356995Y-87487679D01*
X65356995Y-87772321D01*
X65412526Y-88051492D01*
X65521453Y-88314467D01*
X65679591Y-88551137D01*
X65880863Y-88752409D01*
X66101748Y-88900000D01*
X65880863Y-89047591D01*
X65679591Y-89248863D01*
X65521453Y-89485533D01*
X65412526Y-89748508D01*
X65356995Y-90027679D01*
X65356995Y-90312321D01*
X65412526Y-90591492D01*
X65521453Y-90854467D01*
X65679591Y-91091137D01*
X65880863Y-91292409D01*
X66101748Y-91440000D01*
X65880863Y-91587591D01*
X65679591Y-91788863D01*
X65521453Y-92025533D01*
X65412526Y-92288508D01*
X65356995Y-92567679D01*
X65356995Y-92852321D01*
X65412526Y-93131492D01*
X65521453Y-93394467D01*
X65679591Y-93631137D01*
X65880863Y-93832409D01*
X66101748Y-93980000D01*
X65880863Y-94127591D01*
X65679591Y-94328863D01*
X65521453Y-94565533D01*
X65412526Y-94828508D01*
X65356995Y-95107679D01*
X65356995Y-95392321D01*
X65412526Y-95671492D01*
X65521453Y-95934467D01*
X65679591Y-96171137D01*
X65880863Y-96372409D01*
X66101748Y-96520000D01*
X65880863Y-96667591D01*
X65679591Y-96868863D01*
X65570033Y-97032828D01*
X65507102Y-97039026D01*
X65363465Y-97082598D01*
X65231088Y-97153355D01*
X65115058Y-97248578D01*
X65094555Y-97273561D01*
X65069572Y-97294064D01*
X65037539Y-97333097D01*
X64974349Y-97410094D01*
X64936529Y-97480851D01*
X64903592Y-97542472D01*
X64860020Y-97686109D01*
X64848994Y-97798060D01*
X64845308Y-97835486D01*
X64286846Y-97835486D01*
X64411727Y-61620000D01*
X233271721Y-61620000D01*
X233022273Y-133960000D01*
G36*
X199624715Y-73702345D02*
G01*
X199648577Y-73731421D01*
X199695407Y-73769853D01*
X199764606Y-73826644D01*
X199807665Y-73849659D01*
X199896984Y-73897401D01*
X200040621Y-73940973D01*
X200152573Y-73951999D01*
X200152576Y-73951999D01*
X200189999Y-73955685D01*
X200227422Y-73951999D01*
X218110578Y-73951999D01*
X218148001Y-73955685D01*
X218185424Y-73951999D01*
X218185427Y-73951999D01*
X218186001Y-73951942D01*
X218186001Y-74384567D01*
X218182314Y-74422000D01*
X218197027Y-74571378D01*
X218240599Y-74715015D01*
X218311355Y-74847392D01*
X218354809Y-74900340D01*
X218406579Y-74963422D01*
X218435649Y-74987279D01*
X220644726Y-77196357D01*
X220629754Y-77232504D01*
X220565000Y-77558042D01*
X220565000Y-77889958D01*
X220629754Y-78215496D01*
X220756772Y-78522147D01*
X220941175Y-78798125D01*
X221175875Y-79032825D01*
X221451853Y-79217228D01*
X221758504Y-79344246D01*
X222084042Y-79409000D01*
X222415958Y-79409000D01*
X222741496Y-79344246D01*
X223048147Y-79217228D01*
X223324125Y-79032825D01*
X223520000Y-78836950D01*
X223715875Y-79032825D01*
X223991853Y-79217228D01*
X224298504Y-79344246D01*
X224624042Y-79409000D01*
X224955958Y-79409000D01*
X225281496Y-79344246D01*
X225317643Y-79329273D01*
X230309001Y-84320632D01*
X230309001Y-96359928D01*
X228314000Y-96359928D01*
X228189518Y-96372188D01*
X228069820Y-96408498D01*
X227959506Y-96467463D01*
X227862815Y-96546815D01*
X227783463Y-96643506D01*
X227724498Y-96753820D01*
X227688188Y-96873518D01*
X227675928Y-96998000D01*
X227675928Y-99598000D01*
X227688188Y-99722482D01*
X227724498Y-99842180D01*
X227783463Y-99952494D01*
X227862815Y-100049185D01*
X227959506Y-100128537D01*
X228069820Y-100187502D01*
X228189518Y-100223812D01*
X228314000Y-100236072D01*
X230309001Y-100236072D01*
X230309002Y-116454178D01*
X230302352Y-116448721D01*
X215851631Y-101998000D01*
X224375928Y-101998000D01*
X224375928Y-103998000D01*
X224388188Y-104122482D01*
X224424498Y-104242180D01*
X224483463Y-104352494D01*
X224562815Y-104449185D01*
X224659506Y-104528537D01*
X224769820Y-104587502D01*
X224889518Y-104623812D01*
X225014000Y-104636072D01*
X227614000Y-104636072D01*
X227738482Y-104623812D01*
X227858180Y-104587502D01*
X227968494Y-104528537D01*
X228065185Y-104449185D01*
X228144537Y-104352494D01*
X228203502Y-104242180D01*
X228239812Y-104122482D01*
X228252072Y-103998000D01*
X228252072Y-101998000D01*
X228239812Y-101873518D01*
X228203502Y-101753820D01*
X228144537Y-101643506D01*
X228065185Y-101546815D01*
X227968494Y-101467463D01*
X227858180Y-101408498D01*
X227738482Y-101372188D01*
X227614000Y-101359928D01*
X225014000Y-101359928D01*
X224889518Y-101372188D01*
X224769820Y-101408498D01*
X224659506Y-101467463D01*
X224562815Y-101546815D01*
X224483463Y-101643506D01*
X224424498Y-101753820D01*
X224388188Y-101873518D01*
X224375928Y-101998000D01*
X215851631Y-101998000D01*
X213451631Y-99598000D01*
X221675928Y-99598000D01*
X221688188Y-99722482D01*
X221724498Y-99842180D01*
X221783463Y-99952494D01*
X221862815Y-100049185D01*
X221959506Y-100128537D01*
X222069820Y-100187502D01*
X222189518Y-100223812D01*
X222314000Y-100236072D01*
X223028250Y-100233000D01*
X223187000Y-100074250D01*
X223187000Y-98425000D01*
X223441000Y-98425000D01*
X223441000Y-100074250D01*
X223599750Y-100233000D01*
X224314000Y-100236072D01*
X224438482Y-100223812D01*
X224558180Y-100187502D01*
X224668494Y-100128537D01*
X224765185Y-100049185D01*
X224844537Y-99952494D01*
X224903502Y-99842180D01*
X224939812Y-99722482D01*
X224952072Y-99598000D01*
X224949000Y-98583750D01*
X224790250Y-98425000D01*
X223441000Y-98425000D01*
X223187000Y-98425000D01*
X221837750Y-98425000D01*
X221679000Y-98583750D01*
X221675928Y-99598000D01*
X213451631Y-99598000D01*
X210851631Y-96998000D01*
X221675928Y-96998000D01*
X221679000Y-98012250D01*
X221837750Y-98171000D01*
X223187000Y-98171000D01*
X223187000Y-96521750D01*
X223441000Y-96521750D01*
X223441000Y-98171000D01*
X224790250Y-98171000D01*
X224949000Y-98012250D01*
X224952072Y-96998000D01*
X224939812Y-96873518D01*
X224903502Y-96753820D01*
X224844537Y-96643506D01*
X224765185Y-96546815D01*
X224668494Y-96467463D01*
X224558180Y-96408498D01*
X224438482Y-96372188D01*
X224314000Y-96359928D01*
X223599750Y-96363000D01*
X223441000Y-96521750D01*
X223187000Y-96521750D01*
X223028250Y-96363000D01*
X222314000Y-96359928D01*
X222189518Y-96372188D01*
X222069820Y-96408498D01*
X221959506Y-96467463D01*
X221862815Y-96546815D01*
X221783463Y-96643506D01*
X221724498Y-96753820D01*
X221688188Y-96873518D01*
X221675928Y-96998000D01*
X210851631Y-96998000D01*
X207478201Y-93624571D01*
X207529000Y-93369184D01*
X207529000Y-93066816D01*
X207470011Y-92770257D01*
X207354299Y-92490905D01*
X207186312Y-92239495D01*
X206972505Y-92025688D01*
X206818895Y-91923049D01*
X206878475Y-91742080D01*
X205994000Y-90857605D01*
X205979858Y-90871748D01*
X205800253Y-90692143D01*
X205814395Y-90678000D01*
X206173605Y-90678000D01*
X207058080Y-91562475D01*
X207312261Y-91478792D01*
X207443158Y-91206225D01*
X207518365Y-90913358D01*
X207534991Y-90611447D01*
X207492397Y-90312093D01*
X207392222Y-90026801D01*
X207312261Y-89877208D01*
X207058080Y-89793525D01*
X206173605Y-90678000D01*
X205814395Y-90678000D01*
X204929920Y-89793525D01*
X204675739Y-89877208D01*
X204544842Y-90149775D01*
X204469635Y-90442642D01*
X204460586Y-90606956D01*
X202398201Y-88544571D01*
X202449000Y-88289184D01*
X202449000Y-87986816D01*
X204459000Y-87986816D01*
X204459000Y-88289184D01*
X204517989Y-88585743D01*
X204633701Y-88865095D01*
X204801688Y-89116505D01*
X205015495Y-89330312D01*
X205169105Y-89432951D01*
X205109525Y-89613920D01*
X205994000Y-90498395D01*
X206878475Y-89613920D01*
X206818895Y-89432951D01*
X206972505Y-89330312D01*
X207186312Y-89116505D01*
X207354299Y-88865095D01*
X207470011Y-88585743D01*
X207529000Y-88289184D01*
X207529000Y-87986816D01*
X207470011Y-87690257D01*
X207354299Y-87410905D01*
X207186312Y-87159495D01*
X206972505Y-86945688D01*
X206721095Y-86777701D01*
X206441743Y-86661989D01*
X206145184Y-86603000D01*
X205842816Y-86603000D01*
X205546257Y-86661989D01*
X205266905Y-86777701D01*
X205015495Y-86945688D01*
X204801688Y-87159495D01*
X204633701Y-87410905D01*
X204517989Y-87690257D01*
X204459000Y-87986816D01*
X202449000Y-87986816D01*
X202390011Y-87690257D01*
X202274299Y-87410905D01*
X202106312Y-87159495D01*
X201892505Y-86945688D01*
X201641095Y-86777701D01*
X201361743Y-86661989D01*
X201065184Y-86603000D01*
X200762816Y-86603000D01*
X200466257Y-86661989D01*
X200186905Y-86777701D01*
X199935495Y-86945688D01*
X199721688Y-87159495D01*
X199553701Y-87410905D01*
X199437989Y-87690257D01*
X199379000Y-87986816D01*
X199379000Y-88289184D01*
X199437989Y-88585743D01*
X199553701Y-88865095D01*
X199721688Y-89116505D01*
X199935495Y-89330312D01*
X200051763Y-89408000D01*
X199935495Y-89485688D01*
X199721688Y-89699495D01*
X199553701Y-89950905D01*
X199437989Y-90230257D01*
X199379000Y-90526816D01*
X199379000Y-90829184D01*
X199437989Y-91125743D01*
X199553701Y-91405095D01*
X199721688Y-91656505D01*
X199935495Y-91870312D01*
X200051763Y-91948000D01*
X199935495Y-92025688D01*
X199721688Y-92239495D01*
X199553701Y-92490905D01*
X199437989Y-92770257D01*
X199379000Y-93066816D01*
X199379000Y-93369184D01*
X199437989Y-93665743D01*
X199553701Y-93945095D01*
X199721688Y-94196505D01*
X199935495Y-94410312D01*
X200186905Y-94578299D01*
X200466257Y-94694011D01*
X200762816Y-94753000D01*
X201065184Y-94753000D01*
X201361743Y-94694011D01*
X201433002Y-94664495D01*
X201433001Y-96851505D01*
X201361743Y-96821989D01*
X201065184Y-96763000D01*
X200762816Y-96763000D01*
X200507430Y-96813799D01*
X192483285Y-88789655D01*
X192459423Y-88760579D01*
X192343393Y-88665356D01*
X192211016Y-88594599D01*
X192067379Y-88551027D01*
X191955427Y-88540001D01*
X191955424Y-88540001D01*
X191918001Y-88536315D01*
X191880578Y-88540001D01*
X170754103Y-88540001D01*
X170841891Y-88408617D01*
X171006224Y-88011883D01*
X171090000Y-87590711D01*
X171090000Y-87161289D01*
X171006224Y-86740117D01*
X170942000Y-86585067D01*
X170942000Y-79248000D01*
X179060169Y-79248000D01*
X179099403Y-79646340D01*
X179215594Y-80029374D01*
X179404280Y-80382381D01*
X179512555Y-80514314D01*
X179658208Y-80691793D01*
X179735743Y-80755425D01*
X184509109Y-85528791D01*
X184669490Y-85915985D01*
X184919008Y-86289415D01*
X185236585Y-86606992D01*
X185610015Y-86856510D01*
X186024949Y-87028381D01*
X186465440Y-87116000D01*
X186914560Y-87116000D01*
X187355051Y-87028381D01*
X187769985Y-86856510D01*
X188143415Y-86606992D01*
X188460992Y-86289415D01*
X188710510Y-85915985D01*
X188882381Y-85501051D01*
X188970000Y-85060560D01*
X188970000Y-84611440D01*
X188882381Y-84170949D01*
X188710510Y-83756015D01*
X188460992Y-83382585D01*
X188143415Y-83065008D01*
X187769985Y-82815490D01*
X187382791Y-82655109D01*
X183134000Y-78406319D01*
X183134000Y-66956184D01*
X183104598Y-66657659D01*
X182990072Y-66280117D01*
X182990072Y-65806000D01*
X182977812Y-65681518D01*
X182941502Y-65561820D01*
X182882537Y-65451506D01*
X182803185Y-65354815D01*
X182706494Y-65275463D01*
X182596180Y-65216498D01*
X182476482Y-65180188D01*
X182352000Y-65167928D01*
X181877882Y-65167928D01*
X181500340Y-65053402D01*
X181102000Y-65014169D01*
X180703659Y-65053402D01*
X180326117Y-65167928D01*
X179852000Y-65167928D01*
X179727518Y-65180188D01*
X179607820Y-65216498D01*
X179497506Y-65275463D01*
X179400815Y-65354815D01*
X179321463Y-65451506D01*
X179262498Y-65561820D01*
X179226188Y-65681518D01*
X179213928Y-65806000D01*
X179213928Y-66280118D01*
X179099402Y-66657660D01*
X179070000Y-66956185D01*
X179070001Y-79148177D01*
X179060169Y-79248000D01*
X170942000Y-79248000D01*
X170942000Y-75089681D01*
X177609421Y-68422261D01*
X177799720Y-68190381D01*
X177988406Y-67837375D01*
X178104597Y-67454341D01*
X178143831Y-67056000D01*
X178104597Y-66657660D01*
X177988406Y-66274626D01*
X177799720Y-65921619D01*
X177545792Y-65612208D01*
X177236381Y-65358280D01*
X176883374Y-65169594D01*
X176500340Y-65053403D01*
X176102000Y-65014169D01*
X175703659Y-65053403D01*
X175320625Y-65169594D01*
X174967619Y-65358280D01*
X174735739Y-65548579D01*
X167543744Y-72740575D01*
X167466208Y-72804207D01*
X167385663Y-72902352D01*
X167212280Y-73113619D01*
X167023594Y-73466626D01*
X166964426Y-73661680D01*
X166907403Y-73849659D01*
X166904358Y-73880579D01*
X166868169Y-74248000D01*
X166878001Y-74347823D01*
X166878000Y-86585067D01*
X166813776Y-86740117D01*
X166730000Y-87161289D01*
X166730000Y-87590711D01*
X166813776Y-88011883D01*
X166978109Y-88408617D01*
X167065897Y-88540001D01*
X139004103Y-88540001D01*
X139091891Y-88408617D01*
X139256224Y-88011883D01*
X139340000Y-87590711D01*
X139340000Y-87161289D01*
X139256224Y-86740117D01*
X139192000Y-86585067D01*
X139192000Y-79502000D01*
X147564169Y-79502000D01*
X147584887Y-79712347D01*
X147603403Y-79900341D01*
X147618761Y-79950969D01*
X147719594Y-80283374D01*
X147908280Y-80636381D01*
X148010531Y-80760974D01*
X148162208Y-80945793D01*
X148239743Y-81009425D01*
X152759109Y-85528791D01*
X152919490Y-85915985D01*
X153169008Y-86289415D01*
X153486585Y-86606992D01*
X153860015Y-86856510D01*
X154274949Y-87028381D01*
X154715440Y-87116000D01*
X155164560Y-87116000D01*
X155605051Y-87028381D01*
X156019985Y-86856510D01*
X156393415Y-86606992D01*
X156710992Y-86289415D01*
X156960510Y-85915985D01*
X157132381Y-85501051D01*
X157220000Y-85060560D01*
X157220000Y-84611440D01*
X157132381Y-84170949D01*
X156960510Y-83756015D01*
X156710992Y-83382585D01*
X156393415Y-83065008D01*
X156019985Y-82815490D01*
X155632791Y-82655109D01*
X151638000Y-78660319D01*
X151638000Y-67210184D01*
X151608598Y-66911659D01*
X151494072Y-66534117D01*
X151494072Y-66060000D01*
X151481812Y-65935518D01*
X151445502Y-65815820D01*
X151386537Y-65705506D01*
X151307185Y-65608815D01*
X151210494Y-65529463D01*
X151100180Y-65470498D01*
X150980482Y-65434188D01*
X150856000Y-65421928D01*
X150381882Y-65421928D01*
X150004340Y-65307402D01*
X149606000Y-65268169D01*
X149207659Y-65307402D01*
X148830117Y-65421928D01*
X148356000Y-65421928D01*
X148231518Y-65434188D01*
X148111820Y-65470498D01*
X148001506Y-65529463D01*
X147904815Y-65608815D01*
X147825463Y-65705506D01*
X147766498Y-65815820D01*
X147730188Y-65935518D01*
X147717928Y-66060000D01*
X147717928Y-66534118D01*
X147603402Y-66911660D01*
X147574000Y-67210185D01*
X147574001Y-79402177D01*
X147564169Y-79502000D01*
X139192000Y-79502000D01*
X139192000Y-75597681D01*
X146113421Y-68676261D01*
X146303720Y-68444382D01*
X146492405Y-68091376D01*
X146608597Y-67708341D01*
X146647831Y-67310001D01*
X146608597Y-66911660D01*
X146492405Y-66528626D01*
X146303720Y-66175620D01*
X146049792Y-65866208D01*
X145740380Y-65612280D01*
X145387374Y-65423595D01*
X145004340Y-65307403D01*
X144605999Y-65268169D01*
X144207659Y-65307403D01*
X143824624Y-65423595D01*
X143471618Y-65612280D01*
X143239739Y-65802579D01*
X135793744Y-73248575D01*
X135716208Y-73312207D01*
X135652579Y-73389740D01*
X135462280Y-73621619D01*
X135273594Y-73974626D01*
X135157403Y-74357660D01*
X135118169Y-74756000D01*
X135128001Y-74855823D01*
X135128000Y-86585067D01*
X135063776Y-86740117D01*
X134980000Y-87161289D01*
X134980000Y-87590711D01*
X135063776Y-88011883D01*
X135228109Y-88408617D01*
X135315897Y-88540001D01*
X107254103Y-88540001D01*
X107341891Y-88408617D01*
X107506224Y-88011883D01*
X107590000Y-87590711D01*
X107590000Y-87161289D01*
X107506224Y-86740117D01*
X107442000Y-86585067D01*
X107442000Y-79502000D01*
X115814169Y-79502000D01*
X115834887Y-79712347D01*
X115853403Y-79900341D01*
X115868761Y-79950969D01*
X115969594Y-80283374D01*
X116158280Y-80636381D01*
X116260531Y-80760974D01*
X116412208Y-80945793D01*
X116489743Y-81009425D01*
X121009109Y-85528791D01*
X121169490Y-85915985D01*
X121419008Y-86289415D01*
X121736585Y-86606992D01*
X122110015Y-86856510D01*
X122524949Y-87028381D01*
X122965440Y-87116000D01*
X123414560Y-87116000D01*
X123855051Y-87028381D01*
X124269985Y-86856510D01*
X124643415Y-86606992D01*
X124807290Y-86443117D01*
X129075000Y-86443117D01*
X129075000Y-86784883D01*
X129141675Y-87120081D01*
X129272463Y-87435831D01*
X129462337Y-87719998D01*
X129704002Y-87961663D01*
X129988169Y-88151537D01*
X130303919Y-88282325D01*
X130639117Y-88349000D01*
X130980883Y-88349000D01*
X131316081Y-88282325D01*
X131631831Y-88151537D01*
X131915998Y-87961663D01*
X132157663Y-87719998D01*
X132347537Y-87435831D01*
X132478325Y-87120081D01*
X132545000Y-86784883D01*
X132545000Y-86443117D01*
X132478325Y-86107919D01*
X132347537Y-85792169D01*
X132157663Y-85508002D01*
X131915998Y-85266337D01*
X131631831Y-85076463D01*
X131316081Y-84945675D01*
X130980883Y-84879000D01*
X130639117Y-84879000D01*
X130303919Y-84945675D01*
X129988169Y-85076463D01*
X129704002Y-85266337D01*
X129462337Y-85508002D01*
X129272463Y-85792169D01*
X129141675Y-86107919D01*
X129075000Y-86443117D01*
X124807290Y-86443117D01*
X124960992Y-86289415D01*
X125210510Y-85915985D01*
X125382381Y-85501051D01*
X125470000Y-85060560D01*
X125470000Y-84611440D01*
X125382381Y-84170949D01*
X125210510Y-83756015D01*
X124960992Y-83382585D01*
X124643415Y-83065008D01*
X124269985Y-82815490D01*
X123882791Y-82655109D01*
X119888000Y-78660319D01*
X119888000Y-66956184D01*
X119858598Y-66657659D01*
X119744072Y-66280117D01*
X119744072Y-65806000D01*
X119731812Y-65681518D01*
X119695502Y-65561820D01*
X119636537Y-65451506D01*
X119557185Y-65354815D01*
X119460494Y-65275463D01*
X119350180Y-65216498D01*
X119230482Y-65180188D01*
X119106000Y-65167928D01*
X118631882Y-65167928D01*
X118254340Y-65053402D01*
X117856000Y-65014169D01*
X117457659Y-65053402D01*
X117080117Y-65167928D01*
X116606000Y-65167928D01*
X116481518Y-65180188D01*
X116361820Y-65216498D01*
X116251506Y-65275463D01*
X116154815Y-65354815D01*
X116075463Y-65451506D01*
X116016498Y-65561820D01*
X115980188Y-65681518D01*
X115967928Y-65806000D01*
X115967928Y-66280118D01*
X115853402Y-66657660D01*
X115824000Y-66956185D01*
X115824001Y-79402177D01*
X115814169Y-79502000D01*
X107442000Y-79502000D01*
X107442000Y-75343681D01*
X114363421Y-68422261D01*
X114553720Y-68190382D01*
X114742405Y-67837376D01*
X114858597Y-67454341D01*
X114897831Y-67056001D01*
X114858597Y-66657660D01*
X114742405Y-66274626D01*
X114553720Y-65921620D01*
X114299792Y-65612208D01*
X113990380Y-65358280D01*
X113637374Y-65169595D01*
X113254340Y-65053403D01*
X112855999Y-65014169D01*
X112457659Y-65053403D01*
X112074624Y-65169595D01*
X111721618Y-65358280D01*
X111489739Y-65548579D01*
X104043744Y-72994575D01*
X103966208Y-73058207D01*
X103841587Y-73210058D01*
X103712280Y-73367619D01*
X103523594Y-73720626D01*
X103407403Y-74103660D01*
X103368169Y-74502000D01*
X103378001Y-74601823D01*
X103378000Y-86585067D01*
X103313776Y-86740117D01*
X103230000Y-87161289D01*
X103230000Y-87590711D01*
X103313776Y-88011883D01*
X103478109Y-88408617D01*
X103565897Y-88540001D01*
X101047632Y-88540001D01*
X91569157Y-79061527D01*
X91605000Y-78881335D01*
X91605000Y-78598665D01*
X91549853Y-78321426D01*
X91441680Y-78060273D01*
X91284637Y-77825241D01*
X91084759Y-77625363D01*
X90849727Y-77468320D01*
X90588574Y-77360147D01*
X90311335Y-77305000D01*
X90028665Y-77305000D01*
X89751426Y-77360147D01*
X89490273Y-77468320D01*
X89255241Y-77625363D01*
X89055363Y-77825241D01*
X88898320Y-78060273D01*
X88790147Y-78321426D01*
X88735000Y-78598665D01*
X88735000Y-78881335D01*
X88790147Y-79158574D01*
X88898320Y-79419727D01*
X89055363Y-79654759D01*
X89255241Y-79854637D01*
X89487759Y-80010000D01*
X89255241Y-80165363D01*
X89055363Y-80365241D01*
X88898320Y-80600273D01*
X88790147Y-80861426D01*
X88735000Y-81138665D01*
X88735000Y-81421335D01*
X88770843Y-81601526D01*
X87968638Y-82403732D01*
X87939568Y-82427589D01*
X87915711Y-82456659D01*
X87915710Y-82456660D01*
X87844344Y-82543619D01*
X87773588Y-82675996D01*
X87730016Y-82819633D01*
X87715303Y-82969011D01*
X87718990Y-83006444D01*
X87718989Y-88921448D01*
X87715303Y-88958871D01*
X87718989Y-88996294D01*
X87718989Y-88996296D01*
X87730015Y-89108248D01*
X87773587Y-89251885D01*
X87773588Y-89251886D01*
X87844344Y-89384263D01*
X87860253Y-89403648D01*
X87939567Y-89500293D01*
X87968643Y-89524155D01*
X89021063Y-90576575D01*
X88898320Y-90760273D01*
X88790147Y-91021426D01*
X88735000Y-91298665D01*
X88735000Y-91581335D01*
X88770843Y-91761527D01*
X88476648Y-92055722D01*
X88447578Y-92079579D01*
X88423721Y-92108649D01*
X88423720Y-92108650D01*
X88352354Y-92195609D01*
X88281598Y-92327986D01*
X88238026Y-92471623D01*
X88223313Y-92621001D01*
X88227000Y-92658434D01*
X88226999Y-94509457D01*
X88223313Y-94546881D01*
X88226999Y-94584304D01*
X88226999Y-94584306D01*
X88238025Y-94696258D01*
X88281597Y-94839895D01*
X88281598Y-94839896D01*
X88352354Y-94972273D01*
X88371000Y-94994993D01*
X88447577Y-95088303D01*
X88476652Y-95112165D01*
X89021063Y-95656575D01*
X88898320Y-95840273D01*
X88790147Y-96101426D01*
X88735000Y-96378665D01*
X88735000Y-96661335D01*
X88790147Y-96938574D01*
X88898320Y-97199727D01*
X89055363Y-97434759D01*
X89255241Y-97634637D01*
X89490273Y-97791680D01*
X89751426Y-97899853D01*
X90028665Y-97955000D01*
X90311335Y-97955000D01*
X90588574Y-97899853D01*
X90849727Y-97791680D01*
X91084759Y-97634637D01*
X91284637Y-97434759D01*
X91441680Y-97199727D01*
X91549853Y-96938574D01*
X91605000Y-96661335D01*
X91605000Y-96378665D01*
X91549853Y-96101426D01*
X91528555Y-96050008D01*
X92432378Y-96050008D01*
X99002720Y-102620351D01*
X99026578Y-102649422D01*
X99142608Y-102744645D01*
X99274985Y-102815402D01*
X99418622Y-102858974D01*
X99530574Y-102870000D01*
X99530576Y-102870000D01*
X99567999Y-102873686D01*
X99605422Y-102870000D01*
X130394370Y-102870000D01*
X146184760Y-118660391D01*
X146142815Y-118694815D01*
X146063463Y-118791506D01*
X146004498Y-118901820D01*
X145968188Y-119021518D01*
X145955928Y-119146000D01*
X145955928Y-121646000D01*
X145963808Y-121726010D01*
X139024192Y-121726010D01*
X139032072Y-121646000D01*
X139032072Y-120274363D01*
X141259000Y-120274363D01*
X141259000Y-120517637D01*
X141306460Y-120756236D01*
X141399557Y-120980992D01*
X141534713Y-121183267D01*
X141706733Y-121355287D01*
X141909008Y-121490443D01*
X142133764Y-121583540D01*
X142372363Y-121631000D01*
X142615637Y-121631000D01*
X142854236Y-121583540D01*
X143078992Y-121490443D01*
X143281267Y-121355287D01*
X143453287Y-121183267D01*
X143588443Y-120980992D01*
X143681540Y-120756236D01*
X143729000Y-120517637D01*
X143729000Y-120274363D01*
X143681540Y-120035764D01*
X143588443Y-119811008D01*
X143453287Y-119608733D01*
X143281267Y-119436713D01*
X143078992Y-119301557D01*
X142854236Y-119208460D01*
X142615637Y-119161000D01*
X142372363Y-119161000D01*
X142133764Y-119208460D01*
X141909008Y-119301557D01*
X141706733Y-119436713D01*
X141534713Y-119608733D01*
X141399557Y-119811008D01*
X141306460Y-120035764D01*
X141259000Y-120274363D01*
X139032072Y-120274363D01*
X139032072Y-119146000D01*
X139019812Y-119021518D01*
X138983502Y-118901820D01*
X138924537Y-118791506D01*
X138845185Y-118694815D01*
X138748494Y-118615463D01*
X138638180Y-118556498D01*
X138518482Y-118520188D01*
X138394000Y-118507928D01*
X136594000Y-118507928D01*
X136469518Y-118520188D01*
X136349820Y-118556498D01*
X136239506Y-118615463D01*
X136142815Y-118694815D01*
X136063463Y-118791506D01*
X136004498Y-118901820D01*
X135968188Y-119021518D01*
X135955928Y-119146000D01*
X135955928Y-121646000D01*
X135963808Y-121726010D01*
X133530192Y-121726010D01*
X133538072Y-121646000D01*
X133538072Y-119146000D01*
X133525812Y-119021518D01*
X133489502Y-118901820D01*
X133430537Y-118791506D01*
X133351185Y-118694815D01*
X133254494Y-118615463D01*
X133144180Y-118556498D01*
X133024482Y-118520188D01*
X132900000Y-118507928D01*
X131100000Y-118507928D01*
X130975518Y-118520188D01*
X130855820Y-118556498D01*
X130745506Y-118615463D01*
X130648815Y-118694815D01*
X130569463Y-118791506D01*
X130510498Y-118901820D01*
X130474188Y-119021518D01*
X130461928Y-119146000D01*
X130461928Y-121646000D01*
X130469808Y-121726010D01*
X123530192Y-121726010D01*
X123538072Y-121646000D01*
X123538072Y-120274363D01*
X125765000Y-120274363D01*
X125765000Y-120517637D01*
X125812460Y-120756236D01*
X125905557Y-120980992D01*
X126040713Y-121183267D01*
X126212733Y-121355287D01*
X126415008Y-121490443D01*
X126639764Y-121583540D01*
X126878363Y-121631000D01*
X127121637Y-121631000D01*
X127360236Y-121583540D01*
X127584992Y-121490443D01*
X127787267Y-121355287D01*
X127959287Y-121183267D01*
X128094443Y-120980992D01*
X128187540Y-120756236D01*
X128235000Y-120517637D01*
X128235000Y-120274363D01*
X128187540Y-120035764D01*
X128094443Y-119811008D01*
X127959287Y-119608733D01*
X127787267Y-119436713D01*
X127584992Y-119301557D01*
X127360236Y-119208460D01*
X127121637Y-119161000D01*
X126878363Y-119161000D01*
X126639764Y-119208460D01*
X126415008Y-119301557D01*
X126212733Y-119436713D01*
X126040713Y-119608733D01*
X125905557Y-119811008D01*
X125812460Y-120035764D01*
X125765000Y-120274363D01*
X123538072Y-120274363D01*
X123538072Y-119146000D01*
X123525812Y-119021518D01*
X123489502Y-118901820D01*
X123430537Y-118791506D01*
X123351185Y-118694815D01*
X123254494Y-118615463D01*
X123144180Y-118556498D01*
X123024482Y-118520188D01*
X122900000Y-118507928D01*
X121100000Y-118507928D01*
X120975518Y-118520188D01*
X120855820Y-118556498D01*
X120745506Y-118615463D01*
X120648815Y-118694815D01*
X120569463Y-118791506D01*
X120510498Y-118901820D01*
X120474188Y-119021518D01*
X120461928Y-119146000D01*
X120461928Y-121646000D01*
X120469808Y-121726010D01*
X113113443Y-121726010D01*
X91205086Y-99817654D01*
X91181224Y-99788578D01*
X91065194Y-99693355D01*
X90932817Y-99622598D01*
X90789180Y-99579026D01*
X90677228Y-99568000D01*
X90677225Y-99568000D01*
X90639802Y-99564314D01*
X90602379Y-99568000D01*
X70570741Y-99568000D01*
X70464409Y-99408863D01*
X70263137Y-99207591D01*
X70042252Y-99060000D01*
X70263137Y-98912409D01*
X70464409Y-98711137D01*
X70622547Y-98474467D01*
X70731474Y-98211492D01*
X70787005Y-97932321D01*
X70787005Y-97647679D01*
X70760157Y-97512702D01*
X81736903Y-97512702D01*
X81808486Y-97756671D01*
X82063996Y-97877571D01*
X82338184Y-97946300D01*
X82620512Y-97960217D01*
X82900130Y-97918787D01*
X83166292Y-97823603D01*
X83291514Y-97756671D01*
X83363097Y-97512702D01*
X82550000Y-96699605D01*
X81736903Y-97512702D01*
X70760157Y-97512702D01*
X70731474Y-97368508D01*
X70622547Y-97105533D01*
X70464409Y-96868863D01*
X70263137Y-96667591D01*
X70147781Y-96590512D01*
X81109783Y-96590512D01*
X81151213Y-96870130D01*
X81246397Y-97136292D01*
X81313329Y-97261514D01*
X81557298Y-97333097D01*
X82370395Y-96520000D01*
X82729605Y-96520000D01*
X83542702Y-97333097D01*
X83786671Y-97261514D01*
X83907571Y-97006004D01*
X83976300Y-96731816D01*
X83990217Y-96449488D01*
X83948787Y-96169870D01*
X83853603Y-95903708D01*
X83786671Y-95778486D01*
X83542702Y-95706903D01*
X82729605Y-96520000D01*
X82370395Y-96520000D01*
X81557298Y-95706903D01*
X81313329Y-95778486D01*
X81192429Y-96033996D01*
X81123700Y-96308184D01*
X81109783Y-96590512D01*
X70147781Y-96590512D01*
X70042252Y-96520000D01*
X70263137Y-96372409D01*
X70464409Y-96171137D01*
X70622547Y-95934467D01*
X70731474Y-95671492D01*
X70787005Y-95392321D01*
X70787005Y-95107679D01*
X70731474Y-94828508D01*
X70622547Y-94565533D01*
X70464409Y-94328863D01*
X70263137Y-94127591D01*
X70042252Y-93980000D01*
X70263137Y-93832409D01*
X70464409Y-93631137D01*
X70622547Y-93394467D01*
X70731474Y-93131492D01*
X70787005Y-92852321D01*
X70787005Y-92567679D01*
X70731474Y-92288508D01*
X70622547Y-92025533D01*
X70464409Y-91788863D01*
X70263137Y-91587591D01*
X70042252Y-91440000D01*
X70263137Y-91292409D01*
X70464409Y-91091137D01*
X70622547Y-90854467D01*
X70731474Y-90591492D01*
X70787005Y-90312321D01*
X70787005Y-90027679D01*
X70731474Y-89748508D01*
X70622547Y-89485533D01*
X70464409Y-89248863D01*
X70263137Y-89047591D01*
X70042252Y-88900000D01*
X70263137Y-88752409D01*
X70464409Y-88551137D01*
X70622547Y-88314467D01*
X70731474Y-88051492D01*
X70787005Y-87772321D01*
X70787005Y-87487679D01*
X70731474Y-87208508D01*
X70622547Y-86945533D01*
X70464409Y-86708863D01*
X70263137Y-86507591D01*
X70042252Y-86360000D01*
X70263137Y-86212409D01*
X70464409Y-86011137D01*
X70622547Y-85774467D01*
X70731474Y-85511492D01*
X70787005Y-85232321D01*
X70787005Y-84947679D01*
X70731474Y-84668508D01*
X70728362Y-84660994D01*
X73677364Y-84660994D01*
X79756001Y-90739632D01*
X79756000Y-91910576D01*
X79752314Y-91948000D01*
X79756000Y-91985423D01*
X79756000Y-91985425D01*
X79767026Y-92097377D01*
X79810598Y-92241014D01*
X79810599Y-92241015D01*
X79881355Y-92373392D01*
X79920983Y-92421678D01*
X79976578Y-92489422D01*
X80005654Y-92513284D01*
X81150843Y-93658473D01*
X81115000Y-93838665D01*
X81115000Y-94121335D01*
X81170147Y-94398574D01*
X81278320Y-94659727D01*
X81435363Y-94894759D01*
X81635241Y-95094637D01*
X81869128Y-95250915D01*
X81808486Y-95283329D01*
X81736903Y-95527298D01*
X82550000Y-96340395D01*
X83363097Y-95527298D01*
X83291514Y-95283329D01*
X83227008Y-95252806D01*
X83229727Y-95251680D01*
X83464759Y-95094637D01*
X83664637Y-94894759D01*
X83821680Y-94659727D01*
X83929853Y-94398574D01*
X83985000Y-94121335D01*
X83985000Y-93838665D01*
X83929853Y-93561426D01*
X83821680Y-93300273D01*
X83664637Y-93065241D01*
X83464759Y-92865363D01*
X83232241Y-92710000D01*
X83464759Y-92554637D01*
X83664637Y-92354759D01*
X83821680Y-92119727D01*
X83929853Y-91858574D01*
X83985000Y-91581335D01*
X83985000Y-91298665D01*
X83929853Y-91021426D01*
X83821680Y-90760273D01*
X83664637Y-90525241D01*
X83464759Y-90325363D01*
X83232241Y-90170000D01*
X83464759Y-90014637D01*
X83664637Y-89814759D01*
X83821680Y-89579727D01*
X83929853Y-89318574D01*
X83985000Y-89041335D01*
X83985000Y-88758665D01*
X83929853Y-88481426D01*
X83821680Y-88220273D01*
X83664637Y-87985241D01*
X83464759Y-87785363D01*
X83232241Y-87630000D01*
X83464759Y-87474637D01*
X83664637Y-87274759D01*
X83821680Y-87039727D01*
X83929853Y-86778574D01*
X83985000Y-86501335D01*
X83985000Y-86218665D01*
X83929853Y-85941426D01*
X83821680Y-85680273D01*
X83664637Y-85445241D01*
X83464759Y-85245363D01*
X83232241Y-85090000D01*
X83464759Y-84934637D01*
X83664637Y-84734759D01*
X83821680Y-84499727D01*
X83929853Y-84238574D01*
X83985000Y-83961335D01*
X83985000Y-83678665D01*
X83929853Y-83401426D01*
X83821680Y-83140273D01*
X83664637Y-82905241D01*
X83464759Y-82705363D01*
X83232241Y-82550000D01*
X83464759Y-82394637D01*
X83664637Y-82194759D01*
X83821680Y-81959727D01*
X83929853Y-81698574D01*
X83985000Y-81421335D01*
X83985000Y-81138665D01*
X83929853Y-80861426D01*
X83821680Y-80600273D01*
X83664637Y-80365241D01*
X83466039Y-80166643D01*
X83474482Y-80165812D01*
X83594180Y-80129502D01*
X83704494Y-80070537D01*
X83801185Y-79991185D01*
X83880537Y-79894494D01*
X83939502Y-79784180D01*
X83975812Y-79664482D01*
X83988072Y-79540000D01*
X83988072Y-77940000D01*
X83975812Y-77815518D01*
X83939502Y-77695820D01*
X83880537Y-77585506D01*
X83801185Y-77488815D01*
X83704494Y-77409463D01*
X83594180Y-77350498D01*
X83474482Y-77314188D01*
X83350000Y-77301928D01*
X81750000Y-77301928D01*
X81625518Y-77314188D01*
X81505820Y-77350498D01*
X81395506Y-77409463D01*
X81311794Y-77478163D01*
X79600278Y-75766648D01*
X79576416Y-75737572D01*
X79460386Y-75642349D01*
X79328009Y-75571592D01*
X79184372Y-75528020D01*
X79072420Y-75516994D01*
X79072417Y-75516994D01*
X79034994Y-75513308D01*
X78997571Y-75516994D01*
X70662921Y-75516994D01*
X70731474Y-75351492D01*
X70787005Y-75072321D01*
X70787005Y-74787679D01*
X70731474Y-74508508D01*
X70622547Y-74245533D01*
X70464409Y-74008863D01*
X70263137Y-73807591D01*
X70026467Y-73649453D01*
X69763492Y-73540526D01*
X69484321Y-73484995D01*
X69324635Y-73484995D01*
X78039630Y-64770000D01*
X190692370Y-64770000D01*
X199624715Y-73702345D01*
G37*
X199624715Y-73702345D02*
X199648577Y-73731421D01*
X199695407Y-73769853D01*
X199764606Y-73826644D01*
X199807665Y-73849659D01*
X199896984Y-73897401D01*
X200040621Y-73940973D01*
X200152573Y-73951999D01*
X200152576Y-73951999D01*
X200189999Y-73955685D01*
X200227422Y-73951999D01*
X218110578Y-73951999D01*
X218148001Y-73955685D01*
X218185424Y-73951999D01*
X218185427Y-73951999D01*
X218186001Y-73951942D01*
X218186001Y-74384567D01*
X218182314Y-74422000D01*
X218197027Y-74571378D01*
X218240599Y-74715015D01*
X218311355Y-74847392D01*
X218354809Y-74900340D01*
X218406579Y-74963422D01*
X218435649Y-74987279D01*
X220644726Y-77196357D01*
X220629754Y-77232504D01*
X220565000Y-77558042D01*
X220565000Y-77889958D01*
X220629754Y-78215496D01*
X220756772Y-78522147D01*
X220941175Y-78798125D01*
X221175875Y-79032825D01*
X221451853Y-79217228D01*
X221758504Y-79344246D01*
X222084042Y-79409000D01*
X222415958Y-79409000D01*
X222741496Y-79344246D01*
X223048147Y-79217228D01*
X223324125Y-79032825D01*
X223520000Y-78836950D01*
X223715875Y-79032825D01*
X223991853Y-79217228D01*
X224298504Y-79344246D01*
X224624042Y-79409000D01*
X224955958Y-79409000D01*
X225281496Y-79344246D01*
X225317643Y-79329273D01*
X230309001Y-84320632D01*
X230309001Y-96359928D01*
X228314000Y-96359928D01*
X228189518Y-96372188D01*
X228069820Y-96408498D01*
X227959506Y-96467463D01*
X227862815Y-96546815D01*
X227783463Y-96643506D01*
X227724498Y-96753820D01*
X227688188Y-96873518D01*
X227675928Y-96998000D01*
X227675928Y-99598000D01*
X227688188Y-99722482D01*
X227724498Y-99842180D01*
X227783463Y-99952494D01*
X227862815Y-100049185D01*
X227959506Y-100128537D01*
X228069820Y-100187502D01*
X228189518Y-100223812D01*
X228314000Y-100236072D01*
X230309001Y-100236072D01*
X230309002Y-116454178D01*
X230302352Y-116448721D01*
X215851631Y-101998000D01*
X224375928Y-101998000D01*
X224375928Y-103998000D01*
X224388188Y-104122482D01*
X224424498Y-104242180D01*
X224483463Y-104352494D01*
X224562815Y-104449185D01*
X224659506Y-104528537D01*
X224769820Y-104587502D01*
X224889518Y-104623812D01*
X225014000Y-104636072D01*
X227614000Y-104636072D01*
X227738482Y-104623812D01*
X227858180Y-104587502D01*
X227968494Y-104528537D01*
X228065185Y-104449185D01*
X228144537Y-104352494D01*
X228203502Y-104242180D01*
X228239812Y-104122482D01*
X228252072Y-103998000D01*
X228252072Y-101998000D01*
X228239812Y-101873518D01*
X228203502Y-101753820D01*
X228144537Y-101643506D01*
X228065185Y-101546815D01*
X227968494Y-101467463D01*
X227858180Y-101408498D01*
X227738482Y-101372188D01*
X227614000Y-101359928D01*
X225014000Y-101359928D01*
X224889518Y-101372188D01*
X224769820Y-101408498D01*
X224659506Y-101467463D01*
X224562815Y-101546815D01*
X224483463Y-101643506D01*
X224424498Y-101753820D01*
X224388188Y-101873518D01*
X224375928Y-101998000D01*
X215851631Y-101998000D01*
X213451631Y-99598000D01*
X221675928Y-99598000D01*
X221688188Y-99722482D01*
X221724498Y-99842180D01*
X221783463Y-99952494D01*
X221862815Y-100049185D01*
X221959506Y-100128537D01*
X222069820Y-100187502D01*
X222189518Y-100223812D01*
X222314000Y-100236072D01*
X223028250Y-100233000D01*
X223187000Y-100074250D01*
X223187000Y-98425000D01*
X223441000Y-98425000D01*
X223441000Y-100074250D01*
X223599750Y-100233000D01*
X224314000Y-100236072D01*
X224438482Y-100223812D01*
X224558180Y-100187502D01*
X224668494Y-100128537D01*
X224765185Y-100049185D01*
X224844537Y-99952494D01*
X224903502Y-99842180D01*
X224939812Y-99722482D01*
X224952072Y-99598000D01*
X224949000Y-98583750D01*
X224790250Y-98425000D01*
X223441000Y-98425000D01*
X223187000Y-98425000D01*
X221837750Y-98425000D01*
X221679000Y-98583750D01*
X221675928Y-99598000D01*
X213451631Y-99598000D01*
X210851631Y-96998000D01*
X221675928Y-96998000D01*
X221679000Y-98012250D01*
X221837750Y-98171000D01*
X223187000Y-98171000D01*
X223187000Y-96521750D01*
X223441000Y-96521750D01*
X223441000Y-98171000D01*
X224790250Y-98171000D01*
X224949000Y-98012250D01*
X224952072Y-96998000D01*
X224939812Y-96873518D01*
X224903502Y-96753820D01*
X224844537Y-96643506D01*
X224765185Y-96546815D01*
X224668494Y-96467463D01*
X224558180Y-96408498D01*
X224438482Y-96372188D01*
X224314000Y-96359928D01*
X223599750Y-96363000D01*
X223441000Y-96521750D01*
X223187000Y-96521750D01*
X223028250Y-96363000D01*
X222314000Y-96359928D01*
X222189518Y-96372188D01*
X222069820Y-96408498D01*
X221959506Y-96467463D01*
X221862815Y-96546815D01*
X221783463Y-96643506D01*
X221724498Y-96753820D01*
X221688188Y-96873518D01*
X221675928Y-96998000D01*
X210851631Y-96998000D01*
X207478201Y-93624571D01*
X207529000Y-93369184D01*
X207529000Y-93066816D01*
X207470011Y-92770257D01*
X207354299Y-92490905D01*
X207186312Y-92239495D01*
X206972505Y-92025688D01*
X206818895Y-91923049D01*
X206878475Y-91742080D01*
X205994000Y-90857605D01*
X205979858Y-90871748D01*
X205800253Y-90692143D01*
X205814395Y-90678000D01*
X206173605Y-90678000D01*
X207058080Y-91562475D01*
X207312261Y-91478792D01*
X207443158Y-91206225D01*
X207518365Y-90913358D01*
X207534991Y-90611447D01*
X207492397Y-90312093D01*
X207392222Y-90026801D01*
X207312261Y-89877208D01*
X207058080Y-89793525D01*
X206173605Y-90678000D01*
X205814395Y-90678000D01*
X204929920Y-89793525D01*
X204675739Y-89877208D01*
X204544842Y-90149775D01*
X204469635Y-90442642D01*
X204460586Y-90606956D01*
X202398201Y-88544571D01*
X202449000Y-88289184D01*
X202449000Y-87986816D01*
X204459000Y-87986816D01*
X204459000Y-88289184D01*
X204517989Y-88585743D01*
X204633701Y-88865095D01*
X204801688Y-89116505D01*
X205015495Y-89330312D01*
X205169105Y-89432951D01*
X205109525Y-89613920D01*
X205994000Y-90498395D01*
X206878475Y-89613920D01*
X206818895Y-89432951D01*
X206972505Y-89330312D01*
X207186312Y-89116505D01*
X207354299Y-88865095D01*
X207470011Y-88585743D01*
X207529000Y-88289184D01*
X207529000Y-87986816D01*
X207470011Y-87690257D01*
X207354299Y-87410905D01*
X207186312Y-87159495D01*
X206972505Y-86945688D01*
X206721095Y-86777701D01*
X206441743Y-86661989D01*
X206145184Y-86603000D01*
X205842816Y-86603000D01*
X205546257Y-86661989D01*
X205266905Y-86777701D01*
X205015495Y-86945688D01*
X204801688Y-87159495D01*
X204633701Y-87410905D01*
X204517989Y-87690257D01*
X204459000Y-87986816D01*
X202449000Y-87986816D01*
X202390011Y-87690257D01*
X202274299Y-87410905D01*
X202106312Y-87159495D01*
X201892505Y-86945688D01*
X201641095Y-86777701D01*
X201361743Y-86661989D01*
X201065184Y-86603000D01*
X200762816Y-86603000D01*
X200466257Y-86661989D01*
X200186905Y-86777701D01*
X199935495Y-86945688D01*
X199721688Y-87159495D01*
X199553701Y-87410905D01*
X199437989Y-87690257D01*
X199379000Y-87986816D01*
X199379000Y-88289184D01*
X199437989Y-88585743D01*
X199553701Y-88865095D01*
X199721688Y-89116505D01*
X199935495Y-89330312D01*
X200051763Y-89408000D01*
X199935495Y-89485688D01*
X199721688Y-89699495D01*
X199553701Y-89950905D01*
X199437989Y-90230257D01*
X199379000Y-90526816D01*
X199379000Y-90829184D01*
X199437989Y-91125743D01*
X199553701Y-91405095D01*
X199721688Y-91656505D01*
X199935495Y-91870312D01*
X200051763Y-91948000D01*
X199935495Y-92025688D01*
X199721688Y-92239495D01*
X199553701Y-92490905D01*
X199437989Y-92770257D01*
X199379000Y-93066816D01*
X199379000Y-93369184D01*
X199437989Y-93665743D01*
X199553701Y-93945095D01*
X199721688Y-94196505D01*
X199935495Y-94410312D01*
X200186905Y-94578299D01*
X200466257Y-94694011D01*
X200762816Y-94753000D01*
X201065184Y-94753000D01*
X201361743Y-94694011D01*
X201433002Y-94664495D01*
X201433001Y-96851505D01*
X201361743Y-96821989D01*
X201065184Y-96763000D01*
X200762816Y-96763000D01*
X200507430Y-96813799D01*
X192483285Y-88789655D01*
X192459423Y-88760579D01*
X192343393Y-88665356D01*
X192211016Y-88594599D01*
X192067379Y-88551027D01*
X191955427Y-88540001D01*
X191955424Y-88540001D01*
X191918001Y-88536315D01*
X191880578Y-88540001D01*
X170754103Y-88540001D01*
X170841891Y-88408617D01*
X171006224Y-88011883D01*
X171090000Y-87590711D01*
X171090000Y-87161289D01*
X171006224Y-86740117D01*
X170942000Y-86585067D01*
X170942000Y-79248000D01*
X179060169Y-79248000D01*
X179099403Y-79646340D01*
X179215594Y-80029374D01*
X179404280Y-80382381D01*
X179512555Y-80514314D01*
X179658208Y-80691793D01*
X179735743Y-80755425D01*
X184509109Y-85528791D01*
X184669490Y-85915985D01*
X184919008Y-86289415D01*
X185236585Y-86606992D01*
X185610015Y-86856510D01*
X186024949Y-87028381D01*
X186465440Y-87116000D01*
X186914560Y-87116000D01*
X187355051Y-87028381D01*
X187769985Y-86856510D01*
X188143415Y-86606992D01*
X188460992Y-86289415D01*
X188710510Y-85915985D01*
X188882381Y-85501051D01*
X188970000Y-85060560D01*
X188970000Y-84611440D01*
X188882381Y-84170949D01*
X188710510Y-83756015D01*
X188460992Y-83382585D01*
X188143415Y-83065008D01*
X187769985Y-82815490D01*
X187382791Y-82655109D01*
X183134000Y-78406319D01*
X183134000Y-66956184D01*
X183104598Y-66657659D01*
X182990072Y-66280117D01*
X182990072Y-65806000D01*
X182977812Y-65681518D01*
X182941502Y-65561820D01*
X182882537Y-65451506D01*
X182803185Y-65354815D01*
X182706494Y-65275463D01*
X182596180Y-65216498D01*
X182476482Y-65180188D01*
X182352000Y-65167928D01*
X181877882Y-65167928D01*
X181500340Y-65053402D01*
X181102000Y-65014169D01*
X180703659Y-65053402D01*
X180326117Y-65167928D01*
X179852000Y-65167928D01*
X179727518Y-65180188D01*
X179607820Y-65216498D01*
X179497506Y-65275463D01*
X179400815Y-65354815D01*
X179321463Y-65451506D01*
X179262498Y-65561820D01*
X179226188Y-65681518D01*
X179213928Y-65806000D01*
X179213928Y-66280118D01*
X179099402Y-66657660D01*
X179070000Y-66956185D01*
X179070001Y-79148177D01*
X179060169Y-79248000D01*
X170942000Y-79248000D01*
X170942000Y-75089681D01*
X177609421Y-68422261D01*
X177799720Y-68190381D01*
X177988406Y-67837375D01*
X178104597Y-67454341D01*
X178143831Y-67056000D01*
X178104597Y-66657660D01*
X177988406Y-66274626D01*
X177799720Y-65921619D01*
X177545792Y-65612208D01*
X177236381Y-65358280D01*
X176883374Y-65169594D01*
X176500340Y-65053403D01*
X176102000Y-65014169D01*
X175703659Y-65053403D01*
X175320625Y-65169594D01*
X174967619Y-65358280D01*
X174735739Y-65548579D01*
X167543744Y-72740575D01*
X167466208Y-72804207D01*
X167385663Y-72902352D01*
X167212280Y-73113619D01*
X167023594Y-73466626D01*
X166964426Y-73661680D01*
X166907403Y-73849659D01*
X166904358Y-73880579D01*
X166868169Y-74248000D01*
X166878001Y-74347823D01*
X166878000Y-86585067D01*
X166813776Y-86740117D01*
X166730000Y-87161289D01*
X166730000Y-87590711D01*
X166813776Y-88011883D01*
X166978109Y-88408617D01*
X167065897Y-88540001D01*
X139004103Y-88540001D01*
X139091891Y-88408617D01*
X139256224Y-88011883D01*
X139340000Y-87590711D01*
X139340000Y-87161289D01*
X139256224Y-86740117D01*
X139192000Y-86585067D01*
X139192000Y-79502000D01*
X147564169Y-79502000D01*
X147584887Y-79712347D01*
X147603403Y-79900341D01*
X147618761Y-79950969D01*
X147719594Y-80283374D01*
X147908280Y-80636381D01*
X148010531Y-80760974D01*
X148162208Y-80945793D01*
X148239743Y-81009425D01*
X152759109Y-85528791D01*
X152919490Y-85915985D01*
X153169008Y-86289415D01*
X153486585Y-86606992D01*
X153860015Y-86856510D01*
X154274949Y-87028381D01*
X154715440Y-87116000D01*
X155164560Y-87116000D01*
X155605051Y-87028381D01*
X156019985Y-86856510D01*
X156393415Y-86606992D01*
X156710992Y-86289415D01*
X156960510Y-85915985D01*
X157132381Y-85501051D01*
X157220000Y-85060560D01*
X157220000Y-84611440D01*
X157132381Y-84170949D01*
X156960510Y-83756015D01*
X156710992Y-83382585D01*
X156393415Y-83065008D01*
X156019985Y-82815490D01*
X155632791Y-82655109D01*
X151638000Y-78660319D01*
X151638000Y-67210184D01*
X151608598Y-66911659D01*
X151494072Y-66534117D01*
X151494072Y-66060000D01*
X151481812Y-65935518D01*
X151445502Y-65815820D01*
X151386537Y-65705506D01*
X151307185Y-65608815D01*
X151210494Y-65529463D01*
X151100180Y-65470498D01*
X150980482Y-65434188D01*
X150856000Y-65421928D01*
X150381882Y-65421928D01*
X150004340Y-65307402D01*
X149606000Y-65268169D01*
X149207659Y-65307402D01*
X148830117Y-65421928D01*
X148356000Y-65421928D01*
X148231518Y-65434188D01*
X148111820Y-65470498D01*
X148001506Y-65529463D01*
X147904815Y-65608815D01*
X147825463Y-65705506D01*
X147766498Y-65815820D01*
X147730188Y-65935518D01*
X147717928Y-66060000D01*
X147717928Y-66534118D01*
X147603402Y-66911660D01*
X147574000Y-67210185D01*
X147574001Y-79402177D01*
X147564169Y-79502000D01*
X139192000Y-79502000D01*
X139192000Y-75597681D01*
X146113421Y-68676261D01*
X146303720Y-68444382D01*
X146492405Y-68091376D01*
X146608597Y-67708341D01*
X146647831Y-67310001D01*
X146608597Y-66911660D01*
X146492405Y-66528626D01*
X146303720Y-66175620D01*
X146049792Y-65866208D01*
X145740380Y-65612280D01*
X145387374Y-65423595D01*
X145004340Y-65307403D01*
X144605999Y-65268169D01*
X144207659Y-65307403D01*
X143824624Y-65423595D01*
X143471618Y-65612280D01*
X143239739Y-65802579D01*
X135793744Y-73248575D01*
X135716208Y-73312207D01*
X135652579Y-73389740D01*
X135462280Y-73621619D01*
X135273594Y-73974626D01*
X135157403Y-74357660D01*
X135118169Y-74756000D01*
X135128001Y-74855823D01*
X135128000Y-86585067D01*
X135063776Y-86740117D01*
X134980000Y-87161289D01*
X134980000Y-87590711D01*
X135063776Y-88011883D01*
X135228109Y-88408617D01*
X135315897Y-88540001D01*
X107254103Y-88540001D01*
X107341891Y-88408617D01*
X107506224Y-88011883D01*
X107590000Y-87590711D01*
X107590000Y-87161289D01*
X107506224Y-86740117D01*
X107442000Y-86585067D01*
X107442000Y-79502000D01*
X115814169Y-79502000D01*
X115834887Y-79712347D01*
X115853403Y-79900341D01*
X115868761Y-79950969D01*
X115969594Y-80283374D01*
X116158280Y-80636381D01*
X116260531Y-80760974D01*
X116412208Y-80945793D01*
X116489743Y-81009425D01*
X121009109Y-85528791D01*
X121169490Y-85915985D01*
X121419008Y-86289415D01*
X121736585Y-86606992D01*
X122110015Y-86856510D01*
X122524949Y-87028381D01*
X122965440Y-87116000D01*
X123414560Y-87116000D01*
X123855051Y-87028381D01*
X124269985Y-86856510D01*
X124643415Y-86606992D01*
X124807290Y-86443117D01*
X129075000Y-86443117D01*
X129075000Y-86784883D01*
X129141675Y-87120081D01*
X129272463Y-87435831D01*
X129462337Y-87719998D01*
X129704002Y-87961663D01*
X129988169Y-88151537D01*
X130303919Y-88282325D01*
X130639117Y-88349000D01*
X130980883Y-88349000D01*
X131316081Y-88282325D01*
X131631831Y-88151537D01*
X131915998Y-87961663D01*
X132157663Y-87719998D01*
X132347537Y-87435831D01*
X132478325Y-87120081D01*
X132545000Y-86784883D01*
X132545000Y-86443117D01*
X132478325Y-86107919D01*
X132347537Y-85792169D01*
X132157663Y-85508002D01*
X131915998Y-85266337D01*
X131631831Y-85076463D01*
X131316081Y-84945675D01*
X130980883Y-84879000D01*
X130639117Y-84879000D01*
X130303919Y-84945675D01*
X129988169Y-85076463D01*
X129704002Y-85266337D01*
X129462337Y-85508002D01*
X129272463Y-85792169D01*
X129141675Y-86107919D01*
X129075000Y-86443117D01*
X124807290Y-86443117D01*
X124960992Y-86289415D01*
X125210510Y-85915985D01*
X125382381Y-85501051D01*
X125470000Y-85060560D01*
X125470000Y-84611440D01*
X125382381Y-84170949D01*
X125210510Y-83756015D01*
X124960992Y-83382585D01*
X124643415Y-83065008D01*
X124269985Y-82815490D01*
X123882791Y-82655109D01*
X119888000Y-78660319D01*
X119888000Y-66956184D01*
X119858598Y-66657659D01*
X119744072Y-66280117D01*
X119744072Y-65806000D01*
X119731812Y-65681518D01*
X119695502Y-65561820D01*
X119636537Y-65451506D01*
X119557185Y-65354815D01*
X119460494Y-65275463D01*
X119350180Y-65216498D01*
X119230482Y-65180188D01*
X119106000Y-65167928D01*
X118631882Y-65167928D01*
X118254340Y-65053402D01*
X117856000Y-65014169D01*
X117457659Y-65053402D01*
X117080117Y-65167928D01*
X116606000Y-65167928D01*
X116481518Y-65180188D01*
X116361820Y-65216498D01*
X116251506Y-65275463D01*
X116154815Y-65354815D01*
X116075463Y-65451506D01*
X116016498Y-65561820D01*
X115980188Y-65681518D01*
X115967928Y-65806000D01*
X115967928Y-66280118D01*
X115853402Y-66657660D01*
X115824000Y-66956185D01*
X115824001Y-79402177D01*
X115814169Y-79502000D01*
X107442000Y-79502000D01*
X107442000Y-75343681D01*
X114363421Y-68422261D01*
X114553720Y-68190382D01*
X114742405Y-67837376D01*
X114858597Y-67454341D01*
X114897831Y-67056001D01*
X114858597Y-66657660D01*
X114742405Y-66274626D01*
X114553720Y-65921620D01*
X114299792Y-65612208D01*
X113990380Y-65358280D01*
X113637374Y-65169595D01*
X113254340Y-65053403D01*
X112855999Y-65014169D01*
X112457659Y-65053403D01*
X112074624Y-65169595D01*
X111721618Y-65358280D01*
X111489739Y-65548579D01*
X104043744Y-72994575D01*
X103966208Y-73058207D01*
X103841587Y-73210058D01*
X103712280Y-73367619D01*
X103523594Y-73720626D01*
X103407403Y-74103660D01*
X103368169Y-74502000D01*
X103378001Y-74601823D01*
X103378000Y-86585067D01*
X103313776Y-86740117D01*
X103230000Y-87161289D01*
X103230000Y-87590711D01*
X103313776Y-88011883D01*
X103478109Y-88408617D01*
X103565897Y-88540001D01*
X101047632Y-88540001D01*
X91569157Y-79061527D01*
X91605000Y-78881335D01*
X91605000Y-78598665D01*
X91549853Y-78321426D01*
X91441680Y-78060273D01*
X91284637Y-77825241D01*
X91084759Y-77625363D01*
X90849727Y-77468320D01*
X90588574Y-77360147D01*
X90311335Y-77305000D01*
X90028665Y-77305000D01*
X89751426Y-77360147D01*
X89490273Y-77468320D01*
X89255241Y-77625363D01*
X89055363Y-77825241D01*
X88898320Y-78060273D01*
X88790147Y-78321426D01*
X88735000Y-78598665D01*
X88735000Y-78881335D01*
X88790147Y-79158574D01*
X88898320Y-79419727D01*
X89055363Y-79654759D01*
X89255241Y-79854637D01*
X89487759Y-80010000D01*
X89255241Y-80165363D01*
X89055363Y-80365241D01*
X88898320Y-80600273D01*
X88790147Y-80861426D01*
X88735000Y-81138665D01*
X88735000Y-81421335D01*
X88770843Y-81601526D01*
X87968638Y-82403732D01*
X87939568Y-82427589D01*
X87915711Y-82456659D01*
X87915710Y-82456660D01*
X87844344Y-82543619D01*
X87773588Y-82675996D01*
X87730016Y-82819633D01*
X87715303Y-82969011D01*
X87718990Y-83006444D01*
X87718989Y-88921448D01*
X87715303Y-88958871D01*
X87718989Y-88996294D01*
X87718989Y-88996296D01*
X87730015Y-89108248D01*
X87773587Y-89251885D01*
X87773588Y-89251886D01*
X87844344Y-89384263D01*
X87860253Y-89403648D01*
X87939567Y-89500293D01*
X87968643Y-89524155D01*
X89021063Y-90576575D01*
X88898320Y-90760273D01*
X88790147Y-91021426D01*
X88735000Y-91298665D01*
X88735000Y-91581335D01*
X88770843Y-91761527D01*
X88476648Y-92055722D01*
X88447578Y-92079579D01*
X88423721Y-92108649D01*
X88423720Y-92108650D01*
X88352354Y-92195609D01*
X88281598Y-92327986D01*
X88238026Y-92471623D01*
X88223313Y-92621001D01*
X88227000Y-92658434D01*
X88226999Y-94509457D01*
X88223313Y-94546881D01*
X88226999Y-94584304D01*
X88226999Y-94584306D01*
X88238025Y-94696258D01*
X88281597Y-94839895D01*
X88281598Y-94839896D01*
X88352354Y-94972273D01*
X88371000Y-94994993D01*
X88447577Y-95088303D01*
X88476652Y-95112165D01*
X89021063Y-95656575D01*
X88898320Y-95840273D01*
X88790147Y-96101426D01*
X88735000Y-96378665D01*
X88735000Y-96661335D01*
X88790147Y-96938574D01*
X88898320Y-97199727D01*
X89055363Y-97434759D01*
X89255241Y-97634637D01*
X89490273Y-97791680D01*
X89751426Y-97899853D01*
X90028665Y-97955000D01*
X90311335Y-97955000D01*
X90588574Y-97899853D01*
X90849727Y-97791680D01*
X91084759Y-97634637D01*
X91284637Y-97434759D01*
X91441680Y-97199727D01*
X91549853Y-96938574D01*
X91605000Y-96661335D01*
X91605000Y-96378665D01*
X91549853Y-96101426D01*
X91528555Y-96050008D01*
X92432378Y-96050008D01*
X99002720Y-102620351D01*
X99026578Y-102649422D01*
X99142608Y-102744645D01*
X99274985Y-102815402D01*
X99418622Y-102858974D01*
X99530574Y-102870000D01*
X99530576Y-102870000D01*
X99567999Y-102873686D01*
X99605422Y-102870000D01*
X130394370Y-102870000D01*
X146184760Y-118660391D01*
X146142815Y-118694815D01*
X146063463Y-118791506D01*
X146004498Y-118901820D01*
X145968188Y-119021518D01*
X145955928Y-119146000D01*
X145955928Y-121646000D01*
X145963808Y-121726010D01*
X139024192Y-121726010D01*
X139032072Y-121646000D01*
X139032072Y-120274363D01*
X141259000Y-120274363D01*
X141259000Y-120517637D01*
X141306460Y-120756236D01*
X141399557Y-120980992D01*
X141534713Y-121183267D01*
X141706733Y-121355287D01*
X141909008Y-121490443D01*
X142133764Y-121583540D01*
X142372363Y-121631000D01*
X142615637Y-121631000D01*
X142854236Y-121583540D01*
X143078992Y-121490443D01*
X143281267Y-121355287D01*
X143453287Y-121183267D01*
X143588443Y-120980992D01*
X143681540Y-120756236D01*
X143729000Y-120517637D01*
X143729000Y-120274363D01*
X143681540Y-120035764D01*
X143588443Y-119811008D01*
X143453287Y-119608733D01*
X143281267Y-119436713D01*
X143078992Y-119301557D01*
X142854236Y-119208460D01*
X142615637Y-119161000D01*
X142372363Y-119161000D01*
X142133764Y-119208460D01*
X141909008Y-119301557D01*
X141706733Y-119436713D01*
X141534713Y-119608733D01*
X141399557Y-119811008D01*
X141306460Y-120035764D01*
X141259000Y-120274363D01*
X139032072Y-120274363D01*
X139032072Y-119146000D01*
X139019812Y-119021518D01*
X138983502Y-118901820D01*
X138924537Y-118791506D01*
X138845185Y-118694815D01*
X138748494Y-118615463D01*
X138638180Y-118556498D01*
X138518482Y-118520188D01*
X138394000Y-118507928D01*
X136594000Y-118507928D01*
X136469518Y-118520188D01*
X136349820Y-118556498D01*
X136239506Y-118615463D01*
X136142815Y-118694815D01*
X136063463Y-118791506D01*
X136004498Y-118901820D01*
X135968188Y-119021518D01*
X135955928Y-119146000D01*
X135955928Y-121646000D01*
X135963808Y-121726010D01*
X133530192Y-121726010D01*
X133538072Y-121646000D01*
X133538072Y-119146000D01*
X133525812Y-119021518D01*
X133489502Y-118901820D01*
X133430537Y-118791506D01*
X133351185Y-118694815D01*
X133254494Y-118615463D01*
X133144180Y-118556498D01*
X133024482Y-118520188D01*
X132900000Y-118507928D01*
X131100000Y-118507928D01*
X130975518Y-118520188D01*
X130855820Y-118556498D01*
X130745506Y-118615463D01*
X130648815Y-118694815D01*
X130569463Y-118791506D01*
X130510498Y-118901820D01*
X130474188Y-119021518D01*
X130461928Y-119146000D01*
X130461928Y-121646000D01*
X130469808Y-121726010D01*
X123530192Y-121726010D01*
X123538072Y-121646000D01*
X123538072Y-120274363D01*
X125765000Y-120274363D01*
X125765000Y-120517637D01*
X125812460Y-120756236D01*
X125905557Y-120980992D01*
X126040713Y-121183267D01*
X126212733Y-121355287D01*
X126415008Y-121490443D01*
X126639764Y-121583540D01*
X126878363Y-121631000D01*
X127121637Y-121631000D01*
X127360236Y-121583540D01*
X127584992Y-121490443D01*
X127787267Y-121355287D01*
X127959287Y-121183267D01*
X128094443Y-120980992D01*
X128187540Y-120756236D01*
X128235000Y-120517637D01*
X128235000Y-120274363D01*
X128187540Y-120035764D01*
X128094443Y-119811008D01*
X127959287Y-119608733D01*
X127787267Y-119436713D01*
X127584992Y-119301557D01*
X127360236Y-119208460D01*
X127121637Y-119161000D01*
X126878363Y-119161000D01*
X126639764Y-119208460D01*
X126415008Y-119301557D01*
X126212733Y-119436713D01*
X126040713Y-119608733D01*
X125905557Y-119811008D01*
X125812460Y-120035764D01*
X125765000Y-120274363D01*
X123538072Y-120274363D01*
X123538072Y-119146000D01*
X123525812Y-119021518D01*
X123489502Y-118901820D01*
X123430537Y-118791506D01*
X123351185Y-118694815D01*
X123254494Y-118615463D01*
X123144180Y-118556498D01*
X123024482Y-118520188D01*
X122900000Y-118507928D01*
X121100000Y-118507928D01*
X120975518Y-118520188D01*
X120855820Y-118556498D01*
X120745506Y-118615463D01*
X120648815Y-118694815D01*
X120569463Y-118791506D01*
X120510498Y-118901820D01*
X120474188Y-119021518D01*
X120461928Y-119146000D01*
X120461928Y-121646000D01*
X120469808Y-121726010D01*
X113113443Y-121726010D01*
X91205086Y-99817654D01*
X91181224Y-99788578D01*
X91065194Y-99693355D01*
X90932817Y-99622598D01*
X90789180Y-99579026D01*
X90677228Y-99568000D01*
X90677225Y-99568000D01*
X90639802Y-99564314D01*
X90602379Y-99568000D01*
X70570741Y-99568000D01*
X70464409Y-99408863D01*
X70263137Y-99207591D01*
X70042252Y-99060000D01*
X70263137Y-98912409D01*
X70464409Y-98711137D01*
X70622547Y-98474467D01*
X70731474Y-98211492D01*
X70787005Y-97932321D01*
X70787005Y-97647679D01*
X70760157Y-97512702D01*
X81736903Y-97512702D01*
X81808486Y-97756671D01*
X82063996Y-97877571D01*
X82338184Y-97946300D01*
X82620512Y-97960217D01*
X82900130Y-97918787D01*
X83166292Y-97823603D01*
X83291514Y-97756671D01*
X83363097Y-97512702D01*
X82550000Y-96699605D01*
X81736903Y-97512702D01*
X70760157Y-97512702D01*
X70731474Y-97368508D01*
X70622547Y-97105533D01*
X70464409Y-96868863D01*
X70263137Y-96667591D01*
X70147781Y-96590512D01*
X81109783Y-96590512D01*
X81151213Y-96870130D01*
X81246397Y-97136292D01*
X81313329Y-97261514D01*
X81557298Y-97333097D01*
X82370395Y-96520000D01*
X82729605Y-96520000D01*
X83542702Y-97333097D01*
X83786671Y-97261514D01*
X83907571Y-97006004D01*
X83976300Y-96731816D01*
X83990217Y-96449488D01*
X83948787Y-96169870D01*
X83853603Y-95903708D01*
X83786671Y-95778486D01*
X83542702Y-95706903D01*
X82729605Y-96520000D01*
X82370395Y-96520000D01*
X81557298Y-95706903D01*
X81313329Y-95778486D01*
X81192429Y-96033996D01*
X81123700Y-96308184D01*
X81109783Y-96590512D01*
X70147781Y-96590512D01*
X70042252Y-96520000D01*
X70263137Y-96372409D01*
X70464409Y-96171137D01*
X70622547Y-95934467D01*
X70731474Y-95671492D01*
X70787005Y-95392321D01*
X70787005Y-95107679D01*
X70731474Y-94828508D01*
X70622547Y-94565533D01*
X70464409Y-94328863D01*
X70263137Y-94127591D01*
X70042252Y-93980000D01*
X70263137Y-93832409D01*
X70464409Y-93631137D01*
X70622547Y-93394467D01*
X70731474Y-93131492D01*
X70787005Y-92852321D01*
X70787005Y-92567679D01*
X70731474Y-92288508D01*
X70622547Y-92025533D01*
X70464409Y-91788863D01*
X70263137Y-91587591D01*
X70042252Y-91440000D01*
X70263137Y-91292409D01*
X70464409Y-91091137D01*
X70622547Y-90854467D01*
X70731474Y-90591492D01*
X70787005Y-90312321D01*
X70787005Y-90027679D01*
X70731474Y-89748508D01*
X70622547Y-89485533D01*
X70464409Y-89248863D01*
X70263137Y-89047591D01*
X70042252Y-88900000D01*
X70263137Y-88752409D01*
X70464409Y-88551137D01*
X70622547Y-88314467D01*
X70731474Y-88051492D01*
X70787005Y-87772321D01*
X70787005Y-87487679D01*
X70731474Y-87208508D01*
X70622547Y-86945533D01*
X70464409Y-86708863D01*
X70263137Y-86507591D01*
X70042252Y-86360000D01*
X70263137Y-86212409D01*
X70464409Y-86011137D01*
X70622547Y-85774467D01*
X70731474Y-85511492D01*
X70787005Y-85232321D01*
X70787005Y-84947679D01*
X70731474Y-84668508D01*
X70728362Y-84660994D01*
X73677364Y-84660994D01*
X79756001Y-90739632D01*
X79756000Y-91910576D01*
X79752314Y-91948000D01*
X79756000Y-91985423D01*
X79756000Y-91985425D01*
X79767026Y-92097377D01*
X79810598Y-92241014D01*
X79810599Y-92241015D01*
X79881355Y-92373392D01*
X79920983Y-92421678D01*
X79976578Y-92489422D01*
X80005654Y-92513284D01*
X81150843Y-93658473D01*
X81115000Y-93838665D01*
X81115000Y-94121335D01*
X81170147Y-94398574D01*
X81278320Y-94659727D01*
X81435363Y-94894759D01*
X81635241Y-95094637D01*
X81869128Y-95250915D01*
X81808486Y-95283329D01*
X81736903Y-95527298D01*
X82550000Y-96340395D01*
X83363097Y-95527298D01*
X83291514Y-95283329D01*
X83227008Y-95252806D01*
X83229727Y-95251680D01*
X83464759Y-95094637D01*
X83664637Y-94894759D01*
X83821680Y-94659727D01*
X83929853Y-94398574D01*
X83985000Y-94121335D01*
X83985000Y-93838665D01*
X83929853Y-93561426D01*
X83821680Y-93300273D01*
X83664637Y-93065241D01*
X83464759Y-92865363D01*
X83232241Y-92710000D01*
X83464759Y-92554637D01*
X83664637Y-92354759D01*
X83821680Y-92119727D01*
X83929853Y-91858574D01*
X83985000Y-91581335D01*
X83985000Y-91298665D01*
X83929853Y-91021426D01*
X83821680Y-90760273D01*
X83664637Y-90525241D01*
X83464759Y-90325363D01*
X83232241Y-90170000D01*
X83464759Y-90014637D01*
X83664637Y-89814759D01*
X83821680Y-89579727D01*
X83929853Y-89318574D01*
X83985000Y-89041335D01*
X83985000Y-88758665D01*
X83929853Y-88481426D01*
X83821680Y-88220273D01*
X83664637Y-87985241D01*
X83464759Y-87785363D01*
X83232241Y-87630000D01*
X83464759Y-87474637D01*
X83664637Y-87274759D01*
X83821680Y-87039727D01*
X83929853Y-86778574D01*
X83985000Y-86501335D01*
X83985000Y-86218665D01*
X83929853Y-85941426D01*
X83821680Y-85680273D01*
X83664637Y-85445241D01*
X83464759Y-85245363D01*
X83232241Y-85090000D01*
X83464759Y-84934637D01*
X83664637Y-84734759D01*
X83821680Y-84499727D01*
X83929853Y-84238574D01*
X83985000Y-83961335D01*
X83985000Y-83678665D01*
X83929853Y-83401426D01*
X83821680Y-83140273D01*
X83664637Y-82905241D01*
X83464759Y-82705363D01*
X83232241Y-82550000D01*
X83464759Y-82394637D01*
X83664637Y-82194759D01*
X83821680Y-81959727D01*
X83929853Y-81698574D01*
X83985000Y-81421335D01*
X83985000Y-81138665D01*
X83929853Y-80861426D01*
X83821680Y-80600273D01*
X83664637Y-80365241D01*
X83466039Y-80166643D01*
X83474482Y-80165812D01*
X83594180Y-80129502D01*
X83704494Y-80070537D01*
X83801185Y-79991185D01*
X83880537Y-79894494D01*
X83939502Y-79784180D01*
X83975812Y-79664482D01*
X83988072Y-79540000D01*
X83988072Y-77940000D01*
X83975812Y-77815518D01*
X83939502Y-77695820D01*
X83880537Y-77585506D01*
X83801185Y-77488815D01*
X83704494Y-77409463D01*
X83594180Y-77350498D01*
X83474482Y-77314188D01*
X83350000Y-77301928D01*
X81750000Y-77301928D01*
X81625518Y-77314188D01*
X81505820Y-77350498D01*
X81395506Y-77409463D01*
X81311794Y-77478163D01*
X79600278Y-75766648D01*
X79576416Y-75737572D01*
X79460386Y-75642349D01*
X79328009Y-75571592D01*
X79184372Y-75528020D01*
X79072420Y-75516994D01*
X79072417Y-75516994D01*
X79034994Y-75513308D01*
X78997571Y-75516994D01*
X70662921Y-75516994D01*
X70731474Y-75351492D01*
X70787005Y-75072321D01*
X70787005Y-74787679D01*
X70731474Y-74508508D01*
X70622547Y-74245533D01*
X70464409Y-74008863D01*
X70263137Y-73807591D01*
X70026467Y-73649453D01*
X69763492Y-73540526D01*
X69484321Y-73484995D01*
X69324635Y-73484995D01*
X78039630Y-64770000D01*
X190692370Y-64770000D01*
X199624715Y-73702345D01*
M02*
