  0
SECTION
  2
HEADER
  9
$ANGBASE
  50
0.0
  9
$ANGDIR
  70
1
  9
$MEASUREMENT
  70
0
  0
ENDSEC
  0
SECTION
  2
TABLES
  0
TABLE
  2
LTYPE
  70
4
  0
LTYPE
  5
40F
  2
CONTINUOUS
  70
0
  3
Solid line
  72
65
  73
0
  40
0.0
  0
LTYPE
  5
410
  2
DASHDOT
 70
0
  3
Dash Dot ____ _ ____ _
 72
65
 73
4
 40
2.0
 49
1.25
 49
-0.25
 49
0.25
 49
-0.25
  0
LTYPE
  5
411
  2
DASHED
 70
0
  3
Dashed __ __ __ __ __
 72
65
 73
2
 40
0.75
 49
0.5
 49
-0.25
  0
LTYPE
  5
43B
  2
DOTTED
 70
0
  3
Dotted .  .  .  .
 72
65
 73
2
 40
0.2
 49
0.0
 49
-0.2
  0
ENDTAB
  0
TABLE
  2
STYLE
  70
4
  0
STYLE
  2
KICAD
  70
0
  40
0
  41
1
  42
1
  50
0
  71
0
  3
isocp.shx
  0
STYLE
  2
KICADB
  70
0
  40
0
  41
1
  42
1
  50
0
  71
0
  3
isocp.shx
  0
STYLE
  2
KICADI
  70
0
  40
0
  41
1
  42
1
  50
15
  71
0
  3
isocp.shx
  0
STYLE
  2
KICADBI
  70
0
  40
0
  41
1
  42
1
  50
15
  71
0
  3
isocp.shx
  0
ENDTAB
  0
TABLE
  2
LAYER
  70
1
  0
LAYER
  2
BLACK
  70
0
  62
7
  6
CONTINUOUS
  0
ENDTAB
  0
ENDSEC
  0
SECTION
  2
ENTITIES
0
LINE
8
BLACK
6
CONTINUOUS
10
12.9174
20
-8.30271
11
12.9174
21
-8.30271
0
LINE
8
BLACK
6
CONTINUOUS
10
12.9174
20
-8.30271
11
12.9174
21
-8.30271
0
LINE
8
BLACK
6
CONTINUOUS
10
12.9174
20
-8.30271
11
12.9186
21
-8.30398
0
LINE
8
BLACK
6
CONTINUOUS
10
12.9186
20
-8.30398
11
12.9186
21
-8.30398
0
LINE
8
BLACK
6
CONTINUOUS
10
12.9186
20
-8.30398
11
12.9186
21
-8.30398
0
LINE
8
BLACK
6
CONTINUOUS
10
12.9186
20
-8.30398
11
12.9186
21
-8.30398
0
LINE
8
BLACK
6
CONTINUOUS
10
12.9186
20
-8.30398
11
12.9186
21
-8.30398
0
LINE
8
BLACK
6
CONTINUOUS
10
12.9186
20
-8.30398
11
12.9197
21
-8.30532
0
LINE
8
BLACK
6
CONTINUOUS
10
12.9197
20
-8.30532
11
12.9197
21
-8.30532
0
LINE
8
BLACK
6
CONTINUOUS
10
12.9197
20
-8.30532
11
12.9197
21
-8.30532
0
LINE
8
BLACK
6
CONTINUOUS
10
12.9197
20
-8.30532
11
12.9208
21
-8.30671
0
LINE
8
BLACK
6
CONTINUOUS
10
12.9208
20
-8.30671
11
12.9208
21
-8.30671
0
LINE
8
BLACK
6
CONTINUOUS
10
12.9208
20
-8.30671
11
12.9208
21
-8.30671
0
LINE
8
BLACK
6
CONTINUOUS
10
12.9208
20
-8.30671
11
12.9218
21
-8.30815
0
LINE
8
BLACK
6
CONTINUOUS
10
12.9218
20
-8.30815
11
12.9218
21
-8.30815
0
LINE
8
BLACK
6
CONTINUOUS
10
12.9218
20
-8.30815
11
12.9227
21
-8.30964
0
LINE
8
BLACK
6
CONTINUOUS
10
12.9227
20
-8.30964
11
12.9227
21
-8.30964
0
LINE
8
BLACK
6
CONTINUOUS
10
12.9227
20
-8.30964
11
12.9227
21
-8.30964
0
LINE
8
BLACK
6
CONTINUOUS
10
12.9227
20
-8.30964
11
12.9235
21
-8.31118
0
LINE
8
BLACK
6
CONTINUOUS
10
12.9235
20
-8.31118
11
12.9235
21
-8.31118
0
LINE
8
BLACK
6
CONTINUOUS
10
12.9235
20
-8.31118
11
12.9235
21
-8.31118
0
LINE
8
BLACK
6
CONTINUOUS
10
12.9235
20
-8.31118
11
12.9243
21
-8.31277
0
LINE
8
BLACK
6
CONTINUOUS
10
12.9243
20
-8.31277
11
12.9243
21
-8.31277
0
LINE
8
BLACK
6
CONTINUOUS
10
12.9243
20
-8.31277
11
12.9243
21
-8.31277
0
LINE
8
BLACK
6
CONTINUOUS
10
12.9243
20
-8.31277
11
12.9249
21
-8.31438
0
LINE
8
BLACK
6
CONTINUOUS
10
12.9249
20
-8.31438
11
12.9249
21
-8.31438
0
LINE
8
BLACK
6
CONTINUOUS
10
12.9249
20
-8.31438
11
12.9255
21
-8.31604
0
LINE
8
BLACK
6
CONTINUOUS
10
12.9255
20
-8.31604
11
12.9255
21
-8.31604
0
LINE
8
BLACK
6
CONTINUOUS
10
12.9255
20
-8.31604
11
12.926
21
-8.31772
0
LINE
8
BLACK
6
CONTINUOUS
10
12.926
20
-8.31772
11
12.926
21
-8.31772
0
LINE
8
BLACK
6
CONTINUOUS
10
12.926
20
-8.31772
11
12.9264
21
-8.31942
0
LINE
8
BLACK
6
CONTINUOUS
10
12.9264
20
-8.31942
11
12.9264
21
-8.31942
0
LINE
8
BLACK
6
CONTINUOUS
10
12.9264
20
-8.31942
11
12.9268
21
-8.32114
0
LINE
8
BLACK
6
CONTINUOUS
10
12.9268
20
-8.32114
11
12.9268
21
-8.32114
0
LINE
8
BLACK
6
CONTINUOUS
10
12.9268
20
-8.32114
11
12.927
21
-8.32288
0
LINE
8
BLACK
6
CONTINUOUS
10
12.927
20
-8.32288
11
12.927
21
-8.32288
0
LINE
8
BLACK
6
CONTINUOUS
10
12.927
20
-8.32288
11
12.9271
21
-8.32463
0
LINE
8
BLACK
6
CONTINUOUS
10
12.9271
20
-8.32463
11
12.9271
21
-8.32463
0
LINE
8
BLACK
6
CONTINUOUS
10
12.9271
20
-8.32463
11
12.9272
21
-8.32638
0
LINE
8
BLACK
6
CONTINUOUS
10
12.9272
20
-8.32638
11
12.9272
21
-8.37362
0
LINE
8
BLACK
6
CONTINUOUS
10
12.9272
20
-8.37362
11
12.9271
21
-8.37537
0
LINE
8
BLACK
6
CONTINUOUS
10
12.9271
20
-8.37537
11
12.9271
21
-8.37537
0
LINE
8
BLACK
6
CONTINUOUS
10
12.9271
20
-8.37537
11
12.927
21
-8.37712
0
LINE
8
BLACK
6
CONTINUOUS
10
12.927
20
-8.37712
11
12.927
21
-8.37712
0
LINE
8
BLACK
6
CONTINUOUS
10
12.927
20
-8.37712
11
12.9268
21
-8.37886
0
LINE
8
BLACK
6
CONTINUOUS
10
12.9268
20
-8.37886
11
12.9268
21
-8.37886
0
LINE
8
BLACK
6
CONTINUOUS
10
12.9268
20
-8.37886
11
12.9268
21
-8.37886
0
LINE
8
BLACK
6
CONTINUOUS
10
12.9268
20
-8.37886
11
12.9264
21
-8.38058
0
LINE
8
BLACK
6
CONTINUOUS
10
12.9264
20
-8.38058
11
12.9264
21
-8.38058
0
LINE
8
BLACK
6
CONTINUOUS
10
12.9264
20
-8.38058
11
12.9264
21
-8.38058
0
LINE
8
BLACK
6
CONTINUOUS
10
12.9264
20
-8.38058
11
12.926
21
-8.38228
0
LINE
8
BLACK
6
CONTINUOUS
10
12.926
20
-8.38228
11
12.926
21
-8.38228
0
LINE
8
BLACK
6
CONTINUOUS
10
12.926
20
-8.38228
11
12.926
21
-8.38228
0
LINE
8
BLACK
6
CONTINUOUS
10
12.926
20
-8.38228
11
12.9255
21
-8.38396
0
LINE
8
BLACK
6
CONTINUOUS
10
12.9255
20
-8.38396
11
12.9255
21
-8.38396
0
LINE
8
BLACK
6
CONTINUOUS
10
12.9255
20
-8.38396
11
12.9255
21
-8.38396
0
LINE
8
BLACK
6
CONTINUOUS
10
12.9255
20
-8.38396
11
12.9249
21
-8.38562
0
LINE
8
BLACK
6
CONTINUOUS
10
12.9249
20
-8.38562
11
12.9249
21
-8.38562
0
LINE
8
BLACK
6
CONTINUOUS
10
12.9249
20
-8.38562
11
12.9249
21
-8.38562
0
LINE
8
BLACK
6
CONTINUOUS
10
12.9249
20
-8.38562
11
12.9243
21
-8.38723
0
LINE
8
BLACK
6
CONTINUOUS
10
12.9243
20
-8.38723
11
12.9243
21
-8.38723
0
LINE
8
BLACK
6
CONTINUOUS
10
12.9243
20
-8.38723
11
12.9243
21
-8.38723
0
LINE
8
BLACK
6
CONTINUOUS
10
12.9243
20
-8.38723
11
12.9235
21
-8.38882
0
LINE
8
BLACK
6
CONTINUOUS
10
12.9235
20
-8.38882
11
12.9235
21
-8.38882
0
LINE
8
BLACK
6
CONTINUOUS
10
12.9235
20
-8.38882
11
12.9227
21
-8.39036
0
LINE
8
BLACK
6
CONTINUOUS
10
12.9227
20
-8.39036
11
12.9227
21
-8.39036
0
LINE
8
BLACK
6
CONTINUOUS
10
12.9227
20
-8.39036
11
12.9218
21
-8.39185
0
LINE
8
BLACK
6
CONTINUOUS
10
12.9218
20
-8.39185
11
12.9218
21
-8.39185
0
LINE
8
BLACK
6
CONTINUOUS
10
12.9218
20
-8.39185
11
12.9218
21
-8.39185
0
LINE
8
BLACK
6
CONTINUOUS
10
12.9218
20
-8.39185
11
12.9208
21
-8.39329
0
LINE
8
BLACK
6
CONTINUOUS
10
12.9208
20
-8.39329
11
12.9208
21
-8.39329
0
LINE
8
BLACK
6
CONTINUOUS
10
12.9208
20
-8.39329
11
12.9197
21
-8.39468
0
LINE
8
BLACK
6
CONTINUOUS
10
12.9197
20
-8.39468
11
12.9197
21
-8.39468
0
LINE
8
BLACK
6
CONTINUOUS
10
12.9197
20
-8.39468
11
12.9186
21
-8.39602
0
LINE
8
BLACK
6
CONTINUOUS
10
12.9186
20
-8.39602
11
12.9186
21
-8.39602
0
LINE
8
BLACK
6
CONTINUOUS
10
12.9186
20
-8.39602
11
12.9174
21
-8.39729
0
LINE
8
BLACK
6
CONTINUOUS
10
12.9174
20
-8.39729
11
12.9174
21
-8.39729
0
LINE
8
BLACK
6
CONTINUOUS
10
12.9174
20
-8.39729
11
12.9161
21
-8.39849
0
LINE
8
BLACK
6
CONTINUOUS
10
12.9161
20
-8.39849
11
12.9161
21
-8.39849
0
LINE
8
BLACK
6
CONTINUOUS
10
12.9161
20
-8.39849
11
12.9161
21
-8.39849
0
LINE
8
BLACK
6
CONTINUOUS
10
12.9161
20
-8.39849
11
12.9148
21
-8.39963
0
LINE
8
BLACK
6
CONTINUOUS
10
12.9148
20
-8.39963
11
12.9148
21
-8.39963
0
LINE
8
BLACK
6
CONTINUOUS
10
12.9148
20
-8.39963
11
12.9148
21
-8.39963
0
LINE
8
BLACK
6
CONTINUOUS
10
12.9148
20
-8.39963
11
12.9134
21
-8.4007
0
LINE
8
BLACK
6
CONTINUOUS
10
12.9134
20
-8.4007
11
12.9134
21
-8.4007
0
LINE
8
BLACK
6
CONTINUOUS
10
12.9134
20
-8.4007
11
12.9119
21
-8.40169
0
LINE
8
BLACK
6
CONTINUOUS
10
12.9119
20
-8.40169
11
12.9119
21
-8.40169
0
LINE
8
BLACK
6
CONTINUOUS
10
12.9119
20
-8.40169
11
12.9104
21
-8.4026
0
LINE
8
BLACK
6
CONTINUOUS
10
12.9104
20
-8.4026
11
12.9104
21
-8.4026
0
LINE
8
BLACK
6
CONTINUOUS
10
12.9104
20
-8.4026
11
12.9104
21
-8.4026
0
LINE
8
BLACK
6
CONTINUOUS
10
12.9104
20
-8.4026
11
12.9089
21
-8.40344
0
LINE
8
BLACK
6
CONTINUOUS
10
12.9089
20
-8.40344
11
12.9089
21
-8.40344
0
LINE
8
BLACK
6
CONTINUOUS
10
12.9089
20
-8.40344
11
12.9073
21
-8.4042
0
LINE
8
BLACK
6
CONTINUOUS
10
12.9073
20
-8.4042
11
12.9073
21
-8.4042
0
LINE
8
BLACK
6
CONTINUOUS
10
12.9073
20
-8.4042
11
12.9073
21
-8.4042
0
LINE
8
BLACK
6
CONTINUOUS
10
12.9073
20
-8.4042
11
12.9057
21
-8.40487
0
LINE
8
BLACK
6
CONTINUOUS
10
12.9057
20
-8.40487
11
12.9057
21
-8.40487
0
LINE
8
BLACK
6
CONTINUOUS
10
12.9057
20
-8.40487
11
12.9057
21
-8.40487
0
LINE
8
BLACK
6
CONTINUOUS
10
12.9057
20
-8.40487
11
12.904
21
-8.40545
0
LINE
8
BLACK
6
CONTINUOUS
10
12.904
20
-8.40545
11
12.904
21
-8.40545
0
LINE
8
BLACK
6
CONTINUOUS
10
12.904
20
-8.40545
11
12.9024
21
-8.40595
0
LINE
8
BLACK
6
CONTINUOUS
10
12.9024
20
-8.40595
11
12.9024
21
-8.40595
0
LINE
8
BLACK
6
CONTINUOUS
10
12.9024
20
-8.40595
11
12.9007
21
-8.40636
0
LINE
8
BLACK
6
CONTINUOUS
10
12.9007
20
-8.40636
11
12.9007
21
-8.40636
0
LINE
8
BLACK
6
CONTINUOUS
10
12.9007
20
-8.40636
11
12.9007
21
-8.40636
0
LINE
8
BLACK
6
CONTINUOUS
10
12.9007
20
-8.40636
11
12.8989
21
-8.40668
0
LINE
8
BLACK
6
CONTINUOUS
10
12.8989
20
-8.40668
11
12.8989
21
-8.40668
0
LINE
8
BLACK
6
CONTINUOUS
10
12.8989
20
-8.40668
11
12.8972
21
-8.40691
0
LINE
8
BLACK
6
CONTINUOUS
10
12.8972
20
-8.40691
11
12.8972
21
-8.40691
0
LINE
8
BLACK
6
CONTINUOUS
10
12.8972
20
-8.40691
11
12.8955
21
-8.40704
0
LINE
8
BLACK
6
CONTINUOUS
10
12.8955
20
-8.40704
11
12.8955
21
-8.40704
0
LINE
8
BLACK
6
CONTINUOUS
10
12.8955
20
-8.40704
11
12.8937
21
-8.40709
0
LINE
8
BLACK
6
CONTINUOUS
10
12.8937
20
-8.40709
11
12.8937
21
-8.40709
0
LINE
8
BLACK
6
CONTINUOUS
10
12.8937
20
-8.40709
11
12.8919
21
-8.40704
0
LINE
8
BLACK
6
CONTINUOUS
10
12.8919
20
-8.40704
11
12.8919
21
-8.40704
0
LINE
8
BLACK
6
CONTINUOUS
10
12.8919
20
-8.40704
11
12.8902
21
-8.40691
0
LINE
8
BLACK
6
CONTINUOUS
10
12.8902
20
-8.40691
11
12.8902
21
-8.40691
0
LINE
8
BLACK
6
CONTINUOUS
10
12.8902
20
-8.40691
11
12.8885
21
-8.40668
0
LINE
8
BLACK
6
CONTINUOUS
10
12.8885
20
-8.40668
11
12.8885
21
-8.40668
0
LINE
8
BLACK
6
CONTINUOUS
10
12.8885
20
-8.40668
11
12.8885
21
-8.40668
0
LINE
8
BLACK
6
CONTINUOUS
10
12.8885
20
-8.40668
11
12.8867
21
-8.40636
0
LINE
8
BLACK
6
CONTINUOUS
10
12.8867
20
-8.40636
11
12.8867
21
-8.40636
0
LINE
8
BLACK
6
CONTINUOUS
10
12.8867
20
-8.40636
11
12.885
21
-8.40595
0
LINE
8
BLACK
6
CONTINUOUS
10
12.885
20
-8.40595
11
12.885
21
-8.40595
0
LINE
8
BLACK
6
CONTINUOUS
10
12.885
20
-8.40595
11
12.885
21
-8.40595
0
LINE
8
BLACK
6
CONTINUOUS
10
12.885
20
-8.40595
11
12.8834
21
-8.40545
0
LINE
8
BLACK
6
CONTINUOUS
10
12.8834
20
-8.40545
11
12.8834
21
-8.40545
0
LINE
8
BLACK
6
CONTINUOUS
10
12.8834
20
-8.40545
11
12.8834
21
-8.40545
0
LINE
8
BLACK
6
CONTINUOUS
10
12.8834
20
-8.40545
11
12.8817
21
-8.40487
0
LINE
8
BLACK
6
CONTINUOUS
10
12.8817
20
-8.40487
11
12.8817
21
-8.40487
0
LINE
8
BLACK
6
CONTINUOUS
10
12.8817
20
-8.40487
11
12.8817
21
-8.40487
0
LINE
8
BLACK
6
CONTINUOUS
10
12.8817
20
-8.40487
11
12.8801
21
-8.4042
0
LINE
8
BLACK
6
CONTINUOUS
10
12.8801
20
-8.4042
11
12.8801
21
-8.4042
0
LINE
8
BLACK
6
CONTINUOUS
10
12.8801
20
-8.4042
11
12.8801
21
-8.4042
0
LINE
8
BLACK
6
CONTINUOUS
10
12.8801
20
-8.4042
11
12.8785
21
-8.40344
0
LINE
8
BLACK
6
CONTINUOUS
10
12.8785
20
-8.40344
11
12.8785
21
-8.40344
0
LINE
8
BLACK
6
CONTINUOUS
10
12.8785
20
-8.40344
11
12.877
21
-8.4026
0
LINE
8
BLACK
6
CONTINUOUS
10
12.877
20
-8.4026
11
12.877
21
-8.4026
0
LINE
8
BLACK
6
CONTINUOUS
10
12.877
20
-8.4026
11
12.8755
21
-8.40169
0
LINE
8
BLACK
6
CONTINUOUS
10
12.8755
20
-8.40169
11
12.8755
21
-8.40169
0
LINE
8
BLACK
6
CONTINUOUS
10
12.8755
20
-8.40169
11
12.8755
21
-8.40169
0
LINE
8
BLACK
6
CONTINUOUS
10
12.8755
20
-8.40169
11
12.8755
21
-8.40169
0
LINE
8
BLACK
6
CONTINUOUS
10
12.8755
20
-8.40169
11
12.874
21
-8.4007
0
LINE
8
BLACK
6
CONTINUOUS
10
12.874
20
-8.4007
11
12.874
21
-8.4007
0
LINE
8
BLACK
6
CONTINUOUS
10
12.874
20
-8.4007
11
12.874
21
-8.4007
0
LINE
8
BLACK
6
CONTINUOUS
10
12.874
20
-8.4007
11
12.8726
21
-8.39963
0
LINE
8
BLACK
6
CONTINUOUS
10
12.8726
20
-8.39963
11
12.8726
21
-8.39963
0
LINE
8
BLACK
6
CONTINUOUS
10
12.8726
20
-8.39963
11
12.8713
21
-8.39849
0
LINE
8
BLACK
6
CONTINUOUS
10
12.8713
20
-8.39849
11
12.8713
21
-8.39849
0
LINE
8
BLACK
6
CONTINUOUS
10
12.8713
20
-8.39849
11
12.87
21
-8.39729
0
LINE
8
BLACK
6
CONTINUOUS
10
12.87
20
-8.39729
11
12.87
21
-8.39729
0
LINE
8
BLACK
6
CONTINUOUS
10
12.87
20
-8.39729
11
12.87
21
-8.39729
0
LINE
8
BLACK
6
CONTINUOUS
10
12.87
20
-8.39729
11
12.8688
21
-8.39602
0
LINE
8
BLACK
6
CONTINUOUS
10
12.8688
20
-8.39602
11
12.8688
21
-8.39602
0
LINE
8
BLACK
6
CONTINUOUS
10
12.8688
20
-8.39602
11
12.8688
21
-8.39602
0
LINE
8
BLACK
6
CONTINUOUS
10
12.8688
20
-8.39602
11
12.8677
21
-8.39468
0
LINE
8
BLACK
6
CONTINUOUS
10
12.8677
20
-8.39468
11
12.8677
21
-8.39468
0
LINE
8
BLACK
6
CONTINUOUS
10
12.8677
20
-8.39468
11
12.8677
21
-8.39468
0
LINE
8
BLACK
6
CONTINUOUS
10
12.8677
20
-8.39468
11
12.8666
21
-8.39329
0
LINE
8
BLACK
6
CONTINUOUS
10
12.8666
20
-8.39329
11
12.8666
21
-8.39329
0
LINE
8
BLACK
6
CONTINUOUS
10
12.8666
20
-8.39329
11
12.8656
21
-8.39185
0
LINE
8
BLACK
6
CONTINUOUS
10
12.8656
20
-8.39185
11
12.8656
21
-8.39185
0
LINE
8
BLACK
6
CONTINUOUS
10
12.8656
20
-8.39185
11
12.8656
21
-8.39185
0
LINE
8
BLACK
6
CONTINUOUS
10
12.8656
20
-8.39185
11
12.8647
21
-8.39036
0
LINE
8
BLACK
6
CONTINUOUS
10
12.8647
20
-8.39036
11
12.8647
21
-8.39036
0
LINE
8
BLACK
6
CONTINUOUS
10
12.8647
20
-8.39036
11
12.8647
21
-8.39036
0
LINE
8
BLACK
6
CONTINUOUS
10
12.8647
20
-8.39036
11
12.8639
21
-8.38882
0
LINE
8
BLACK
6
CONTINUOUS
10
12.8639
20
-8.38882
11
12.8639
21
-8.38882
0
LINE
8
BLACK
6
CONTINUOUS
10
12.8639
20
-8.38882
11
12.8639
21
-8.38882
0
LINE
8
BLACK
6
CONTINUOUS
10
12.8639
20
-8.38882
11
12.8631
21
-8.38723
0
LINE
8
BLACK
6
CONTINUOUS
10
12.8631
20
-8.38723
11
12.8631
21
-8.38723
0
LINE
8
BLACK
6
CONTINUOUS
10
12.8631
20
-8.38723
11
12.8631
21
-8.38723
0
LINE
8
BLACK
6
CONTINUOUS
10
12.8631
20
-8.38723
11
12.8631
21
-8.38723
0
LINE
8
BLACK
6
CONTINUOUS
10
12.8631
20
-8.38723
11
12.8625
21
-8.38562
0
LINE
8
BLACK
6
CONTINUOUS
10
12.8625
20
-8.38562
11
12.8625
21
-8.38562
0
LINE
8
BLACK
6
CONTINUOUS
10
12.8625
20
-8.38562
11
12.8625
21
-8.38562
0
LINE
8
BLACK
6
CONTINUOUS
10
12.8625
20
-8.38562
11
12.8619
21
-8.38396
0
LINE
8
BLACK
6
CONTINUOUS
10
12.8619
20
-8.38396
11
12.8619
21
-8.38396
0
LINE
8
BLACK
6
CONTINUOUS
10
12.8619
20
-8.38396
11
12.8614
21
-8.38228
0
LINE
8
BLACK
6
CONTINUOUS
10
12.8614
20
-8.38228
11
12.8614
21
-8.38228
0
LINE
8
BLACK
6
CONTINUOUS
10
12.8614
20
-8.38228
11
12.8614
21
-8.38228
0
LINE
8
BLACK
6
CONTINUOUS
10
12.8614
20
-8.38228
11
12.861
21
-8.38058
0
LINE
8
BLACK
6
CONTINUOUS
10
12.861
20
-8.38058
11
12.861
21
-8.38058
0
LINE
8
BLACK
6
CONTINUOUS
10
12.861
20
-8.38058
11
12.861
21
-8.38058
0
LINE
8
BLACK
6
CONTINUOUS
10
12.861
20
-8.38058
11
12.861
21
-8.38058
0
LINE
8
BLACK
6
CONTINUOUS
10
12.861
20
-8.38058
11
12.8606
21
-8.37886
0
LINE
8
BLACK
6
CONTINUOUS
10
12.8606
20
-8.37886
11
12.8606
21
-8.37886
0
LINE
8
BLACK
6
CONTINUOUS
10
12.8606
20
-8.37886
11
12.8604
21
-8.37712
0
LINE
8
BLACK
6
CONTINUOUS
10
12.8604
20
-8.37712
11
12.8604
21
-8.37712
0
LINE
8
BLACK
6
CONTINUOUS
10
12.8604
20
-8.37712
11
12.8603
21
-8.37537
0
LINE
8
BLACK
6
CONTINUOUS
10
12.8603
20
-8.37537
11
12.8603
21
-8.37537
0
LINE
8
BLACK
6
CONTINUOUS
10
12.8603
20
-8.37537
11
12.8602
21
-8.37362
0
LINE
8
BLACK
6
CONTINUOUS
10
12.8602
20
-8.37362
11
12.8602
21
-8.32638
0
LINE
8
BLACK
6
CONTINUOUS
10
12.8602
20
-8.32638
11
12.8603
21
-8.32463
0
LINE
8
BLACK
6
CONTINUOUS
10
12.8603
20
-8.32463
11
12.8603
21
-8.32463
0
LINE
8
BLACK
6
CONTINUOUS
10
12.8603
20
-8.32463
11
12.8604
21
-8.32288
0
LINE
8
BLACK
6
CONTINUOUS
10
12.8604
20
-8.32288
11
12.8604
21
-8.32288
0
LINE
8
BLACK
6
CONTINUOUS
10
12.8604
20
-8.32288
11
12.8606
21
-8.32114
0
LINE
8
BLACK
6
CONTINUOUS
10
12.8606
20
-8.32114
11
12.8606
21
-8.32114
0
LINE
8
BLACK
6
CONTINUOUS
10
12.8606
20
-8.32114
11
12.8606
21
-8.32114
0
LINE
8
BLACK
6
CONTINUOUS
10
12.8606
20
-8.32114
11
12.861
21
-8.31942
0
LINE
8
BLACK
6
CONTINUOUS
10
12.861
20
-8.31942
11
12.861
21
-8.31942
0
LINE
8
BLACK
6
CONTINUOUS
10
12.861
20
-8.31942
11
12.8614
21
-8.31772
0
LINE
8
BLACK
6
CONTINUOUS
10
12.8614
20
-8.31772
11
12.8614
21
-8.31772
0
LINE
8
BLACK
6
CONTINUOUS
10
12.8614
20
-8.31772
11
12.8614
21
-8.31772
0
LINE
8
BLACK
6
CONTINUOUS
10
12.8614
20
-8.31772
11
12.8619
21
-8.31604
0
LINE
8
BLACK
6
CONTINUOUS
10
12.8619
20
-8.31604
11
12.8619
21
-8.31604
0
LINE
8
BLACK
6
CONTINUOUS
10
12.8619
20
-8.31604
11
12.8619
21
-8.31604
0
LINE
8
BLACK
6
CONTINUOUS
10
12.8619
20
-8.31604
11
12.8625
21
-8.31438
0
LINE
8
BLACK
6
CONTINUOUS
10
12.8625
20
-8.31438
11
12.8625
21
-8.31438
0
LINE
8
BLACK
6
CONTINUOUS
10
12.8625
20
-8.31438
11
12.8625
21
-8.31438
0
LINE
8
BLACK
6
CONTINUOUS
10
12.8625
20
-8.31438
11
12.8631
21
-8.31277
0
LINE
8
BLACK
6
CONTINUOUS
10
12.8631
20
-8.31277
11
12.8631
21
-8.31277
0
LINE
8
BLACK
6
CONTINUOUS
10
12.8631
20
-8.31277
11
12.8631
21
-8.31277
0
LINE
8
BLACK
6
CONTINUOUS
10
12.8631
20
-8.31277
11
12.8639
21
-8.31118
0
LINE
8
BLACK
6
CONTINUOUS
10
12.8639
20
-8.31118
11
12.8639
21
-8.31118
0
LINE
8
BLACK
6
CONTINUOUS
10
12.8639
20
-8.31118
11
12.8647
21
-8.30964
0
LINE
8
BLACK
6
CONTINUOUS
10
12.8647
20
-8.30964
11
12.8647
21
-8.30964
0
LINE
8
BLACK
6
CONTINUOUS
10
12.8647
20
-8.30964
11
12.8647
21
-8.30964
0
LINE
8
BLACK
6
CONTINUOUS
10
12.8647
20
-8.30964
11
12.8656
21
-8.30815
0
LINE
8
BLACK
6
CONTINUOUS
10
12.8656
20
-8.30815
11
12.8656
21
-8.30815
0
LINE
8
BLACK
6
CONTINUOUS
10
12.8656
20
-8.30815
11
12.8666
21
-8.30671
0
LINE
8
BLACK
6
CONTINUOUS
10
12.8666
20
-8.30671
11
12.8666
21
-8.30671
0
LINE
8
BLACK
6
CONTINUOUS
10
12.8666
20
-8.30671
11
12.8666
21
-8.30671
0
LINE
8
BLACK
6
CONTINUOUS
10
12.8666
20
-8.30671
11
12.8677
21
-8.30532
0
LINE
8
BLACK
6
CONTINUOUS
10
12.8677
20
-8.30532
11
12.8677
21
-8.30532
0
LINE
8
BLACK
6
CONTINUOUS
10
12.8677
20
-8.30532
11
12.8688
21
-8.30398
0
LINE
8
BLACK
6
CONTINUOUS
10
12.8688
20
-8.30398
11
12.8688
21
-8.30398
0
LINE
8
BLACK
6
CONTINUOUS
10
12.8688
20
-8.30398
11
12.8688
21
-8.30398
0
LINE
8
BLACK
6
CONTINUOUS
10
12.8688
20
-8.30398
11
12.87
21
-8.30271
0
LINE
8
BLACK
6
CONTINUOUS
10
12.87
20
-8.30271
11
12.87
21
-8.30271
0
LINE
8
BLACK
6
CONTINUOUS
10
12.87
20
-8.30271
11
12.87
21
-8.30271
0
LINE
8
BLACK
6
CONTINUOUS
10
12.87
20
-8.30271
11
12.8713
21
-8.30151
0
LINE
8
BLACK
6
CONTINUOUS
10
12.8713
20
-8.30151
11
12.8713
21
-8.30151
0
LINE
8
BLACK
6
CONTINUOUS
10
12.8713
20
-8.30151
11
12.8713
21
-8.30151
0
LINE
8
BLACK
6
CONTINUOUS
10
12.8713
20
-8.30151
11
12.8726
21
-8.30037
0
LINE
8
BLACK
6
CONTINUOUS
10
12.8726
20
-8.30037
11
12.8726
21
-8.30037
0
LINE
8
BLACK
6
CONTINUOUS
10
12.8726
20
-8.30037
11
12.8726
21
-8.30037
0
LINE
8
BLACK
6
CONTINUOUS
10
12.8726
20
-8.30037
11
12.874
21
-8.2993
0
LINE
8
BLACK
6
CONTINUOUS
10
12.874
20
-8.2993
11
12.874
21
-8.2993
0
LINE
8
BLACK
6
CONTINUOUS
10
12.874
20
-8.2993
11
12.874
21
-8.2993
0
LINE
8
BLACK
6
CONTINUOUS
10
12.874
20
-8.2993
11
12.8755
21
-8.29831
0
LINE
8
BLACK
6
CONTINUOUS
10
12.8755
20
-8.29831
11
12.8755
21
-8.29831
0
LINE
8
BLACK
6
CONTINUOUS
10
12.8755
20
-8.29831
11
12.877
21
-8.2974
0
LINE
8
BLACK
6
CONTINUOUS
10
12.877
20
-8.2974
11
12.877
21
-8.2974
0
LINE
8
BLACK
6
CONTINUOUS
10
12.877
20
-8.2974
11
12.877
21
-8.2974
0
LINE
8
BLACK
6
CONTINUOUS
10
12.877
20
-8.2974
11
12.8785
21
-8.29656
0
LINE
8
BLACK
6
CONTINUOUS
10
12.8785
20
-8.29656
11
12.8785
21
-8.29656
0
LINE
8
BLACK
6
CONTINUOUS
10
12.8785
20
-8.29656
11
12.8785
21
-8.29656
0
LINE
8
BLACK
6
CONTINUOUS
10
12.8785
20
-8.29656
11
12.8801
21
-8.2958
0
LINE
8
BLACK
6
CONTINUOUS
10
12.8801
20
-8.2958
11
12.8801
21
-8.2958
0
LINE
8
BLACK
6
CONTINUOUS
10
12.8801
20
-8.2958
11
12.8801
21
-8.2958
0
LINE
8
BLACK
6
CONTINUOUS
10
12.8801
20
-8.2958
11
12.8817
21
-8.29513
0
LINE
8
BLACK
6
CONTINUOUS
10
12.8817
20
-8.29513
11
12.8817
21
-8.29513
0
LINE
8
BLACK
6
CONTINUOUS
10
12.8817
20
-8.29513
11
12.8817
21
-8.29513
0
LINE
8
BLACK
6
CONTINUOUS
10
12.8817
20
-8.29513
11
12.8834
21
-8.29455
0
LINE
8
BLACK
6
CONTINUOUS
10
12.8834
20
-8.29455
11
12.8834
21
-8.29455
0
LINE
8
BLACK
6
CONTINUOUS
10
12.8834
20
-8.29455
11
12.8834
21
-8.29455
0
LINE
8
BLACK
6
CONTINUOUS
10
12.8834
20
-8.29455
11
12.885
21
-8.29405
0
LINE
8
BLACK
6
CONTINUOUS
10
12.885
20
-8.29405
11
12.885
21
-8.29405
0
LINE
8
BLACK
6
CONTINUOUS
10
12.885
20
-8.29405
11
12.8867
21
-8.29364
0
LINE
8
BLACK
6
CONTINUOUS
10
12.8867
20
-8.29364
11
12.8867
21
-8.29364
0
LINE
8
BLACK
6
CONTINUOUS
10
12.8867
20
-8.29364
11
12.8867
21
-8.29364
0
LINE
8
BLACK
6
CONTINUOUS
10
12.8867
20
-8.29364
11
12.8885
21
-8.29332
0
LINE
8
BLACK
6
CONTINUOUS
10
12.8885
20
-8.29332
11
12.8885
21
-8.29332
0
LINE
8
BLACK
6
CONTINUOUS
10
12.8885
20
-8.29332
11
12.8902
21
-8.29309
0
LINE
8
BLACK
6
CONTINUOUS
10
12.8902
20
-8.29309
11
12.8902
21
-8.29309
0
LINE
8
BLACK
6
CONTINUOUS
10
12.8902
20
-8.29309
11
12.8919
21
-8.29296
0
LINE
8
BLACK
6
CONTINUOUS
10
12.8919
20
-8.29296
11
12.8919
21
-8.29296
0
LINE
8
BLACK
6
CONTINUOUS
10
12.8919
20
-8.29296
11
12.8937
21
-8.29291
0
LINE
8
BLACK
6
CONTINUOUS
10
12.8937
20
-8.29291
11
12.8937
21
-8.29291
0
LINE
8
BLACK
6
CONTINUOUS
10
12.8937
20
-8.29291
11
12.8955
21
-8.29296
0
LINE
8
BLACK
6
CONTINUOUS
10
12.8955
20
-8.29296
11
12.8955
21
-8.29296
0
LINE
8
BLACK
6
CONTINUOUS
10
12.8955
20
-8.29296
11
12.8972
21
-8.29309
0
LINE
8
BLACK
6
CONTINUOUS
10
12.8972
20
-8.29309
11
12.8972
21
-8.29309
0
LINE
8
BLACK
6
CONTINUOUS
10
12.8972
20
-8.29309
11
12.8989
21
-8.29332
0
LINE
8
BLACK
6
CONTINUOUS
10
12.8989
20
-8.29332
11
12.8989
21
-8.29332
0
LINE
8
BLACK
6
CONTINUOUS
10
12.8989
20
-8.29332
11
12.8989
21
-8.29332
0
LINE
8
BLACK
6
CONTINUOUS
10
12.8989
20
-8.29332
11
12.9007
21
-8.29364
0
LINE
8
BLACK
6
CONTINUOUS
10
12.9007
20
-8.29364
11
12.9007
21
-8.29364
0
LINE
8
BLACK
6
CONTINUOUS
10
12.9007
20
-8.29364
11
12.9024
21
-8.29405
0
LINE
8
BLACK
6
CONTINUOUS
10
12.9024
20
-8.29405
11
12.9024
21
-8.29405
0
LINE
8
BLACK
6
CONTINUOUS
10
12.9024
20
-8.29405
11
12.9024
21
-8.29405
0
LINE
8
BLACK
6
CONTINUOUS
10
12.9024
20
-8.29405
11
12.904
21
-8.29455
0
LINE
8
BLACK
6
CONTINUOUS
10
12.904
20
-8.29455
11
12.904
21
-8.29455
0
LINE
8
BLACK
6
CONTINUOUS
10
12.904
20
-8.29455
11
12.904
21
-8.29455
0
LINE
8
BLACK
6
CONTINUOUS
10
12.904
20
-8.29455
11
12.9057
21
-8.29513
0
LINE
8
BLACK
6
CONTINUOUS
10
12.9057
20
-8.29513
11
12.9057
21
-8.29513
0
LINE
8
BLACK
6
CONTINUOUS
10
12.9057
20
-8.29513
11
12.9057
21
-8.29513
0
LINE
8
BLACK
6
CONTINUOUS
10
12.9057
20
-8.29513
11
12.9073
21
-8.2958
0
LINE
8
BLACK
6
CONTINUOUS
10
12.9073
20
-8.2958
11
12.9073
21
-8.2958
0
LINE
8
BLACK
6
CONTINUOUS
10
12.9073
20
-8.2958
11
12.9073
21
-8.2958
0
LINE
8
BLACK
6
CONTINUOUS
10
12.9073
20
-8.2958
11
12.9073
21
-8.2958
0
LINE
8
BLACK
6
CONTINUOUS
10
12.9073
20
-8.2958
11
12.9089
21
-8.29656
0
LINE
8
BLACK
6
CONTINUOUS
10
12.9089
20
-8.29656
11
12.9089
21
-8.29656
0
LINE
8
BLACK
6
CONTINUOUS
10
12.9089
20
-8.29656
11
12.9104
21
-8.2974
0
LINE
8
BLACK
6
CONTINUOUS
10
12.9104
20
-8.2974
11
12.9104
21
-8.2974
0
LINE
8
BLACK
6
CONTINUOUS
10
12.9104
20
-8.2974
11
12.9119
21
-8.29831
0
LINE
8
BLACK
6
CONTINUOUS
10
12.9119
20
-8.29831
11
12.9119
21
-8.29831
0
LINE
8
BLACK
6
CONTINUOUS
10
12.9119
20
-8.29831
11
12.9119
21
-8.29831
0
LINE
8
BLACK
6
CONTINUOUS
10
12.9119
20
-8.29831
11
12.9119
21
-8.29831
0
LINE
8
BLACK
6
CONTINUOUS
10
12.9119
20
-8.29831
11
12.9134
21
-8.2993
0
LINE
8
BLACK
6
CONTINUOUS
10
12.9134
20
-8.2993
11
12.9134
21
-8.2993
0
LINE
8
BLACK
6
CONTINUOUS
10
12.9134
20
-8.2993
11
12.9134
21
-8.2993
0
LINE
8
BLACK
6
CONTINUOUS
10
12.9134
20
-8.2993
11
12.9134
21
-8.2993
0
LINE
8
BLACK
6
CONTINUOUS
10
12.9134
20
-8.2993
11
12.9134
21
-8.2993
0
LINE
8
BLACK
6
CONTINUOUS
10
12.9134
20
-8.2993
11
12.9148
21
-8.30037
0
LINE
8
BLACK
6
CONTINUOUS
10
12.9148
20
-8.30037
11
12.9148
21
-8.30037
0
LINE
8
BLACK
6
CONTINUOUS
10
12.9148
20
-8.30037
11
12.9161
21
-8.30151
0
LINE
8
BLACK
6
CONTINUOUS
10
12.9161
20
-8.30151
11
12.9161
21
-8.30151
0
LINE
8
BLACK
6
CONTINUOUS
10
12.9161
20
-8.30151
11
12.9174
21
-8.30271
0
LINE
8
BLACK
6
CONTINUOUS
10
12.8799
20
-8.37434
11
12.8799
21
-8.37434
0
LINE
8
BLACK
6
CONTINUOUS
10
12.8799
20
-8.37434
11
12.88
21
-8.37506
0
LINE
8
BLACK
6
CONTINUOUS
10
12.88
20
-8.37506
11
12.88
21
-8.37506
0
LINE
8
BLACK
6
CONTINUOUS
10
12.88
20
-8.37506
11
12.8801
21
-8.37578
0
LINE
8
BLACK
6
CONTINUOUS
10
12.8801
20
-8.37578
11
12.8802
21
-8.37649
0
LINE
8
BLACK
6
CONTINUOUS
10
12.8802
20
-8.37649
11
12.8802
21
-8.37649
0
LINE
8
BLACK
6
CONTINUOUS
10
12.8802
20
-8.37649
11
12.8804
21
-8.37719
0
LINE
8
BLACK
6
CONTINUOUS
10
12.8804
20
-8.37719
11
12.8806
21
-8.37788
0
LINE
8
BLACK
6
CONTINUOUS
10
12.8806
20
-8.37788
11
12.8808
21
-8.37856
0
LINE
8
BLACK
6
CONTINUOUS
10
12.8808
20
-8.37856
11
12.8811
21
-8.37923
0
LINE
8
BLACK
6
CONTINUOUS
10
12.8811
20
-8.37923
11
12.8811
21
-8.37923
0
LINE
8
BLACK
6
CONTINUOUS
10
12.8811
20
-8.37923
11
12.8814
21
-8.37988
0
LINE
8
BLACK
6
CONTINUOUS
10
12.8814
20
-8.37988
11
12.8818
21
-8.38051
0
LINE
8
BLACK
6
CONTINUOUS
10
12.8818
20
-8.38051
11
12.8818
21
-8.38051
0
LINE
8
BLACK
6
CONTINUOUS
10
12.8818
20
-8.38051
11
12.8821
21
-8.38113
0
LINE
8
BLACK
6
CONTINUOUS
10
12.8821
20
-8.38113
11
12.8821
21
-8.38113
0
LINE
8
BLACK
6
CONTINUOUS
10
12.8821
20
-8.38113
11
12.8826
21
-8.38172
0
LINE
8
BLACK
6
CONTINUOUS
10
12.8826
20
-8.38172
11
12.8826
21
-8.38172
0
LINE
8
BLACK
6
CONTINUOUS
10
12.8826
20
-8.38172
11
12.883
21
-8.38229
0
LINE
8
BLACK
6
CONTINUOUS
10
12.883
20
-8.38229
11
12.8835
21
-8.38284
0
LINE
8
BLACK
6
CONTINUOUS
10
12.8835
20
-8.38284
11
12.8835
21
-8.38284
0
LINE
8
BLACK
6
CONTINUOUS
10
12.8835
20
-8.38284
11
12.8835
21
-8.38284
0
LINE
8
BLACK
6
CONTINUOUS
10
12.8835
20
-8.38284
11
12.8835
21
-8.38284
0
LINE
8
BLACK
6
CONTINUOUS
10
12.8835
20
-8.38284
11
12.884
21
-8.38336
0
LINE
8
BLACK
6
CONTINUOUS
10
12.884
20
-8.38336
11
12.884
21
-8.38336
0
LINE
8
BLACK
6
CONTINUOUS
10
12.884
20
-8.38336
11
12.884
21
-8.38336
0
LINE
8
BLACK
6
CONTINUOUS
10
12.884
20
-8.38336
11
12.884
21
-8.38336
0
LINE
8
BLACK
6
CONTINUOUS
10
12.884
20
-8.38336
11
12.8845
21
-8.38386
0
LINE
8
BLACK
6
CONTINUOUS
10
12.8845
20
-8.38386
11
12.8845
21
-8.38386
0
LINE
8
BLACK
6
CONTINUOUS
10
12.8845
20
-8.38386
11
12.885
21
-8.38433
0
LINE
8
BLACK
6
CONTINUOUS
10
12.885
20
-8.38433
11
12.8856
21
-8.38477
0
LINE
8
BLACK
6
CONTINUOUS
10
12.8856
20
-8.38477
11
12.8862
21
-8.38518
0
LINE
8
BLACK
6
CONTINUOUS
10
12.8862
20
-8.38518
11
12.8862
21
-8.38518
0
LINE
8
BLACK
6
CONTINUOUS
10
12.8862
20
-8.38518
11
12.8868
21
-8.38555
0
LINE
8
BLACK
6
CONTINUOUS
10
12.8868
20
-8.38555
11
12.8874
21
-8.3859
0
LINE
8
BLACK
6
CONTINUOUS
10
12.8874
20
-8.3859
11
12.8874
21
-8.3859
0
LINE
8
BLACK
6
CONTINUOUS
10
12.8874
20
-8.3859
11
12.8881
21
-8.38621
0
LINE
8
BLACK
6
CONTINUOUS
10
12.8881
20
-8.38621
11
12.8881
21
-8.38621
0
LINE
8
BLACK
6
CONTINUOUS
10
12.8881
20
-8.38621
11
12.8881
21
-8.38621
0
LINE
8
BLACK
6
CONTINUOUS
10
12.8881
20
-8.38621
11
12.8881
21
-8.38621
0
LINE
8
BLACK
6
CONTINUOUS
10
12.8881
20
-8.38621
11
12.8888
21
-8.38648
0
LINE
8
BLACK
6
CONTINUOUS
10
12.8888
20
-8.38648
11
12.8888
21
-8.38648
0
LINE
8
BLACK
6
CONTINUOUS
10
12.8888
20
-8.38648
11
12.8894
21
-8.38673
0
LINE
8
BLACK
6
CONTINUOUS
10
12.8894
20
-8.38673
11
12.8901
21
-8.38693
0
LINE
8
BLACK
6
CONTINUOUS
10
12.8901
20
-8.38693
11
12.8901
21
-8.38693
0
LINE
8
BLACK
6
CONTINUOUS
10
12.8901
20
-8.38693
11
12.8908
21
-8.3871
0
LINE
8
BLACK
6
CONTINUOUS
10
12.8908
20
-8.3871
11
12.8915
21
-8.38723
0
LINE
8
BLACK
6
CONTINUOUS
10
12.8915
20
-8.38723
11
12.8915
21
-8.38723
0
LINE
8
BLACK
6
CONTINUOUS
10
12.8915
20
-8.38723
11
12.8923
21
-8.38732
0
LINE
8
BLACK
6
CONTINUOUS
10
12.8923
20
-8.38732
11
12.893
21
-8.38738
0
LINE
8
BLACK
6
CONTINUOUS
10
12.893
20
-8.38738
11
12.893
21
-8.38738
0
LINE
8
BLACK
6
CONTINUOUS
10
12.893
20
-8.38738
11
12.8937
21
-8.3874
0
LINE
8
BLACK
6
CONTINUOUS
10
12.8937
20
-8.3874
11
12.8944
21
-8.38738
0
LINE
8
BLACK
6
CONTINUOUS
10
12.8944
20
-8.38738
11
12.8951
21
-8.38732
0
LINE
8
BLACK
6
CONTINUOUS
10
12.8951
20
-8.38732
11
12.8951
21
-8.38732
0
LINE
8
BLACK
6
CONTINUOUS
10
12.8951
20
-8.38732
11
12.8959
21
-8.38723
0
LINE
8
BLACK
6
CONTINUOUS
10
12.8959
20
-8.38723
11
12.8959
21
-8.38723
0
LINE
8
BLACK
6
CONTINUOUS
10
12.8959
20
-8.38723
11
12.8966
21
-8.3871
0
LINE
8
BLACK
6
CONTINUOUS
10
12.8966
20
-8.3871
11
12.8966
21
-8.3871
0
LINE
8
BLACK
6
CONTINUOUS
10
12.8966
20
-8.3871
11
12.8973
21
-8.38693
0
LINE
8
BLACK
6
CONTINUOUS
10
12.8973
20
-8.38693
11
12.8973
21
-8.38693
0
LINE
8
BLACK
6
CONTINUOUS
10
12.8973
20
-8.38693
11
12.898
21
-8.38673
0
LINE
8
BLACK
6
CONTINUOUS
10
12.898
20
-8.38673
11
12.8986
21
-8.38648
0
LINE
8
BLACK
6
CONTINUOUS
10
12.8986
20
-8.38648
11
12.8993
21
-8.38621
0
LINE
8
BLACK
6
CONTINUOUS
10
12.8993
20
-8.38621
11
12.8993
21
-8.38621
0
LINE
8
BLACK
6
CONTINUOUS
10
12.8993
20
-8.38621
11
12.9
21
-8.3859
0
LINE
8
BLACK
6
CONTINUOUS
10
12.9
20
-8.3859
11
12.9006
21
-8.38555
0
LINE
8
BLACK
6
CONTINUOUS
10
12.9006
20
-8.38555
11
12.9012
21
-8.38518
0
LINE
8
BLACK
6
CONTINUOUS
10
12.9012
20
-8.38518
11
12.9012
21
-8.38518
0
LINE
8
BLACK
6
CONTINUOUS
10
12.9012
20
-8.38518
11
12.9018
21
-8.38477
0
LINE
8
BLACK
6
CONTINUOUS
10
12.9018
20
-8.38477
11
12.9018
21
-8.38477
0
LINE
8
BLACK
6
CONTINUOUS
10
12.9018
20
-8.38477
11
12.9024
21
-8.38433
0
LINE
8
BLACK
6
CONTINUOUS
10
12.9024
20
-8.38433
11
12.9029
21
-8.38386
0
LINE
8
BLACK
6
CONTINUOUS
10
12.9029
20
-8.38386
11
12.9029
21
-8.38386
0
LINE
8
BLACK
6
CONTINUOUS
10
12.9029
20
-8.38386
11
12.9029
21
-8.38386
0
LINE
8
BLACK
6
CONTINUOUS
10
12.9029
20
-8.38386
11
12.9034
21
-8.38336
0
LINE
8
BLACK
6
CONTINUOUS
10
12.9034
20
-8.38336
11
12.9034
21
-8.38336
0
LINE
8
BLACK
6
CONTINUOUS
10
12.9034
20
-8.38336
11
12.9034
21
-8.38336
0
LINE
8
BLACK
6
CONTINUOUS
10
12.9034
20
-8.38336
11
12.9039
21
-8.38284
0
LINE
8
BLACK
6
CONTINUOUS
10
12.9039
20
-8.38284
11
12.9039
21
-8.38284
0
LINE
8
BLACK
6
CONTINUOUS
10
12.9039
20
-8.38284
11
12.9044
21
-8.38229
0
LINE
8
BLACK
6
CONTINUOUS
10
12.9044
20
-8.38229
11
12.9048
21
-8.38172
0
LINE
8
BLACK
6
CONTINUOUS
10
12.9048
20
-8.38172
11
12.9053
21
-8.38113
0
LINE
8
BLACK
6
CONTINUOUS
10
12.9053
20
-8.38113
11
12.9053
21
-8.38113
0
LINE
8
BLACK
6
CONTINUOUS
10
12.9053
20
-8.38113
11
12.9056
21
-8.38051
0
LINE
8
BLACK
6
CONTINUOUS
10
12.9056
20
-8.38051
11
12.9056
21
-8.38051
0
LINE
8
BLACK
6
CONTINUOUS
10
12.9056
20
-8.38051
11
12.9056
21
-8.38051
0
LINE
8
BLACK
6
CONTINUOUS
10
12.9056
20
-8.38051
11
12.906
21
-8.37988
0
LINE
8
BLACK
6
CONTINUOUS
10
12.906
20
-8.37988
11
12.9063
21
-8.37923
0
LINE
8
BLACK
6
CONTINUOUS
10
12.9063
20
-8.37923
11
12.9063
21
-8.37923
0
LINE
8
BLACK
6
CONTINUOUS
10
12.9063
20
-8.37923
11
12.9063
21
-8.37923
0
LINE
8
BLACK
6
CONTINUOUS
10
12.9063
20
-8.37923
11
12.9066
21
-8.37856
0
LINE
8
BLACK
6
CONTINUOUS
10
12.9066
20
-8.37856
11
12.9066
21
-8.37856
0
LINE
8
BLACK
6
CONTINUOUS
10
12.9066
20
-8.37856
11
12.9068
21
-8.37788
0
LINE
8
BLACK
6
CONTINUOUS
10
12.9068
20
-8.37788
11
12.907
21
-8.37719
0
LINE
8
BLACK
6
CONTINUOUS
10
12.907
20
-8.37719
11
12.9072
21
-8.37649
0
LINE
8
BLACK
6
CONTINUOUS
10
12.9072
20
-8.37649
11
12.9072
21
-8.37649
0
LINE
8
BLACK
6
CONTINUOUS
10
12.9072
20
-8.37649
11
12.9073
21
-8.37578
0
LINE
8
BLACK
6
CONTINUOUS
10
12.9073
20
-8.37578
11
12.9073
21
-8.37578
0
LINE
8
BLACK
6
CONTINUOUS
10
12.9073
20
-8.37578
11
12.9074
21
-8.37506
0
LINE
8
BLACK
6
CONTINUOUS
10
12.9074
20
-8.37506
11
12.9075
21
-8.37434
0
LINE
8
BLACK
6
CONTINUOUS
10
12.9075
20
-8.37434
11
12.9075
21
-8.37434
0
LINE
8
BLACK
6
CONTINUOUS
10
12.9075
20
-8.37434
11
12.9075
21
-8.37362
0
LINE
8
BLACK
6
CONTINUOUS
10
12.9075
20
-8.37362
11
12.9075
21
-8.32638
0
LINE
8
BLACK
6
CONTINUOUS
10
12.9075
20
-8.32638
11
12.9075
21
-8.32566
0
LINE
8
BLACK
6
CONTINUOUS
10
12.9075
20
-8.32566
11
12.9075
21
-8.32566
0
LINE
8
BLACK
6
CONTINUOUS
10
12.9075
20
-8.32566
11
12.9074
21
-8.32494
0
LINE
8
BLACK
6
CONTINUOUS
10
12.9074
20
-8.32494
11
12.9073
21
-8.32422
0
LINE
8
BLACK
6
CONTINUOUS
10
12.9073
20
-8.32422
11
12.9073
21
-8.32422
0
LINE
8
BLACK
6
CONTINUOUS
10
12.9073
20
-8.32422
11
12.9072
21
-8.32351
0
LINE
8
BLACK
6
CONTINUOUS
10
12.9072
20
-8.32351
11
12.9072
21
-8.32351
0
LINE
8
BLACK
6
CONTINUOUS
10
12.9072
20
-8.32351
11
12.907
21
-8.32281
0
LINE
8
BLACK
6
CONTINUOUS
10
12.907
20
-8.32281
11
12.907
21
-8.32281
0
LINE
8
BLACK
6
CONTINUOUS
10
12.907
20
-8.32281
11
12.9068
21
-8.32212
0
LINE
8
BLACK
6
CONTINUOUS
10
12.9068
20
-8.32212
11
12.9068
21
-8.32212
0
LINE
8
BLACK
6
CONTINUOUS
10
12.9068
20
-8.32212
11
12.9066
21
-8.32144
0
LINE
8
BLACK
6
CONTINUOUS
10
12.9066
20
-8.32144
11
12.9066
21
-8.32144
0
LINE
8
BLACK
6
CONTINUOUS
10
12.9066
20
-8.32144
11
12.9063
21
-8.32077
0
LINE
8
BLACK
6
CONTINUOUS
10
12.9063
20
-8.32077
11
12.9063
21
-8.32077
0
LINE
8
BLACK
6
CONTINUOUS
10
12.9063
20
-8.32077
11
12.9063
21
-8.32077
0
LINE
8
BLACK
6
CONTINUOUS
10
12.9063
20
-8.32077
11
12.906
21
-8.32012
0
LINE
8
BLACK
6
CONTINUOUS
10
12.906
20
-8.32012
11
12.906
21
-8.32012
0
LINE
8
BLACK
6
CONTINUOUS
10
12.906
20
-8.32012
11
12.906
21
-8.32012
0
LINE
8
BLACK
6
CONTINUOUS
10
12.906
20
-8.32012
11
12.9056
21
-8.31949
0
LINE
8
BLACK
6
CONTINUOUS
10
12.9056
20
-8.31949
11
12.9053
21
-8.31887
0
LINE
8
BLACK
6
CONTINUOUS
10
12.9053
20
-8.31887
11
12.9053
21
-8.31887
0
LINE
8
BLACK
6
CONTINUOUS
10
12.9053
20
-8.31887
11
12.9048
21
-8.31828
0
LINE
8
BLACK
6
CONTINUOUS
10
12.9048
20
-8.31828
11
12.9048
21
-8.31828
0
LINE
8
BLACK
6
CONTINUOUS
10
12.9048
20
-8.31828
11
12.9044
21
-8.31771
0
LINE
8
BLACK
6
CONTINUOUS
10
12.9044
20
-8.31771
11
12.9039
21
-8.31716
0
LINE
8
BLACK
6
CONTINUOUS
10
12.9039
20
-8.31716
11
12.9039
21
-8.31716
0
LINE
8
BLACK
6
CONTINUOUS
10
12.9039
20
-8.31716
11
12.9034
21
-8.31664
0
LINE
8
BLACK
6
CONTINUOUS
10
12.9034
20
-8.31664
11
12.9034
21
-8.31664
0
LINE
8
BLACK
6
CONTINUOUS
10
12.9034
20
-8.31664
11
12.9034
21
-8.31664
0
LINE
8
BLACK
6
CONTINUOUS
10
12.9034
20
-8.31664
11
12.9029
21
-8.31614
0
LINE
8
BLACK
6
CONTINUOUS
10
12.9029
20
-8.31614
11
12.9029
21
-8.31614
0
LINE
8
BLACK
6
CONTINUOUS
10
12.9029
20
-8.31614
11
12.9029
21
-8.31614
0
LINE
8
BLACK
6
CONTINUOUS
10
12.9029
20
-8.31614
11
12.9024
21
-8.31567
0
LINE
8
BLACK
6
CONTINUOUS
10
12.9024
20
-8.31567
11
12.9018
21
-8.31523
0
LINE
8
BLACK
6
CONTINUOUS
10
12.9018
20
-8.31523
11
12.9018
21
-8.31523
0
LINE
8
BLACK
6
CONTINUOUS
10
12.9018
20
-8.31523
11
12.9018
21
-8.31523
0
LINE
8
BLACK
6
CONTINUOUS
10
12.9018
20
-8.31523
11
12.9012
21
-8.31482
0
LINE
8
BLACK
6
CONTINUOUS
10
12.9012
20
-8.31482
11
12.9012
21
-8.31482
0
LINE
8
BLACK
6
CONTINUOUS
10
12.9012
20
-8.31482
11
12.9012
21
-8.31482
0
LINE
8
BLACK
6
CONTINUOUS
10
12.9012
20
-8.31482
11
12.9006
21
-8.31445
0
LINE
8
BLACK
6
CONTINUOUS
10
12.9006
20
-8.31445
11
12.9
21
-8.3141
0
LINE
8
BLACK
6
CONTINUOUS
10
12.9
20
-8.3141
11
12.8993
21
-8.31379
0
LINE
8
BLACK
6
CONTINUOUS
10
12.8993
20
-8.31379
11
12.8993
21
-8.31379
0
LINE
8
BLACK
6
CONTINUOUS
10
12.8993
20
-8.31379
11
12.8986
21
-8.31352
0
LINE
8
BLACK
6
CONTINUOUS
10
12.8986
20
-8.31352
11
12.8986
21
-8.31352
0
LINE
8
BLACK
6
CONTINUOUS
10
12.8986
20
-8.31352
11
12.898
21
-8.31327
0
LINE
8
BLACK
6
CONTINUOUS
10
12.898
20
-8.31327
11
12.898
21
-8.31327
0
LINE
8
BLACK
6
CONTINUOUS
10
12.898
20
-8.31327
11
12.8973
21
-8.31307
0
LINE
8
BLACK
6
CONTINUOUS
10
12.8973
20
-8.31307
11
12.8973
21
-8.31307
0
LINE
8
BLACK
6
CONTINUOUS
10
12.8973
20
-8.31307
11
12.8966
21
-8.3129
0
LINE
8
BLACK
6
CONTINUOUS
10
12.8966
20
-8.3129
11
12.8966
21
-8.3129
0
LINE
8
BLACK
6
CONTINUOUS
10
12.8966
20
-8.3129
11
12.8959
21
-8.31277
0
LINE
8
BLACK
6
CONTINUOUS
10
12.8959
20
-8.31277
11
12.8959
21
-8.31277
0
LINE
8
BLACK
6
CONTINUOUS
10
12.8959
20
-8.31277
11
12.8951
21
-8.31268
0
LINE
8
BLACK
6
CONTINUOUS
10
12.8951
20
-8.31268
11
12.8944
21
-8.31262
0
LINE
8
BLACK
6
CONTINUOUS
10
12.8944
20
-8.31262
11
12.8944
21
-8.31262
0
LINE
8
BLACK
6
CONTINUOUS
10
12.8944
20
-8.31262
11
12.8937
21
-8.3126
0
LINE
8
BLACK
6
CONTINUOUS
10
12.8937
20
-8.3126
11
12.893
21
-8.31262
0
LINE
8
BLACK
6
CONTINUOUS
10
12.893
20
-8.31262
11
12.8923
21
-8.31268
0
LINE
8
BLACK
6
CONTINUOUS
10
12.8923
20
-8.31268
11
12.8923
21
-8.31268
0
LINE
8
BLACK
6
CONTINUOUS
10
12.8923
20
-8.31268
11
12.8915
21
-8.31277
0
LINE
8
BLACK
6
CONTINUOUS
10
12.8915
20
-8.31277
11
12.8915
21
-8.31277
0
LINE
8
BLACK
6
CONTINUOUS
10
12.8915
20
-8.31277
11
12.8908
21
-8.3129
0
LINE
8
BLACK
6
CONTINUOUS
10
12.8908
20
-8.3129
11
12.8908
21
-8.3129
0
LINE
8
BLACK
6
CONTINUOUS
10
12.8908
20
-8.3129
11
12.8901
21
-8.31307
0
LINE
8
BLACK
6
CONTINUOUS
10
12.8901
20
-8.31307
11
12.8894
21
-8.31327
0
LINE
8
BLACK
6
CONTINUOUS
10
12.8894
20
-8.31327
11
12.8888
21
-8.31352
0
LINE
8
BLACK
6
CONTINUOUS
10
12.8888
20
-8.31352
11
12.8881
21
-8.31379
0
LINE
8
BLACK
6
CONTINUOUS
10
12.8881
20
-8.31379
11
12.8881
21
-8.31379
0
LINE
8
BLACK
6
CONTINUOUS
10
12.8881
20
-8.31379
11
12.8881
21
-8.31379
0
LINE
8
BLACK
6
CONTINUOUS
10
12.8881
20
-8.31379
11
12.8874
21
-8.3141
0
LINE
8
BLACK
6
CONTINUOUS
10
12.8874
20
-8.3141
11
12.8874
21
-8.3141
0
LINE
8
BLACK
6
CONTINUOUS
10
12.8874
20
-8.3141
11
12.8874
21
-8.3141
0
LINE
8
BLACK
6
CONTINUOUS
10
12.8874
20
-8.3141
11
12.8868
21
-8.31445
0
LINE
8
BLACK
6
CONTINUOUS
10
12.8868
20
-8.31445
11
12.8862
21
-8.31482
0
LINE
8
BLACK
6
CONTINUOUS
10
12.8862
20
-8.31482
11
12.8862
21
-8.31482
0
LINE
8
BLACK
6
CONTINUOUS
10
12.8862
20
-8.31482
11
12.8856
21
-8.31523
0
LINE
8
BLACK
6
CONTINUOUS
10
12.8856
20
-8.31523
11
12.8856
21
-8.31523
0
LINE
8
BLACK
6
CONTINUOUS
10
12.8856
20
-8.31523
11
12.885
21
-8.31567
0
LINE
8
BLACK
6
CONTINUOUS
10
12.885
20
-8.31567
11
12.885
21
-8.31567
0
LINE
8
BLACK
6
CONTINUOUS
10
12.885
20
-8.31567
11
12.8845
21
-8.31614
0
LINE
8
BLACK
6
CONTINUOUS
10
12.8845
20
-8.31614
11
12.8845
21
-8.31614
0
LINE
8
BLACK
6
CONTINUOUS
10
12.8845
20
-8.31614
11
12.884
21
-8.31664
0
LINE
8
BLACK
6
CONTINUOUS
10
12.884
20
-8.31664
11
12.884
21
-8.31664
0
LINE
8
BLACK
6
CONTINUOUS
10
12.884
20
-8.31664
11
12.884
21
-8.31664
0
LINE
8
BLACK
6
CONTINUOUS
10
12.884
20
-8.31664
11
12.8835
21
-8.31716
0
LINE
8
BLACK
6
CONTINUOUS
10
12.8835
20
-8.31716
11
12.8835
21
-8.31716
0
LINE
8
BLACK
6
CONTINUOUS
10
12.8835
20
-8.31716
11
12.8835
21
-8.31716
0
LINE
8
BLACK
6
CONTINUOUS
10
12.8835
20
-8.31716
11
12.883
21
-8.31771
0
LINE
8
BLACK
6
CONTINUOUS
10
12.883
20
-8.31771
11
12.883
21
-8.31771
0
LINE
8
BLACK
6
CONTINUOUS
10
12.883
20
-8.31771
11
12.8826
21
-8.31828
0
LINE
8
BLACK
6
CONTINUOUS
10
12.8826
20
-8.31828
11
12.8821
21
-8.31887
0
LINE
8
BLACK
6
CONTINUOUS
10
12.8821
20
-8.31887
11
12.8821
21
-8.31887
0
LINE
8
BLACK
6
CONTINUOUS
10
12.8821
20
-8.31887
11
12.8818
21
-8.31949
0
LINE
8
BLACK
6
CONTINUOUS
10
12.8818
20
-8.31949
11
12.8814
21
-8.32012
0
LINE
8
BLACK
6
CONTINUOUS
10
12.8814
20
-8.32012
11
12.8811
21
-8.32077
0
LINE
8
BLACK
6
CONTINUOUS
10
12.8811
20
-8.32077
11
12.8808
21
-8.32144
0
LINE
8
BLACK
6
CONTINUOUS
10
12.8808
20
-8.32144
11
12.8808
21
-8.32144
0
LINE
8
BLACK
6
CONTINUOUS
10
12.8808
20
-8.32144
11
12.8806
21
-8.32212
0
LINE
8
BLACK
6
CONTINUOUS
10
12.8806
20
-8.32212
11
12.8806
21
-8.32212
0
LINE
8
BLACK
6
CONTINUOUS
10
12.8806
20
-8.32212
11
12.8804
21
-8.32281
0
LINE
8
BLACK
6
CONTINUOUS
10
12.8804
20
-8.32281
11
12.8804
21
-8.32281
0
LINE
8
BLACK
6
CONTINUOUS
10
12.8804
20
-8.32281
11
12.8802
21
-8.32351
0
LINE
8
BLACK
6
CONTINUOUS
10
12.8802
20
-8.32351
11
12.8802
21
-8.32351
0
LINE
8
BLACK
6
CONTINUOUS
10
12.8802
20
-8.32351
11
12.8801
21
-8.32422
0
LINE
8
BLACK
6
CONTINUOUS
10
12.8801
20
-8.32422
11
12.8801
21
-8.32422
0
LINE
8
BLACK
6
CONTINUOUS
10
12.8801
20
-8.32422
11
12.88
21
-8.32494
0
LINE
8
BLACK
6
CONTINUOUS
10
12.88
20
-8.32494
11
12.8799
21
-8.32566
0
LINE
8
BLACK
6
CONTINUOUS
10
12.8799
20
-8.32566
11
12.8799
21
-8.32566
0
LINE
8
BLACK
6
CONTINUOUS
10
12.8799
20
-8.32566
11
12.8799
21
-8.32638
0
LINE
8
BLACK
6
CONTINUOUS
10
12.8799
20
-8.32638
11
12.8799
21
-8.37362
0
LINE
8
BLACK
6
CONTINUOUS
10
12.8799
20
-8.37362
11
12.8799
21
-8.37434
0
LINE
8
BLACK
6
CONTINUOUS
10
12.63
20
-8.30271
11
12.63
21
-8.30271
0
LINE
8
BLACK
6
CONTINUOUS
10
12.63
20
-8.30271
11
12.63
21
-8.30271
0
LINE
8
BLACK
6
CONTINUOUS
10
12.63
20
-8.30271
11
12.6312
21
-8.30398
0
LINE
8
BLACK
6
CONTINUOUS
10
12.6312
20
-8.30398
11
12.6312
21
-8.30398
0
LINE
8
BLACK
6
CONTINUOUS
10
12.6312
20
-8.30398
11
12.6312
21
-8.30398
0
LINE
8
BLACK
6
CONTINUOUS
10
12.6312
20
-8.30398
11
12.6312
21
-8.30398
0
LINE
8
BLACK
6
CONTINUOUS
10
12.6312
20
-8.30398
11
12.6312
21
-8.30398
0
LINE
8
BLACK
6
CONTINUOUS
10
12.6312
20
-8.30398
11
12.6323
21
-8.30532
0
LINE
8
BLACK
6
CONTINUOUS
10
12.6323
20
-8.30532
11
12.6323
21
-8.30532
0
LINE
8
BLACK
6
CONTINUOUS
10
12.6323
20
-8.30532
11
12.6323
21
-8.30532
0
LINE
8
BLACK
6
CONTINUOUS
10
12.6323
20
-8.30532
11
12.6334
21
-8.30671
0
LINE
8
BLACK
6
CONTINUOUS
10
12.6334
20
-8.30671
11
12.6334
21
-8.30671
0
LINE
8
BLACK
6
CONTINUOUS
10
12.6334
20
-8.30671
11
12.6334
21
-8.30671
0
LINE
8
BLACK
6
CONTINUOUS
10
12.6334
20
-8.30671
11
12.6344
21
-8.30815
0
LINE
8
BLACK
6
CONTINUOUS
10
12.6344
20
-8.30815
11
12.6344
21
-8.30815
0
LINE
8
BLACK
6
CONTINUOUS
10
12.6344
20
-8.30815
11
12.6353
21
-8.30964
0
LINE
8
BLACK
6
CONTINUOUS
10
12.6353
20
-8.30964
11
12.6353
21
-8.30964
0
LINE
8
BLACK
6
CONTINUOUS
10
12.6353
20
-8.30964
11
12.6353
21
-8.30964
0
LINE
8
BLACK
6
CONTINUOUS
10
12.6353
20
-8.30964
11
12.6361
21
-8.31118
0
LINE
8
BLACK
6
CONTINUOUS
10
12.6361
20
-8.31118
11
12.6361
21
-8.31118
0
LINE
8
BLACK
6
CONTINUOUS
10
12.6361
20
-8.31118
11
12.6361
21
-8.31118
0
LINE
8
BLACK
6
CONTINUOUS
10
12.6361
20
-8.31118
11
12.6369
21
-8.31277
0
LINE
8
BLACK
6
CONTINUOUS
10
12.6369
20
-8.31277
11
12.6369
21
-8.31277
0
LINE
8
BLACK
6
CONTINUOUS
10
12.6369
20
-8.31277
11
12.6369
21
-8.31277
0
LINE
8
BLACK
6
CONTINUOUS
10
12.6369
20
-8.31277
11
12.6375
21
-8.31438
0
LINE
8
BLACK
6
CONTINUOUS
10
12.6375
20
-8.31438
11
12.6375
21
-8.31438
0
LINE
8
BLACK
6
CONTINUOUS
10
12.6375
20
-8.31438
11
12.6381
21
-8.31604
0
LINE
8
BLACK
6
CONTINUOUS
10
12.6381
20
-8.31604
11
12.6381
21
-8.31604
0
LINE
8
BLACK
6
CONTINUOUS
10
12.6381
20
-8.31604
11
12.6386
21
-8.31772
0
LINE
8
BLACK
6
CONTINUOUS
10
12.6386
20
-8.31772
11
12.6386
21
-8.31772
0
LINE
8
BLACK
6
CONTINUOUS
10
12.6386
20
-8.31772
11
12.639
21
-8.31942
0
LINE
8
BLACK
6
CONTINUOUS
10
12.639
20
-8.31942
11
12.639
21
-8.31942
0
LINE
8
BLACK
6
CONTINUOUS
10
12.639
20
-8.31942
11
12.6394
21
-8.32114
0
LINE
8
BLACK
6
CONTINUOUS
10
12.6394
20
-8.32114
11
12.6394
21
-8.32114
0
LINE
8
BLACK
6
CONTINUOUS
10
12.6394
20
-8.32114
11
12.6396
21
-8.32288
0
LINE
8
BLACK
6
CONTINUOUS
10
12.6396
20
-8.32288
11
12.6396
21
-8.32288
0
LINE
8
BLACK
6
CONTINUOUS
10
12.6396
20
-8.32288
11
12.6397
21
-8.32463
0
LINE
8
BLACK
6
CONTINUOUS
10
12.6397
20
-8.32463
11
12.6397
21
-8.32463
0
LINE
8
BLACK
6
CONTINUOUS
10
12.6397
20
-8.32463
11
12.6398
21
-8.32638
0
LINE
8
BLACK
6
CONTINUOUS
10
12.6398
20
-8.32638
11
12.6398
21
-8.37362
0
LINE
8
BLACK
6
CONTINUOUS
10
12.6398
20
-8.37362
11
12.6397
21
-8.37537
0
LINE
8
BLACK
6
CONTINUOUS
10
12.6397
20
-8.37537
11
12.6397
21
-8.37537
0
LINE
8
BLACK
6
CONTINUOUS
10
12.6397
20
-8.37537
11
12.6396
21
-8.37712
0
LINE
8
BLACK
6
CONTINUOUS
10
12.6396
20
-8.37712
11
12.6396
21
-8.37712
0
LINE
8
BLACK
6
CONTINUOUS
10
12.6396
20
-8.37712
11
12.6394
21
-8.37886
0
LINE
8
BLACK
6
CONTINUOUS
10
12.6394
20
-8.37886
11
12.6394
21
-8.37886
0
LINE
8
BLACK
6
CONTINUOUS
10
12.6394
20
-8.37886
11
12.6394
21
-8.37886
0
LINE
8
BLACK
6
CONTINUOUS
10
12.6394
20
-8.37886
11
12.639
21
-8.38058
0
LINE
8
BLACK
6
CONTINUOUS
10
12.639
20
-8.38058
11
12.639
21
-8.38058
0
LINE
8
BLACK
6
CONTINUOUS
10
12.639
20
-8.38058
11
12.639
21
-8.38058
0
LINE
8
BLACK
6
CONTINUOUS
10
12.639
20
-8.38058
11
12.6386
21
-8.38228
0
LINE
8
BLACK
6
CONTINUOUS
10
12.6386
20
-8.38228
11
12.6386
21
-8.38228
0
LINE
8
BLACK
6
CONTINUOUS
10
12.6386
20
-8.38228
11
12.6386
21
-8.38228
0
LINE
8
BLACK
6
CONTINUOUS
10
12.6386
20
-8.38228
11
12.6381
21
-8.38396
0
LINE
8
BLACK
6
CONTINUOUS
10
12.6381
20
-8.38396
11
12.6381
21
-8.38396
0
LINE
8
BLACK
6
CONTINUOUS
10
12.6381
20
-8.38396
11
12.6381
21
-8.38396
0
LINE
8
BLACK
6
CONTINUOUS
10
12.6381
20
-8.38396
11
12.6375
21
-8.38562
0
LINE
8
BLACK
6
CONTINUOUS
10
12.6375
20
-8.38562
11
12.6375
21
-8.38562
0
LINE
8
BLACK
6
CONTINUOUS
10
12.6375
20
-8.38562
11
12.6375
21
-8.38562
0
LINE
8
BLACK
6
CONTINUOUS
10
12.6375
20
-8.38562
11
12.6369
21
-8.38723
0
LINE
8
BLACK
6
CONTINUOUS
10
12.6369
20
-8.38723
11
12.6369
21
-8.38723
0
LINE
8
BLACK
6
CONTINUOUS
10
12.6369
20
-8.38723
11
12.6369
21
-8.38723
0
LINE
8
BLACK
6
CONTINUOUS
10
12.6369
20
-8.38723
11
12.6361
21
-8.38882
0
LINE
8
BLACK
6
CONTINUOUS
10
12.6361
20
-8.38882
11
12.6361
21
-8.38882
0
LINE
8
BLACK
6
CONTINUOUS
10
12.6361
20
-8.38882
11
12.6353
21
-8.39036
0
LINE
8
BLACK
6
CONTINUOUS
10
12.6353
20
-8.39036
11
12.6353
21
-8.39036
0
LINE
8
BLACK
6
CONTINUOUS
10
12.6353
20
-8.39036
11
12.6344
21
-8.39185
0
LINE
8
BLACK
6
CONTINUOUS
10
12.6344
20
-8.39185
11
12.6344
21
-8.39185
0
LINE
8
BLACK
6
CONTINUOUS
10
12.6344
20
-8.39185
11
12.6344
21
-8.39185
0
LINE
8
BLACK
6
CONTINUOUS
10
12.6344
20
-8.39185
11
12.6334
21
-8.39329
0
LINE
8
BLACK
6
CONTINUOUS
10
12.6334
20
-8.39329
11
12.6334
21
-8.39329
0
LINE
8
BLACK
6
CONTINUOUS
10
12.6334
20
-8.39329
11
12.6323
21
-8.39468
0
LINE
8
BLACK
6
CONTINUOUS
10
12.6323
20
-8.39468
11
12.6323
21
-8.39468
0
LINE
8
BLACK
6
CONTINUOUS
10
12.6323
20
-8.39468
11
12.6312
21
-8.39602
0
LINE
8
BLACK
6
CONTINUOUS
10
12.6312
20
-8.39602
11
12.6312
21
-8.39602
0
LINE
8
BLACK
6
CONTINUOUS
10
12.6312
20
-8.39602
11
12.63
21
-8.39729
0
LINE
8
BLACK
6
CONTINUOUS
10
12.63
20
-8.39729
11
12.63
21
-8.39729
0
LINE
8
BLACK
6
CONTINUOUS
10
12.63
20
-8.39729
11
12.6287
21
-8.39849
0
LINE
8
BLACK
6
CONTINUOUS
10
12.6287
20
-8.39849
11
12.6287
21
-8.39849
0
LINE
8
BLACK
6
CONTINUOUS
10
12.6287
20
-8.39849
11
12.6287
21
-8.39849
0
LINE
8
BLACK
6
CONTINUOUS
10
12.6287
20
-8.39849
11
12.6274
21
-8.39963
0
LINE
8
BLACK
6
CONTINUOUS
10
12.6274
20
-8.39963
11
12.6274
21
-8.39963
0
LINE
8
BLACK
6
CONTINUOUS
10
12.6274
20
-8.39963
11
12.6274
21
-8.39963
0
LINE
8
BLACK
6
CONTINUOUS
10
12.6274
20
-8.39963
11
12.626
21
-8.4007
0
LINE
8
BLACK
6
CONTINUOUS
10
12.626
20
-8.4007
11
12.626
21
-8.4007
0
LINE
8
BLACK
6
CONTINUOUS
10
12.626
20
-8.4007
11
12.6245
21
-8.40169
0
LINE
8
BLACK
6
CONTINUOUS
10
12.6245
20
-8.40169
11
12.6245
21
-8.40169
0
LINE
8
BLACK
6
CONTINUOUS
10
12.6245
20
-8.40169
11
12.623
21
-8.4026
0
LINE
8
BLACK
6
CONTINUOUS
10
12.623
20
-8.4026
11
12.623
21
-8.4026
0
LINE
8
BLACK
6
CONTINUOUS
10
12.623
20
-8.4026
11
12.623
21
-8.4026
0
LINE
8
BLACK
6
CONTINUOUS
10
12.623
20
-8.4026
11
12.6215
21
-8.40344
0
LINE
8
BLACK
6
CONTINUOUS
10
12.6215
20
-8.40344
11
12.6215
21
-8.40344
0
LINE
8
BLACK
6
CONTINUOUS
10
12.6215
20
-8.40344
11
12.6199
21
-8.4042
0
LINE
8
BLACK
6
CONTINUOUS
10
12.6199
20
-8.4042
11
12.6199
21
-8.4042
0
LINE
8
BLACK
6
CONTINUOUS
10
12.6199
20
-8.4042
11
12.6199
21
-8.4042
0
LINE
8
BLACK
6
CONTINUOUS
10
12.6199
20
-8.4042
11
12.6183
21
-8.40487
0
LINE
8
BLACK
6
CONTINUOUS
10
12.6183
20
-8.40487
11
12.6183
21
-8.40487
0
LINE
8
BLACK
6
CONTINUOUS
10
12.6183
20
-8.40487
11
12.6183
21
-8.40487
0
LINE
8
BLACK
6
CONTINUOUS
10
12.6183
20
-8.40487
11
12.6166
21
-8.40545
0
LINE
8
BLACK
6
CONTINUOUS
10
12.6166
20
-8.40545
11
12.6166
21
-8.40545
0
LINE
8
BLACK
6
CONTINUOUS
10
12.6166
20
-8.40545
11
12.615
21
-8.40595
0
LINE
8
BLACK
6
CONTINUOUS
10
12.615
20
-8.40595
11
12.615
21
-8.40595
0
LINE
8
BLACK
6
CONTINUOUS
10
12.615
20
-8.40595
11
12.6133
21
-8.40636
0
LINE
8
BLACK
6
CONTINUOUS
10
12.6133
20
-8.40636
11
12.6133
21
-8.40636
0
LINE
8
BLACK
6
CONTINUOUS
10
12.6133
20
-8.40636
11
12.6133
21
-8.40636
0
LINE
8
BLACK
6
CONTINUOUS
10
12.6133
20
-8.40636
11
12.6115
21
-8.40668
0
LINE
8
BLACK
6
CONTINUOUS
10
12.6115
20
-8.40668
11
12.6115
21
-8.40668
0
LINE
8
BLACK
6
CONTINUOUS
10
12.6115
20
-8.40668
11
12.6098
21
-8.40691
0
LINE
8
BLACK
6
CONTINUOUS
10
12.6098
20
-8.40691
11
12.6098
21
-8.40691
0
LINE
8
BLACK
6
CONTINUOUS
10
12.6098
20
-8.40691
11
12.6081
21
-8.40704
0
LINE
8
BLACK
6
CONTINUOUS
10
12.6081
20
-8.40704
11
12.6081
21
-8.40704
0
LINE
8
BLACK
6
CONTINUOUS
10
12.6081
20
-8.40704
11
12.6063
21
-8.40709
0
LINE
8
BLACK
6
CONTINUOUS
10
12.6063
20
-8.40709
11
12.6063
21
-8.40709
0
LINE
8
BLACK
6
CONTINUOUS
10
12.6063
20
-8.40709
11
12.6045
21
-8.40704
0
LINE
8
BLACK
6
CONTINUOUS
10
12.6045
20
-8.40704
11
12.6045
21
-8.40704
0
LINE
8
BLACK
6
CONTINUOUS
10
12.6045
20
-8.40704
11
12.6028
21
-8.40691
0
LINE
8
BLACK
6
CONTINUOUS
10
12.6028
20
-8.40691
11
12.6028
21
-8.40691
0
LINE
8
BLACK
6
CONTINUOUS
10
12.6028
20
-8.40691
11
12.6011
21
-8.40668
0
LINE
8
BLACK
6
CONTINUOUS
10
12.6011
20
-8.40668
11
12.6011
21
-8.40668
0
LINE
8
BLACK
6
CONTINUOUS
10
12.6011
20
-8.40668
11
12.6011
21
-8.40668
0
LINE
8
BLACK
6
CONTINUOUS
10
12.6011
20
-8.40668
11
12.5993
21
-8.40636
0
LINE
8
BLACK
6
CONTINUOUS
10
12.5993
20
-8.40636
11
12.5993
21
-8.40636
0
LINE
8
BLACK
6
CONTINUOUS
10
12.5993
20
-8.40636
11
12.5976
21
-8.40595
0
LINE
8
BLACK
6
CONTINUOUS
10
12.5976
20
-8.40595
11
12.5976
21
-8.40595
0
LINE
8
BLACK
6
CONTINUOUS
10
12.5976
20
-8.40595
11
12.5976
21
-8.40595
0
LINE
8
BLACK
6
CONTINUOUS
10
12.5976
20
-8.40595
11
12.596
21
-8.40545
0
LINE
8
BLACK
6
CONTINUOUS
10
12.596
20
-8.40545
11
12.596
21
-8.40545
0
LINE
8
BLACK
6
CONTINUOUS
10
12.596
20
-8.40545
11
12.596
21
-8.40545
0
LINE
8
BLACK
6
CONTINUOUS
10
12.596
20
-8.40545
11
12.5943
21
-8.40487
0
LINE
8
BLACK
6
CONTINUOUS
10
12.5943
20
-8.40487
11
12.5943
21
-8.40487
0
LINE
8
BLACK
6
CONTINUOUS
10
12.5943
20
-8.40487
11
12.5943
21
-8.40487
0
LINE
8
BLACK
6
CONTINUOUS
10
12.5943
20
-8.40487
11
12.5927
21
-8.4042
0
LINE
8
BLACK
6
CONTINUOUS
10
12.5927
20
-8.4042
11
12.5927
21
-8.4042
0
LINE
8
BLACK
6
CONTINUOUS
10
12.5927
20
-8.4042
11
12.5927
21
-8.4042
0
LINE
8
BLACK
6
CONTINUOUS
10
12.5927
20
-8.4042
11
12.5911
21
-8.40344
0
LINE
8
BLACK
6
CONTINUOUS
10
12.5911
20
-8.40344
11
12.5911
21
-8.40344
0
LINE
8
BLACK
6
CONTINUOUS
10
12.5911
20
-8.40344
11
12.5896
21
-8.4026
0
LINE
8
BLACK
6
CONTINUOUS
10
12.5896
20
-8.4026
11
12.5896
21
-8.4026
0
LINE
8
BLACK
6
CONTINUOUS
10
12.5896
20
-8.4026
11
12.5881
21
-8.40169
0
LINE
8
BLACK
6
CONTINUOUS
10
12.5881
20
-8.40169
11
12.5881
21
-8.40169
0
LINE
8
BLACK
6
CONTINUOUS
10
12.5881
20
-8.40169
11
12.5881
21
-8.40169
0
LINE
8
BLACK
6
CONTINUOUS
10
12.5881
20
-8.40169
11
12.5881
21
-8.40169
0
LINE
8
BLACK
6
CONTINUOUS
10
12.5881
20
-8.40169
11
12.5866
21
-8.4007
0
LINE
8
BLACK
6
CONTINUOUS
10
12.5866
20
-8.4007
11
12.5866
21
-8.4007
0
LINE
8
BLACK
6
CONTINUOUS
10
12.5866
20
-8.4007
11
12.5866
21
-8.4007
0
LINE
8
BLACK
6
CONTINUOUS
10
12.5866
20
-8.4007
11
12.5852
21
-8.39963
0
LINE
8
BLACK
6
CONTINUOUS
10
12.5852
20
-8.39963
11
12.5852
21
-8.39963
0
LINE
8
BLACK
6
CONTINUOUS
10
12.5852
20
-8.39963
11
12.5839
21
-8.39849
0
LINE
8
BLACK
6
CONTINUOUS
10
12.5839
20
-8.39849
11
12.5839
21
-8.39849
0
LINE
8
BLACK
6
CONTINUOUS
10
12.5839
20
-8.39849
11
12.5826
21
-8.39729
0
LINE
8
BLACK
6
CONTINUOUS
10
12.5826
20
-8.39729
11
12.5826
21
-8.39729
0
LINE
8
BLACK
6
CONTINUOUS
10
12.5826
20
-8.39729
11
12.5826
21
-8.39729
0
LINE
8
BLACK
6
CONTINUOUS
10
12.5826
20
-8.39729
11
12.5814
21
-8.39602
0
LINE
8
BLACK
6
CONTINUOUS
10
12.5814
20
-8.39602
11
12.5814
21
-8.39602
0
LINE
8
BLACK
6
CONTINUOUS
10
12.5814
20
-8.39602
11
12.5814
21
-8.39602
0
LINE
8
BLACK
6
CONTINUOUS
10
12.5814
20
-8.39602
11
12.5803
21
-8.39468
0
LINE
8
BLACK
6
CONTINUOUS
10
12.5803
20
-8.39468
11
12.5803
21
-8.39468
0
LINE
8
BLACK
6
CONTINUOUS
10
12.5803
20
-8.39468
11
12.5803
21
-8.39468
0
LINE
8
BLACK
6
CONTINUOUS
10
12.5803
20
-8.39468
11
12.5792
21
-8.39329
0
LINE
8
BLACK
6
CONTINUOUS
10
12.5792
20
-8.39329
11
12.5792
21
-8.39329
0
LINE
8
BLACK
6
CONTINUOUS
10
12.5792
20
-8.39329
11
12.5782
21
-8.39185
0
LINE
8
BLACK
6
CONTINUOUS
10
12.5782
20
-8.39185
11
12.5782
21
-8.39185
0
LINE
8
BLACK
6
CONTINUOUS
10
12.5782
20
-8.39185
11
12.5782
21
-8.39185
0
LINE
8
BLACK
6
CONTINUOUS
10
12.5782
20
-8.39185
11
12.5773
21
-8.39036
0
LINE
8
BLACK
6
CONTINUOUS
10
12.5773
20
-8.39036
11
12.5773
21
-8.39036
0
LINE
8
BLACK
6
CONTINUOUS
10
12.5773
20
-8.39036
11
12.5773
21
-8.39036
0
LINE
8
BLACK
6
CONTINUOUS
10
12.5773
20
-8.39036
11
12.5765
21
-8.38882
0
LINE
8
BLACK
6
CONTINUOUS
10
12.5765
20
-8.38882
11
12.5765
21
-8.38882
0
LINE
8
BLACK
6
CONTINUOUS
10
12.5765
20
-8.38882
11
12.5765
21
-8.38882
0
LINE
8
BLACK
6
CONTINUOUS
10
12.5765
20
-8.38882
11
12.5757
21
-8.38723
0
LINE
8
BLACK
6
CONTINUOUS
10
12.5757
20
-8.38723
11
12.5757
21
-8.38723
0
LINE
8
BLACK
6
CONTINUOUS
10
12.5757
20
-8.38723
11
12.5757
21
-8.38723
0
LINE
8
BLACK
6
CONTINUOUS
10
12.5757
20
-8.38723
11
12.5757
21
-8.38723
0
LINE
8
BLACK
6
CONTINUOUS
10
12.5757
20
-8.38723
11
12.5751
21
-8.38562
0
LINE
8
BLACK
6
CONTINUOUS
10
12.5751
20
-8.38562
11
12.5751
21
-8.38562
0
LINE
8
BLACK
6
CONTINUOUS
10
12.5751
20
-8.38562
11
12.5751
21
-8.38562
0
LINE
8
BLACK
6
CONTINUOUS
10
12.5751
20
-8.38562
11
12.5745
21
-8.38396
0
LINE
8
BLACK
6
CONTINUOUS
10
12.5745
20
-8.38396
11
12.5745
21
-8.38396
0
LINE
8
BLACK
6
CONTINUOUS
10
12.5745
20
-8.38396
11
12.574
21
-8.38228
0
LINE
8
BLACK
6
CONTINUOUS
10
12.574
20
-8.38228
11
12.574
21
-8.38228
0
LINE
8
BLACK
6
CONTINUOUS
10
12.574
20
-8.38228
11
12.574
21
-8.38228
0
LINE
8
BLACK
6
CONTINUOUS
10
12.574
20
-8.38228
11
12.5736
21
-8.38058
0
LINE
8
BLACK
6
CONTINUOUS
10
12.5736
20
-8.38058
11
12.5736
21
-8.38058
0
LINE
8
BLACK
6
CONTINUOUS
10
12.5736
20
-8.38058
11
12.5736
21
-8.38058
0
LINE
8
BLACK
6
CONTINUOUS
10
12.5736
20
-8.38058
11
12.5736
21
-8.38058
0
LINE
8
BLACK
6
CONTINUOUS
10
12.5736
20
-8.38058
11
12.5732
21
-8.37886
0
LINE
8
BLACK
6
CONTINUOUS
10
12.5732
20
-8.37886
11
12.5732
21
-8.37886
0
LINE
8
BLACK
6
CONTINUOUS
10
12.5732
20
-8.37886
11
12.573
21
-8.37712
0
LINE
8
BLACK
6
CONTINUOUS
10
12.573
20
-8.37712
11
12.573
21
-8.37712
0
LINE
8
BLACK
6
CONTINUOUS
10
12.573
20
-8.37712
11
12.5729
21
-8.37537
0
LINE
8
BLACK
6
CONTINUOUS
10
12.5729
20
-8.37537
11
12.5729
21
-8.37537
0
LINE
8
BLACK
6
CONTINUOUS
10
12.5729
20
-8.37537
11
12.5728
21
-8.37362
0
LINE
8
BLACK
6
CONTINUOUS
10
12.5728
20
-8.37362
11
12.5728
21
-8.32638
0
LINE
8
BLACK
6
CONTINUOUS
10
12.5728
20
-8.32638
11
12.5729
21
-8.32463
0
LINE
8
BLACK
6
CONTINUOUS
10
12.5729
20
-8.32463
11
12.5729
21
-8.32463
0
LINE
8
BLACK
6
CONTINUOUS
10
12.5729
20
-8.32463
11
12.573
21
-8.32288
0
LINE
8
BLACK
6
CONTINUOUS
10
12.573
20
-8.32288
11
12.573
21
-8.32288
0
LINE
8
BLACK
6
CONTINUOUS
10
12.573
20
-8.32288
11
12.5732
21
-8.32114
0
LINE
8
BLACK
6
CONTINUOUS
10
12.5732
20
-8.32114
11
12.5732
21
-8.32114
0
LINE
8
BLACK
6
CONTINUOUS
10
12.5732
20
-8.32114
11
12.5732
21
-8.32114
0
LINE
8
BLACK
6
CONTINUOUS
10
12.5732
20
-8.32114
11
12.5736
21
-8.31942
0
LINE
8
BLACK
6
CONTINUOUS
10
12.5736
20
-8.31942
11
12.5736
21
-8.31942
0
LINE
8
BLACK
6
CONTINUOUS
10
12.5736
20
-8.31942
11
12.574
21
-8.31772
0
LINE
8
BLACK
6
CONTINUOUS
10
12.574
20
-8.31772
11
12.574
21
-8.31772
0
LINE
8
BLACK
6
CONTINUOUS
10
12.574
20
-8.31772
11
12.574
21
-8.31772
0
LINE
8
BLACK
6
CONTINUOUS
10
12.574
20
-8.31772
11
12.5745
21
-8.31604
0
LINE
8
BLACK
6
CONTINUOUS
10
12.5745
20
-8.31604
11
12.5745
21
-8.31604
0
LINE
8
BLACK
6
CONTINUOUS
10
12.5745
20
-8.31604
11
12.5745
21
-8.31604
0
LINE
8
BLACK
6
CONTINUOUS
10
12.5745
20
-8.31604
11
12.5751
21
-8.31438
0
LINE
8
BLACK
6
CONTINUOUS
10
12.5751
20
-8.31438
11
12.5751
21
-8.31438
0
LINE
8
BLACK
6
CONTINUOUS
10
12.5751
20
-8.31438
11
12.5751
21
-8.31438
0
LINE
8
BLACK
6
CONTINUOUS
10
12.5751
20
-8.31438
11
12.5757
21
-8.31277
0
LINE
8
BLACK
6
CONTINUOUS
10
12.5757
20
-8.31277
11
12.5757
21
-8.31277
0
LINE
8
BLACK
6
CONTINUOUS
10
12.5757
20
-8.31277
11
12.5757
21
-8.31277
0
LINE
8
BLACK
6
CONTINUOUS
10
12.5757
20
-8.31277
11
12.5765
21
-8.31118
0
LINE
8
BLACK
6
CONTINUOUS
10
12.5765
20
-8.31118
11
12.5765
21
-8.31118
0
LINE
8
BLACK
6
CONTINUOUS
10
12.5765
20
-8.31118
11
12.5773
21
-8.30964
0
LINE
8
BLACK
6
CONTINUOUS
10
12.5773
20
-8.30964
11
12.5773
21
-8.30964
0
LINE
8
BLACK
6
CONTINUOUS
10
12.5773
20
-8.30964
11
12.5773
21
-8.30964
0
LINE
8
BLACK
6
CONTINUOUS
10
12.5773
20
-8.30964
11
12.5782
21
-8.30815
0
LINE
8
BLACK
6
CONTINUOUS
10
12.5782
20
-8.30815
11
12.5782
21
-8.30815
0
LINE
8
BLACK
6
CONTINUOUS
10
12.5782
20
-8.30815
11
12.5792
21
-8.30671
0
LINE
8
BLACK
6
CONTINUOUS
10
12.5792
20
-8.30671
11
12.5792
21
-8.30671
0
LINE
8
BLACK
6
CONTINUOUS
10
12.5792
20
-8.30671
11
12.5792
21
-8.30671
0
LINE
8
BLACK
6
CONTINUOUS
10
12.5792
20
-8.30671
11
12.5803
21
-8.30532
0
LINE
8
BLACK
6
CONTINUOUS
10
12.5803
20
-8.30532
11
12.5803
21
-8.30532
0
LINE
8
BLACK
6
CONTINUOUS
10
12.5803
20
-8.30532
11
12.5814
21
-8.30398
0
LINE
8
BLACK
6
CONTINUOUS
10
12.5814
20
-8.30398
11
12.5814
21
-8.30398
0
LINE
8
BLACK
6
CONTINUOUS
10
12.5814
20
-8.30398
11
12.5814
21
-8.30398
0
LINE
8
BLACK
6
CONTINUOUS
10
12.5814
20
-8.30398
11
12.5826
21
-8.30271
0
LINE
8
BLACK
6
CONTINUOUS
10
12.5826
20
-8.30271
11
12.5826
21
-8.30271
0
LINE
8
BLACK
6
CONTINUOUS
10
12.5826
20
-8.30271
11
12.5826
21
-8.30271
0
LINE
8
BLACK
6
CONTINUOUS
10
12.5826
20
-8.30271
11
12.5839
21
-8.30151
0
LINE
8
BLACK
6
CONTINUOUS
10
12.5839
20
-8.30151
11
12.5839
21
-8.30151
0
LINE
8
BLACK
6
CONTINUOUS
10
12.5839
20
-8.30151
11
12.5839
21
-8.30151
0
LINE
8
BLACK
6
CONTINUOUS
10
12.5839
20
-8.30151
11
12.5852
21
-8.30037
0
LINE
8
BLACK
6
CONTINUOUS
10
12.5852
20
-8.30037
11
12.5852
21
-8.30037
0
LINE
8
BLACK
6
CONTINUOUS
10
12.5852
20
-8.30037
11
12.5852
21
-8.30037
0
LINE
8
BLACK
6
CONTINUOUS
10
12.5852
20
-8.30037
11
12.5866
21
-8.2993
0
LINE
8
BLACK
6
CONTINUOUS
10
12.5866
20
-8.2993
11
12.5866
21
-8.2993
0
LINE
8
BLACK
6
CONTINUOUS
10
12.5866
20
-8.2993
11
12.5866
21
-8.2993
0
LINE
8
BLACK
6
CONTINUOUS
10
12.5866
20
-8.2993
11
12.5881
21
-8.29831
0
LINE
8
BLACK
6
CONTINUOUS
10
12.5881
20
-8.29831
11
12.5881
21
-8.29831
0
LINE
8
BLACK
6
CONTINUOUS
10
12.5881
20
-8.29831
11
12.5896
21
-8.2974
0
LINE
8
BLACK
6
CONTINUOUS
10
12.5896
20
-8.2974
11
12.5896
21
-8.2974
0
LINE
8
BLACK
6
CONTINUOUS
10
12.5896
20
-8.2974
11
12.5896
21
-8.2974
0
LINE
8
BLACK
6
CONTINUOUS
10
12.5896
20
-8.2974
11
12.5911
21
-8.29656
0
LINE
8
BLACK
6
CONTINUOUS
10
12.5911
20
-8.29656
11
12.5911
21
-8.29656
0
LINE
8
BLACK
6
CONTINUOUS
10
12.5911
20
-8.29656
11
12.5911
21
-8.29656
0
LINE
8
BLACK
6
CONTINUOUS
10
12.5911
20
-8.29656
11
12.5927
21
-8.2958
0
LINE
8
BLACK
6
CONTINUOUS
10
12.5927
20
-8.2958
11
12.5927
21
-8.2958
0
LINE
8
BLACK
6
CONTINUOUS
10
12.5927
20
-8.2958
11
12.5927
21
-8.2958
0
LINE
8
BLACK
6
CONTINUOUS
10
12.5927
20
-8.2958
11
12.5943
21
-8.29513
0
LINE
8
BLACK
6
CONTINUOUS
10
12.5943
20
-8.29513
11
12.5943
21
-8.29513
0
LINE
8
BLACK
6
CONTINUOUS
10
12.5943
20
-8.29513
11
12.5943
21
-8.29513
0
LINE
8
BLACK
6
CONTINUOUS
10
12.5943
20
-8.29513
11
12.596
21
-8.29455
0
LINE
8
BLACK
6
CONTINUOUS
10
12.596
20
-8.29455
11
12.596
21
-8.29455
0
LINE
8
BLACK
6
CONTINUOUS
10
12.596
20
-8.29455
11
12.596
21
-8.29455
0
LINE
8
BLACK
6
CONTINUOUS
10
12.596
20
-8.29455
11
12.5976
21
-8.29405
0
LINE
8
BLACK
6
CONTINUOUS
10
12.5976
20
-8.29405
11
12.5976
21
-8.29405
0
LINE
8
BLACK
6
CONTINUOUS
10
12.5976
20
-8.29405
11
12.5993
21
-8.29364
0
LINE
8
BLACK
6
CONTINUOUS
10
12.5993
20
-8.29364
11
12.5993
21
-8.29364
0
LINE
8
BLACK
6
CONTINUOUS
10
12.5993
20
-8.29364
11
12.5993
21
-8.29364
0
LINE
8
BLACK
6
CONTINUOUS
10
12.5993
20
-8.29364
11
12.6011
21
-8.29332
0
LINE
8
BLACK
6
CONTINUOUS
10
12.6011
20
-8.29332
11
12.6011
21
-8.29332
0
LINE
8
BLACK
6
CONTINUOUS
10
12.6011
20
-8.29332
11
12.6028
21
-8.29309
0
LINE
8
BLACK
6
CONTINUOUS
10
12.6028
20
-8.29309
11
12.6028
21
-8.29309
0
LINE
8
BLACK
6
CONTINUOUS
10
12.6028
20
-8.29309
11
12.6045
21
-8.29296
0
LINE
8
BLACK
6
CONTINUOUS
10
12.6045
20
-8.29296
11
12.6045
21
-8.29296
0
LINE
8
BLACK
6
CONTINUOUS
10
12.6045
20
-8.29296
11
12.6063
21
-8.29291
0
LINE
8
BLACK
6
CONTINUOUS
10
12.6063
20
-8.29291
11
12.6063
21
-8.29291
0
LINE
8
BLACK
6
CONTINUOUS
10
12.6063
20
-8.29291
11
12.6081
21
-8.29296
0
LINE
8
BLACK
6
CONTINUOUS
10
12.6081
20
-8.29296
11
12.6081
21
-8.29296
0
LINE
8
BLACK
6
CONTINUOUS
10
12.6081
20
-8.29296
11
12.6098
21
-8.29309
0
LINE
8
BLACK
6
CONTINUOUS
10
12.6098
20
-8.29309
11
12.6098
21
-8.29309
0
LINE
8
BLACK
6
CONTINUOUS
10
12.6098
20
-8.29309
11
12.6115
21
-8.29332
0
LINE
8
BLACK
6
CONTINUOUS
10
12.6115
20
-8.29332
11
12.6115
21
-8.29332
0
LINE
8
BLACK
6
CONTINUOUS
10
12.6115
20
-8.29332
11
12.6115
21
-8.29332
0
LINE
8
BLACK
6
CONTINUOUS
10
12.6115
20
-8.29332
11
12.6133
21
-8.29364
0
LINE
8
BLACK
6
CONTINUOUS
10
12.6133
20
-8.29364
11
12.6133
21
-8.29364
0
LINE
8
BLACK
6
CONTINUOUS
10
12.6133
20
-8.29364
11
12.615
21
-8.29405
0
LINE
8
BLACK
6
CONTINUOUS
10
12.615
20
-8.29405
11
12.615
21
-8.29405
0
LINE
8
BLACK
6
CONTINUOUS
10
12.615
20
-8.29405
11
12.615
21
-8.29405
0
LINE
8
BLACK
6
CONTINUOUS
10
12.615
20
-8.29405
11
12.6166
21
-8.29455
0
LINE
8
BLACK
6
CONTINUOUS
10
12.6166
20
-8.29455
11
12.6166
21
-8.29455
0
LINE
8
BLACK
6
CONTINUOUS
10
12.6166
20
-8.29455
11
12.6166
21
-8.29455
0
LINE
8
BLACK
6
CONTINUOUS
10
12.6166
20
-8.29455
11
12.6183
21
-8.29513
0
LINE
8
BLACK
6
CONTINUOUS
10
12.6183
20
-8.29513
11
12.6183
21
-8.29513
0
LINE
8
BLACK
6
CONTINUOUS
10
12.6183
20
-8.29513
11
12.6183
21
-8.29513
0
LINE
8
BLACK
6
CONTINUOUS
10
12.6183
20
-8.29513
11
12.6199
21
-8.2958
0
LINE
8
BLACK
6
CONTINUOUS
10
12.6199
20
-8.2958
11
12.6199
21
-8.2958
0
LINE
8
BLACK
6
CONTINUOUS
10
12.6199
20
-8.2958
11
12.6199
21
-8.2958
0
LINE
8
BLACK
6
CONTINUOUS
10
12.6199
20
-8.2958
11
12.6199
21
-8.2958
0
LINE
8
BLACK
6
CONTINUOUS
10
12.6199
20
-8.2958
11
12.6215
21
-8.29656
0
LINE
8
BLACK
6
CONTINUOUS
10
12.6215
20
-8.29656
11
12.6215
21
-8.29656
0
LINE
8
BLACK
6
CONTINUOUS
10
12.6215
20
-8.29656
11
12.623
21
-8.2974
0
LINE
8
BLACK
6
CONTINUOUS
10
12.623
20
-8.2974
11
12.623
21
-8.2974
0
LINE
8
BLACK
6
CONTINUOUS
10
12.623
20
-8.2974
11
12.6245
21
-8.29831
0
LINE
8
BLACK
6
CONTINUOUS
10
12.6245
20
-8.29831
11
12.6245
21
-8.29831
0
LINE
8
BLACK
6
CONTINUOUS
10
12.6245
20
-8.29831
11
12.6245
21
-8.29831
0
LINE
8
BLACK
6
CONTINUOUS
10
12.6245
20
-8.29831
11
12.6245
21
-8.29831
0
LINE
8
BLACK
6
CONTINUOUS
10
12.6245
20
-8.29831
11
12.626
21
-8.2993
0
LINE
8
BLACK
6
CONTINUOUS
10
12.626
20
-8.2993
11
12.626
21
-8.2993
0
LINE
8
BLACK
6
CONTINUOUS
10
12.626
20
-8.2993
11
12.626
21
-8.2993
0
LINE
8
BLACK
6
CONTINUOUS
10
12.626
20
-8.2993
11
12.626
21
-8.2993
0
LINE
8
BLACK
6
CONTINUOUS
10
12.626
20
-8.2993
11
12.626
21
-8.2993
0
LINE
8
BLACK
6
CONTINUOUS
10
12.626
20
-8.2993
11
12.6274
21
-8.30037
0
LINE
8
BLACK
6
CONTINUOUS
10
12.6274
20
-8.30037
11
12.6274
21
-8.30037
0
LINE
8
BLACK
6
CONTINUOUS
10
12.6274
20
-8.30037
11
12.6287
21
-8.30151
0
LINE
8
BLACK
6
CONTINUOUS
10
12.6287
20
-8.30151
11
12.6287
21
-8.30151
0
LINE
8
BLACK
6
CONTINUOUS
10
12.6287
20
-8.30151
11
12.63
21
-8.30271
0
LINE
8
BLACK
6
CONTINUOUS
10
12.5925
20
-8.37434
11
12.5925
21
-8.37434
0
LINE
8
BLACK
6
CONTINUOUS
10
12.5925
20
-8.37434
11
12.5926
21
-8.37506
0
LINE
8
BLACK
6
CONTINUOUS
10
12.5926
20
-8.37506
11
12.5926
21
-8.37506
0
LINE
8
BLACK
6
CONTINUOUS
10
12.5926
20
-8.37506
11
12.5927
21
-8.37578
0
LINE
8
BLACK
6
CONTINUOUS
10
12.5927
20
-8.37578
11
12.5928
21
-8.37649
0
LINE
8
BLACK
6
CONTINUOUS
10
12.5928
20
-8.37649
11
12.5928
21
-8.37649
0
LINE
8
BLACK
6
CONTINUOUS
10
12.5928
20
-8.37649
11
12.593
21
-8.37719
0
LINE
8
BLACK
6
CONTINUOUS
10
12.593
20
-8.37719
11
12.5932
21
-8.37788
0
LINE
8
BLACK
6
CONTINUOUS
10
12.5932
20
-8.37788
11
12.5934
21
-8.37856
0
LINE
8
BLACK
6
CONTINUOUS
10
12.5934
20
-8.37856
11
12.5937
21
-8.37923
0
LINE
8
BLACK
6
CONTINUOUS
10
12.5937
20
-8.37923
11
12.5937
21
-8.37923
0
LINE
8
BLACK
6
CONTINUOUS
10
12.5937
20
-8.37923
11
12.594
21
-8.37988
0
LINE
8
BLACK
6
CONTINUOUS
10
12.594
20
-8.37988
11
12.5944
21
-8.38051
0
LINE
8
BLACK
6
CONTINUOUS
10
12.5944
20
-8.38051
11
12.5944
21
-8.38051
0
LINE
8
BLACK
6
CONTINUOUS
10
12.5944
20
-8.38051
11
12.5947
21
-8.38113
0
LINE
8
BLACK
6
CONTINUOUS
10
12.5947
20
-8.38113
11
12.5947
21
-8.38113
0
LINE
8
BLACK
6
CONTINUOUS
10
12.5947
20
-8.38113
11
12.5952
21
-8.38172
0
LINE
8
BLACK
6
CONTINUOUS
10
12.5952
20
-8.38172
11
12.5952
21
-8.38172
0
LINE
8
BLACK
6
CONTINUOUS
10
12.5952
20
-8.38172
11
12.5956
21
-8.38229
0
LINE
8
BLACK
6
CONTINUOUS
10
12.5956
20
-8.38229
11
12.5961
21
-8.38284
0
LINE
8
BLACK
6
CONTINUOUS
10
12.5961
20
-8.38284
11
12.5961
21
-8.38284
0
LINE
8
BLACK
6
CONTINUOUS
10
12.5961
20
-8.38284
11
12.5961
21
-8.38284
0
LINE
8
BLACK
6
CONTINUOUS
10
12.5961
20
-8.38284
11
12.5961
21
-8.38284
0
LINE
8
BLACK
6
CONTINUOUS
10
12.5961
20
-8.38284
11
12.5966
21
-8.38336
0
LINE
8
BLACK
6
CONTINUOUS
10
12.5966
20
-8.38336
11
12.5966
21
-8.38336
0
LINE
8
BLACK
6
CONTINUOUS
10
12.5966
20
-8.38336
11
12.5966
21
-8.38336
0
LINE
8
BLACK
6
CONTINUOUS
10
12.5966
20
-8.38336
11
12.5966
21
-8.38336
0
LINE
8
BLACK
6
CONTINUOUS
10
12.5966
20
-8.38336
11
12.5971
21
-8.38386
0
LINE
8
BLACK
6
CONTINUOUS
10
12.5971
20
-8.38386
11
12.5971
21
-8.38386
0
LINE
8
BLACK
6
CONTINUOUS
10
12.5971
20
-8.38386
11
12.5976
21
-8.38433
0
LINE
8
BLACK
6
CONTINUOUS
10
12.5976
20
-8.38433
11
12.5982
21
-8.38477
0
LINE
8
BLACK
6
CONTINUOUS
10
12.5982
20
-8.38477
11
12.5988
21
-8.38518
0
LINE
8
BLACK
6
CONTINUOUS
10
12.5988
20
-8.38518
11
12.5988
21
-8.38518
0
LINE
8
BLACK
6
CONTINUOUS
10
12.5988
20
-8.38518
11
12.5994
21
-8.38555
0
LINE
8
BLACK
6
CONTINUOUS
10
12.5994
20
-8.38555
11
12.6
21
-8.3859
0
LINE
8
BLACK
6
CONTINUOUS
10
12.6
20
-8.3859
11
12.6
21
-8.3859
0
LINE
8
BLACK
6
CONTINUOUS
10
12.6
20
-8.3859
11
12.6007
21
-8.38621
0
LINE
8
BLACK
6
CONTINUOUS
10
12.6007
20
-8.38621
11
12.6007
21
-8.38621
0
LINE
8
BLACK
6
CONTINUOUS
10
12.6007
20
-8.38621
11
12.6007
21
-8.38621
0
LINE
8
BLACK
6
CONTINUOUS
10
12.6007
20
-8.38621
11
12.6007
21
-8.38621
0
LINE
8
BLACK
6
CONTINUOUS
10
12.6007
20
-8.38621
11
12.6014
21
-8.38648
0
LINE
8
BLACK
6
CONTINUOUS
10
12.6014
20
-8.38648
11
12.6014
21
-8.38648
0
LINE
8
BLACK
6
CONTINUOUS
10
12.6014
20
-8.38648
11
12.602
21
-8.38673
0
LINE
8
BLACK
6
CONTINUOUS
10
12.602
20
-8.38673
11
12.6027
21
-8.38693
0
LINE
8
BLACK
6
CONTINUOUS
10
12.6027
20
-8.38693
11
12.6027
21
-8.38693
0
LINE
8
BLACK
6
CONTINUOUS
10
12.6027
20
-8.38693
11
12.6034
21
-8.3871
0
LINE
8
BLACK
6
CONTINUOUS
10
12.6034
20
-8.3871
11
12.6041
21
-8.38723
0
LINE
8
BLACK
6
CONTINUOUS
10
12.6041
20
-8.38723
11
12.6041
21
-8.38723
0
LINE
8
BLACK
6
CONTINUOUS
10
12.6041
20
-8.38723
11
12.6049
21
-8.38732
0
LINE
8
BLACK
6
CONTINUOUS
10
12.6049
20
-8.38732
11
12.6056
21
-8.38738
0
LINE
8
BLACK
6
CONTINUOUS
10
12.6056
20
-8.38738
11
12.6056
21
-8.38738
0
LINE
8
BLACK
6
CONTINUOUS
10
12.6056
20
-8.38738
11
12.6063
21
-8.3874
0
LINE
8
BLACK
6
CONTINUOUS
10
12.6063
20
-8.3874
11
12.607
21
-8.38738
0
LINE
8
BLACK
6
CONTINUOUS
10
12.607
20
-8.38738
11
12.6077
21
-8.38732
0
LINE
8
BLACK
6
CONTINUOUS
10
12.6077
20
-8.38732
11
12.6077
21
-8.38732
0
LINE
8
BLACK
6
CONTINUOUS
10
12.6077
20
-8.38732
11
12.6085
21
-8.38723
0
LINE
8
BLACK
6
CONTINUOUS
10
12.6085
20
-8.38723
11
12.6085
21
-8.38723
0
LINE
8
BLACK
6
CONTINUOUS
10
12.6085
20
-8.38723
11
12.6092
21
-8.3871
0
LINE
8
BLACK
6
CONTINUOUS
10
12.6092
20
-8.3871
11
12.6092
21
-8.3871
0
LINE
8
BLACK
6
CONTINUOUS
10
12.6092
20
-8.3871
11
12.6099
21
-8.38693
0
LINE
8
BLACK
6
CONTINUOUS
10
12.6099
20
-8.38693
11
12.6099
21
-8.38693
0
LINE
8
BLACK
6
CONTINUOUS
10
12.6099
20
-8.38693
11
12.6106
21
-8.38673
0
LINE
8
BLACK
6
CONTINUOUS
10
12.6106
20
-8.38673
11
12.6112
21
-8.38648
0
LINE
8
BLACK
6
CONTINUOUS
10
12.6112
20
-8.38648
11
12.6119
21
-8.38621
0
LINE
8
BLACK
6
CONTINUOUS
10
12.6119
20
-8.38621
11
12.6119
21
-8.38621
0
LINE
8
BLACK
6
CONTINUOUS
10
12.6119
20
-8.38621
11
12.6126
21
-8.3859
0
LINE
8
BLACK
6
CONTINUOUS
10
12.6126
20
-8.3859
11
12.6132
21
-8.38555
0
LINE
8
BLACK
6
CONTINUOUS
10
12.6132
20
-8.38555
11
12.6138
21
-8.38518
0
LINE
8
BLACK
6
CONTINUOUS
10
12.6138
20
-8.38518
11
12.6138
21
-8.38518
0
LINE
8
BLACK
6
CONTINUOUS
10
12.6138
20
-8.38518
11
12.6144
21
-8.38477
0
LINE
8
BLACK
6
CONTINUOUS
10
12.6144
20
-8.38477
11
12.6144
21
-8.38477
0
LINE
8
BLACK
6
CONTINUOUS
10
12.6144
20
-8.38477
11
12.615
21
-8.38433
0
LINE
8
BLACK
6
CONTINUOUS
10
12.615
20
-8.38433
11
12.6155
21
-8.38386
0
LINE
8
BLACK
6
CONTINUOUS
10
12.6155
20
-8.38386
11
12.6155
21
-8.38386
0
LINE
8
BLACK
6
CONTINUOUS
10
12.6155
20
-8.38386
11
12.6155
21
-8.38386
0
LINE
8
BLACK
6
CONTINUOUS
10
12.6155
20
-8.38386
11
12.616
21
-8.38336
0
LINE
8
BLACK
6
CONTINUOUS
10
12.616
20
-8.38336
11
12.616
21
-8.38336
0
LINE
8
BLACK
6
CONTINUOUS
10
12.616
20
-8.38336
11
12.616
21
-8.38336
0
LINE
8
BLACK
6
CONTINUOUS
10
12.616
20
-8.38336
11
12.6165
21
-8.38284
0
LINE
8
BLACK
6
CONTINUOUS
10
12.6165
20
-8.38284
11
12.6165
21
-8.38284
0
LINE
8
BLACK
6
CONTINUOUS
10
12.6165
20
-8.38284
11
12.617
21
-8.38229
0
LINE
8
BLACK
6
CONTINUOUS
10
12.617
20
-8.38229
11
12.6174
21
-8.38172
0
LINE
8
BLACK
6
CONTINUOUS
10
12.6174
20
-8.38172
11
12.6179
21
-8.38113
0
LINE
8
BLACK
6
CONTINUOUS
10
12.6179
20
-8.38113
11
12.6179
21
-8.38113
0
LINE
8
BLACK
6
CONTINUOUS
10
12.6179
20
-8.38113
11
12.6182
21
-8.38051
0
LINE
8
BLACK
6
CONTINUOUS
10
12.6182
20
-8.38051
11
12.6182
21
-8.38051
0
LINE
8
BLACK
6
CONTINUOUS
10
12.6182
20
-8.38051
11
12.6182
21
-8.38051
0
LINE
8
BLACK
6
CONTINUOUS
10
12.6182
20
-8.38051
11
12.6186
21
-8.37988
0
LINE
8
BLACK
6
CONTINUOUS
10
12.6186
20
-8.37988
11
12.6189
21
-8.37923
0
LINE
8
BLACK
6
CONTINUOUS
10
12.6189
20
-8.37923
11
12.6189
21
-8.37923
0
LINE
8
BLACK
6
CONTINUOUS
10
12.6189
20
-8.37923
11
12.6189
21
-8.37923
0
LINE
8
BLACK
6
CONTINUOUS
10
12.6189
20
-8.37923
11
12.6192
21
-8.37856
0
LINE
8
BLACK
6
CONTINUOUS
10
12.6192
20
-8.37856
11
12.6192
21
-8.37856
0
LINE
8
BLACK
6
CONTINUOUS
10
12.6192
20
-8.37856
11
12.6194
21
-8.37788
0
LINE
8
BLACK
6
CONTINUOUS
10
12.6194
20
-8.37788
11
12.6196
21
-8.37719
0
LINE
8
BLACK
6
CONTINUOUS
10
12.6196
20
-8.37719
11
12.6198
21
-8.37649
0
LINE
8
BLACK
6
CONTINUOUS
10
12.6198
20
-8.37649
11
12.6198
21
-8.37649
0
LINE
8
BLACK
6
CONTINUOUS
10
12.6198
20
-8.37649
11
12.6199
21
-8.37578
0
LINE
8
BLACK
6
CONTINUOUS
10
12.6199
20
-8.37578
11
12.6199
21
-8.37578
0
LINE
8
BLACK
6
CONTINUOUS
10
12.6199
20
-8.37578
11
12.62
21
-8.37506
0
LINE
8
BLACK
6
CONTINUOUS
10
12.62
20
-8.37506
11
12.6201
21
-8.37434
0
LINE
8
BLACK
6
CONTINUOUS
10
12.6201
20
-8.37434
11
12.6201
21
-8.37434
0
LINE
8
BLACK
6
CONTINUOUS
10
12.6201
20
-8.37434
11
12.6201
21
-8.37362
0
LINE
8
BLACK
6
CONTINUOUS
10
12.6201
20
-8.37362
11
12.6201
21
-8.32638
0
LINE
8
BLACK
6
CONTINUOUS
10
12.6201
20
-8.32638
11
12.6201
21
-8.32566
0
LINE
8
BLACK
6
CONTINUOUS
10
12.6201
20
-8.32566
11
12.6201
21
-8.32566
0
LINE
8
BLACK
6
CONTINUOUS
10
12.6201
20
-8.32566
11
12.62
21
-8.32494
0
LINE
8
BLACK
6
CONTINUOUS
10
12.62
20
-8.32494
11
12.6199
21
-8.32422
0
LINE
8
BLACK
6
CONTINUOUS
10
12.6199
20
-8.32422
11
12.6199
21
-8.32422
0
LINE
8
BLACK
6
CONTINUOUS
10
12.6199
20
-8.32422
11
12.6198
21
-8.32351
0
LINE
8
BLACK
6
CONTINUOUS
10
12.6198
20
-8.32351
11
12.6198
21
-8.32351
0
LINE
8
BLACK
6
CONTINUOUS
10
12.6198
20
-8.32351
11
12.6196
21
-8.32281
0
LINE
8
BLACK
6
CONTINUOUS
10
12.6196
20
-8.32281
11
12.6196
21
-8.32281
0
LINE
8
BLACK
6
CONTINUOUS
10
12.6196
20
-8.32281
11
12.6194
21
-8.32212
0
LINE
8
BLACK
6
CONTINUOUS
10
12.6194
20
-8.32212
11
12.6194
21
-8.32212
0
LINE
8
BLACK
6
CONTINUOUS
10
12.6194
20
-8.32212
11
12.6192
21
-8.32144
0
LINE
8
BLACK
6
CONTINUOUS
10
12.6192
20
-8.32144
11
12.6192
21
-8.32144
0
LINE
8
BLACK
6
CONTINUOUS
10
12.6192
20
-8.32144
11
12.6189
21
-8.32077
0
LINE
8
BLACK
6
CONTINUOUS
10
12.6189
20
-8.32077
11
12.6189
21
-8.32077
0
LINE
8
BLACK
6
CONTINUOUS
10
12.6189
20
-8.32077
11
12.6189
21
-8.32077
0
LINE
8
BLACK
6
CONTINUOUS
10
12.6189
20
-8.32077
11
12.6186
21
-8.32012
0
LINE
8
BLACK
6
CONTINUOUS
10
12.6186
20
-8.32012
11
12.6186
21
-8.32012
0
LINE
8
BLACK
6
CONTINUOUS
10
12.6186
20
-8.32012
11
12.6186
21
-8.32012
0
LINE
8
BLACK
6
CONTINUOUS
10
12.6186
20
-8.32012
11
12.6182
21
-8.31949
0
LINE
8
BLACK
6
CONTINUOUS
10
12.6182
20
-8.31949
11
12.6179
21
-8.31887
0
LINE
8
BLACK
6
CONTINUOUS
10
12.6179
20
-8.31887
11
12.6179
21
-8.31887
0
LINE
8
BLACK
6
CONTINUOUS
10
12.6179
20
-8.31887
11
12.6174
21
-8.31828
0
LINE
8
BLACK
6
CONTINUOUS
10
12.6174
20
-8.31828
11
12.6174
21
-8.31828
0
LINE
8
BLACK
6
CONTINUOUS
10
12.6174
20
-8.31828
11
12.617
21
-8.31771
0
LINE
8
BLACK
6
CONTINUOUS
10
12.617
20
-8.31771
11
12.6165
21
-8.31716
0
LINE
8
BLACK
6
CONTINUOUS
10
12.6165
20
-8.31716
11
12.6165
21
-8.31716
0
LINE
8
BLACK
6
CONTINUOUS
10
12.6165
20
-8.31716
11
12.616
21
-8.31664
0
LINE
8
BLACK
6
CONTINUOUS
10
12.616
20
-8.31664
11
12.616
21
-8.31664
0
LINE
8
BLACK
6
CONTINUOUS
10
12.616
20
-8.31664
11
12.616
21
-8.31664
0
LINE
8
BLACK
6
CONTINUOUS
10
12.616
20
-8.31664
11
12.6155
21
-8.31614
0
LINE
8
BLACK
6
CONTINUOUS
10
12.6155
20
-8.31614
11
12.6155
21
-8.31614
0
LINE
8
BLACK
6
CONTINUOUS
10
12.6155
20
-8.31614
11
12.6155
21
-8.31614
0
LINE
8
BLACK
6
CONTINUOUS
10
12.6155
20
-8.31614
11
12.615
21
-8.31567
0
LINE
8
BLACK
6
CONTINUOUS
10
12.615
20
-8.31567
11
12.6144
21
-8.31523
0
LINE
8
BLACK
6
CONTINUOUS
10
12.6144
20
-8.31523
11
12.6144
21
-8.31523
0
LINE
8
BLACK
6
CONTINUOUS
10
12.6144
20
-8.31523
11
12.6144
21
-8.31523
0
LINE
8
BLACK
6
CONTINUOUS
10
12.6144
20
-8.31523
11
12.6138
21
-8.31482
0
LINE
8
BLACK
6
CONTINUOUS
10
12.6138
20
-8.31482
11
12.6138
21
-8.31482
0
LINE
8
BLACK
6
CONTINUOUS
10
12.6138
20
-8.31482
11
12.6138
21
-8.31482
0
LINE
8
BLACK
6
CONTINUOUS
10
12.6138
20
-8.31482
11
12.6132
21
-8.31445
0
LINE
8
BLACK
6
CONTINUOUS
10
12.6132
20
-8.31445
11
12.6126
21
-8.3141
0
LINE
8
BLACK
6
CONTINUOUS
10
12.6126
20
-8.3141
11
12.6119
21
-8.31379
0
LINE
8
BLACK
6
CONTINUOUS
10
12.6119
20
-8.31379
11
12.6119
21
-8.31379
0
LINE
8
BLACK
6
CONTINUOUS
10
12.6119
20
-8.31379
11
12.6112
21
-8.31352
0
LINE
8
BLACK
6
CONTINUOUS
10
12.6112
20
-8.31352
11
12.6112
21
-8.31352
0
LINE
8
BLACK
6
CONTINUOUS
10
12.6112
20
-8.31352
11
12.6106
21
-8.31327
0
LINE
8
BLACK
6
CONTINUOUS
10
12.6106
20
-8.31327
11
12.6106
21
-8.31327
0
LINE
8
BLACK
6
CONTINUOUS
10
12.6106
20
-8.31327
11
12.6099
21
-8.31307
0
LINE
8
BLACK
6
CONTINUOUS
10
12.6099
20
-8.31307
11
12.6099
21
-8.31307
0
LINE
8
BLACK
6
CONTINUOUS
10
12.6099
20
-8.31307
11
12.6092
21
-8.3129
0
LINE
8
BLACK
6
CONTINUOUS
10
12.6092
20
-8.3129
11
12.6092
21
-8.3129
0
LINE
8
BLACK
6
CONTINUOUS
10
12.6092
20
-8.3129
11
12.6085
21
-8.31277
0
LINE
8
BLACK
6
CONTINUOUS
10
12.6085
20
-8.31277
11
12.6085
21
-8.31277
0
LINE
8
BLACK
6
CONTINUOUS
10
12.6085
20
-8.31277
11
12.6077
21
-8.31268
0
LINE
8
BLACK
6
CONTINUOUS
10
12.6077
20
-8.31268
11
12.607
21
-8.31262
0
LINE
8
BLACK
6
CONTINUOUS
10
12.607
20
-8.31262
11
12.607
21
-8.31262
0
LINE
8
BLACK
6
CONTINUOUS
10
12.607
20
-8.31262
11
12.6063
21
-8.3126
0
LINE
8
BLACK
6
CONTINUOUS
10
12.6063
20
-8.3126
11
12.6056
21
-8.31262
0
LINE
8
BLACK
6
CONTINUOUS
10
12.6056
20
-8.31262
11
12.6049
21
-8.31268
0
LINE
8
BLACK
6
CONTINUOUS
10
12.6049
20
-8.31268
11
12.6049
21
-8.31268
0
LINE
8
BLACK
6
CONTINUOUS
10
12.6049
20
-8.31268
11
12.6041
21
-8.31277
0
LINE
8
BLACK
6
CONTINUOUS
10
12.6041
20
-8.31277
11
12.6041
21
-8.31277
0
LINE
8
BLACK
6
CONTINUOUS
10
12.6041
20
-8.31277
11
12.6034
21
-8.3129
0
LINE
8
BLACK
6
CONTINUOUS
10
12.6034
20
-8.3129
11
12.6034
21
-8.3129
0
LINE
8
BLACK
6
CONTINUOUS
10
12.6034
20
-8.3129
11
12.6027
21
-8.31307
0
LINE
8
BLACK
6
CONTINUOUS
10
12.6027
20
-8.31307
11
12.602
21
-8.31327
0
LINE
8
BLACK
6
CONTINUOUS
10
12.602
20
-8.31327
11
12.6014
21
-8.31352
0
LINE
8
BLACK
6
CONTINUOUS
10
12.6014
20
-8.31352
11
12.6007
21
-8.31379
0
LINE
8
BLACK
6
CONTINUOUS
10
12.6007
20
-8.31379
11
12.6007
21
-8.31379
0
LINE
8
BLACK
6
CONTINUOUS
10
12.6007
20
-8.31379
11
12.6007
21
-8.31379
0
LINE
8
BLACK
6
CONTINUOUS
10
12.6007
20
-8.31379
11
12.6
21
-8.3141
0
LINE
8
BLACK
6
CONTINUOUS
10
12.6
20
-8.3141
11
12.6
21
-8.3141
0
LINE
8
BLACK
6
CONTINUOUS
10
12.6
20
-8.3141
11
12.6
21
-8.3141
0
LINE
8
BLACK
6
CONTINUOUS
10
12.6
20
-8.3141
11
12.5994
21
-8.31445
0
LINE
8
BLACK
6
CONTINUOUS
10
12.5994
20
-8.31445
11
12.5988
21
-8.31482
0
LINE
8
BLACK
6
CONTINUOUS
10
12.5988
20
-8.31482
11
12.5988
21
-8.31482
0
LINE
8
BLACK
6
CONTINUOUS
10
12.5988
20
-8.31482
11
12.5982
21
-8.31523
0
LINE
8
BLACK
6
CONTINUOUS
10
12.5982
20
-8.31523
11
12.5982
21
-8.31523
0
LINE
8
BLACK
6
CONTINUOUS
10
12.5982
20
-8.31523
11
12.5976
21
-8.31567
0
LINE
8
BLACK
6
CONTINUOUS
10
12.5976
20
-8.31567
11
12.5976
21
-8.31567
0
LINE
8
BLACK
6
CONTINUOUS
10
12.5976
20
-8.31567
11
12.5971
21
-8.31614
0
LINE
8
BLACK
6
CONTINUOUS
10
12.5971
20
-8.31614
11
12.5971
21
-8.31614
0
LINE
8
BLACK
6
CONTINUOUS
10
12.5971
20
-8.31614
11
12.5966
21
-8.31664
0
LINE
8
BLACK
6
CONTINUOUS
10
12.5966
20
-8.31664
11
12.5966
21
-8.31664
0
LINE
8
BLACK
6
CONTINUOUS
10
12.5966
20
-8.31664
11
12.5966
21
-8.31664
0
LINE
8
BLACK
6
CONTINUOUS
10
12.5966
20
-8.31664
11
12.5961
21
-8.31716
0
LINE
8
BLACK
6
CONTINUOUS
10
12.5961
20
-8.31716
11
12.5961
21
-8.31716
0
LINE
8
BLACK
6
CONTINUOUS
10
12.5961
20
-8.31716
11
12.5961
21
-8.31716
0
LINE
8
BLACK
6
CONTINUOUS
10
12.5961
20
-8.31716
11
12.5956
21
-8.31771
0
LINE
8
BLACK
6
CONTINUOUS
10
12.5956
20
-8.31771
11
12.5956
21
-8.31771
0
LINE
8
BLACK
6
CONTINUOUS
10
12.5956
20
-8.31771
11
12.5952
21
-8.31828
0
LINE
8
BLACK
6
CONTINUOUS
10
12.5952
20
-8.31828
11
12.5947
21
-8.31887
0
LINE
8
BLACK
6
CONTINUOUS
10
12.5947
20
-8.31887
11
12.5947
21
-8.31887
0
LINE
8
BLACK
6
CONTINUOUS
10
12.5947
20
-8.31887
11
12.5944
21
-8.31949
0
LINE
8
BLACK
6
CONTINUOUS
10
12.5944
20
-8.31949
11
12.594
21
-8.32012
0
LINE
8
BLACK
6
CONTINUOUS
10
12.594
20
-8.32012
11
12.5937
21
-8.32077
0
LINE
8
BLACK
6
CONTINUOUS
10
12.5937
20
-8.32077
11
12.5934
21
-8.32144
0
LINE
8
BLACK
6
CONTINUOUS
10
12.5934
20
-8.32144
11
12.5934
21
-8.32144
0
LINE
8
BLACK
6
CONTINUOUS
10
12.5934
20
-8.32144
11
12.5932
21
-8.32212
0
LINE
8
BLACK
6
CONTINUOUS
10
12.5932
20
-8.32212
11
12.5932
21
-8.32212
0
LINE
8
BLACK
6
CONTINUOUS
10
12.5932
20
-8.32212
11
12.593
21
-8.32281
0
LINE
8
BLACK
6
CONTINUOUS
10
12.593
20
-8.32281
11
12.593
21
-8.32281
0
LINE
8
BLACK
6
CONTINUOUS
10
12.593
20
-8.32281
11
12.5928
21
-8.32351
0
LINE
8
BLACK
6
CONTINUOUS
10
12.5928
20
-8.32351
11
12.5928
21
-8.32351
0
LINE
8
BLACK
6
CONTINUOUS
10
12.5928
20
-8.32351
11
12.5927
21
-8.32422
0
LINE
8
BLACK
6
CONTINUOUS
10
12.5927
20
-8.32422
11
12.5927
21
-8.32422
0
LINE
8
BLACK
6
CONTINUOUS
10
12.5927
20
-8.32422
11
12.5926
21
-8.32494
0
LINE
8
BLACK
6
CONTINUOUS
10
12.5926
20
-8.32494
11
12.5925
21
-8.32566
0
LINE
8
BLACK
6
CONTINUOUS
10
12.5925
20
-8.32566
11
12.5925
21
-8.32566
0
LINE
8
BLACK
6
CONTINUOUS
10
12.5925
20
-8.32566
11
12.5925
21
-8.32638
0
LINE
8
BLACK
6
CONTINUOUS
10
12.5925
20
-8.32638
11
12.5925
21
-8.37362
0
LINE
8
BLACK
6
CONTINUOUS
10
12.5925
20
-8.37362
11
12.5925
21
-8.37434
0
LINE
8
BLACK
6
CONTINUOUS
10
12.1674
20
-8.30271
11
12.1674
21
-8.30271
0
LINE
8
BLACK
6
CONTINUOUS
10
12.1674
20
-8.30271
11
12.1674
21
-8.30271
0
LINE
8
BLACK
6
CONTINUOUS
10
12.1674
20
-8.30271
11
12.1686
21
-8.30398
0
LINE
8
BLACK
6
CONTINUOUS
10
12.1686
20
-8.30398
11
12.1686
21
-8.30398
0
LINE
8
BLACK
6
CONTINUOUS
10
12.1686
20
-8.30398
11
12.1686
21
-8.30398
0
LINE
8
BLACK
6
CONTINUOUS
10
12.1686
20
-8.30398
11
12.1686
21
-8.30398
0
LINE
8
BLACK
6
CONTINUOUS
10
12.1686
20
-8.30398
11
12.1686
21
-8.30398
0
LINE
8
BLACK
6
CONTINUOUS
10
12.1686
20
-8.30398
11
12.1697
21
-8.30532
0
LINE
8
BLACK
6
CONTINUOUS
10
12.1697
20
-8.30532
11
12.1697
21
-8.30532
0
LINE
8
BLACK
6
CONTINUOUS
10
12.1697
20
-8.30532
11
12.1697
21
-8.30532
0
LINE
8
BLACK
6
CONTINUOUS
10
12.1697
20
-8.30532
11
12.1708
21
-8.30671
0
LINE
8
BLACK
6
CONTINUOUS
10
12.1708
20
-8.30671
11
12.1708
21
-8.30671
0
LINE
8
BLACK
6
CONTINUOUS
10
12.1708
20
-8.30671
11
12.1708
21
-8.30671
0
LINE
8
BLACK
6
CONTINUOUS
10
12.1708
20
-8.30671
11
12.1718
21
-8.30815
0
LINE
8
BLACK
6
CONTINUOUS
10
12.1718
20
-8.30815
11
12.1718
21
-8.30815
0
LINE
8
BLACK
6
CONTINUOUS
10
12.1718
20
-8.30815
11
12.1727
21
-8.30964
0
LINE
8
BLACK
6
CONTINUOUS
10
12.1727
20
-8.30964
11
12.1727
21
-8.30964
0
LINE
8
BLACK
6
CONTINUOUS
10
12.1727
20
-8.30964
11
12.1727
21
-8.30964
0
LINE
8
BLACK
6
CONTINUOUS
10
12.1727
20
-8.30964
11
12.1735
21
-8.31118
0
LINE
8
BLACK
6
CONTINUOUS
10
12.1735
20
-8.31118
11
12.1735
21
-8.31118
0
LINE
8
BLACK
6
CONTINUOUS
10
12.1735
20
-8.31118
11
12.1735
21
-8.31118
0
LINE
8
BLACK
6
CONTINUOUS
10
12.1735
20
-8.31118
11
12.1743
21
-8.31277
0
LINE
8
BLACK
6
CONTINUOUS
10
12.1743
20
-8.31277
11
12.1743
21
-8.31277
0
LINE
8
BLACK
6
CONTINUOUS
10
12.1743
20
-8.31277
11
12.1743
21
-8.31277
0
LINE
8
BLACK
6
CONTINUOUS
10
12.1743
20
-8.31277
11
12.1749
21
-8.31438
0
LINE
8
BLACK
6
CONTINUOUS
10
12.1749
20
-8.31438
11
12.1749
21
-8.31438
0
LINE
8
BLACK
6
CONTINUOUS
10
12.1749
20
-8.31438
11
12.1755
21
-8.31604
0
LINE
8
BLACK
6
CONTINUOUS
10
12.1755
20
-8.31604
11
12.1755
21
-8.31604
0
LINE
8
BLACK
6
CONTINUOUS
10
12.1755
20
-8.31604
11
12.176
21
-8.31772
0
LINE
8
BLACK
6
CONTINUOUS
10
12.176
20
-8.31772
11
12.176
21
-8.31772
0
LINE
8
BLACK
6
CONTINUOUS
10
12.176
20
-8.31772
11
12.1764
21
-8.31942
0
LINE
8
BLACK
6
CONTINUOUS
10
12.1764
20
-8.31942
11
12.1764
21
-8.31942
0
LINE
8
BLACK
6
CONTINUOUS
10
12.1764
20
-8.31942
11
12.1768
21
-8.32114
0
LINE
8
BLACK
6
CONTINUOUS
10
12.1768
20
-8.32114
11
12.1768
21
-8.32114
0
LINE
8
BLACK
6
CONTINUOUS
10
12.1768
20
-8.32114
11
12.177
21
-8.32288
0
LINE
8
BLACK
6
CONTINUOUS
10
12.177
20
-8.32288
11
12.177
21
-8.32288
0
LINE
8
BLACK
6
CONTINUOUS
10
12.177
20
-8.32288
11
12.1771
21
-8.32463
0
LINE
8
BLACK
6
CONTINUOUS
10
12.1771
20
-8.32463
11
12.1771
21
-8.32463
0
LINE
8
BLACK
6
CONTINUOUS
10
12.1771
20
-8.32463
11
12.1772
21
-8.32638
0
LINE
8
BLACK
6
CONTINUOUS
10
12.1772
20
-8.32638
11
12.1772
21
-8.37362
0
LINE
8
BLACK
6
CONTINUOUS
10
12.1772
20
-8.37362
11
12.1771
21
-8.37537
0
LINE
8
BLACK
6
CONTINUOUS
10
12.1771
20
-8.37537
11
12.1771
21
-8.37537
0
LINE
8
BLACK
6
CONTINUOUS
10
12.1771
20
-8.37537
11
12.177
21
-8.37712
0
LINE
8
BLACK
6
CONTINUOUS
10
12.177
20
-8.37712
11
12.177
21
-8.37712
0
LINE
8
BLACK
6
CONTINUOUS
10
12.177
20
-8.37712
11
12.1768
21
-8.37886
0
LINE
8
BLACK
6
CONTINUOUS
10
12.1768
20
-8.37886
11
12.1768
21
-8.37886
0
LINE
8
BLACK
6
CONTINUOUS
10
12.1768
20
-8.37886
11
12.1768
21
-8.37886
0
LINE
8
BLACK
6
CONTINUOUS
10
12.1768
20
-8.37886
11
12.1764
21
-8.38058
0
LINE
8
BLACK
6
CONTINUOUS
10
12.1764
20
-8.38058
11
12.1764
21
-8.38058
0
LINE
8
BLACK
6
CONTINUOUS
10
12.1764
20
-8.38058
11
12.1764
21
-8.38058
0
LINE
8
BLACK
6
CONTINUOUS
10
12.1764
20
-8.38058
11
12.176
21
-8.38228
0
LINE
8
BLACK
6
CONTINUOUS
10
12.176
20
-8.38228
11
12.176
21
-8.38228
0
LINE
8
BLACK
6
CONTINUOUS
10
12.176
20
-8.38228
11
12.176
21
-8.38228
0
LINE
8
BLACK
6
CONTINUOUS
10
12.176
20
-8.38228
11
12.1755
21
-8.38396
0
LINE
8
BLACK
6
CONTINUOUS
10
12.1755
20
-8.38396
11
12.1755
21
-8.38396
0
LINE
8
BLACK
6
CONTINUOUS
10
12.1755
20
-8.38396
11
12.1755
21
-8.38396
0
LINE
8
BLACK
6
CONTINUOUS
10
12.1755
20
-8.38396
11
12.1749
21
-8.38562
0
LINE
8
BLACK
6
CONTINUOUS
10
12.1749
20
-8.38562
11
12.1749
21
-8.38562
0
LINE
8
BLACK
6
CONTINUOUS
10
12.1749
20
-8.38562
11
12.1749
21
-8.38562
0
LINE
8
BLACK
6
CONTINUOUS
10
12.1749
20
-8.38562
11
12.1743
21
-8.38723
0
LINE
8
BLACK
6
CONTINUOUS
10
12.1743
20
-8.38723
11
12.1743
21
-8.38723
0
LINE
8
BLACK
6
CONTINUOUS
10
12.1743
20
-8.38723
11
12.1743
21
-8.38723
0
LINE
8
BLACK
6
CONTINUOUS
10
12.1743
20
-8.38723
11
12.1735
21
-8.38882
0
LINE
8
BLACK
6
CONTINUOUS
10
12.1735
20
-8.38882
11
12.1735
21
-8.38882
0
LINE
8
BLACK
6
CONTINUOUS
10
12.1735
20
-8.38882
11
12.1727
21
-8.39036
0
LINE
8
BLACK
6
CONTINUOUS
10
12.1727
20
-8.39036
11
12.1727
21
-8.39036
0
LINE
8
BLACK
6
CONTINUOUS
10
12.1727
20
-8.39036
11
12.1718
21
-8.39185
0
LINE
8
BLACK
6
CONTINUOUS
10
12.1718
20
-8.39185
11
12.1718
21
-8.39185
0
LINE
8
BLACK
6
CONTINUOUS
10
12.1718
20
-8.39185
11
12.1718
21
-8.39185
0
LINE
8
BLACK
6
CONTINUOUS
10
12.1718
20
-8.39185
11
12.1708
21
-8.39329
0
LINE
8
BLACK
6
CONTINUOUS
10
12.1708
20
-8.39329
11
12.1708
21
-8.39329
0
LINE
8
BLACK
6
CONTINUOUS
10
12.1708
20
-8.39329
11
12.1697
21
-8.39468
0
LINE
8
BLACK
6
CONTINUOUS
10
12.1697
20
-8.39468
11
12.1697
21
-8.39468
0
LINE
8
BLACK
6
CONTINUOUS
10
12.1697
20
-8.39468
11
12.1686
21
-8.39602
0
LINE
8
BLACK
6
CONTINUOUS
10
12.1686
20
-8.39602
11
12.1686
21
-8.39602
0
LINE
8
BLACK
6
CONTINUOUS
10
12.1686
20
-8.39602
11
12.1674
21
-8.39729
0
LINE
8
BLACK
6
CONTINUOUS
10
12.1674
20
-8.39729
11
12.1674
21
-8.39729
0
LINE
8
BLACK
6
CONTINUOUS
10
12.1674
20
-8.39729
11
12.1661
21
-8.39849
0
LINE
8
BLACK
6
CONTINUOUS
10
12.1661
20
-8.39849
11
12.1661
21
-8.39849
0
LINE
8
BLACK
6
CONTINUOUS
10
12.1661
20
-8.39849
11
12.1661
21
-8.39849
0
LINE
8
BLACK
6
CONTINUOUS
10
12.1661
20
-8.39849
11
12.1648
21
-8.39963
0
LINE
8
BLACK
6
CONTINUOUS
10
12.1648
20
-8.39963
11
12.1648
21
-8.39963
0
LINE
8
BLACK
6
CONTINUOUS
10
12.1648
20
-8.39963
11
12.1648
21
-8.39963
0
LINE
8
BLACK
6
CONTINUOUS
10
12.1648
20
-8.39963
11
12.1634
21
-8.4007
0
LINE
8
BLACK
6
CONTINUOUS
10
12.1634
20
-8.4007
11
12.1634
21
-8.4007
0
LINE
8
BLACK
6
CONTINUOUS
10
12.1634
20
-8.4007
11
12.1619
21
-8.40169
0
LINE
8
BLACK
6
CONTINUOUS
10
12.1619
20
-8.40169
11
12.1619
21
-8.40169
0
LINE
8
BLACK
6
CONTINUOUS
10
12.1619
20
-8.40169
11
12.1604
21
-8.4026
0
LINE
8
BLACK
6
CONTINUOUS
10
12.1604
20
-8.4026
11
12.1604
21
-8.4026
0
LINE
8
BLACK
6
CONTINUOUS
10
12.1604
20
-8.4026
11
12.1604
21
-8.4026
0
LINE
8
BLACK
6
CONTINUOUS
10
12.1604
20
-8.4026
11
12.1589
21
-8.40344
0
LINE
8
BLACK
6
CONTINUOUS
10
12.1589
20
-8.40344
11
12.1589
21
-8.40344
0
LINE
8
BLACK
6
CONTINUOUS
10
12.1589
20
-8.40344
11
12.1573
21
-8.4042
0
LINE
8
BLACK
6
CONTINUOUS
10
12.1573
20
-8.4042
11
12.1573
21
-8.4042
0
LINE
8
BLACK
6
CONTINUOUS
10
12.1573
20
-8.4042
11
12.1573
21
-8.4042
0
LINE
8
BLACK
6
CONTINUOUS
10
12.1573
20
-8.4042
11
12.1557
21
-8.40487
0
LINE
8
BLACK
6
CONTINUOUS
10
12.1557
20
-8.40487
11
12.1557
21
-8.40487
0
LINE
8
BLACK
6
CONTINUOUS
10
12.1557
20
-8.40487
11
12.1557
21
-8.40487
0
LINE
8
BLACK
6
CONTINUOUS
10
12.1557
20
-8.40487
11
12.154
21
-8.40545
0
LINE
8
BLACK
6
CONTINUOUS
10
12.154
20
-8.40545
11
12.154
21
-8.40545
0
LINE
8
BLACK
6
CONTINUOUS
10
12.154
20
-8.40545
11
12.1524
21
-8.40595
0
LINE
8
BLACK
6
CONTINUOUS
10
12.1524
20
-8.40595
11
12.1524
21
-8.40595
0
LINE
8
BLACK
6
CONTINUOUS
10
12.1524
20
-8.40595
11
12.1507
21
-8.40636
0
LINE
8
BLACK
6
CONTINUOUS
10
12.1507
20
-8.40636
11
12.1507
21
-8.40636
0
LINE
8
BLACK
6
CONTINUOUS
10
12.1507
20
-8.40636
11
12.1507
21
-8.40636
0
LINE
8
BLACK
6
CONTINUOUS
10
12.1507
20
-8.40636
11
12.1489
21
-8.40668
0
LINE
8
BLACK
6
CONTINUOUS
10
12.1489
20
-8.40668
11
12.1489
21
-8.40668
0
LINE
8
BLACK
6
CONTINUOUS
10
12.1489
20
-8.40668
11
12.1472
21
-8.40691
0
LINE
8
BLACK
6
CONTINUOUS
10
12.1472
20
-8.40691
11
12.1472
21
-8.40691
0
LINE
8
BLACK
6
CONTINUOUS
10
12.1472
20
-8.40691
11
12.1455
21
-8.40704
0
LINE
8
BLACK
6
CONTINUOUS
10
12.1455
20
-8.40704
11
12.1455
21
-8.40704
0
LINE
8
BLACK
6
CONTINUOUS
10
12.1455
20
-8.40704
11
12.1437
21
-8.40709
0
LINE
8
BLACK
6
CONTINUOUS
10
12.1437
20
-8.40709
11
12.1437
21
-8.40709
0
LINE
8
BLACK
6
CONTINUOUS
10
12.1437
20
-8.40709
11
12.1419
21
-8.40704
0
LINE
8
BLACK
6
CONTINUOUS
10
12.1419
20
-8.40704
11
12.1419
21
-8.40704
0
LINE
8
BLACK
6
CONTINUOUS
10
12.1419
20
-8.40704
11
12.1402
21
-8.40691
0
LINE
8
BLACK
6
CONTINUOUS
10
12.1402
20
-8.40691
11
12.1402
21
-8.40691
0
LINE
8
BLACK
6
CONTINUOUS
10
12.1402
20
-8.40691
11
12.1385
21
-8.40668
0
LINE
8
BLACK
6
CONTINUOUS
10
12.1385
20
-8.40668
11
12.1385
21
-8.40668
0
LINE
8
BLACK
6
CONTINUOUS
10
12.1385
20
-8.40668
11
12.1385
21
-8.40668
0
LINE
8
BLACK
6
CONTINUOUS
10
12.1385
20
-8.40668
11
12.1367
21
-8.40636
0
LINE
8
BLACK
6
CONTINUOUS
10
12.1367
20
-8.40636
11
12.1367
21
-8.40636
0
LINE
8
BLACK
6
CONTINUOUS
10
12.1367
20
-8.40636
11
12.135
21
-8.40595
0
LINE
8
BLACK
6
CONTINUOUS
10
12.135
20
-8.40595
11
12.135
21
-8.40595
0
LINE
8
BLACK
6
CONTINUOUS
10
12.135
20
-8.40595
11
12.135
21
-8.40595
0
LINE
8
BLACK
6
CONTINUOUS
10
12.135
20
-8.40595
11
12.1334
21
-8.40545
0
LINE
8
BLACK
6
CONTINUOUS
10
12.1334
20
-8.40545
11
12.1334
21
-8.40545
0
LINE
8
BLACK
6
CONTINUOUS
10
12.1334
20
-8.40545
11
12.1334
21
-8.40545
0
LINE
8
BLACK
6
CONTINUOUS
10
12.1334
20
-8.40545
11
12.1317
21
-8.40487
0
LINE
8
BLACK
6
CONTINUOUS
10
12.1317
20
-8.40487
11
12.1317
21
-8.40487
0
LINE
8
BLACK
6
CONTINUOUS
10
12.1317
20
-8.40487
11
12.1317
21
-8.40487
0
LINE
8
BLACK
6
CONTINUOUS
10
12.1317
20
-8.40487
11
12.1301
21
-8.4042
0
LINE
8
BLACK
6
CONTINUOUS
10
12.1301
20
-8.4042
11
12.1301
21
-8.4042
0
LINE
8
BLACK
6
CONTINUOUS
10
12.1301
20
-8.4042
11
12.1301
21
-8.4042
0
LINE
8
BLACK
6
CONTINUOUS
10
12.1301
20
-8.4042
11
12.1285
21
-8.40344
0
LINE
8
BLACK
6
CONTINUOUS
10
12.1285
20
-8.40344
11
12.1285
21
-8.40344
0
LINE
8
BLACK
6
CONTINUOUS
10
12.1285
20
-8.40344
11
12.127
21
-8.4026
0
LINE
8
BLACK
6
CONTINUOUS
10
12.127
20
-8.4026
11
12.127
21
-8.4026
0
LINE
8
BLACK
6
CONTINUOUS
10
12.127
20
-8.4026
11
12.1255
21
-8.40169
0
LINE
8
BLACK
6
CONTINUOUS
10
12.1255
20
-8.40169
11
12.1255
21
-8.40169
0
LINE
8
BLACK
6
CONTINUOUS
10
12.1255
20
-8.40169
11
12.1255
21
-8.40169
0
LINE
8
BLACK
6
CONTINUOUS
10
12.1255
20
-8.40169
11
12.1255
21
-8.40169
0
LINE
8
BLACK
6
CONTINUOUS
10
12.1255
20
-8.40169
11
12.124
21
-8.4007
0
LINE
8
BLACK
6
CONTINUOUS
10
12.124
20
-8.4007
11
12.124
21
-8.4007
0
LINE
8
BLACK
6
CONTINUOUS
10
12.124
20
-8.4007
11
12.124
21
-8.4007
0
LINE
8
BLACK
6
CONTINUOUS
10
12.124
20
-8.4007
11
12.1226
21
-8.39963
0
LINE
8
BLACK
6
CONTINUOUS
10
12.1226
20
-8.39963
11
12.1226
21
-8.39963
0
LINE
8
BLACK
6
CONTINUOUS
10
12.1226
20
-8.39963
11
12.1213
21
-8.39849
0
LINE
8
BLACK
6
CONTINUOUS
10
12.1213
20
-8.39849
11
12.1213
21
-8.39849
0
LINE
8
BLACK
6
CONTINUOUS
10
12.1213
20
-8.39849
11
12.12
21
-8.39729
0
LINE
8
BLACK
6
CONTINUOUS
10
12.12
20
-8.39729
11
12.12
21
-8.39729
0
LINE
8
BLACK
6
CONTINUOUS
10
12.12
20
-8.39729
11
12.12
21
-8.39729
0
LINE
8
BLACK
6
CONTINUOUS
10
12.12
20
-8.39729
11
12.1188
21
-8.39602
0
LINE
8
BLACK
6
CONTINUOUS
10
12.1188
20
-8.39602
11
12.1188
21
-8.39602
0
LINE
8
BLACK
6
CONTINUOUS
10
12.1188
20
-8.39602
11
12.1188
21
-8.39602
0
LINE
8
BLACK
6
CONTINUOUS
10
12.1188
20
-8.39602
11
12.1177
21
-8.39468
0
LINE
8
BLACK
6
CONTINUOUS
10
12.1177
20
-8.39468
11
12.1177
21
-8.39468
0
LINE
8
BLACK
6
CONTINUOUS
10
12.1177
20
-8.39468
11
12.1177
21
-8.39468
0
LINE
8
BLACK
6
CONTINUOUS
10
12.1177
20
-8.39468
11
12.1166
21
-8.39329
0
LINE
8
BLACK
6
CONTINUOUS
10
12.1166
20
-8.39329
11
12.1166
21
-8.39329
0
LINE
8
BLACK
6
CONTINUOUS
10
12.1166
20
-8.39329
11
12.1156
21
-8.39185
0
LINE
8
BLACK
6
CONTINUOUS
10
12.1156
20
-8.39185
11
12.1156
21
-8.39185
0
LINE
8
BLACK
6
CONTINUOUS
10
12.1156
20
-8.39185
11
12.1156
21
-8.39185
0
LINE
8
BLACK
6
CONTINUOUS
10
12.1156
20
-8.39185
11
12.1147
21
-8.39036
0
LINE
8
BLACK
6
CONTINUOUS
10
12.1147
20
-8.39036
11
12.1147
21
-8.39036
0
LINE
8
BLACK
6
CONTINUOUS
10
12.1147
20
-8.39036
11
12.1147
21
-8.39036
0
LINE
8
BLACK
6
CONTINUOUS
10
12.1147
20
-8.39036
11
12.1139
21
-8.38882
0
LINE
8
BLACK
6
CONTINUOUS
10
12.1139
20
-8.38882
11
12.1139
21
-8.38882
0
LINE
8
BLACK
6
CONTINUOUS
10
12.1139
20
-8.38882
11
12.1139
21
-8.38882
0
LINE
8
BLACK
6
CONTINUOUS
10
12.1139
20
-8.38882
11
12.1131
21
-8.38723
0
LINE
8
BLACK
6
CONTINUOUS
10
12.1131
20
-8.38723
11
12.1131
21
-8.38723
0
LINE
8
BLACK
6
CONTINUOUS
10
12.1131
20
-8.38723
11
12.1131
21
-8.38723
0
LINE
8
BLACK
6
CONTINUOUS
10
12.1131
20
-8.38723
11
12.1131
21
-8.38723
0
LINE
8
BLACK
6
CONTINUOUS
10
12.1131
20
-8.38723
11
12.1125
21
-8.38562
0
LINE
8
BLACK
6
CONTINUOUS
10
12.1125
20
-8.38562
11
12.1125
21
-8.38562
0
LINE
8
BLACK
6
CONTINUOUS
10
12.1125
20
-8.38562
11
12.1125
21
-8.38562
0
LINE
8
BLACK
6
CONTINUOUS
10
12.1125
20
-8.38562
11
12.1119
21
-8.38396
0
LINE
8
BLACK
6
CONTINUOUS
10
12.1119
20
-8.38396
11
12.1119
21
-8.38396
0
LINE
8
BLACK
6
CONTINUOUS
10
12.1119
20
-8.38396
11
12.1114
21
-8.38228
0
LINE
8
BLACK
6
CONTINUOUS
10
12.1114
20
-8.38228
11
12.1114
21
-8.38228
0
LINE
8
BLACK
6
CONTINUOUS
10
12.1114
20
-8.38228
11
12.1114
21
-8.38228
0
LINE
8
BLACK
6
CONTINUOUS
10
12.1114
20
-8.38228
11
12.111
21
-8.38058
0
LINE
8
BLACK
6
CONTINUOUS
10
12.111
20
-8.38058
11
12.111
21
-8.38058
0
LINE
8
BLACK
6
CONTINUOUS
10
12.111
20
-8.38058
11
12.111
21
-8.38058
0
LINE
8
BLACK
6
CONTINUOUS
10
12.111
20
-8.38058
11
12.111
21
-8.38058
0
LINE
8
BLACK
6
CONTINUOUS
10
12.111
20
-8.38058
11
12.1106
21
-8.37886
0
LINE
8
BLACK
6
CONTINUOUS
10
12.1106
20
-8.37886
11
12.1106
21
-8.37886
0
LINE
8
BLACK
6
CONTINUOUS
10
12.1106
20
-8.37886
11
12.1104
21
-8.37712
0
LINE
8
BLACK
6
CONTINUOUS
10
12.1104
20
-8.37712
11
12.1104
21
-8.37712
0
LINE
8
BLACK
6
CONTINUOUS
10
12.1104
20
-8.37712
11
12.1103
21
-8.37537
0
LINE
8
BLACK
6
CONTINUOUS
10
12.1103
20
-8.37537
11
12.1103
21
-8.37537
0
LINE
8
BLACK
6
CONTINUOUS
10
12.1103
20
-8.37537
11
12.1102
21
-8.37362
0
LINE
8
BLACK
6
CONTINUOUS
10
12.1102
20
-8.37362
11
12.1102
21
-8.32638
0
LINE
8
BLACK
6
CONTINUOUS
10
12.1102
20
-8.32638
11
12.1103
21
-8.32463
0
LINE
8
BLACK
6
CONTINUOUS
10
12.1103
20
-8.32463
11
12.1103
21
-8.32463
0
LINE
8
BLACK
6
CONTINUOUS
10
12.1103
20
-8.32463
11
12.1104
21
-8.32288
0
LINE
8
BLACK
6
CONTINUOUS
10
12.1104
20
-8.32288
11
12.1104
21
-8.32288
0
LINE
8
BLACK
6
CONTINUOUS
10
12.1104
20
-8.32288
11
12.1106
21
-8.32114
0
LINE
8
BLACK
6
CONTINUOUS
10
12.1106
20
-8.32114
11
12.1106
21
-8.32114
0
LINE
8
BLACK
6
CONTINUOUS
10
12.1106
20
-8.32114
11
12.1106
21
-8.32114
0
LINE
8
BLACK
6
CONTINUOUS
10
12.1106
20
-8.32114
11
12.111
21
-8.31942
0
LINE
8
BLACK
6
CONTINUOUS
10
12.111
20
-8.31942
11
12.111
21
-8.31942
0
LINE
8
BLACK
6
CONTINUOUS
10
12.111
20
-8.31942
11
12.1114
21
-8.31772
0
LINE
8
BLACK
6
CONTINUOUS
10
12.1114
20
-8.31772
11
12.1114
21
-8.31772
0
LINE
8
BLACK
6
CONTINUOUS
10
12.1114
20
-8.31772
11
12.1114
21
-8.31772
0
LINE
8
BLACK
6
CONTINUOUS
10
12.1114
20
-8.31772
11
12.1119
21
-8.31604
0
LINE
8
BLACK
6
CONTINUOUS
10
12.1119
20
-8.31604
11
12.1119
21
-8.31604
0
LINE
8
BLACK
6
CONTINUOUS
10
12.1119
20
-8.31604
11
12.1119
21
-8.31604
0
LINE
8
BLACK
6
CONTINUOUS
10
12.1119
20
-8.31604
11
12.1125
21
-8.31438
0
LINE
8
BLACK
6
CONTINUOUS
10
12.1125
20
-8.31438
11
12.1125
21
-8.31438
0
LINE
8
BLACK
6
CONTINUOUS
10
12.1125
20
-8.31438
11
12.1125
21
-8.31438
0
LINE
8
BLACK
6
CONTINUOUS
10
12.1125
20
-8.31438
11
12.1131
21
-8.31277
0
LINE
8
BLACK
6
CONTINUOUS
10
12.1131
20
-8.31277
11
12.1131
21
-8.31277
0
LINE
8
BLACK
6
CONTINUOUS
10
12.1131
20
-8.31277
11
12.1131
21
-8.31277
0
LINE
8
BLACK
6
CONTINUOUS
10
12.1131
20
-8.31277
11
12.1139
21
-8.31118
0
LINE
8
BLACK
6
CONTINUOUS
10
12.1139
20
-8.31118
11
12.1139
21
-8.31118
0
LINE
8
BLACK
6
CONTINUOUS
10
12.1139
20
-8.31118
11
12.1147
21
-8.30964
0
LINE
8
BLACK
6
CONTINUOUS
10
12.1147
20
-8.30964
11
12.1147
21
-8.30964
0
LINE
8
BLACK
6
CONTINUOUS
10
12.1147
20
-8.30964
11
12.1147
21
-8.30964
0
LINE
8
BLACK
6
CONTINUOUS
10
12.1147
20
-8.30964
11
12.1156
21
-8.30815
0
LINE
8
BLACK
6
CONTINUOUS
10
12.1156
20
-8.30815
11
12.1156
21
-8.30815
0
LINE
8
BLACK
6
CONTINUOUS
10
12.1156
20
-8.30815
11
12.1166
21
-8.30671
0
LINE
8
BLACK
6
CONTINUOUS
10
12.1166
20
-8.30671
11
12.1166
21
-8.30671
0
LINE
8
BLACK
6
CONTINUOUS
10
12.1166
20
-8.30671
11
12.1166
21
-8.30671
0
LINE
8
BLACK
6
CONTINUOUS
10
12.1166
20
-8.30671
11
12.1177
21
-8.30532
0
LINE
8
BLACK
6
CONTINUOUS
10
12.1177
20
-8.30532
11
12.1177
21
-8.30532
0
LINE
8
BLACK
6
CONTINUOUS
10
12.1177
20
-8.30532
11
12.1188
21
-8.30398
0
LINE
8
BLACK
6
CONTINUOUS
10
12.1188
20
-8.30398
11
12.1188
21
-8.30398
0
LINE
8
BLACK
6
CONTINUOUS
10
12.1188
20
-8.30398
11
12.1188
21
-8.30398
0
LINE
8
BLACK
6
CONTINUOUS
10
12.1188
20
-8.30398
11
12.12
21
-8.30271
0
LINE
8
BLACK
6
CONTINUOUS
10
12.12
20
-8.30271
11
12.12
21
-8.30271
0
LINE
8
BLACK
6
CONTINUOUS
10
12.12
20
-8.30271
11
12.12
21
-8.30271
0
LINE
8
BLACK
6
CONTINUOUS
10
12.12
20
-8.30271
11
12.1213
21
-8.30151
0
LINE
8
BLACK
6
CONTINUOUS
10
12.1213
20
-8.30151
11
12.1213
21
-8.30151
0
LINE
8
BLACK
6
CONTINUOUS
10
12.1213
20
-8.30151
11
12.1213
21
-8.30151
0
LINE
8
BLACK
6
CONTINUOUS
10
12.1213
20
-8.30151
11
12.1226
21
-8.30037
0
LINE
8
BLACK
6
CONTINUOUS
10
12.1226
20
-8.30037
11
12.1226
21
-8.30037
0
LINE
8
BLACK
6
CONTINUOUS
10
12.1226
20
-8.30037
11
12.1226
21
-8.30037
0
LINE
8
BLACK
6
CONTINUOUS
10
12.1226
20
-8.30037
11
12.124
21
-8.2993
0
LINE
8
BLACK
6
CONTINUOUS
10
12.124
20
-8.2993
11
12.124
21
-8.2993
0
LINE
8
BLACK
6
CONTINUOUS
10
12.124
20
-8.2993
11
12.124
21
-8.2993
0
LINE
8
BLACK
6
CONTINUOUS
10
12.124
20
-8.2993
11
12.1255
21
-8.29831
0
LINE
8
BLACK
6
CONTINUOUS
10
12.1255
20
-8.29831
11
12.1255
21
-8.29831
0
LINE
8
BLACK
6
CONTINUOUS
10
12.1255
20
-8.29831
11
12.127
21
-8.2974
0
LINE
8
BLACK
6
CONTINUOUS
10
12.127
20
-8.2974
11
12.127
21
-8.2974
0
LINE
8
BLACK
6
CONTINUOUS
10
12.127
20
-8.2974
11
12.127
21
-8.2974
0
LINE
8
BLACK
6
CONTINUOUS
10
12.127
20
-8.2974
11
12.1285
21
-8.29656
0
LINE
8
BLACK
6
CONTINUOUS
10
12.1285
20
-8.29656
11
12.1285
21
-8.29656
0
LINE
8
BLACK
6
CONTINUOUS
10
12.1285
20
-8.29656
11
12.1285
21
-8.29656
0
LINE
8
BLACK
6
CONTINUOUS
10
12.1285
20
-8.29656
11
12.1301
21
-8.2958
0
LINE
8
BLACK
6
CONTINUOUS
10
12.1301
20
-8.2958
11
12.1301
21
-8.2958
0
LINE
8
BLACK
6
CONTINUOUS
10
12.1301
20
-8.2958
11
12.1301
21
-8.2958
0
LINE
8
BLACK
6
CONTINUOUS
10
12.1301
20
-8.2958
11
12.1317
21
-8.29513
0
LINE
8
BLACK
6
CONTINUOUS
10
12.1317
20
-8.29513
11
12.1317
21
-8.29513
0
LINE
8
BLACK
6
CONTINUOUS
10
12.1317
20
-8.29513
11
12.1317
21
-8.29513
0
LINE
8
BLACK
6
CONTINUOUS
10
12.1317
20
-8.29513
11
12.1334
21
-8.29455
0
LINE
8
BLACK
6
CONTINUOUS
10
12.1334
20
-8.29455
11
12.1334
21
-8.29455
0
LINE
8
BLACK
6
CONTINUOUS
10
12.1334
20
-8.29455
11
12.1334
21
-8.29455
0
LINE
8
BLACK
6
CONTINUOUS
10
12.1334
20
-8.29455
11
12.135
21
-8.29405
0
LINE
8
BLACK
6
CONTINUOUS
10
12.135
20
-8.29405
11
12.135
21
-8.29405
0
LINE
8
BLACK
6
CONTINUOUS
10
12.135
20
-8.29405
11
12.1367
21
-8.29364
0
LINE
8
BLACK
6
CONTINUOUS
10
12.1367
20
-8.29364
11
12.1367
21
-8.29364
0
LINE
8
BLACK
6
CONTINUOUS
10
12.1367
20
-8.29364
11
12.1367
21
-8.29364
0
LINE
8
BLACK
6
CONTINUOUS
10
12.1367
20
-8.29364
11
12.1385
21
-8.29332
0
LINE
8
BLACK
6
CONTINUOUS
10
12.1385
20
-8.29332
11
12.1385
21
-8.29332
0
LINE
8
BLACK
6
CONTINUOUS
10
12.1385
20
-8.29332
11
12.1402
21
-8.29309
0
LINE
8
BLACK
6
CONTINUOUS
10
12.1402
20
-8.29309
11
12.1402
21
-8.29309
0
LINE
8
BLACK
6
CONTINUOUS
10
12.1402
20
-8.29309
11
12.1419
21
-8.29296
0
LINE
8
BLACK
6
CONTINUOUS
10
12.1419
20
-8.29296
11
12.1419
21
-8.29296
0
LINE
8
BLACK
6
CONTINUOUS
10
12.1419
20
-8.29296
11
12.1437
21
-8.29291
0
LINE
8
BLACK
6
CONTINUOUS
10
12.1437
20
-8.29291
11
12.1437
21
-8.29291
0
LINE
8
BLACK
6
CONTINUOUS
10
12.1437
20
-8.29291
11
12.1455
21
-8.29296
0
LINE
8
BLACK
6
CONTINUOUS
10
12.1455
20
-8.29296
11
12.1455
21
-8.29296
0
LINE
8
BLACK
6
CONTINUOUS
10
12.1455
20
-8.29296
11
12.1472
21
-8.29309
0
LINE
8
BLACK
6
CONTINUOUS
10
12.1472
20
-8.29309
11
12.1472
21
-8.29309
0
LINE
8
BLACK
6
CONTINUOUS
10
12.1472
20
-8.29309
11
12.1489
21
-8.29332
0
LINE
8
BLACK
6
CONTINUOUS
10
12.1489
20
-8.29332
11
12.1489
21
-8.29332
0
LINE
8
BLACK
6
CONTINUOUS
10
12.1489
20
-8.29332
11
12.1489
21
-8.29332
0
LINE
8
BLACK
6
CONTINUOUS
10
12.1489
20
-8.29332
11
12.1507
21
-8.29364
0
LINE
8
BLACK
6
CONTINUOUS
10
12.1507
20
-8.29364
11
12.1507
21
-8.29364
0
LINE
8
BLACK
6
CONTINUOUS
10
12.1507
20
-8.29364
11
12.1524
21
-8.29405
0
LINE
8
BLACK
6
CONTINUOUS
10
12.1524
20
-8.29405
11
12.1524
21
-8.29405
0
LINE
8
BLACK
6
CONTINUOUS
10
12.1524
20
-8.29405
11
12.1524
21
-8.29405
0
LINE
8
BLACK
6
CONTINUOUS
10
12.1524
20
-8.29405
11
12.154
21
-8.29455
0
LINE
8
BLACK
6
CONTINUOUS
10
12.154
20
-8.29455
11
12.154
21
-8.29455
0
LINE
8
BLACK
6
CONTINUOUS
10
12.154
20
-8.29455
11
12.154
21
-8.29455
0
LINE
8
BLACK
6
CONTINUOUS
10
12.154
20
-8.29455
11
12.1557
21
-8.29513
0
LINE
8
BLACK
6
CONTINUOUS
10
12.1557
20
-8.29513
11
12.1557
21
-8.29513
0
LINE
8
BLACK
6
CONTINUOUS
10
12.1557
20
-8.29513
11
12.1557
21
-8.29513
0
LINE
8
BLACK
6
CONTINUOUS
10
12.1557
20
-8.29513
11
12.1573
21
-8.2958
0
LINE
8
BLACK
6
CONTINUOUS
10
12.1573
20
-8.2958
11
12.1573
21
-8.2958
0
LINE
8
BLACK
6
CONTINUOUS
10
12.1573
20
-8.2958
11
12.1573
21
-8.2958
0
LINE
8
BLACK
6
CONTINUOUS
10
12.1573
20
-8.2958
11
12.1573
21
-8.2958
0
LINE
8
BLACK
6
CONTINUOUS
10
12.1573
20
-8.2958
11
12.1589
21
-8.29656
0
LINE
8
BLACK
6
CONTINUOUS
10
12.1589
20
-8.29656
11
12.1589
21
-8.29656
0
LINE
8
BLACK
6
CONTINUOUS
10
12.1589
20
-8.29656
11
12.1604
21
-8.2974
0
LINE
8
BLACK
6
CONTINUOUS
10
12.1604
20
-8.2974
11
12.1604
21
-8.2974
0
LINE
8
BLACK
6
CONTINUOUS
10
12.1604
20
-8.2974
11
12.1619
21
-8.29831
0
LINE
8
BLACK
6
CONTINUOUS
10
12.1619
20
-8.29831
11
12.1619
21
-8.29831
0
LINE
8
BLACK
6
CONTINUOUS
10
12.1619
20
-8.29831
11
12.1619
21
-8.29831
0
LINE
8
BLACK
6
CONTINUOUS
10
12.1619
20
-8.29831
11
12.1619
21
-8.29831
0
LINE
8
BLACK
6
CONTINUOUS
10
12.1619
20
-8.29831
11
12.1634
21
-8.2993
0
LINE
8
BLACK
6
CONTINUOUS
10
12.1634
20
-8.2993
11
12.1634
21
-8.2993
0
LINE
8
BLACK
6
CONTINUOUS
10
12.1634
20
-8.2993
11
12.1634
21
-8.2993
0
LINE
8
BLACK
6
CONTINUOUS
10
12.1634
20
-8.2993
11
12.1634
21
-8.2993
0
LINE
8
BLACK
6
CONTINUOUS
10
12.1634
20
-8.2993
11
12.1634
21
-8.2993
0
LINE
8
BLACK
6
CONTINUOUS
10
12.1634
20
-8.2993
11
12.1648
21
-8.30037
0
LINE
8
BLACK
6
CONTINUOUS
10
12.1648
20
-8.30037
11
12.1648
21
-8.30037
0
LINE
8
BLACK
6
CONTINUOUS
10
12.1648
20
-8.30037
11
12.1661
21
-8.30151
0
LINE
8
BLACK
6
CONTINUOUS
10
12.1661
20
-8.30151
11
12.1661
21
-8.30151
0
LINE
8
BLACK
6
CONTINUOUS
10
12.1661
20
-8.30151
11
12.1674
21
-8.30271
0
LINE
8
BLACK
6
CONTINUOUS
10
12.1299
20
-8.37434
11
12.1299
21
-8.37434
0
LINE
8
BLACK
6
CONTINUOUS
10
12.1299
20
-8.37434
11
12.13
21
-8.37506
0
LINE
8
BLACK
6
CONTINUOUS
10
12.13
20
-8.37506
11
12.13
21
-8.37506
0
LINE
8
BLACK
6
CONTINUOUS
10
12.13
20
-8.37506
11
12.1301
21
-8.37578
0
LINE
8
BLACK
6
CONTINUOUS
10
12.1301
20
-8.37578
11
12.1302
21
-8.37649
0
LINE
8
BLACK
6
CONTINUOUS
10
12.1302
20
-8.37649
11
12.1302
21
-8.37649
0
LINE
8
BLACK
6
CONTINUOUS
10
12.1302
20
-8.37649
11
12.1304
21
-8.37719
0
LINE
8
BLACK
6
CONTINUOUS
10
12.1304
20
-8.37719
11
12.1306
21
-8.37788
0
LINE
8
BLACK
6
CONTINUOUS
10
12.1306
20
-8.37788
11
12.1308
21
-8.37856
0
LINE
8
BLACK
6
CONTINUOUS
10
12.1308
20
-8.37856
11
12.1311
21
-8.37923
0
LINE
8
BLACK
6
CONTINUOUS
10
12.1311
20
-8.37923
11
12.1311
21
-8.37923
0
LINE
8
BLACK
6
CONTINUOUS
10
12.1311
20
-8.37923
11
12.1314
21
-8.37988
0
LINE
8
BLACK
6
CONTINUOUS
10
12.1314
20
-8.37988
11
12.1318
21
-8.38051
0
LINE
8
BLACK
6
CONTINUOUS
10
12.1318
20
-8.38051
11
12.1318
21
-8.38051
0
LINE
8
BLACK
6
CONTINUOUS
10
12.1318
20
-8.38051
11
12.1321
21
-8.38113
0
LINE
8
BLACK
6
CONTINUOUS
10
12.1321
20
-8.38113
11
12.1321
21
-8.38113
0
LINE
8
BLACK
6
CONTINUOUS
10
12.1321
20
-8.38113
11
12.1326
21
-8.38172
0
LINE
8
BLACK
6
CONTINUOUS
10
12.1326
20
-8.38172
11
12.1326
21
-8.38172
0
LINE
8
BLACK
6
CONTINUOUS
10
12.1326
20
-8.38172
11
12.133
21
-8.38229
0
LINE
8
BLACK
6
CONTINUOUS
10
12.133
20
-8.38229
11
12.1335
21
-8.38284
0
LINE
8
BLACK
6
CONTINUOUS
10
12.1335
20
-8.38284
11
12.1335
21
-8.38284
0
LINE
8
BLACK
6
CONTINUOUS
10
12.1335
20
-8.38284
11
12.1335
21
-8.38284
0
LINE
8
BLACK
6
CONTINUOUS
10
12.1335
20
-8.38284
11
12.1335
21
-8.38284
0
LINE
8
BLACK
6
CONTINUOUS
10
12.1335
20
-8.38284
11
12.134
21
-8.38336
0
LINE
8
BLACK
6
CONTINUOUS
10
12.134
20
-8.38336
11
12.134
21
-8.38336
0
LINE
8
BLACK
6
CONTINUOUS
10
12.134
20
-8.38336
11
12.134
21
-8.38336
0
LINE
8
BLACK
6
CONTINUOUS
10
12.134
20
-8.38336
11
12.134
21
-8.38336
0
LINE
8
BLACK
6
CONTINUOUS
10
12.134
20
-8.38336
11
12.1345
21
-8.38386
0
LINE
8
BLACK
6
CONTINUOUS
10
12.1345
20
-8.38386
11
12.1345
21
-8.38386
0
LINE
8
BLACK
6
CONTINUOUS
10
12.1345
20
-8.38386
11
12.135
21
-8.38433
0
LINE
8
BLACK
6
CONTINUOUS
10
12.135
20
-8.38433
11
12.1356
21
-8.38477
0
LINE
8
BLACK
6
CONTINUOUS
10
12.1356
20
-8.38477
11
12.1362
21
-8.38518
0
LINE
8
BLACK
6
CONTINUOUS
10
12.1362
20
-8.38518
11
12.1362
21
-8.38518
0
LINE
8
BLACK
6
CONTINUOUS
10
12.1362
20
-8.38518
11
12.1368
21
-8.38555
0
LINE
8
BLACK
6
CONTINUOUS
10
12.1368
20
-8.38555
11
12.1374
21
-8.3859
0
LINE
8
BLACK
6
CONTINUOUS
10
12.1374
20
-8.3859
11
12.1374
21
-8.3859
0
LINE
8
BLACK
6
CONTINUOUS
10
12.1374
20
-8.3859
11
12.1381
21
-8.38621
0
LINE
8
BLACK
6
CONTINUOUS
10
12.1381
20
-8.38621
11
12.1381
21
-8.38621
0
LINE
8
BLACK
6
CONTINUOUS
10
12.1381
20
-8.38621
11
12.1381
21
-8.38621
0
LINE
8
BLACK
6
CONTINUOUS
10
12.1381
20
-8.38621
11
12.1381
21
-8.38621
0
LINE
8
BLACK
6
CONTINUOUS
10
12.1381
20
-8.38621
11
12.1388
21
-8.38648
0
LINE
8
BLACK
6
CONTINUOUS
10
12.1388
20
-8.38648
11
12.1388
21
-8.38648
0
LINE
8
BLACK
6
CONTINUOUS
10
12.1388
20
-8.38648
11
12.1394
21
-8.38673
0
LINE
8
BLACK
6
CONTINUOUS
10
12.1394
20
-8.38673
11
12.1401
21
-8.38693
0
LINE
8
BLACK
6
CONTINUOUS
10
12.1401
20
-8.38693
11
12.1401
21
-8.38693
0
LINE
8
BLACK
6
CONTINUOUS
10
12.1401
20
-8.38693
11
12.1408
21
-8.3871
0
LINE
8
BLACK
6
CONTINUOUS
10
12.1408
20
-8.3871
11
12.1415
21
-8.38723
0
LINE
8
BLACK
6
CONTINUOUS
10
12.1415
20
-8.38723
11
12.1415
21
-8.38723
0
LINE
8
BLACK
6
CONTINUOUS
10
12.1415
20
-8.38723
11
12.1423
21
-8.38732
0
LINE
8
BLACK
6
CONTINUOUS
10
12.1423
20
-8.38732
11
12.143
21
-8.38738
0
LINE
8
BLACK
6
CONTINUOUS
10
12.143
20
-8.38738
11
12.143
21
-8.38738
0
LINE
8
BLACK
6
CONTINUOUS
10
12.143
20
-8.38738
11
12.1437
21
-8.3874
0
LINE
8
BLACK
6
CONTINUOUS
10
12.1437
20
-8.3874
11
12.1444
21
-8.38738
0
LINE
8
BLACK
6
CONTINUOUS
10
12.1444
20
-8.38738
11
12.1451
21
-8.38732
0
LINE
8
BLACK
6
CONTINUOUS
10
12.1451
20
-8.38732
11
12.1451
21
-8.38732
0
LINE
8
BLACK
6
CONTINUOUS
10
12.1451
20
-8.38732
11
12.1459
21
-8.38723
0
LINE
8
BLACK
6
CONTINUOUS
10
12.1459
20
-8.38723
11
12.1459
21
-8.38723
0
LINE
8
BLACK
6
CONTINUOUS
10
12.1459
20
-8.38723
11
12.1466
21
-8.3871
0
LINE
8
BLACK
6
CONTINUOUS
10
12.1466
20
-8.3871
11
12.1466
21
-8.3871
0
LINE
8
BLACK
6
CONTINUOUS
10
12.1466
20
-8.3871
11
12.1473
21
-8.38693
0
LINE
8
BLACK
6
CONTINUOUS
10
12.1473
20
-8.38693
11
12.1473
21
-8.38693
0
LINE
8
BLACK
6
CONTINUOUS
10
12.1473
20
-8.38693
11
12.148
21
-8.38673
0
LINE
8
BLACK
6
CONTINUOUS
10
12.148
20
-8.38673
11
12.1486
21
-8.38648
0
LINE
8
BLACK
6
CONTINUOUS
10
12.1486
20
-8.38648
11
12.1493
21
-8.38621
0
LINE
8
BLACK
6
CONTINUOUS
10
12.1493
20
-8.38621
11
12.1493
21
-8.38621
0
LINE
8
BLACK
6
CONTINUOUS
10
12.1493
20
-8.38621
11
12.15
21
-8.3859
0
LINE
8
BLACK
6
CONTINUOUS
10
12.15
20
-8.3859
11
12.1506
21
-8.38555
0
LINE
8
BLACK
6
CONTINUOUS
10
12.1506
20
-8.38555
11
12.1512
21
-8.38518
0
LINE
8
BLACK
6
CONTINUOUS
10
12.1512
20
-8.38518
11
12.1512
21
-8.38518
0
LINE
8
BLACK
6
CONTINUOUS
10
12.1512
20
-8.38518
11
12.1518
21
-8.38477
0
LINE
8
BLACK
6
CONTINUOUS
10
12.1518
20
-8.38477
11
12.1518
21
-8.38477
0
LINE
8
BLACK
6
CONTINUOUS
10
12.1518
20
-8.38477
11
12.1524
21
-8.38433
0
LINE
8
BLACK
6
CONTINUOUS
10
12.1524
20
-8.38433
11
12.1529
21
-8.38386
0
LINE
8
BLACK
6
CONTINUOUS
10
12.1529
20
-8.38386
11
12.1529
21
-8.38386
0
LINE
8
BLACK
6
CONTINUOUS
10
12.1529
20
-8.38386
11
12.1529
21
-8.38386
0
LINE
8
BLACK
6
CONTINUOUS
10
12.1529
20
-8.38386
11
12.1534
21
-8.38336
0
LINE
8
BLACK
6
CONTINUOUS
10
12.1534
20
-8.38336
11
12.1534
21
-8.38336
0
LINE
8
BLACK
6
CONTINUOUS
10
12.1534
20
-8.38336
11
12.1534
21
-8.38336
0
LINE
8
BLACK
6
CONTINUOUS
10
12.1534
20
-8.38336
11
12.1539
21
-8.38284
0
LINE
8
BLACK
6
CONTINUOUS
10
12.1539
20
-8.38284
11
12.1539
21
-8.38284
0
LINE
8
BLACK
6
CONTINUOUS
10
12.1539
20
-8.38284
11
12.1544
21
-8.38229
0
LINE
8
BLACK
6
CONTINUOUS
10
12.1544
20
-8.38229
11
12.1548
21
-8.38172
0
LINE
8
BLACK
6
CONTINUOUS
10
12.1548
20
-8.38172
11
12.1553
21
-8.38113
0
LINE
8
BLACK
6
CONTINUOUS
10
12.1553
20
-8.38113
11
12.1553
21
-8.38113
0
LINE
8
BLACK
6
CONTINUOUS
10
12.1553
20
-8.38113
11
12.1556
21
-8.38051
0
LINE
8
BLACK
6
CONTINUOUS
10
12.1556
20
-8.38051
11
12.1556
21
-8.38051
0
LINE
8
BLACK
6
CONTINUOUS
10
12.1556
20
-8.38051
11
12.1556
21
-8.38051
0
LINE
8
BLACK
6
CONTINUOUS
10
12.1556
20
-8.38051
11
12.156
21
-8.37988
0
LINE
8
BLACK
6
CONTINUOUS
10
12.156
20
-8.37988
11
12.1563
21
-8.37923
0
LINE
8
BLACK
6
CONTINUOUS
10
12.1563
20
-8.37923
11
12.1563
21
-8.37923
0
LINE
8
BLACK
6
CONTINUOUS
10
12.1563
20
-8.37923
11
12.1563
21
-8.37923
0
LINE
8
BLACK
6
CONTINUOUS
10
12.1563
20
-8.37923
11
12.1566
21
-8.37856
0
LINE
8
BLACK
6
CONTINUOUS
10
12.1566
20
-8.37856
11
12.1566
21
-8.37856
0
LINE
8
BLACK
6
CONTINUOUS
10
12.1566
20
-8.37856
11
12.1568
21
-8.37788
0
LINE
8
BLACK
6
CONTINUOUS
10
12.1568
20
-8.37788
11
12.157
21
-8.37719
0
LINE
8
BLACK
6
CONTINUOUS
10
12.157
20
-8.37719
11
12.1572
21
-8.37649
0
LINE
8
BLACK
6
CONTINUOUS
10
12.1572
20
-8.37649
11
12.1572
21
-8.37649
0
LINE
8
BLACK
6
CONTINUOUS
10
12.1572
20
-8.37649
11
12.1573
21
-8.37578
0
LINE
8
BLACK
6
CONTINUOUS
10
12.1573
20
-8.37578
11
12.1573
21
-8.37578
0
LINE
8
BLACK
6
CONTINUOUS
10
12.1573
20
-8.37578
11
12.1574
21
-8.37506
0
LINE
8
BLACK
6
CONTINUOUS
10
12.1574
20
-8.37506
11
12.1575
21
-8.37434
0
LINE
8
BLACK
6
CONTINUOUS
10
12.1575
20
-8.37434
11
12.1575
21
-8.37434
0
LINE
8
BLACK
6
CONTINUOUS
10
12.1575
20
-8.37434
11
12.1575
21
-8.37362
0
LINE
8
BLACK
6
CONTINUOUS
10
12.1575
20
-8.37362
11
12.1575
21
-8.32638
0
LINE
8
BLACK
6
CONTINUOUS
10
12.1575
20
-8.32638
11
12.1575
21
-8.32566
0
LINE
8
BLACK
6
CONTINUOUS
10
12.1575
20
-8.32566
11
12.1575
21
-8.32566
0
LINE
8
BLACK
6
CONTINUOUS
10
12.1575
20
-8.32566
11
12.1574
21
-8.32494
0
LINE
8
BLACK
6
CONTINUOUS
10
12.1574
20
-8.32494
11
12.1573
21
-8.32422
0
LINE
8
BLACK
6
CONTINUOUS
10
12.1573
20
-8.32422
11
12.1573
21
-8.32422
0
LINE
8
BLACK
6
CONTINUOUS
10
12.1573
20
-8.32422
11
12.1572
21
-8.32351
0
LINE
8
BLACK
6
CONTINUOUS
10
12.1572
20
-8.32351
11
12.1572
21
-8.32351
0
LINE
8
BLACK
6
CONTINUOUS
10
12.1572
20
-8.32351
11
12.157
21
-8.32281
0
LINE
8
BLACK
6
CONTINUOUS
10
12.157
20
-8.32281
11
12.157
21
-8.32281
0
LINE
8
BLACK
6
CONTINUOUS
10
12.157
20
-8.32281
11
12.1568
21
-8.32212
0
LINE
8
BLACK
6
CONTINUOUS
10
12.1568
20
-8.32212
11
12.1568
21
-8.32212
0
LINE
8
BLACK
6
CONTINUOUS
10
12.1568
20
-8.32212
11
12.1566
21
-8.32144
0
LINE
8
BLACK
6
CONTINUOUS
10
12.1566
20
-8.32144
11
12.1566
21
-8.32144
0
LINE
8
BLACK
6
CONTINUOUS
10
12.1566
20
-8.32144
11
12.1563
21
-8.32077
0
LINE
8
BLACK
6
CONTINUOUS
10
12.1563
20
-8.32077
11
12.1563
21
-8.32077
0
LINE
8
BLACK
6
CONTINUOUS
10
12.1563
20
-8.32077
11
12.1563
21
-8.32077
0
LINE
8
BLACK
6
CONTINUOUS
10
12.1563
20
-8.32077
11
12.156
21
-8.32012
0
LINE
8
BLACK
6
CONTINUOUS
10
12.156
20
-8.32012
11
12.156
21
-8.32012
0
LINE
8
BLACK
6
CONTINUOUS
10
12.156
20
-8.32012
11
12.156
21
-8.32012
0
LINE
8
BLACK
6
CONTINUOUS
10
12.156
20
-8.32012
11
12.1556
21
-8.31949
0
LINE
8
BLACK
6
CONTINUOUS
10
12.1556
20
-8.31949
11
12.1553
21
-8.31887
0
LINE
8
BLACK
6
CONTINUOUS
10
12.1553
20
-8.31887
11
12.1553
21
-8.31887
0
LINE
8
BLACK
6
CONTINUOUS
10
12.1553
20
-8.31887
11
12.1548
21
-8.31828
0
LINE
8
BLACK
6
CONTINUOUS
10
12.1548
20
-8.31828
11
12.1548
21
-8.31828
0
LINE
8
BLACK
6
CONTINUOUS
10
12.1548
20
-8.31828
11
12.1544
21
-8.31771
0
LINE
8
BLACK
6
CONTINUOUS
10
12.1544
20
-8.31771
11
12.1539
21
-8.31716
0
LINE
8
BLACK
6
CONTINUOUS
10
12.1539
20
-8.31716
11
12.1539
21
-8.31716
0
LINE
8
BLACK
6
CONTINUOUS
10
12.1539
20
-8.31716
11
12.1534
21
-8.31664
0
LINE
8
BLACK
6
CONTINUOUS
10
12.1534
20
-8.31664
11
12.1534
21
-8.31664
0
LINE
8
BLACK
6
CONTINUOUS
10
12.1534
20
-8.31664
11
12.1534
21
-8.31664
0
LINE
8
BLACK
6
CONTINUOUS
10
12.1534
20
-8.31664
11
12.1529
21
-8.31614
0
LINE
8
BLACK
6
CONTINUOUS
10
12.1529
20
-8.31614
11
12.1529
21
-8.31614
0
LINE
8
BLACK
6
CONTINUOUS
10
12.1529
20
-8.31614
11
12.1529
21
-8.31614
0
LINE
8
BLACK
6
CONTINUOUS
10
12.1529
20
-8.31614
11
12.1524
21
-8.31567
0
LINE
8
BLACK
6
CONTINUOUS
10
12.1524
20
-8.31567
11
12.1518
21
-8.31523
0
LINE
8
BLACK
6
CONTINUOUS
10
12.1518
20
-8.31523
11
12.1518
21
-8.31523
0
LINE
8
BLACK
6
CONTINUOUS
10
12.1518
20
-8.31523
11
12.1518
21
-8.31523
0
LINE
8
BLACK
6
CONTINUOUS
10
12.1518
20
-8.31523
11
12.1512
21
-8.31482
0
LINE
8
BLACK
6
CONTINUOUS
10
12.1512
20
-8.31482
11
12.1512
21
-8.31482
0
LINE
8
BLACK
6
CONTINUOUS
10
12.1512
20
-8.31482
11
12.1512
21
-8.31482
0
LINE
8
BLACK
6
CONTINUOUS
10
12.1512
20
-8.31482
11
12.1506
21
-8.31445
0
LINE
8
BLACK
6
CONTINUOUS
10
12.1506
20
-8.31445
11
12.15
21
-8.3141
0
LINE
8
BLACK
6
CONTINUOUS
10
12.15
20
-8.3141
11
12.1493
21
-8.31379
0
LINE
8
BLACK
6
CONTINUOUS
10
12.1493
20
-8.31379
11
12.1493
21
-8.31379
0
LINE
8
BLACK
6
CONTINUOUS
10
12.1493
20
-8.31379
11
12.1486
21
-8.31352
0
LINE
8
BLACK
6
CONTINUOUS
10
12.1486
20
-8.31352
11
12.1486
21
-8.31352
0
LINE
8
BLACK
6
CONTINUOUS
10
12.1486
20
-8.31352
11
12.148
21
-8.31327
0
LINE
8
BLACK
6
CONTINUOUS
10
12.148
20
-8.31327
11
12.148
21
-8.31327
0
LINE
8
BLACK
6
CONTINUOUS
10
12.148
20
-8.31327
11
12.1473
21
-8.31307
0
LINE
8
BLACK
6
CONTINUOUS
10
12.1473
20
-8.31307
11
12.1473
21
-8.31307
0
LINE
8
BLACK
6
CONTINUOUS
10
12.1473
20
-8.31307
11
12.1466
21
-8.3129
0
LINE
8
BLACK
6
CONTINUOUS
10
12.1466
20
-8.3129
11
12.1466
21
-8.3129
0
LINE
8
BLACK
6
CONTINUOUS
10
12.1466
20
-8.3129
11
12.1459
21
-8.31277
0
LINE
8
BLACK
6
CONTINUOUS
10
12.1459
20
-8.31277
11
12.1459
21
-8.31277
0
LINE
8
BLACK
6
CONTINUOUS
10
12.1459
20
-8.31277
11
12.1451
21
-8.31268
0
LINE
8
BLACK
6
CONTINUOUS
10
12.1451
20
-8.31268
11
12.1444
21
-8.31262
0
LINE
8
BLACK
6
CONTINUOUS
10
12.1444
20
-8.31262
11
12.1444
21
-8.31262
0
LINE
8
BLACK
6
CONTINUOUS
10
12.1444
20
-8.31262
11
12.1437
21
-8.3126
0
LINE
8
BLACK
6
CONTINUOUS
10
12.1437
20
-8.3126
11
12.143
21
-8.31262
0
LINE
8
BLACK
6
CONTINUOUS
10
12.143
20
-8.31262
11
12.1423
21
-8.31268
0
LINE
8
BLACK
6
CONTINUOUS
10
12.1423
20
-8.31268
11
12.1423
21
-8.31268
0
LINE
8
BLACK
6
CONTINUOUS
10
12.1423
20
-8.31268
11
12.1415
21
-8.31277
0
LINE
8
BLACK
6
CONTINUOUS
10
12.1415
20
-8.31277
11
12.1415
21
-8.31277
0
LINE
8
BLACK
6
CONTINUOUS
10
12.1415
20
-8.31277
11
12.1408
21
-8.3129
0
LINE
8
BLACK
6
CONTINUOUS
10
12.1408
20
-8.3129
11
12.1408
21
-8.3129
0
LINE
8
BLACK
6
CONTINUOUS
10
12.1408
20
-8.3129
11
12.1401
21
-8.31307
0
LINE
8
BLACK
6
CONTINUOUS
10
12.1401
20
-8.31307
11
12.1394
21
-8.31327
0
LINE
8
BLACK
6
CONTINUOUS
10
12.1394
20
-8.31327
11
12.1388
21
-8.31352
0
LINE
8
BLACK
6
CONTINUOUS
10
12.1388
20
-8.31352
11
12.1381
21
-8.31379
0
LINE
8
BLACK
6
CONTINUOUS
10
12.1381
20
-8.31379
11
12.1381
21
-8.31379
0
LINE
8
BLACK
6
CONTINUOUS
10
12.1381
20
-8.31379
11
12.1381
21
-8.31379
0
LINE
8
BLACK
6
CONTINUOUS
10
12.1381
20
-8.31379
11
12.1374
21
-8.3141
0
LINE
8
BLACK
6
CONTINUOUS
10
12.1374
20
-8.3141
11
12.1374
21
-8.3141
0
LINE
8
BLACK
6
CONTINUOUS
10
12.1374
20
-8.3141
11
12.1374
21
-8.3141
0
LINE
8
BLACK
6
CONTINUOUS
10
12.1374
20
-8.3141
11
12.1368
21
-8.31445
0
LINE
8
BLACK
6
CONTINUOUS
10
12.1368
20
-8.31445
11
12.1362
21
-8.31482
0
LINE
8
BLACK
6
CONTINUOUS
10
12.1362
20
-8.31482
11
12.1362
21
-8.31482
0
LINE
8
BLACK
6
CONTINUOUS
10
12.1362
20
-8.31482
11
12.1356
21
-8.31523
0
LINE
8
BLACK
6
CONTINUOUS
10
12.1356
20
-8.31523
11
12.1356
21
-8.31523
0
LINE
8
BLACK
6
CONTINUOUS
10
12.1356
20
-8.31523
11
12.135
21
-8.31567
0
LINE
8
BLACK
6
CONTINUOUS
10
12.135
20
-8.31567
11
12.135
21
-8.31567
0
LINE
8
BLACK
6
CONTINUOUS
10
12.135
20
-8.31567
11
12.1345
21
-8.31614
0
LINE
8
BLACK
6
CONTINUOUS
10
12.1345
20
-8.31614
11
12.1345
21
-8.31614
0
LINE
8
BLACK
6
CONTINUOUS
10
12.1345
20
-8.31614
11
12.134
21
-8.31664
0
LINE
8
BLACK
6
CONTINUOUS
10
12.134
20
-8.31664
11
12.134
21
-8.31664
0
LINE
8
BLACK
6
CONTINUOUS
10
12.134
20
-8.31664
11
12.134
21
-8.31664
0
LINE
8
BLACK
6
CONTINUOUS
10
12.134
20
-8.31664
11
12.1335
21
-8.31716
0
LINE
8
BLACK
6
CONTINUOUS
10
12.1335
20
-8.31716
11
12.1335
21
-8.31716
0
LINE
8
BLACK
6
CONTINUOUS
10
12.1335
20
-8.31716
11
12.1335
21
-8.31716
0
LINE
8
BLACK
6
CONTINUOUS
10
12.1335
20
-8.31716
11
12.133
21
-8.31771
0
LINE
8
BLACK
6
CONTINUOUS
10
12.133
20
-8.31771
11
12.133
21
-8.31771
0
LINE
8
BLACK
6
CONTINUOUS
10
12.133
20
-8.31771
11
12.1326
21
-8.31828
0
LINE
8
BLACK
6
CONTINUOUS
10
12.1326
20
-8.31828
11
12.1321
21
-8.31887
0
LINE
8
BLACK
6
CONTINUOUS
10
12.1321
20
-8.31887
11
12.1321
21
-8.31887
0
LINE
8
BLACK
6
CONTINUOUS
10
12.1321
20
-8.31887
11
12.1318
21
-8.31949
0
LINE
8
BLACK
6
CONTINUOUS
10
12.1318
20
-8.31949
11
12.1314
21
-8.32012
0
LINE
8
BLACK
6
CONTINUOUS
10
12.1314
20
-8.32012
11
12.1311
21
-8.32077
0
LINE
8
BLACK
6
CONTINUOUS
10
12.1311
20
-8.32077
11
12.1308
21
-8.32144
0
LINE
8
BLACK
6
CONTINUOUS
10
12.1308
20
-8.32144
11
12.1308
21
-8.32144
0
LINE
8
BLACK
6
CONTINUOUS
10
12.1308
20
-8.32144
11
12.1306
21
-8.32212
0
LINE
8
BLACK
6
CONTINUOUS
10
12.1306
20
-8.32212
11
12.1306
21
-8.32212
0
LINE
8
BLACK
6
CONTINUOUS
10
12.1306
20
-8.32212
11
12.1304
21
-8.32281
0
LINE
8
BLACK
6
CONTINUOUS
10
12.1304
20
-8.32281
11
12.1304
21
-8.32281
0
LINE
8
BLACK
6
CONTINUOUS
10
12.1304
20
-8.32281
11
12.1302
21
-8.32351
0
LINE
8
BLACK
6
CONTINUOUS
10
12.1302
20
-8.32351
11
12.1302
21
-8.32351
0
LINE
8
BLACK
6
CONTINUOUS
10
12.1302
20
-8.32351
11
12.1301
21
-8.32422
0
LINE
8
BLACK
6
CONTINUOUS
10
12.1301
20
-8.32422
11
12.1301
21
-8.32422
0
LINE
8
BLACK
6
CONTINUOUS
10
12.1301
20
-8.32422
11
12.13
21
-8.32494
0
LINE
8
BLACK
6
CONTINUOUS
10
12.13
20
-8.32494
11
12.1299
21
-8.32566
0
LINE
8
BLACK
6
CONTINUOUS
10
12.1299
20
-8.32566
11
12.1299
21
-8.32566
0
LINE
8
BLACK
6
CONTINUOUS
10
12.1299
20
-8.32566
11
12.1299
21
-8.32638
0
LINE
8
BLACK
6
CONTINUOUS
10
12.1299
20
-8.32638
11
12.1299
21
-8.37362
0
LINE
8
BLACK
6
CONTINUOUS
10
12.1299
20
-8.37362
11
12.1299
21
-8.37434
0
LINE
8
BLACK
6
CONTINUOUS
10
11.88
20
-8.30271
11
11.88
21
-8.30271
0
LINE
8
BLACK
6
CONTINUOUS
10
11.88
20
-8.30271
11
11.88
21
-8.30271
0
LINE
8
BLACK
6
CONTINUOUS
10
11.88
20
-8.30271
11
11.8812
21
-8.30398
0
LINE
8
BLACK
6
CONTINUOUS
10
11.8812
20
-8.30398
11
11.8812
21
-8.30398
0
LINE
8
BLACK
6
CONTINUOUS
10
11.8812
20
-8.30398
11
11.8812
21
-8.30398
0
LINE
8
BLACK
6
CONTINUOUS
10
11.8812
20
-8.30398
11
11.8812
21
-8.30398
0
LINE
8
BLACK
6
CONTINUOUS
10
11.8812
20
-8.30398
11
11.8812
21
-8.30398
0
LINE
8
BLACK
6
CONTINUOUS
10
11.8812
20
-8.30398
11
11.8823
21
-8.30532
0
LINE
8
BLACK
6
CONTINUOUS
10
11.8823
20
-8.30532
11
11.8823
21
-8.30532
0
LINE
8
BLACK
6
CONTINUOUS
10
11.8823
20
-8.30532
11
11.8823
21
-8.30532
0
LINE
8
BLACK
6
CONTINUOUS
10
11.8823
20
-8.30532
11
11.8834
21
-8.30671
0
LINE
8
BLACK
6
CONTINUOUS
10
11.8834
20
-8.30671
11
11.8834
21
-8.30671
0
LINE
8
BLACK
6
CONTINUOUS
10
11.8834
20
-8.30671
11
11.8834
21
-8.30671
0
LINE
8
BLACK
6
CONTINUOUS
10
11.8834
20
-8.30671
11
11.8844
21
-8.30815
0
LINE
8
BLACK
6
CONTINUOUS
10
11.8844
20
-8.30815
11
11.8844
21
-8.30815
0
LINE
8
BLACK
6
CONTINUOUS
10
11.8844
20
-8.30815
11
11.8853
21
-8.30964
0
LINE
8
BLACK
6
CONTINUOUS
10
11.8853
20
-8.30964
11
11.8853
21
-8.30964
0
LINE
8
BLACK
6
CONTINUOUS
10
11.8853
20
-8.30964
11
11.8853
21
-8.30964
0
LINE
8
BLACK
6
CONTINUOUS
10
11.8853
20
-8.30964
11
11.8861
21
-8.31118
0
LINE
8
BLACK
6
CONTINUOUS
10
11.8861
20
-8.31118
11
11.8861
21
-8.31118
0
LINE
8
BLACK
6
CONTINUOUS
10
11.8861
20
-8.31118
11
11.8861
21
-8.31118
0
LINE
8
BLACK
6
CONTINUOUS
10
11.8861
20
-8.31118
11
11.8869
21
-8.31277
0
LINE
8
BLACK
6
CONTINUOUS
10
11.8869
20
-8.31277
11
11.8869
21
-8.31277
0
LINE
8
BLACK
6
CONTINUOUS
10
11.8869
20
-8.31277
11
11.8869
21
-8.31277
0
LINE
8
BLACK
6
CONTINUOUS
10
11.8869
20
-8.31277
11
11.8875
21
-8.31438
0
LINE
8
BLACK
6
CONTINUOUS
10
11.8875
20
-8.31438
11
11.8875
21
-8.31438
0
LINE
8
BLACK
6
CONTINUOUS
10
11.8875
20
-8.31438
11
11.8881
21
-8.31604
0
LINE
8
BLACK
6
CONTINUOUS
10
11.8881
20
-8.31604
11
11.8881
21
-8.31604
0
LINE
8
BLACK
6
CONTINUOUS
10
11.8881
20
-8.31604
11
11.8886
21
-8.31772
0
LINE
8
BLACK
6
CONTINUOUS
10
11.8886
20
-8.31772
11
11.8886
21
-8.31772
0
LINE
8
BLACK
6
CONTINUOUS
10
11.8886
20
-8.31772
11
11.889
21
-8.31942
0
LINE
8
BLACK
6
CONTINUOUS
10
11.889
20
-8.31942
11
11.889
21
-8.31942
0
LINE
8
BLACK
6
CONTINUOUS
10
11.889
20
-8.31942
11
11.8894
21
-8.32114
0
LINE
8
BLACK
6
CONTINUOUS
10
11.8894
20
-8.32114
11
11.8894
21
-8.32114
0
LINE
8
BLACK
6
CONTINUOUS
10
11.8894
20
-8.32114
11
11.8896
21
-8.32288
0
LINE
8
BLACK
6
CONTINUOUS
10
11.8896
20
-8.32288
11
11.8896
21
-8.32288
0
LINE
8
BLACK
6
CONTINUOUS
10
11.8896
20
-8.32288
11
11.8897
21
-8.32463
0
LINE
8
BLACK
6
CONTINUOUS
10
11.8897
20
-8.32463
11
11.8897
21
-8.32463
0
LINE
8
BLACK
6
CONTINUOUS
10
11.8897
20
-8.32463
11
11.8898
21
-8.32638
0
LINE
8
BLACK
6
CONTINUOUS
10
11.8898
20
-8.32638
11
11.8898
21
-8.37362
0
LINE
8
BLACK
6
CONTINUOUS
10
11.8898
20
-8.37362
11
11.8897
21
-8.37537
0
LINE
8
BLACK
6
CONTINUOUS
10
11.8897
20
-8.37537
11
11.8897
21
-8.37537
0
LINE
8
BLACK
6
CONTINUOUS
10
11.8897
20
-8.37537
11
11.8896
21
-8.37712
0
LINE
8
BLACK
6
CONTINUOUS
10
11.8896
20
-8.37712
11
11.8896
21
-8.37712
0
LINE
8
BLACK
6
CONTINUOUS
10
11.8896
20
-8.37712
11
11.8894
21
-8.37886
0
LINE
8
BLACK
6
CONTINUOUS
10
11.8894
20
-8.37886
11
11.8894
21
-8.37886
0
LINE
8
BLACK
6
CONTINUOUS
10
11.8894
20
-8.37886
11
11.8894
21
-8.37886
0
LINE
8
BLACK
6
CONTINUOUS
10
11.8894
20
-8.37886
11
11.889
21
-8.38058
0
LINE
8
BLACK
6
CONTINUOUS
10
11.889
20
-8.38058
11
11.889
21
-8.38058
0
LINE
8
BLACK
6
CONTINUOUS
10
11.889
20
-8.38058
11
11.889
21
-8.38058
0
LINE
8
BLACK
6
CONTINUOUS
10
11.889
20
-8.38058
11
11.8886
21
-8.38228
0
LINE
8
BLACK
6
CONTINUOUS
10
11.8886
20
-8.38228
11
11.8886
21
-8.38228
0
LINE
8
BLACK
6
CONTINUOUS
10
11.8886
20
-8.38228
11
11.8886
21
-8.38228
0
LINE
8
BLACK
6
CONTINUOUS
10
11.8886
20
-8.38228
11
11.8881
21
-8.38396
0
LINE
8
BLACK
6
CONTINUOUS
10
11.8881
20
-8.38396
11
11.8881
21
-8.38396
0
LINE
8
BLACK
6
CONTINUOUS
10
11.8881
20
-8.38396
11
11.8881
21
-8.38396
0
LINE
8
BLACK
6
CONTINUOUS
10
11.8881
20
-8.38396
11
11.8875
21
-8.38562
0
LINE
8
BLACK
6
CONTINUOUS
10
11.8875
20
-8.38562
11
11.8875
21
-8.38562
0
LINE
8
BLACK
6
CONTINUOUS
10
11.8875
20
-8.38562
11
11.8875
21
-8.38562
0
LINE
8
BLACK
6
CONTINUOUS
10
11.8875
20
-8.38562
11
11.8869
21
-8.38723
0
LINE
8
BLACK
6
CONTINUOUS
10
11.8869
20
-8.38723
11
11.8869
21
-8.38723
0
LINE
8
BLACK
6
CONTINUOUS
10
11.8869
20
-8.38723
11
11.8869
21
-8.38723
0
LINE
8
BLACK
6
CONTINUOUS
10
11.8869
20
-8.38723
11
11.8861
21
-8.38882
0
LINE
8
BLACK
6
CONTINUOUS
10
11.8861
20
-8.38882
11
11.8861
21
-8.38882
0
LINE
8
BLACK
6
CONTINUOUS
10
11.8861
20
-8.38882
11
11.8853
21
-8.39036
0
LINE
8
BLACK
6
CONTINUOUS
10
11.8853
20
-8.39036
11
11.8853
21
-8.39036
0
LINE
8
BLACK
6
CONTINUOUS
10
11.8853
20
-8.39036
11
11.8844
21
-8.39185
0
LINE
8
BLACK
6
CONTINUOUS
10
11.8844
20
-8.39185
11
11.8844
21
-8.39185
0
LINE
8
BLACK
6
CONTINUOUS
10
11.8844
20
-8.39185
11
11.8844
21
-8.39185
0
LINE
8
BLACK
6
CONTINUOUS
10
11.8844
20
-8.39185
11
11.8834
21
-8.39329
0
LINE
8
BLACK
6
CONTINUOUS
10
11.8834
20
-8.39329
11
11.8834
21
-8.39329
0
LINE
8
BLACK
6
CONTINUOUS
10
11.8834
20
-8.39329
11
11.8823
21
-8.39468
0
LINE
8
BLACK
6
CONTINUOUS
10
11.8823
20
-8.39468
11
11.8823
21
-8.39468
0
LINE
8
BLACK
6
CONTINUOUS
10
11.8823
20
-8.39468
11
11.8812
21
-8.39602
0
LINE
8
BLACK
6
CONTINUOUS
10
11.8812
20
-8.39602
11
11.8812
21
-8.39602
0
LINE
8
BLACK
6
CONTINUOUS
10
11.8812
20
-8.39602
11
11.88
21
-8.39729
0
LINE
8
BLACK
6
CONTINUOUS
10
11.88
20
-8.39729
11
11.88
21
-8.39729
0
LINE
8
BLACK
6
CONTINUOUS
10
11.88
20
-8.39729
11
11.8787
21
-8.39849
0
LINE
8
BLACK
6
CONTINUOUS
10
11.8787
20
-8.39849
11
11.8787
21
-8.39849
0
LINE
8
BLACK
6
CONTINUOUS
10
11.8787
20
-8.39849
11
11.8787
21
-8.39849
0
LINE
8
BLACK
6
CONTINUOUS
10
11.8787
20
-8.39849
11
11.8774
21
-8.39963
0
LINE
8
BLACK
6
CONTINUOUS
10
11.8774
20
-8.39963
11
11.8774
21
-8.39963
0
LINE
8
BLACK
6
CONTINUOUS
10
11.8774
20
-8.39963
11
11.8774
21
-8.39963
0
LINE
8
BLACK
6
CONTINUOUS
10
11.8774
20
-8.39963
11
11.876
21
-8.4007
0
LINE
8
BLACK
6
CONTINUOUS
10
11.876
20
-8.4007
11
11.876
21
-8.4007
0
LINE
8
BLACK
6
CONTINUOUS
10
11.876
20
-8.4007
11
11.8745
21
-8.40169
0
LINE
8
BLACK
6
CONTINUOUS
10
11.8745
20
-8.40169
11
11.8745
21
-8.40169
0
LINE
8
BLACK
6
CONTINUOUS
10
11.8745
20
-8.40169
11
11.873
21
-8.4026
0
LINE
8
BLACK
6
CONTINUOUS
10
11.873
20
-8.4026
11
11.873
21
-8.4026
0
LINE
8
BLACK
6
CONTINUOUS
10
11.873
20
-8.4026
11
11.873
21
-8.4026
0
LINE
8
BLACK
6
CONTINUOUS
10
11.873
20
-8.4026
11
11.8715
21
-8.40344
0
LINE
8
BLACK
6
CONTINUOUS
10
11.8715
20
-8.40344
11
11.8715
21
-8.40344
0
LINE
8
BLACK
6
CONTINUOUS
10
11.8715
20
-8.40344
11
11.8699
21
-8.4042
0
LINE
8
BLACK
6
CONTINUOUS
10
11.8699
20
-8.4042
11
11.8699
21
-8.4042
0
LINE
8
BLACK
6
CONTINUOUS
10
11.8699
20
-8.4042
11
11.8699
21
-8.4042
0
LINE
8
BLACK
6
CONTINUOUS
10
11.8699
20
-8.4042
11
11.8683
21
-8.40487
0
LINE
8
BLACK
6
CONTINUOUS
10
11.8683
20
-8.40487
11
11.8683
21
-8.40487
0
LINE
8
BLACK
6
CONTINUOUS
10
11.8683
20
-8.40487
11
11.8683
21
-8.40487
0
LINE
8
BLACK
6
CONTINUOUS
10
11.8683
20
-8.40487
11
11.8666
21
-8.40545
0
LINE
8
BLACK
6
CONTINUOUS
10
11.8666
20
-8.40545
11
11.8666
21
-8.40545
0
LINE
8
BLACK
6
CONTINUOUS
10
11.8666
20
-8.40545
11
11.865
21
-8.40595
0
LINE
8
BLACK
6
CONTINUOUS
10
11.865
20
-8.40595
11
11.865
21
-8.40595
0
LINE
8
BLACK
6
CONTINUOUS
10
11.865
20
-8.40595
11
11.8633
21
-8.40636
0
LINE
8
BLACK
6
CONTINUOUS
10
11.8633
20
-8.40636
11
11.8633
21
-8.40636
0
LINE
8
BLACK
6
CONTINUOUS
10
11.8633
20
-8.40636
11
11.8633
21
-8.40636
0
LINE
8
BLACK
6
CONTINUOUS
10
11.8633
20
-8.40636
11
11.8615
21
-8.40668
0
LINE
8
BLACK
6
CONTINUOUS
10
11.8615
20
-8.40668
11
11.8615
21
-8.40668
0
LINE
8
BLACK
6
CONTINUOUS
10
11.8615
20
-8.40668
11
11.8598
21
-8.40691
0
LINE
8
BLACK
6
CONTINUOUS
10
11.8598
20
-8.40691
11
11.8598
21
-8.40691
0
LINE
8
BLACK
6
CONTINUOUS
10
11.8598
20
-8.40691
11
11.8581
21
-8.40704
0
LINE
8
BLACK
6
CONTINUOUS
10
11.8581
20
-8.40704
11
11.8581
21
-8.40704
0
LINE
8
BLACK
6
CONTINUOUS
10
11.8581
20
-8.40704
11
11.8563
21
-8.40709
0
LINE
8
BLACK
6
CONTINUOUS
10
11.8563
20
-8.40709
11
11.8563
21
-8.40709
0
LINE
8
BLACK
6
CONTINUOUS
10
11.8563
20
-8.40709
11
11.8545
21
-8.40704
0
LINE
8
BLACK
6
CONTINUOUS
10
11.8545
20
-8.40704
11
11.8545
21
-8.40704
0
LINE
8
BLACK
6
CONTINUOUS
10
11.8545
20
-8.40704
11
11.8528
21
-8.40691
0
LINE
8
BLACK
6
CONTINUOUS
10
11.8528
20
-8.40691
11
11.8528
21
-8.40691
0
LINE
8
BLACK
6
CONTINUOUS
10
11.8528
20
-8.40691
11
11.8511
21
-8.40668
0
LINE
8
BLACK
6
CONTINUOUS
10
11.8511
20
-8.40668
11
11.8511
21
-8.40668
0
LINE
8
BLACK
6
CONTINUOUS
10
11.8511
20
-8.40668
11
11.8511
21
-8.40668
0
LINE
8
BLACK
6
CONTINUOUS
10
11.8511
20
-8.40668
11
11.8493
21
-8.40636
0
LINE
8
BLACK
6
CONTINUOUS
10
11.8493
20
-8.40636
11
11.8493
21
-8.40636
0
LINE
8
BLACK
6
CONTINUOUS
10
11.8493
20
-8.40636
11
11.8476
21
-8.40595
0
LINE
8
BLACK
6
CONTINUOUS
10
11.8476
20
-8.40595
11
11.8476
21
-8.40595
0
LINE
8
BLACK
6
CONTINUOUS
10
11.8476
20
-8.40595
11
11.8476
21
-8.40595
0
LINE
8
BLACK
6
CONTINUOUS
10
11.8476
20
-8.40595
11
11.846
21
-8.40545
0
LINE
8
BLACK
6
CONTINUOUS
10
11.846
20
-8.40545
11
11.846
21
-8.40545
0
LINE
8
BLACK
6
CONTINUOUS
10
11.846
20
-8.40545
11
11.846
21
-8.40545
0
LINE
8
BLACK
6
CONTINUOUS
10
11.846
20
-8.40545
11
11.8443
21
-8.40487
0
LINE
8
BLACK
6
CONTINUOUS
10
11.8443
20
-8.40487
11
11.8443
21
-8.40487
0
LINE
8
BLACK
6
CONTINUOUS
10
11.8443
20
-8.40487
11
11.8443
21
-8.40487
0
LINE
8
BLACK
6
CONTINUOUS
10
11.8443
20
-8.40487
11
11.8427
21
-8.4042
0
LINE
8
BLACK
6
CONTINUOUS
10
11.8427
20
-8.4042
11
11.8427
21
-8.4042
0
LINE
8
BLACK
6
CONTINUOUS
10
11.8427
20
-8.4042
11
11.8427
21
-8.4042
0
LINE
8
BLACK
6
CONTINUOUS
10
11.8427
20
-8.4042
11
11.8411
21
-8.40344
0
LINE
8
BLACK
6
CONTINUOUS
10
11.8411
20
-8.40344
11
11.8411
21
-8.40344
0
LINE
8
BLACK
6
CONTINUOUS
10
11.8411
20
-8.40344
11
11.8396
21
-8.4026
0
LINE
8
BLACK
6
CONTINUOUS
10
11.8396
20
-8.4026
11
11.8396
21
-8.4026
0
LINE
8
BLACK
6
CONTINUOUS
10
11.8396
20
-8.4026
11
11.8381
21
-8.40169
0
LINE
8
BLACK
6
CONTINUOUS
10
11.8381
20
-8.40169
11
11.8381
21
-8.40169
0
LINE
8
BLACK
6
CONTINUOUS
10
11.8381
20
-8.40169
11
11.8381
21
-8.40169
0
LINE
8
BLACK
6
CONTINUOUS
10
11.8381
20
-8.40169
11
11.8381
21
-8.40169
0
LINE
8
BLACK
6
CONTINUOUS
10
11.8381
20
-8.40169
11
11.8366
21
-8.4007
0
LINE
8
BLACK
6
CONTINUOUS
10
11.8366
20
-8.4007
11
11.8366
21
-8.4007
0
LINE
8
BLACK
6
CONTINUOUS
10
11.8366
20
-8.4007
11
11.8366
21
-8.4007
0
LINE
8
BLACK
6
CONTINUOUS
10
11.8366
20
-8.4007
11
11.8352
21
-8.39963
0
LINE
8
BLACK
6
CONTINUOUS
10
11.8352
20
-8.39963
11
11.8352
21
-8.39963
0
LINE
8
BLACK
6
CONTINUOUS
10
11.8352
20
-8.39963
11
11.8339
21
-8.39849
0
LINE
8
BLACK
6
CONTINUOUS
10
11.8339
20
-8.39849
11
11.8339
21
-8.39849
0
LINE
8
BLACK
6
CONTINUOUS
10
11.8339
20
-8.39849
11
11.8326
21
-8.39729
0
LINE
8
BLACK
6
CONTINUOUS
10
11.8326
20
-8.39729
11
11.8326
21
-8.39729
0
LINE
8
BLACK
6
CONTINUOUS
10
11.8326
20
-8.39729
11
11.8326
21
-8.39729
0
LINE
8
BLACK
6
CONTINUOUS
10
11.8326
20
-8.39729
11
11.8314
21
-8.39602
0
LINE
8
BLACK
6
CONTINUOUS
10
11.8314
20
-8.39602
11
11.8314
21
-8.39602
0
LINE
8
BLACK
6
CONTINUOUS
10
11.8314
20
-8.39602
11
11.8314
21
-8.39602
0
LINE
8
BLACK
6
CONTINUOUS
10
11.8314
20
-8.39602
11
11.8303
21
-8.39468
0
LINE
8
BLACK
6
CONTINUOUS
10
11.8303
20
-8.39468
11
11.8303
21
-8.39468
0
LINE
8
BLACK
6
CONTINUOUS
10
11.8303
20
-8.39468
11
11.8303
21
-8.39468
0
LINE
8
BLACK
6
CONTINUOUS
10
11.8303
20
-8.39468
11
11.8292
21
-8.39329
0
LINE
8
BLACK
6
CONTINUOUS
10
11.8292
20
-8.39329
11
11.8292
21
-8.39329
0
LINE
8
BLACK
6
CONTINUOUS
10
11.8292
20
-8.39329
11
11.8282
21
-8.39185
0
LINE
8
BLACK
6
CONTINUOUS
10
11.8282
20
-8.39185
11
11.8282
21
-8.39185
0
LINE
8
BLACK
6
CONTINUOUS
10
11.8282
20
-8.39185
11
11.8282
21
-8.39185
0
LINE
8
BLACK
6
CONTINUOUS
10
11.8282
20
-8.39185
11
11.8273
21
-8.39036
0
LINE
8
BLACK
6
CONTINUOUS
10
11.8273
20
-8.39036
11
11.8273
21
-8.39036
0
LINE
8
BLACK
6
CONTINUOUS
10
11.8273
20
-8.39036
11
11.8273
21
-8.39036
0
LINE
8
BLACK
6
CONTINUOUS
10
11.8273
20
-8.39036
11
11.8265
21
-8.38882
0
LINE
8
BLACK
6
CONTINUOUS
10
11.8265
20
-8.38882
11
11.8265
21
-8.38882
0
LINE
8
BLACK
6
CONTINUOUS
10
11.8265
20
-8.38882
11
11.8265
21
-8.38882
0
LINE
8
BLACK
6
CONTINUOUS
10
11.8265
20
-8.38882
11
11.8257
21
-8.38723
0
LINE
8
BLACK
6
CONTINUOUS
10
11.8257
20
-8.38723
11
11.8257
21
-8.38723
0
LINE
8
BLACK
6
CONTINUOUS
10
11.8257
20
-8.38723
11
11.8257
21
-8.38723
0
LINE
8
BLACK
6
CONTINUOUS
10
11.8257
20
-8.38723
11
11.8257
21
-8.38723
0
LINE
8
BLACK
6
CONTINUOUS
10
11.8257
20
-8.38723
11
11.8251
21
-8.38562
0
LINE
8
BLACK
6
CONTINUOUS
10
11.8251
20
-8.38562
11
11.8251
21
-8.38562
0
LINE
8
BLACK
6
CONTINUOUS
10
11.8251
20
-8.38562
11
11.8251
21
-8.38562
0
LINE
8
BLACK
6
CONTINUOUS
10
11.8251
20
-8.38562
11
11.8245
21
-8.38396
0
LINE
8
BLACK
6
CONTINUOUS
10
11.8245
20
-8.38396
11
11.8245
21
-8.38396
0
LINE
8
BLACK
6
CONTINUOUS
10
11.8245
20
-8.38396
11
11.824
21
-8.38228
0
LINE
8
BLACK
6
CONTINUOUS
10
11.824
20
-8.38228
11
11.824
21
-8.38228
0
LINE
8
BLACK
6
CONTINUOUS
10
11.824
20
-8.38228
11
11.824
21
-8.38228
0
LINE
8
BLACK
6
CONTINUOUS
10
11.824
20
-8.38228
11
11.8236
21
-8.38058
0
LINE
8
BLACK
6
CONTINUOUS
10
11.8236
20
-8.38058
11
11.8236
21
-8.38058
0
LINE
8
BLACK
6
CONTINUOUS
10
11.8236
20
-8.38058
11
11.8236
21
-8.38058
0
LINE
8
BLACK
6
CONTINUOUS
10
11.8236
20
-8.38058
11
11.8236
21
-8.38058
0
LINE
8
BLACK
6
CONTINUOUS
10
11.8236
20
-8.38058
11
11.8232
21
-8.37886
0
LINE
8
BLACK
6
CONTINUOUS
10
11.8232
20
-8.37886
11
11.8232
21
-8.37886
0
LINE
8
BLACK
6
CONTINUOUS
10
11.8232
20
-8.37886
11
11.823
21
-8.37712
0
LINE
8
BLACK
6
CONTINUOUS
10
11.823
20
-8.37712
11
11.823
21
-8.37712
0
LINE
8
BLACK
6
CONTINUOUS
10
11.823
20
-8.37712
11
11.8229
21
-8.37537
0
LINE
8
BLACK
6
CONTINUOUS
10
11.8229
20
-8.37537
11
11.8229
21
-8.37537
0
LINE
8
BLACK
6
CONTINUOUS
10
11.8229
20
-8.37537
11
11.8228
21
-8.37362
0
LINE
8
BLACK
6
CONTINUOUS
10
11.8228
20
-8.37362
11
11.8228
21
-8.32638
0
LINE
8
BLACK
6
CONTINUOUS
10
11.8228
20
-8.32638
11
11.8229
21
-8.32463
0
LINE
8
BLACK
6
CONTINUOUS
10
11.8229
20
-8.32463
11
11.8229
21
-8.32463
0
LINE
8
BLACK
6
CONTINUOUS
10
11.8229
20
-8.32463
11
11.823
21
-8.32288
0
LINE
8
BLACK
6
CONTINUOUS
10
11.823
20
-8.32288
11
11.823
21
-8.32288
0
LINE
8
BLACK
6
CONTINUOUS
10
11.823
20
-8.32288
11
11.8232
21
-8.32114
0
LINE
8
BLACK
6
CONTINUOUS
10
11.8232
20
-8.32114
11
11.8232
21
-8.32114
0
LINE
8
BLACK
6
CONTINUOUS
10
11.8232
20
-8.32114
11
11.8232
21
-8.32114
0
LINE
8
BLACK
6
CONTINUOUS
10
11.8232
20
-8.32114
11
11.8236
21
-8.31942
0
LINE
8
BLACK
6
CONTINUOUS
10
11.8236
20
-8.31942
11
11.8236
21
-8.31942
0
LINE
8
BLACK
6
CONTINUOUS
10
11.8236
20
-8.31942
11
11.824
21
-8.31772
0
LINE
8
BLACK
6
CONTINUOUS
10
11.824
20
-8.31772
11
11.824
21
-8.31772
0
LINE
8
BLACK
6
CONTINUOUS
10
11.824
20
-8.31772
11
11.824
21
-8.31772
0
LINE
8
BLACK
6
CONTINUOUS
10
11.824
20
-8.31772
11
11.8245
21
-8.31604
0
LINE
8
BLACK
6
CONTINUOUS
10
11.8245
20
-8.31604
11
11.8245
21
-8.31604
0
LINE
8
BLACK
6
CONTINUOUS
10
11.8245
20
-8.31604
11
11.8245
21
-8.31604
0
LINE
8
BLACK
6
CONTINUOUS
10
11.8245
20
-8.31604
11
11.8251
21
-8.31438
0
LINE
8
BLACK
6
CONTINUOUS
10
11.8251
20
-8.31438
11
11.8251
21
-8.31438
0
LINE
8
BLACK
6
CONTINUOUS
10
11.8251
20
-8.31438
11
11.8251
21
-8.31438
0
LINE
8
BLACK
6
CONTINUOUS
10
11.8251
20
-8.31438
11
11.8257
21
-8.31277
0
LINE
8
BLACK
6
CONTINUOUS
10
11.8257
20
-8.31277
11
11.8257
21
-8.31277
0
LINE
8
BLACK
6
CONTINUOUS
10
11.8257
20
-8.31277
11
11.8257
21
-8.31277
0
LINE
8
BLACK
6
CONTINUOUS
10
11.8257
20
-8.31277
11
11.8265
21
-8.31118
0
LINE
8
BLACK
6
CONTINUOUS
10
11.8265
20
-8.31118
11
11.8265
21
-8.31118
0
LINE
8
BLACK
6
CONTINUOUS
10
11.8265
20
-8.31118
11
11.8273
21
-8.30964
0
LINE
8
BLACK
6
CONTINUOUS
10
11.8273
20
-8.30964
11
11.8273
21
-8.30964
0
LINE
8
BLACK
6
CONTINUOUS
10
11.8273
20
-8.30964
11
11.8273
21
-8.30964
0
LINE
8
BLACK
6
CONTINUOUS
10
11.8273
20
-8.30964
11
11.8282
21
-8.30815
0
LINE
8
BLACK
6
CONTINUOUS
10
11.8282
20
-8.30815
11
11.8282
21
-8.30815
0
LINE
8
BLACK
6
CONTINUOUS
10
11.8282
20
-8.30815
11
11.8292
21
-8.30671
0
LINE
8
BLACK
6
CONTINUOUS
10
11.8292
20
-8.30671
11
11.8292
21
-8.30671
0
LINE
8
BLACK
6
CONTINUOUS
10
11.8292
20
-8.30671
11
11.8292
21
-8.30671
0
LINE
8
BLACK
6
CONTINUOUS
10
11.8292
20
-8.30671
11
11.8303
21
-8.30532
0
LINE
8
BLACK
6
CONTINUOUS
10
11.8303
20
-8.30532
11
11.8303
21
-8.30532
0
LINE
8
BLACK
6
CONTINUOUS
10
11.8303
20
-8.30532
11
11.8314
21
-8.30398
0
LINE
8
BLACK
6
CONTINUOUS
10
11.8314
20
-8.30398
11
11.8314
21
-8.30398
0
LINE
8
BLACK
6
CONTINUOUS
10
11.8314
20
-8.30398
11
11.8314
21
-8.30398
0
LINE
8
BLACK
6
CONTINUOUS
10
11.8314
20
-8.30398
11
11.8326
21
-8.30271
0
LINE
8
BLACK
6
CONTINUOUS
10
11.8326
20
-8.30271
11
11.8326
21
-8.30271
0
LINE
8
BLACK
6
CONTINUOUS
10
11.8326
20
-8.30271
11
11.8326
21
-8.30271
0
LINE
8
BLACK
6
CONTINUOUS
10
11.8326
20
-8.30271
11
11.8339
21
-8.30151
0
LINE
8
BLACK
6
CONTINUOUS
10
11.8339
20
-8.30151
11
11.8339
21
-8.30151
0
LINE
8
BLACK
6
CONTINUOUS
10
11.8339
20
-8.30151
11
11.8339
21
-8.30151
0
LINE
8
BLACK
6
CONTINUOUS
10
11.8339
20
-8.30151
11
11.8352
21
-8.30037
0
LINE
8
BLACK
6
CONTINUOUS
10
11.8352
20
-8.30037
11
11.8352
21
-8.30037
0
LINE
8
BLACK
6
CONTINUOUS
10
11.8352
20
-8.30037
11
11.8352
21
-8.30037
0
LINE
8
BLACK
6
CONTINUOUS
10
11.8352
20
-8.30037
11
11.8366
21
-8.2993
0
LINE
8
BLACK
6
CONTINUOUS
10
11.8366
20
-8.2993
11
11.8366
21
-8.2993
0
LINE
8
BLACK
6
CONTINUOUS
10
11.8366
20
-8.2993
11
11.8366
21
-8.2993
0
LINE
8
BLACK
6
CONTINUOUS
10
11.8366
20
-8.2993
11
11.8381
21
-8.29831
0
LINE
8
BLACK
6
CONTINUOUS
10
11.8381
20
-8.29831
11
11.8381
21
-8.29831
0
LINE
8
BLACK
6
CONTINUOUS
10
11.8381
20
-8.29831
11
11.8396
21
-8.2974
0
LINE
8
BLACK
6
CONTINUOUS
10
11.8396
20
-8.2974
11
11.8396
21
-8.2974
0
LINE
8
BLACK
6
CONTINUOUS
10
11.8396
20
-8.2974
11
11.8396
21
-8.2974
0
LINE
8
BLACK
6
CONTINUOUS
10
11.8396
20
-8.2974
11
11.8411
21
-8.29656
0
LINE
8
BLACK
6
CONTINUOUS
10
11.8411
20
-8.29656
11
11.8411
21
-8.29656
0
LINE
8
BLACK
6
CONTINUOUS
10
11.8411
20
-8.29656
11
11.8411
21
-8.29656
0
LINE
8
BLACK
6
CONTINUOUS
10
11.8411
20
-8.29656
11
11.8427
21
-8.2958
0
LINE
8
BLACK
6
CONTINUOUS
10
11.8427
20
-8.2958
11
11.8427
21
-8.2958
0
LINE
8
BLACK
6
CONTINUOUS
10
11.8427
20
-8.2958
11
11.8427
21
-8.2958
0
LINE
8
BLACK
6
CONTINUOUS
10
11.8427
20
-8.2958
11
11.8443
21
-8.29513
0
LINE
8
BLACK
6
CONTINUOUS
10
11.8443
20
-8.29513
11
11.8443
21
-8.29513
0
LINE
8
BLACK
6
CONTINUOUS
10
11.8443
20
-8.29513
11
11.8443
21
-8.29513
0
LINE
8
BLACK
6
CONTINUOUS
10
11.8443
20
-8.29513
11
11.846
21
-8.29455
0
LINE
8
BLACK
6
CONTINUOUS
10
11.846
20
-8.29455
11
11.846
21
-8.29455
0
LINE
8
BLACK
6
CONTINUOUS
10
11.846
20
-8.29455
11
11.846
21
-8.29455
0
LINE
8
BLACK
6
CONTINUOUS
10
11.846
20
-8.29455
11
11.8476
21
-8.29405
0
LINE
8
BLACK
6
CONTINUOUS
10
11.8476
20
-8.29405
11
11.8476
21
-8.29405
0
LINE
8
BLACK
6
CONTINUOUS
10
11.8476
20
-8.29405
11
11.8493
21
-8.29364
0
LINE
8
BLACK
6
CONTINUOUS
10
11.8493
20
-8.29364
11
11.8493
21
-8.29364
0
LINE
8
BLACK
6
CONTINUOUS
10
11.8493
20
-8.29364
11
11.8493
21
-8.29364
0
LINE
8
BLACK
6
CONTINUOUS
10
11.8493
20
-8.29364
11
11.8511
21
-8.29332
0
LINE
8
BLACK
6
CONTINUOUS
10
11.8511
20
-8.29332
11
11.8511
21
-8.29332
0
LINE
8
BLACK
6
CONTINUOUS
10
11.8511
20
-8.29332
11
11.8528
21
-8.29309
0
LINE
8
BLACK
6
CONTINUOUS
10
11.8528
20
-8.29309
11
11.8528
21
-8.29309
0
LINE
8
BLACK
6
CONTINUOUS
10
11.8528
20
-8.29309
11
11.8545
21
-8.29296
0
LINE
8
BLACK
6
CONTINUOUS
10
11.8545
20
-8.29296
11
11.8545
21
-8.29296
0
LINE
8
BLACK
6
CONTINUOUS
10
11.8545
20
-8.29296
11
11.8563
21
-8.29291
0
LINE
8
BLACK
6
CONTINUOUS
10
11.8563
20
-8.29291
11
11.8563
21
-8.29291
0
LINE
8
BLACK
6
CONTINUOUS
10
11.8563
20
-8.29291
11
11.8581
21
-8.29296
0
LINE
8
BLACK
6
CONTINUOUS
10
11.8581
20
-8.29296
11
11.8581
21
-8.29296
0
LINE
8
BLACK
6
CONTINUOUS
10
11.8581
20
-8.29296
11
11.8598
21
-8.29309
0
LINE
8
BLACK
6
CONTINUOUS
10
11.8598
20
-8.29309
11
11.8598
21
-8.29309
0
LINE
8
BLACK
6
CONTINUOUS
10
11.8598
20
-8.29309
11
11.8615
21
-8.29332
0
LINE
8
BLACK
6
CONTINUOUS
10
11.8615
20
-8.29332
11
11.8615
21
-8.29332
0
LINE
8
BLACK
6
CONTINUOUS
10
11.8615
20
-8.29332
11
11.8615
21
-8.29332
0
LINE
8
BLACK
6
CONTINUOUS
10
11.8615
20
-8.29332
11
11.8633
21
-8.29364
0
LINE
8
BLACK
6
CONTINUOUS
10
11.8633
20
-8.29364
11
11.8633
21
-8.29364
0
LINE
8
BLACK
6
CONTINUOUS
10
11.8633
20
-8.29364
11
11.865
21
-8.29405
0
LINE
8
BLACK
6
CONTINUOUS
10
11.865
20
-8.29405
11
11.865
21
-8.29405
0
LINE
8
BLACK
6
CONTINUOUS
10
11.865
20
-8.29405
11
11.865
21
-8.29405
0
LINE
8
BLACK
6
CONTINUOUS
10
11.865
20
-8.29405
11
11.8666
21
-8.29455
0
LINE
8
BLACK
6
CONTINUOUS
10
11.8666
20
-8.29455
11
11.8666
21
-8.29455
0
LINE
8
BLACK
6
CONTINUOUS
10
11.8666
20
-8.29455
11
11.8666
21
-8.29455
0
LINE
8
BLACK
6
CONTINUOUS
10
11.8666
20
-8.29455
11
11.8683
21
-8.29513
0
LINE
8
BLACK
6
CONTINUOUS
10
11.8683
20
-8.29513
11
11.8683
21
-8.29513
0
LINE
8
BLACK
6
CONTINUOUS
10
11.8683
20
-8.29513
11
11.8683
21
-8.29513
0
LINE
8
BLACK
6
CONTINUOUS
10
11.8683
20
-8.29513
11
11.8699
21
-8.2958
0
LINE
8
BLACK
6
CONTINUOUS
10
11.8699
20
-8.2958
11
11.8699
21
-8.2958
0
LINE
8
BLACK
6
CONTINUOUS
10
11.8699
20
-8.2958
11
11.8699
21
-8.2958
0
LINE
8
BLACK
6
CONTINUOUS
10
11.8699
20
-8.2958
11
11.8699
21
-8.2958
0
LINE
8
BLACK
6
CONTINUOUS
10
11.8699
20
-8.2958
11
11.8715
21
-8.29656
0
LINE
8
BLACK
6
CONTINUOUS
10
11.8715
20
-8.29656
11
11.8715
21
-8.29656
0
LINE
8
BLACK
6
CONTINUOUS
10
11.8715
20
-8.29656
11
11.873
21
-8.2974
0
LINE
8
BLACK
6
CONTINUOUS
10
11.873
20
-8.2974
11
11.873
21
-8.2974
0
LINE
8
BLACK
6
CONTINUOUS
10
11.873
20
-8.2974
11
11.8745
21
-8.29831
0
LINE
8
BLACK
6
CONTINUOUS
10
11.8745
20
-8.29831
11
11.8745
21
-8.29831
0
LINE
8
BLACK
6
CONTINUOUS
10
11.8745
20
-8.29831
11
11.8745
21
-8.29831
0
LINE
8
BLACK
6
CONTINUOUS
10
11.8745
20
-8.29831
11
11.8745
21
-8.29831
0
LINE
8
BLACK
6
CONTINUOUS
10
11.8745
20
-8.29831
11
11.876
21
-8.2993
0
LINE
8
BLACK
6
CONTINUOUS
10
11.876
20
-8.2993
11
11.876
21
-8.2993
0
LINE
8
BLACK
6
CONTINUOUS
10
11.876
20
-8.2993
11
11.876
21
-8.2993
0
LINE
8
BLACK
6
CONTINUOUS
10
11.876
20
-8.2993
11
11.876
21
-8.2993
0
LINE
8
BLACK
6
CONTINUOUS
10
11.876
20
-8.2993
11
11.876
21
-8.2993
0
LINE
8
BLACK
6
CONTINUOUS
10
11.876
20
-8.2993
11
11.8774
21
-8.30037
0
LINE
8
BLACK
6
CONTINUOUS
10
11.8774
20
-8.30037
11
11.8774
21
-8.30037
0
LINE
8
BLACK
6
CONTINUOUS
10
11.8774
20
-8.30037
11
11.8787
21
-8.30151
0
LINE
8
BLACK
6
CONTINUOUS
10
11.8787
20
-8.30151
11
11.8787
21
-8.30151
0
LINE
8
BLACK
6
CONTINUOUS
10
11.8787
20
-8.30151
11
11.88
21
-8.30271
0
LINE
8
BLACK
6
CONTINUOUS
10
11.8425
20
-8.37434
11
11.8425
21
-8.37434
0
LINE
8
BLACK
6
CONTINUOUS
10
11.8425
20
-8.37434
11
11.8426
21
-8.37506
0
LINE
8
BLACK
6
CONTINUOUS
10
11.8426
20
-8.37506
11
11.8426
21
-8.37506
0
LINE
8
BLACK
6
CONTINUOUS
10
11.8426
20
-8.37506
11
11.8427
21
-8.37578
0
LINE
8
BLACK
6
CONTINUOUS
10
11.8427
20
-8.37578
11
11.8428
21
-8.37649
0
LINE
8
BLACK
6
CONTINUOUS
10
11.8428
20
-8.37649
11
11.8428
21
-8.37649
0
LINE
8
BLACK
6
CONTINUOUS
10
11.8428
20
-8.37649
11
11.843
21
-8.37719
0
LINE
8
BLACK
6
CONTINUOUS
10
11.843
20
-8.37719
11
11.8432
21
-8.37788
0
LINE
8
BLACK
6
CONTINUOUS
10
11.8432
20
-8.37788
11
11.8434
21
-8.37856
0
LINE
8
BLACK
6
CONTINUOUS
10
11.8434
20
-8.37856
11
11.8437
21
-8.37923
0
LINE
8
BLACK
6
CONTINUOUS
10
11.8437
20
-8.37923
11
11.8437
21
-8.37923
0
LINE
8
BLACK
6
CONTINUOUS
10
11.8437
20
-8.37923
11
11.844
21
-8.37988
0
LINE
8
BLACK
6
CONTINUOUS
10
11.844
20
-8.37988
11
11.8444
21
-8.38051
0
LINE
8
BLACK
6
CONTINUOUS
10
11.8444
20
-8.38051
11
11.8444
21
-8.38051
0
LINE
8
BLACK
6
CONTINUOUS
10
11.8444
20
-8.38051
11
11.8447
21
-8.38113
0
LINE
8
BLACK
6
CONTINUOUS
10
11.8447
20
-8.38113
11
11.8447
21
-8.38113
0
LINE
8
BLACK
6
CONTINUOUS
10
11.8447
20
-8.38113
11
11.8452
21
-8.38172
0
LINE
8
BLACK
6
CONTINUOUS
10
11.8452
20
-8.38172
11
11.8452
21
-8.38172
0
LINE
8
BLACK
6
CONTINUOUS
10
11.8452
20
-8.38172
11
11.8456
21
-8.38229
0
LINE
8
BLACK
6
CONTINUOUS
10
11.8456
20
-8.38229
11
11.8461
21
-8.38284
0
LINE
8
BLACK
6
CONTINUOUS
10
11.8461
20
-8.38284
11
11.8461
21
-8.38284
0
LINE
8
BLACK
6
CONTINUOUS
10
11.8461
20
-8.38284
11
11.8461
21
-8.38284
0
LINE
8
BLACK
6
CONTINUOUS
10
11.8461
20
-8.38284
11
11.8461
21
-8.38284
0
LINE
8
BLACK
6
CONTINUOUS
10
11.8461
20
-8.38284
11
11.8466
21
-8.38336
0
LINE
8
BLACK
6
CONTINUOUS
10
11.8466
20
-8.38336
11
11.8466
21
-8.38336
0
LINE
8
BLACK
6
CONTINUOUS
10
11.8466
20
-8.38336
11
11.8466
21
-8.38336
0
LINE
8
BLACK
6
CONTINUOUS
10
11.8466
20
-8.38336
11
11.8466
21
-8.38336
0
LINE
8
BLACK
6
CONTINUOUS
10
11.8466
20
-8.38336
11
11.8471
21
-8.38386
0
LINE
8
BLACK
6
CONTINUOUS
10
11.8471
20
-8.38386
11
11.8471
21
-8.38386
0
LINE
8
BLACK
6
CONTINUOUS
10
11.8471
20
-8.38386
11
11.8476
21
-8.38433
0
LINE
8
BLACK
6
CONTINUOUS
10
11.8476
20
-8.38433
11
11.8482
21
-8.38477
0
LINE
8
BLACK
6
CONTINUOUS
10
11.8482
20
-8.38477
11
11.8488
21
-8.38518
0
LINE
8
BLACK
6
CONTINUOUS
10
11.8488
20
-8.38518
11
11.8488
21
-8.38518
0
LINE
8
BLACK
6
CONTINUOUS
10
11.8488
20
-8.38518
11
11.8494
21
-8.38555
0
LINE
8
BLACK
6
CONTINUOUS
10
11.8494
20
-8.38555
11
11.85
21
-8.3859
0
LINE
8
BLACK
6
CONTINUOUS
10
11.85
20
-8.3859
11
11.85
21
-8.3859
0
LINE
8
BLACK
6
CONTINUOUS
10
11.85
20
-8.3859
11
11.8507
21
-8.38621
0
LINE
8
BLACK
6
CONTINUOUS
10
11.8507
20
-8.38621
11
11.8507
21
-8.38621
0
LINE
8
BLACK
6
CONTINUOUS
10
11.8507
20
-8.38621
11
11.8507
21
-8.38621
0
LINE
8
BLACK
6
CONTINUOUS
10
11.8507
20
-8.38621
11
11.8507
21
-8.38621
0
LINE
8
BLACK
6
CONTINUOUS
10
11.8507
20
-8.38621
11
11.8514
21
-8.38648
0
LINE
8
BLACK
6
CONTINUOUS
10
11.8514
20
-8.38648
11
11.8514
21
-8.38648
0
LINE
8
BLACK
6
CONTINUOUS
10
11.8514
20
-8.38648
11
11.852
21
-8.38673
0
LINE
8
BLACK
6
CONTINUOUS
10
11.852
20
-8.38673
11
11.8527
21
-8.38693
0
LINE
8
BLACK
6
CONTINUOUS
10
11.8527
20
-8.38693
11
11.8527
21
-8.38693
0
LINE
8
BLACK
6
CONTINUOUS
10
11.8527
20
-8.38693
11
11.8534
21
-8.3871
0
LINE
8
BLACK
6
CONTINUOUS
10
11.8534
20
-8.3871
11
11.8541
21
-8.38723
0
LINE
8
BLACK
6
CONTINUOUS
10
11.8541
20
-8.38723
11
11.8541
21
-8.38723
0
LINE
8
BLACK
6
CONTINUOUS
10
11.8541
20
-8.38723
11
11.8549
21
-8.38732
0
LINE
8
BLACK
6
CONTINUOUS
10
11.8549
20
-8.38732
11
11.8556
21
-8.38738
0
LINE
8
BLACK
6
CONTINUOUS
10
11.8556
20
-8.38738
11
11.8556
21
-8.38738
0
LINE
8
BLACK
6
CONTINUOUS
10
11.8556
20
-8.38738
11
11.8563
21
-8.3874
0
LINE
8
BLACK
6
CONTINUOUS
10
11.8563
20
-8.3874
11
11.857
21
-8.38738
0
LINE
8
BLACK
6
CONTINUOUS
10
11.857
20
-8.38738
11
11.8577
21
-8.38732
0
LINE
8
BLACK
6
CONTINUOUS
10
11.8577
20
-8.38732
11
11.8577
21
-8.38732
0
LINE
8
BLACK
6
CONTINUOUS
10
11.8577
20
-8.38732
11
11.8585
21
-8.38723
0
LINE
8
BLACK
6
CONTINUOUS
10
11.8585
20
-8.38723
11
11.8585
21
-8.38723
0
LINE
8
BLACK
6
CONTINUOUS
10
11.8585
20
-8.38723
11
11.8592
21
-8.3871
0
LINE
8
BLACK
6
CONTINUOUS
10
11.8592
20
-8.3871
11
11.8592
21
-8.3871
0
LINE
8
BLACK
6
CONTINUOUS
10
11.8592
20
-8.3871
11
11.8599
21
-8.38693
0
LINE
8
BLACK
6
CONTINUOUS
10
11.8599
20
-8.38693
11
11.8599
21
-8.38693
0
LINE
8
BLACK
6
CONTINUOUS
10
11.8599
20
-8.38693
11
11.8606
21
-8.38673
0
LINE
8
BLACK
6
CONTINUOUS
10
11.8606
20
-8.38673
11
11.8612
21
-8.38648
0
LINE
8
BLACK
6
CONTINUOUS
10
11.8612
20
-8.38648
11
11.8619
21
-8.38621
0
LINE
8
BLACK
6
CONTINUOUS
10
11.8619
20
-8.38621
11
11.8619
21
-8.38621
0
LINE
8
BLACK
6
CONTINUOUS
10
11.8619
20
-8.38621
11
11.8626
21
-8.3859
0
LINE
8
BLACK
6
CONTINUOUS
10
11.8626
20
-8.3859
11
11.8632
21
-8.38555
0
LINE
8
BLACK
6
CONTINUOUS
10
11.8632
20
-8.38555
11
11.8638
21
-8.38518
0
LINE
8
BLACK
6
CONTINUOUS
10
11.8638
20
-8.38518
11
11.8638
21
-8.38518
0
LINE
8
BLACK
6
CONTINUOUS
10
11.8638
20
-8.38518
11
11.8644
21
-8.38477
0
LINE
8
BLACK
6
CONTINUOUS
10
11.8644
20
-8.38477
11
11.8644
21
-8.38477
0
LINE
8
BLACK
6
CONTINUOUS
10
11.8644
20
-8.38477
11
11.865
21
-8.38433
0
LINE
8
BLACK
6
CONTINUOUS
10
11.865
20
-8.38433
11
11.8655
21
-8.38386
0
LINE
8
BLACK
6
CONTINUOUS
10
11.8655
20
-8.38386
11
11.8655
21
-8.38386
0
LINE
8
BLACK
6
CONTINUOUS
10
11.8655
20
-8.38386
11
11.8655
21
-8.38386
0
LINE
8
BLACK
6
CONTINUOUS
10
11.8655
20
-8.38386
11
11.866
21
-8.38336
0
LINE
8
BLACK
6
CONTINUOUS
10
11.866
20
-8.38336
11
11.866
21
-8.38336
0
LINE
8
BLACK
6
CONTINUOUS
10
11.866
20
-8.38336
11
11.866
21
-8.38336
0
LINE
8
BLACK
6
CONTINUOUS
10
11.866
20
-8.38336
11
11.8665
21
-8.38284
0
LINE
8
BLACK
6
CONTINUOUS
10
11.8665
20
-8.38284
11
11.8665
21
-8.38284
0
LINE
8
BLACK
6
CONTINUOUS
10
11.8665
20
-8.38284
11
11.867
21
-8.38229
0
LINE
8
BLACK
6
CONTINUOUS
10
11.867
20
-8.38229
11
11.8674
21
-8.38172
0
LINE
8
BLACK
6
CONTINUOUS
10
11.8674
20
-8.38172
11
11.8679
21
-8.38113
0
LINE
8
BLACK
6
CONTINUOUS
10
11.8679
20
-8.38113
11
11.8679
21
-8.38113
0
LINE
8
BLACK
6
CONTINUOUS
10
11.8679
20
-8.38113
11
11.8682
21
-8.38051
0
LINE
8
BLACK
6
CONTINUOUS
10
11.8682
20
-8.38051
11
11.8682
21
-8.38051
0
LINE
8
BLACK
6
CONTINUOUS
10
11.8682
20
-8.38051
11
11.8682
21
-8.38051
0
LINE
8
BLACK
6
CONTINUOUS
10
11.8682
20
-8.38051
11
11.8686
21
-8.37988
0
LINE
8
BLACK
6
CONTINUOUS
10
11.8686
20
-8.37988
11
11.8689
21
-8.37923
0
LINE
8
BLACK
6
CONTINUOUS
10
11.8689
20
-8.37923
11
11.8689
21
-8.37923
0
LINE
8
BLACK
6
CONTINUOUS
10
11.8689
20
-8.37923
11
11.8689
21
-8.37923
0
LINE
8
BLACK
6
CONTINUOUS
10
11.8689
20
-8.37923
11
11.8692
21
-8.37856
0
LINE
8
BLACK
6
CONTINUOUS
10
11.8692
20
-8.37856
11
11.8692
21
-8.37856
0
LINE
8
BLACK
6
CONTINUOUS
10
11.8692
20
-8.37856
11
11.8694
21
-8.37788
0
LINE
8
BLACK
6
CONTINUOUS
10
11.8694
20
-8.37788
11
11.8696
21
-8.37719
0
LINE
8
BLACK
6
CONTINUOUS
10
11.8696
20
-8.37719
11
11.8698
21
-8.37649
0
LINE
8
BLACK
6
CONTINUOUS
10
11.8698
20
-8.37649
11
11.8698
21
-8.37649
0
LINE
8
BLACK
6
CONTINUOUS
10
11.8698
20
-8.37649
11
11.8699
21
-8.37578
0
LINE
8
BLACK
6
CONTINUOUS
10
11.8699
20
-8.37578
11
11.8699
21
-8.37578
0
LINE
8
BLACK
6
CONTINUOUS
10
11.8699
20
-8.37578
11
11.87
21
-8.37506
0
LINE
8
BLACK
6
CONTINUOUS
10
11.87
20
-8.37506
11
11.8701
21
-8.37434
0
LINE
8
BLACK
6
CONTINUOUS
10
11.8701
20
-8.37434
11
11.8701
21
-8.37434
0
LINE
8
BLACK
6
CONTINUOUS
10
11.8701
20
-8.37434
11
11.8701
21
-8.37362
0
LINE
8
BLACK
6
CONTINUOUS
10
11.8701
20
-8.37362
11
11.8701
21
-8.32638
0
LINE
8
BLACK
6
CONTINUOUS
10
11.8701
20
-8.32638
11
11.8701
21
-8.32566
0
LINE
8
BLACK
6
CONTINUOUS
10
11.8701
20
-8.32566
11
11.8701
21
-8.32566
0
LINE
8
BLACK
6
CONTINUOUS
10
11.8701
20
-8.32566
11
11.87
21
-8.32494
0
LINE
8
BLACK
6
CONTINUOUS
10
11.87
20
-8.32494
11
11.8699
21
-8.32422
0
LINE
8
BLACK
6
CONTINUOUS
10
11.8699
20
-8.32422
11
11.8699
21
-8.32422
0
LINE
8
BLACK
6
CONTINUOUS
10
11.8699
20
-8.32422
11
11.8698
21
-8.32351
0
LINE
8
BLACK
6
CONTINUOUS
10
11.8698
20
-8.32351
11
11.8698
21
-8.32351
0
LINE
8
BLACK
6
CONTINUOUS
10
11.8698
20
-8.32351
11
11.8696
21
-8.32281
0
LINE
8
BLACK
6
CONTINUOUS
10
11.8696
20
-8.32281
11
11.8696
21
-8.32281
0
LINE
8
BLACK
6
CONTINUOUS
10
11.8696
20
-8.32281
11
11.8694
21
-8.32212
0
LINE
8
BLACK
6
CONTINUOUS
10
11.8694
20
-8.32212
11
11.8694
21
-8.32212
0
LINE
8
BLACK
6
CONTINUOUS
10
11.8694
20
-8.32212
11
11.8692
21
-8.32144
0
LINE
8
BLACK
6
CONTINUOUS
10
11.8692
20
-8.32144
11
11.8692
21
-8.32144
0
LINE
8
BLACK
6
CONTINUOUS
10
11.8692
20
-8.32144
11
11.8689
21
-8.32077
0
LINE
8
BLACK
6
CONTINUOUS
10
11.8689
20
-8.32077
11
11.8689
21
-8.32077
0
LINE
8
BLACK
6
CONTINUOUS
10
11.8689
20
-8.32077
11
11.8689
21
-8.32077
0
LINE
8
BLACK
6
CONTINUOUS
10
11.8689
20
-8.32077
11
11.8686
21
-8.32012
0
LINE
8
BLACK
6
CONTINUOUS
10
11.8686
20
-8.32012
11
11.8686
21
-8.32012
0
LINE
8
BLACK
6
CONTINUOUS
10
11.8686
20
-8.32012
11
11.8686
21
-8.32012
0
LINE
8
BLACK
6
CONTINUOUS
10
11.8686
20
-8.32012
11
11.8682
21
-8.31949
0
LINE
8
BLACK
6
CONTINUOUS
10
11.8682
20
-8.31949
11
11.8679
21
-8.31887
0
LINE
8
BLACK
6
CONTINUOUS
10
11.8679
20
-8.31887
11
11.8679
21
-8.31887
0
LINE
8
BLACK
6
CONTINUOUS
10
11.8679
20
-8.31887
11
11.8674
21
-8.31828
0
LINE
8
BLACK
6
CONTINUOUS
10
11.8674
20
-8.31828
11
11.8674
21
-8.31828
0
LINE
8
BLACK
6
CONTINUOUS
10
11.8674
20
-8.31828
11
11.867
21
-8.31771
0
LINE
8
BLACK
6
CONTINUOUS
10
11.867
20
-8.31771
11
11.8665
21
-8.31716
0
LINE
8
BLACK
6
CONTINUOUS
10
11.8665
20
-8.31716
11
11.8665
21
-8.31716
0
LINE
8
BLACK
6
CONTINUOUS
10
11.8665
20
-8.31716
11
11.866
21
-8.31664
0
LINE
8
BLACK
6
CONTINUOUS
10
11.866
20
-8.31664
11
11.866
21
-8.31664
0
LINE
8
BLACK
6
CONTINUOUS
10
11.866
20
-8.31664
11
11.866
21
-8.31664
0
LINE
8
BLACK
6
CONTINUOUS
10
11.866
20
-8.31664
11
11.8655
21
-8.31614
0
LINE
8
BLACK
6
CONTINUOUS
10
11.8655
20
-8.31614
11
11.8655
21
-8.31614
0
LINE
8
BLACK
6
CONTINUOUS
10
11.8655
20
-8.31614
11
11.8655
21
-8.31614
0
LINE
8
BLACK
6
CONTINUOUS
10
11.8655
20
-8.31614
11
11.865
21
-8.31567
0
LINE
8
BLACK
6
CONTINUOUS
10
11.865
20
-8.31567
11
11.8644
21
-8.31523
0
LINE
8
BLACK
6
CONTINUOUS
10
11.8644
20
-8.31523
11
11.8644
21
-8.31523
0
LINE
8
BLACK
6
CONTINUOUS
10
11.8644
20
-8.31523
11
11.8644
21
-8.31523
0
LINE
8
BLACK
6
CONTINUOUS
10
11.8644
20
-8.31523
11
11.8638
21
-8.31482
0
LINE
8
BLACK
6
CONTINUOUS
10
11.8638
20
-8.31482
11
11.8638
21
-8.31482
0
LINE
8
BLACK
6
CONTINUOUS
10
11.8638
20
-8.31482
11
11.8638
21
-8.31482
0
LINE
8
BLACK
6
CONTINUOUS
10
11.8638
20
-8.31482
11
11.8632
21
-8.31445
0
LINE
8
BLACK
6
CONTINUOUS
10
11.8632
20
-8.31445
11
11.8626
21
-8.3141
0
LINE
8
BLACK
6
CONTINUOUS
10
11.8626
20
-8.3141
11
11.8619
21
-8.31379
0
LINE
8
BLACK
6
CONTINUOUS
10
11.8619
20
-8.31379
11
11.8619
21
-8.31379
0
LINE
8
BLACK
6
CONTINUOUS
10
11.8619
20
-8.31379
11
11.8612
21
-8.31352
0
LINE
8
BLACK
6
CONTINUOUS
10
11.8612
20
-8.31352
11
11.8612
21
-8.31352
0
LINE
8
BLACK
6
CONTINUOUS
10
11.8612
20
-8.31352
11
11.8606
21
-8.31327
0
LINE
8
BLACK
6
CONTINUOUS
10
11.8606
20
-8.31327
11
11.8606
21
-8.31327
0
LINE
8
BLACK
6
CONTINUOUS
10
11.8606
20
-8.31327
11
11.8599
21
-8.31307
0
LINE
8
BLACK
6
CONTINUOUS
10
11.8599
20
-8.31307
11
11.8599
21
-8.31307
0
LINE
8
BLACK
6
CONTINUOUS
10
11.8599
20
-8.31307
11
11.8592
21
-8.3129
0
LINE
8
BLACK
6
CONTINUOUS
10
11.8592
20
-8.3129
11
11.8592
21
-8.3129
0
LINE
8
BLACK
6
CONTINUOUS
10
11.8592
20
-8.3129
11
11.8585
21
-8.31277
0
LINE
8
BLACK
6
CONTINUOUS
10
11.8585
20
-8.31277
11
11.8585
21
-8.31277
0
LINE
8
BLACK
6
CONTINUOUS
10
11.8585
20
-8.31277
11
11.8577
21
-8.31268
0
LINE
8
BLACK
6
CONTINUOUS
10
11.8577
20
-8.31268
11
11.857
21
-8.31262
0
LINE
8
BLACK
6
CONTINUOUS
10
11.857
20
-8.31262
11
11.857
21
-8.31262
0
LINE
8
BLACK
6
CONTINUOUS
10
11.857
20
-8.31262
11
11.8563
21
-8.3126
0
LINE
8
BLACK
6
CONTINUOUS
10
11.8563
20
-8.3126
11
11.8556
21
-8.31262
0
LINE
8
BLACK
6
CONTINUOUS
10
11.8556
20
-8.31262
11
11.8549
21
-8.31268
0
LINE
8
BLACK
6
CONTINUOUS
10
11.8549
20
-8.31268
11
11.8549
21
-8.31268
0
LINE
8
BLACK
6
CONTINUOUS
10
11.8549
20
-8.31268
11
11.8541
21
-8.31277
0
LINE
8
BLACK
6
CONTINUOUS
10
11.8541
20
-8.31277
11
11.8541
21
-8.31277
0
LINE
8
BLACK
6
CONTINUOUS
10
11.8541
20
-8.31277
11
11.8534
21
-8.3129
0
LINE
8
BLACK
6
CONTINUOUS
10
11.8534
20
-8.3129
11
11.8534
21
-8.3129
0
LINE
8
BLACK
6
CONTINUOUS
10
11.8534
20
-8.3129
11
11.8527
21
-8.31307
0
LINE
8
BLACK
6
CONTINUOUS
10
11.8527
20
-8.31307
11
11.852
21
-8.31327
0
LINE
8
BLACK
6
CONTINUOUS
10
11.852
20
-8.31327
11
11.8514
21
-8.31352
0
LINE
8
BLACK
6
CONTINUOUS
10
11.8514
20
-8.31352
11
11.8507
21
-8.31379
0
LINE
8
BLACK
6
CONTINUOUS
10
11.8507
20
-8.31379
11
11.8507
21
-8.31379
0
LINE
8
BLACK
6
CONTINUOUS
10
11.8507
20
-8.31379
11
11.8507
21
-8.31379
0
LINE
8
BLACK
6
CONTINUOUS
10
11.8507
20
-8.31379
11
11.85
21
-8.3141
0
LINE
8
BLACK
6
CONTINUOUS
10
11.85
20
-8.3141
11
11.85
21
-8.3141
0
LINE
8
BLACK
6
CONTINUOUS
10
11.85
20
-8.3141
11
11.85
21
-8.3141
0
LINE
8
BLACK
6
CONTINUOUS
10
11.85
20
-8.3141
11
11.8494
21
-8.31445
0
LINE
8
BLACK
6
CONTINUOUS
10
11.8494
20
-8.31445
11
11.8488
21
-8.31482
0
LINE
8
BLACK
6
CONTINUOUS
10
11.8488
20
-8.31482
11
11.8488
21
-8.31482
0
LINE
8
BLACK
6
CONTINUOUS
10
11.8488
20
-8.31482
11
11.8482
21
-8.31523
0
LINE
8
BLACK
6
CONTINUOUS
10
11.8482
20
-8.31523
11
11.8482
21
-8.31523
0
LINE
8
BLACK
6
CONTINUOUS
10
11.8482
20
-8.31523
11
11.8476
21
-8.31567
0
LINE
8
BLACK
6
CONTINUOUS
10
11.8476
20
-8.31567
11
11.8476
21
-8.31567
0
LINE
8
BLACK
6
CONTINUOUS
10
11.8476
20
-8.31567
11
11.8471
21
-8.31614
0
LINE
8
BLACK
6
CONTINUOUS
10
11.8471
20
-8.31614
11
11.8471
21
-8.31614
0
LINE
8
BLACK
6
CONTINUOUS
10
11.8471
20
-8.31614
11
11.8466
21
-8.31664
0
LINE
8
BLACK
6
CONTINUOUS
10
11.8466
20
-8.31664
11
11.8466
21
-8.31664
0
LINE
8
BLACK
6
CONTINUOUS
10
11.8466
20
-8.31664
11
11.8466
21
-8.31664
0
LINE
8
BLACK
6
CONTINUOUS
10
11.8466
20
-8.31664
11
11.8461
21
-8.31716
0
LINE
8
BLACK
6
CONTINUOUS
10
11.8461
20
-8.31716
11
11.8461
21
-8.31716
0
LINE
8
BLACK
6
CONTINUOUS
10
11.8461
20
-8.31716
11
11.8461
21
-8.31716
0
LINE
8
BLACK
6
CONTINUOUS
10
11.8461
20
-8.31716
11
11.8456
21
-8.31771
0
LINE
8
BLACK
6
CONTINUOUS
10
11.8456
20
-8.31771
11
11.8456
21
-8.31771
0
LINE
8
BLACK
6
CONTINUOUS
10
11.8456
20
-8.31771
11
11.8452
21
-8.31828
0
LINE
8
BLACK
6
CONTINUOUS
10
11.8452
20
-8.31828
11
11.8447
21
-8.31887
0
LINE
8
BLACK
6
CONTINUOUS
10
11.8447
20
-8.31887
11
11.8447
21
-8.31887
0
LINE
8
BLACK
6
CONTINUOUS
10
11.8447
20
-8.31887
11
11.8444
21
-8.31949
0
LINE
8
BLACK
6
CONTINUOUS
10
11.8444
20
-8.31949
11
11.844
21
-8.32012
0
LINE
8
BLACK
6
CONTINUOUS
10
11.844
20
-8.32012
11
11.8437
21
-8.32077
0
LINE
8
BLACK
6
CONTINUOUS
10
11.8437
20
-8.32077
11
11.8434
21
-8.32144
0
LINE
8
BLACK
6
CONTINUOUS
10
11.8434
20
-8.32144
11
11.8434
21
-8.32144
0
LINE
8
BLACK
6
CONTINUOUS
10
11.8434
20
-8.32144
11
11.8432
21
-8.32212
0
LINE
8
BLACK
6
CONTINUOUS
10
11.8432
20
-8.32212
11
11.8432
21
-8.32212
0
LINE
8
BLACK
6
CONTINUOUS
10
11.8432
20
-8.32212
11
11.843
21
-8.32281
0
LINE
8
BLACK
6
CONTINUOUS
10
11.843
20
-8.32281
11
11.843
21
-8.32281
0
LINE
8
BLACK
6
CONTINUOUS
10
11.843
20
-8.32281
11
11.8428
21
-8.32351
0
LINE
8
BLACK
6
CONTINUOUS
10
11.8428
20
-8.32351
11
11.8428
21
-8.32351
0
LINE
8
BLACK
6
CONTINUOUS
10
11.8428
20
-8.32351
11
11.8427
21
-8.32422
0
LINE
8
BLACK
6
CONTINUOUS
10
11.8427
20
-8.32422
11
11.8427
21
-8.32422
0
LINE
8
BLACK
6
CONTINUOUS
10
11.8427
20
-8.32422
11
11.8426
21
-8.32494
0
LINE
8
BLACK
6
CONTINUOUS
10
11.8426
20
-8.32494
11
11.8425
21
-8.32566
0
LINE
8
BLACK
6
CONTINUOUS
10
11.8425
20
-8.32566
11
11.8425
21
-8.32566
0
LINE
8
BLACK
6
CONTINUOUS
10
11.8425
20
-8.32566
11
11.8425
21
-8.32638
0
LINE
8
BLACK
6
CONTINUOUS
10
11.8425
20
-8.32638
11
11.8425
21
-8.37362
0
LINE
8
BLACK
6
CONTINUOUS
10
11.8425
20
-8.37362
11
11.8425
21
-8.37434
  0
ENDSEC
  0
EOF
