  0
SECTION
  2
HEADER
  9
$ANGBASE
  50
0.0
  9
$ANGDIR
  70
1
  9
$MEASUREMENT
  70
0
  0
ENDSEC
  0
SECTION
  2
TABLES
  0
TABLE
  2
LTYPE
  70
4
  0
LTYPE
  5
40F
  2
CONTINUOUS
  70
0
  3
Solid line
  72
65
  73
0
  40
0.0
  0
LTYPE
  5
410
  2
DASHDOT
 70
0
  3
Dash Dot ____ _ ____ _
 72
65
 73
4
 40
2.0
 49
1.25
 49
-0.25
 49
0.25
 49
-0.25
  0
LTYPE
  5
411
  2
DASHED
 70
0
  3
Dashed __ __ __ __ __
 72
65
 73
2
 40
0.75
 49
0.5
 49
-0.25
  0
LTYPE
  5
43B
  2
DOTTED
 70
0
  3
Dotted .  .  .  .
 72
65
 73
2
 40
0.2
 49
0.0
 49
-0.2
  0
ENDTAB
  0
TABLE
  2
STYLE
  70
4
  0
STYLE
  2
KICAD
  70
0
  40
0
  41
1
  42
1
  50
0
  71
0
  3
isocp.shx
  0
STYLE
  2
KICADB
  70
0
  40
0
  41
1
  42
1
  50
0
  71
0
  3
isocp.shx
  0
STYLE
  2
KICADI
  70
0
  40
0
  41
1
  42
1
  50
15
  71
0
  3
isocp.shx
  0
STYLE
  2
KICADBI
  70
0
  40
0
  41
1
  42
1
  50
15
  71
0
  3
isocp.shx
  0
ENDTAB
  0
TABLE
  2
LAYER
  70
1
  0
LAYER
  2
BLACK
  70
0
  62
7
  6
CONTINUOUS
  0
ENDTAB
  0
ENDSEC
  0
SECTION
  2
ENTITIES
0
LINE
8
BLACK
6
CONTINUOUS
10
12.6674
20
-8.30271
11
12.6674
21
-8.30271
0
LINE
8
BLACK
6
CONTINUOUS
10
12.6674
20
-8.30271
11
12.6674
21
-8.30271
0
LINE
8
BLACK
6
CONTINUOUS
10
12.6674
20
-8.30271
11
12.6686
21
-8.30398
0
LINE
8
BLACK
6
CONTINUOUS
10
12.6686
20
-8.30398
11
12.6686
21
-8.30398
0
LINE
8
BLACK
6
CONTINUOUS
10
12.6686
20
-8.30398
11
12.6686
21
-8.30398
0
LINE
8
BLACK
6
CONTINUOUS
10
12.6686
20
-8.30398
11
12.6686
21
-8.30398
0
LINE
8
BLACK
6
CONTINUOUS
10
12.6686
20
-8.30398
11
12.6686
21
-8.30398
0
LINE
8
BLACK
6
CONTINUOUS
10
12.6686
20
-8.30398
11
12.6697
21
-8.30532
0
LINE
8
BLACK
6
CONTINUOUS
10
12.6697
20
-8.30532
11
12.6697
21
-8.30532
0
LINE
8
BLACK
6
CONTINUOUS
10
12.6697
20
-8.30532
11
12.6697
21
-8.30532
0
LINE
8
BLACK
6
CONTINUOUS
10
12.6697
20
-8.30532
11
12.6708
21
-8.30671
0
LINE
8
BLACK
6
CONTINUOUS
10
12.6708
20
-8.30671
11
12.6708
21
-8.30671
0
LINE
8
BLACK
6
CONTINUOUS
10
12.6708
20
-8.30671
11
12.6708
21
-8.30671
0
LINE
8
BLACK
6
CONTINUOUS
10
12.6708
20
-8.30671
11
12.6718
21
-8.30815
0
LINE
8
BLACK
6
CONTINUOUS
10
12.6718
20
-8.30815
11
12.6718
21
-8.30815
0
LINE
8
BLACK
6
CONTINUOUS
10
12.6718
20
-8.30815
11
12.6727
21
-8.30964
0
LINE
8
BLACK
6
CONTINUOUS
10
12.6727
20
-8.30964
11
12.6727
21
-8.30964
0
LINE
8
BLACK
6
CONTINUOUS
10
12.6727
20
-8.30964
11
12.6727
21
-8.30964
0
LINE
8
BLACK
6
CONTINUOUS
10
12.6727
20
-8.30964
11
12.6735
21
-8.31118
0
LINE
8
BLACK
6
CONTINUOUS
10
12.6735
20
-8.31118
11
12.6735
21
-8.31118
0
LINE
8
BLACK
6
CONTINUOUS
10
12.6735
20
-8.31118
11
12.6735
21
-8.31118
0
LINE
8
BLACK
6
CONTINUOUS
10
12.6735
20
-8.31118
11
12.6743
21
-8.31277
0
LINE
8
BLACK
6
CONTINUOUS
10
12.6743
20
-8.31277
11
12.6743
21
-8.31277
0
LINE
8
BLACK
6
CONTINUOUS
10
12.6743
20
-8.31277
11
12.6743
21
-8.31277
0
LINE
8
BLACK
6
CONTINUOUS
10
12.6743
20
-8.31277
11
12.6749
21
-8.31438
0
LINE
8
BLACK
6
CONTINUOUS
10
12.6749
20
-8.31438
11
12.6749
21
-8.31438
0
LINE
8
BLACK
6
CONTINUOUS
10
12.6749
20
-8.31438
11
12.6755
21
-8.31604
0
LINE
8
BLACK
6
CONTINUOUS
10
12.6755
20
-8.31604
11
12.6755
21
-8.31604
0
LINE
8
BLACK
6
CONTINUOUS
10
12.6755
20
-8.31604
11
12.676
21
-8.31772
0
LINE
8
BLACK
6
CONTINUOUS
10
12.676
20
-8.31772
11
12.676
21
-8.31772
0
LINE
8
BLACK
6
CONTINUOUS
10
12.676
20
-8.31772
11
12.6764
21
-8.31942
0
LINE
8
BLACK
6
CONTINUOUS
10
12.6764
20
-8.31942
11
12.6764
21
-8.31942
0
LINE
8
BLACK
6
CONTINUOUS
10
12.6764
20
-8.31942
11
12.6768
21
-8.32114
0
LINE
8
BLACK
6
CONTINUOUS
10
12.6768
20
-8.32114
11
12.6768
21
-8.32114
0
LINE
8
BLACK
6
CONTINUOUS
10
12.6768
20
-8.32114
11
12.677
21
-8.32288
0
LINE
8
BLACK
6
CONTINUOUS
10
12.677
20
-8.32288
11
12.677
21
-8.32288
0
LINE
8
BLACK
6
CONTINUOUS
10
12.677
20
-8.32288
11
12.6771
21
-8.32463
0
LINE
8
BLACK
6
CONTINUOUS
10
12.6771
20
-8.32463
11
12.6771
21
-8.32463
0
LINE
8
BLACK
6
CONTINUOUS
10
12.6771
20
-8.32463
11
12.6772
21
-8.32638
0
LINE
8
BLACK
6
CONTINUOUS
10
12.6772
20
-8.32638
11
12.6772
21
-8.37362
0
LINE
8
BLACK
6
CONTINUOUS
10
12.6772
20
-8.37362
11
12.6771
21
-8.37537
0
LINE
8
BLACK
6
CONTINUOUS
10
12.6771
20
-8.37537
11
12.6771
21
-8.37537
0
LINE
8
BLACK
6
CONTINUOUS
10
12.6771
20
-8.37537
11
12.677
21
-8.37712
0
LINE
8
BLACK
6
CONTINUOUS
10
12.677
20
-8.37712
11
12.677
21
-8.37712
0
LINE
8
BLACK
6
CONTINUOUS
10
12.677
20
-8.37712
11
12.6768
21
-8.37886
0
LINE
8
BLACK
6
CONTINUOUS
10
12.6768
20
-8.37886
11
12.6768
21
-8.37886
0
LINE
8
BLACK
6
CONTINUOUS
10
12.6768
20
-8.37886
11
12.6768
21
-8.37886
0
LINE
8
BLACK
6
CONTINUOUS
10
12.6768
20
-8.37886
11
12.6764
21
-8.38058
0
LINE
8
BLACK
6
CONTINUOUS
10
12.6764
20
-8.38058
11
12.6764
21
-8.38058
0
LINE
8
BLACK
6
CONTINUOUS
10
12.6764
20
-8.38058
11
12.6764
21
-8.38058
0
LINE
8
BLACK
6
CONTINUOUS
10
12.6764
20
-8.38058
11
12.676
21
-8.38228
0
LINE
8
BLACK
6
CONTINUOUS
10
12.676
20
-8.38228
11
12.676
21
-8.38228
0
LINE
8
BLACK
6
CONTINUOUS
10
12.676
20
-8.38228
11
12.676
21
-8.38228
0
LINE
8
BLACK
6
CONTINUOUS
10
12.676
20
-8.38228
11
12.6755
21
-8.38396
0
LINE
8
BLACK
6
CONTINUOUS
10
12.6755
20
-8.38396
11
12.6755
21
-8.38396
0
LINE
8
BLACK
6
CONTINUOUS
10
12.6755
20
-8.38396
11
12.6755
21
-8.38396
0
LINE
8
BLACK
6
CONTINUOUS
10
12.6755
20
-8.38396
11
12.6749
21
-8.38562
0
LINE
8
BLACK
6
CONTINUOUS
10
12.6749
20
-8.38562
11
12.6749
21
-8.38562
0
LINE
8
BLACK
6
CONTINUOUS
10
12.6749
20
-8.38562
11
12.6749
21
-8.38562
0
LINE
8
BLACK
6
CONTINUOUS
10
12.6749
20
-8.38562
11
12.6743
21
-8.38723
0
LINE
8
BLACK
6
CONTINUOUS
10
12.6743
20
-8.38723
11
12.6743
21
-8.38723
0
LINE
8
BLACK
6
CONTINUOUS
10
12.6743
20
-8.38723
11
12.6743
21
-8.38723
0
LINE
8
BLACK
6
CONTINUOUS
10
12.6743
20
-8.38723
11
12.6735
21
-8.38882
0
LINE
8
BLACK
6
CONTINUOUS
10
12.6735
20
-8.38882
11
12.6735
21
-8.38882
0
LINE
8
BLACK
6
CONTINUOUS
10
12.6735
20
-8.38882
11
12.6727
21
-8.39036
0
LINE
8
BLACK
6
CONTINUOUS
10
12.6727
20
-8.39036
11
12.6727
21
-8.39036
0
LINE
8
BLACK
6
CONTINUOUS
10
12.6727
20
-8.39036
11
12.6718
21
-8.39185
0
LINE
8
BLACK
6
CONTINUOUS
10
12.6718
20
-8.39185
11
12.6718
21
-8.39185
0
LINE
8
BLACK
6
CONTINUOUS
10
12.6718
20
-8.39185
11
12.6718
21
-8.39185
0
LINE
8
BLACK
6
CONTINUOUS
10
12.6718
20
-8.39185
11
12.6708
21
-8.39329
0
LINE
8
BLACK
6
CONTINUOUS
10
12.6708
20
-8.39329
11
12.6708
21
-8.39329
0
LINE
8
BLACK
6
CONTINUOUS
10
12.6708
20
-8.39329
11
12.6697
21
-8.39468
0
LINE
8
BLACK
6
CONTINUOUS
10
12.6697
20
-8.39468
11
12.6697
21
-8.39468
0
LINE
8
BLACK
6
CONTINUOUS
10
12.6697
20
-8.39468
11
12.6686
21
-8.39602
0
LINE
8
BLACK
6
CONTINUOUS
10
12.6686
20
-8.39602
11
12.6686
21
-8.39602
0
LINE
8
BLACK
6
CONTINUOUS
10
12.6686
20
-8.39602
11
12.6674
21
-8.39729
0
LINE
8
BLACK
6
CONTINUOUS
10
12.6674
20
-8.39729
11
12.6674
21
-8.39729
0
LINE
8
BLACK
6
CONTINUOUS
10
12.6674
20
-8.39729
11
12.6661
21
-8.39849
0
LINE
8
BLACK
6
CONTINUOUS
10
12.6661
20
-8.39849
11
12.6661
21
-8.39849
0
LINE
8
BLACK
6
CONTINUOUS
10
12.6661
20
-8.39849
11
12.6661
21
-8.39849
0
LINE
8
BLACK
6
CONTINUOUS
10
12.6661
20
-8.39849
11
12.6648
21
-8.39963
0
LINE
8
BLACK
6
CONTINUOUS
10
12.6648
20
-8.39963
11
12.6648
21
-8.39963
0
LINE
8
BLACK
6
CONTINUOUS
10
12.6648
20
-8.39963
11
12.6648
21
-8.39963
0
LINE
8
BLACK
6
CONTINUOUS
10
12.6648
20
-8.39963
11
12.6634
21
-8.4007
0
LINE
8
BLACK
6
CONTINUOUS
10
12.6634
20
-8.4007
11
12.6634
21
-8.4007
0
LINE
8
BLACK
6
CONTINUOUS
10
12.6634
20
-8.4007
11
12.6619
21
-8.40169
0
LINE
8
BLACK
6
CONTINUOUS
10
12.6619
20
-8.40169
11
12.6619
21
-8.40169
0
LINE
8
BLACK
6
CONTINUOUS
10
12.6619
20
-8.40169
11
12.6604
21
-8.4026
0
LINE
8
BLACK
6
CONTINUOUS
10
12.6604
20
-8.4026
11
12.6604
21
-8.4026
0
LINE
8
BLACK
6
CONTINUOUS
10
12.6604
20
-8.4026
11
12.6604
21
-8.4026
0
LINE
8
BLACK
6
CONTINUOUS
10
12.6604
20
-8.4026
11
12.6589
21
-8.40344
0
LINE
8
BLACK
6
CONTINUOUS
10
12.6589
20
-8.40344
11
12.6589
21
-8.40344
0
LINE
8
BLACK
6
CONTINUOUS
10
12.6589
20
-8.40344
11
12.6573
21
-8.4042
0
LINE
8
BLACK
6
CONTINUOUS
10
12.6573
20
-8.4042
11
12.6573
21
-8.4042
0
LINE
8
BLACK
6
CONTINUOUS
10
12.6573
20
-8.4042
11
12.6573
21
-8.4042
0
LINE
8
BLACK
6
CONTINUOUS
10
12.6573
20
-8.4042
11
12.6557
21
-8.40487
0
LINE
8
BLACK
6
CONTINUOUS
10
12.6557
20
-8.40487
11
12.6557
21
-8.40487
0
LINE
8
BLACK
6
CONTINUOUS
10
12.6557
20
-8.40487
11
12.6557
21
-8.40487
0
LINE
8
BLACK
6
CONTINUOUS
10
12.6557
20
-8.40487
11
12.654
21
-8.40545
0
LINE
8
BLACK
6
CONTINUOUS
10
12.654
20
-8.40545
11
12.654
21
-8.40545
0
LINE
8
BLACK
6
CONTINUOUS
10
12.654
20
-8.40545
11
12.6524
21
-8.40595
0
LINE
8
BLACK
6
CONTINUOUS
10
12.6524
20
-8.40595
11
12.6524
21
-8.40595
0
LINE
8
BLACK
6
CONTINUOUS
10
12.6524
20
-8.40595
11
12.6507
21
-8.40636
0
LINE
8
BLACK
6
CONTINUOUS
10
12.6507
20
-8.40636
11
12.6507
21
-8.40636
0
LINE
8
BLACK
6
CONTINUOUS
10
12.6507
20
-8.40636
11
12.6507
21
-8.40636
0
LINE
8
BLACK
6
CONTINUOUS
10
12.6507
20
-8.40636
11
12.6489
21
-8.40668
0
LINE
8
BLACK
6
CONTINUOUS
10
12.6489
20
-8.40668
11
12.6489
21
-8.40668
0
LINE
8
BLACK
6
CONTINUOUS
10
12.6489
20
-8.40668
11
12.6472
21
-8.40691
0
LINE
8
BLACK
6
CONTINUOUS
10
12.6472
20
-8.40691
11
12.6472
21
-8.40691
0
LINE
8
BLACK
6
CONTINUOUS
10
12.6472
20
-8.40691
11
12.6455
21
-8.40704
0
LINE
8
BLACK
6
CONTINUOUS
10
12.6455
20
-8.40704
11
12.6455
21
-8.40704
0
LINE
8
BLACK
6
CONTINUOUS
10
12.6455
20
-8.40704
11
12.6437
21
-8.40709
0
LINE
8
BLACK
6
CONTINUOUS
10
12.6437
20
-8.40709
11
12.6437
21
-8.40709
0
LINE
8
BLACK
6
CONTINUOUS
10
12.6437
20
-8.40709
11
12.6419
21
-8.40704
0
LINE
8
BLACK
6
CONTINUOUS
10
12.6419
20
-8.40704
11
12.6419
21
-8.40704
0
LINE
8
BLACK
6
CONTINUOUS
10
12.6419
20
-8.40704
11
12.6402
21
-8.40691
0
LINE
8
BLACK
6
CONTINUOUS
10
12.6402
20
-8.40691
11
12.6402
21
-8.40691
0
LINE
8
BLACK
6
CONTINUOUS
10
12.6402
20
-8.40691
11
12.6385
21
-8.40668
0
LINE
8
BLACK
6
CONTINUOUS
10
12.6385
20
-8.40668
11
12.6385
21
-8.40668
0
LINE
8
BLACK
6
CONTINUOUS
10
12.6385
20
-8.40668
11
12.6385
21
-8.40668
0
LINE
8
BLACK
6
CONTINUOUS
10
12.6385
20
-8.40668
11
12.6367
21
-8.40636
0
LINE
8
BLACK
6
CONTINUOUS
10
12.6367
20
-8.40636
11
12.6367
21
-8.40636
0
LINE
8
BLACK
6
CONTINUOUS
10
12.6367
20
-8.40636
11
12.635
21
-8.40595
0
LINE
8
BLACK
6
CONTINUOUS
10
12.635
20
-8.40595
11
12.635
21
-8.40595
0
LINE
8
BLACK
6
CONTINUOUS
10
12.635
20
-8.40595
11
12.635
21
-8.40595
0
LINE
8
BLACK
6
CONTINUOUS
10
12.635
20
-8.40595
11
12.6334
21
-8.40545
0
LINE
8
BLACK
6
CONTINUOUS
10
12.6334
20
-8.40545
11
12.6334
21
-8.40545
0
LINE
8
BLACK
6
CONTINUOUS
10
12.6334
20
-8.40545
11
12.6334
21
-8.40545
0
LINE
8
BLACK
6
CONTINUOUS
10
12.6334
20
-8.40545
11
12.6317
21
-8.40487
0
LINE
8
BLACK
6
CONTINUOUS
10
12.6317
20
-8.40487
11
12.6317
21
-8.40487
0
LINE
8
BLACK
6
CONTINUOUS
10
12.6317
20
-8.40487
11
12.6317
21
-8.40487
0
LINE
8
BLACK
6
CONTINUOUS
10
12.6317
20
-8.40487
11
12.6301
21
-8.4042
0
LINE
8
BLACK
6
CONTINUOUS
10
12.6301
20
-8.4042
11
12.6301
21
-8.4042
0
LINE
8
BLACK
6
CONTINUOUS
10
12.6301
20
-8.4042
11
12.6301
21
-8.4042
0
LINE
8
BLACK
6
CONTINUOUS
10
12.6301
20
-8.4042
11
12.6285
21
-8.40344
0
LINE
8
BLACK
6
CONTINUOUS
10
12.6285
20
-8.40344
11
12.6285
21
-8.40344
0
LINE
8
BLACK
6
CONTINUOUS
10
12.6285
20
-8.40344
11
12.627
21
-8.4026
0
LINE
8
BLACK
6
CONTINUOUS
10
12.627
20
-8.4026
11
12.627
21
-8.4026
0
LINE
8
BLACK
6
CONTINUOUS
10
12.627
20
-8.4026
11
12.6255
21
-8.40169
0
LINE
8
BLACK
6
CONTINUOUS
10
12.6255
20
-8.40169
11
12.6255
21
-8.40169
0
LINE
8
BLACK
6
CONTINUOUS
10
12.6255
20
-8.40169
11
12.6255
21
-8.40169
0
LINE
8
BLACK
6
CONTINUOUS
10
12.6255
20
-8.40169
11
12.6255
21
-8.40169
0
LINE
8
BLACK
6
CONTINUOUS
10
12.6255
20
-8.40169
11
12.624
21
-8.4007
0
LINE
8
BLACK
6
CONTINUOUS
10
12.624
20
-8.4007
11
12.624
21
-8.4007
0
LINE
8
BLACK
6
CONTINUOUS
10
12.624
20
-8.4007
11
12.624
21
-8.4007
0
LINE
8
BLACK
6
CONTINUOUS
10
12.624
20
-8.4007
11
12.6226
21
-8.39963
0
LINE
8
BLACK
6
CONTINUOUS
10
12.6226
20
-8.39963
11
12.6226
21
-8.39963
0
LINE
8
BLACK
6
CONTINUOUS
10
12.6226
20
-8.39963
11
12.6213
21
-8.39849
0
LINE
8
BLACK
6
CONTINUOUS
10
12.6213
20
-8.39849
11
12.6213
21
-8.39849
0
LINE
8
BLACK
6
CONTINUOUS
10
12.6213
20
-8.39849
11
12.62
21
-8.39729
0
LINE
8
BLACK
6
CONTINUOUS
10
12.62
20
-8.39729
11
12.62
21
-8.39729
0
LINE
8
BLACK
6
CONTINUOUS
10
12.62
20
-8.39729
11
12.62
21
-8.39729
0
LINE
8
BLACK
6
CONTINUOUS
10
12.62
20
-8.39729
11
12.6188
21
-8.39602
0
LINE
8
BLACK
6
CONTINUOUS
10
12.6188
20
-8.39602
11
12.6188
21
-8.39602
0
LINE
8
BLACK
6
CONTINUOUS
10
12.6188
20
-8.39602
11
12.6188
21
-8.39602
0
LINE
8
BLACK
6
CONTINUOUS
10
12.6188
20
-8.39602
11
12.6177
21
-8.39468
0
LINE
8
BLACK
6
CONTINUOUS
10
12.6177
20
-8.39468
11
12.6177
21
-8.39468
0
LINE
8
BLACK
6
CONTINUOUS
10
12.6177
20
-8.39468
11
12.6177
21
-8.39468
0
LINE
8
BLACK
6
CONTINUOUS
10
12.6177
20
-8.39468
11
12.6166
21
-8.39329
0
LINE
8
BLACK
6
CONTINUOUS
10
12.6166
20
-8.39329
11
12.6166
21
-8.39329
0
LINE
8
BLACK
6
CONTINUOUS
10
12.6166
20
-8.39329
11
12.6156
21
-8.39185
0
LINE
8
BLACK
6
CONTINUOUS
10
12.6156
20
-8.39185
11
12.6156
21
-8.39185
0
LINE
8
BLACK
6
CONTINUOUS
10
12.6156
20
-8.39185
11
12.6156
21
-8.39185
0
LINE
8
BLACK
6
CONTINUOUS
10
12.6156
20
-8.39185
11
12.6147
21
-8.39036
0
LINE
8
BLACK
6
CONTINUOUS
10
12.6147
20
-8.39036
11
12.6147
21
-8.39036
0
LINE
8
BLACK
6
CONTINUOUS
10
12.6147
20
-8.39036
11
12.6147
21
-8.39036
0
LINE
8
BLACK
6
CONTINUOUS
10
12.6147
20
-8.39036
11
12.6139
21
-8.38882
0
LINE
8
BLACK
6
CONTINUOUS
10
12.6139
20
-8.38882
11
12.6139
21
-8.38882
0
LINE
8
BLACK
6
CONTINUOUS
10
12.6139
20
-8.38882
11
12.6139
21
-8.38882
0
LINE
8
BLACK
6
CONTINUOUS
10
12.6139
20
-8.38882
11
12.6131
21
-8.38723
0
LINE
8
BLACK
6
CONTINUOUS
10
12.6131
20
-8.38723
11
12.6131
21
-8.38723
0
LINE
8
BLACK
6
CONTINUOUS
10
12.6131
20
-8.38723
11
12.6131
21
-8.38723
0
LINE
8
BLACK
6
CONTINUOUS
10
12.6131
20
-8.38723
11
12.6131
21
-8.38723
0
LINE
8
BLACK
6
CONTINUOUS
10
12.6131
20
-8.38723
11
12.6125
21
-8.38562
0
LINE
8
BLACK
6
CONTINUOUS
10
12.6125
20
-8.38562
11
12.6125
21
-8.38562
0
LINE
8
BLACK
6
CONTINUOUS
10
12.6125
20
-8.38562
11
12.6125
21
-8.38562
0
LINE
8
BLACK
6
CONTINUOUS
10
12.6125
20
-8.38562
11
12.6119
21
-8.38396
0
LINE
8
BLACK
6
CONTINUOUS
10
12.6119
20
-8.38396
11
12.6119
21
-8.38396
0
LINE
8
BLACK
6
CONTINUOUS
10
12.6119
20
-8.38396
11
12.6114
21
-8.38228
0
LINE
8
BLACK
6
CONTINUOUS
10
12.6114
20
-8.38228
11
12.6114
21
-8.38228
0
LINE
8
BLACK
6
CONTINUOUS
10
12.6114
20
-8.38228
11
12.6114
21
-8.38228
0
LINE
8
BLACK
6
CONTINUOUS
10
12.6114
20
-8.38228
11
12.611
21
-8.38058
0
LINE
8
BLACK
6
CONTINUOUS
10
12.611
20
-8.38058
11
12.611
21
-8.38058
0
LINE
8
BLACK
6
CONTINUOUS
10
12.611
20
-8.38058
11
12.611
21
-8.38058
0
LINE
8
BLACK
6
CONTINUOUS
10
12.611
20
-8.38058
11
12.611
21
-8.38058
0
LINE
8
BLACK
6
CONTINUOUS
10
12.611
20
-8.38058
11
12.6106
21
-8.37886
0
LINE
8
BLACK
6
CONTINUOUS
10
12.6106
20
-8.37886
11
12.6106
21
-8.37886
0
LINE
8
BLACK
6
CONTINUOUS
10
12.6106
20
-8.37886
11
12.6104
21
-8.37712
0
LINE
8
BLACK
6
CONTINUOUS
10
12.6104
20
-8.37712
11
12.6104
21
-8.37712
0
LINE
8
BLACK
6
CONTINUOUS
10
12.6104
20
-8.37712
11
12.6103
21
-8.37537
0
LINE
8
BLACK
6
CONTINUOUS
10
12.6103
20
-8.37537
11
12.6103
21
-8.37537
0
LINE
8
BLACK
6
CONTINUOUS
10
12.6103
20
-8.37537
11
12.6102
21
-8.37362
0
LINE
8
BLACK
6
CONTINUOUS
10
12.6102
20
-8.37362
11
12.6102
21
-8.32638
0
LINE
8
BLACK
6
CONTINUOUS
10
12.6102
20
-8.32638
11
12.6103
21
-8.32463
0
LINE
8
BLACK
6
CONTINUOUS
10
12.6103
20
-8.32463
11
12.6103
21
-8.32463
0
LINE
8
BLACK
6
CONTINUOUS
10
12.6103
20
-8.32463
11
12.6104
21
-8.32288
0
LINE
8
BLACK
6
CONTINUOUS
10
12.6104
20
-8.32288
11
12.6104
21
-8.32288
0
LINE
8
BLACK
6
CONTINUOUS
10
12.6104
20
-8.32288
11
12.6106
21
-8.32114
0
LINE
8
BLACK
6
CONTINUOUS
10
12.6106
20
-8.32114
11
12.6106
21
-8.32114
0
LINE
8
BLACK
6
CONTINUOUS
10
12.6106
20
-8.32114
11
12.6106
21
-8.32114
0
LINE
8
BLACK
6
CONTINUOUS
10
12.6106
20
-8.32114
11
12.611
21
-8.31942
0
LINE
8
BLACK
6
CONTINUOUS
10
12.611
20
-8.31942
11
12.611
21
-8.31942
0
LINE
8
BLACK
6
CONTINUOUS
10
12.611
20
-8.31942
11
12.6114
21
-8.31772
0
LINE
8
BLACK
6
CONTINUOUS
10
12.6114
20
-8.31772
11
12.6114
21
-8.31772
0
LINE
8
BLACK
6
CONTINUOUS
10
12.6114
20
-8.31772
11
12.6114
21
-8.31772
0
LINE
8
BLACK
6
CONTINUOUS
10
12.6114
20
-8.31772
11
12.6119
21
-8.31604
0
LINE
8
BLACK
6
CONTINUOUS
10
12.6119
20
-8.31604
11
12.6119
21
-8.31604
0
LINE
8
BLACK
6
CONTINUOUS
10
12.6119
20
-8.31604
11
12.6119
21
-8.31604
0
LINE
8
BLACK
6
CONTINUOUS
10
12.6119
20
-8.31604
11
12.6125
21
-8.31438
0
LINE
8
BLACK
6
CONTINUOUS
10
12.6125
20
-8.31438
11
12.6125
21
-8.31438
0
LINE
8
BLACK
6
CONTINUOUS
10
12.6125
20
-8.31438
11
12.6125
21
-8.31438
0
LINE
8
BLACK
6
CONTINUOUS
10
12.6125
20
-8.31438
11
12.6131
21
-8.31277
0
LINE
8
BLACK
6
CONTINUOUS
10
12.6131
20
-8.31277
11
12.6131
21
-8.31277
0
LINE
8
BLACK
6
CONTINUOUS
10
12.6131
20
-8.31277
11
12.6131
21
-8.31277
0
LINE
8
BLACK
6
CONTINUOUS
10
12.6131
20
-8.31277
11
12.6139
21
-8.31118
0
LINE
8
BLACK
6
CONTINUOUS
10
12.6139
20
-8.31118
11
12.6139
21
-8.31118
0
LINE
8
BLACK
6
CONTINUOUS
10
12.6139
20
-8.31118
11
12.6147
21
-8.30964
0
LINE
8
BLACK
6
CONTINUOUS
10
12.6147
20
-8.30964
11
12.6147
21
-8.30964
0
LINE
8
BLACK
6
CONTINUOUS
10
12.6147
20
-8.30964
11
12.6147
21
-8.30964
0
LINE
8
BLACK
6
CONTINUOUS
10
12.6147
20
-8.30964
11
12.6156
21
-8.30815
0
LINE
8
BLACK
6
CONTINUOUS
10
12.6156
20
-8.30815
11
12.6156
21
-8.30815
0
LINE
8
BLACK
6
CONTINUOUS
10
12.6156
20
-8.30815
11
12.6166
21
-8.30671
0
LINE
8
BLACK
6
CONTINUOUS
10
12.6166
20
-8.30671
11
12.6166
21
-8.30671
0
LINE
8
BLACK
6
CONTINUOUS
10
12.6166
20
-8.30671
11
12.6166
21
-8.30671
0
LINE
8
BLACK
6
CONTINUOUS
10
12.6166
20
-8.30671
11
12.6177
21
-8.30532
0
LINE
8
BLACK
6
CONTINUOUS
10
12.6177
20
-8.30532
11
12.6177
21
-8.30532
0
LINE
8
BLACK
6
CONTINUOUS
10
12.6177
20
-8.30532
11
12.6188
21
-8.30398
0
LINE
8
BLACK
6
CONTINUOUS
10
12.6188
20
-8.30398
11
12.6188
21
-8.30398
0
LINE
8
BLACK
6
CONTINUOUS
10
12.6188
20
-8.30398
11
12.6188
21
-8.30398
0
LINE
8
BLACK
6
CONTINUOUS
10
12.6188
20
-8.30398
11
12.62
21
-8.30271
0
LINE
8
BLACK
6
CONTINUOUS
10
12.62
20
-8.30271
11
12.62
21
-8.30271
0
LINE
8
BLACK
6
CONTINUOUS
10
12.62
20
-8.30271
11
12.62
21
-8.30271
0
LINE
8
BLACK
6
CONTINUOUS
10
12.62
20
-8.30271
11
12.6213
21
-8.30151
0
LINE
8
BLACK
6
CONTINUOUS
10
12.6213
20
-8.30151
11
12.6213
21
-8.30151
0
LINE
8
BLACK
6
CONTINUOUS
10
12.6213
20
-8.30151
11
12.6213
21
-8.30151
0
LINE
8
BLACK
6
CONTINUOUS
10
12.6213
20
-8.30151
11
12.6226
21
-8.30037
0
LINE
8
BLACK
6
CONTINUOUS
10
12.6226
20
-8.30037
11
12.6226
21
-8.30037
0
LINE
8
BLACK
6
CONTINUOUS
10
12.6226
20
-8.30037
11
12.6226
21
-8.30037
0
LINE
8
BLACK
6
CONTINUOUS
10
12.6226
20
-8.30037
11
12.624
21
-8.2993
0
LINE
8
BLACK
6
CONTINUOUS
10
12.624
20
-8.2993
11
12.624
21
-8.2993
0
LINE
8
BLACK
6
CONTINUOUS
10
12.624
20
-8.2993
11
12.624
21
-8.2993
0
LINE
8
BLACK
6
CONTINUOUS
10
12.624
20
-8.2993
11
12.6255
21
-8.29831
0
LINE
8
BLACK
6
CONTINUOUS
10
12.6255
20
-8.29831
11
12.6255
21
-8.29831
0
LINE
8
BLACK
6
CONTINUOUS
10
12.6255
20
-8.29831
11
12.627
21
-8.2974
0
LINE
8
BLACK
6
CONTINUOUS
10
12.627
20
-8.2974
11
12.627
21
-8.2974
0
LINE
8
BLACK
6
CONTINUOUS
10
12.627
20
-8.2974
11
12.627
21
-8.2974
0
LINE
8
BLACK
6
CONTINUOUS
10
12.627
20
-8.2974
11
12.6285
21
-8.29656
0
LINE
8
BLACK
6
CONTINUOUS
10
12.6285
20
-8.29656
11
12.6285
21
-8.29656
0
LINE
8
BLACK
6
CONTINUOUS
10
12.6285
20
-8.29656
11
12.6285
21
-8.29656
0
LINE
8
BLACK
6
CONTINUOUS
10
12.6285
20
-8.29656
11
12.6301
21
-8.2958
0
LINE
8
BLACK
6
CONTINUOUS
10
12.6301
20
-8.2958
11
12.6301
21
-8.2958
0
LINE
8
BLACK
6
CONTINUOUS
10
12.6301
20
-8.2958
11
12.6301
21
-8.2958
0
LINE
8
BLACK
6
CONTINUOUS
10
12.6301
20
-8.2958
11
12.6317
21
-8.29513
0
LINE
8
BLACK
6
CONTINUOUS
10
12.6317
20
-8.29513
11
12.6317
21
-8.29513
0
LINE
8
BLACK
6
CONTINUOUS
10
12.6317
20
-8.29513
11
12.6317
21
-8.29513
0
LINE
8
BLACK
6
CONTINUOUS
10
12.6317
20
-8.29513
11
12.6334
21
-8.29455
0
LINE
8
BLACK
6
CONTINUOUS
10
12.6334
20
-8.29455
11
12.6334
21
-8.29455
0
LINE
8
BLACK
6
CONTINUOUS
10
12.6334
20
-8.29455
11
12.6334
21
-8.29455
0
LINE
8
BLACK
6
CONTINUOUS
10
12.6334
20
-8.29455
11
12.635
21
-8.29405
0
LINE
8
BLACK
6
CONTINUOUS
10
12.635
20
-8.29405
11
12.635
21
-8.29405
0
LINE
8
BLACK
6
CONTINUOUS
10
12.635
20
-8.29405
11
12.6367
21
-8.29364
0
LINE
8
BLACK
6
CONTINUOUS
10
12.6367
20
-8.29364
11
12.6367
21
-8.29364
0
LINE
8
BLACK
6
CONTINUOUS
10
12.6367
20
-8.29364
11
12.6367
21
-8.29364
0
LINE
8
BLACK
6
CONTINUOUS
10
12.6367
20
-8.29364
11
12.6385
21
-8.29332
0
LINE
8
BLACK
6
CONTINUOUS
10
12.6385
20
-8.29332
11
12.6385
21
-8.29332
0
LINE
8
BLACK
6
CONTINUOUS
10
12.6385
20
-8.29332
11
12.6402
21
-8.29309
0
LINE
8
BLACK
6
CONTINUOUS
10
12.6402
20
-8.29309
11
12.6402
21
-8.29309
0
LINE
8
BLACK
6
CONTINUOUS
10
12.6402
20
-8.29309
11
12.6419
21
-8.29296
0
LINE
8
BLACK
6
CONTINUOUS
10
12.6419
20
-8.29296
11
12.6419
21
-8.29296
0
LINE
8
BLACK
6
CONTINUOUS
10
12.6419
20
-8.29296
11
12.6437
21
-8.29291
0
LINE
8
BLACK
6
CONTINUOUS
10
12.6437
20
-8.29291
11
12.6437
21
-8.29291
0
LINE
8
BLACK
6
CONTINUOUS
10
12.6437
20
-8.29291
11
12.6455
21
-8.29296
0
LINE
8
BLACK
6
CONTINUOUS
10
12.6455
20
-8.29296
11
12.6455
21
-8.29296
0
LINE
8
BLACK
6
CONTINUOUS
10
12.6455
20
-8.29296
11
12.6472
21
-8.29309
0
LINE
8
BLACK
6
CONTINUOUS
10
12.6472
20
-8.29309
11
12.6472
21
-8.29309
0
LINE
8
BLACK
6
CONTINUOUS
10
12.6472
20
-8.29309
11
12.6489
21
-8.29332
0
LINE
8
BLACK
6
CONTINUOUS
10
12.6489
20
-8.29332
11
12.6489
21
-8.29332
0
LINE
8
BLACK
6
CONTINUOUS
10
12.6489
20
-8.29332
11
12.6489
21
-8.29332
0
LINE
8
BLACK
6
CONTINUOUS
10
12.6489
20
-8.29332
11
12.6507
21
-8.29364
0
LINE
8
BLACK
6
CONTINUOUS
10
12.6507
20
-8.29364
11
12.6507
21
-8.29364
0
LINE
8
BLACK
6
CONTINUOUS
10
12.6507
20
-8.29364
11
12.6524
21
-8.29405
0
LINE
8
BLACK
6
CONTINUOUS
10
12.6524
20
-8.29405
11
12.6524
21
-8.29405
0
LINE
8
BLACK
6
CONTINUOUS
10
12.6524
20
-8.29405
11
12.6524
21
-8.29405
0
LINE
8
BLACK
6
CONTINUOUS
10
12.6524
20
-8.29405
11
12.654
21
-8.29455
0
LINE
8
BLACK
6
CONTINUOUS
10
12.654
20
-8.29455
11
12.654
21
-8.29455
0
LINE
8
BLACK
6
CONTINUOUS
10
12.654
20
-8.29455
11
12.654
21
-8.29455
0
LINE
8
BLACK
6
CONTINUOUS
10
12.654
20
-8.29455
11
12.6557
21
-8.29513
0
LINE
8
BLACK
6
CONTINUOUS
10
12.6557
20
-8.29513
11
12.6557
21
-8.29513
0
LINE
8
BLACK
6
CONTINUOUS
10
12.6557
20
-8.29513
11
12.6557
21
-8.29513
0
LINE
8
BLACK
6
CONTINUOUS
10
12.6557
20
-8.29513
11
12.6573
21
-8.2958
0
LINE
8
BLACK
6
CONTINUOUS
10
12.6573
20
-8.2958
11
12.6573
21
-8.2958
0
LINE
8
BLACK
6
CONTINUOUS
10
12.6573
20
-8.2958
11
12.6573
21
-8.2958
0
LINE
8
BLACK
6
CONTINUOUS
10
12.6573
20
-8.2958
11
12.6573
21
-8.2958
0
LINE
8
BLACK
6
CONTINUOUS
10
12.6573
20
-8.2958
11
12.6589
21
-8.29656
0
LINE
8
BLACK
6
CONTINUOUS
10
12.6589
20
-8.29656
11
12.6589
21
-8.29656
0
LINE
8
BLACK
6
CONTINUOUS
10
12.6589
20
-8.29656
11
12.6604
21
-8.2974
0
LINE
8
BLACK
6
CONTINUOUS
10
12.6604
20
-8.2974
11
12.6604
21
-8.2974
0
LINE
8
BLACK
6
CONTINUOUS
10
12.6604
20
-8.2974
11
12.6619
21
-8.29831
0
LINE
8
BLACK
6
CONTINUOUS
10
12.6619
20
-8.29831
11
12.6619
21
-8.29831
0
LINE
8
BLACK
6
CONTINUOUS
10
12.6619
20
-8.29831
11
12.6619
21
-8.29831
0
LINE
8
BLACK
6
CONTINUOUS
10
12.6619
20
-8.29831
11
12.6619
21
-8.29831
0
LINE
8
BLACK
6
CONTINUOUS
10
12.6619
20
-8.29831
11
12.6634
21
-8.2993
0
LINE
8
BLACK
6
CONTINUOUS
10
12.6634
20
-8.2993
11
12.6634
21
-8.2993
0
LINE
8
BLACK
6
CONTINUOUS
10
12.6634
20
-8.2993
11
12.6634
21
-8.2993
0
LINE
8
BLACK
6
CONTINUOUS
10
12.6634
20
-8.2993
11
12.6634
21
-8.2993
0
LINE
8
BLACK
6
CONTINUOUS
10
12.6634
20
-8.2993
11
12.6634
21
-8.2993
0
LINE
8
BLACK
6
CONTINUOUS
10
12.6634
20
-8.2993
11
12.6648
21
-8.30037
0
LINE
8
BLACK
6
CONTINUOUS
10
12.6648
20
-8.30037
11
12.6648
21
-8.30037
0
LINE
8
BLACK
6
CONTINUOUS
10
12.6648
20
-8.30037
11
12.6661
21
-8.30151
0
LINE
8
BLACK
6
CONTINUOUS
10
12.6661
20
-8.30151
11
12.6661
21
-8.30151
0
LINE
8
BLACK
6
CONTINUOUS
10
12.6661
20
-8.30151
11
12.6674
21
-8.30271
0
LINE
8
BLACK
6
CONTINUOUS
10
12.6299
20
-8.37434
11
12.6299
21
-8.37434
0
LINE
8
BLACK
6
CONTINUOUS
10
12.6299
20
-8.37434
11
12.63
21
-8.37506
0
LINE
8
BLACK
6
CONTINUOUS
10
12.63
20
-8.37506
11
12.63
21
-8.37506
0
LINE
8
BLACK
6
CONTINUOUS
10
12.63
20
-8.37506
11
12.6301
21
-8.37578
0
LINE
8
BLACK
6
CONTINUOUS
10
12.6301
20
-8.37578
11
12.6302
21
-8.37649
0
LINE
8
BLACK
6
CONTINUOUS
10
12.6302
20
-8.37649
11
12.6302
21
-8.37649
0
LINE
8
BLACK
6
CONTINUOUS
10
12.6302
20
-8.37649
11
12.6304
21
-8.37719
0
LINE
8
BLACK
6
CONTINUOUS
10
12.6304
20
-8.37719
11
12.6306
21
-8.37788
0
LINE
8
BLACK
6
CONTINUOUS
10
12.6306
20
-8.37788
11
12.6308
21
-8.37856
0
LINE
8
BLACK
6
CONTINUOUS
10
12.6308
20
-8.37856
11
12.6311
21
-8.37923
0
LINE
8
BLACK
6
CONTINUOUS
10
12.6311
20
-8.37923
11
12.6311
21
-8.37923
0
LINE
8
BLACK
6
CONTINUOUS
10
12.6311
20
-8.37923
11
12.6314
21
-8.37988
0
LINE
8
BLACK
6
CONTINUOUS
10
12.6314
20
-8.37988
11
12.6318
21
-8.38051
0
LINE
8
BLACK
6
CONTINUOUS
10
12.6318
20
-8.38051
11
12.6318
21
-8.38051
0
LINE
8
BLACK
6
CONTINUOUS
10
12.6318
20
-8.38051
11
12.6321
21
-8.38113
0
LINE
8
BLACK
6
CONTINUOUS
10
12.6321
20
-8.38113
11
12.6321
21
-8.38113
0
LINE
8
BLACK
6
CONTINUOUS
10
12.6321
20
-8.38113
11
12.6326
21
-8.38172
0
LINE
8
BLACK
6
CONTINUOUS
10
12.6326
20
-8.38172
11
12.6326
21
-8.38172
0
LINE
8
BLACK
6
CONTINUOUS
10
12.6326
20
-8.38172
11
12.633
21
-8.38229
0
LINE
8
BLACK
6
CONTINUOUS
10
12.633
20
-8.38229
11
12.6335
21
-8.38284
0
LINE
8
BLACK
6
CONTINUOUS
10
12.6335
20
-8.38284
11
12.6335
21
-8.38284
0
LINE
8
BLACK
6
CONTINUOUS
10
12.6335
20
-8.38284
11
12.6335
21
-8.38284
0
LINE
8
BLACK
6
CONTINUOUS
10
12.6335
20
-8.38284
11
12.6335
21
-8.38284
0
LINE
8
BLACK
6
CONTINUOUS
10
12.6335
20
-8.38284
11
12.634
21
-8.38336
0
LINE
8
BLACK
6
CONTINUOUS
10
12.634
20
-8.38336
11
12.634
21
-8.38336
0
LINE
8
BLACK
6
CONTINUOUS
10
12.634
20
-8.38336
11
12.634
21
-8.38336
0
LINE
8
BLACK
6
CONTINUOUS
10
12.634
20
-8.38336
11
12.634
21
-8.38336
0
LINE
8
BLACK
6
CONTINUOUS
10
12.634
20
-8.38336
11
12.6345
21
-8.38386
0
LINE
8
BLACK
6
CONTINUOUS
10
12.6345
20
-8.38386
11
12.6345
21
-8.38386
0
LINE
8
BLACK
6
CONTINUOUS
10
12.6345
20
-8.38386
11
12.635
21
-8.38433
0
LINE
8
BLACK
6
CONTINUOUS
10
12.635
20
-8.38433
11
12.6356
21
-8.38477
0
LINE
8
BLACK
6
CONTINUOUS
10
12.6356
20
-8.38477
11
12.6362
21
-8.38518
0
LINE
8
BLACK
6
CONTINUOUS
10
12.6362
20
-8.38518
11
12.6362
21
-8.38518
0
LINE
8
BLACK
6
CONTINUOUS
10
12.6362
20
-8.38518
11
12.6368
21
-8.38555
0
LINE
8
BLACK
6
CONTINUOUS
10
12.6368
20
-8.38555
11
12.6374
21
-8.3859
0
LINE
8
BLACK
6
CONTINUOUS
10
12.6374
20
-8.3859
11
12.6374
21
-8.3859
0
LINE
8
BLACK
6
CONTINUOUS
10
12.6374
20
-8.3859
11
12.6381
21
-8.38621
0
LINE
8
BLACK
6
CONTINUOUS
10
12.6381
20
-8.38621
11
12.6381
21
-8.38621
0
LINE
8
BLACK
6
CONTINUOUS
10
12.6381
20
-8.38621
11
12.6381
21
-8.38621
0
LINE
8
BLACK
6
CONTINUOUS
10
12.6381
20
-8.38621
11
12.6381
21
-8.38621
0
LINE
8
BLACK
6
CONTINUOUS
10
12.6381
20
-8.38621
11
12.6388
21
-8.38648
0
LINE
8
BLACK
6
CONTINUOUS
10
12.6388
20
-8.38648
11
12.6388
21
-8.38648
0
LINE
8
BLACK
6
CONTINUOUS
10
12.6388
20
-8.38648
11
12.6394
21
-8.38673
0
LINE
8
BLACK
6
CONTINUOUS
10
12.6394
20
-8.38673
11
12.6401
21
-8.38693
0
LINE
8
BLACK
6
CONTINUOUS
10
12.6401
20
-8.38693
11
12.6401
21
-8.38693
0
LINE
8
BLACK
6
CONTINUOUS
10
12.6401
20
-8.38693
11
12.6408
21
-8.3871
0
LINE
8
BLACK
6
CONTINUOUS
10
12.6408
20
-8.3871
11
12.6415
21
-8.38723
0
LINE
8
BLACK
6
CONTINUOUS
10
12.6415
20
-8.38723
11
12.6415
21
-8.38723
0
LINE
8
BLACK
6
CONTINUOUS
10
12.6415
20
-8.38723
11
12.6423
21
-8.38732
0
LINE
8
BLACK
6
CONTINUOUS
10
12.6423
20
-8.38732
11
12.643
21
-8.38738
0
LINE
8
BLACK
6
CONTINUOUS
10
12.643
20
-8.38738
11
12.643
21
-8.38738
0
LINE
8
BLACK
6
CONTINUOUS
10
12.643
20
-8.38738
11
12.6437
21
-8.3874
0
LINE
8
BLACK
6
CONTINUOUS
10
12.6437
20
-8.3874
11
12.6444
21
-8.38738
0
LINE
8
BLACK
6
CONTINUOUS
10
12.6444
20
-8.38738
11
12.6451
21
-8.38732
0
LINE
8
BLACK
6
CONTINUOUS
10
12.6451
20
-8.38732
11
12.6451
21
-8.38732
0
LINE
8
BLACK
6
CONTINUOUS
10
12.6451
20
-8.38732
11
12.6459
21
-8.38723
0
LINE
8
BLACK
6
CONTINUOUS
10
12.6459
20
-8.38723
11
12.6459
21
-8.38723
0
LINE
8
BLACK
6
CONTINUOUS
10
12.6459
20
-8.38723
11
12.6466
21
-8.3871
0
LINE
8
BLACK
6
CONTINUOUS
10
12.6466
20
-8.3871
11
12.6466
21
-8.3871
0
LINE
8
BLACK
6
CONTINUOUS
10
12.6466
20
-8.3871
11
12.6473
21
-8.38693
0
LINE
8
BLACK
6
CONTINUOUS
10
12.6473
20
-8.38693
11
12.6473
21
-8.38693
0
LINE
8
BLACK
6
CONTINUOUS
10
12.6473
20
-8.38693
11
12.648
21
-8.38673
0
LINE
8
BLACK
6
CONTINUOUS
10
12.648
20
-8.38673
11
12.6486
21
-8.38648
0
LINE
8
BLACK
6
CONTINUOUS
10
12.6486
20
-8.38648
11
12.6493
21
-8.38621
0
LINE
8
BLACK
6
CONTINUOUS
10
12.6493
20
-8.38621
11
12.6493
21
-8.38621
0
LINE
8
BLACK
6
CONTINUOUS
10
12.6493
20
-8.38621
11
12.65
21
-8.3859
0
LINE
8
BLACK
6
CONTINUOUS
10
12.65
20
-8.3859
11
12.6506
21
-8.38555
0
LINE
8
BLACK
6
CONTINUOUS
10
12.6506
20
-8.38555
11
12.6512
21
-8.38518
0
LINE
8
BLACK
6
CONTINUOUS
10
12.6512
20
-8.38518
11
12.6512
21
-8.38518
0
LINE
8
BLACK
6
CONTINUOUS
10
12.6512
20
-8.38518
11
12.6518
21
-8.38477
0
LINE
8
BLACK
6
CONTINUOUS
10
12.6518
20
-8.38477
11
12.6518
21
-8.38477
0
LINE
8
BLACK
6
CONTINUOUS
10
12.6518
20
-8.38477
11
12.6524
21
-8.38433
0
LINE
8
BLACK
6
CONTINUOUS
10
12.6524
20
-8.38433
11
12.6529
21
-8.38386
0
LINE
8
BLACK
6
CONTINUOUS
10
12.6529
20
-8.38386
11
12.6529
21
-8.38386
0
LINE
8
BLACK
6
CONTINUOUS
10
12.6529
20
-8.38386
11
12.6529
21
-8.38386
0
LINE
8
BLACK
6
CONTINUOUS
10
12.6529
20
-8.38386
11
12.6534
21
-8.38336
0
LINE
8
BLACK
6
CONTINUOUS
10
12.6534
20
-8.38336
11
12.6534
21
-8.38336
0
LINE
8
BLACK
6
CONTINUOUS
10
12.6534
20
-8.38336
11
12.6534
21
-8.38336
0
LINE
8
BLACK
6
CONTINUOUS
10
12.6534
20
-8.38336
11
12.6539
21
-8.38284
0
LINE
8
BLACK
6
CONTINUOUS
10
12.6539
20
-8.38284
11
12.6539
21
-8.38284
0
LINE
8
BLACK
6
CONTINUOUS
10
12.6539
20
-8.38284
11
12.6544
21
-8.38229
0
LINE
8
BLACK
6
CONTINUOUS
10
12.6544
20
-8.38229
11
12.6548
21
-8.38172
0
LINE
8
BLACK
6
CONTINUOUS
10
12.6548
20
-8.38172
11
12.6553
21
-8.38113
0
LINE
8
BLACK
6
CONTINUOUS
10
12.6553
20
-8.38113
11
12.6553
21
-8.38113
0
LINE
8
BLACK
6
CONTINUOUS
10
12.6553
20
-8.38113
11
12.6556
21
-8.38051
0
LINE
8
BLACK
6
CONTINUOUS
10
12.6556
20
-8.38051
11
12.6556
21
-8.38051
0
LINE
8
BLACK
6
CONTINUOUS
10
12.6556
20
-8.38051
11
12.6556
21
-8.38051
0
LINE
8
BLACK
6
CONTINUOUS
10
12.6556
20
-8.38051
11
12.656
21
-8.37988
0
LINE
8
BLACK
6
CONTINUOUS
10
12.656
20
-8.37988
11
12.6563
21
-8.37923
0
LINE
8
BLACK
6
CONTINUOUS
10
12.6563
20
-8.37923
11
12.6563
21
-8.37923
0
LINE
8
BLACK
6
CONTINUOUS
10
12.6563
20
-8.37923
11
12.6563
21
-8.37923
0
LINE
8
BLACK
6
CONTINUOUS
10
12.6563
20
-8.37923
11
12.6566
21
-8.37856
0
LINE
8
BLACK
6
CONTINUOUS
10
12.6566
20
-8.37856
11
12.6566
21
-8.37856
0
LINE
8
BLACK
6
CONTINUOUS
10
12.6566
20
-8.37856
11
12.6568
21
-8.37788
0
LINE
8
BLACK
6
CONTINUOUS
10
12.6568
20
-8.37788
11
12.657
21
-8.37719
0
LINE
8
BLACK
6
CONTINUOUS
10
12.657
20
-8.37719
11
12.6572
21
-8.37649
0
LINE
8
BLACK
6
CONTINUOUS
10
12.6572
20
-8.37649
11
12.6572
21
-8.37649
0
LINE
8
BLACK
6
CONTINUOUS
10
12.6572
20
-8.37649
11
12.6573
21
-8.37578
0
LINE
8
BLACK
6
CONTINUOUS
10
12.6573
20
-8.37578
11
12.6573
21
-8.37578
0
LINE
8
BLACK
6
CONTINUOUS
10
12.6573
20
-8.37578
11
12.6574
21
-8.37506
0
LINE
8
BLACK
6
CONTINUOUS
10
12.6574
20
-8.37506
11
12.6575
21
-8.37434
0
LINE
8
BLACK
6
CONTINUOUS
10
12.6575
20
-8.37434
11
12.6575
21
-8.37434
0
LINE
8
BLACK
6
CONTINUOUS
10
12.6575
20
-8.37434
11
12.6575
21
-8.37362
0
LINE
8
BLACK
6
CONTINUOUS
10
12.6575
20
-8.37362
11
12.6575
21
-8.32638
0
LINE
8
BLACK
6
CONTINUOUS
10
12.6575
20
-8.32638
11
12.6575
21
-8.32566
0
LINE
8
BLACK
6
CONTINUOUS
10
12.6575
20
-8.32566
11
12.6575
21
-8.32566
0
LINE
8
BLACK
6
CONTINUOUS
10
12.6575
20
-8.32566
11
12.6574
21
-8.32494
0
LINE
8
BLACK
6
CONTINUOUS
10
12.6574
20
-8.32494
11
12.6573
21
-8.32422
0
LINE
8
BLACK
6
CONTINUOUS
10
12.6573
20
-8.32422
11
12.6573
21
-8.32422
0
LINE
8
BLACK
6
CONTINUOUS
10
12.6573
20
-8.32422
11
12.6572
21
-8.32351
0
LINE
8
BLACK
6
CONTINUOUS
10
12.6572
20
-8.32351
11
12.6572
21
-8.32351
0
LINE
8
BLACK
6
CONTINUOUS
10
12.6572
20
-8.32351
11
12.657
21
-8.32281
0
LINE
8
BLACK
6
CONTINUOUS
10
12.657
20
-8.32281
11
12.657
21
-8.32281
0
LINE
8
BLACK
6
CONTINUOUS
10
12.657
20
-8.32281
11
12.6568
21
-8.32212
0
LINE
8
BLACK
6
CONTINUOUS
10
12.6568
20
-8.32212
11
12.6568
21
-8.32212
0
LINE
8
BLACK
6
CONTINUOUS
10
12.6568
20
-8.32212
11
12.6566
21
-8.32144
0
LINE
8
BLACK
6
CONTINUOUS
10
12.6566
20
-8.32144
11
12.6566
21
-8.32144
0
LINE
8
BLACK
6
CONTINUOUS
10
12.6566
20
-8.32144
11
12.6563
21
-8.32077
0
LINE
8
BLACK
6
CONTINUOUS
10
12.6563
20
-8.32077
11
12.6563
21
-8.32077
0
LINE
8
BLACK
6
CONTINUOUS
10
12.6563
20
-8.32077
11
12.6563
21
-8.32077
0
LINE
8
BLACK
6
CONTINUOUS
10
12.6563
20
-8.32077
11
12.656
21
-8.32012
0
LINE
8
BLACK
6
CONTINUOUS
10
12.656
20
-8.32012
11
12.656
21
-8.32012
0
LINE
8
BLACK
6
CONTINUOUS
10
12.656
20
-8.32012
11
12.656
21
-8.32012
0
LINE
8
BLACK
6
CONTINUOUS
10
12.656
20
-8.32012
11
12.6556
21
-8.31949
0
LINE
8
BLACK
6
CONTINUOUS
10
12.6556
20
-8.31949
11
12.6553
21
-8.31887
0
LINE
8
BLACK
6
CONTINUOUS
10
12.6553
20
-8.31887
11
12.6553
21
-8.31887
0
LINE
8
BLACK
6
CONTINUOUS
10
12.6553
20
-8.31887
11
12.6548
21
-8.31828
0
LINE
8
BLACK
6
CONTINUOUS
10
12.6548
20
-8.31828
11
12.6548
21
-8.31828
0
LINE
8
BLACK
6
CONTINUOUS
10
12.6548
20
-8.31828
11
12.6544
21
-8.31771
0
LINE
8
BLACK
6
CONTINUOUS
10
12.6544
20
-8.31771
11
12.6539
21
-8.31716
0
LINE
8
BLACK
6
CONTINUOUS
10
12.6539
20
-8.31716
11
12.6539
21
-8.31716
0
LINE
8
BLACK
6
CONTINUOUS
10
12.6539
20
-8.31716
11
12.6534
21
-8.31664
0
LINE
8
BLACK
6
CONTINUOUS
10
12.6534
20
-8.31664
11
12.6534
21
-8.31664
0
LINE
8
BLACK
6
CONTINUOUS
10
12.6534
20
-8.31664
11
12.6534
21
-8.31664
0
LINE
8
BLACK
6
CONTINUOUS
10
12.6534
20
-8.31664
11
12.6529
21
-8.31614
0
LINE
8
BLACK
6
CONTINUOUS
10
12.6529
20
-8.31614
11
12.6529
21
-8.31614
0
LINE
8
BLACK
6
CONTINUOUS
10
12.6529
20
-8.31614
11
12.6529
21
-8.31614
0
LINE
8
BLACK
6
CONTINUOUS
10
12.6529
20
-8.31614
11
12.6524
21
-8.31567
0
LINE
8
BLACK
6
CONTINUOUS
10
12.6524
20
-8.31567
11
12.6518
21
-8.31523
0
LINE
8
BLACK
6
CONTINUOUS
10
12.6518
20
-8.31523
11
12.6518
21
-8.31523
0
LINE
8
BLACK
6
CONTINUOUS
10
12.6518
20
-8.31523
11
12.6518
21
-8.31523
0
LINE
8
BLACK
6
CONTINUOUS
10
12.6518
20
-8.31523
11
12.6512
21
-8.31482
0
LINE
8
BLACK
6
CONTINUOUS
10
12.6512
20
-8.31482
11
12.6512
21
-8.31482
0
LINE
8
BLACK
6
CONTINUOUS
10
12.6512
20
-8.31482
11
12.6512
21
-8.31482
0
LINE
8
BLACK
6
CONTINUOUS
10
12.6512
20
-8.31482
11
12.6506
21
-8.31445
0
LINE
8
BLACK
6
CONTINUOUS
10
12.6506
20
-8.31445
11
12.65
21
-8.3141
0
LINE
8
BLACK
6
CONTINUOUS
10
12.65
20
-8.3141
11
12.6493
21
-8.31379
0
LINE
8
BLACK
6
CONTINUOUS
10
12.6493
20
-8.31379
11
12.6493
21
-8.31379
0
LINE
8
BLACK
6
CONTINUOUS
10
12.6493
20
-8.31379
11
12.6486
21
-8.31352
0
LINE
8
BLACK
6
CONTINUOUS
10
12.6486
20
-8.31352
11
12.6486
21
-8.31352
0
LINE
8
BLACK
6
CONTINUOUS
10
12.6486
20
-8.31352
11
12.648
21
-8.31327
0
LINE
8
BLACK
6
CONTINUOUS
10
12.648
20
-8.31327
11
12.648
21
-8.31327
0
LINE
8
BLACK
6
CONTINUOUS
10
12.648
20
-8.31327
11
12.6473
21
-8.31307
0
LINE
8
BLACK
6
CONTINUOUS
10
12.6473
20
-8.31307
11
12.6473
21
-8.31307
0
LINE
8
BLACK
6
CONTINUOUS
10
12.6473
20
-8.31307
11
12.6466
21
-8.3129
0
LINE
8
BLACK
6
CONTINUOUS
10
12.6466
20
-8.3129
11
12.6466
21
-8.3129
0
LINE
8
BLACK
6
CONTINUOUS
10
12.6466
20
-8.3129
11
12.6459
21
-8.31277
0
LINE
8
BLACK
6
CONTINUOUS
10
12.6459
20
-8.31277
11
12.6459
21
-8.31277
0
LINE
8
BLACK
6
CONTINUOUS
10
12.6459
20
-8.31277
11
12.6451
21
-8.31268
0
LINE
8
BLACK
6
CONTINUOUS
10
12.6451
20
-8.31268
11
12.6444
21
-8.31262
0
LINE
8
BLACK
6
CONTINUOUS
10
12.6444
20
-8.31262
11
12.6444
21
-8.31262
0
LINE
8
BLACK
6
CONTINUOUS
10
12.6444
20
-8.31262
11
12.6437
21
-8.3126
0
LINE
8
BLACK
6
CONTINUOUS
10
12.6437
20
-8.3126
11
12.643
21
-8.31262
0
LINE
8
BLACK
6
CONTINUOUS
10
12.643
20
-8.31262
11
12.6423
21
-8.31268
0
LINE
8
BLACK
6
CONTINUOUS
10
12.6423
20
-8.31268
11
12.6423
21
-8.31268
0
LINE
8
BLACK
6
CONTINUOUS
10
12.6423
20
-8.31268
11
12.6415
21
-8.31277
0
LINE
8
BLACK
6
CONTINUOUS
10
12.6415
20
-8.31277
11
12.6415
21
-8.31277
0
LINE
8
BLACK
6
CONTINUOUS
10
12.6415
20
-8.31277
11
12.6408
21
-8.3129
0
LINE
8
BLACK
6
CONTINUOUS
10
12.6408
20
-8.3129
11
12.6408
21
-8.3129
0
LINE
8
BLACK
6
CONTINUOUS
10
12.6408
20
-8.3129
11
12.6401
21
-8.31307
0
LINE
8
BLACK
6
CONTINUOUS
10
12.6401
20
-8.31307
11
12.6394
21
-8.31327
0
LINE
8
BLACK
6
CONTINUOUS
10
12.6394
20
-8.31327
11
12.6388
21
-8.31352
0
LINE
8
BLACK
6
CONTINUOUS
10
12.6388
20
-8.31352
11
12.6381
21
-8.31379
0
LINE
8
BLACK
6
CONTINUOUS
10
12.6381
20
-8.31379
11
12.6381
21
-8.31379
0
LINE
8
BLACK
6
CONTINUOUS
10
12.6381
20
-8.31379
11
12.6381
21
-8.31379
0
LINE
8
BLACK
6
CONTINUOUS
10
12.6381
20
-8.31379
11
12.6374
21
-8.3141
0
LINE
8
BLACK
6
CONTINUOUS
10
12.6374
20
-8.3141
11
12.6374
21
-8.3141
0
LINE
8
BLACK
6
CONTINUOUS
10
12.6374
20
-8.3141
11
12.6374
21
-8.3141
0
LINE
8
BLACK
6
CONTINUOUS
10
12.6374
20
-8.3141
11
12.6368
21
-8.31445
0
LINE
8
BLACK
6
CONTINUOUS
10
12.6368
20
-8.31445
11
12.6362
21
-8.31482
0
LINE
8
BLACK
6
CONTINUOUS
10
12.6362
20
-8.31482
11
12.6362
21
-8.31482
0
LINE
8
BLACK
6
CONTINUOUS
10
12.6362
20
-8.31482
11
12.6356
21
-8.31523
0
LINE
8
BLACK
6
CONTINUOUS
10
12.6356
20
-8.31523
11
12.6356
21
-8.31523
0
LINE
8
BLACK
6
CONTINUOUS
10
12.6356
20
-8.31523
11
12.635
21
-8.31567
0
LINE
8
BLACK
6
CONTINUOUS
10
12.635
20
-8.31567
11
12.635
21
-8.31567
0
LINE
8
BLACK
6
CONTINUOUS
10
12.635
20
-8.31567
11
12.6345
21
-8.31614
0
LINE
8
BLACK
6
CONTINUOUS
10
12.6345
20
-8.31614
11
12.6345
21
-8.31614
0
LINE
8
BLACK
6
CONTINUOUS
10
12.6345
20
-8.31614
11
12.634
21
-8.31664
0
LINE
8
BLACK
6
CONTINUOUS
10
12.634
20
-8.31664
11
12.634
21
-8.31664
0
LINE
8
BLACK
6
CONTINUOUS
10
12.634
20
-8.31664
11
12.634
21
-8.31664
0
LINE
8
BLACK
6
CONTINUOUS
10
12.634
20
-8.31664
11
12.6335
21
-8.31716
0
LINE
8
BLACK
6
CONTINUOUS
10
12.6335
20
-8.31716
11
12.6335
21
-8.31716
0
LINE
8
BLACK
6
CONTINUOUS
10
12.6335
20
-8.31716
11
12.6335
21
-8.31716
0
LINE
8
BLACK
6
CONTINUOUS
10
12.6335
20
-8.31716
11
12.633
21
-8.31771
0
LINE
8
BLACK
6
CONTINUOUS
10
12.633
20
-8.31771
11
12.633
21
-8.31771
0
LINE
8
BLACK
6
CONTINUOUS
10
12.633
20
-8.31771
11
12.6326
21
-8.31828
0
LINE
8
BLACK
6
CONTINUOUS
10
12.6326
20
-8.31828
11
12.6321
21
-8.31887
0
LINE
8
BLACK
6
CONTINUOUS
10
12.6321
20
-8.31887
11
12.6321
21
-8.31887
0
LINE
8
BLACK
6
CONTINUOUS
10
12.6321
20
-8.31887
11
12.6318
21
-8.31949
0
LINE
8
BLACK
6
CONTINUOUS
10
12.6318
20
-8.31949
11
12.6314
21
-8.32012
0
LINE
8
BLACK
6
CONTINUOUS
10
12.6314
20
-8.32012
11
12.6311
21
-8.32077
0
LINE
8
BLACK
6
CONTINUOUS
10
12.6311
20
-8.32077
11
12.6308
21
-8.32144
0
LINE
8
BLACK
6
CONTINUOUS
10
12.6308
20
-8.32144
11
12.6308
21
-8.32144
0
LINE
8
BLACK
6
CONTINUOUS
10
12.6308
20
-8.32144
11
12.6306
21
-8.32212
0
LINE
8
BLACK
6
CONTINUOUS
10
12.6306
20
-8.32212
11
12.6306
21
-8.32212
0
LINE
8
BLACK
6
CONTINUOUS
10
12.6306
20
-8.32212
11
12.6304
21
-8.32281
0
LINE
8
BLACK
6
CONTINUOUS
10
12.6304
20
-8.32281
11
12.6304
21
-8.32281
0
LINE
8
BLACK
6
CONTINUOUS
10
12.6304
20
-8.32281
11
12.6302
21
-8.32351
0
LINE
8
BLACK
6
CONTINUOUS
10
12.6302
20
-8.32351
11
12.6302
21
-8.32351
0
LINE
8
BLACK
6
CONTINUOUS
10
12.6302
20
-8.32351
11
12.6301
21
-8.32422
0
LINE
8
BLACK
6
CONTINUOUS
10
12.6301
20
-8.32422
11
12.6301
21
-8.32422
0
LINE
8
BLACK
6
CONTINUOUS
10
12.6301
20
-8.32422
11
12.63
21
-8.32494
0
LINE
8
BLACK
6
CONTINUOUS
10
12.63
20
-8.32494
11
12.6299
21
-8.32566
0
LINE
8
BLACK
6
CONTINUOUS
10
12.6299
20
-8.32566
11
12.6299
21
-8.32566
0
LINE
8
BLACK
6
CONTINUOUS
10
12.6299
20
-8.32566
11
12.6299
21
-8.32638
0
LINE
8
BLACK
6
CONTINUOUS
10
12.6299
20
-8.32638
11
12.6299
21
-8.37362
0
LINE
8
BLACK
6
CONTINUOUS
10
12.6299
20
-8.37362
11
12.6299
21
-8.37434
0
LINE
8
BLACK
6
CONTINUOUS
10
12.38
20
-8.30271
11
12.38
21
-8.30271
0
LINE
8
BLACK
6
CONTINUOUS
10
12.38
20
-8.30271
11
12.38
21
-8.30271
0
LINE
8
BLACK
6
CONTINUOUS
10
12.38
20
-8.30271
11
12.3812
21
-8.30398
0
LINE
8
BLACK
6
CONTINUOUS
10
12.3812
20
-8.30398
11
12.3812
21
-8.30398
0
LINE
8
BLACK
6
CONTINUOUS
10
12.3812
20
-8.30398
11
12.3812
21
-8.30398
0
LINE
8
BLACK
6
CONTINUOUS
10
12.3812
20
-8.30398
11
12.3812
21
-8.30398
0
LINE
8
BLACK
6
CONTINUOUS
10
12.3812
20
-8.30398
11
12.3812
21
-8.30398
0
LINE
8
BLACK
6
CONTINUOUS
10
12.3812
20
-8.30398
11
12.3823
21
-8.30532
0
LINE
8
BLACK
6
CONTINUOUS
10
12.3823
20
-8.30532
11
12.3823
21
-8.30532
0
LINE
8
BLACK
6
CONTINUOUS
10
12.3823
20
-8.30532
11
12.3823
21
-8.30532
0
LINE
8
BLACK
6
CONTINUOUS
10
12.3823
20
-8.30532
11
12.3834
21
-8.30671
0
LINE
8
BLACK
6
CONTINUOUS
10
12.3834
20
-8.30671
11
12.3834
21
-8.30671
0
LINE
8
BLACK
6
CONTINUOUS
10
12.3834
20
-8.30671
11
12.3834
21
-8.30671
0
LINE
8
BLACK
6
CONTINUOUS
10
12.3834
20
-8.30671
11
12.3844
21
-8.30815
0
LINE
8
BLACK
6
CONTINUOUS
10
12.3844
20
-8.30815
11
12.3844
21
-8.30815
0
LINE
8
BLACK
6
CONTINUOUS
10
12.3844
20
-8.30815
11
12.3853
21
-8.30964
0
LINE
8
BLACK
6
CONTINUOUS
10
12.3853
20
-8.30964
11
12.3853
21
-8.30964
0
LINE
8
BLACK
6
CONTINUOUS
10
12.3853
20
-8.30964
11
12.3853
21
-8.30964
0
LINE
8
BLACK
6
CONTINUOUS
10
12.3853
20
-8.30964
11
12.3861
21
-8.31118
0
LINE
8
BLACK
6
CONTINUOUS
10
12.3861
20
-8.31118
11
12.3861
21
-8.31118
0
LINE
8
BLACK
6
CONTINUOUS
10
12.3861
20
-8.31118
11
12.3861
21
-8.31118
0
LINE
8
BLACK
6
CONTINUOUS
10
12.3861
20
-8.31118
11
12.3869
21
-8.31277
0
LINE
8
BLACK
6
CONTINUOUS
10
12.3869
20
-8.31277
11
12.3869
21
-8.31277
0
LINE
8
BLACK
6
CONTINUOUS
10
12.3869
20
-8.31277
11
12.3869
21
-8.31277
0
LINE
8
BLACK
6
CONTINUOUS
10
12.3869
20
-8.31277
11
12.3875
21
-8.31438
0
LINE
8
BLACK
6
CONTINUOUS
10
12.3875
20
-8.31438
11
12.3875
21
-8.31438
0
LINE
8
BLACK
6
CONTINUOUS
10
12.3875
20
-8.31438
11
12.3881
21
-8.31604
0
LINE
8
BLACK
6
CONTINUOUS
10
12.3881
20
-8.31604
11
12.3881
21
-8.31604
0
LINE
8
BLACK
6
CONTINUOUS
10
12.3881
20
-8.31604
11
12.3886
21
-8.31772
0
LINE
8
BLACK
6
CONTINUOUS
10
12.3886
20
-8.31772
11
12.3886
21
-8.31772
0
LINE
8
BLACK
6
CONTINUOUS
10
12.3886
20
-8.31772
11
12.389
21
-8.31942
0
LINE
8
BLACK
6
CONTINUOUS
10
12.389
20
-8.31942
11
12.389
21
-8.31942
0
LINE
8
BLACK
6
CONTINUOUS
10
12.389
20
-8.31942
11
12.3894
21
-8.32114
0
LINE
8
BLACK
6
CONTINUOUS
10
12.3894
20
-8.32114
11
12.3894
21
-8.32114
0
LINE
8
BLACK
6
CONTINUOUS
10
12.3894
20
-8.32114
11
12.3896
21
-8.32288
0
LINE
8
BLACK
6
CONTINUOUS
10
12.3896
20
-8.32288
11
12.3896
21
-8.32288
0
LINE
8
BLACK
6
CONTINUOUS
10
12.3896
20
-8.32288
11
12.3897
21
-8.32463
0
LINE
8
BLACK
6
CONTINUOUS
10
12.3897
20
-8.32463
11
12.3897
21
-8.32463
0
LINE
8
BLACK
6
CONTINUOUS
10
12.3897
20
-8.32463
11
12.3898
21
-8.32638
0
LINE
8
BLACK
6
CONTINUOUS
10
12.3898
20
-8.32638
11
12.3898
21
-8.37362
0
LINE
8
BLACK
6
CONTINUOUS
10
12.3898
20
-8.37362
11
12.3897
21
-8.37537
0
LINE
8
BLACK
6
CONTINUOUS
10
12.3897
20
-8.37537
11
12.3897
21
-8.37537
0
LINE
8
BLACK
6
CONTINUOUS
10
12.3897
20
-8.37537
11
12.3896
21
-8.37712
0
LINE
8
BLACK
6
CONTINUOUS
10
12.3896
20
-8.37712
11
12.3896
21
-8.37712
0
LINE
8
BLACK
6
CONTINUOUS
10
12.3896
20
-8.37712
11
12.3894
21
-8.37886
0
LINE
8
BLACK
6
CONTINUOUS
10
12.3894
20
-8.37886
11
12.3894
21
-8.37886
0
LINE
8
BLACK
6
CONTINUOUS
10
12.3894
20
-8.37886
11
12.3894
21
-8.37886
0
LINE
8
BLACK
6
CONTINUOUS
10
12.3894
20
-8.37886
11
12.389
21
-8.38058
0
LINE
8
BLACK
6
CONTINUOUS
10
12.389
20
-8.38058
11
12.389
21
-8.38058
0
LINE
8
BLACK
6
CONTINUOUS
10
12.389
20
-8.38058
11
12.389
21
-8.38058
0
LINE
8
BLACK
6
CONTINUOUS
10
12.389
20
-8.38058
11
12.3886
21
-8.38228
0
LINE
8
BLACK
6
CONTINUOUS
10
12.3886
20
-8.38228
11
12.3886
21
-8.38228
0
LINE
8
BLACK
6
CONTINUOUS
10
12.3886
20
-8.38228
11
12.3886
21
-8.38228
0
LINE
8
BLACK
6
CONTINUOUS
10
12.3886
20
-8.38228
11
12.3881
21
-8.38396
0
LINE
8
BLACK
6
CONTINUOUS
10
12.3881
20
-8.38396
11
12.3881
21
-8.38396
0
LINE
8
BLACK
6
CONTINUOUS
10
12.3881
20
-8.38396
11
12.3881
21
-8.38396
0
LINE
8
BLACK
6
CONTINUOUS
10
12.3881
20
-8.38396
11
12.3875
21
-8.38562
0
LINE
8
BLACK
6
CONTINUOUS
10
12.3875
20
-8.38562
11
12.3875
21
-8.38562
0
LINE
8
BLACK
6
CONTINUOUS
10
12.3875
20
-8.38562
11
12.3875
21
-8.38562
0
LINE
8
BLACK
6
CONTINUOUS
10
12.3875
20
-8.38562
11
12.3869
21
-8.38723
0
LINE
8
BLACK
6
CONTINUOUS
10
12.3869
20
-8.38723
11
12.3869
21
-8.38723
0
LINE
8
BLACK
6
CONTINUOUS
10
12.3869
20
-8.38723
11
12.3869
21
-8.38723
0
LINE
8
BLACK
6
CONTINUOUS
10
12.3869
20
-8.38723
11
12.3861
21
-8.38882
0
LINE
8
BLACK
6
CONTINUOUS
10
12.3861
20
-8.38882
11
12.3861
21
-8.38882
0
LINE
8
BLACK
6
CONTINUOUS
10
12.3861
20
-8.38882
11
12.3853
21
-8.39036
0
LINE
8
BLACK
6
CONTINUOUS
10
12.3853
20
-8.39036
11
12.3853
21
-8.39036
0
LINE
8
BLACK
6
CONTINUOUS
10
12.3853
20
-8.39036
11
12.3844
21
-8.39185
0
LINE
8
BLACK
6
CONTINUOUS
10
12.3844
20
-8.39185
11
12.3844
21
-8.39185
0
LINE
8
BLACK
6
CONTINUOUS
10
12.3844
20
-8.39185
11
12.3844
21
-8.39185
0
LINE
8
BLACK
6
CONTINUOUS
10
12.3844
20
-8.39185
11
12.3834
21
-8.39329
0
LINE
8
BLACK
6
CONTINUOUS
10
12.3834
20
-8.39329
11
12.3834
21
-8.39329
0
LINE
8
BLACK
6
CONTINUOUS
10
12.3834
20
-8.39329
11
12.3823
21
-8.39468
0
LINE
8
BLACK
6
CONTINUOUS
10
12.3823
20
-8.39468
11
12.3823
21
-8.39468
0
LINE
8
BLACK
6
CONTINUOUS
10
12.3823
20
-8.39468
11
12.3812
21
-8.39602
0
LINE
8
BLACK
6
CONTINUOUS
10
12.3812
20
-8.39602
11
12.3812
21
-8.39602
0
LINE
8
BLACK
6
CONTINUOUS
10
12.3812
20
-8.39602
11
12.38
21
-8.39729
0
LINE
8
BLACK
6
CONTINUOUS
10
12.38
20
-8.39729
11
12.38
21
-8.39729
0
LINE
8
BLACK
6
CONTINUOUS
10
12.38
20
-8.39729
11
12.3787
21
-8.39849
0
LINE
8
BLACK
6
CONTINUOUS
10
12.3787
20
-8.39849
11
12.3787
21
-8.39849
0
LINE
8
BLACK
6
CONTINUOUS
10
12.3787
20
-8.39849
11
12.3787
21
-8.39849
0
LINE
8
BLACK
6
CONTINUOUS
10
12.3787
20
-8.39849
11
12.3774
21
-8.39963
0
LINE
8
BLACK
6
CONTINUOUS
10
12.3774
20
-8.39963
11
12.3774
21
-8.39963
0
LINE
8
BLACK
6
CONTINUOUS
10
12.3774
20
-8.39963
11
12.3774
21
-8.39963
0
LINE
8
BLACK
6
CONTINUOUS
10
12.3774
20
-8.39963
11
12.376
21
-8.4007
0
LINE
8
BLACK
6
CONTINUOUS
10
12.376
20
-8.4007
11
12.376
21
-8.4007
0
LINE
8
BLACK
6
CONTINUOUS
10
12.376
20
-8.4007
11
12.3745
21
-8.40169
0
LINE
8
BLACK
6
CONTINUOUS
10
12.3745
20
-8.40169
11
12.3745
21
-8.40169
0
LINE
8
BLACK
6
CONTINUOUS
10
12.3745
20
-8.40169
11
12.373
21
-8.4026
0
LINE
8
BLACK
6
CONTINUOUS
10
12.373
20
-8.4026
11
12.373
21
-8.4026
0
LINE
8
BLACK
6
CONTINUOUS
10
12.373
20
-8.4026
11
12.373
21
-8.4026
0
LINE
8
BLACK
6
CONTINUOUS
10
12.373
20
-8.4026
11
12.3715
21
-8.40344
0
LINE
8
BLACK
6
CONTINUOUS
10
12.3715
20
-8.40344
11
12.3715
21
-8.40344
0
LINE
8
BLACK
6
CONTINUOUS
10
12.3715
20
-8.40344
11
12.3699
21
-8.4042
0
LINE
8
BLACK
6
CONTINUOUS
10
12.3699
20
-8.4042
11
12.3699
21
-8.4042
0
LINE
8
BLACK
6
CONTINUOUS
10
12.3699
20
-8.4042
11
12.3699
21
-8.4042
0
LINE
8
BLACK
6
CONTINUOUS
10
12.3699
20
-8.4042
11
12.3683
21
-8.40487
0
LINE
8
BLACK
6
CONTINUOUS
10
12.3683
20
-8.40487
11
12.3683
21
-8.40487
0
LINE
8
BLACK
6
CONTINUOUS
10
12.3683
20
-8.40487
11
12.3683
21
-8.40487
0
LINE
8
BLACK
6
CONTINUOUS
10
12.3683
20
-8.40487
11
12.3666
21
-8.40545
0
LINE
8
BLACK
6
CONTINUOUS
10
12.3666
20
-8.40545
11
12.3666
21
-8.40545
0
LINE
8
BLACK
6
CONTINUOUS
10
12.3666
20
-8.40545
11
12.365
21
-8.40595
0
LINE
8
BLACK
6
CONTINUOUS
10
12.365
20
-8.40595
11
12.365
21
-8.40595
0
LINE
8
BLACK
6
CONTINUOUS
10
12.365
20
-8.40595
11
12.3633
21
-8.40636
0
LINE
8
BLACK
6
CONTINUOUS
10
12.3633
20
-8.40636
11
12.3633
21
-8.40636
0
LINE
8
BLACK
6
CONTINUOUS
10
12.3633
20
-8.40636
11
12.3633
21
-8.40636
0
LINE
8
BLACK
6
CONTINUOUS
10
12.3633
20
-8.40636
11
12.3615
21
-8.40668
0
LINE
8
BLACK
6
CONTINUOUS
10
12.3615
20
-8.40668
11
12.3615
21
-8.40668
0
LINE
8
BLACK
6
CONTINUOUS
10
12.3615
20
-8.40668
11
12.3598
21
-8.40691
0
LINE
8
BLACK
6
CONTINUOUS
10
12.3598
20
-8.40691
11
12.3598
21
-8.40691
0
LINE
8
BLACK
6
CONTINUOUS
10
12.3598
20
-8.40691
11
12.3581
21
-8.40704
0
LINE
8
BLACK
6
CONTINUOUS
10
12.3581
20
-8.40704
11
12.3581
21
-8.40704
0
LINE
8
BLACK
6
CONTINUOUS
10
12.3581
20
-8.40704
11
12.3563
21
-8.40709
0
LINE
8
BLACK
6
CONTINUOUS
10
12.3563
20
-8.40709
11
12.3563
21
-8.40709
0
LINE
8
BLACK
6
CONTINUOUS
10
12.3563
20
-8.40709
11
12.3545
21
-8.40704
0
LINE
8
BLACK
6
CONTINUOUS
10
12.3545
20
-8.40704
11
12.3545
21
-8.40704
0
LINE
8
BLACK
6
CONTINUOUS
10
12.3545
20
-8.40704
11
12.3528
21
-8.40691
0
LINE
8
BLACK
6
CONTINUOUS
10
12.3528
20
-8.40691
11
12.3528
21
-8.40691
0
LINE
8
BLACK
6
CONTINUOUS
10
12.3528
20
-8.40691
11
12.3511
21
-8.40668
0
LINE
8
BLACK
6
CONTINUOUS
10
12.3511
20
-8.40668
11
12.3511
21
-8.40668
0
LINE
8
BLACK
6
CONTINUOUS
10
12.3511
20
-8.40668
11
12.3511
21
-8.40668
0
LINE
8
BLACK
6
CONTINUOUS
10
12.3511
20
-8.40668
11
12.3493
21
-8.40636
0
LINE
8
BLACK
6
CONTINUOUS
10
12.3493
20
-8.40636
11
12.3493
21
-8.40636
0
LINE
8
BLACK
6
CONTINUOUS
10
12.3493
20
-8.40636
11
12.3476
21
-8.40595
0
LINE
8
BLACK
6
CONTINUOUS
10
12.3476
20
-8.40595
11
12.3476
21
-8.40595
0
LINE
8
BLACK
6
CONTINUOUS
10
12.3476
20
-8.40595
11
12.3476
21
-8.40595
0
LINE
8
BLACK
6
CONTINUOUS
10
12.3476
20
-8.40595
11
12.346
21
-8.40545
0
LINE
8
BLACK
6
CONTINUOUS
10
12.346
20
-8.40545
11
12.346
21
-8.40545
0
LINE
8
BLACK
6
CONTINUOUS
10
12.346
20
-8.40545
11
12.346
21
-8.40545
0
LINE
8
BLACK
6
CONTINUOUS
10
12.346
20
-8.40545
11
12.3443
21
-8.40487
0
LINE
8
BLACK
6
CONTINUOUS
10
12.3443
20
-8.40487
11
12.3443
21
-8.40487
0
LINE
8
BLACK
6
CONTINUOUS
10
12.3443
20
-8.40487
11
12.3443
21
-8.40487
0
LINE
8
BLACK
6
CONTINUOUS
10
12.3443
20
-8.40487
11
12.3427
21
-8.4042
0
LINE
8
BLACK
6
CONTINUOUS
10
12.3427
20
-8.4042
11
12.3427
21
-8.4042
0
LINE
8
BLACK
6
CONTINUOUS
10
12.3427
20
-8.4042
11
12.3427
21
-8.4042
0
LINE
8
BLACK
6
CONTINUOUS
10
12.3427
20
-8.4042
11
12.3411
21
-8.40344
0
LINE
8
BLACK
6
CONTINUOUS
10
12.3411
20
-8.40344
11
12.3411
21
-8.40344
0
LINE
8
BLACK
6
CONTINUOUS
10
12.3411
20
-8.40344
11
12.3396
21
-8.4026
0
LINE
8
BLACK
6
CONTINUOUS
10
12.3396
20
-8.4026
11
12.3396
21
-8.4026
0
LINE
8
BLACK
6
CONTINUOUS
10
12.3396
20
-8.4026
11
12.3381
21
-8.40169
0
LINE
8
BLACK
6
CONTINUOUS
10
12.3381
20
-8.40169
11
12.3381
21
-8.40169
0
LINE
8
BLACK
6
CONTINUOUS
10
12.3381
20
-8.40169
11
12.3381
21
-8.40169
0
LINE
8
BLACK
6
CONTINUOUS
10
12.3381
20
-8.40169
11
12.3381
21
-8.40169
0
LINE
8
BLACK
6
CONTINUOUS
10
12.3381
20
-8.40169
11
12.3366
21
-8.4007
0
LINE
8
BLACK
6
CONTINUOUS
10
12.3366
20
-8.4007
11
12.3366
21
-8.4007
0
LINE
8
BLACK
6
CONTINUOUS
10
12.3366
20
-8.4007
11
12.3366
21
-8.4007
0
LINE
8
BLACK
6
CONTINUOUS
10
12.3366
20
-8.4007
11
12.3352
21
-8.39963
0
LINE
8
BLACK
6
CONTINUOUS
10
12.3352
20
-8.39963
11
12.3352
21
-8.39963
0
LINE
8
BLACK
6
CONTINUOUS
10
12.3352
20
-8.39963
11
12.3339
21
-8.39849
0
LINE
8
BLACK
6
CONTINUOUS
10
12.3339
20
-8.39849
11
12.3339
21
-8.39849
0
LINE
8
BLACK
6
CONTINUOUS
10
12.3339
20
-8.39849
11
12.3326
21
-8.39729
0
LINE
8
BLACK
6
CONTINUOUS
10
12.3326
20
-8.39729
11
12.3326
21
-8.39729
0
LINE
8
BLACK
6
CONTINUOUS
10
12.3326
20
-8.39729
11
12.3326
21
-8.39729
0
LINE
8
BLACK
6
CONTINUOUS
10
12.3326
20
-8.39729
11
12.3314
21
-8.39602
0
LINE
8
BLACK
6
CONTINUOUS
10
12.3314
20
-8.39602
11
12.3314
21
-8.39602
0
LINE
8
BLACK
6
CONTINUOUS
10
12.3314
20
-8.39602
11
12.3314
21
-8.39602
0
LINE
8
BLACK
6
CONTINUOUS
10
12.3314
20
-8.39602
11
12.3303
21
-8.39468
0
LINE
8
BLACK
6
CONTINUOUS
10
12.3303
20
-8.39468
11
12.3303
21
-8.39468
0
LINE
8
BLACK
6
CONTINUOUS
10
12.3303
20
-8.39468
11
12.3303
21
-8.39468
0
LINE
8
BLACK
6
CONTINUOUS
10
12.3303
20
-8.39468
11
12.3292
21
-8.39329
0
LINE
8
BLACK
6
CONTINUOUS
10
12.3292
20
-8.39329
11
12.3292
21
-8.39329
0
LINE
8
BLACK
6
CONTINUOUS
10
12.3292
20
-8.39329
11
12.3282
21
-8.39185
0
LINE
8
BLACK
6
CONTINUOUS
10
12.3282
20
-8.39185
11
12.3282
21
-8.39185
0
LINE
8
BLACK
6
CONTINUOUS
10
12.3282
20
-8.39185
11
12.3282
21
-8.39185
0
LINE
8
BLACK
6
CONTINUOUS
10
12.3282
20
-8.39185
11
12.3273
21
-8.39036
0
LINE
8
BLACK
6
CONTINUOUS
10
12.3273
20
-8.39036
11
12.3273
21
-8.39036
0
LINE
8
BLACK
6
CONTINUOUS
10
12.3273
20
-8.39036
11
12.3273
21
-8.39036
0
LINE
8
BLACK
6
CONTINUOUS
10
12.3273
20
-8.39036
11
12.3265
21
-8.38882
0
LINE
8
BLACK
6
CONTINUOUS
10
12.3265
20
-8.38882
11
12.3265
21
-8.38882
0
LINE
8
BLACK
6
CONTINUOUS
10
12.3265
20
-8.38882
11
12.3265
21
-8.38882
0
LINE
8
BLACK
6
CONTINUOUS
10
12.3265
20
-8.38882
11
12.3257
21
-8.38723
0
LINE
8
BLACK
6
CONTINUOUS
10
12.3257
20
-8.38723
11
12.3257
21
-8.38723
0
LINE
8
BLACK
6
CONTINUOUS
10
12.3257
20
-8.38723
11
12.3257
21
-8.38723
0
LINE
8
BLACK
6
CONTINUOUS
10
12.3257
20
-8.38723
11
12.3257
21
-8.38723
0
LINE
8
BLACK
6
CONTINUOUS
10
12.3257
20
-8.38723
11
12.3251
21
-8.38562
0
LINE
8
BLACK
6
CONTINUOUS
10
12.3251
20
-8.38562
11
12.3251
21
-8.38562
0
LINE
8
BLACK
6
CONTINUOUS
10
12.3251
20
-8.38562
11
12.3251
21
-8.38562
0
LINE
8
BLACK
6
CONTINUOUS
10
12.3251
20
-8.38562
11
12.3245
21
-8.38396
0
LINE
8
BLACK
6
CONTINUOUS
10
12.3245
20
-8.38396
11
12.3245
21
-8.38396
0
LINE
8
BLACK
6
CONTINUOUS
10
12.3245
20
-8.38396
11
12.324
21
-8.38228
0
LINE
8
BLACK
6
CONTINUOUS
10
12.324
20
-8.38228
11
12.324
21
-8.38228
0
LINE
8
BLACK
6
CONTINUOUS
10
12.324
20
-8.38228
11
12.324
21
-8.38228
0
LINE
8
BLACK
6
CONTINUOUS
10
12.324
20
-8.38228
11
12.3236
21
-8.38058
0
LINE
8
BLACK
6
CONTINUOUS
10
12.3236
20
-8.38058
11
12.3236
21
-8.38058
0
LINE
8
BLACK
6
CONTINUOUS
10
12.3236
20
-8.38058
11
12.3236
21
-8.38058
0
LINE
8
BLACK
6
CONTINUOUS
10
12.3236
20
-8.38058
11
12.3236
21
-8.38058
0
LINE
8
BLACK
6
CONTINUOUS
10
12.3236
20
-8.38058
11
12.3232
21
-8.37886
0
LINE
8
BLACK
6
CONTINUOUS
10
12.3232
20
-8.37886
11
12.3232
21
-8.37886
0
LINE
8
BLACK
6
CONTINUOUS
10
12.3232
20
-8.37886
11
12.323
21
-8.37712
0
LINE
8
BLACK
6
CONTINUOUS
10
12.323
20
-8.37712
11
12.323
21
-8.37712
0
LINE
8
BLACK
6
CONTINUOUS
10
12.323
20
-8.37712
11
12.3229
21
-8.37537
0
LINE
8
BLACK
6
CONTINUOUS
10
12.3229
20
-8.37537
11
12.3229
21
-8.37537
0
LINE
8
BLACK
6
CONTINUOUS
10
12.3229
20
-8.37537
11
12.3228
21
-8.37362
0
LINE
8
BLACK
6
CONTINUOUS
10
12.3228
20
-8.37362
11
12.3228
21
-8.32638
0
LINE
8
BLACK
6
CONTINUOUS
10
12.3228
20
-8.32638
11
12.3229
21
-8.32463
0
LINE
8
BLACK
6
CONTINUOUS
10
12.3229
20
-8.32463
11
12.3229
21
-8.32463
0
LINE
8
BLACK
6
CONTINUOUS
10
12.3229
20
-8.32463
11
12.323
21
-8.32288
0
LINE
8
BLACK
6
CONTINUOUS
10
12.323
20
-8.32288
11
12.323
21
-8.32288
0
LINE
8
BLACK
6
CONTINUOUS
10
12.323
20
-8.32288
11
12.3232
21
-8.32114
0
LINE
8
BLACK
6
CONTINUOUS
10
12.3232
20
-8.32114
11
12.3232
21
-8.32114
0
LINE
8
BLACK
6
CONTINUOUS
10
12.3232
20
-8.32114
11
12.3232
21
-8.32114
0
LINE
8
BLACK
6
CONTINUOUS
10
12.3232
20
-8.32114
11
12.3236
21
-8.31942
0
LINE
8
BLACK
6
CONTINUOUS
10
12.3236
20
-8.31942
11
12.3236
21
-8.31942
0
LINE
8
BLACK
6
CONTINUOUS
10
12.3236
20
-8.31942
11
12.324
21
-8.31772
0
LINE
8
BLACK
6
CONTINUOUS
10
12.324
20
-8.31772
11
12.324
21
-8.31772
0
LINE
8
BLACK
6
CONTINUOUS
10
12.324
20
-8.31772
11
12.324
21
-8.31772
0
LINE
8
BLACK
6
CONTINUOUS
10
12.324
20
-8.31772
11
12.3245
21
-8.31604
0
LINE
8
BLACK
6
CONTINUOUS
10
12.3245
20
-8.31604
11
12.3245
21
-8.31604
0
LINE
8
BLACK
6
CONTINUOUS
10
12.3245
20
-8.31604
11
12.3245
21
-8.31604
0
LINE
8
BLACK
6
CONTINUOUS
10
12.3245
20
-8.31604
11
12.3251
21
-8.31438
0
LINE
8
BLACK
6
CONTINUOUS
10
12.3251
20
-8.31438
11
12.3251
21
-8.31438
0
LINE
8
BLACK
6
CONTINUOUS
10
12.3251
20
-8.31438
11
12.3251
21
-8.31438
0
LINE
8
BLACK
6
CONTINUOUS
10
12.3251
20
-8.31438
11
12.3257
21
-8.31277
0
LINE
8
BLACK
6
CONTINUOUS
10
12.3257
20
-8.31277
11
12.3257
21
-8.31277
0
LINE
8
BLACK
6
CONTINUOUS
10
12.3257
20
-8.31277
11
12.3257
21
-8.31277
0
LINE
8
BLACK
6
CONTINUOUS
10
12.3257
20
-8.31277
11
12.3265
21
-8.31118
0
LINE
8
BLACK
6
CONTINUOUS
10
12.3265
20
-8.31118
11
12.3265
21
-8.31118
0
LINE
8
BLACK
6
CONTINUOUS
10
12.3265
20
-8.31118
11
12.3273
21
-8.30964
0
LINE
8
BLACK
6
CONTINUOUS
10
12.3273
20
-8.30964
11
12.3273
21
-8.30964
0
LINE
8
BLACK
6
CONTINUOUS
10
12.3273
20
-8.30964
11
12.3273
21
-8.30964
0
LINE
8
BLACK
6
CONTINUOUS
10
12.3273
20
-8.30964
11
12.3282
21
-8.30815
0
LINE
8
BLACK
6
CONTINUOUS
10
12.3282
20
-8.30815
11
12.3282
21
-8.30815
0
LINE
8
BLACK
6
CONTINUOUS
10
12.3282
20
-8.30815
11
12.3292
21
-8.30671
0
LINE
8
BLACK
6
CONTINUOUS
10
12.3292
20
-8.30671
11
12.3292
21
-8.30671
0
LINE
8
BLACK
6
CONTINUOUS
10
12.3292
20
-8.30671
11
12.3292
21
-8.30671
0
LINE
8
BLACK
6
CONTINUOUS
10
12.3292
20
-8.30671
11
12.3303
21
-8.30532
0
LINE
8
BLACK
6
CONTINUOUS
10
12.3303
20
-8.30532
11
12.3303
21
-8.30532
0
LINE
8
BLACK
6
CONTINUOUS
10
12.3303
20
-8.30532
11
12.3314
21
-8.30398
0
LINE
8
BLACK
6
CONTINUOUS
10
12.3314
20
-8.30398
11
12.3314
21
-8.30398
0
LINE
8
BLACK
6
CONTINUOUS
10
12.3314
20
-8.30398
11
12.3314
21
-8.30398
0
LINE
8
BLACK
6
CONTINUOUS
10
12.3314
20
-8.30398
11
12.3326
21
-8.30271
0
LINE
8
BLACK
6
CONTINUOUS
10
12.3326
20
-8.30271
11
12.3326
21
-8.30271
0
LINE
8
BLACK
6
CONTINUOUS
10
12.3326
20
-8.30271
11
12.3326
21
-8.30271
0
LINE
8
BLACK
6
CONTINUOUS
10
12.3326
20
-8.30271
11
12.3339
21
-8.30151
0
LINE
8
BLACK
6
CONTINUOUS
10
12.3339
20
-8.30151
11
12.3339
21
-8.30151
0
LINE
8
BLACK
6
CONTINUOUS
10
12.3339
20
-8.30151
11
12.3339
21
-8.30151
0
LINE
8
BLACK
6
CONTINUOUS
10
12.3339
20
-8.30151
11
12.3352
21
-8.30037
0
LINE
8
BLACK
6
CONTINUOUS
10
12.3352
20
-8.30037
11
12.3352
21
-8.30037
0
LINE
8
BLACK
6
CONTINUOUS
10
12.3352
20
-8.30037
11
12.3352
21
-8.30037
0
LINE
8
BLACK
6
CONTINUOUS
10
12.3352
20
-8.30037
11
12.3366
21
-8.2993
0
LINE
8
BLACK
6
CONTINUOUS
10
12.3366
20
-8.2993
11
12.3366
21
-8.2993
0
LINE
8
BLACK
6
CONTINUOUS
10
12.3366
20
-8.2993
11
12.3366
21
-8.2993
0
LINE
8
BLACK
6
CONTINUOUS
10
12.3366
20
-8.2993
11
12.3381
21
-8.29831
0
LINE
8
BLACK
6
CONTINUOUS
10
12.3381
20
-8.29831
11
12.3381
21
-8.29831
0
LINE
8
BLACK
6
CONTINUOUS
10
12.3381
20
-8.29831
11
12.3396
21
-8.2974
0
LINE
8
BLACK
6
CONTINUOUS
10
12.3396
20
-8.2974
11
12.3396
21
-8.2974
0
LINE
8
BLACK
6
CONTINUOUS
10
12.3396
20
-8.2974
11
12.3396
21
-8.2974
0
LINE
8
BLACK
6
CONTINUOUS
10
12.3396
20
-8.2974
11
12.3411
21
-8.29656
0
LINE
8
BLACK
6
CONTINUOUS
10
12.3411
20
-8.29656
11
12.3411
21
-8.29656
0
LINE
8
BLACK
6
CONTINUOUS
10
12.3411
20
-8.29656
11
12.3411
21
-8.29656
0
LINE
8
BLACK
6
CONTINUOUS
10
12.3411
20
-8.29656
11
12.3427
21
-8.2958
0
LINE
8
BLACK
6
CONTINUOUS
10
12.3427
20
-8.2958
11
12.3427
21
-8.2958
0
LINE
8
BLACK
6
CONTINUOUS
10
12.3427
20
-8.2958
11
12.3427
21
-8.2958
0
LINE
8
BLACK
6
CONTINUOUS
10
12.3427
20
-8.2958
11
12.3443
21
-8.29513
0
LINE
8
BLACK
6
CONTINUOUS
10
12.3443
20
-8.29513
11
12.3443
21
-8.29513
0
LINE
8
BLACK
6
CONTINUOUS
10
12.3443
20
-8.29513
11
12.3443
21
-8.29513
0
LINE
8
BLACK
6
CONTINUOUS
10
12.3443
20
-8.29513
11
12.346
21
-8.29455
0
LINE
8
BLACK
6
CONTINUOUS
10
12.346
20
-8.29455
11
12.346
21
-8.29455
0
LINE
8
BLACK
6
CONTINUOUS
10
12.346
20
-8.29455
11
12.346
21
-8.29455
0
LINE
8
BLACK
6
CONTINUOUS
10
12.346
20
-8.29455
11
12.3476
21
-8.29405
0
LINE
8
BLACK
6
CONTINUOUS
10
12.3476
20
-8.29405
11
12.3476
21
-8.29405
0
LINE
8
BLACK
6
CONTINUOUS
10
12.3476
20
-8.29405
11
12.3493
21
-8.29364
0
LINE
8
BLACK
6
CONTINUOUS
10
12.3493
20
-8.29364
11
12.3493
21
-8.29364
0
LINE
8
BLACK
6
CONTINUOUS
10
12.3493
20
-8.29364
11
12.3493
21
-8.29364
0
LINE
8
BLACK
6
CONTINUOUS
10
12.3493
20
-8.29364
11
12.3511
21
-8.29332
0
LINE
8
BLACK
6
CONTINUOUS
10
12.3511
20
-8.29332
11
12.3511
21
-8.29332
0
LINE
8
BLACK
6
CONTINUOUS
10
12.3511
20
-8.29332
11
12.3528
21
-8.29309
0
LINE
8
BLACK
6
CONTINUOUS
10
12.3528
20
-8.29309
11
12.3528
21
-8.29309
0
LINE
8
BLACK
6
CONTINUOUS
10
12.3528
20
-8.29309
11
12.3545
21
-8.29296
0
LINE
8
BLACK
6
CONTINUOUS
10
12.3545
20
-8.29296
11
12.3545
21
-8.29296
0
LINE
8
BLACK
6
CONTINUOUS
10
12.3545
20
-8.29296
11
12.3563
21
-8.29291
0
LINE
8
BLACK
6
CONTINUOUS
10
12.3563
20
-8.29291
11
12.3563
21
-8.29291
0
LINE
8
BLACK
6
CONTINUOUS
10
12.3563
20
-8.29291
11
12.3581
21
-8.29296
0
LINE
8
BLACK
6
CONTINUOUS
10
12.3581
20
-8.29296
11
12.3581
21
-8.29296
0
LINE
8
BLACK
6
CONTINUOUS
10
12.3581
20
-8.29296
11
12.3598
21
-8.29309
0
LINE
8
BLACK
6
CONTINUOUS
10
12.3598
20
-8.29309
11
12.3598
21
-8.29309
0
LINE
8
BLACK
6
CONTINUOUS
10
12.3598
20
-8.29309
11
12.3615
21
-8.29332
0
LINE
8
BLACK
6
CONTINUOUS
10
12.3615
20
-8.29332
11
12.3615
21
-8.29332
0
LINE
8
BLACK
6
CONTINUOUS
10
12.3615
20
-8.29332
11
12.3615
21
-8.29332
0
LINE
8
BLACK
6
CONTINUOUS
10
12.3615
20
-8.29332
11
12.3633
21
-8.29364
0
LINE
8
BLACK
6
CONTINUOUS
10
12.3633
20
-8.29364
11
12.3633
21
-8.29364
0
LINE
8
BLACK
6
CONTINUOUS
10
12.3633
20
-8.29364
11
12.365
21
-8.29405
0
LINE
8
BLACK
6
CONTINUOUS
10
12.365
20
-8.29405
11
12.365
21
-8.29405
0
LINE
8
BLACK
6
CONTINUOUS
10
12.365
20
-8.29405
11
12.365
21
-8.29405
0
LINE
8
BLACK
6
CONTINUOUS
10
12.365
20
-8.29405
11
12.3666
21
-8.29455
0
LINE
8
BLACK
6
CONTINUOUS
10
12.3666
20
-8.29455
11
12.3666
21
-8.29455
0
LINE
8
BLACK
6
CONTINUOUS
10
12.3666
20
-8.29455
11
12.3666
21
-8.29455
0
LINE
8
BLACK
6
CONTINUOUS
10
12.3666
20
-8.29455
11
12.3683
21
-8.29513
0
LINE
8
BLACK
6
CONTINUOUS
10
12.3683
20
-8.29513
11
12.3683
21
-8.29513
0
LINE
8
BLACK
6
CONTINUOUS
10
12.3683
20
-8.29513
11
12.3683
21
-8.29513
0
LINE
8
BLACK
6
CONTINUOUS
10
12.3683
20
-8.29513
11
12.3699
21
-8.2958
0
LINE
8
BLACK
6
CONTINUOUS
10
12.3699
20
-8.2958
11
12.3699
21
-8.2958
0
LINE
8
BLACK
6
CONTINUOUS
10
12.3699
20
-8.2958
11
12.3699
21
-8.2958
0
LINE
8
BLACK
6
CONTINUOUS
10
12.3699
20
-8.2958
11
12.3699
21
-8.2958
0
LINE
8
BLACK
6
CONTINUOUS
10
12.3699
20
-8.2958
11
12.3715
21
-8.29656
0
LINE
8
BLACK
6
CONTINUOUS
10
12.3715
20
-8.29656
11
12.3715
21
-8.29656
0
LINE
8
BLACK
6
CONTINUOUS
10
12.3715
20
-8.29656
11
12.373
21
-8.2974
0
LINE
8
BLACK
6
CONTINUOUS
10
12.373
20
-8.2974
11
12.373
21
-8.2974
0
LINE
8
BLACK
6
CONTINUOUS
10
12.373
20
-8.2974
11
12.3745
21
-8.29831
0
LINE
8
BLACK
6
CONTINUOUS
10
12.3745
20
-8.29831
11
12.3745
21
-8.29831
0
LINE
8
BLACK
6
CONTINUOUS
10
12.3745
20
-8.29831
11
12.3745
21
-8.29831
0
LINE
8
BLACK
6
CONTINUOUS
10
12.3745
20
-8.29831
11
12.3745
21
-8.29831
0
LINE
8
BLACK
6
CONTINUOUS
10
12.3745
20
-8.29831
11
12.376
21
-8.2993
0
LINE
8
BLACK
6
CONTINUOUS
10
12.376
20
-8.2993
11
12.376
21
-8.2993
0
LINE
8
BLACK
6
CONTINUOUS
10
12.376
20
-8.2993
11
12.376
21
-8.2993
0
LINE
8
BLACK
6
CONTINUOUS
10
12.376
20
-8.2993
11
12.376
21
-8.2993
0
LINE
8
BLACK
6
CONTINUOUS
10
12.376
20
-8.2993
11
12.376
21
-8.2993
0
LINE
8
BLACK
6
CONTINUOUS
10
12.376
20
-8.2993
11
12.3774
21
-8.30037
0
LINE
8
BLACK
6
CONTINUOUS
10
12.3774
20
-8.30037
11
12.3774
21
-8.30037
0
LINE
8
BLACK
6
CONTINUOUS
10
12.3774
20
-8.30037
11
12.3787
21
-8.30151
0
LINE
8
BLACK
6
CONTINUOUS
10
12.3787
20
-8.30151
11
12.3787
21
-8.30151
0
LINE
8
BLACK
6
CONTINUOUS
10
12.3787
20
-8.30151
11
12.38
21
-8.30271
0
LINE
8
BLACK
6
CONTINUOUS
10
12.3425
20
-8.37434
11
12.3425
21
-8.37434
0
LINE
8
BLACK
6
CONTINUOUS
10
12.3425
20
-8.37434
11
12.3426
21
-8.37506
0
LINE
8
BLACK
6
CONTINUOUS
10
12.3426
20
-8.37506
11
12.3426
21
-8.37506
0
LINE
8
BLACK
6
CONTINUOUS
10
12.3426
20
-8.37506
11
12.3427
21
-8.37578
0
LINE
8
BLACK
6
CONTINUOUS
10
12.3427
20
-8.37578
11
12.3428
21
-8.37649
0
LINE
8
BLACK
6
CONTINUOUS
10
12.3428
20
-8.37649
11
12.3428
21
-8.37649
0
LINE
8
BLACK
6
CONTINUOUS
10
12.3428
20
-8.37649
11
12.343
21
-8.37719
0
LINE
8
BLACK
6
CONTINUOUS
10
12.343
20
-8.37719
11
12.3432
21
-8.37788
0
LINE
8
BLACK
6
CONTINUOUS
10
12.3432
20
-8.37788
11
12.3434
21
-8.37856
0
LINE
8
BLACK
6
CONTINUOUS
10
12.3434
20
-8.37856
11
12.3437
21
-8.37923
0
LINE
8
BLACK
6
CONTINUOUS
10
12.3437
20
-8.37923
11
12.3437
21
-8.37923
0
LINE
8
BLACK
6
CONTINUOUS
10
12.3437
20
-8.37923
11
12.344
21
-8.37988
0
LINE
8
BLACK
6
CONTINUOUS
10
12.344
20
-8.37988
11
12.3444
21
-8.38051
0
LINE
8
BLACK
6
CONTINUOUS
10
12.3444
20
-8.38051
11
12.3444
21
-8.38051
0
LINE
8
BLACK
6
CONTINUOUS
10
12.3444
20
-8.38051
11
12.3447
21
-8.38113
0
LINE
8
BLACK
6
CONTINUOUS
10
12.3447
20
-8.38113
11
12.3447
21
-8.38113
0
LINE
8
BLACK
6
CONTINUOUS
10
12.3447
20
-8.38113
11
12.3452
21
-8.38172
0
LINE
8
BLACK
6
CONTINUOUS
10
12.3452
20
-8.38172
11
12.3452
21
-8.38172
0
LINE
8
BLACK
6
CONTINUOUS
10
12.3452
20
-8.38172
11
12.3456
21
-8.38229
0
LINE
8
BLACK
6
CONTINUOUS
10
12.3456
20
-8.38229
11
12.3461
21
-8.38284
0
LINE
8
BLACK
6
CONTINUOUS
10
12.3461
20
-8.38284
11
12.3461
21
-8.38284
0
LINE
8
BLACK
6
CONTINUOUS
10
12.3461
20
-8.38284
11
12.3461
21
-8.38284
0
LINE
8
BLACK
6
CONTINUOUS
10
12.3461
20
-8.38284
11
12.3461
21
-8.38284
0
LINE
8
BLACK
6
CONTINUOUS
10
12.3461
20
-8.38284
11
12.3466
21
-8.38336
0
LINE
8
BLACK
6
CONTINUOUS
10
12.3466
20
-8.38336
11
12.3466
21
-8.38336
0
LINE
8
BLACK
6
CONTINUOUS
10
12.3466
20
-8.38336
11
12.3466
21
-8.38336
0
LINE
8
BLACK
6
CONTINUOUS
10
12.3466
20
-8.38336
11
12.3466
21
-8.38336
0
LINE
8
BLACK
6
CONTINUOUS
10
12.3466
20
-8.38336
11
12.3471
21
-8.38386
0
LINE
8
BLACK
6
CONTINUOUS
10
12.3471
20
-8.38386
11
12.3471
21
-8.38386
0
LINE
8
BLACK
6
CONTINUOUS
10
12.3471
20
-8.38386
11
12.3476
21
-8.38433
0
LINE
8
BLACK
6
CONTINUOUS
10
12.3476
20
-8.38433
11
12.3482
21
-8.38477
0
LINE
8
BLACK
6
CONTINUOUS
10
12.3482
20
-8.38477
11
12.3488
21
-8.38518
0
LINE
8
BLACK
6
CONTINUOUS
10
12.3488
20
-8.38518
11
12.3488
21
-8.38518
0
LINE
8
BLACK
6
CONTINUOUS
10
12.3488
20
-8.38518
11
12.3494
21
-8.38555
0
LINE
8
BLACK
6
CONTINUOUS
10
12.3494
20
-8.38555
11
12.35
21
-8.3859
0
LINE
8
BLACK
6
CONTINUOUS
10
12.35
20
-8.3859
11
12.35
21
-8.3859
0
LINE
8
BLACK
6
CONTINUOUS
10
12.35
20
-8.3859
11
12.3507
21
-8.38621
0
LINE
8
BLACK
6
CONTINUOUS
10
12.3507
20
-8.38621
11
12.3507
21
-8.38621
0
LINE
8
BLACK
6
CONTINUOUS
10
12.3507
20
-8.38621
11
12.3507
21
-8.38621
0
LINE
8
BLACK
6
CONTINUOUS
10
12.3507
20
-8.38621
11
12.3507
21
-8.38621
0
LINE
8
BLACK
6
CONTINUOUS
10
12.3507
20
-8.38621
11
12.3514
21
-8.38648
0
LINE
8
BLACK
6
CONTINUOUS
10
12.3514
20
-8.38648
11
12.3514
21
-8.38648
0
LINE
8
BLACK
6
CONTINUOUS
10
12.3514
20
-8.38648
11
12.352
21
-8.38673
0
LINE
8
BLACK
6
CONTINUOUS
10
12.352
20
-8.38673
11
12.3527
21
-8.38693
0
LINE
8
BLACK
6
CONTINUOUS
10
12.3527
20
-8.38693
11
12.3527
21
-8.38693
0
LINE
8
BLACK
6
CONTINUOUS
10
12.3527
20
-8.38693
11
12.3534
21
-8.3871
0
LINE
8
BLACK
6
CONTINUOUS
10
12.3534
20
-8.3871
11
12.3541
21
-8.38723
0
LINE
8
BLACK
6
CONTINUOUS
10
12.3541
20
-8.38723
11
12.3541
21
-8.38723
0
LINE
8
BLACK
6
CONTINUOUS
10
12.3541
20
-8.38723
11
12.3549
21
-8.38732
0
LINE
8
BLACK
6
CONTINUOUS
10
12.3549
20
-8.38732
11
12.3556
21
-8.38738
0
LINE
8
BLACK
6
CONTINUOUS
10
12.3556
20
-8.38738
11
12.3556
21
-8.38738
0
LINE
8
BLACK
6
CONTINUOUS
10
12.3556
20
-8.38738
11
12.3563
21
-8.3874
0
LINE
8
BLACK
6
CONTINUOUS
10
12.3563
20
-8.3874
11
12.357
21
-8.38738
0
LINE
8
BLACK
6
CONTINUOUS
10
12.357
20
-8.38738
11
12.3577
21
-8.38732
0
LINE
8
BLACK
6
CONTINUOUS
10
12.3577
20
-8.38732
11
12.3577
21
-8.38732
0
LINE
8
BLACK
6
CONTINUOUS
10
12.3577
20
-8.38732
11
12.3585
21
-8.38723
0
LINE
8
BLACK
6
CONTINUOUS
10
12.3585
20
-8.38723
11
12.3585
21
-8.38723
0
LINE
8
BLACK
6
CONTINUOUS
10
12.3585
20
-8.38723
11
12.3592
21
-8.3871
0
LINE
8
BLACK
6
CONTINUOUS
10
12.3592
20
-8.3871
11
12.3592
21
-8.3871
0
LINE
8
BLACK
6
CONTINUOUS
10
12.3592
20
-8.3871
11
12.3599
21
-8.38693
0
LINE
8
BLACK
6
CONTINUOUS
10
12.3599
20
-8.38693
11
12.3599
21
-8.38693
0
LINE
8
BLACK
6
CONTINUOUS
10
12.3599
20
-8.38693
11
12.3606
21
-8.38673
0
LINE
8
BLACK
6
CONTINUOUS
10
12.3606
20
-8.38673
11
12.3612
21
-8.38648
0
LINE
8
BLACK
6
CONTINUOUS
10
12.3612
20
-8.38648
11
12.3619
21
-8.38621
0
LINE
8
BLACK
6
CONTINUOUS
10
12.3619
20
-8.38621
11
12.3619
21
-8.38621
0
LINE
8
BLACK
6
CONTINUOUS
10
12.3619
20
-8.38621
11
12.3626
21
-8.3859
0
LINE
8
BLACK
6
CONTINUOUS
10
12.3626
20
-8.3859
11
12.3632
21
-8.38555
0
LINE
8
BLACK
6
CONTINUOUS
10
12.3632
20
-8.38555
11
12.3638
21
-8.38518
0
LINE
8
BLACK
6
CONTINUOUS
10
12.3638
20
-8.38518
11
12.3638
21
-8.38518
0
LINE
8
BLACK
6
CONTINUOUS
10
12.3638
20
-8.38518
11
12.3644
21
-8.38477
0
LINE
8
BLACK
6
CONTINUOUS
10
12.3644
20
-8.38477
11
12.3644
21
-8.38477
0
LINE
8
BLACK
6
CONTINUOUS
10
12.3644
20
-8.38477
11
12.365
21
-8.38433
0
LINE
8
BLACK
6
CONTINUOUS
10
12.365
20
-8.38433
11
12.3655
21
-8.38386
0
LINE
8
BLACK
6
CONTINUOUS
10
12.3655
20
-8.38386
11
12.3655
21
-8.38386
0
LINE
8
BLACK
6
CONTINUOUS
10
12.3655
20
-8.38386
11
12.3655
21
-8.38386
0
LINE
8
BLACK
6
CONTINUOUS
10
12.3655
20
-8.38386
11
12.366
21
-8.38336
0
LINE
8
BLACK
6
CONTINUOUS
10
12.366
20
-8.38336
11
12.366
21
-8.38336
0
LINE
8
BLACK
6
CONTINUOUS
10
12.366
20
-8.38336
11
12.366
21
-8.38336
0
LINE
8
BLACK
6
CONTINUOUS
10
12.366
20
-8.38336
11
12.3665
21
-8.38284
0
LINE
8
BLACK
6
CONTINUOUS
10
12.3665
20
-8.38284
11
12.3665
21
-8.38284
0
LINE
8
BLACK
6
CONTINUOUS
10
12.3665
20
-8.38284
11
12.367
21
-8.38229
0
LINE
8
BLACK
6
CONTINUOUS
10
12.367
20
-8.38229
11
12.3674
21
-8.38172
0
LINE
8
BLACK
6
CONTINUOUS
10
12.3674
20
-8.38172
11
12.3679
21
-8.38113
0
LINE
8
BLACK
6
CONTINUOUS
10
12.3679
20
-8.38113
11
12.3679
21
-8.38113
0
LINE
8
BLACK
6
CONTINUOUS
10
12.3679
20
-8.38113
11
12.3682
21
-8.38051
0
LINE
8
BLACK
6
CONTINUOUS
10
12.3682
20
-8.38051
11
12.3682
21
-8.38051
0
LINE
8
BLACK
6
CONTINUOUS
10
12.3682
20
-8.38051
11
12.3682
21
-8.38051
0
LINE
8
BLACK
6
CONTINUOUS
10
12.3682
20
-8.38051
11
12.3686
21
-8.37988
0
LINE
8
BLACK
6
CONTINUOUS
10
12.3686
20
-8.37988
11
12.3689
21
-8.37923
0
LINE
8
BLACK
6
CONTINUOUS
10
12.3689
20
-8.37923
11
12.3689
21
-8.37923
0
LINE
8
BLACK
6
CONTINUOUS
10
12.3689
20
-8.37923
11
12.3689
21
-8.37923
0
LINE
8
BLACK
6
CONTINUOUS
10
12.3689
20
-8.37923
11
12.3692
21
-8.37856
0
LINE
8
BLACK
6
CONTINUOUS
10
12.3692
20
-8.37856
11
12.3692
21
-8.37856
0
LINE
8
BLACK
6
CONTINUOUS
10
12.3692
20
-8.37856
11
12.3694
21
-8.37788
0
LINE
8
BLACK
6
CONTINUOUS
10
12.3694
20
-8.37788
11
12.3696
21
-8.37719
0
LINE
8
BLACK
6
CONTINUOUS
10
12.3696
20
-8.37719
11
12.3698
21
-8.37649
0
LINE
8
BLACK
6
CONTINUOUS
10
12.3698
20
-8.37649
11
12.3698
21
-8.37649
0
LINE
8
BLACK
6
CONTINUOUS
10
12.3698
20
-8.37649
11
12.3699
21
-8.37578
0
LINE
8
BLACK
6
CONTINUOUS
10
12.3699
20
-8.37578
11
12.3699
21
-8.37578
0
LINE
8
BLACK
6
CONTINUOUS
10
12.3699
20
-8.37578
11
12.37
21
-8.37506
0
LINE
8
BLACK
6
CONTINUOUS
10
12.37
20
-8.37506
11
12.3701
21
-8.37434
0
LINE
8
BLACK
6
CONTINUOUS
10
12.3701
20
-8.37434
11
12.3701
21
-8.37434
0
LINE
8
BLACK
6
CONTINUOUS
10
12.3701
20
-8.37434
11
12.3701
21
-8.37362
0
LINE
8
BLACK
6
CONTINUOUS
10
12.3701
20
-8.37362
11
12.3701
21
-8.32638
0
LINE
8
BLACK
6
CONTINUOUS
10
12.3701
20
-8.32638
11
12.3701
21
-8.32566
0
LINE
8
BLACK
6
CONTINUOUS
10
12.3701
20
-8.32566
11
12.3701
21
-8.32566
0
LINE
8
BLACK
6
CONTINUOUS
10
12.3701
20
-8.32566
11
12.37
21
-8.32494
0
LINE
8
BLACK
6
CONTINUOUS
10
12.37
20
-8.32494
11
12.3699
21
-8.32422
0
LINE
8
BLACK
6
CONTINUOUS
10
12.3699
20
-8.32422
11
12.3699
21
-8.32422
0
LINE
8
BLACK
6
CONTINUOUS
10
12.3699
20
-8.32422
11
12.3698
21
-8.32351
0
LINE
8
BLACK
6
CONTINUOUS
10
12.3698
20
-8.32351
11
12.3698
21
-8.32351
0
LINE
8
BLACK
6
CONTINUOUS
10
12.3698
20
-8.32351
11
12.3696
21
-8.32281
0
LINE
8
BLACK
6
CONTINUOUS
10
12.3696
20
-8.32281
11
12.3696
21
-8.32281
0
LINE
8
BLACK
6
CONTINUOUS
10
12.3696
20
-8.32281
11
12.3694
21
-8.32212
0
LINE
8
BLACK
6
CONTINUOUS
10
12.3694
20
-8.32212
11
12.3694
21
-8.32212
0
LINE
8
BLACK
6
CONTINUOUS
10
12.3694
20
-8.32212
11
12.3692
21
-8.32144
0
LINE
8
BLACK
6
CONTINUOUS
10
12.3692
20
-8.32144
11
12.3692
21
-8.32144
0
LINE
8
BLACK
6
CONTINUOUS
10
12.3692
20
-8.32144
11
12.3689
21
-8.32077
0
LINE
8
BLACK
6
CONTINUOUS
10
12.3689
20
-8.32077
11
12.3689
21
-8.32077
0
LINE
8
BLACK
6
CONTINUOUS
10
12.3689
20
-8.32077
11
12.3689
21
-8.32077
0
LINE
8
BLACK
6
CONTINUOUS
10
12.3689
20
-8.32077
11
12.3686
21
-8.32012
0
LINE
8
BLACK
6
CONTINUOUS
10
12.3686
20
-8.32012
11
12.3686
21
-8.32012
0
LINE
8
BLACK
6
CONTINUOUS
10
12.3686
20
-8.32012
11
12.3686
21
-8.32012
0
LINE
8
BLACK
6
CONTINUOUS
10
12.3686
20
-8.32012
11
12.3682
21
-8.31949
0
LINE
8
BLACK
6
CONTINUOUS
10
12.3682
20
-8.31949
11
12.3679
21
-8.31887
0
LINE
8
BLACK
6
CONTINUOUS
10
12.3679
20
-8.31887
11
12.3679
21
-8.31887
0
LINE
8
BLACK
6
CONTINUOUS
10
12.3679
20
-8.31887
11
12.3674
21
-8.31828
0
LINE
8
BLACK
6
CONTINUOUS
10
12.3674
20
-8.31828
11
12.3674
21
-8.31828
0
LINE
8
BLACK
6
CONTINUOUS
10
12.3674
20
-8.31828
11
12.367
21
-8.31771
0
LINE
8
BLACK
6
CONTINUOUS
10
12.367
20
-8.31771
11
12.3665
21
-8.31716
0
LINE
8
BLACK
6
CONTINUOUS
10
12.3665
20
-8.31716
11
12.3665
21
-8.31716
0
LINE
8
BLACK
6
CONTINUOUS
10
12.3665
20
-8.31716
11
12.366
21
-8.31664
0
LINE
8
BLACK
6
CONTINUOUS
10
12.366
20
-8.31664
11
12.366
21
-8.31664
0
LINE
8
BLACK
6
CONTINUOUS
10
12.366
20
-8.31664
11
12.366
21
-8.31664
0
LINE
8
BLACK
6
CONTINUOUS
10
12.366
20
-8.31664
11
12.3655
21
-8.31614
0
LINE
8
BLACK
6
CONTINUOUS
10
12.3655
20
-8.31614
11
12.3655
21
-8.31614
0
LINE
8
BLACK
6
CONTINUOUS
10
12.3655
20
-8.31614
11
12.3655
21
-8.31614
0
LINE
8
BLACK
6
CONTINUOUS
10
12.3655
20
-8.31614
11
12.365
21
-8.31567
0
LINE
8
BLACK
6
CONTINUOUS
10
12.365
20
-8.31567
11
12.3644
21
-8.31523
0
LINE
8
BLACK
6
CONTINUOUS
10
12.3644
20
-8.31523
11
12.3644
21
-8.31523
0
LINE
8
BLACK
6
CONTINUOUS
10
12.3644
20
-8.31523
11
12.3644
21
-8.31523
0
LINE
8
BLACK
6
CONTINUOUS
10
12.3644
20
-8.31523
11
12.3638
21
-8.31482
0
LINE
8
BLACK
6
CONTINUOUS
10
12.3638
20
-8.31482
11
12.3638
21
-8.31482
0
LINE
8
BLACK
6
CONTINUOUS
10
12.3638
20
-8.31482
11
12.3638
21
-8.31482
0
LINE
8
BLACK
6
CONTINUOUS
10
12.3638
20
-8.31482
11
12.3632
21
-8.31445
0
LINE
8
BLACK
6
CONTINUOUS
10
12.3632
20
-8.31445
11
12.3626
21
-8.3141
0
LINE
8
BLACK
6
CONTINUOUS
10
12.3626
20
-8.3141
11
12.3619
21
-8.31379
0
LINE
8
BLACK
6
CONTINUOUS
10
12.3619
20
-8.31379
11
12.3619
21
-8.31379
0
LINE
8
BLACK
6
CONTINUOUS
10
12.3619
20
-8.31379
11
12.3612
21
-8.31352
0
LINE
8
BLACK
6
CONTINUOUS
10
12.3612
20
-8.31352
11
12.3612
21
-8.31352
0
LINE
8
BLACK
6
CONTINUOUS
10
12.3612
20
-8.31352
11
12.3606
21
-8.31327
0
LINE
8
BLACK
6
CONTINUOUS
10
12.3606
20
-8.31327
11
12.3606
21
-8.31327
0
LINE
8
BLACK
6
CONTINUOUS
10
12.3606
20
-8.31327
11
12.3599
21
-8.31307
0
LINE
8
BLACK
6
CONTINUOUS
10
12.3599
20
-8.31307
11
12.3599
21
-8.31307
0
LINE
8
BLACK
6
CONTINUOUS
10
12.3599
20
-8.31307
11
12.3592
21
-8.3129
0
LINE
8
BLACK
6
CONTINUOUS
10
12.3592
20
-8.3129
11
12.3592
21
-8.3129
0
LINE
8
BLACK
6
CONTINUOUS
10
12.3592
20
-8.3129
11
12.3585
21
-8.31277
0
LINE
8
BLACK
6
CONTINUOUS
10
12.3585
20
-8.31277
11
12.3585
21
-8.31277
0
LINE
8
BLACK
6
CONTINUOUS
10
12.3585
20
-8.31277
11
12.3577
21
-8.31268
0
LINE
8
BLACK
6
CONTINUOUS
10
12.3577
20
-8.31268
11
12.357
21
-8.31262
0
LINE
8
BLACK
6
CONTINUOUS
10
12.357
20
-8.31262
11
12.357
21
-8.31262
0
LINE
8
BLACK
6
CONTINUOUS
10
12.357
20
-8.31262
11
12.3563
21
-8.3126
0
LINE
8
BLACK
6
CONTINUOUS
10
12.3563
20
-8.3126
11
12.3556
21
-8.31262
0
LINE
8
BLACK
6
CONTINUOUS
10
12.3556
20
-8.31262
11
12.3549
21
-8.31268
0
LINE
8
BLACK
6
CONTINUOUS
10
12.3549
20
-8.31268
11
12.3549
21
-8.31268
0
LINE
8
BLACK
6
CONTINUOUS
10
12.3549
20
-8.31268
11
12.3541
21
-8.31277
0
LINE
8
BLACK
6
CONTINUOUS
10
12.3541
20
-8.31277
11
12.3541
21
-8.31277
0
LINE
8
BLACK
6
CONTINUOUS
10
12.3541
20
-8.31277
11
12.3534
21
-8.3129
0
LINE
8
BLACK
6
CONTINUOUS
10
12.3534
20
-8.3129
11
12.3534
21
-8.3129
0
LINE
8
BLACK
6
CONTINUOUS
10
12.3534
20
-8.3129
11
12.3527
21
-8.31307
0
LINE
8
BLACK
6
CONTINUOUS
10
12.3527
20
-8.31307
11
12.352
21
-8.31327
0
LINE
8
BLACK
6
CONTINUOUS
10
12.352
20
-8.31327
11
12.3514
21
-8.31352
0
LINE
8
BLACK
6
CONTINUOUS
10
12.3514
20
-8.31352
11
12.3507
21
-8.31379
0
LINE
8
BLACK
6
CONTINUOUS
10
12.3507
20
-8.31379
11
12.3507
21
-8.31379
0
LINE
8
BLACK
6
CONTINUOUS
10
12.3507
20
-8.31379
11
12.3507
21
-8.31379
0
LINE
8
BLACK
6
CONTINUOUS
10
12.3507
20
-8.31379
11
12.35
21
-8.3141
0
LINE
8
BLACK
6
CONTINUOUS
10
12.35
20
-8.3141
11
12.35
21
-8.3141
0
LINE
8
BLACK
6
CONTINUOUS
10
12.35
20
-8.3141
11
12.35
21
-8.3141
0
LINE
8
BLACK
6
CONTINUOUS
10
12.35
20
-8.3141
11
12.3494
21
-8.31445
0
LINE
8
BLACK
6
CONTINUOUS
10
12.3494
20
-8.31445
11
12.3488
21
-8.31482
0
LINE
8
BLACK
6
CONTINUOUS
10
12.3488
20
-8.31482
11
12.3488
21
-8.31482
0
LINE
8
BLACK
6
CONTINUOUS
10
12.3488
20
-8.31482
11
12.3482
21
-8.31523
0
LINE
8
BLACK
6
CONTINUOUS
10
12.3482
20
-8.31523
11
12.3482
21
-8.31523
0
LINE
8
BLACK
6
CONTINUOUS
10
12.3482
20
-8.31523
11
12.3476
21
-8.31567
0
LINE
8
BLACK
6
CONTINUOUS
10
12.3476
20
-8.31567
11
12.3476
21
-8.31567
0
LINE
8
BLACK
6
CONTINUOUS
10
12.3476
20
-8.31567
11
12.3471
21
-8.31614
0
LINE
8
BLACK
6
CONTINUOUS
10
12.3471
20
-8.31614
11
12.3471
21
-8.31614
0
LINE
8
BLACK
6
CONTINUOUS
10
12.3471
20
-8.31614
11
12.3466
21
-8.31664
0
LINE
8
BLACK
6
CONTINUOUS
10
12.3466
20
-8.31664
11
12.3466
21
-8.31664
0
LINE
8
BLACK
6
CONTINUOUS
10
12.3466
20
-8.31664
11
12.3466
21
-8.31664
0
LINE
8
BLACK
6
CONTINUOUS
10
12.3466
20
-8.31664
11
12.3461
21
-8.31716
0
LINE
8
BLACK
6
CONTINUOUS
10
12.3461
20
-8.31716
11
12.3461
21
-8.31716
0
LINE
8
BLACK
6
CONTINUOUS
10
12.3461
20
-8.31716
11
12.3461
21
-8.31716
0
LINE
8
BLACK
6
CONTINUOUS
10
12.3461
20
-8.31716
11
12.3456
21
-8.31771
0
LINE
8
BLACK
6
CONTINUOUS
10
12.3456
20
-8.31771
11
12.3456
21
-8.31771
0
LINE
8
BLACK
6
CONTINUOUS
10
12.3456
20
-8.31771
11
12.3452
21
-8.31828
0
LINE
8
BLACK
6
CONTINUOUS
10
12.3452
20
-8.31828
11
12.3447
21
-8.31887
0
LINE
8
BLACK
6
CONTINUOUS
10
12.3447
20
-8.31887
11
12.3447
21
-8.31887
0
LINE
8
BLACK
6
CONTINUOUS
10
12.3447
20
-8.31887
11
12.3444
21
-8.31949
0
LINE
8
BLACK
6
CONTINUOUS
10
12.3444
20
-8.31949
11
12.344
21
-8.32012
0
LINE
8
BLACK
6
CONTINUOUS
10
12.344
20
-8.32012
11
12.3437
21
-8.32077
0
LINE
8
BLACK
6
CONTINUOUS
10
12.3437
20
-8.32077
11
12.3434
21
-8.32144
0
LINE
8
BLACK
6
CONTINUOUS
10
12.3434
20
-8.32144
11
12.3434
21
-8.32144
0
LINE
8
BLACK
6
CONTINUOUS
10
12.3434
20
-8.32144
11
12.3432
21
-8.32212
0
LINE
8
BLACK
6
CONTINUOUS
10
12.3432
20
-8.32212
11
12.3432
21
-8.32212
0
LINE
8
BLACK
6
CONTINUOUS
10
12.3432
20
-8.32212
11
12.343
21
-8.32281
0
LINE
8
BLACK
6
CONTINUOUS
10
12.343
20
-8.32281
11
12.343
21
-8.32281
0
LINE
8
BLACK
6
CONTINUOUS
10
12.343
20
-8.32281
11
12.3428
21
-8.32351
0
LINE
8
BLACK
6
CONTINUOUS
10
12.3428
20
-8.32351
11
12.3428
21
-8.32351
0
LINE
8
BLACK
6
CONTINUOUS
10
12.3428
20
-8.32351
11
12.3427
21
-8.32422
0
LINE
8
BLACK
6
CONTINUOUS
10
12.3427
20
-8.32422
11
12.3427
21
-8.32422
0
LINE
8
BLACK
6
CONTINUOUS
10
12.3427
20
-8.32422
11
12.3426
21
-8.32494
0
LINE
8
BLACK
6
CONTINUOUS
10
12.3426
20
-8.32494
11
12.3425
21
-8.32566
0
LINE
8
BLACK
6
CONTINUOUS
10
12.3425
20
-8.32566
11
12.3425
21
-8.32566
0
LINE
8
BLACK
6
CONTINUOUS
10
12.3425
20
-8.32566
11
12.3425
21
-8.32638
0
LINE
8
BLACK
6
CONTINUOUS
10
12.3425
20
-8.32638
11
12.3425
21
-8.37362
0
LINE
8
BLACK
6
CONTINUOUS
10
12.3425
20
-8.37362
11
12.3425
21
-8.37434
0
LINE
8
BLACK
6
CONTINUOUS
10
12.1674
20
-8.30271
11
12.1674
21
-8.30271
0
LINE
8
BLACK
6
CONTINUOUS
10
12.1674
20
-8.30271
11
12.1674
21
-8.30271
0
LINE
8
BLACK
6
CONTINUOUS
10
12.1674
20
-8.30271
11
12.1686
21
-8.30398
0
LINE
8
BLACK
6
CONTINUOUS
10
12.1686
20
-8.30398
11
12.1686
21
-8.30398
0
LINE
8
BLACK
6
CONTINUOUS
10
12.1686
20
-8.30398
11
12.1686
21
-8.30398
0
LINE
8
BLACK
6
CONTINUOUS
10
12.1686
20
-8.30398
11
12.1686
21
-8.30398
0
LINE
8
BLACK
6
CONTINUOUS
10
12.1686
20
-8.30398
11
12.1686
21
-8.30398
0
LINE
8
BLACK
6
CONTINUOUS
10
12.1686
20
-8.30398
11
12.1697
21
-8.30532
0
LINE
8
BLACK
6
CONTINUOUS
10
12.1697
20
-8.30532
11
12.1697
21
-8.30532
0
LINE
8
BLACK
6
CONTINUOUS
10
12.1697
20
-8.30532
11
12.1697
21
-8.30532
0
LINE
8
BLACK
6
CONTINUOUS
10
12.1697
20
-8.30532
11
12.1708
21
-8.30671
0
LINE
8
BLACK
6
CONTINUOUS
10
12.1708
20
-8.30671
11
12.1708
21
-8.30671
0
LINE
8
BLACK
6
CONTINUOUS
10
12.1708
20
-8.30671
11
12.1708
21
-8.30671
0
LINE
8
BLACK
6
CONTINUOUS
10
12.1708
20
-8.30671
11
12.1718
21
-8.30815
0
LINE
8
BLACK
6
CONTINUOUS
10
12.1718
20
-8.30815
11
12.1718
21
-8.30815
0
LINE
8
BLACK
6
CONTINUOUS
10
12.1718
20
-8.30815
11
12.1727
21
-8.30964
0
LINE
8
BLACK
6
CONTINUOUS
10
12.1727
20
-8.30964
11
12.1727
21
-8.30964
0
LINE
8
BLACK
6
CONTINUOUS
10
12.1727
20
-8.30964
11
12.1727
21
-8.30964
0
LINE
8
BLACK
6
CONTINUOUS
10
12.1727
20
-8.30964
11
12.1735
21
-8.31118
0
LINE
8
BLACK
6
CONTINUOUS
10
12.1735
20
-8.31118
11
12.1735
21
-8.31118
0
LINE
8
BLACK
6
CONTINUOUS
10
12.1735
20
-8.31118
11
12.1735
21
-8.31118
0
LINE
8
BLACK
6
CONTINUOUS
10
12.1735
20
-8.31118
11
12.1743
21
-8.31277
0
LINE
8
BLACK
6
CONTINUOUS
10
12.1743
20
-8.31277
11
12.1743
21
-8.31277
0
LINE
8
BLACK
6
CONTINUOUS
10
12.1743
20
-8.31277
11
12.1743
21
-8.31277
0
LINE
8
BLACK
6
CONTINUOUS
10
12.1743
20
-8.31277
11
12.1749
21
-8.31438
0
LINE
8
BLACK
6
CONTINUOUS
10
12.1749
20
-8.31438
11
12.1749
21
-8.31438
0
LINE
8
BLACK
6
CONTINUOUS
10
12.1749
20
-8.31438
11
12.1755
21
-8.31604
0
LINE
8
BLACK
6
CONTINUOUS
10
12.1755
20
-8.31604
11
12.1755
21
-8.31604
0
LINE
8
BLACK
6
CONTINUOUS
10
12.1755
20
-8.31604
11
12.176
21
-8.31772
0
LINE
8
BLACK
6
CONTINUOUS
10
12.176
20
-8.31772
11
12.176
21
-8.31772
0
LINE
8
BLACK
6
CONTINUOUS
10
12.176
20
-8.31772
11
12.1764
21
-8.31942
0
LINE
8
BLACK
6
CONTINUOUS
10
12.1764
20
-8.31942
11
12.1764
21
-8.31942
0
LINE
8
BLACK
6
CONTINUOUS
10
12.1764
20
-8.31942
11
12.1768
21
-8.32114
0
LINE
8
BLACK
6
CONTINUOUS
10
12.1768
20
-8.32114
11
12.1768
21
-8.32114
0
LINE
8
BLACK
6
CONTINUOUS
10
12.1768
20
-8.32114
11
12.177
21
-8.32288
0
LINE
8
BLACK
6
CONTINUOUS
10
12.177
20
-8.32288
11
12.177
21
-8.32288
0
LINE
8
BLACK
6
CONTINUOUS
10
12.177
20
-8.32288
11
12.1771
21
-8.32463
0
LINE
8
BLACK
6
CONTINUOUS
10
12.1771
20
-8.32463
11
12.1771
21
-8.32463
0
LINE
8
BLACK
6
CONTINUOUS
10
12.1771
20
-8.32463
11
12.1772
21
-8.32638
0
LINE
8
BLACK
6
CONTINUOUS
10
12.1772
20
-8.32638
11
12.1772
21
-8.37362
0
LINE
8
BLACK
6
CONTINUOUS
10
12.1772
20
-8.37362
11
12.1771
21
-8.37537
0
LINE
8
BLACK
6
CONTINUOUS
10
12.1771
20
-8.37537
11
12.1771
21
-8.37537
0
LINE
8
BLACK
6
CONTINUOUS
10
12.1771
20
-8.37537
11
12.177
21
-8.37712
0
LINE
8
BLACK
6
CONTINUOUS
10
12.177
20
-8.37712
11
12.177
21
-8.37712
0
LINE
8
BLACK
6
CONTINUOUS
10
12.177
20
-8.37712
11
12.1768
21
-8.37886
0
LINE
8
BLACK
6
CONTINUOUS
10
12.1768
20
-8.37886
11
12.1768
21
-8.37886
0
LINE
8
BLACK
6
CONTINUOUS
10
12.1768
20
-8.37886
11
12.1768
21
-8.37886
0
LINE
8
BLACK
6
CONTINUOUS
10
12.1768
20
-8.37886
11
12.1764
21
-8.38058
0
LINE
8
BLACK
6
CONTINUOUS
10
12.1764
20
-8.38058
11
12.1764
21
-8.38058
0
LINE
8
BLACK
6
CONTINUOUS
10
12.1764
20
-8.38058
11
12.1764
21
-8.38058
0
LINE
8
BLACK
6
CONTINUOUS
10
12.1764
20
-8.38058
11
12.176
21
-8.38228
0
LINE
8
BLACK
6
CONTINUOUS
10
12.176
20
-8.38228
11
12.176
21
-8.38228
0
LINE
8
BLACK
6
CONTINUOUS
10
12.176
20
-8.38228
11
12.176
21
-8.38228
0
LINE
8
BLACK
6
CONTINUOUS
10
12.176
20
-8.38228
11
12.1755
21
-8.38396
0
LINE
8
BLACK
6
CONTINUOUS
10
12.1755
20
-8.38396
11
12.1755
21
-8.38396
0
LINE
8
BLACK
6
CONTINUOUS
10
12.1755
20
-8.38396
11
12.1755
21
-8.38396
0
LINE
8
BLACK
6
CONTINUOUS
10
12.1755
20
-8.38396
11
12.1749
21
-8.38562
0
LINE
8
BLACK
6
CONTINUOUS
10
12.1749
20
-8.38562
11
12.1749
21
-8.38562
0
LINE
8
BLACK
6
CONTINUOUS
10
12.1749
20
-8.38562
11
12.1749
21
-8.38562
0
LINE
8
BLACK
6
CONTINUOUS
10
12.1749
20
-8.38562
11
12.1743
21
-8.38723
0
LINE
8
BLACK
6
CONTINUOUS
10
12.1743
20
-8.38723
11
12.1743
21
-8.38723
0
LINE
8
BLACK
6
CONTINUOUS
10
12.1743
20
-8.38723
11
12.1743
21
-8.38723
0
LINE
8
BLACK
6
CONTINUOUS
10
12.1743
20
-8.38723
11
12.1735
21
-8.38882
0
LINE
8
BLACK
6
CONTINUOUS
10
12.1735
20
-8.38882
11
12.1735
21
-8.38882
0
LINE
8
BLACK
6
CONTINUOUS
10
12.1735
20
-8.38882
11
12.1727
21
-8.39036
0
LINE
8
BLACK
6
CONTINUOUS
10
12.1727
20
-8.39036
11
12.1727
21
-8.39036
0
LINE
8
BLACK
6
CONTINUOUS
10
12.1727
20
-8.39036
11
12.1718
21
-8.39185
0
LINE
8
BLACK
6
CONTINUOUS
10
12.1718
20
-8.39185
11
12.1718
21
-8.39185
0
LINE
8
BLACK
6
CONTINUOUS
10
12.1718
20
-8.39185
11
12.1718
21
-8.39185
0
LINE
8
BLACK
6
CONTINUOUS
10
12.1718
20
-8.39185
11
12.1708
21
-8.39329
0
LINE
8
BLACK
6
CONTINUOUS
10
12.1708
20
-8.39329
11
12.1708
21
-8.39329
0
LINE
8
BLACK
6
CONTINUOUS
10
12.1708
20
-8.39329
11
12.1697
21
-8.39468
0
LINE
8
BLACK
6
CONTINUOUS
10
12.1697
20
-8.39468
11
12.1697
21
-8.39468
0
LINE
8
BLACK
6
CONTINUOUS
10
12.1697
20
-8.39468
11
12.1686
21
-8.39602
0
LINE
8
BLACK
6
CONTINUOUS
10
12.1686
20
-8.39602
11
12.1686
21
-8.39602
0
LINE
8
BLACK
6
CONTINUOUS
10
12.1686
20
-8.39602
11
12.1674
21
-8.39729
0
LINE
8
BLACK
6
CONTINUOUS
10
12.1674
20
-8.39729
11
12.1674
21
-8.39729
0
LINE
8
BLACK
6
CONTINUOUS
10
12.1674
20
-8.39729
11
12.1661
21
-8.39849
0
LINE
8
BLACK
6
CONTINUOUS
10
12.1661
20
-8.39849
11
12.1661
21
-8.39849
0
LINE
8
BLACK
6
CONTINUOUS
10
12.1661
20
-8.39849
11
12.1661
21
-8.39849
0
LINE
8
BLACK
6
CONTINUOUS
10
12.1661
20
-8.39849
11
12.1648
21
-8.39963
0
LINE
8
BLACK
6
CONTINUOUS
10
12.1648
20
-8.39963
11
12.1648
21
-8.39963
0
LINE
8
BLACK
6
CONTINUOUS
10
12.1648
20
-8.39963
11
12.1648
21
-8.39963
0
LINE
8
BLACK
6
CONTINUOUS
10
12.1648
20
-8.39963
11
12.1634
21
-8.4007
0
LINE
8
BLACK
6
CONTINUOUS
10
12.1634
20
-8.4007
11
12.1634
21
-8.4007
0
LINE
8
BLACK
6
CONTINUOUS
10
12.1634
20
-8.4007
11
12.1619
21
-8.40169
0
LINE
8
BLACK
6
CONTINUOUS
10
12.1619
20
-8.40169
11
12.1619
21
-8.40169
0
LINE
8
BLACK
6
CONTINUOUS
10
12.1619
20
-8.40169
11
12.1604
21
-8.4026
0
LINE
8
BLACK
6
CONTINUOUS
10
12.1604
20
-8.4026
11
12.1604
21
-8.4026
0
LINE
8
BLACK
6
CONTINUOUS
10
12.1604
20
-8.4026
11
12.1604
21
-8.4026
0
LINE
8
BLACK
6
CONTINUOUS
10
12.1604
20
-8.4026
11
12.1589
21
-8.40344
0
LINE
8
BLACK
6
CONTINUOUS
10
12.1589
20
-8.40344
11
12.1589
21
-8.40344
0
LINE
8
BLACK
6
CONTINUOUS
10
12.1589
20
-8.40344
11
12.1573
21
-8.4042
0
LINE
8
BLACK
6
CONTINUOUS
10
12.1573
20
-8.4042
11
12.1573
21
-8.4042
0
LINE
8
BLACK
6
CONTINUOUS
10
12.1573
20
-8.4042
11
12.1573
21
-8.4042
0
LINE
8
BLACK
6
CONTINUOUS
10
12.1573
20
-8.4042
11
12.1557
21
-8.40487
0
LINE
8
BLACK
6
CONTINUOUS
10
12.1557
20
-8.40487
11
12.1557
21
-8.40487
0
LINE
8
BLACK
6
CONTINUOUS
10
12.1557
20
-8.40487
11
12.1557
21
-8.40487
0
LINE
8
BLACK
6
CONTINUOUS
10
12.1557
20
-8.40487
11
12.154
21
-8.40545
0
LINE
8
BLACK
6
CONTINUOUS
10
12.154
20
-8.40545
11
12.154
21
-8.40545
0
LINE
8
BLACK
6
CONTINUOUS
10
12.154
20
-8.40545
11
12.1524
21
-8.40595
0
LINE
8
BLACK
6
CONTINUOUS
10
12.1524
20
-8.40595
11
12.1524
21
-8.40595
0
LINE
8
BLACK
6
CONTINUOUS
10
12.1524
20
-8.40595
11
12.1507
21
-8.40636
0
LINE
8
BLACK
6
CONTINUOUS
10
12.1507
20
-8.40636
11
12.1507
21
-8.40636
0
LINE
8
BLACK
6
CONTINUOUS
10
12.1507
20
-8.40636
11
12.1507
21
-8.40636
0
LINE
8
BLACK
6
CONTINUOUS
10
12.1507
20
-8.40636
11
12.1489
21
-8.40668
0
LINE
8
BLACK
6
CONTINUOUS
10
12.1489
20
-8.40668
11
12.1489
21
-8.40668
0
LINE
8
BLACK
6
CONTINUOUS
10
12.1489
20
-8.40668
11
12.1472
21
-8.40691
0
LINE
8
BLACK
6
CONTINUOUS
10
12.1472
20
-8.40691
11
12.1472
21
-8.40691
0
LINE
8
BLACK
6
CONTINUOUS
10
12.1472
20
-8.40691
11
12.1455
21
-8.40704
0
LINE
8
BLACK
6
CONTINUOUS
10
12.1455
20
-8.40704
11
12.1455
21
-8.40704
0
LINE
8
BLACK
6
CONTINUOUS
10
12.1455
20
-8.40704
11
12.1437
21
-8.40709
0
LINE
8
BLACK
6
CONTINUOUS
10
12.1437
20
-8.40709
11
12.1437
21
-8.40709
0
LINE
8
BLACK
6
CONTINUOUS
10
12.1437
20
-8.40709
11
12.1419
21
-8.40704
0
LINE
8
BLACK
6
CONTINUOUS
10
12.1419
20
-8.40704
11
12.1419
21
-8.40704
0
LINE
8
BLACK
6
CONTINUOUS
10
12.1419
20
-8.40704
11
12.1402
21
-8.40691
0
LINE
8
BLACK
6
CONTINUOUS
10
12.1402
20
-8.40691
11
12.1402
21
-8.40691
0
LINE
8
BLACK
6
CONTINUOUS
10
12.1402
20
-8.40691
11
12.1385
21
-8.40668
0
LINE
8
BLACK
6
CONTINUOUS
10
12.1385
20
-8.40668
11
12.1385
21
-8.40668
0
LINE
8
BLACK
6
CONTINUOUS
10
12.1385
20
-8.40668
11
12.1385
21
-8.40668
0
LINE
8
BLACK
6
CONTINUOUS
10
12.1385
20
-8.40668
11
12.1367
21
-8.40636
0
LINE
8
BLACK
6
CONTINUOUS
10
12.1367
20
-8.40636
11
12.1367
21
-8.40636
0
LINE
8
BLACK
6
CONTINUOUS
10
12.1367
20
-8.40636
11
12.135
21
-8.40595
0
LINE
8
BLACK
6
CONTINUOUS
10
12.135
20
-8.40595
11
12.135
21
-8.40595
0
LINE
8
BLACK
6
CONTINUOUS
10
12.135
20
-8.40595
11
12.135
21
-8.40595
0
LINE
8
BLACK
6
CONTINUOUS
10
12.135
20
-8.40595
11
12.1334
21
-8.40545
0
LINE
8
BLACK
6
CONTINUOUS
10
12.1334
20
-8.40545
11
12.1334
21
-8.40545
0
LINE
8
BLACK
6
CONTINUOUS
10
12.1334
20
-8.40545
11
12.1334
21
-8.40545
0
LINE
8
BLACK
6
CONTINUOUS
10
12.1334
20
-8.40545
11
12.1317
21
-8.40487
0
LINE
8
BLACK
6
CONTINUOUS
10
12.1317
20
-8.40487
11
12.1317
21
-8.40487
0
LINE
8
BLACK
6
CONTINUOUS
10
12.1317
20
-8.40487
11
12.1317
21
-8.40487
0
LINE
8
BLACK
6
CONTINUOUS
10
12.1317
20
-8.40487
11
12.1301
21
-8.4042
0
LINE
8
BLACK
6
CONTINUOUS
10
12.1301
20
-8.4042
11
12.1301
21
-8.4042
0
LINE
8
BLACK
6
CONTINUOUS
10
12.1301
20
-8.4042
11
12.1301
21
-8.4042
0
LINE
8
BLACK
6
CONTINUOUS
10
12.1301
20
-8.4042
11
12.1285
21
-8.40344
0
LINE
8
BLACK
6
CONTINUOUS
10
12.1285
20
-8.40344
11
12.1285
21
-8.40344
0
LINE
8
BLACK
6
CONTINUOUS
10
12.1285
20
-8.40344
11
12.127
21
-8.4026
0
LINE
8
BLACK
6
CONTINUOUS
10
12.127
20
-8.4026
11
12.127
21
-8.4026
0
LINE
8
BLACK
6
CONTINUOUS
10
12.127
20
-8.4026
11
12.1255
21
-8.40169
0
LINE
8
BLACK
6
CONTINUOUS
10
12.1255
20
-8.40169
11
12.1255
21
-8.40169
0
LINE
8
BLACK
6
CONTINUOUS
10
12.1255
20
-8.40169
11
12.1255
21
-8.40169
0
LINE
8
BLACK
6
CONTINUOUS
10
12.1255
20
-8.40169
11
12.1255
21
-8.40169
0
LINE
8
BLACK
6
CONTINUOUS
10
12.1255
20
-8.40169
11
12.124
21
-8.4007
0
LINE
8
BLACK
6
CONTINUOUS
10
12.124
20
-8.4007
11
12.124
21
-8.4007
0
LINE
8
BLACK
6
CONTINUOUS
10
12.124
20
-8.4007
11
12.124
21
-8.4007
0
LINE
8
BLACK
6
CONTINUOUS
10
12.124
20
-8.4007
11
12.1226
21
-8.39963
0
LINE
8
BLACK
6
CONTINUOUS
10
12.1226
20
-8.39963
11
12.1226
21
-8.39963
0
LINE
8
BLACK
6
CONTINUOUS
10
12.1226
20
-8.39963
11
12.1213
21
-8.39849
0
LINE
8
BLACK
6
CONTINUOUS
10
12.1213
20
-8.39849
11
12.1213
21
-8.39849
0
LINE
8
BLACK
6
CONTINUOUS
10
12.1213
20
-8.39849
11
12.12
21
-8.39729
0
LINE
8
BLACK
6
CONTINUOUS
10
12.12
20
-8.39729
11
12.12
21
-8.39729
0
LINE
8
BLACK
6
CONTINUOUS
10
12.12
20
-8.39729
11
12.12
21
-8.39729
0
LINE
8
BLACK
6
CONTINUOUS
10
12.12
20
-8.39729
11
12.1188
21
-8.39602
0
LINE
8
BLACK
6
CONTINUOUS
10
12.1188
20
-8.39602
11
12.1188
21
-8.39602
0
LINE
8
BLACK
6
CONTINUOUS
10
12.1188
20
-8.39602
11
12.1188
21
-8.39602
0
LINE
8
BLACK
6
CONTINUOUS
10
12.1188
20
-8.39602
11
12.1177
21
-8.39468
0
LINE
8
BLACK
6
CONTINUOUS
10
12.1177
20
-8.39468
11
12.1177
21
-8.39468
0
LINE
8
BLACK
6
CONTINUOUS
10
12.1177
20
-8.39468
11
12.1177
21
-8.39468
0
LINE
8
BLACK
6
CONTINUOUS
10
12.1177
20
-8.39468
11
12.1166
21
-8.39329
0
LINE
8
BLACK
6
CONTINUOUS
10
12.1166
20
-8.39329
11
12.1166
21
-8.39329
0
LINE
8
BLACK
6
CONTINUOUS
10
12.1166
20
-8.39329
11
12.1156
21
-8.39185
0
LINE
8
BLACK
6
CONTINUOUS
10
12.1156
20
-8.39185
11
12.1156
21
-8.39185
0
LINE
8
BLACK
6
CONTINUOUS
10
12.1156
20
-8.39185
11
12.1156
21
-8.39185
0
LINE
8
BLACK
6
CONTINUOUS
10
12.1156
20
-8.39185
11
12.1147
21
-8.39036
0
LINE
8
BLACK
6
CONTINUOUS
10
12.1147
20
-8.39036
11
12.1147
21
-8.39036
0
LINE
8
BLACK
6
CONTINUOUS
10
12.1147
20
-8.39036
11
12.1147
21
-8.39036
0
LINE
8
BLACK
6
CONTINUOUS
10
12.1147
20
-8.39036
11
12.1139
21
-8.38882
0
LINE
8
BLACK
6
CONTINUOUS
10
12.1139
20
-8.38882
11
12.1139
21
-8.38882
0
LINE
8
BLACK
6
CONTINUOUS
10
12.1139
20
-8.38882
11
12.1139
21
-8.38882
0
LINE
8
BLACK
6
CONTINUOUS
10
12.1139
20
-8.38882
11
12.1131
21
-8.38723
0
LINE
8
BLACK
6
CONTINUOUS
10
12.1131
20
-8.38723
11
12.1131
21
-8.38723
0
LINE
8
BLACK
6
CONTINUOUS
10
12.1131
20
-8.38723
11
12.1131
21
-8.38723
0
LINE
8
BLACK
6
CONTINUOUS
10
12.1131
20
-8.38723
11
12.1131
21
-8.38723
0
LINE
8
BLACK
6
CONTINUOUS
10
12.1131
20
-8.38723
11
12.1125
21
-8.38562
0
LINE
8
BLACK
6
CONTINUOUS
10
12.1125
20
-8.38562
11
12.1125
21
-8.38562
0
LINE
8
BLACK
6
CONTINUOUS
10
12.1125
20
-8.38562
11
12.1125
21
-8.38562
0
LINE
8
BLACK
6
CONTINUOUS
10
12.1125
20
-8.38562
11
12.1119
21
-8.38396
0
LINE
8
BLACK
6
CONTINUOUS
10
12.1119
20
-8.38396
11
12.1119
21
-8.38396
0
LINE
8
BLACK
6
CONTINUOUS
10
12.1119
20
-8.38396
11
12.1114
21
-8.38228
0
LINE
8
BLACK
6
CONTINUOUS
10
12.1114
20
-8.38228
11
12.1114
21
-8.38228
0
LINE
8
BLACK
6
CONTINUOUS
10
12.1114
20
-8.38228
11
12.1114
21
-8.38228
0
LINE
8
BLACK
6
CONTINUOUS
10
12.1114
20
-8.38228
11
12.111
21
-8.38058
0
LINE
8
BLACK
6
CONTINUOUS
10
12.111
20
-8.38058
11
12.111
21
-8.38058
0
LINE
8
BLACK
6
CONTINUOUS
10
12.111
20
-8.38058
11
12.111
21
-8.38058
0
LINE
8
BLACK
6
CONTINUOUS
10
12.111
20
-8.38058
11
12.111
21
-8.38058
0
LINE
8
BLACK
6
CONTINUOUS
10
12.111
20
-8.38058
11
12.1106
21
-8.37886
0
LINE
8
BLACK
6
CONTINUOUS
10
12.1106
20
-8.37886
11
12.1106
21
-8.37886
0
LINE
8
BLACK
6
CONTINUOUS
10
12.1106
20
-8.37886
11
12.1104
21
-8.37712
0
LINE
8
BLACK
6
CONTINUOUS
10
12.1104
20
-8.37712
11
12.1104
21
-8.37712
0
LINE
8
BLACK
6
CONTINUOUS
10
12.1104
20
-8.37712
11
12.1103
21
-8.37537
0
LINE
8
BLACK
6
CONTINUOUS
10
12.1103
20
-8.37537
11
12.1103
21
-8.37537
0
LINE
8
BLACK
6
CONTINUOUS
10
12.1103
20
-8.37537
11
12.1102
21
-8.37362
0
LINE
8
BLACK
6
CONTINUOUS
10
12.1102
20
-8.37362
11
12.1102
21
-8.32638
0
LINE
8
BLACK
6
CONTINUOUS
10
12.1102
20
-8.32638
11
12.1103
21
-8.32463
0
LINE
8
BLACK
6
CONTINUOUS
10
12.1103
20
-8.32463
11
12.1103
21
-8.32463
0
LINE
8
BLACK
6
CONTINUOUS
10
12.1103
20
-8.32463
11
12.1104
21
-8.32288
0
LINE
8
BLACK
6
CONTINUOUS
10
12.1104
20
-8.32288
11
12.1104
21
-8.32288
0
LINE
8
BLACK
6
CONTINUOUS
10
12.1104
20
-8.32288
11
12.1106
21
-8.32114
0
LINE
8
BLACK
6
CONTINUOUS
10
12.1106
20
-8.32114
11
12.1106
21
-8.32114
0
LINE
8
BLACK
6
CONTINUOUS
10
12.1106
20
-8.32114
11
12.1106
21
-8.32114
0
LINE
8
BLACK
6
CONTINUOUS
10
12.1106
20
-8.32114
11
12.111
21
-8.31942
0
LINE
8
BLACK
6
CONTINUOUS
10
12.111
20
-8.31942
11
12.111
21
-8.31942
0
LINE
8
BLACK
6
CONTINUOUS
10
12.111
20
-8.31942
11
12.1114
21
-8.31772
0
LINE
8
BLACK
6
CONTINUOUS
10
12.1114
20
-8.31772
11
12.1114
21
-8.31772
0
LINE
8
BLACK
6
CONTINUOUS
10
12.1114
20
-8.31772
11
12.1114
21
-8.31772
0
LINE
8
BLACK
6
CONTINUOUS
10
12.1114
20
-8.31772
11
12.1119
21
-8.31604
0
LINE
8
BLACK
6
CONTINUOUS
10
12.1119
20
-8.31604
11
12.1119
21
-8.31604
0
LINE
8
BLACK
6
CONTINUOUS
10
12.1119
20
-8.31604
11
12.1119
21
-8.31604
0
LINE
8
BLACK
6
CONTINUOUS
10
12.1119
20
-8.31604
11
12.1125
21
-8.31438
0
LINE
8
BLACK
6
CONTINUOUS
10
12.1125
20
-8.31438
11
12.1125
21
-8.31438
0
LINE
8
BLACK
6
CONTINUOUS
10
12.1125
20
-8.31438
11
12.1125
21
-8.31438
0
LINE
8
BLACK
6
CONTINUOUS
10
12.1125
20
-8.31438
11
12.1131
21
-8.31277
0
LINE
8
BLACK
6
CONTINUOUS
10
12.1131
20
-8.31277
11
12.1131
21
-8.31277
0
LINE
8
BLACK
6
CONTINUOUS
10
12.1131
20
-8.31277
11
12.1131
21
-8.31277
0
LINE
8
BLACK
6
CONTINUOUS
10
12.1131
20
-8.31277
11
12.1139
21
-8.31118
0
LINE
8
BLACK
6
CONTINUOUS
10
12.1139
20
-8.31118
11
12.1139
21
-8.31118
0
LINE
8
BLACK
6
CONTINUOUS
10
12.1139
20
-8.31118
11
12.1147
21
-8.30964
0
LINE
8
BLACK
6
CONTINUOUS
10
12.1147
20
-8.30964
11
12.1147
21
-8.30964
0
LINE
8
BLACK
6
CONTINUOUS
10
12.1147
20
-8.30964
11
12.1147
21
-8.30964
0
LINE
8
BLACK
6
CONTINUOUS
10
12.1147
20
-8.30964
11
12.1156
21
-8.30815
0
LINE
8
BLACK
6
CONTINUOUS
10
12.1156
20
-8.30815
11
12.1156
21
-8.30815
0
LINE
8
BLACK
6
CONTINUOUS
10
12.1156
20
-8.30815
11
12.1166
21
-8.30671
0
LINE
8
BLACK
6
CONTINUOUS
10
12.1166
20
-8.30671
11
12.1166
21
-8.30671
0
LINE
8
BLACK
6
CONTINUOUS
10
12.1166
20
-8.30671
11
12.1166
21
-8.30671
0
LINE
8
BLACK
6
CONTINUOUS
10
12.1166
20
-8.30671
11
12.1177
21
-8.30532
0
LINE
8
BLACK
6
CONTINUOUS
10
12.1177
20
-8.30532
11
12.1177
21
-8.30532
0
LINE
8
BLACK
6
CONTINUOUS
10
12.1177
20
-8.30532
11
12.1188
21
-8.30398
0
LINE
8
BLACK
6
CONTINUOUS
10
12.1188
20
-8.30398
11
12.1188
21
-8.30398
0
LINE
8
BLACK
6
CONTINUOUS
10
12.1188
20
-8.30398
11
12.1188
21
-8.30398
0
LINE
8
BLACK
6
CONTINUOUS
10
12.1188
20
-8.30398
11
12.12
21
-8.30271
0
LINE
8
BLACK
6
CONTINUOUS
10
12.12
20
-8.30271
11
12.12
21
-8.30271
0
LINE
8
BLACK
6
CONTINUOUS
10
12.12
20
-8.30271
11
12.12
21
-8.30271
0
LINE
8
BLACK
6
CONTINUOUS
10
12.12
20
-8.30271
11
12.1213
21
-8.30151
0
LINE
8
BLACK
6
CONTINUOUS
10
12.1213
20
-8.30151
11
12.1213
21
-8.30151
0
LINE
8
BLACK
6
CONTINUOUS
10
12.1213
20
-8.30151
11
12.1213
21
-8.30151
0
LINE
8
BLACK
6
CONTINUOUS
10
12.1213
20
-8.30151
11
12.1226
21
-8.30037
0
LINE
8
BLACK
6
CONTINUOUS
10
12.1226
20
-8.30037
11
12.1226
21
-8.30037
0
LINE
8
BLACK
6
CONTINUOUS
10
12.1226
20
-8.30037
11
12.1226
21
-8.30037
0
LINE
8
BLACK
6
CONTINUOUS
10
12.1226
20
-8.30037
11
12.124
21
-8.2993
0
LINE
8
BLACK
6
CONTINUOUS
10
12.124
20
-8.2993
11
12.124
21
-8.2993
0
LINE
8
BLACK
6
CONTINUOUS
10
12.124
20
-8.2993
11
12.124
21
-8.2993
0
LINE
8
BLACK
6
CONTINUOUS
10
12.124
20
-8.2993
11
12.1255
21
-8.29831
0
LINE
8
BLACK
6
CONTINUOUS
10
12.1255
20
-8.29831
11
12.1255
21
-8.29831
0
LINE
8
BLACK
6
CONTINUOUS
10
12.1255
20
-8.29831
11
12.127
21
-8.2974
0
LINE
8
BLACK
6
CONTINUOUS
10
12.127
20
-8.2974
11
12.127
21
-8.2974
0
LINE
8
BLACK
6
CONTINUOUS
10
12.127
20
-8.2974
11
12.127
21
-8.2974
0
LINE
8
BLACK
6
CONTINUOUS
10
12.127
20
-8.2974
11
12.1285
21
-8.29656
0
LINE
8
BLACK
6
CONTINUOUS
10
12.1285
20
-8.29656
11
12.1285
21
-8.29656
0
LINE
8
BLACK
6
CONTINUOUS
10
12.1285
20
-8.29656
11
12.1285
21
-8.29656
0
LINE
8
BLACK
6
CONTINUOUS
10
12.1285
20
-8.29656
11
12.1301
21
-8.2958
0
LINE
8
BLACK
6
CONTINUOUS
10
12.1301
20
-8.2958
11
12.1301
21
-8.2958
0
LINE
8
BLACK
6
CONTINUOUS
10
12.1301
20
-8.2958
11
12.1301
21
-8.2958
0
LINE
8
BLACK
6
CONTINUOUS
10
12.1301
20
-8.2958
11
12.1317
21
-8.29513
0
LINE
8
BLACK
6
CONTINUOUS
10
12.1317
20
-8.29513
11
12.1317
21
-8.29513
0
LINE
8
BLACK
6
CONTINUOUS
10
12.1317
20
-8.29513
11
12.1317
21
-8.29513
0
LINE
8
BLACK
6
CONTINUOUS
10
12.1317
20
-8.29513
11
12.1334
21
-8.29455
0
LINE
8
BLACK
6
CONTINUOUS
10
12.1334
20
-8.29455
11
12.1334
21
-8.29455
0
LINE
8
BLACK
6
CONTINUOUS
10
12.1334
20
-8.29455
11
12.1334
21
-8.29455
0
LINE
8
BLACK
6
CONTINUOUS
10
12.1334
20
-8.29455
11
12.135
21
-8.29405
0
LINE
8
BLACK
6
CONTINUOUS
10
12.135
20
-8.29405
11
12.135
21
-8.29405
0
LINE
8
BLACK
6
CONTINUOUS
10
12.135
20
-8.29405
11
12.1367
21
-8.29364
0
LINE
8
BLACK
6
CONTINUOUS
10
12.1367
20
-8.29364
11
12.1367
21
-8.29364
0
LINE
8
BLACK
6
CONTINUOUS
10
12.1367
20
-8.29364
11
12.1367
21
-8.29364
0
LINE
8
BLACK
6
CONTINUOUS
10
12.1367
20
-8.29364
11
12.1385
21
-8.29332
0
LINE
8
BLACK
6
CONTINUOUS
10
12.1385
20
-8.29332
11
12.1385
21
-8.29332
0
LINE
8
BLACK
6
CONTINUOUS
10
12.1385
20
-8.29332
11
12.1402
21
-8.29309
0
LINE
8
BLACK
6
CONTINUOUS
10
12.1402
20
-8.29309
11
12.1402
21
-8.29309
0
LINE
8
BLACK
6
CONTINUOUS
10
12.1402
20
-8.29309
11
12.1419
21
-8.29296
0
LINE
8
BLACK
6
CONTINUOUS
10
12.1419
20
-8.29296
11
12.1419
21
-8.29296
0
LINE
8
BLACK
6
CONTINUOUS
10
12.1419
20
-8.29296
11
12.1437
21
-8.29291
0
LINE
8
BLACK
6
CONTINUOUS
10
12.1437
20
-8.29291
11
12.1437
21
-8.29291
0
LINE
8
BLACK
6
CONTINUOUS
10
12.1437
20
-8.29291
11
12.1455
21
-8.29296
0
LINE
8
BLACK
6
CONTINUOUS
10
12.1455
20
-8.29296
11
12.1455
21
-8.29296
0
LINE
8
BLACK
6
CONTINUOUS
10
12.1455
20
-8.29296
11
12.1472
21
-8.29309
0
LINE
8
BLACK
6
CONTINUOUS
10
12.1472
20
-8.29309
11
12.1472
21
-8.29309
0
LINE
8
BLACK
6
CONTINUOUS
10
12.1472
20
-8.29309
11
12.1489
21
-8.29332
0
LINE
8
BLACK
6
CONTINUOUS
10
12.1489
20
-8.29332
11
12.1489
21
-8.29332
0
LINE
8
BLACK
6
CONTINUOUS
10
12.1489
20
-8.29332
11
12.1489
21
-8.29332
0
LINE
8
BLACK
6
CONTINUOUS
10
12.1489
20
-8.29332
11
12.1507
21
-8.29364
0
LINE
8
BLACK
6
CONTINUOUS
10
12.1507
20
-8.29364
11
12.1507
21
-8.29364
0
LINE
8
BLACK
6
CONTINUOUS
10
12.1507
20
-8.29364
11
12.1524
21
-8.29405
0
LINE
8
BLACK
6
CONTINUOUS
10
12.1524
20
-8.29405
11
12.1524
21
-8.29405
0
LINE
8
BLACK
6
CONTINUOUS
10
12.1524
20
-8.29405
11
12.1524
21
-8.29405
0
LINE
8
BLACK
6
CONTINUOUS
10
12.1524
20
-8.29405
11
12.154
21
-8.29455
0
LINE
8
BLACK
6
CONTINUOUS
10
12.154
20
-8.29455
11
12.154
21
-8.29455
0
LINE
8
BLACK
6
CONTINUOUS
10
12.154
20
-8.29455
11
12.154
21
-8.29455
0
LINE
8
BLACK
6
CONTINUOUS
10
12.154
20
-8.29455
11
12.1557
21
-8.29513
0
LINE
8
BLACK
6
CONTINUOUS
10
12.1557
20
-8.29513
11
12.1557
21
-8.29513
0
LINE
8
BLACK
6
CONTINUOUS
10
12.1557
20
-8.29513
11
12.1557
21
-8.29513
0
LINE
8
BLACK
6
CONTINUOUS
10
12.1557
20
-8.29513
11
12.1573
21
-8.2958
0
LINE
8
BLACK
6
CONTINUOUS
10
12.1573
20
-8.2958
11
12.1573
21
-8.2958
0
LINE
8
BLACK
6
CONTINUOUS
10
12.1573
20
-8.2958
11
12.1573
21
-8.2958
0
LINE
8
BLACK
6
CONTINUOUS
10
12.1573
20
-8.2958
11
12.1573
21
-8.2958
0
LINE
8
BLACK
6
CONTINUOUS
10
12.1573
20
-8.2958
11
12.1589
21
-8.29656
0
LINE
8
BLACK
6
CONTINUOUS
10
12.1589
20
-8.29656
11
12.1589
21
-8.29656
0
LINE
8
BLACK
6
CONTINUOUS
10
12.1589
20
-8.29656
11
12.1604
21
-8.2974
0
LINE
8
BLACK
6
CONTINUOUS
10
12.1604
20
-8.2974
11
12.1604
21
-8.2974
0
LINE
8
BLACK
6
CONTINUOUS
10
12.1604
20
-8.2974
11
12.1619
21
-8.29831
0
LINE
8
BLACK
6
CONTINUOUS
10
12.1619
20
-8.29831
11
12.1619
21
-8.29831
0
LINE
8
BLACK
6
CONTINUOUS
10
12.1619
20
-8.29831
11
12.1619
21
-8.29831
0
LINE
8
BLACK
6
CONTINUOUS
10
12.1619
20
-8.29831
11
12.1619
21
-8.29831
0
LINE
8
BLACK
6
CONTINUOUS
10
12.1619
20
-8.29831
11
12.1634
21
-8.2993
0
LINE
8
BLACK
6
CONTINUOUS
10
12.1634
20
-8.2993
11
12.1634
21
-8.2993
0
LINE
8
BLACK
6
CONTINUOUS
10
12.1634
20
-8.2993
11
12.1634
21
-8.2993
0
LINE
8
BLACK
6
CONTINUOUS
10
12.1634
20
-8.2993
11
12.1634
21
-8.2993
0
LINE
8
BLACK
6
CONTINUOUS
10
12.1634
20
-8.2993
11
12.1634
21
-8.2993
0
LINE
8
BLACK
6
CONTINUOUS
10
12.1634
20
-8.2993
11
12.1648
21
-8.30037
0
LINE
8
BLACK
6
CONTINUOUS
10
12.1648
20
-8.30037
11
12.1648
21
-8.30037
0
LINE
8
BLACK
6
CONTINUOUS
10
12.1648
20
-8.30037
11
12.1661
21
-8.30151
0
LINE
8
BLACK
6
CONTINUOUS
10
12.1661
20
-8.30151
11
12.1661
21
-8.30151
0
LINE
8
BLACK
6
CONTINUOUS
10
12.1661
20
-8.30151
11
12.1674
21
-8.30271
0
LINE
8
BLACK
6
CONTINUOUS
10
12.1299
20
-8.37434
11
12.1299
21
-8.37434
0
LINE
8
BLACK
6
CONTINUOUS
10
12.1299
20
-8.37434
11
12.13
21
-8.37506
0
LINE
8
BLACK
6
CONTINUOUS
10
12.13
20
-8.37506
11
12.13
21
-8.37506
0
LINE
8
BLACK
6
CONTINUOUS
10
12.13
20
-8.37506
11
12.1301
21
-8.37578
0
LINE
8
BLACK
6
CONTINUOUS
10
12.1301
20
-8.37578
11
12.1302
21
-8.37649
0
LINE
8
BLACK
6
CONTINUOUS
10
12.1302
20
-8.37649
11
12.1302
21
-8.37649
0
LINE
8
BLACK
6
CONTINUOUS
10
12.1302
20
-8.37649
11
12.1304
21
-8.37719
0
LINE
8
BLACK
6
CONTINUOUS
10
12.1304
20
-8.37719
11
12.1306
21
-8.37788
0
LINE
8
BLACK
6
CONTINUOUS
10
12.1306
20
-8.37788
11
12.1308
21
-8.37856
0
LINE
8
BLACK
6
CONTINUOUS
10
12.1308
20
-8.37856
11
12.1311
21
-8.37923
0
LINE
8
BLACK
6
CONTINUOUS
10
12.1311
20
-8.37923
11
12.1311
21
-8.37923
0
LINE
8
BLACK
6
CONTINUOUS
10
12.1311
20
-8.37923
11
12.1314
21
-8.37988
0
LINE
8
BLACK
6
CONTINUOUS
10
12.1314
20
-8.37988
11
12.1318
21
-8.38051
0
LINE
8
BLACK
6
CONTINUOUS
10
12.1318
20
-8.38051
11
12.1318
21
-8.38051
0
LINE
8
BLACK
6
CONTINUOUS
10
12.1318
20
-8.38051
11
12.1321
21
-8.38113
0
LINE
8
BLACK
6
CONTINUOUS
10
12.1321
20
-8.38113
11
12.1321
21
-8.38113
0
LINE
8
BLACK
6
CONTINUOUS
10
12.1321
20
-8.38113
11
12.1326
21
-8.38172
0
LINE
8
BLACK
6
CONTINUOUS
10
12.1326
20
-8.38172
11
12.1326
21
-8.38172
0
LINE
8
BLACK
6
CONTINUOUS
10
12.1326
20
-8.38172
11
12.133
21
-8.38229
0
LINE
8
BLACK
6
CONTINUOUS
10
12.133
20
-8.38229
11
12.1335
21
-8.38284
0
LINE
8
BLACK
6
CONTINUOUS
10
12.1335
20
-8.38284
11
12.1335
21
-8.38284
0
LINE
8
BLACK
6
CONTINUOUS
10
12.1335
20
-8.38284
11
12.1335
21
-8.38284
0
LINE
8
BLACK
6
CONTINUOUS
10
12.1335
20
-8.38284
11
12.1335
21
-8.38284
0
LINE
8
BLACK
6
CONTINUOUS
10
12.1335
20
-8.38284
11
12.134
21
-8.38336
0
LINE
8
BLACK
6
CONTINUOUS
10
12.134
20
-8.38336
11
12.134
21
-8.38336
0
LINE
8
BLACK
6
CONTINUOUS
10
12.134
20
-8.38336
11
12.134
21
-8.38336
0
LINE
8
BLACK
6
CONTINUOUS
10
12.134
20
-8.38336
11
12.134
21
-8.38336
0
LINE
8
BLACK
6
CONTINUOUS
10
12.134
20
-8.38336
11
12.1345
21
-8.38386
0
LINE
8
BLACK
6
CONTINUOUS
10
12.1345
20
-8.38386
11
12.1345
21
-8.38386
0
LINE
8
BLACK
6
CONTINUOUS
10
12.1345
20
-8.38386
11
12.135
21
-8.38433
0
LINE
8
BLACK
6
CONTINUOUS
10
12.135
20
-8.38433
11
12.1356
21
-8.38477
0
LINE
8
BLACK
6
CONTINUOUS
10
12.1356
20
-8.38477
11
12.1362
21
-8.38518
0
LINE
8
BLACK
6
CONTINUOUS
10
12.1362
20
-8.38518
11
12.1362
21
-8.38518
0
LINE
8
BLACK
6
CONTINUOUS
10
12.1362
20
-8.38518
11
12.1368
21
-8.38555
0
LINE
8
BLACK
6
CONTINUOUS
10
12.1368
20
-8.38555
11
12.1374
21
-8.3859
0
LINE
8
BLACK
6
CONTINUOUS
10
12.1374
20
-8.3859
11
12.1374
21
-8.3859
0
LINE
8
BLACK
6
CONTINUOUS
10
12.1374
20
-8.3859
11
12.1381
21
-8.38621
0
LINE
8
BLACK
6
CONTINUOUS
10
12.1381
20
-8.38621
11
12.1381
21
-8.38621
0
LINE
8
BLACK
6
CONTINUOUS
10
12.1381
20
-8.38621
11
12.1381
21
-8.38621
0
LINE
8
BLACK
6
CONTINUOUS
10
12.1381
20
-8.38621
11
12.1381
21
-8.38621
0
LINE
8
BLACK
6
CONTINUOUS
10
12.1381
20
-8.38621
11
12.1388
21
-8.38648
0
LINE
8
BLACK
6
CONTINUOUS
10
12.1388
20
-8.38648
11
12.1388
21
-8.38648
0
LINE
8
BLACK
6
CONTINUOUS
10
12.1388
20
-8.38648
11
12.1394
21
-8.38673
0
LINE
8
BLACK
6
CONTINUOUS
10
12.1394
20
-8.38673
11
12.1401
21
-8.38693
0
LINE
8
BLACK
6
CONTINUOUS
10
12.1401
20
-8.38693
11
12.1401
21
-8.38693
0
LINE
8
BLACK
6
CONTINUOUS
10
12.1401
20
-8.38693
11
12.1408
21
-8.3871
0
LINE
8
BLACK
6
CONTINUOUS
10
12.1408
20
-8.3871
11
12.1415
21
-8.38723
0
LINE
8
BLACK
6
CONTINUOUS
10
12.1415
20
-8.38723
11
12.1415
21
-8.38723
0
LINE
8
BLACK
6
CONTINUOUS
10
12.1415
20
-8.38723
11
12.1423
21
-8.38732
0
LINE
8
BLACK
6
CONTINUOUS
10
12.1423
20
-8.38732
11
12.143
21
-8.38738
0
LINE
8
BLACK
6
CONTINUOUS
10
12.143
20
-8.38738
11
12.143
21
-8.38738
0
LINE
8
BLACK
6
CONTINUOUS
10
12.143
20
-8.38738
11
12.1437
21
-8.3874
0
LINE
8
BLACK
6
CONTINUOUS
10
12.1437
20
-8.3874
11
12.1444
21
-8.38738
0
LINE
8
BLACK
6
CONTINUOUS
10
12.1444
20
-8.38738
11
12.1451
21
-8.38732
0
LINE
8
BLACK
6
CONTINUOUS
10
12.1451
20
-8.38732
11
12.1451
21
-8.38732
0
LINE
8
BLACK
6
CONTINUOUS
10
12.1451
20
-8.38732
11
12.1459
21
-8.38723
0
LINE
8
BLACK
6
CONTINUOUS
10
12.1459
20
-8.38723
11
12.1459
21
-8.38723
0
LINE
8
BLACK
6
CONTINUOUS
10
12.1459
20
-8.38723
11
12.1466
21
-8.3871
0
LINE
8
BLACK
6
CONTINUOUS
10
12.1466
20
-8.3871
11
12.1466
21
-8.3871
0
LINE
8
BLACK
6
CONTINUOUS
10
12.1466
20
-8.3871
11
12.1473
21
-8.38693
0
LINE
8
BLACK
6
CONTINUOUS
10
12.1473
20
-8.38693
11
12.1473
21
-8.38693
0
LINE
8
BLACK
6
CONTINUOUS
10
12.1473
20
-8.38693
11
12.148
21
-8.38673
0
LINE
8
BLACK
6
CONTINUOUS
10
12.148
20
-8.38673
11
12.1486
21
-8.38648
0
LINE
8
BLACK
6
CONTINUOUS
10
12.1486
20
-8.38648
11
12.1493
21
-8.38621
0
LINE
8
BLACK
6
CONTINUOUS
10
12.1493
20
-8.38621
11
12.1493
21
-8.38621
0
LINE
8
BLACK
6
CONTINUOUS
10
12.1493
20
-8.38621
11
12.15
21
-8.3859
0
LINE
8
BLACK
6
CONTINUOUS
10
12.15
20
-8.3859
11
12.1506
21
-8.38555
0
LINE
8
BLACK
6
CONTINUOUS
10
12.1506
20
-8.38555
11
12.1512
21
-8.38518
0
LINE
8
BLACK
6
CONTINUOUS
10
12.1512
20
-8.38518
11
12.1512
21
-8.38518
0
LINE
8
BLACK
6
CONTINUOUS
10
12.1512
20
-8.38518
11
12.1518
21
-8.38477
0
LINE
8
BLACK
6
CONTINUOUS
10
12.1518
20
-8.38477
11
12.1518
21
-8.38477
0
LINE
8
BLACK
6
CONTINUOUS
10
12.1518
20
-8.38477
11
12.1524
21
-8.38433
0
LINE
8
BLACK
6
CONTINUOUS
10
12.1524
20
-8.38433
11
12.1529
21
-8.38386
0
LINE
8
BLACK
6
CONTINUOUS
10
12.1529
20
-8.38386
11
12.1529
21
-8.38386
0
LINE
8
BLACK
6
CONTINUOUS
10
12.1529
20
-8.38386
11
12.1529
21
-8.38386
0
LINE
8
BLACK
6
CONTINUOUS
10
12.1529
20
-8.38386
11
12.1534
21
-8.38336
0
LINE
8
BLACK
6
CONTINUOUS
10
12.1534
20
-8.38336
11
12.1534
21
-8.38336
0
LINE
8
BLACK
6
CONTINUOUS
10
12.1534
20
-8.38336
11
12.1534
21
-8.38336
0
LINE
8
BLACK
6
CONTINUOUS
10
12.1534
20
-8.38336
11
12.1539
21
-8.38284
0
LINE
8
BLACK
6
CONTINUOUS
10
12.1539
20
-8.38284
11
12.1539
21
-8.38284
0
LINE
8
BLACK
6
CONTINUOUS
10
12.1539
20
-8.38284
11
12.1544
21
-8.38229
0
LINE
8
BLACK
6
CONTINUOUS
10
12.1544
20
-8.38229
11
12.1548
21
-8.38172
0
LINE
8
BLACK
6
CONTINUOUS
10
12.1548
20
-8.38172
11
12.1553
21
-8.38113
0
LINE
8
BLACK
6
CONTINUOUS
10
12.1553
20
-8.38113
11
12.1553
21
-8.38113
0
LINE
8
BLACK
6
CONTINUOUS
10
12.1553
20
-8.38113
11
12.1556
21
-8.38051
0
LINE
8
BLACK
6
CONTINUOUS
10
12.1556
20
-8.38051
11
12.1556
21
-8.38051
0
LINE
8
BLACK
6
CONTINUOUS
10
12.1556
20
-8.38051
11
12.1556
21
-8.38051
0
LINE
8
BLACK
6
CONTINUOUS
10
12.1556
20
-8.38051
11
12.156
21
-8.37988
0
LINE
8
BLACK
6
CONTINUOUS
10
12.156
20
-8.37988
11
12.1563
21
-8.37923
0
LINE
8
BLACK
6
CONTINUOUS
10
12.1563
20
-8.37923
11
12.1563
21
-8.37923
0
LINE
8
BLACK
6
CONTINUOUS
10
12.1563
20
-8.37923
11
12.1563
21
-8.37923
0
LINE
8
BLACK
6
CONTINUOUS
10
12.1563
20
-8.37923
11
12.1566
21
-8.37856
0
LINE
8
BLACK
6
CONTINUOUS
10
12.1566
20
-8.37856
11
12.1566
21
-8.37856
0
LINE
8
BLACK
6
CONTINUOUS
10
12.1566
20
-8.37856
11
12.1568
21
-8.37788
0
LINE
8
BLACK
6
CONTINUOUS
10
12.1568
20
-8.37788
11
12.157
21
-8.37719
0
LINE
8
BLACK
6
CONTINUOUS
10
12.157
20
-8.37719
11
12.1572
21
-8.37649
0
LINE
8
BLACK
6
CONTINUOUS
10
12.1572
20
-8.37649
11
12.1572
21
-8.37649
0
LINE
8
BLACK
6
CONTINUOUS
10
12.1572
20
-8.37649
11
12.1573
21
-8.37578
0
LINE
8
BLACK
6
CONTINUOUS
10
12.1573
20
-8.37578
11
12.1573
21
-8.37578
0
LINE
8
BLACK
6
CONTINUOUS
10
12.1573
20
-8.37578
11
12.1574
21
-8.37506
0
LINE
8
BLACK
6
CONTINUOUS
10
12.1574
20
-8.37506
11
12.1575
21
-8.37434
0
LINE
8
BLACK
6
CONTINUOUS
10
12.1575
20
-8.37434
11
12.1575
21
-8.37434
0
LINE
8
BLACK
6
CONTINUOUS
10
12.1575
20
-8.37434
11
12.1575
21
-8.37362
0
LINE
8
BLACK
6
CONTINUOUS
10
12.1575
20
-8.37362
11
12.1575
21
-8.32638
0
LINE
8
BLACK
6
CONTINUOUS
10
12.1575
20
-8.32638
11
12.1575
21
-8.32566
0
LINE
8
BLACK
6
CONTINUOUS
10
12.1575
20
-8.32566
11
12.1575
21
-8.32566
0
LINE
8
BLACK
6
CONTINUOUS
10
12.1575
20
-8.32566
11
12.1574
21
-8.32494
0
LINE
8
BLACK
6
CONTINUOUS
10
12.1574
20
-8.32494
11
12.1573
21
-8.32422
0
LINE
8
BLACK
6
CONTINUOUS
10
12.1573
20
-8.32422
11
12.1573
21
-8.32422
0
LINE
8
BLACK
6
CONTINUOUS
10
12.1573
20
-8.32422
11
12.1572
21
-8.32351
0
LINE
8
BLACK
6
CONTINUOUS
10
12.1572
20
-8.32351
11
12.1572
21
-8.32351
0
LINE
8
BLACK
6
CONTINUOUS
10
12.1572
20
-8.32351
11
12.157
21
-8.32281
0
LINE
8
BLACK
6
CONTINUOUS
10
12.157
20
-8.32281
11
12.157
21
-8.32281
0
LINE
8
BLACK
6
CONTINUOUS
10
12.157
20
-8.32281
11
12.1568
21
-8.32212
0
LINE
8
BLACK
6
CONTINUOUS
10
12.1568
20
-8.32212
11
12.1568
21
-8.32212
0
LINE
8
BLACK
6
CONTINUOUS
10
12.1568
20
-8.32212
11
12.1566
21
-8.32144
0
LINE
8
BLACK
6
CONTINUOUS
10
12.1566
20
-8.32144
11
12.1566
21
-8.32144
0
LINE
8
BLACK
6
CONTINUOUS
10
12.1566
20
-8.32144
11
12.1563
21
-8.32077
0
LINE
8
BLACK
6
CONTINUOUS
10
12.1563
20
-8.32077
11
12.1563
21
-8.32077
0
LINE
8
BLACK
6
CONTINUOUS
10
12.1563
20
-8.32077
11
12.1563
21
-8.32077
0
LINE
8
BLACK
6
CONTINUOUS
10
12.1563
20
-8.32077
11
12.156
21
-8.32012
0
LINE
8
BLACK
6
CONTINUOUS
10
12.156
20
-8.32012
11
12.156
21
-8.32012
0
LINE
8
BLACK
6
CONTINUOUS
10
12.156
20
-8.32012
11
12.156
21
-8.32012
0
LINE
8
BLACK
6
CONTINUOUS
10
12.156
20
-8.32012
11
12.1556
21
-8.31949
0
LINE
8
BLACK
6
CONTINUOUS
10
12.1556
20
-8.31949
11
12.1553
21
-8.31887
0
LINE
8
BLACK
6
CONTINUOUS
10
12.1553
20
-8.31887
11
12.1553
21
-8.31887
0
LINE
8
BLACK
6
CONTINUOUS
10
12.1553
20
-8.31887
11
12.1548
21
-8.31828
0
LINE
8
BLACK
6
CONTINUOUS
10
12.1548
20
-8.31828
11
12.1548
21
-8.31828
0
LINE
8
BLACK
6
CONTINUOUS
10
12.1548
20
-8.31828
11
12.1544
21
-8.31771
0
LINE
8
BLACK
6
CONTINUOUS
10
12.1544
20
-8.31771
11
12.1539
21
-8.31716
0
LINE
8
BLACK
6
CONTINUOUS
10
12.1539
20
-8.31716
11
12.1539
21
-8.31716
0
LINE
8
BLACK
6
CONTINUOUS
10
12.1539
20
-8.31716
11
12.1534
21
-8.31664
0
LINE
8
BLACK
6
CONTINUOUS
10
12.1534
20
-8.31664
11
12.1534
21
-8.31664
0
LINE
8
BLACK
6
CONTINUOUS
10
12.1534
20
-8.31664
11
12.1534
21
-8.31664
0
LINE
8
BLACK
6
CONTINUOUS
10
12.1534
20
-8.31664
11
12.1529
21
-8.31614
0
LINE
8
BLACK
6
CONTINUOUS
10
12.1529
20
-8.31614
11
12.1529
21
-8.31614
0
LINE
8
BLACK
6
CONTINUOUS
10
12.1529
20
-8.31614
11
12.1529
21
-8.31614
0
LINE
8
BLACK
6
CONTINUOUS
10
12.1529
20
-8.31614
11
12.1524
21
-8.31567
0
LINE
8
BLACK
6
CONTINUOUS
10
12.1524
20
-8.31567
11
12.1518
21
-8.31523
0
LINE
8
BLACK
6
CONTINUOUS
10
12.1518
20
-8.31523
11
12.1518
21
-8.31523
0
LINE
8
BLACK
6
CONTINUOUS
10
12.1518
20
-8.31523
11
12.1518
21
-8.31523
0
LINE
8
BLACK
6
CONTINUOUS
10
12.1518
20
-8.31523
11
12.1512
21
-8.31482
0
LINE
8
BLACK
6
CONTINUOUS
10
12.1512
20
-8.31482
11
12.1512
21
-8.31482
0
LINE
8
BLACK
6
CONTINUOUS
10
12.1512
20
-8.31482
11
12.1512
21
-8.31482
0
LINE
8
BLACK
6
CONTINUOUS
10
12.1512
20
-8.31482
11
12.1506
21
-8.31445
0
LINE
8
BLACK
6
CONTINUOUS
10
12.1506
20
-8.31445
11
12.15
21
-8.3141
0
LINE
8
BLACK
6
CONTINUOUS
10
12.15
20
-8.3141
11
12.1493
21
-8.31379
0
LINE
8
BLACK
6
CONTINUOUS
10
12.1493
20
-8.31379
11
12.1493
21
-8.31379
0
LINE
8
BLACK
6
CONTINUOUS
10
12.1493
20
-8.31379
11
12.1486
21
-8.31352
0
LINE
8
BLACK
6
CONTINUOUS
10
12.1486
20
-8.31352
11
12.1486
21
-8.31352
0
LINE
8
BLACK
6
CONTINUOUS
10
12.1486
20
-8.31352
11
12.148
21
-8.31327
0
LINE
8
BLACK
6
CONTINUOUS
10
12.148
20
-8.31327
11
12.148
21
-8.31327
0
LINE
8
BLACK
6
CONTINUOUS
10
12.148
20
-8.31327
11
12.1473
21
-8.31307
0
LINE
8
BLACK
6
CONTINUOUS
10
12.1473
20
-8.31307
11
12.1473
21
-8.31307
0
LINE
8
BLACK
6
CONTINUOUS
10
12.1473
20
-8.31307
11
12.1466
21
-8.3129
0
LINE
8
BLACK
6
CONTINUOUS
10
12.1466
20
-8.3129
11
12.1466
21
-8.3129
0
LINE
8
BLACK
6
CONTINUOUS
10
12.1466
20
-8.3129
11
12.1459
21
-8.31277
0
LINE
8
BLACK
6
CONTINUOUS
10
12.1459
20
-8.31277
11
12.1459
21
-8.31277
0
LINE
8
BLACK
6
CONTINUOUS
10
12.1459
20
-8.31277
11
12.1451
21
-8.31268
0
LINE
8
BLACK
6
CONTINUOUS
10
12.1451
20
-8.31268
11
12.1444
21
-8.31262
0
LINE
8
BLACK
6
CONTINUOUS
10
12.1444
20
-8.31262
11
12.1444
21
-8.31262
0
LINE
8
BLACK
6
CONTINUOUS
10
12.1444
20
-8.31262
11
12.1437
21
-8.3126
0
LINE
8
BLACK
6
CONTINUOUS
10
12.1437
20
-8.3126
11
12.143
21
-8.31262
0
LINE
8
BLACK
6
CONTINUOUS
10
12.143
20
-8.31262
11
12.1423
21
-8.31268
0
LINE
8
BLACK
6
CONTINUOUS
10
12.1423
20
-8.31268
11
12.1423
21
-8.31268
0
LINE
8
BLACK
6
CONTINUOUS
10
12.1423
20
-8.31268
11
12.1415
21
-8.31277
0
LINE
8
BLACK
6
CONTINUOUS
10
12.1415
20
-8.31277
11
12.1415
21
-8.31277
0
LINE
8
BLACK
6
CONTINUOUS
10
12.1415
20
-8.31277
11
12.1408
21
-8.3129
0
LINE
8
BLACK
6
CONTINUOUS
10
12.1408
20
-8.3129
11
12.1408
21
-8.3129
0
LINE
8
BLACK
6
CONTINUOUS
10
12.1408
20
-8.3129
11
12.1401
21
-8.31307
0
LINE
8
BLACK
6
CONTINUOUS
10
12.1401
20
-8.31307
11
12.1394
21
-8.31327
0
LINE
8
BLACK
6
CONTINUOUS
10
12.1394
20
-8.31327
11
12.1388
21
-8.31352
0
LINE
8
BLACK
6
CONTINUOUS
10
12.1388
20
-8.31352
11
12.1381
21
-8.31379
0
LINE
8
BLACK
6
CONTINUOUS
10
12.1381
20
-8.31379
11
12.1381
21
-8.31379
0
LINE
8
BLACK
6
CONTINUOUS
10
12.1381
20
-8.31379
11
12.1381
21
-8.31379
0
LINE
8
BLACK
6
CONTINUOUS
10
12.1381
20
-8.31379
11
12.1374
21
-8.3141
0
LINE
8
BLACK
6
CONTINUOUS
10
12.1374
20
-8.3141
11
12.1374
21
-8.3141
0
LINE
8
BLACK
6
CONTINUOUS
10
12.1374
20
-8.3141
11
12.1374
21
-8.3141
0
LINE
8
BLACK
6
CONTINUOUS
10
12.1374
20
-8.3141
11
12.1368
21
-8.31445
0
LINE
8
BLACK
6
CONTINUOUS
10
12.1368
20
-8.31445
11
12.1362
21
-8.31482
0
LINE
8
BLACK
6
CONTINUOUS
10
12.1362
20
-8.31482
11
12.1362
21
-8.31482
0
LINE
8
BLACK
6
CONTINUOUS
10
12.1362
20
-8.31482
11
12.1356
21
-8.31523
0
LINE
8
BLACK
6
CONTINUOUS
10
12.1356
20
-8.31523
11
12.1356
21
-8.31523
0
LINE
8
BLACK
6
CONTINUOUS
10
12.1356
20
-8.31523
11
12.135
21
-8.31567
0
LINE
8
BLACK
6
CONTINUOUS
10
12.135
20
-8.31567
11
12.135
21
-8.31567
0
LINE
8
BLACK
6
CONTINUOUS
10
12.135
20
-8.31567
11
12.1345
21
-8.31614
0
LINE
8
BLACK
6
CONTINUOUS
10
12.1345
20
-8.31614
11
12.1345
21
-8.31614
0
LINE
8
BLACK
6
CONTINUOUS
10
12.1345
20
-8.31614
11
12.134
21
-8.31664
0
LINE
8
BLACK
6
CONTINUOUS
10
12.134
20
-8.31664
11
12.134
21
-8.31664
0
LINE
8
BLACK
6
CONTINUOUS
10
12.134
20
-8.31664
11
12.134
21
-8.31664
0
LINE
8
BLACK
6
CONTINUOUS
10
12.134
20
-8.31664
11
12.1335
21
-8.31716
0
LINE
8
BLACK
6
CONTINUOUS
10
12.1335
20
-8.31716
11
12.1335
21
-8.31716
0
LINE
8
BLACK
6
CONTINUOUS
10
12.1335
20
-8.31716
11
12.1335
21
-8.31716
0
LINE
8
BLACK
6
CONTINUOUS
10
12.1335
20
-8.31716
11
12.133
21
-8.31771
0
LINE
8
BLACK
6
CONTINUOUS
10
12.133
20
-8.31771
11
12.133
21
-8.31771
0
LINE
8
BLACK
6
CONTINUOUS
10
12.133
20
-8.31771
11
12.1326
21
-8.31828
0
LINE
8
BLACK
6
CONTINUOUS
10
12.1326
20
-8.31828
11
12.1321
21
-8.31887
0
LINE
8
BLACK
6
CONTINUOUS
10
12.1321
20
-8.31887
11
12.1321
21
-8.31887
0
LINE
8
BLACK
6
CONTINUOUS
10
12.1321
20
-8.31887
11
12.1318
21
-8.31949
0
LINE
8
BLACK
6
CONTINUOUS
10
12.1318
20
-8.31949
11
12.1314
21
-8.32012
0
LINE
8
BLACK
6
CONTINUOUS
10
12.1314
20
-8.32012
11
12.1311
21
-8.32077
0
LINE
8
BLACK
6
CONTINUOUS
10
12.1311
20
-8.32077
11
12.1308
21
-8.32144
0
LINE
8
BLACK
6
CONTINUOUS
10
12.1308
20
-8.32144
11
12.1308
21
-8.32144
0
LINE
8
BLACK
6
CONTINUOUS
10
12.1308
20
-8.32144
11
12.1306
21
-8.32212
0
LINE
8
BLACK
6
CONTINUOUS
10
12.1306
20
-8.32212
11
12.1306
21
-8.32212
0
LINE
8
BLACK
6
CONTINUOUS
10
12.1306
20
-8.32212
11
12.1304
21
-8.32281
0
LINE
8
BLACK
6
CONTINUOUS
10
12.1304
20
-8.32281
11
12.1304
21
-8.32281
0
LINE
8
BLACK
6
CONTINUOUS
10
12.1304
20
-8.32281
11
12.1302
21
-8.32351
0
LINE
8
BLACK
6
CONTINUOUS
10
12.1302
20
-8.32351
11
12.1302
21
-8.32351
0
LINE
8
BLACK
6
CONTINUOUS
10
12.1302
20
-8.32351
11
12.1301
21
-8.32422
0
LINE
8
BLACK
6
CONTINUOUS
10
12.1301
20
-8.32422
11
12.1301
21
-8.32422
0
LINE
8
BLACK
6
CONTINUOUS
10
12.1301
20
-8.32422
11
12.13
21
-8.32494
0
LINE
8
BLACK
6
CONTINUOUS
10
12.13
20
-8.32494
11
12.1299
21
-8.32566
0
LINE
8
BLACK
6
CONTINUOUS
10
12.1299
20
-8.32566
11
12.1299
21
-8.32566
0
LINE
8
BLACK
6
CONTINUOUS
10
12.1299
20
-8.32566
11
12.1299
21
-8.32638
0
LINE
8
BLACK
6
CONTINUOUS
10
12.1299
20
-8.32638
11
12.1299
21
-8.37362
0
LINE
8
BLACK
6
CONTINUOUS
10
12.1299
20
-8.37362
11
12.1299
21
-8.37434
0
LINE
8
BLACK
6
CONTINUOUS
10
11.88
20
-8.30271
11
11.88
21
-8.30271
0
LINE
8
BLACK
6
CONTINUOUS
10
11.88
20
-8.30271
11
11.88
21
-8.30271
0
LINE
8
BLACK
6
CONTINUOUS
10
11.88
20
-8.30271
11
11.8812
21
-8.30398
0
LINE
8
BLACK
6
CONTINUOUS
10
11.8812
20
-8.30398
11
11.8812
21
-8.30398
0
LINE
8
BLACK
6
CONTINUOUS
10
11.8812
20
-8.30398
11
11.8812
21
-8.30398
0
LINE
8
BLACK
6
CONTINUOUS
10
11.8812
20
-8.30398
11
11.8812
21
-8.30398
0
LINE
8
BLACK
6
CONTINUOUS
10
11.8812
20
-8.30398
11
11.8812
21
-8.30398
0
LINE
8
BLACK
6
CONTINUOUS
10
11.8812
20
-8.30398
11
11.8823
21
-8.30532
0
LINE
8
BLACK
6
CONTINUOUS
10
11.8823
20
-8.30532
11
11.8823
21
-8.30532
0
LINE
8
BLACK
6
CONTINUOUS
10
11.8823
20
-8.30532
11
11.8823
21
-8.30532
0
LINE
8
BLACK
6
CONTINUOUS
10
11.8823
20
-8.30532
11
11.8834
21
-8.30671
0
LINE
8
BLACK
6
CONTINUOUS
10
11.8834
20
-8.30671
11
11.8834
21
-8.30671
0
LINE
8
BLACK
6
CONTINUOUS
10
11.8834
20
-8.30671
11
11.8834
21
-8.30671
0
LINE
8
BLACK
6
CONTINUOUS
10
11.8834
20
-8.30671
11
11.8844
21
-8.30815
0
LINE
8
BLACK
6
CONTINUOUS
10
11.8844
20
-8.30815
11
11.8844
21
-8.30815
0
LINE
8
BLACK
6
CONTINUOUS
10
11.8844
20
-8.30815
11
11.8853
21
-8.30964
0
LINE
8
BLACK
6
CONTINUOUS
10
11.8853
20
-8.30964
11
11.8853
21
-8.30964
0
LINE
8
BLACK
6
CONTINUOUS
10
11.8853
20
-8.30964
11
11.8853
21
-8.30964
0
LINE
8
BLACK
6
CONTINUOUS
10
11.8853
20
-8.30964
11
11.8861
21
-8.31118
0
LINE
8
BLACK
6
CONTINUOUS
10
11.8861
20
-8.31118
11
11.8861
21
-8.31118
0
LINE
8
BLACK
6
CONTINUOUS
10
11.8861
20
-8.31118
11
11.8861
21
-8.31118
0
LINE
8
BLACK
6
CONTINUOUS
10
11.8861
20
-8.31118
11
11.8869
21
-8.31277
0
LINE
8
BLACK
6
CONTINUOUS
10
11.8869
20
-8.31277
11
11.8869
21
-8.31277
0
LINE
8
BLACK
6
CONTINUOUS
10
11.8869
20
-8.31277
11
11.8869
21
-8.31277
0
LINE
8
BLACK
6
CONTINUOUS
10
11.8869
20
-8.31277
11
11.8875
21
-8.31438
0
LINE
8
BLACK
6
CONTINUOUS
10
11.8875
20
-8.31438
11
11.8875
21
-8.31438
0
LINE
8
BLACK
6
CONTINUOUS
10
11.8875
20
-8.31438
11
11.8881
21
-8.31604
0
LINE
8
BLACK
6
CONTINUOUS
10
11.8881
20
-8.31604
11
11.8881
21
-8.31604
0
LINE
8
BLACK
6
CONTINUOUS
10
11.8881
20
-8.31604
11
11.8886
21
-8.31772
0
LINE
8
BLACK
6
CONTINUOUS
10
11.8886
20
-8.31772
11
11.8886
21
-8.31772
0
LINE
8
BLACK
6
CONTINUOUS
10
11.8886
20
-8.31772
11
11.889
21
-8.31942
0
LINE
8
BLACK
6
CONTINUOUS
10
11.889
20
-8.31942
11
11.889
21
-8.31942
0
LINE
8
BLACK
6
CONTINUOUS
10
11.889
20
-8.31942
11
11.8894
21
-8.32114
0
LINE
8
BLACK
6
CONTINUOUS
10
11.8894
20
-8.32114
11
11.8894
21
-8.32114
0
LINE
8
BLACK
6
CONTINUOUS
10
11.8894
20
-8.32114
11
11.8896
21
-8.32288
0
LINE
8
BLACK
6
CONTINUOUS
10
11.8896
20
-8.32288
11
11.8896
21
-8.32288
0
LINE
8
BLACK
6
CONTINUOUS
10
11.8896
20
-8.32288
11
11.8897
21
-8.32463
0
LINE
8
BLACK
6
CONTINUOUS
10
11.8897
20
-8.32463
11
11.8897
21
-8.32463
0
LINE
8
BLACK
6
CONTINUOUS
10
11.8897
20
-8.32463
11
11.8898
21
-8.32638
0
LINE
8
BLACK
6
CONTINUOUS
10
11.8898
20
-8.32638
11
11.8898
21
-8.37362
0
LINE
8
BLACK
6
CONTINUOUS
10
11.8898
20
-8.37362
11
11.8897
21
-8.37537
0
LINE
8
BLACK
6
CONTINUOUS
10
11.8897
20
-8.37537
11
11.8897
21
-8.37537
0
LINE
8
BLACK
6
CONTINUOUS
10
11.8897
20
-8.37537
11
11.8896
21
-8.37712
0
LINE
8
BLACK
6
CONTINUOUS
10
11.8896
20
-8.37712
11
11.8896
21
-8.37712
0
LINE
8
BLACK
6
CONTINUOUS
10
11.8896
20
-8.37712
11
11.8894
21
-8.37886
0
LINE
8
BLACK
6
CONTINUOUS
10
11.8894
20
-8.37886
11
11.8894
21
-8.37886
0
LINE
8
BLACK
6
CONTINUOUS
10
11.8894
20
-8.37886
11
11.8894
21
-8.37886
0
LINE
8
BLACK
6
CONTINUOUS
10
11.8894
20
-8.37886
11
11.889
21
-8.38058
0
LINE
8
BLACK
6
CONTINUOUS
10
11.889
20
-8.38058
11
11.889
21
-8.38058
0
LINE
8
BLACK
6
CONTINUOUS
10
11.889
20
-8.38058
11
11.889
21
-8.38058
0
LINE
8
BLACK
6
CONTINUOUS
10
11.889
20
-8.38058
11
11.8886
21
-8.38228
0
LINE
8
BLACK
6
CONTINUOUS
10
11.8886
20
-8.38228
11
11.8886
21
-8.38228
0
LINE
8
BLACK
6
CONTINUOUS
10
11.8886
20
-8.38228
11
11.8886
21
-8.38228
0
LINE
8
BLACK
6
CONTINUOUS
10
11.8886
20
-8.38228
11
11.8881
21
-8.38396
0
LINE
8
BLACK
6
CONTINUOUS
10
11.8881
20
-8.38396
11
11.8881
21
-8.38396
0
LINE
8
BLACK
6
CONTINUOUS
10
11.8881
20
-8.38396
11
11.8881
21
-8.38396
0
LINE
8
BLACK
6
CONTINUOUS
10
11.8881
20
-8.38396
11
11.8875
21
-8.38562
0
LINE
8
BLACK
6
CONTINUOUS
10
11.8875
20
-8.38562
11
11.8875
21
-8.38562
0
LINE
8
BLACK
6
CONTINUOUS
10
11.8875
20
-8.38562
11
11.8875
21
-8.38562
0
LINE
8
BLACK
6
CONTINUOUS
10
11.8875
20
-8.38562
11
11.8869
21
-8.38723
0
LINE
8
BLACK
6
CONTINUOUS
10
11.8869
20
-8.38723
11
11.8869
21
-8.38723
0
LINE
8
BLACK
6
CONTINUOUS
10
11.8869
20
-8.38723
11
11.8869
21
-8.38723
0
LINE
8
BLACK
6
CONTINUOUS
10
11.8869
20
-8.38723
11
11.8861
21
-8.38882
0
LINE
8
BLACK
6
CONTINUOUS
10
11.8861
20
-8.38882
11
11.8861
21
-8.38882
0
LINE
8
BLACK
6
CONTINUOUS
10
11.8861
20
-8.38882
11
11.8853
21
-8.39036
0
LINE
8
BLACK
6
CONTINUOUS
10
11.8853
20
-8.39036
11
11.8853
21
-8.39036
0
LINE
8
BLACK
6
CONTINUOUS
10
11.8853
20
-8.39036
11
11.8844
21
-8.39185
0
LINE
8
BLACK
6
CONTINUOUS
10
11.8844
20
-8.39185
11
11.8844
21
-8.39185
0
LINE
8
BLACK
6
CONTINUOUS
10
11.8844
20
-8.39185
11
11.8844
21
-8.39185
0
LINE
8
BLACK
6
CONTINUOUS
10
11.8844
20
-8.39185
11
11.8834
21
-8.39329
0
LINE
8
BLACK
6
CONTINUOUS
10
11.8834
20
-8.39329
11
11.8834
21
-8.39329
0
LINE
8
BLACK
6
CONTINUOUS
10
11.8834
20
-8.39329
11
11.8823
21
-8.39468
0
LINE
8
BLACK
6
CONTINUOUS
10
11.8823
20
-8.39468
11
11.8823
21
-8.39468
0
LINE
8
BLACK
6
CONTINUOUS
10
11.8823
20
-8.39468
11
11.8812
21
-8.39602
0
LINE
8
BLACK
6
CONTINUOUS
10
11.8812
20
-8.39602
11
11.8812
21
-8.39602
0
LINE
8
BLACK
6
CONTINUOUS
10
11.8812
20
-8.39602
11
11.88
21
-8.39729
0
LINE
8
BLACK
6
CONTINUOUS
10
11.88
20
-8.39729
11
11.88
21
-8.39729
0
LINE
8
BLACK
6
CONTINUOUS
10
11.88
20
-8.39729
11
11.8787
21
-8.39849
0
LINE
8
BLACK
6
CONTINUOUS
10
11.8787
20
-8.39849
11
11.8787
21
-8.39849
0
LINE
8
BLACK
6
CONTINUOUS
10
11.8787
20
-8.39849
11
11.8787
21
-8.39849
0
LINE
8
BLACK
6
CONTINUOUS
10
11.8787
20
-8.39849
11
11.8774
21
-8.39963
0
LINE
8
BLACK
6
CONTINUOUS
10
11.8774
20
-8.39963
11
11.8774
21
-8.39963
0
LINE
8
BLACK
6
CONTINUOUS
10
11.8774
20
-8.39963
11
11.8774
21
-8.39963
0
LINE
8
BLACK
6
CONTINUOUS
10
11.8774
20
-8.39963
11
11.876
21
-8.4007
0
LINE
8
BLACK
6
CONTINUOUS
10
11.876
20
-8.4007
11
11.876
21
-8.4007
0
LINE
8
BLACK
6
CONTINUOUS
10
11.876
20
-8.4007
11
11.8745
21
-8.40169
0
LINE
8
BLACK
6
CONTINUOUS
10
11.8745
20
-8.40169
11
11.8745
21
-8.40169
0
LINE
8
BLACK
6
CONTINUOUS
10
11.8745
20
-8.40169
11
11.873
21
-8.4026
0
LINE
8
BLACK
6
CONTINUOUS
10
11.873
20
-8.4026
11
11.873
21
-8.4026
0
LINE
8
BLACK
6
CONTINUOUS
10
11.873
20
-8.4026
11
11.873
21
-8.4026
0
LINE
8
BLACK
6
CONTINUOUS
10
11.873
20
-8.4026
11
11.8715
21
-8.40344
0
LINE
8
BLACK
6
CONTINUOUS
10
11.8715
20
-8.40344
11
11.8715
21
-8.40344
0
LINE
8
BLACK
6
CONTINUOUS
10
11.8715
20
-8.40344
11
11.8699
21
-8.4042
0
LINE
8
BLACK
6
CONTINUOUS
10
11.8699
20
-8.4042
11
11.8699
21
-8.4042
0
LINE
8
BLACK
6
CONTINUOUS
10
11.8699
20
-8.4042
11
11.8699
21
-8.4042
0
LINE
8
BLACK
6
CONTINUOUS
10
11.8699
20
-8.4042
11
11.8683
21
-8.40487
0
LINE
8
BLACK
6
CONTINUOUS
10
11.8683
20
-8.40487
11
11.8683
21
-8.40487
0
LINE
8
BLACK
6
CONTINUOUS
10
11.8683
20
-8.40487
11
11.8683
21
-8.40487
0
LINE
8
BLACK
6
CONTINUOUS
10
11.8683
20
-8.40487
11
11.8666
21
-8.40545
0
LINE
8
BLACK
6
CONTINUOUS
10
11.8666
20
-8.40545
11
11.8666
21
-8.40545
0
LINE
8
BLACK
6
CONTINUOUS
10
11.8666
20
-8.40545
11
11.865
21
-8.40595
0
LINE
8
BLACK
6
CONTINUOUS
10
11.865
20
-8.40595
11
11.865
21
-8.40595
0
LINE
8
BLACK
6
CONTINUOUS
10
11.865
20
-8.40595
11
11.8633
21
-8.40636
0
LINE
8
BLACK
6
CONTINUOUS
10
11.8633
20
-8.40636
11
11.8633
21
-8.40636
0
LINE
8
BLACK
6
CONTINUOUS
10
11.8633
20
-8.40636
11
11.8633
21
-8.40636
0
LINE
8
BLACK
6
CONTINUOUS
10
11.8633
20
-8.40636
11
11.8615
21
-8.40668
0
LINE
8
BLACK
6
CONTINUOUS
10
11.8615
20
-8.40668
11
11.8615
21
-8.40668
0
LINE
8
BLACK
6
CONTINUOUS
10
11.8615
20
-8.40668
11
11.8598
21
-8.40691
0
LINE
8
BLACK
6
CONTINUOUS
10
11.8598
20
-8.40691
11
11.8598
21
-8.40691
0
LINE
8
BLACK
6
CONTINUOUS
10
11.8598
20
-8.40691
11
11.8581
21
-8.40704
0
LINE
8
BLACK
6
CONTINUOUS
10
11.8581
20
-8.40704
11
11.8581
21
-8.40704
0
LINE
8
BLACK
6
CONTINUOUS
10
11.8581
20
-8.40704
11
11.8563
21
-8.40709
0
LINE
8
BLACK
6
CONTINUOUS
10
11.8563
20
-8.40709
11
11.8563
21
-8.40709
0
LINE
8
BLACK
6
CONTINUOUS
10
11.8563
20
-8.40709
11
11.8545
21
-8.40704
0
LINE
8
BLACK
6
CONTINUOUS
10
11.8545
20
-8.40704
11
11.8545
21
-8.40704
0
LINE
8
BLACK
6
CONTINUOUS
10
11.8545
20
-8.40704
11
11.8528
21
-8.40691
0
LINE
8
BLACK
6
CONTINUOUS
10
11.8528
20
-8.40691
11
11.8528
21
-8.40691
0
LINE
8
BLACK
6
CONTINUOUS
10
11.8528
20
-8.40691
11
11.8511
21
-8.40668
0
LINE
8
BLACK
6
CONTINUOUS
10
11.8511
20
-8.40668
11
11.8511
21
-8.40668
0
LINE
8
BLACK
6
CONTINUOUS
10
11.8511
20
-8.40668
11
11.8511
21
-8.40668
0
LINE
8
BLACK
6
CONTINUOUS
10
11.8511
20
-8.40668
11
11.8493
21
-8.40636
0
LINE
8
BLACK
6
CONTINUOUS
10
11.8493
20
-8.40636
11
11.8493
21
-8.40636
0
LINE
8
BLACK
6
CONTINUOUS
10
11.8493
20
-8.40636
11
11.8476
21
-8.40595
0
LINE
8
BLACK
6
CONTINUOUS
10
11.8476
20
-8.40595
11
11.8476
21
-8.40595
0
LINE
8
BLACK
6
CONTINUOUS
10
11.8476
20
-8.40595
11
11.8476
21
-8.40595
0
LINE
8
BLACK
6
CONTINUOUS
10
11.8476
20
-8.40595
11
11.846
21
-8.40545
0
LINE
8
BLACK
6
CONTINUOUS
10
11.846
20
-8.40545
11
11.846
21
-8.40545
0
LINE
8
BLACK
6
CONTINUOUS
10
11.846
20
-8.40545
11
11.846
21
-8.40545
0
LINE
8
BLACK
6
CONTINUOUS
10
11.846
20
-8.40545
11
11.8443
21
-8.40487
0
LINE
8
BLACK
6
CONTINUOUS
10
11.8443
20
-8.40487
11
11.8443
21
-8.40487
0
LINE
8
BLACK
6
CONTINUOUS
10
11.8443
20
-8.40487
11
11.8443
21
-8.40487
0
LINE
8
BLACK
6
CONTINUOUS
10
11.8443
20
-8.40487
11
11.8427
21
-8.4042
0
LINE
8
BLACK
6
CONTINUOUS
10
11.8427
20
-8.4042
11
11.8427
21
-8.4042
0
LINE
8
BLACK
6
CONTINUOUS
10
11.8427
20
-8.4042
11
11.8427
21
-8.4042
0
LINE
8
BLACK
6
CONTINUOUS
10
11.8427
20
-8.4042
11
11.8411
21
-8.40344
0
LINE
8
BLACK
6
CONTINUOUS
10
11.8411
20
-8.40344
11
11.8411
21
-8.40344
0
LINE
8
BLACK
6
CONTINUOUS
10
11.8411
20
-8.40344
11
11.8396
21
-8.4026
0
LINE
8
BLACK
6
CONTINUOUS
10
11.8396
20
-8.4026
11
11.8396
21
-8.4026
0
LINE
8
BLACK
6
CONTINUOUS
10
11.8396
20
-8.4026
11
11.8381
21
-8.40169
0
LINE
8
BLACK
6
CONTINUOUS
10
11.8381
20
-8.40169
11
11.8381
21
-8.40169
0
LINE
8
BLACK
6
CONTINUOUS
10
11.8381
20
-8.40169
11
11.8381
21
-8.40169
0
LINE
8
BLACK
6
CONTINUOUS
10
11.8381
20
-8.40169
11
11.8381
21
-8.40169
0
LINE
8
BLACK
6
CONTINUOUS
10
11.8381
20
-8.40169
11
11.8366
21
-8.4007
0
LINE
8
BLACK
6
CONTINUOUS
10
11.8366
20
-8.4007
11
11.8366
21
-8.4007
0
LINE
8
BLACK
6
CONTINUOUS
10
11.8366
20
-8.4007
11
11.8366
21
-8.4007
0
LINE
8
BLACK
6
CONTINUOUS
10
11.8366
20
-8.4007
11
11.8352
21
-8.39963
0
LINE
8
BLACK
6
CONTINUOUS
10
11.8352
20
-8.39963
11
11.8352
21
-8.39963
0
LINE
8
BLACK
6
CONTINUOUS
10
11.8352
20
-8.39963
11
11.8339
21
-8.39849
0
LINE
8
BLACK
6
CONTINUOUS
10
11.8339
20
-8.39849
11
11.8339
21
-8.39849
0
LINE
8
BLACK
6
CONTINUOUS
10
11.8339
20
-8.39849
11
11.8326
21
-8.39729
0
LINE
8
BLACK
6
CONTINUOUS
10
11.8326
20
-8.39729
11
11.8326
21
-8.39729
0
LINE
8
BLACK
6
CONTINUOUS
10
11.8326
20
-8.39729
11
11.8326
21
-8.39729
0
LINE
8
BLACK
6
CONTINUOUS
10
11.8326
20
-8.39729
11
11.8314
21
-8.39602
0
LINE
8
BLACK
6
CONTINUOUS
10
11.8314
20
-8.39602
11
11.8314
21
-8.39602
0
LINE
8
BLACK
6
CONTINUOUS
10
11.8314
20
-8.39602
11
11.8314
21
-8.39602
0
LINE
8
BLACK
6
CONTINUOUS
10
11.8314
20
-8.39602
11
11.8303
21
-8.39468
0
LINE
8
BLACK
6
CONTINUOUS
10
11.8303
20
-8.39468
11
11.8303
21
-8.39468
0
LINE
8
BLACK
6
CONTINUOUS
10
11.8303
20
-8.39468
11
11.8303
21
-8.39468
0
LINE
8
BLACK
6
CONTINUOUS
10
11.8303
20
-8.39468
11
11.8292
21
-8.39329
0
LINE
8
BLACK
6
CONTINUOUS
10
11.8292
20
-8.39329
11
11.8292
21
-8.39329
0
LINE
8
BLACK
6
CONTINUOUS
10
11.8292
20
-8.39329
11
11.8282
21
-8.39185
0
LINE
8
BLACK
6
CONTINUOUS
10
11.8282
20
-8.39185
11
11.8282
21
-8.39185
0
LINE
8
BLACK
6
CONTINUOUS
10
11.8282
20
-8.39185
11
11.8282
21
-8.39185
0
LINE
8
BLACK
6
CONTINUOUS
10
11.8282
20
-8.39185
11
11.8273
21
-8.39036
0
LINE
8
BLACK
6
CONTINUOUS
10
11.8273
20
-8.39036
11
11.8273
21
-8.39036
0
LINE
8
BLACK
6
CONTINUOUS
10
11.8273
20
-8.39036
11
11.8273
21
-8.39036
0
LINE
8
BLACK
6
CONTINUOUS
10
11.8273
20
-8.39036
11
11.8265
21
-8.38882
0
LINE
8
BLACK
6
CONTINUOUS
10
11.8265
20
-8.38882
11
11.8265
21
-8.38882
0
LINE
8
BLACK
6
CONTINUOUS
10
11.8265
20
-8.38882
11
11.8265
21
-8.38882
0
LINE
8
BLACK
6
CONTINUOUS
10
11.8265
20
-8.38882
11
11.8257
21
-8.38723
0
LINE
8
BLACK
6
CONTINUOUS
10
11.8257
20
-8.38723
11
11.8257
21
-8.38723
0
LINE
8
BLACK
6
CONTINUOUS
10
11.8257
20
-8.38723
11
11.8257
21
-8.38723
0
LINE
8
BLACK
6
CONTINUOUS
10
11.8257
20
-8.38723
11
11.8257
21
-8.38723
0
LINE
8
BLACK
6
CONTINUOUS
10
11.8257
20
-8.38723
11
11.8251
21
-8.38562
0
LINE
8
BLACK
6
CONTINUOUS
10
11.8251
20
-8.38562
11
11.8251
21
-8.38562
0
LINE
8
BLACK
6
CONTINUOUS
10
11.8251
20
-8.38562
11
11.8251
21
-8.38562
0
LINE
8
BLACK
6
CONTINUOUS
10
11.8251
20
-8.38562
11
11.8245
21
-8.38396
0
LINE
8
BLACK
6
CONTINUOUS
10
11.8245
20
-8.38396
11
11.8245
21
-8.38396
0
LINE
8
BLACK
6
CONTINUOUS
10
11.8245
20
-8.38396
11
11.824
21
-8.38228
0
LINE
8
BLACK
6
CONTINUOUS
10
11.824
20
-8.38228
11
11.824
21
-8.38228
0
LINE
8
BLACK
6
CONTINUOUS
10
11.824
20
-8.38228
11
11.824
21
-8.38228
0
LINE
8
BLACK
6
CONTINUOUS
10
11.824
20
-8.38228
11
11.8236
21
-8.38058
0
LINE
8
BLACK
6
CONTINUOUS
10
11.8236
20
-8.38058
11
11.8236
21
-8.38058
0
LINE
8
BLACK
6
CONTINUOUS
10
11.8236
20
-8.38058
11
11.8236
21
-8.38058
0
LINE
8
BLACK
6
CONTINUOUS
10
11.8236
20
-8.38058
11
11.8236
21
-8.38058
0
LINE
8
BLACK
6
CONTINUOUS
10
11.8236
20
-8.38058
11
11.8232
21
-8.37886
0
LINE
8
BLACK
6
CONTINUOUS
10
11.8232
20
-8.37886
11
11.8232
21
-8.37886
0
LINE
8
BLACK
6
CONTINUOUS
10
11.8232
20
-8.37886
11
11.823
21
-8.37712
0
LINE
8
BLACK
6
CONTINUOUS
10
11.823
20
-8.37712
11
11.823
21
-8.37712
0
LINE
8
BLACK
6
CONTINUOUS
10
11.823
20
-8.37712
11
11.8229
21
-8.37537
0
LINE
8
BLACK
6
CONTINUOUS
10
11.8229
20
-8.37537
11
11.8229
21
-8.37537
0
LINE
8
BLACK
6
CONTINUOUS
10
11.8229
20
-8.37537
11
11.8228
21
-8.37362
0
LINE
8
BLACK
6
CONTINUOUS
10
11.8228
20
-8.37362
11
11.8228
21
-8.32638
0
LINE
8
BLACK
6
CONTINUOUS
10
11.8228
20
-8.32638
11
11.8229
21
-8.32463
0
LINE
8
BLACK
6
CONTINUOUS
10
11.8229
20
-8.32463
11
11.8229
21
-8.32463
0
LINE
8
BLACK
6
CONTINUOUS
10
11.8229
20
-8.32463
11
11.823
21
-8.32288
0
LINE
8
BLACK
6
CONTINUOUS
10
11.823
20
-8.32288
11
11.823
21
-8.32288
0
LINE
8
BLACK
6
CONTINUOUS
10
11.823
20
-8.32288
11
11.8232
21
-8.32114
0
LINE
8
BLACK
6
CONTINUOUS
10
11.8232
20
-8.32114
11
11.8232
21
-8.32114
0
LINE
8
BLACK
6
CONTINUOUS
10
11.8232
20
-8.32114
11
11.8232
21
-8.32114
0
LINE
8
BLACK
6
CONTINUOUS
10
11.8232
20
-8.32114
11
11.8236
21
-8.31942
0
LINE
8
BLACK
6
CONTINUOUS
10
11.8236
20
-8.31942
11
11.8236
21
-8.31942
0
LINE
8
BLACK
6
CONTINUOUS
10
11.8236
20
-8.31942
11
11.824
21
-8.31772
0
LINE
8
BLACK
6
CONTINUOUS
10
11.824
20
-8.31772
11
11.824
21
-8.31772
0
LINE
8
BLACK
6
CONTINUOUS
10
11.824
20
-8.31772
11
11.824
21
-8.31772
0
LINE
8
BLACK
6
CONTINUOUS
10
11.824
20
-8.31772
11
11.8245
21
-8.31604
0
LINE
8
BLACK
6
CONTINUOUS
10
11.8245
20
-8.31604
11
11.8245
21
-8.31604
0
LINE
8
BLACK
6
CONTINUOUS
10
11.8245
20
-8.31604
11
11.8245
21
-8.31604
0
LINE
8
BLACK
6
CONTINUOUS
10
11.8245
20
-8.31604
11
11.8251
21
-8.31438
0
LINE
8
BLACK
6
CONTINUOUS
10
11.8251
20
-8.31438
11
11.8251
21
-8.31438
0
LINE
8
BLACK
6
CONTINUOUS
10
11.8251
20
-8.31438
11
11.8251
21
-8.31438
0
LINE
8
BLACK
6
CONTINUOUS
10
11.8251
20
-8.31438
11
11.8257
21
-8.31277
0
LINE
8
BLACK
6
CONTINUOUS
10
11.8257
20
-8.31277
11
11.8257
21
-8.31277
0
LINE
8
BLACK
6
CONTINUOUS
10
11.8257
20
-8.31277
11
11.8257
21
-8.31277
0
LINE
8
BLACK
6
CONTINUOUS
10
11.8257
20
-8.31277
11
11.8265
21
-8.31118
0
LINE
8
BLACK
6
CONTINUOUS
10
11.8265
20
-8.31118
11
11.8265
21
-8.31118
0
LINE
8
BLACK
6
CONTINUOUS
10
11.8265
20
-8.31118
11
11.8273
21
-8.30964
0
LINE
8
BLACK
6
CONTINUOUS
10
11.8273
20
-8.30964
11
11.8273
21
-8.30964
0
LINE
8
BLACK
6
CONTINUOUS
10
11.8273
20
-8.30964
11
11.8273
21
-8.30964
0
LINE
8
BLACK
6
CONTINUOUS
10
11.8273
20
-8.30964
11
11.8282
21
-8.30815
0
LINE
8
BLACK
6
CONTINUOUS
10
11.8282
20
-8.30815
11
11.8282
21
-8.30815
0
LINE
8
BLACK
6
CONTINUOUS
10
11.8282
20
-8.30815
11
11.8292
21
-8.30671
0
LINE
8
BLACK
6
CONTINUOUS
10
11.8292
20
-8.30671
11
11.8292
21
-8.30671
0
LINE
8
BLACK
6
CONTINUOUS
10
11.8292
20
-8.30671
11
11.8292
21
-8.30671
0
LINE
8
BLACK
6
CONTINUOUS
10
11.8292
20
-8.30671
11
11.8303
21
-8.30532
0
LINE
8
BLACK
6
CONTINUOUS
10
11.8303
20
-8.30532
11
11.8303
21
-8.30532
0
LINE
8
BLACK
6
CONTINUOUS
10
11.8303
20
-8.30532
11
11.8314
21
-8.30398
0
LINE
8
BLACK
6
CONTINUOUS
10
11.8314
20
-8.30398
11
11.8314
21
-8.30398
0
LINE
8
BLACK
6
CONTINUOUS
10
11.8314
20
-8.30398
11
11.8314
21
-8.30398
0
LINE
8
BLACK
6
CONTINUOUS
10
11.8314
20
-8.30398
11
11.8326
21
-8.30271
0
LINE
8
BLACK
6
CONTINUOUS
10
11.8326
20
-8.30271
11
11.8326
21
-8.30271
0
LINE
8
BLACK
6
CONTINUOUS
10
11.8326
20
-8.30271
11
11.8326
21
-8.30271
0
LINE
8
BLACK
6
CONTINUOUS
10
11.8326
20
-8.30271
11
11.8339
21
-8.30151
0
LINE
8
BLACK
6
CONTINUOUS
10
11.8339
20
-8.30151
11
11.8339
21
-8.30151
0
LINE
8
BLACK
6
CONTINUOUS
10
11.8339
20
-8.30151
11
11.8339
21
-8.30151
0
LINE
8
BLACK
6
CONTINUOUS
10
11.8339
20
-8.30151
11
11.8352
21
-8.30037
0
LINE
8
BLACK
6
CONTINUOUS
10
11.8352
20
-8.30037
11
11.8352
21
-8.30037
0
LINE
8
BLACK
6
CONTINUOUS
10
11.8352
20
-8.30037
11
11.8352
21
-8.30037
0
LINE
8
BLACK
6
CONTINUOUS
10
11.8352
20
-8.30037
11
11.8366
21
-8.2993
0
LINE
8
BLACK
6
CONTINUOUS
10
11.8366
20
-8.2993
11
11.8366
21
-8.2993
0
LINE
8
BLACK
6
CONTINUOUS
10
11.8366
20
-8.2993
11
11.8366
21
-8.2993
0
LINE
8
BLACK
6
CONTINUOUS
10
11.8366
20
-8.2993
11
11.8381
21
-8.29831
0
LINE
8
BLACK
6
CONTINUOUS
10
11.8381
20
-8.29831
11
11.8381
21
-8.29831
0
LINE
8
BLACK
6
CONTINUOUS
10
11.8381
20
-8.29831
11
11.8396
21
-8.2974
0
LINE
8
BLACK
6
CONTINUOUS
10
11.8396
20
-8.2974
11
11.8396
21
-8.2974
0
LINE
8
BLACK
6
CONTINUOUS
10
11.8396
20
-8.2974
11
11.8396
21
-8.2974
0
LINE
8
BLACK
6
CONTINUOUS
10
11.8396
20
-8.2974
11
11.8411
21
-8.29656
0
LINE
8
BLACK
6
CONTINUOUS
10
11.8411
20
-8.29656
11
11.8411
21
-8.29656
0
LINE
8
BLACK
6
CONTINUOUS
10
11.8411
20
-8.29656
11
11.8411
21
-8.29656
0
LINE
8
BLACK
6
CONTINUOUS
10
11.8411
20
-8.29656
11
11.8427
21
-8.2958
0
LINE
8
BLACK
6
CONTINUOUS
10
11.8427
20
-8.2958
11
11.8427
21
-8.2958
0
LINE
8
BLACK
6
CONTINUOUS
10
11.8427
20
-8.2958
11
11.8427
21
-8.2958
0
LINE
8
BLACK
6
CONTINUOUS
10
11.8427
20
-8.2958
11
11.8443
21
-8.29513
0
LINE
8
BLACK
6
CONTINUOUS
10
11.8443
20
-8.29513
11
11.8443
21
-8.29513
0
LINE
8
BLACK
6
CONTINUOUS
10
11.8443
20
-8.29513
11
11.8443
21
-8.29513
0
LINE
8
BLACK
6
CONTINUOUS
10
11.8443
20
-8.29513
11
11.846
21
-8.29455
0
LINE
8
BLACK
6
CONTINUOUS
10
11.846
20
-8.29455
11
11.846
21
-8.29455
0
LINE
8
BLACK
6
CONTINUOUS
10
11.846
20
-8.29455
11
11.846
21
-8.29455
0
LINE
8
BLACK
6
CONTINUOUS
10
11.846
20
-8.29455
11
11.8476
21
-8.29405
0
LINE
8
BLACK
6
CONTINUOUS
10
11.8476
20
-8.29405
11
11.8476
21
-8.29405
0
LINE
8
BLACK
6
CONTINUOUS
10
11.8476
20
-8.29405
11
11.8493
21
-8.29364
0
LINE
8
BLACK
6
CONTINUOUS
10
11.8493
20
-8.29364
11
11.8493
21
-8.29364
0
LINE
8
BLACK
6
CONTINUOUS
10
11.8493
20
-8.29364
11
11.8493
21
-8.29364
0
LINE
8
BLACK
6
CONTINUOUS
10
11.8493
20
-8.29364
11
11.8511
21
-8.29332
0
LINE
8
BLACK
6
CONTINUOUS
10
11.8511
20
-8.29332
11
11.8511
21
-8.29332
0
LINE
8
BLACK
6
CONTINUOUS
10
11.8511
20
-8.29332
11
11.8528
21
-8.29309
0
LINE
8
BLACK
6
CONTINUOUS
10
11.8528
20
-8.29309
11
11.8528
21
-8.29309
0
LINE
8
BLACK
6
CONTINUOUS
10
11.8528
20
-8.29309
11
11.8545
21
-8.29296
0
LINE
8
BLACK
6
CONTINUOUS
10
11.8545
20
-8.29296
11
11.8545
21
-8.29296
0
LINE
8
BLACK
6
CONTINUOUS
10
11.8545
20
-8.29296
11
11.8563
21
-8.29291
0
LINE
8
BLACK
6
CONTINUOUS
10
11.8563
20
-8.29291
11
11.8563
21
-8.29291
0
LINE
8
BLACK
6
CONTINUOUS
10
11.8563
20
-8.29291
11
11.8581
21
-8.29296
0
LINE
8
BLACK
6
CONTINUOUS
10
11.8581
20
-8.29296
11
11.8581
21
-8.29296
0
LINE
8
BLACK
6
CONTINUOUS
10
11.8581
20
-8.29296
11
11.8598
21
-8.29309
0
LINE
8
BLACK
6
CONTINUOUS
10
11.8598
20
-8.29309
11
11.8598
21
-8.29309
0
LINE
8
BLACK
6
CONTINUOUS
10
11.8598
20
-8.29309
11
11.8615
21
-8.29332
0
LINE
8
BLACK
6
CONTINUOUS
10
11.8615
20
-8.29332
11
11.8615
21
-8.29332
0
LINE
8
BLACK
6
CONTINUOUS
10
11.8615
20
-8.29332
11
11.8615
21
-8.29332
0
LINE
8
BLACK
6
CONTINUOUS
10
11.8615
20
-8.29332
11
11.8633
21
-8.29364
0
LINE
8
BLACK
6
CONTINUOUS
10
11.8633
20
-8.29364
11
11.8633
21
-8.29364
0
LINE
8
BLACK
6
CONTINUOUS
10
11.8633
20
-8.29364
11
11.865
21
-8.29405
0
LINE
8
BLACK
6
CONTINUOUS
10
11.865
20
-8.29405
11
11.865
21
-8.29405
0
LINE
8
BLACK
6
CONTINUOUS
10
11.865
20
-8.29405
11
11.865
21
-8.29405
0
LINE
8
BLACK
6
CONTINUOUS
10
11.865
20
-8.29405
11
11.8666
21
-8.29455
0
LINE
8
BLACK
6
CONTINUOUS
10
11.8666
20
-8.29455
11
11.8666
21
-8.29455
0
LINE
8
BLACK
6
CONTINUOUS
10
11.8666
20
-8.29455
11
11.8666
21
-8.29455
0
LINE
8
BLACK
6
CONTINUOUS
10
11.8666
20
-8.29455
11
11.8683
21
-8.29513
0
LINE
8
BLACK
6
CONTINUOUS
10
11.8683
20
-8.29513
11
11.8683
21
-8.29513
0
LINE
8
BLACK
6
CONTINUOUS
10
11.8683
20
-8.29513
11
11.8683
21
-8.29513
0
LINE
8
BLACK
6
CONTINUOUS
10
11.8683
20
-8.29513
11
11.8699
21
-8.2958
0
LINE
8
BLACK
6
CONTINUOUS
10
11.8699
20
-8.2958
11
11.8699
21
-8.2958
0
LINE
8
BLACK
6
CONTINUOUS
10
11.8699
20
-8.2958
11
11.8699
21
-8.2958
0
LINE
8
BLACK
6
CONTINUOUS
10
11.8699
20
-8.2958
11
11.8699
21
-8.2958
0
LINE
8
BLACK
6
CONTINUOUS
10
11.8699
20
-8.2958
11
11.8715
21
-8.29656
0
LINE
8
BLACK
6
CONTINUOUS
10
11.8715
20
-8.29656
11
11.8715
21
-8.29656
0
LINE
8
BLACK
6
CONTINUOUS
10
11.8715
20
-8.29656
11
11.873
21
-8.2974
0
LINE
8
BLACK
6
CONTINUOUS
10
11.873
20
-8.2974
11
11.873
21
-8.2974
0
LINE
8
BLACK
6
CONTINUOUS
10
11.873
20
-8.2974
11
11.8745
21
-8.29831
0
LINE
8
BLACK
6
CONTINUOUS
10
11.8745
20
-8.29831
11
11.8745
21
-8.29831
0
LINE
8
BLACK
6
CONTINUOUS
10
11.8745
20
-8.29831
11
11.8745
21
-8.29831
0
LINE
8
BLACK
6
CONTINUOUS
10
11.8745
20
-8.29831
11
11.8745
21
-8.29831
0
LINE
8
BLACK
6
CONTINUOUS
10
11.8745
20
-8.29831
11
11.876
21
-8.2993
0
LINE
8
BLACK
6
CONTINUOUS
10
11.876
20
-8.2993
11
11.876
21
-8.2993
0
LINE
8
BLACK
6
CONTINUOUS
10
11.876
20
-8.2993
11
11.876
21
-8.2993
0
LINE
8
BLACK
6
CONTINUOUS
10
11.876
20
-8.2993
11
11.876
21
-8.2993
0
LINE
8
BLACK
6
CONTINUOUS
10
11.876
20
-8.2993
11
11.876
21
-8.2993
0
LINE
8
BLACK
6
CONTINUOUS
10
11.876
20
-8.2993
11
11.8774
21
-8.30037
0
LINE
8
BLACK
6
CONTINUOUS
10
11.8774
20
-8.30037
11
11.8774
21
-8.30037
0
LINE
8
BLACK
6
CONTINUOUS
10
11.8774
20
-8.30037
11
11.8787
21
-8.30151
0
LINE
8
BLACK
6
CONTINUOUS
10
11.8787
20
-8.30151
11
11.8787
21
-8.30151
0
LINE
8
BLACK
6
CONTINUOUS
10
11.8787
20
-8.30151
11
11.88
21
-8.30271
0
LINE
8
BLACK
6
CONTINUOUS
10
11.8425
20
-8.37434
11
11.8425
21
-8.37434
0
LINE
8
BLACK
6
CONTINUOUS
10
11.8425
20
-8.37434
11
11.8426
21
-8.37506
0
LINE
8
BLACK
6
CONTINUOUS
10
11.8426
20
-8.37506
11
11.8426
21
-8.37506
0
LINE
8
BLACK
6
CONTINUOUS
10
11.8426
20
-8.37506
11
11.8427
21
-8.37578
0
LINE
8
BLACK
6
CONTINUOUS
10
11.8427
20
-8.37578
11
11.8428
21
-8.37649
0
LINE
8
BLACK
6
CONTINUOUS
10
11.8428
20
-8.37649
11
11.8428
21
-8.37649
0
LINE
8
BLACK
6
CONTINUOUS
10
11.8428
20
-8.37649
11
11.843
21
-8.37719
0
LINE
8
BLACK
6
CONTINUOUS
10
11.843
20
-8.37719
11
11.8432
21
-8.37788
0
LINE
8
BLACK
6
CONTINUOUS
10
11.8432
20
-8.37788
11
11.8434
21
-8.37856
0
LINE
8
BLACK
6
CONTINUOUS
10
11.8434
20
-8.37856
11
11.8437
21
-8.37923
0
LINE
8
BLACK
6
CONTINUOUS
10
11.8437
20
-8.37923
11
11.8437
21
-8.37923
0
LINE
8
BLACK
6
CONTINUOUS
10
11.8437
20
-8.37923
11
11.844
21
-8.37988
0
LINE
8
BLACK
6
CONTINUOUS
10
11.844
20
-8.37988
11
11.8444
21
-8.38051
0
LINE
8
BLACK
6
CONTINUOUS
10
11.8444
20
-8.38051
11
11.8444
21
-8.38051
0
LINE
8
BLACK
6
CONTINUOUS
10
11.8444
20
-8.38051
11
11.8447
21
-8.38113
0
LINE
8
BLACK
6
CONTINUOUS
10
11.8447
20
-8.38113
11
11.8447
21
-8.38113
0
LINE
8
BLACK
6
CONTINUOUS
10
11.8447
20
-8.38113
11
11.8452
21
-8.38172
0
LINE
8
BLACK
6
CONTINUOUS
10
11.8452
20
-8.38172
11
11.8452
21
-8.38172
0
LINE
8
BLACK
6
CONTINUOUS
10
11.8452
20
-8.38172
11
11.8456
21
-8.38229
0
LINE
8
BLACK
6
CONTINUOUS
10
11.8456
20
-8.38229
11
11.8461
21
-8.38284
0
LINE
8
BLACK
6
CONTINUOUS
10
11.8461
20
-8.38284
11
11.8461
21
-8.38284
0
LINE
8
BLACK
6
CONTINUOUS
10
11.8461
20
-8.38284
11
11.8461
21
-8.38284
0
LINE
8
BLACK
6
CONTINUOUS
10
11.8461
20
-8.38284
11
11.8461
21
-8.38284
0
LINE
8
BLACK
6
CONTINUOUS
10
11.8461
20
-8.38284
11
11.8466
21
-8.38336
0
LINE
8
BLACK
6
CONTINUOUS
10
11.8466
20
-8.38336
11
11.8466
21
-8.38336
0
LINE
8
BLACK
6
CONTINUOUS
10
11.8466
20
-8.38336
11
11.8466
21
-8.38336
0
LINE
8
BLACK
6
CONTINUOUS
10
11.8466
20
-8.38336
11
11.8466
21
-8.38336
0
LINE
8
BLACK
6
CONTINUOUS
10
11.8466
20
-8.38336
11
11.8471
21
-8.38386
0
LINE
8
BLACK
6
CONTINUOUS
10
11.8471
20
-8.38386
11
11.8471
21
-8.38386
0
LINE
8
BLACK
6
CONTINUOUS
10
11.8471
20
-8.38386
11
11.8476
21
-8.38433
0
LINE
8
BLACK
6
CONTINUOUS
10
11.8476
20
-8.38433
11
11.8482
21
-8.38477
0
LINE
8
BLACK
6
CONTINUOUS
10
11.8482
20
-8.38477
11
11.8488
21
-8.38518
0
LINE
8
BLACK
6
CONTINUOUS
10
11.8488
20
-8.38518
11
11.8488
21
-8.38518
0
LINE
8
BLACK
6
CONTINUOUS
10
11.8488
20
-8.38518
11
11.8494
21
-8.38555
0
LINE
8
BLACK
6
CONTINUOUS
10
11.8494
20
-8.38555
11
11.85
21
-8.3859
0
LINE
8
BLACK
6
CONTINUOUS
10
11.85
20
-8.3859
11
11.85
21
-8.3859
0
LINE
8
BLACK
6
CONTINUOUS
10
11.85
20
-8.3859
11
11.8507
21
-8.38621
0
LINE
8
BLACK
6
CONTINUOUS
10
11.8507
20
-8.38621
11
11.8507
21
-8.38621
0
LINE
8
BLACK
6
CONTINUOUS
10
11.8507
20
-8.38621
11
11.8507
21
-8.38621
0
LINE
8
BLACK
6
CONTINUOUS
10
11.8507
20
-8.38621
11
11.8507
21
-8.38621
0
LINE
8
BLACK
6
CONTINUOUS
10
11.8507
20
-8.38621
11
11.8514
21
-8.38648
0
LINE
8
BLACK
6
CONTINUOUS
10
11.8514
20
-8.38648
11
11.8514
21
-8.38648
0
LINE
8
BLACK
6
CONTINUOUS
10
11.8514
20
-8.38648
11
11.852
21
-8.38673
0
LINE
8
BLACK
6
CONTINUOUS
10
11.852
20
-8.38673
11
11.8527
21
-8.38693
0
LINE
8
BLACK
6
CONTINUOUS
10
11.8527
20
-8.38693
11
11.8527
21
-8.38693
0
LINE
8
BLACK
6
CONTINUOUS
10
11.8527
20
-8.38693
11
11.8534
21
-8.3871
0
LINE
8
BLACK
6
CONTINUOUS
10
11.8534
20
-8.3871
11
11.8541
21
-8.38723
0
LINE
8
BLACK
6
CONTINUOUS
10
11.8541
20
-8.38723
11
11.8541
21
-8.38723
0
LINE
8
BLACK
6
CONTINUOUS
10
11.8541
20
-8.38723
11
11.8549
21
-8.38732
0
LINE
8
BLACK
6
CONTINUOUS
10
11.8549
20
-8.38732
11
11.8556
21
-8.38738
0
LINE
8
BLACK
6
CONTINUOUS
10
11.8556
20
-8.38738
11
11.8556
21
-8.38738
0
LINE
8
BLACK
6
CONTINUOUS
10
11.8556
20
-8.38738
11
11.8563
21
-8.3874
0
LINE
8
BLACK
6
CONTINUOUS
10
11.8563
20
-8.3874
11
11.857
21
-8.38738
0
LINE
8
BLACK
6
CONTINUOUS
10
11.857
20
-8.38738
11
11.8577
21
-8.38732
0
LINE
8
BLACK
6
CONTINUOUS
10
11.8577
20
-8.38732
11
11.8577
21
-8.38732
0
LINE
8
BLACK
6
CONTINUOUS
10
11.8577
20
-8.38732
11
11.8585
21
-8.38723
0
LINE
8
BLACK
6
CONTINUOUS
10
11.8585
20
-8.38723
11
11.8585
21
-8.38723
0
LINE
8
BLACK
6
CONTINUOUS
10
11.8585
20
-8.38723
11
11.8592
21
-8.3871
0
LINE
8
BLACK
6
CONTINUOUS
10
11.8592
20
-8.3871
11
11.8592
21
-8.3871
0
LINE
8
BLACK
6
CONTINUOUS
10
11.8592
20
-8.3871
11
11.8599
21
-8.38693
0
LINE
8
BLACK
6
CONTINUOUS
10
11.8599
20
-8.38693
11
11.8599
21
-8.38693
0
LINE
8
BLACK
6
CONTINUOUS
10
11.8599
20
-8.38693
11
11.8606
21
-8.38673
0
LINE
8
BLACK
6
CONTINUOUS
10
11.8606
20
-8.38673
11
11.8612
21
-8.38648
0
LINE
8
BLACK
6
CONTINUOUS
10
11.8612
20
-8.38648
11
11.8619
21
-8.38621
0
LINE
8
BLACK
6
CONTINUOUS
10
11.8619
20
-8.38621
11
11.8619
21
-8.38621
0
LINE
8
BLACK
6
CONTINUOUS
10
11.8619
20
-8.38621
11
11.8626
21
-8.3859
0
LINE
8
BLACK
6
CONTINUOUS
10
11.8626
20
-8.3859
11
11.8632
21
-8.38555
0
LINE
8
BLACK
6
CONTINUOUS
10
11.8632
20
-8.38555
11
11.8638
21
-8.38518
0
LINE
8
BLACK
6
CONTINUOUS
10
11.8638
20
-8.38518
11
11.8638
21
-8.38518
0
LINE
8
BLACK
6
CONTINUOUS
10
11.8638
20
-8.38518
11
11.8644
21
-8.38477
0
LINE
8
BLACK
6
CONTINUOUS
10
11.8644
20
-8.38477
11
11.8644
21
-8.38477
0
LINE
8
BLACK
6
CONTINUOUS
10
11.8644
20
-8.38477
11
11.865
21
-8.38433
0
LINE
8
BLACK
6
CONTINUOUS
10
11.865
20
-8.38433
11
11.8655
21
-8.38386
0
LINE
8
BLACK
6
CONTINUOUS
10
11.8655
20
-8.38386
11
11.8655
21
-8.38386
0
LINE
8
BLACK
6
CONTINUOUS
10
11.8655
20
-8.38386
11
11.8655
21
-8.38386
0
LINE
8
BLACK
6
CONTINUOUS
10
11.8655
20
-8.38386
11
11.866
21
-8.38336
0
LINE
8
BLACK
6
CONTINUOUS
10
11.866
20
-8.38336
11
11.866
21
-8.38336
0
LINE
8
BLACK
6
CONTINUOUS
10
11.866
20
-8.38336
11
11.866
21
-8.38336
0
LINE
8
BLACK
6
CONTINUOUS
10
11.866
20
-8.38336
11
11.8665
21
-8.38284
0
LINE
8
BLACK
6
CONTINUOUS
10
11.8665
20
-8.38284
11
11.8665
21
-8.38284
0
LINE
8
BLACK
6
CONTINUOUS
10
11.8665
20
-8.38284
11
11.867
21
-8.38229
0
LINE
8
BLACK
6
CONTINUOUS
10
11.867
20
-8.38229
11
11.8674
21
-8.38172
0
LINE
8
BLACK
6
CONTINUOUS
10
11.8674
20
-8.38172
11
11.8679
21
-8.38113
0
LINE
8
BLACK
6
CONTINUOUS
10
11.8679
20
-8.38113
11
11.8679
21
-8.38113
0
LINE
8
BLACK
6
CONTINUOUS
10
11.8679
20
-8.38113
11
11.8682
21
-8.38051
0
LINE
8
BLACK
6
CONTINUOUS
10
11.8682
20
-8.38051
11
11.8682
21
-8.38051
0
LINE
8
BLACK
6
CONTINUOUS
10
11.8682
20
-8.38051
11
11.8682
21
-8.38051
0
LINE
8
BLACK
6
CONTINUOUS
10
11.8682
20
-8.38051
11
11.8686
21
-8.37988
0
LINE
8
BLACK
6
CONTINUOUS
10
11.8686
20
-8.37988
11
11.8689
21
-8.37923
0
LINE
8
BLACK
6
CONTINUOUS
10
11.8689
20
-8.37923
11
11.8689
21
-8.37923
0
LINE
8
BLACK
6
CONTINUOUS
10
11.8689
20
-8.37923
11
11.8689
21
-8.37923
0
LINE
8
BLACK
6
CONTINUOUS
10
11.8689
20
-8.37923
11
11.8692
21
-8.37856
0
LINE
8
BLACK
6
CONTINUOUS
10
11.8692
20
-8.37856
11
11.8692
21
-8.37856
0
LINE
8
BLACK
6
CONTINUOUS
10
11.8692
20
-8.37856
11
11.8694
21
-8.37788
0
LINE
8
BLACK
6
CONTINUOUS
10
11.8694
20
-8.37788
11
11.8696
21
-8.37719
0
LINE
8
BLACK
6
CONTINUOUS
10
11.8696
20
-8.37719
11
11.8698
21
-8.37649
0
LINE
8
BLACK
6
CONTINUOUS
10
11.8698
20
-8.37649
11
11.8698
21
-8.37649
0
LINE
8
BLACK
6
CONTINUOUS
10
11.8698
20
-8.37649
11
11.8699
21
-8.37578
0
LINE
8
BLACK
6
CONTINUOUS
10
11.8699
20
-8.37578
11
11.8699
21
-8.37578
0
LINE
8
BLACK
6
CONTINUOUS
10
11.8699
20
-8.37578
11
11.87
21
-8.37506
0
LINE
8
BLACK
6
CONTINUOUS
10
11.87
20
-8.37506
11
11.8701
21
-8.37434
0
LINE
8
BLACK
6
CONTINUOUS
10
11.8701
20
-8.37434
11
11.8701
21
-8.37434
0
LINE
8
BLACK
6
CONTINUOUS
10
11.8701
20
-8.37434
11
11.8701
21
-8.37362
0
LINE
8
BLACK
6
CONTINUOUS
10
11.8701
20
-8.37362
11
11.8701
21
-8.32638
0
LINE
8
BLACK
6
CONTINUOUS
10
11.8701
20
-8.32638
11
11.8701
21
-8.32566
0
LINE
8
BLACK
6
CONTINUOUS
10
11.8701
20
-8.32566
11
11.8701
21
-8.32566
0
LINE
8
BLACK
6
CONTINUOUS
10
11.8701
20
-8.32566
11
11.87
21
-8.32494
0
LINE
8
BLACK
6
CONTINUOUS
10
11.87
20
-8.32494
11
11.8699
21
-8.32422
0
LINE
8
BLACK
6
CONTINUOUS
10
11.8699
20
-8.32422
11
11.8699
21
-8.32422
0
LINE
8
BLACK
6
CONTINUOUS
10
11.8699
20
-8.32422
11
11.8698
21
-8.32351
0
LINE
8
BLACK
6
CONTINUOUS
10
11.8698
20
-8.32351
11
11.8698
21
-8.32351
0
LINE
8
BLACK
6
CONTINUOUS
10
11.8698
20
-8.32351
11
11.8696
21
-8.32281
0
LINE
8
BLACK
6
CONTINUOUS
10
11.8696
20
-8.32281
11
11.8696
21
-8.32281
0
LINE
8
BLACK
6
CONTINUOUS
10
11.8696
20
-8.32281
11
11.8694
21
-8.32212
0
LINE
8
BLACK
6
CONTINUOUS
10
11.8694
20
-8.32212
11
11.8694
21
-8.32212
0
LINE
8
BLACK
6
CONTINUOUS
10
11.8694
20
-8.32212
11
11.8692
21
-8.32144
0
LINE
8
BLACK
6
CONTINUOUS
10
11.8692
20
-8.32144
11
11.8692
21
-8.32144
0
LINE
8
BLACK
6
CONTINUOUS
10
11.8692
20
-8.32144
11
11.8689
21
-8.32077
0
LINE
8
BLACK
6
CONTINUOUS
10
11.8689
20
-8.32077
11
11.8689
21
-8.32077
0
LINE
8
BLACK
6
CONTINUOUS
10
11.8689
20
-8.32077
11
11.8689
21
-8.32077
0
LINE
8
BLACK
6
CONTINUOUS
10
11.8689
20
-8.32077
11
11.8686
21
-8.32012
0
LINE
8
BLACK
6
CONTINUOUS
10
11.8686
20
-8.32012
11
11.8686
21
-8.32012
0
LINE
8
BLACK
6
CONTINUOUS
10
11.8686
20
-8.32012
11
11.8686
21
-8.32012
0
LINE
8
BLACK
6
CONTINUOUS
10
11.8686
20
-8.32012
11
11.8682
21
-8.31949
0
LINE
8
BLACK
6
CONTINUOUS
10
11.8682
20
-8.31949
11
11.8679
21
-8.31887
0
LINE
8
BLACK
6
CONTINUOUS
10
11.8679
20
-8.31887
11
11.8679
21
-8.31887
0
LINE
8
BLACK
6
CONTINUOUS
10
11.8679
20
-8.31887
11
11.8674
21
-8.31828
0
LINE
8
BLACK
6
CONTINUOUS
10
11.8674
20
-8.31828
11
11.8674
21
-8.31828
0
LINE
8
BLACK
6
CONTINUOUS
10
11.8674
20
-8.31828
11
11.867
21
-8.31771
0
LINE
8
BLACK
6
CONTINUOUS
10
11.867
20
-8.31771
11
11.8665
21
-8.31716
0
LINE
8
BLACK
6
CONTINUOUS
10
11.8665
20
-8.31716
11
11.8665
21
-8.31716
0
LINE
8
BLACK
6
CONTINUOUS
10
11.8665
20
-8.31716
11
11.866
21
-8.31664
0
LINE
8
BLACK
6
CONTINUOUS
10
11.866
20
-8.31664
11
11.866
21
-8.31664
0
LINE
8
BLACK
6
CONTINUOUS
10
11.866
20
-8.31664
11
11.866
21
-8.31664
0
LINE
8
BLACK
6
CONTINUOUS
10
11.866
20
-8.31664
11
11.8655
21
-8.31614
0
LINE
8
BLACK
6
CONTINUOUS
10
11.8655
20
-8.31614
11
11.8655
21
-8.31614
0
LINE
8
BLACK
6
CONTINUOUS
10
11.8655
20
-8.31614
11
11.8655
21
-8.31614
0
LINE
8
BLACK
6
CONTINUOUS
10
11.8655
20
-8.31614
11
11.865
21
-8.31567
0
LINE
8
BLACK
6
CONTINUOUS
10
11.865
20
-8.31567
11
11.8644
21
-8.31523
0
LINE
8
BLACK
6
CONTINUOUS
10
11.8644
20
-8.31523
11
11.8644
21
-8.31523
0
LINE
8
BLACK
6
CONTINUOUS
10
11.8644
20
-8.31523
11
11.8644
21
-8.31523
0
LINE
8
BLACK
6
CONTINUOUS
10
11.8644
20
-8.31523
11
11.8638
21
-8.31482
0
LINE
8
BLACK
6
CONTINUOUS
10
11.8638
20
-8.31482
11
11.8638
21
-8.31482
0
LINE
8
BLACK
6
CONTINUOUS
10
11.8638
20
-8.31482
11
11.8638
21
-8.31482
0
LINE
8
BLACK
6
CONTINUOUS
10
11.8638
20
-8.31482
11
11.8632
21
-8.31445
0
LINE
8
BLACK
6
CONTINUOUS
10
11.8632
20
-8.31445
11
11.8626
21
-8.3141
0
LINE
8
BLACK
6
CONTINUOUS
10
11.8626
20
-8.3141
11
11.8619
21
-8.31379
0
LINE
8
BLACK
6
CONTINUOUS
10
11.8619
20
-8.31379
11
11.8619
21
-8.31379
0
LINE
8
BLACK
6
CONTINUOUS
10
11.8619
20
-8.31379
11
11.8612
21
-8.31352
0
LINE
8
BLACK
6
CONTINUOUS
10
11.8612
20
-8.31352
11
11.8612
21
-8.31352
0
LINE
8
BLACK
6
CONTINUOUS
10
11.8612
20
-8.31352
11
11.8606
21
-8.31327
0
LINE
8
BLACK
6
CONTINUOUS
10
11.8606
20
-8.31327
11
11.8606
21
-8.31327
0
LINE
8
BLACK
6
CONTINUOUS
10
11.8606
20
-8.31327
11
11.8599
21
-8.31307
0
LINE
8
BLACK
6
CONTINUOUS
10
11.8599
20
-8.31307
11
11.8599
21
-8.31307
0
LINE
8
BLACK
6
CONTINUOUS
10
11.8599
20
-8.31307
11
11.8592
21
-8.3129
0
LINE
8
BLACK
6
CONTINUOUS
10
11.8592
20
-8.3129
11
11.8592
21
-8.3129
0
LINE
8
BLACK
6
CONTINUOUS
10
11.8592
20
-8.3129
11
11.8585
21
-8.31277
0
LINE
8
BLACK
6
CONTINUOUS
10
11.8585
20
-8.31277
11
11.8585
21
-8.31277
0
LINE
8
BLACK
6
CONTINUOUS
10
11.8585
20
-8.31277
11
11.8577
21
-8.31268
0
LINE
8
BLACK
6
CONTINUOUS
10
11.8577
20
-8.31268
11
11.857
21
-8.31262
0
LINE
8
BLACK
6
CONTINUOUS
10
11.857
20
-8.31262
11
11.857
21
-8.31262
0
LINE
8
BLACK
6
CONTINUOUS
10
11.857
20
-8.31262
11
11.8563
21
-8.3126
0
LINE
8
BLACK
6
CONTINUOUS
10
11.8563
20
-8.3126
11
11.8556
21
-8.31262
0
LINE
8
BLACK
6
CONTINUOUS
10
11.8556
20
-8.31262
11
11.8549
21
-8.31268
0
LINE
8
BLACK
6
CONTINUOUS
10
11.8549
20
-8.31268
11
11.8549
21
-8.31268
0
LINE
8
BLACK
6
CONTINUOUS
10
11.8549
20
-8.31268
11
11.8541
21
-8.31277
0
LINE
8
BLACK
6
CONTINUOUS
10
11.8541
20
-8.31277
11
11.8541
21
-8.31277
0
LINE
8
BLACK
6
CONTINUOUS
10
11.8541
20
-8.31277
11
11.8534
21
-8.3129
0
LINE
8
BLACK
6
CONTINUOUS
10
11.8534
20
-8.3129
11
11.8534
21
-8.3129
0
LINE
8
BLACK
6
CONTINUOUS
10
11.8534
20
-8.3129
11
11.8527
21
-8.31307
0
LINE
8
BLACK
6
CONTINUOUS
10
11.8527
20
-8.31307
11
11.852
21
-8.31327
0
LINE
8
BLACK
6
CONTINUOUS
10
11.852
20
-8.31327
11
11.8514
21
-8.31352
0
LINE
8
BLACK
6
CONTINUOUS
10
11.8514
20
-8.31352
11
11.8507
21
-8.31379
0
LINE
8
BLACK
6
CONTINUOUS
10
11.8507
20
-8.31379
11
11.8507
21
-8.31379
0
LINE
8
BLACK
6
CONTINUOUS
10
11.8507
20
-8.31379
11
11.8507
21
-8.31379
0
LINE
8
BLACK
6
CONTINUOUS
10
11.8507
20
-8.31379
11
11.85
21
-8.3141
0
LINE
8
BLACK
6
CONTINUOUS
10
11.85
20
-8.3141
11
11.85
21
-8.3141
0
LINE
8
BLACK
6
CONTINUOUS
10
11.85
20
-8.3141
11
11.85
21
-8.3141
0
LINE
8
BLACK
6
CONTINUOUS
10
11.85
20
-8.3141
11
11.8494
21
-8.31445
0
LINE
8
BLACK
6
CONTINUOUS
10
11.8494
20
-8.31445
11
11.8488
21
-8.31482
0
LINE
8
BLACK
6
CONTINUOUS
10
11.8488
20
-8.31482
11
11.8488
21
-8.31482
0
LINE
8
BLACK
6
CONTINUOUS
10
11.8488
20
-8.31482
11
11.8482
21
-8.31523
0
LINE
8
BLACK
6
CONTINUOUS
10
11.8482
20
-8.31523
11
11.8482
21
-8.31523
0
LINE
8
BLACK
6
CONTINUOUS
10
11.8482
20
-8.31523
11
11.8476
21
-8.31567
0
LINE
8
BLACK
6
CONTINUOUS
10
11.8476
20
-8.31567
11
11.8476
21
-8.31567
0
LINE
8
BLACK
6
CONTINUOUS
10
11.8476
20
-8.31567
11
11.8471
21
-8.31614
0
LINE
8
BLACK
6
CONTINUOUS
10
11.8471
20
-8.31614
11
11.8471
21
-8.31614
0
LINE
8
BLACK
6
CONTINUOUS
10
11.8471
20
-8.31614
11
11.8466
21
-8.31664
0
LINE
8
BLACK
6
CONTINUOUS
10
11.8466
20
-8.31664
11
11.8466
21
-8.31664
0
LINE
8
BLACK
6
CONTINUOUS
10
11.8466
20
-8.31664
11
11.8466
21
-8.31664
0
LINE
8
BLACK
6
CONTINUOUS
10
11.8466
20
-8.31664
11
11.8461
21
-8.31716
0
LINE
8
BLACK
6
CONTINUOUS
10
11.8461
20
-8.31716
11
11.8461
21
-8.31716
0
LINE
8
BLACK
6
CONTINUOUS
10
11.8461
20
-8.31716
11
11.8461
21
-8.31716
0
LINE
8
BLACK
6
CONTINUOUS
10
11.8461
20
-8.31716
11
11.8456
21
-8.31771
0
LINE
8
BLACK
6
CONTINUOUS
10
11.8456
20
-8.31771
11
11.8456
21
-8.31771
0
LINE
8
BLACK
6
CONTINUOUS
10
11.8456
20
-8.31771
11
11.8452
21
-8.31828
0
LINE
8
BLACK
6
CONTINUOUS
10
11.8452
20
-8.31828
11
11.8447
21
-8.31887
0
LINE
8
BLACK
6
CONTINUOUS
10
11.8447
20
-8.31887
11
11.8447
21
-8.31887
0
LINE
8
BLACK
6
CONTINUOUS
10
11.8447
20
-8.31887
11
11.8444
21
-8.31949
0
LINE
8
BLACK
6
CONTINUOUS
10
11.8444
20
-8.31949
11
11.844
21
-8.32012
0
LINE
8
BLACK
6
CONTINUOUS
10
11.844
20
-8.32012
11
11.8437
21
-8.32077
0
LINE
8
BLACK
6
CONTINUOUS
10
11.8437
20
-8.32077
11
11.8434
21
-8.32144
0
LINE
8
BLACK
6
CONTINUOUS
10
11.8434
20
-8.32144
11
11.8434
21
-8.32144
0
LINE
8
BLACK
6
CONTINUOUS
10
11.8434
20
-8.32144
11
11.8432
21
-8.32212
0
LINE
8
BLACK
6
CONTINUOUS
10
11.8432
20
-8.32212
11
11.8432
21
-8.32212
0
LINE
8
BLACK
6
CONTINUOUS
10
11.8432
20
-8.32212
11
11.843
21
-8.32281
0
LINE
8
BLACK
6
CONTINUOUS
10
11.843
20
-8.32281
11
11.843
21
-8.32281
0
LINE
8
BLACK
6
CONTINUOUS
10
11.843
20
-8.32281
11
11.8428
21
-8.32351
0
LINE
8
BLACK
6
CONTINUOUS
10
11.8428
20
-8.32351
11
11.8428
21
-8.32351
0
LINE
8
BLACK
6
CONTINUOUS
10
11.8428
20
-8.32351
11
11.8427
21
-8.32422
0
LINE
8
BLACK
6
CONTINUOUS
10
11.8427
20
-8.32422
11
11.8427
21
-8.32422
0
LINE
8
BLACK
6
CONTINUOUS
10
11.8427
20
-8.32422
11
11.8426
21
-8.32494
0
LINE
8
BLACK
6
CONTINUOUS
10
11.8426
20
-8.32494
11
11.8425
21
-8.32566
0
LINE
8
BLACK
6
CONTINUOUS
10
11.8425
20
-8.32566
11
11.8425
21
-8.32566
0
LINE
8
BLACK
6
CONTINUOUS
10
11.8425
20
-8.32566
11
11.8425
21
-8.32638
0
LINE
8
BLACK
6
CONTINUOUS
10
11.8425
20
-8.32638
11
11.8425
21
-8.37362
0
LINE
8
BLACK
6
CONTINUOUS
10
11.8425
20
-8.37362
11
11.8425
21
-8.37434
  0
ENDSEC
  0
EOF
