  0
SECTION
  2
HEADER
  9
$ANGBASE
  50
0.0
  9
$ANGDIR
  70
1
  9
$MEASUREMENT
  70
0
  0
ENDSEC
  0
SECTION
  2
TABLES
  0
TABLE
  2
LTYPE
  70
4
  0
LTYPE
  5
40F
  2
CONTINUOUS
  70
0
  3
Solid line
  72
65
  73
0
  40
0.0
  0
LTYPE
  5
410
  2
DASHDOT
 70
0
  3
Dash Dot ____ _ ____ _
 72
65
 73
4
 40
2.0
 49
1.25
 49
-0.25
 49
0.25
 49
-0.25
  0
LTYPE
  5
411
  2
DASHED
 70
0
  3
Dashed __ __ __ __ __
 72
65
 73
2
 40
0.75
 49
0.5
 49
-0.25
  0
LTYPE
  5
43B
  2
DOTTED
 70
0
  3
Dotted .  .  .  .
 72
65
 73
2
 40
0.2
 49
0.0
 49
-0.2
  0
ENDTAB
  0
TABLE
  2
STYLE
  70
4
  0
STYLE
  2
KICAD
  70
0
  40
0
  41
1
  42
1
  50
0
  71
0
  3
isocp.shx
  0
STYLE
  2
KICADB
  70
0
  40
0
  41
1
  42
1
  50
0
  71
0
  3
isocp.shx
  0
STYLE
  2
KICADI
  70
0
  40
0
  41
1
  42
1
  50
15
  71
0
  3
isocp.shx
  0
STYLE
  2
KICADBI
  70
0
  40
0
  41
1
  42
1
  50
15
  71
0
  3
isocp.shx
  0
ENDTAB
  0
TABLE
  2
LAYER
  70
1
  0
LAYER
  2
BLACK
  70
0
  62
7
  6
CONTINUOUS
  0
ENDTAB
  0
ENDSEC
  0
SECTION
  2
ENTITIES
0
LINE
8
BLACK
6
CONTINUOUS
10
2.53305
20
-1.41602
11
14.473
21
-1.41602
0
LINE
8
BLACK
6
CONTINUOUS
10
14.473
20
-1.41602
11
14.473
21
-1.41601
0
LINE
8
BLACK
6
CONTINUOUS
10
14.473
20
-1.41601
11
14.473
21
-1.41602
0
LINE
8
BLACK
6
CONTINUOUS
10
14.473
20
-1.41602
11
14.473
21
-1.41602
0
LINE
8
BLACK
6
CONTINUOUS
10
14.473
20
-1.41602
11
14.4732
21
-1.41603
0
LINE
8
BLACK
6
CONTINUOUS
10
14.4732
20
-1.41603
11
14.4734
21
-1.41609
0
LINE
8
BLACK
6
CONTINUOUS
10
14.4734
20
-1.41609
11
14.4735
21
-1.41618
0
LINE
8
BLACK
6
CONTINUOUS
10
14.4735
20
-1.41618
11
14.4737
21
-1.4163
0
LINE
8
BLACK
6
CONTINUOUS
10
14.4737
20
-1.4163
11
14.4738
21
-1.41645
0
LINE
8
BLACK
6
CONTINUOUS
10
14.4738
20
-1.41645
11
14.4739
21
-1.41662
0
LINE
8
BLACK
6
CONTINUOUS
10
14.4739
20
-1.41662
11
14.474
21
-1.41681
0
LINE
8
BLACK
6
CONTINUOUS
10
14.474
20
-1.41681
11
14.474
21
-1.417
0
LINE
8
BLACK
6
CONTINUOUS
10
14.474
20
-1.417
11
14.474
21
-1.41705
0
LINE
8
BLACK
6
CONTINUOUS
10
14.474
20
-1.41705
11
14.4735
21
-8.41695
0
LINE
8
BLACK
6
CONTINUOUS
10
14.4735
20
-8.41695
11
14.4735
21
-8.417
0
LINE
8
BLACK
6
CONTINUOUS
10
14.4735
20
-8.417
11
14.4735
21
-8.41705
0
LINE
8
BLACK
6
CONTINUOUS
10
14.4735
20
-8.41705
11
14.4735
21
-8.41705
0
LINE
8
BLACK
6
CONTINUOUS
10
14.4735
20
-8.41705
11
14.4735
21
-8.4171
0
LINE
8
BLACK
6
CONTINUOUS
10
14.4735
20
-8.4171
11
14.4735
21
-8.41719
0
LINE
8
BLACK
6
CONTINUOUS
10
14.4735
20
-8.41719
11
14.4735
21
-8.41719
0
LINE
8
BLACK
6
CONTINUOUS
10
14.4735
20
-8.41719
11
14.4735
21
-8.41719
0
LINE
8
BLACK
6
CONTINUOUS
10
14.4735
20
-8.41719
11
14.4734
21
-8.41728
0
LINE
8
BLACK
6
CONTINUOUS
10
14.4734
20
-8.41728
11
14.4734
21
-8.41738
0
LINE
8
BLACK
6
CONTINUOUS
10
14.4734
20
-8.41738
11
14.4734
21
-8.41738
0
LINE
8
BLACK
6
CONTINUOUS
10
14.4734
20
-8.41738
11
14.4734
21
-8.41738
0
LINE
8
BLACK
6
CONTINUOUS
10
14.4734
20
-8.41738
11
14.4734
21
-8.41746
0
LINE
8
BLACK
6
CONTINUOUS
10
14.4734
20
-8.41746
11
14.4733
21
-8.41755
0
LINE
8
BLACK
6
CONTINUOUS
10
14.4733
20
-8.41755
11
14.4733
21
-8.41755
0
LINE
8
BLACK
6
CONTINUOUS
10
14.4733
20
-8.41755
11
14.4733
21
-8.41755
0
LINE
8
BLACK
6
CONTINUOUS
10
14.4733
20
-8.41755
11
14.4733
21
-8.41762
0
LINE
8
BLACK
6
CONTINUOUS
10
14.4733
20
-8.41762
11
14.4732
21
-8.4177
0
LINE
8
BLACK
6
CONTINUOUS
10
14.4732
20
-8.4177
11
14.4732
21
-8.4177
0
LINE
8
BLACK
6
CONTINUOUS
10
14.4732
20
-8.4177
11
14.4732
21
-8.4177
0
LINE
8
BLACK
6
CONTINUOUS
10
14.4732
20
-8.4177
11
14.4731
21
-8.41774
0
LINE
8
BLACK
6
CONTINUOUS
10
14.4731
20
-8.41774
11
14.4731
21
-8.41782
0
LINE
8
BLACK
6
CONTINUOUS
10
14.4731
20
-8.41782
11
14.473
21
-8.41782
0
LINE
8
BLACK
6
CONTINUOUS
10
14.473
20
-8.41782
11
14.473
21
-8.41782
0
LINE
8
BLACK
6
CONTINUOUS
10
14.473
20
-8.41782
11
14.473
21
-8.41785
0
LINE
8
BLACK
6
CONTINUOUS
10
14.473
20
-8.41785
11
14.4729
21
-8.41791
0
LINE
8
BLACK
6
CONTINUOUS
10
14.4729
20
-8.41791
11
14.4729
21
-8.41791
0
LINE
8
BLACK
6
CONTINUOUS
10
14.4729
20
-8.41791
11
14.4729
21
-8.41791
0
LINE
8
BLACK
6
CONTINUOUS
10
14.4729
20
-8.41791
11
14.4728
21
-8.41793
0
LINE
8
BLACK
6
CONTINUOUS
10
14.4728
20
-8.41793
11
14.4727
21
-8.41797
0
LINE
8
BLACK
6
CONTINUOUS
10
14.4727
20
-8.41797
11
14.4727
21
-8.41797
0
LINE
8
BLACK
6
CONTINUOUS
10
14.4727
20
-8.41797
11
14.4727
21
-8.41797
0
LINE
8
BLACK
6
CONTINUOUS
10
14.4727
20
-8.41797
11
14.4726
21
-8.41798
0
LINE
8
BLACK
6
CONTINUOUS
10
14.4726
20
-8.41798
11
14.4725
21
-8.41798
0
LINE
8
BLACK
6
CONTINUOUS
10
14.4725
20
-8.41798
11
14.4725
21
-8.41798
0
LINE
8
BLACK
6
CONTINUOUS
10
14.4725
20
-8.41798
11
14.4725
21
-8.41799
0
LINE
8
BLACK
6
CONTINUOUS
10
14.4725
20
-8.41799
11
14.4725
21
-8.41798
0
LINE
8
BLACK
6
CONTINUOUS
10
14.4725
20
-8.41798
11
6.12305
21
-8.42798
0
LINE
8
BLACK
6
CONTINUOUS
10
6.12305
20
-8.42798
11
6.123
21
-8.42799
0
LINE
8
BLACK
6
CONTINUOUS
10
6.123
20
-8.42799
11
6.12289
21
-8.42798
0
LINE
8
BLACK
6
CONTINUOUS
10
6.12289
20
-8.42798
11
6.12281
21
-8.42797
0
LINE
8
BLACK
6
CONTINUOUS
10
6.12281
20
-8.42797
11
6.12281
21
-8.42797
0
LINE
8
BLACK
6
CONTINUOUS
10
6.12281
20
-8.42797
11
6.12281
21
-8.42797
0
LINE
8
BLACK
6
CONTINUOUS
10
6.12281
20
-8.42797
11
6.1227
21
-8.42794
0
LINE
8
BLACK
6
CONTINUOUS
10
6.1227
20
-8.42794
11
6.12262
21
-8.42791
0
LINE
8
BLACK
6
CONTINUOUS
10
6.12262
20
-8.42791
11
6.12262
21
-8.42791
0
LINE
8
BLACK
6
CONTINUOUS
10
6.12262
20
-8.42791
11
6.12262
21
-8.42791
0
LINE
8
BLACK
6
CONTINUOUS
10
6.12262
20
-8.42791
11
6.12253
21
-8.42786
0
LINE
8
BLACK
6
CONTINUOUS
10
6.12253
20
-8.42786
11
6.12245
21
-8.42782
0
LINE
8
BLACK
6
CONTINUOUS
10
6.12245
20
-8.42782
11
6.12245
21
-8.42782
0
LINE
8
BLACK
6
CONTINUOUS
10
6.12245
20
-8.42782
11
6.12245
21
-8.42782
0
LINE
8
BLACK
6
CONTINUOUS
10
6.12245
20
-8.42782
11
6.12237
21
-8.42776
0
LINE
8
BLACK
6
CONTINUOUS
10
6.12237
20
-8.42776
11
6.1223
21
-8.4277
0
LINE
8
BLACK
6
CONTINUOUS
10
6.1223
20
-8.4277
11
6.1223
21
-8.4277
0
LINE
8
BLACK
6
CONTINUOUS
10
6.1223
20
-8.4277
11
6.1223
21
-8.4277
0
LINE
8
BLACK
6
CONTINUOUS
10
6.1223
20
-8.4277
11
6.12225
21
-8.42763
0
LINE
8
BLACK
6
CONTINUOUS
10
6.12225
20
-8.42763
11
6.12218
21
-8.42755
0
LINE
8
BLACK
6
CONTINUOUS
10
6.12218
20
-8.42755
11
6.12218
21
-8.42755
0
LINE
8
BLACK
6
CONTINUOUS
10
6.12218
20
-8.42755
11
6.12218
21
-8.42755
0
LINE
8
BLACK
6
CONTINUOUS
10
6.12218
20
-8.42755
11
6.12214
21
-8.42748
0
LINE
8
BLACK
6
CONTINUOUS
10
6.12214
20
-8.42748
11
6.12209
21
-8.42738
0
LINE
8
BLACK
6
CONTINUOUS
10
6.12209
20
-8.42738
11
6.12209
21
-8.42738
0
LINE
8
BLACK
6
CONTINUOUS
10
6.12209
20
-8.42738
11
6.12209
21
-8.42738
0
LINE
8
BLACK
6
CONTINUOUS
10
6.12209
20
-8.42738
11
6.12206
21
-8.4273
0
LINE
8
BLACK
6
CONTINUOUS
10
6.12206
20
-8.4273
11
6.12203
21
-8.42719
0
LINE
8
BLACK
6
CONTINUOUS
10
6.12203
20
-8.42719
11
6.12203
21
-8.42719
0
LINE
8
BLACK
6
CONTINUOUS
10
6.12203
20
-8.42719
11
6.12203
21
-8.42719
0
LINE
8
BLACK
6
CONTINUOUS
10
6.12203
20
-8.42719
11
6.12202
21
-8.42711
0
LINE
8
BLACK
6
CONTINUOUS
10
6.12202
20
-8.42711
11
6.12201
21
-8.427
0
LINE
8
BLACK
6
CONTINUOUS
10
6.12201
20
-8.427
11
6.12202
21
-8.42695
0
LINE
8
BLACK
6
CONTINUOUS
10
6.12202
20
-8.42695
11
6.12202
21
-6.44695
0
LINE
8
BLACK
6
CONTINUOUS
10
6.12202
20
-6.44695
11
6.12202
21
-6.44695
0
LINE
8
BLACK
6
CONTINUOUS
10
6.12202
20
-6.44695
11
6.12202
21
-6.22798
0
LINE
8
BLACK
6
CONTINUOUS
10
6.12202
20
-6.22798
11
2.53305
21
-6.22798
0
LINE
8
BLACK
6
CONTINUOUS
10
2.53305
20
-6.22798
11
2.533
21
-6.22799
0
LINE
8
BLACK
6
CONTINUOUS
10
2.533
20
-6.22799
11
2.53295
21
-6.22798
0
LINE
8
BLACK
6
CONTINUOUS
10
2.53295
20
-6.22798
11
2.53295
21
-6.22798
0
LINE
8
BLACK
6
CONTINUOUS
10
2.53295
20
-6.22798
11
2.53281
21
-6.22797
0
LINE
8
BLACK
6
CONTINUOUS
10
2.53281
20
-6.22797
11
2.53262
21
-6.22791
0
LINE
8
BLACK
6
CONTINUOUS
10
2.53262
20
-6.22791
11
2.53245
21
-6.22782
0
LINE
8
BLACK
6
CONTINUOUS
10
2.53245
20
-6.22782
11
2.5323
21
-6.2277
0
LINE
8
BLACK
6
CONTINUOUS
10
2.5323
20
-6.2277
11
2.53218
21
-6.22755
0
LINE
8
BLACK
6
CONTINUOUS
10
2.53218
20
-6.22755
11
2.53209
21
-6.22738
0
LINE
8
BLACK
6
CONTINUOUS
10
2.53209
20
-6.22738
11
2.53203
21
-6.22719
0
LINE
8
BLACK
6
CONTINUOUS
10
2.53203
20
-6.22719
11
2.53201
21
-6.227
0
LINE
8
BLACK
6
CONTINUOUS
10
2.53201
20
-6.227
11
2.53202
21
-6.22695
0
LINE
8
BLACK
6
CONTINUOUS
10
2.53202
20
-6.22695
11
2.53202
21
-1.41705
0
LINE
8
BLACK
6
CONTINUOUS
10
2.53202
20
-1.41705
11
2.53201
21
-1.417
0
LINE
8
BLACK
6
CONTINUOUS
10
2.53201
20
-1.417
11
2.53203
21
-1.41681
0
LINE
8
BLACK
6
CONTINUOUS
10
2.53203
20
-1.41681
11
2.53209
21
-1.41662
0
LINE
8
BLACK
6
CONTINUOUS
10
2.53209
20
-1.41662
11
2.53218
21
-1.41645
0
LINE
8
BLACK
6
CONTINUOUS
10
2.53218
20
-1.41645
11
2.5323
21
-1.4163
0
LINE
8
BLACK
6
CONTINUOUS
10
2.5323
20
-1.4163
11
2.53245
21
-1.41618
0
LINE
8
BLACK
6
CONTINUOUS
10
2.53245
20
-1.41618
11
2.53262
21
-1.41609
0
LINE
8
BLACK
6
CONTINUOUS
10
2.53262
20
-1.41609
11
2.53281
21
-1.41603
0
LINE
8
BLACK
6
CONTINUOUS
10
2.53281
20
-1.41603
11
2.53295
21
-1.41602
0
LINE
8
BLACK
6
CONTINUOUS
10
2.53295
20
-1.41602
11
2.533
21
-1.41601
0
LINE
8
BLACK
6
CONTINUOUS
10
2.533
20
-1.41601
11
2.53305
21
-1.41602
0
LINE
8
BLACK
6
CONTINUOUS
10
14.4715
20
-8.41602
11
14.472
21
-1.41798
0
LINE
8
BLACK
6
CONTINUOUS
10
14.472
20
-1.41798
11
2.53398
21
-1.41798
0
LINE
8
BLACK
6
CONTINUOUS
10
2.53398
20
-1.41798
11
2.53398
21
-6.22602
0
LINE
8
BLACK
6
CONTINUOUS
10
2.53398
20
-6.22602
11
6.12295
21
-6.22602
0
LINE
8
BLACK
6
CONTINUOUS
10
6.12295
20
-6.22602
11
6.123
21
-6.22601
0
LINE
8
BLACK
6
CONTINUOUS
10
6.123
20
-6.22601
11
6.12305
21
-6.22602
0
LINE
8
BLACK
6
CONTINUOUS
10
6.12305
20
-6.22602
11
6.12305
21
-6.22602
0
LINE
8
BLACK
6
CONTINUOUS
10
6.12305
20
-6.22602
11
6.12319
21
-6.22603
0
LINE
8
BLACK
6
CONTINUOUS
10
6.12319
20
-6.22603
11
6.12338
21
-6.22609
0
LINE
8
BLACK
6
CONTINUOUS
10
6.12338
20
-6.22609
11
6.12355
21
-6.22618
0
LINE
8
BLACK
6
CONTINUOUS
10
6.12355
20
-6.22618
11
6.1237
21
-6.2263
0
LINE
8
BLACK
6
CONTINUOUS
10
6.1237
20
-6.2263
11
6.12382
21
-6.22645
0
LINE
8
BLACK
6
CONTINUOUS
10
6.12382
20
-6.22645
11
6.12391
21
-6.22662
0
LINE
8
BLACK
6
CONTINUOUS
10
6.12391
20
-6.22662
11
6.12397
21
-6.22681
0
LINE
8
BLACK
6
CONTINUOUS
10
6.12397
20
-6.22681
11
6.12399
21
-6.227
0
LINE
8
BLACK
6
CONTINUOUS
10
6.12399
20
-6.227
11
6.12398
21
-6.22705
0
LINE
8
BLACK
6
CONTINUOUS
10
6.12398
20
-6.22705
11
6.12398
21
-8.42601
0
LINE
8
BLACK
6
CONTINUOUS
10
6.12398
20
-8.42601
11
14.4715
21
-8.41602
0
LINE
8
BLACK
6
CONTINUOUS
10
12.6551
20
-8.31867
11
12.6551
21
-8.31867
0
LINE
8
BLACK
6
CONTINUOUS
10
12.6551
20
-8.31867
11
12.6551
21
-8.31867
0
LINE
8
BLACK
6
CONTINUOUS
10
12.6551
20
-8.31867
11
12.6564
21
-8.32104
0
LINE
8
BLACK
6
CONTINUOUS
10
12.6564
20
-8.32104
11
12.6564
21
-8.32104
0
LINE
8
BLACK
6
CONTINUOUS
10
12.6564
20
-8.32104
11
12.6564
21
-8.32104
0
LINE
8
BLACK
6
CONTINUOUS
10
12.6564
20
-8.32104
11
12.6564
21
-8.32104
0
LINE
8
BLACK
6
CONTINUOUS
10
12.6564
20
-8.32104
11
12.6572
21
-8.32361
0
LINE
8
BLACK
6
CONTINUOUS
10
12.6572
20
-8.32361
11
12.6572
21
-8.32361
0
LINE
8
BLACK
6
CONTINUOUS
10
12.6572
20
-8.32361
11
12.6575
21
-8.32628
0
LINE
8
BLACK
6
CONTINUOUS
10
12.6575
20
-8.32628
11
12.6575
21
-8.32628
0
LINE
8
BLACK
6
CONTINUOUS
10
12.6575
20
-8.32628
11
12.6575
21
-8.32638
0
LINE
8
BLACK
6
CONTINUOUS
10
12.6575
20
-8.32638
11
12.6575
21
-8.37362
0
LINE
8
BLACK
6
CONTINUOUS
10
12.6575
20
-8.37362
11
12.6572
21
-8.3763
0
LINE
8
BLACK
6
CONTINUOUS
10
12.6572
20
-8.3763
11
12.6572
21
-8.3763
0
LINE
8
BLACK
6
CONTINUOUS
10
12.6572
20
-8.3763
11
12.6564
21
-8.37887
0
LINE
8
BLACK
6
CONTINUOUS
10
12.6564
20
-8.37887
11
12.6564
21
-8.37887
0
LINE
8
BLACK
6
CONTINUOUS
10
12.6564
20
-8.37887
11
12.6564
21
-8.37887
0
LINE
8
BLACK
6
CONTINUOUS
10
12.6564
20
-8.37887
11
12.6564
21
-8.37887
0
LINE
8
BLACK
6
CONTINUOUS
10
12.6564
20
-8.37887
11
12.6552
21
-8.38125
0
LINE
8
BLACK
6
CONTINUOUS
10
12.6552
20
-8.38125
11
12.6552
21
-8.38125
0
LINE
8
BLACK
6
CONTINUOUS
10
12.6552
20
-8.38125
11
12.6552
21
-8.38125
0
LINE
8
BLACK
6
CONTINUOUS
10
12.6552
20
-8.38125
11
12.6552
21
-8.38125
0
LINE
8
BLACK
6
CONTINUOUS
10
12.6552
20
-8.38125
11
12.6552
21
-8.38125
0
LINE
8
BLACK
6
CONTINUOUS
10
12.6552
20
-8.38125
11
12.6535
21
-8.38333
0
LINE
8
BLACK
6
CONTINUOUS
10
12.6535
20
-8.38333
11
12.6535
21
-8.38333
0
LINE
8
BLACK
6
CONTINUOUS
10
12.6535
20
-8.38333
11
12.6535
21
-8.38333
0
LINE
8
BLACK
6
CONTINUOUS
10
12.6535
20
-8.38333
11
12.6535
21
-8.38333
0
LINE
8
BLACK
6
CONTINUOUS
10
12.6535
20
-8.38333
11
12.6514
21
-8.38505
0
LINE
8
BLACK
6
CONTINUOUS
10
12.6514
20
-8.38505
11
12.6514
21
-8.38505
0
LINE
8
BLACK
6
CONTINUOUS
10
12.6514
20
-8.38505
11
12.6514
21
-8.38505
0
LINE
8
BLACK
6
CONTINUOUS
10
12.6514
20
-8.38505
11
12.649
21
-8.38633
0
LINE
8
BLACK
6
CONTINUOUS
10
12.649
20
-8.38633
11
12.649
21
-8.38633
0
LINE
8
BLACK
6
CONTINUOUS
10
12.649
20
-8.38633
11
12.6465
21
-8.38712
0
LINE
8
BLACK
6
CONTINUOUS
10
12.6465
20
-8.38712
11
12.6465
21
-8.38712
0
LINE
8
BLACK
6
CONTINUOUS
10
12.6465
20
-8.38712
11
12.6438
21
-8.3874
0
LINE
8
BLACK
6
CONTINUOUS
10
12.6438
20
-8.3874
11
12.6438
21
-8.3874
0
LINE
8
BLACK
6
CONTINUOUS
10
12.6438
20
-8.3874
11
12.6437
21
-8.3874
0
LINE
8
BLACK
6
CONTINUOUS
10
12.6437
20
-8.3874
11
12.6437
21
-8.3874
0
LINE
8
BLACK
6
CONTINUOUS
10
12.6437
20
-8.3874
11
12.641
21
-8.38714
0
LINE
8
BLACK
6
CONTINUOUS
10
12.641
20
-8.38714
11
12.641
21
-8.38714
0
LINE
8
BLACK
6
CONTINUOUS
10
12.641
20
-8.38714
11
12.641
21
-8.38714
0
LINE
8
BLACK
6
CONTINUOUS
10
12.641
20
-8.38714
11
12.6384
21
-8.38636
0
LINE
8
BLACK
6
CONTINUOUS
10
12.6384
20
-8.38636
11
12.6384
21
-8.38636
0
LINE
8
BLACK
6
CONTINUOUS
10
12.6384
20
-8.38636
11
12.6384
21
-8.38636
0
LINE
8
BLACK
6
CONTINUOUS
10
12.6384
20
-8.38636
11
12.6384
21
-8.38636
0
LINE
8
BLACK
6
CONTINUOUS
10
12.6384
20
-8.38636
11
12.6361
21
-8.3851
0
LINE
8
BLACK
6
CONTINUOUS
10
12.6361
20
-8.3851
11
12.6361
21
-8.3851
0
LINE
8
BLACK
6
CONTINUOUS
10
12.6361
20
-8.3851
11
12.6361
21
-8.3851
0
LINE
8
BLACK
6
CONTINUOUS
10
12.6361
20
-8.3851
11
12.6361
21
-8.3851
0
LINE
8
BLACK
6
CONTINUOUS
10
12.6361
20
-8.3851
11
12.634
21
-8.3834
0
LINE
8
BLACK
6
CONTINUOUS
10
12.634
20
-8.3834
11
12.634
21
-8.3834
0
LINE
8
BLACK
6
CONTINUOUS
10
12.634
20
-8.3834
11
12.634
21
-8.3834
0
LINE
8
BLACK
6
CONTINUOUS
10
12.634
20
-8.3834
11
12.634
21
-8.3834
0
LINE
8
BLACK
6
CONTINUOUS
10
12.634
20
-8.3834
11
12.6323
21
-8.38133
0
LINE
8
BLACK
6
CONTINUOUS
10
12.6323
20
-8.38133
11
12.6323
21
-8.38133
0
LINE
8
BLACK
6
CONTINUOUS
10
12.6323
20
-8.38133
11
12.6323
21
-8.38133
0
LINE
8
BLACK
6
CONTINUOUS
10
12.6323
20
-8.38133
11
12.631
21
-8.37896
0
LINE
8
BLACK
6
CONTINUOUS
10
12.631
20
-8.37896
11
12.631
21
-8.37896
0
LINE
8
BLACK
6
CONTINUOUS
10
12.631
20
-8.37896
11
12.631
21
-8.37896
0
LINE
8
BLACK
6
CONTINUOUS
10
12.631
20
-8.37896
11
12.6302
21
-8.37639
0
LINE
8
BLACK
6
CONTINUOUS
10
12.6302
20
-8.37639
11
12.6302
21
-8.37639
0
LINE
8
BLACK
6
CONTINUOUS
10
12.6302
20
-8.37639
11
12.6302
21
-8.37639
0
LINE
8
BLACK
6
CONTINUOUS
10
12.6302
20
-8.37639
11
12.6299
21
-8.37372
0
LINE
8
BLACK
6
CONTINUOUS
10
12.6299
20
-8.37372
11
12.6299
21
-8.37372
0
LINE
8
BLACK
6
CONTINUOUS
10
12.6299
20
-8.37372
11
12.6299
21
-8.37362
0
LINE
8
BLACK
6
CONTINUOUS
10
12.6299
20
-8.37362
11
12.6299
21
-8.37362
0
LINE
8
BLACK
6
CONTINUOUS
10
12.6299
20
-8.37362
11
12.6299
21
-8.37362
0
LINE
8
BLACK
6
CONTINUOUS
10
12.6299
20
-8.37362
11
12.6299
21
-8.32638
0
LINE
8
BLACK
6
CONTINUOUS
10
12.6299
20
-8.32638
11
12.6299
21
-8.32638
0
LINE
8
BLACK
6
CONTINUOUS
10
12.6299
20
-8.32638
11
12.6302
21
-8.3237
0
LINE
8
BLACK
6
CONTINUOUS
10
12.6302
20
-8.3237
11
12.6302
21
-8.3237
0
LINE
8
BLACK
6
CONTINUOUS
10
12.6302
20
-8.3237
11
12.6302
21
-8.3237
0
LINE
8
BLACK
6
CONTINUOUS
10
12.6302
20
-8.3237
11
12.6302
21
-8.3237
0
LINE
8
BLACK
6
CONTINUOUS
10
12.6302
20
-8.3237
11
12.631
21
-8.32113
0
LINE
8
BLACK
6
CONTINUOUS
10
12.631
20
-8.32113
11
12.631
21
-8.32113
0
LINE
8
BLACK
6
CONTINUOUS
10
12.631
20
-8.32113
11
12.631
21
-8.32113
0
LINE
8
BLACK
6
CONTINUOUS
10
12.631
20
-8.32113
11
12.6322
21
-8.31875
0
LINE
8
BLACK
6
CONTINUOUS
10
12.6322
20
-8.31875
11
12.6322
21
-8.31875
0
LINE
8
BLACK
6
CONTINUOUS
10
12.6322
20
-8.31875
11
12.6322
21
-8.31875
0
LINE
8
BLACK
6
CONTINUOUS
10
12.6322
20
-8.31875
11
12.6322
21
-8.31875
0
LINE
8
BLACK
6
CONTINUOUS
10
12.6322
20
-8.31875
11
12.6339
21
-8.31667
0
LINE
8
BLACK
6
CONTINUOUS
10
12.6339
20
-8.31667
11
12.6339
21
-8.31667
0
LINE
8
BLACK
6
CONTINUOUS
10
12.6339
20
-8.31667
11
12.636
21
-8.31495
0
LINE
8
BLACK
6
CONTINUOUS
10
12.636
20
-8.31495
11
12.636
21
-8.31495
0
LINE
8
BLACK
6
CONTINUOUS
10
12.636
20
-8.31495
11
12.636
21
-8.31495
0
LINE
8
BLACK
6
CONTINUOUS
10
12.636
20
-8.31495
11
12.6384
21
-8.31367
0
LINE
8
BLACK
6
CONTINUOUS
10
12.6384
20
-8.31367
11
12.6384
21
-8.31367
0
LINE
8
BLACK
6
CONTINUOUS
10
12.6384
20
-8.31367
11
12.6384
21
-8.31367
0
LINE
8
BLACK
6
CONTINUOUS
10
12.6384
20
-8.31367
11
12.6384
21
-8.31367
0
LINE
8
BLACK
6
CONTINUOUS
10
12.6384
20
-8.31367
11
12.6409
21
-8.31288
0
LINE
8
BLACK
6
CONTINUOUS
10
12.6409
20
-8.31288
11
12.6409
21
-8.31288
0
LINE
8
BLACK
6
CONTINUOUS
10
12.6409
20
-8.31288
11
12.6436
21
-8.3126
0
LINE
8
BLACK
6
CONTINUOUS
10
12.6436
20
-8.3126
11
12.6436
21
-8.3126
0
LINE
8
BLACK
6
CONTINUOUS
10
12.6436
20
-8.3126
11
12.6437
21
-8.3126
0
LINE
8
BLACK
6
CONTINUOUS
10
12.6437
20
-8.3126
11
12.6437
21
-8.3126
0
LINE
8
BLACK
6
CONTINUOUS
10
12.6437
20
-8.3126
11
12.6464
21
-8.31286
0
LINE
8
BLACK
6
CONTINUOUS
10
12.6464
20
-8.31286
11
12.6464
21
-8.31286
0
LINE
8
BLACK
6
CONTINUOUS
10
12.6464
20
-8.31286
11
12.6464
21
-8.31286
0
LINE
8
BLACK
6
CONTINUOUS
10
12.6464
20
-8.31286
11
12.6464
21
-8.31286
0
LINE
8
BLACK
6
CONTINUOUS
10
12.6464
20
-8.31286
11
12.649
21
-8.31364
0
LINE
8
BLACK
6
CONTINUOUS
10
12.649
20
-8.31364
11
12.649
21
-8.31364
0
LINE
8
BLACK
6
CONTINUOUS
10
12.649
20
-8.31364
11
12.649
21
-8.31364
0
LINE
8
BLACK
6
CONTINUOUS
10
12.649
20
-8.31364
11
12.6513
21
-8.3149
0
LINE
8
BLACK
6
CONTINUOUS
10
12.6513
20
-8.3149
11
12.6513
21
-8.3149
0
LINE
8
BLACK
6
CONTINUOUS
10
12.6513
20
-8.3149
11
12.6513
21
-8.3149
0
LINE
8
BLACK
6
CONTINUOUS
10
12.6513
20
-8.3149
11
12.6513
21
-8.3149
0
LINE
8
BLACK
6
CONTINUOUS
10
12.6513
20
-8.3149
11
12.6534
21
-8.3166
0
LINE
8
BLACK
6
CONTINUOUS
10
12.6534
20
-8.3166
11
12.6534
21
-8.3166
0
LINE
8
BLACK
6
CONTINUOUS
10
12.6534
20
-8.3166
11
12.6551
21
-8.31867
0
LINE
8
BLACK
6
CONTINUOUS
10
12.6299
20
-8.37372
11
12.6302
21
-8.37639
0
LINE
8
BLACK
6
CONTINUOUS
10
12.6302
20
-8.37639
11
12.631
21
-8.37896
0
LINE
8
BLACK
6
CONTINUOUS
10
12.631
20
-8.37896
11
12.6323
21
-8.38133
0
LINE
8
BLACK
6
CONTINUOUS
10
12.6323
20
-8.38133
11
12.634
21
-8.3834
0
LINE
8
BLACK
6
CONTINUOUS
10
12.634
20
-8.3834
11
12.6361
21
-8.3851
0
LINE
8
BLACK
6
CONTINUOUS
10
12.6361
20
-8.3851
11
12.6385
21
-8.38636
0
LINE
8
BLACK
6
CONTINUOUS
10
12.6385
20
-8.38636
11
12.641
21
-8.38714
0
LINE
8
BLACK
6
CONTINUOUS
10
12.641
20
-8.38714
11
12.6437
21
-8.3874
0
LINE
8
BLACK
6
CONTINUOUS
10
12.6437
20
-8.3874
11
12.6438
21
-8.3874
0
LINE
8
BLACK
6
CONTINUOUS
10
12.6438
20
-8.3874
11
12.6465
21
-8.38712
0
LINE
8
BLACK
6
CONTINUOUS
10
12.6465
20
-8.38712
11
12.649
21
-8.38632
0
LINE
8
BLACK
6
CONTINUOUS
10
12.649
20
-8.38632
11
12.6514
21
-8.38504
0
LINE
8
BLACK
6
CONTINUOUS
10
12.6514
20
-8.38504
11
12.6535
21
-8.38333
0
LINE
8
BLACK
6
CONTINUOUS
10
12.6535
20
-8.38333
11
12.6552
21
-8.38125
0
LINE
8
BLACK
6
CONTINUOUS
10
12.6552
20
-8.38125
11
12.6564
21
-8.37887
0
LINE
8
BLACK
6
CONTINUOUS
10
12.6564
20
-8.37887
11
12.6572
21
-8.3763
0
LINE
8
BLACK
6
CONTINUOUS
10
12.6572
20
-8.3763
11
12.6575
21
-8.37362
0
LINE
8
BLACK
6
CONTINUOUS
10
12.6575
20
-8.37362
11
12.6575
21
-8.37362
0
LINE
8
BLACK
6
CONTINUOUS
10
12.6575
20
-8.37362
11
12.6575
21
-8.37362
0
LINE
8
BLACK
6
CONTINUOUS
10
12.6575
20
-8.37362
11
12.6575
21
-8.32638
0
LINE
8
BLACK
6
CONTINUOUS
10
12.6575
20
-8.32638
11
12.6575
21
-8.32628
0
LINE
8
BLACK
6
CONTINUOUS
10
12.6575
20
-8.32628
11
12.6572
21
-8.32361
0
LINE
8
BLACK
6
CONTINUOUS
10
12.6572
20
-8.32361
11
12.6564
21
-8.32104
0
LINE
8
BLACK
6
CONTINUOUS
10
12.6564
20
-8.32104
11
12.6551
21
-8.31867
0
LINE
8
BLACK
6
CONTINUOUS
10
12.6551
20
-8.31867
11
12.6534
21
-8.3166
0
LINE
8
BLACK
6
CONTINUOUS
10
12.6534
20
-8.3166
11
12.6513
21
-8.3149
0
LINE
8
BLACK
6
CONTINUOUS
10
12.6513
20
-8.3149
11
12.649
21
-8.31364
0
LINE
8
BLACK
6
CONTINUOUS
10
12.649
20
-8.31364
11
12.6464
21
-8.31286
0
LINE
8
BLACK
6
CONTINUOUS
10
12.6464
20
-8.31286
11
12.6437
21
-8.3126
0
LINE
8
BLACK
6
CONTINUOUS
10
12.6437
20
-8.3126
11
12.6436
21
-8.3126
0
LINE
8
BLACK
6
CONTINUOUS
10
12.6436
20
-8.3126
11
12.6409
21
-8.31288
0
LINE
8
BLACK
6
CONTINUOUS
10
12.6409
20
-8.31288
11
12.6384
21
-8.31368
0
LINE
8
BLACK
6
CONTINUOUS
10
12.6384
20
-8.31368
11
12.636
21
-8.31496
0
LINE
8
BLACK
6
CONTINUOUS
10
12.636
20
-8.31496
11
12.6339
21
-8.31667
0
LINE
8
BLACK
6
CONTINUOUS
10
12.6339
20
-8.31667
11
12.6322
21
-8.31875
0
LINE
8
BLACK
6
CONTINUOUS
10
12.6322
20
-8.31875
11
12.631
21
-8.32113
0
LINE
8
BLACK
6
CONTINUOUS
10
12.631
20
-8.32113
11
12.6302
21
-8.3237
0
LINE
8
BLACK
6
CONTINUOUS
10
12.6302
20
-8.3237
11
12.6299
21
-8.32638
0
LINE
8
BLACK
6
CONTINUOUS
10
12.6299
20
-8.32638
11
12.6299
21
-8.37362
0
LINE
8
BLACK
6
CONTINUOUS
10
12.6299
20
-8.37362
11
12.6299
21
-8.37372
0
LINE
8
BLACK
6
CONTINUOUS
10
11.8677
20
-8.31867
11
11.8677
21
-8.31867
0
LINE
8
BLACK
6
CONTINUOUS
10
11.8677
20
-8.31867
11
11.8677
21
-8.31867
0
LINE
8
BLACK
6
CONTINUOUS
10
11.8677
20
-8.31867
11
11.869
21
-8.32104
0
LINE
8
BLACK
6
CONTINUOUS
10
11.869
20
-8.32104
11
11.869
21
-8.32104
0
LINE
8
BLACK
6
CONTINUOUS
10
11.869
20
-8.32104
11
11.869
21
-8.32104
0
LINE
8
BLACK
6
CONTINUOUS
10
11.869
20
-8.32104
11
11.869
21
-8.32104
0
LINE
8
BLACK
6
CONTINUOUS
10
11.869
20
-8.32104
11
11.8698
21
-8.32361
0
LINE
8
BLACK
6
CONTINUOUS
10
11.8698
20
-8.32361
11
11.8698
21
-8.32361
0
LINE
8
BLACK
6
CONTINUOUS
10
11.8698
20
-8.32361
11
11.8701
21
-8.32628
0
LINE
8
BLACK
6
CONTINUOUS
10
11.8701
20
-8.32628
11
11.8701
21
-8.32628
0
LINE
8
BLACK
6
CONTINUOUS
10
11.8701
20
-8.32628
11
11.8701
21
-8.32638
0
LINE
8
BLACK
6
CONTINUOUS
10
11.8701
20
-8.32638
11
11.8701
21
-8.37362
0
LINE
8
BLACK
6
CONTINUOUS
10
11.8701
20
-8.37362
11
11.8698
21
-8.3763
0
LINE
8
BLACK
6
CONTINUOUS
10
11.8698
20
-8.3763
11
11.8698
21
-8.3763
0
LINE
8
BLACK
6
CONTINUOUS
10
11.8698
20
-8.3763
11
11.869
21
-8.37887
0
LINE
8
BLACK
6
CONTINUOUS
10
11.869
20
-8.37887
11
11.869
21
-8.37887
0
LINE
8
BLACK
6
CONTINUOUS
10
11.869
20
-8.37887
11
11.869
21
-8.37887
0
LINE
8
BLACK
6
CONTINUOUS
10
11.869
20
-8.37887
11
11.869
21
-8.37887
0
LINE
8
BLACK
6
CONTINUOUS
10
11.869
20
-8.37887
11
11.8678
21
-8.38125
0
LINE
8
BLACK
6
CONTINUOUS
10
11.8678
20
-8.38125
11
11.8678
21
-8.38125
0
LINE
8
BLACK
6
CONTINUOUS
10
11.8678
20
-8.38125
11
11.8678
21
-8.38125
0
LINE
8
BLACK
6
CONTINUOUS
10
11.8678
20
-8.38125
11
11.8678
21
-8.38125
0
LINE
8
BLACK
6
CONTINUOUS
10
11.8678
20
-8.38125
11
11.8678
21
-8.38125
0
LINE
8
BLACK
6
CONTINUOUS
10
11.8678
20
-8.38125
11
11.8661
21
-8.38333
0
LINE
8
BLACK
6
CONTINUOUS
10
11.8661
20
-8.38333
11
11.8661
21
-8.38333
0
LINE
8
BLACK
6
CONTINUOUS
10
11.8661
20
-8.38333
11
11.8661
21
-8.38333
0
LINE
8
BLACK
6
CONTINUOUS
10
11.8661
20
-8.38333
11
11.8661
21
-8.38333
0
LINE
8
BLACK
6
CONTINUOUS
10
11.8661
20
-8.38333
11
11.864
21
-8.38505
0
LINE
8
BLACK
6
CONTINUOUS
10
11.864
20
-8.38505
11
11.864
21
-8.38505
0
LINE
8
BLACK
6
CONTINUOUS
10
11.864
20
-8.38505
11
11.864
21
-8.38505
0
LINE
8
BLACK
6
CONTINUOUS
10
11.864
20
-8.38505
11
11.8616
21
-8.38633
0
LINE
8
BLACK
6
CONTINUOUS
10
11.8616
20
-8.38633
11
11.8616
21
-8.38633
0
LINE
8
BLACK
6
CONTINUOUS
10
11.8616
20
-8.38633
11
11.8591
21
-8.38712
0
LINE
8
BLACK
6
CONTINUOUS
10
11.8591
20
-8.38712
11
11.8591
21
-8.38712
0
LINE
8
BLACK
6
CONTINUOUS
10
11.8591
20
-8.38712
11
11.8564
21
-8.3874
0
LINE
8
BLACK
6
CONTINUOUS
10
11.8564
20
-8.3874
11
11.8564
21
-8.3874
0
LINE
8
BLACK
6
CONTINUOUS
10
11.8564
20
-8.3874
11
11.8563
21
-8.3874
0
LINE
8
BLACK
6
CONTINUOUS
10
11.8563
20
-8.3874
11
11.8563
21
-8.3874
0
LINE
8
BLACK
6
CONTINUOUS
10
11.8563
20
-8.3874
11
11.8536
21
-8.38714
0
LINE
8
BLACK
6
CONTINUOUS
10
11.8536
20
-8.38714
11
11.8536
21
-8.38714
0
LINE
8
BLACK
6
CONTINUOUS
10
11.8536
20
-8.38714
11
11.8536
21
-8.38714
0
LINE
8
BLACK
6
CONTINUOUS
10
11.8536
20
-8.38714
11
11.851
21
-8.38636
0
LINE
8
BLACK
6
CONTINUOUS
10
11.851
20
-8.38636
11
11.851
21
-8.38636
0
LINE
8
BLACK
6
CONTINUOUS
10
11.851
20
-8.38636
11
11.851
21
-8.38636
0
LINE
8
BLACK
6
CONTINUOUS
10
11.851
20
-8.38636
11
11.851
21
-8.38636
0
LINE
8
BLACK
6
CONTINUOUS
10
11.851
20
-8.38636
11
11.8487
21
-8.3851
0
LINE
8
BLACK
6
CONTINUOUS
10
11.8487
20
-8.3851
11
11.8487
21
-8.3851
0
LINE
8
BLACK
6
CONTINUOUS
10
11.8487
20
-8.3851
11
11.8487
21
-8.3851
0
LINE
8
BLACK
6
CONTINUOUS
10
11.8487
20
-8.3851
11
11.8487
21
-8.3851
0
LINE
8
BLACK
6
CONTINUOUS
10
11.8487
20
-8.3851
11
11.8466
21
-8.3834
0
LINE
8
BLACK
6
CONTINUOUS
10
11.8466
20
-8.3834
11
11.8466
21
-8.3834
0
LINE
8
BLACK
6
CONTINUOUS
10
11.8466
20
-8.3834
11
11.8466
21
-8.3834
0
LINE
8
BLACK
6
CONTINUOUS
10
11.8466
20
-8.3834
11
11.8466
21
-8.3834
0
LINE
8
BLACK
6
CONTINUOUS
10
11.8466
20
-8.3834
11
11.8449
21
-8.38133
0
LINE
8
BLACK
6
CONTINUOUS
10
11.8449
20
-8.38133
11
11.8449
21
-8.38133
0
LINE
8
BLACK
6
CONTINUOUS
10
11.8449
20
-8.38133
11
11.8449
21
-8.38133
0
LINE
8
BLACK
6
CONTINUOUS
10
11.8449
20
-8.38133
11
11.8436
21
-8.37896
0
LINE
8
BLACK
6
CONTINUOUS
10
11.8436
20
-8.37896
11
11.8436
21
-8.37896
0
LINE
8
BLACK
6
CONTINUOUS
10
11.8436
20
-8.37896
11
11.8436
21
-8.37896
0
LINE
8
BLACK
6
CONTINUOUS
10
11.8436
20
-8.37896
11
11.8428
21
-8.37639
0
LINE
8
BLACK
6
CONTINUOUS
10
11.8428
20
-8.37639
11
11.8428
21
-8.37639
0
LINE
8
BLACK
6
CONTINUOUS
10
11.8428
20
-8.37639
11
11.8428
21
-8.37639
0
LINE
8
BLACK
6
CONTINUOUS
10
11.8428
20
-8.37639
11
11.8425
21
-8.37372
0
LINE
8
BLACK
6
CONTINUOUS
10
11.8425
20
-8.37372
11
11.8425
21
-8.37372
0
LINE
8
BLACK
6
CONTINUOUS
10
11.8425
20
-8.37372
11
11.8425
21
-8.37362
0
LINE
8
BLACK
6
CONTINUOUS
10
11.8425
20
-8.37362
11
11.8425
21
-8.37362
0
LINE
8
BLACK
6
CONTINUOUS
10
11.8425
20
-8.37362
11
11.8425
21
-8.37362
0
LINE
8
BLACK
6
CONTINUOUS
10
11.8425
20
-8.37362
11
11.8425
21
-8.32638
0
LINE
8
BLACK
6
CONTINUOUS
10
11.8425
20
-8.32638
11
11.8425
21
-8.32638
0
LINE
8
BLACK
6
CONTINUOUS
10
11.8425
20
-8.32638
11
11.8428
21
-8.3237
0
LINE
8
BLACK
6
CONTINUOUS
10
11.8428
20
-8.3237
11
11.8428
21
-8.3237
0
LINE
8
BLACK
6
CONTINUOUS
10
11.8428
20
-8.3237
11
11.8428
21
-8.3237
0
LINE
8
BLACK
6
CONTINUOUS
10
11.8428
20
-8.3237
11
11.8428
21
-8.3237
0
LINE
8
BLACK
6
CONTINUOUS
10
11.8428
20
-8.3237
11
11.8436
21
-8.32113
0
LINE
8
BLACK
6
CONTINUOUS
10
11.8436
20
-8.32113
11
11.8436
21
-8.32113
0
LINE
8
BLACK
6
CONTINUOUS
10
11.8436
20
-8.32113
11
11.8436
21
-8.32113
0
LINE
8
BLACK
6
CONTINUOUS
10
11.8436
20
-8.32113
11
11.8448
21
-8.31875
0
LINE
8
BLACK
6
CONTINUOUS
10
11.8448
20
-8.31875
11
11.8448
21
-8.31875
0
LINE
8
BLACK
6
CONTINUOUS
10
11.8448
20
-8.31875
11
11.8448
21
-8.31875
0
LINE
8
BLACK
6
CONTINUOUS
10
11.8448
20
-8.31875
11
11.8448
21
-8.31875
0
LINE
8
BLACK
6
CONTINUOUS
10
11.8448
20
-8.31875
11
11.8465
21
-8.31667
0
LINE
8
BLACK
6
CONTINUOUS
10
11.8465
20
-8.31667
11
11.8465
21
-8.31667
0
LINE
8
BLACK
6
CONTINUOUS
10
11.8465
20
-8.31667
11
11.8486
21
-8.31495
0
LINE
8
BLACK
6
CONTINUOUS
10
11.8486
20
-8.31495
11
11.8486
21
-8.31495
0
LINE
8
BLACK
6
CONTINUOUS
10
11.8486
20
-8.31495
11
11.8486
21
-8.31495
0
LINE
8
BLACK
6
CONTINUOUS
10
11.8486
20
-8.31495
11
11.851
21
-8.31367
0
LINE
8
BLACK
6
CONTINUOUS
10
11.851
20
-8.31367
11
11.851
21
-8.31367
0
LINE
8
BLACK
6
CONTINUOUS
10
11.851
20
-8.31367
11
11.851
21
-8.31367
0
LINE
8
BLACK
6
CONTINUOUS
10
11.851
20
-8.31367
11
11.851
21
-8.31367
0
LINE
8
BLACK
6
CONTINUOUS
10
11.851
20
-8.31367
11
11.8535
21
-8.31288
0
LINE
8
BLACK
6
CONTINUOUS
10
11.8535
20
-8.31288
11
11.8535
21
-8.31288
0
LINE
8
BLACK
6
CONTINUOUS
10
11.8535
20
-8.31288
11
11.8562
21
-8.3126
0
LINE
8
BLACK
6
CONTINUOUS
10
11.8562
20
-8.3126
11
11.8562
21
-8.3126
0
LINE
8
BLACK
6
CONTINUOUS
10
11.8562
20
-8.3126
11
11.8563
21
-8.3126
0
LINE
8
BLACK
6
CONTINUOUS
10
11.8563
20
-8.3126
11
11.8563
21
-8.3126
0
LINE
8
BLACK
6
CONTINUOUS
10
11.8563
20
-8.3126
11
11.859
21
-8.31286
0
LINE
8
BLACK
6
CONTINUOUS
10
11.859
20
-8.31286
11
11.859
21
-8.31286
0
LINE
8
BLACK
6
CONTINUOUS
10
11.859
20
-8.31286
11
11.859
21
-8.31286
0
LINE
8
BLACK
6
CONTINUOUS
10
11.859
20
-8.31286
11
11.859
21
-8.31286
0
LINE
8
BLACK
6
CONTINUOUS
10
11.859
20
-8.31286
11
11.8616
21
-8.31364
0
LINE
8
BLACK
6
CONTINUOUS
10
11.8616
20
-8.31364
11
11.8616
21
-8.31364
0
LINE
8
BLACK
6
CONTINUOUS
10
11.8616
20
-8.31364
11
11.8616
21
-8.31364
0
LINE
8
BLACK
6
CONTINUOUS
10
11.8616
20
-8.31364
11
11.8639
21
-8.3149
0
LINE
8
BLACK
6
CONTINUOUS
10
11.8639
20
-8.3149
11
11.8639
21
-8.3149
0
LINE
8
BLACK
6
CONTINUOUS
10
11.8639
20
-8.3149
11
11.8639
21
-8.3149
0
LINE
8
BLACK
6
CONTINUOUS
10
11.8639
20
-8.3149
11
11.8639
21
-8.3149
0
LINE
8
BLACK
6
CONTINUOUS
10
11.8639
20
-8.3149
11
11.866
21
-8.3166
0
LINE
8
BLACK
6
CONTINUOUS
10
11.866
20
-8.3166
11
11.866
21
-8.3166
0
LINE
8
BLACK
6
CONTINUOUS
10
11.866
20
-8.3166
11
11.8677
21
-8.31867
0
LINE
8
BLACK
6
CONTINUOUS
10
11.8425
20
-8.37372
11
11.8428
21
-8.37639
0
LINE
8
BLACK
6
CONTINUOUS
10
11.8428
20
-8.37639
11
11.8436
21
-8.37896
0
LINE
8
BLACK
6
CONTINUOUS
10
11.8436
20
-8.37896
11
11.8449
21
-8.38133
0
LINE
8
BLACK
6
CONTINUOUS
10
11.8449
20
-8.38133
11
11.8466
21
-8.3834
0
LINE
8
BLACK
6
CONTINUOUS
10
11.8466
20
-8.3834
11
11.8487
21
-8.3851
0
LINE
8
BLACK
6
CONTINUOUS
10
11.8487
20
-8.3851
11
11.851
21
-8.38636
0
LINE
8
BLACK
6
CONTINUOUS
10
11.851
20
-8.38636
11
11.8536
21
-8.38714
0
LINE
8
BLACK
6
CONTINUOUS
10
11.8536
20
-8.38714
11
11.8563
21
-8.3874
0
LINE
8
BLACK
6
CONTINUOUS
10
11.8563
20
-8.3874
11
11.8564
21
-8.3874
0
LINE
8
BLACK
6
CONTINUOUS
10
11.8564
20
-8.3874
11
11.8591
21
-8.38712
0
LINE
8
BLACK
6
CONTINUOUS
10
11.8591
20
-8.38712
11
11.8616
21
-8.38632
0
LINE
8
BLACK
6
CONTINUOUS
10
11.8616
20
-8.38632
11
11.864
21
-8.38504
0
LINE
8
BLACK
6
CONTINUOUS
10
11.864
20
-8.38504
11
11.8661
21
-8.38333
0
LINE
8
BLACK
6
CONTINUOUS
10
11.8661
20
-8.38333
11
11.8678
21
-8.38125
0
LINE
8
BLACK
6
CONTINUOUS
10
11.8678
20
-8.38125
11
11.869
21
-8.37887
0
LINE
8
BLACK
6
CONTINUOUS
10
11.869
20
-8.37887
11
11.8698
21
-8.3763
0
LINE
8
BLACK
6
CONTINUOUS
10
11.8698
20
-8.3763
11
11.8701
21
-8.37362
0
LINE
8
BLACK
6
CONTINUOUS
10
11.8701
20
-8.37362
11
11.8701
21
-8.37362
0
LINE
8
BLACK
6
CONTINUOUS
10
11.8701
20
-8.37362
11
11.8701
21
-8.37362
0
LINE
8
BLACK
6
CONTINUOUS
10
11.8701
20
-8.37362
11
11.8701
21
-8.32638
0
LINE
8
BLACK
6
CONTINUOUS
10
11.8701
20
-8.32638
11
11.8701
21
-8.32628
0
LINE
8
BLACK
6
CONTINUOUS
10
11.8701
20
-8.32628
11
11.8698
21
-8.32361
0
LINE
8
BLACK
6
CONTINUOUS
10
11.8698
20
-8.32361
11
11.869
21
-8.32104
0
LINE
8
BLACK
6
CONTINUOUS
10
11.869
20
-8.32104
11
11.8677
21
-8.31867
0
LINE
8
BLACK
6
CONTINUOUS
10
11.8677
20
-8.31867
11
11.866
21
-8.3166
0
LINE
8
BLACK
6
CONTINUOUS
10
11.866
20
-8.3166
11
11.8639
21
-8.3149
0
LINE
8
BLACK
6
CONTINUOUS
10
11.8639
20
-8.3149
11
11.8615
21
-8.31364
0
LINE
8
BLACK
6
CONTINUOUS
10
11.8615
20
-8.31364
11
11.859
21
-8.31286
0
LINE
8
BLACK
6
CONTINUOUS
10
11.859
20
-8.31286
11
11.8563
21
-8.3126
0
LINE
8
BLACK
6
CONTINUOUS
10
11.8563
20
-8.3126
11
11.8562
21
-8.3126
0
LINE
8
BLACK
6
CONTINUOUS
10
11.8562
20
-8.3126
11
11.8535
21
-8.31288
0
LINE
8
BLACK
6
CONTINUOUS
10
11.8535
20
-8.31288
11
11.851
21
-8.31368
0
LINE
8
BLACK
6
CONTINUOUS
10
11.851
20
-8.31368
11
11.8486
21
-8.31496
0
LINE
8
BLACK
6
CONTINUOUS
10
11.8486
20
-8.31496
11
11.8465
21
-8.31667
0
LINE
8
BLACK
6
CONTINUOUS
10
11.8465
20
-8.31667
11
11.8448
21
-8.31875
0
LINE
8
BLACK
6
CONTINUOUS
10
11.8448
20
-8.31875
11
11.8436
21
-8.32113
0
LINE
8
BLACK
6
CONTINUOUS
10
11.8436
20
-8.32113
11
11.8428
21
-8.3237
0
LINE
8
BLACK
6
CONTINUOUS
10
11.8428
20
-8.3237
11
11.8425
21
-8.32638
0
LINE
8
BLACK
6
CONTINUOUS
10
11.8425
20
-8.32638
11
11.8425
21
-8.37362
0
LINE
8
BLACK
6
CONTINUOUS
10
11.8425
20
-8.37362
11
11.8425
21
-8.37372
0
LINE
8
BLACK
6
CONTINUOUS
10
12.3677
20
-8.31867
11
12.3677
21
-8.31867
0
LINE
8
BLACK
6
CONTINUOUS
10
12.3677
20
-8.31867
11
12.3677
21
-8.31867
0
LINE
8
BLACK
6
CONTINUOUS
10
12.3677
20
-8.31867
11
12.369
21
-8.32104
0
LINE
8
BLACK
6
CONTINUOUS
10
12.369
20
-8.32104
11
12.369
21
-8.32104
0
LINE
8
BLACK
6
CONTINUOUS
10
12.369
20
-8.32104
11
12.369
21
-8.32104
0
LINE
8
BLACK
6
CONTINUOUS
10
12.369
20
-8.32104
11
12.369
21
-8.32104
0
LINE
8
BLACK
6
CONTINUOUS
10
12.369
20
-8.32104
11
12.3698
21
-8.32361
0
LINE
8
BLACK
6
CONTINUOUS
10
12.3698
20
-8.32361
11
12.3698
21
-8.32361
0
LINE
8
BLACK
6
CONTINUOUS
10
12.3698
20
-8.32361
11
12.3701
21
-8.32628
0
LINE
8
BLACK
6
CONTINUOUS
10
12.3701
20
-8.32628
11
12.3701
21
-8.32628
0
LINE
8
BLACK
6
CONTINUOUS
10
12.3701
20
-8.32628
11
12.3701
21
-8.32638
0
LINE
8
BLACK
6
CONTINUOUS
10
12.3701
20
-8.32638
11
12.3701
21
-8.37362
0
LINE
8
BLACK
6
CONTINUOUS
10
12.3701
20
-8.37362
11
12.3698
21
-8.3763
0
LINE
8
BLACK
6
CONTINUOUS
10
12.3698
20
-8.3763
11
12.3698
21
-8.3763
0
LINE
8
BLACK
6
CONTINUOUS
10
12.3698
20
-8.3763
11
12.369
21
-8.37887
0
LINE
8
BLACK
6
CONTINUOUS
10
12.369
20
-8.37887
11
12.369
21
-8.37887
0
LINE
8
BLACK
6
CONTINUOUS
10
12.369
20
-8.37887
11
12.369
21
-8.37887
0
LINE
8
BLACK
6
CONTINUOUS
10
12.369
20
-8.37887
11
12.369
21
-8.37887
0
LINE
8
BLACK
6
CONTINUOUS
10
12.369
20
-8.37887
11
12.3678
21
-8.38125
0
LINE
8
BLACK
6
CONTINUOUS
10
12.3678
20
-8.38125
11
12.3678
21
-8.38125
0
LINE
8
BLACK
6
CONTINUOUS
10
12.3678
20
-8.38125
11
12.3678
21
-8.38125
0
LINE
8
BLACK
6
CONTINUOUS
10
12.3678
20
-8.38125
11
12.3678
21
-8.38125
0
LINE
8
BLACK
6
CONTINUOUS
10
12.3678
20
-8.38125
11
12.3678
21
-8.38125
0
LINE
8
BLACK
6
CONTINUOUS
10
12.3678
20
-8.38125
11
12.3661
21
-8.38333
0
LINE
8
BLACK
6
CONTINUOUS
10
12.3661
20
-8.38333
11
12.3661
21
-8.38333
0
LINE
8
BLACK
6
CONTINUOUS
10
12.3661
20
-8.38333
11
12.3661
21
-8.38333
0
LINE
8
BLACK
6
CONTINUOUS
10
12.3661
20
-8.38333
11
12.3661
21
-8.38333
0
LINE
8
BLACK
6
CONTINUOUS
10
12.3661
20
-8.38333
11
12.364
21
-8.38505
0
LINE
8
BLACK
6
CONTINUOUS
10
12.364
20
-8.38505
11
12.364
21
-8.38505
0
LINE
8
BLACK
6
CONTINUOUS
10
12.364
20
-8.38505
11
12.364
21
-8.38505
0
LINE
8
BLACK
6
CONTINUOUS
10
12.364
20
-8.38505
11
12.3616
21
-8.38633
0
LINE
8
BLACK
6
CONTINUOUS
10
12.3616
20
-8.38633
11
12.3616
21
-8.38633
0
LINE
8
BLACK
6
CONTINUOUS
10
12.3616
20
-8.38633
11
12.3591
21
-8.38712
0
LINE
8
BLACK
6
CONTINUOUS
10
12.3591
20
-8.38712
11
12.3591
21
-8.38712
0
LINE
8
BLACK
6
CONTINUOUS
10
12.3591
20
-8.38712
11
12.3564
21
-8.3874
0
LINE
8
BLACK
6
CONTINUOUS
10
12.3564
20
-8.3874
11
12.3564
21
-8.3874
0
LINE
8
BLACK
6
CONTINUOUS
10
12.3564
20
-8.3874
11
12.3563
21
-8.3874
0
LINE
8
BLACK
6
CONTINUOUS
10
12.3563
20
-8.3874
11
12.3563
21
-8.3874
0
LINE
8
BLACK
6
CONTINUOUS
10
12.3563
20
-8.3874
11
12.3536
21
-8.38714
0
LINE
8
BLACK
6
CONTINUOUS
10
12.3536
20
-8.38714
11
12.3536
21
-8.38714
0
LINE
8
BLACK
6
CONTINUOUS
10
12.3536
20
-8.38714
11
12.3536
21
-8.38714
0
LINE
8
BLACK
6
CONTINUOUS
10
12.3536
20
-8.38714
11
12.351
21
-8.38636
0
LINE
8
BLACK
6
CONTINUOUS
10
12.351
20
-8.38636
11
12.351
21
-8.38636
0
LINE
8
BLACK
6
CONTINUOUS
10
12.351
20
-8.38636
11
12.351
21
-8.38636
0
LINE
8
BLACK
6
CONTINUOUS
10
12.351
20
-8.38636
11
12.351
21
-8.38636
0
LINE
8
BLACK
6
CONTINUOUS
10
12.351
20
-8.38636
11
12.3487
21
-8.3851
0
LINE
8
BLACK
6
CONTINUOUS
10
12.3487
20
-8.3851
11
12.3487
21
-8.3851
0
LINE
8
BLACK
6
CONTINUOUS
10
12.3487
20
-8.3851
11
12.3487
21
-8.3851
0
LINE
8
BLACK
6
CONTINUOUS
10
12.3487
20
-8.3851
11
12.3487
21
-8.3851
0
LINE
8
BLACK
6
CONTINUOUS
10
12.3487
20
-8.3851
11
12.3466
21
-8.3834
0
LINE
8
BLACK
6
CONTINUOUS
10
12.3466
20
-8.3834
11
12.3466
21
-8.3834
0
LINE
8
BLACK
6
CONTINUOUS
10
12.3466
20
-8.3834
11
12.3466
21
-8.3834
0
LINE
8
BLACK
6
CONTINUOUS
10
12.3466
20
-8.3834
11
12.3466
21
-8.3834
0
LINE
8
BLACK
6
CONTINUOUS
10
12.3466
20
-8.3834
11
12.3449
21
-8.38133
0
LINE
8
BLACK
6
CONTINUOUS
10
12.3449
20
-8.38133
11
12.3449
21
-8.38133
0
LINE
8
BLACK
6
CONTINUOUS
10
12.3449
20
-8.38133
11
12.3449
21
-8.38133
0
LINE
8
BLACK
6
CONTINUOUS
10
12.3449
20
-8.38133
11
12.3436
21
-8.37896
0
LINE
8
BLACK
6
CONTINUOUS
10
12.3436
20
-8.37896
11
12.3436
21
-8.37896
0
LINE
8
BLACK
6
CONTINUOUS
10
12.3436
20
-8.37896
11
12.3436
21
-8.37896
0
LINE
8
BLACK
6
CONTINUOUS
10
12.3436
20
-8.37896
11
12.3428
21
-8.37639
0
LINE
8
BLACK
6
CONTINUOUS
10
12.3428
20
-8.37639
11
12.3428
21
-8.37639
0
LINE
8
BLACK
6
CONTINUOUS
10
12.3428
20
-8.37639
11
12.3428
21
-8.37639
0
LINE
8
BLACK
6
CONTINUOUS
10
12.3428
20
-8.37639
11
12.3425
21
-8.37372
0
LINE
8
BLACK
6
CONTINUOUS
10
12.3425
20
-8.37372
11
12.3425
21
-8.37372
0
LINE
8
BLACK
6
CONTINUOUS
10
12.3425
20
-8.37372
11
12.3425
21
-8.37362
0
LINE
8
BLACK
6
CONTINUOUS
10
12.3425
20
-8.37362
11
12.3425
21
-8.37362
0
LINE
8
BLACK
6
CONTINUOUS
10
12.3425
20
-8.37362
11
12.3425
21
-8.37362
0
LINE
8
BLACK
6
CONTINUOUS
10
12.3425
20
-8.37362
11
12.3425
21
-8.32638
0
LINE
8
BLACK
6
CONTINUOUS
10
12.3425
20
-8.32638
11
12.3425
21
-8.32638
0
LINE
8
BLACK
6
CONTINUOUS
10
12.3425
20
-8.32638
11
12.3428
21
-8.3237
0
LINE
8
BLACK
6
CONTINUOUS
10
12.3428
20
-8.3237
11
12.3428
21
-8.3237
0
LINE
8
BLACK
6
CONTINUOUS
10
12.3428
20
-8.3237
11
12.3428
21
-8.3237
0
LINE
8
BLACK
6
CONTINUOUS
10
12.3428
20
-8.3237
11
12.3428
21
-8.3237
0
LINE
8
BLACK
6
CONTINUOUS
10
12.3428
20
-8.3237
11
12.3436
21
-8.32113
0
LINE
8
BLACK
6
CONTINUOUS
10
12.3436
20
-8.32113
11
12.3436
21
-8.32113
0
LINE
8
BLACK
6
CONTINUOUS
10
12.3436
20
-8.32113
11
12.3436
21
-8.32113
0
LINE
8
BLACK
6
CONTINUOUS
10
12.3436
20
-8.32113
11
12.3448
21
-8.31875
0
LINE
8
BLACK
6
CONTINUOUS
10
12.3448
20
-8.31875
11
12.3448
21
-8.31875
0
LINE
8
BLACK
6
CONTINUOUS
10
12.3448
20
-8.31875
11
12.3448
21
-8.31875
0
LINE
8
BLACK
6
CONTINUOUS
10
12.3448
20
-8.31875
11
12.3448
21
-8.31875
0
LINE
8
BLACK
6
CONTINUOUS
10
12.3448
20
-8.31875
11
12.3465
21
-8.31667
0
LINE
8
BLACK
6
CONTINUOUS
10
12.3465
20
-8.31667
11
12.3465
21
-8.31667
0
LINE
8
BLACK
6
CONTINUOUS
10
12.3465
20
-8.31667
11
12.3486
21
-8.31495
0
LINE
8
BLACK
6
CONTINUOUS
10
12.3486
20
-8.31495
11
12.3486
21
-8.31495
0
LINE
8
BLACK
6
CONTINUOUS
10
12.3486
20
-8.31495
11
12.3486
21
-8.31495
0
LINE
8
BLACK
6
CONTINUOUS
10
12.3486
20
-8.31495
11
12.351
21
-8.31367
0
LINE
8
BLACK
6
CONTINUOUS
10
12.351
20
-8.31367
11
12.351
21
-8.31367
0
LINE
8
BLACK
6
CONTINUOUS
10
12.351
20
-8.31367
11
12.351
21
-8.31367
0
LINE
8
BLACK
6
CONTINUOUS
10
12.351
20
-8.31367
11
12.351
21
-8.31367
0
LINE
8
BLACK
6
CONTINUOUS
10
12.351
20
-8.31367
11
12.3535
21
-8.31288
0
LINE
8
BLACK
6
CONTINUOUS
10
12.3535
20
-8.31288
11
12.3535
21
-8.31288
0
LINE
8
BLACK
6
CONTINUOUS
10
12.3535
20
-8.31288
11
12.3562
21
-8.3126
0
LINE
8
BLACK
6
CONTINUOUS
10
12.3562
20
-8.3126
11
12.3562
21
-8.3126
0
LINE
8
BLACK
6
CONTINUOUS
10
12.3562
20
-8.3126
11
12.3563
21
-8.3126
0
LINE
8
BLACK
6
CONTINUOUS
10
12.3563
20
-8.3126
11
12.3563
21
-8.3126
0
LINE
8
BLACK
6
CONTINUOUS
10
12.3563
20
-8.3126
11
12.359
21
-8.31286
0
LINE
8
BLACK
6
CONTINUOUS
10
12.359
20
-8.31286
11
12.359
21
-8.31286
0
LINE
8
BLACK
6
CONTINUOUS
10
12.359
20
-8.31286
11
12.359
21
-8.31286
0
LINE
8
BLACK
6
CONTINUOUS
10
12.359
20
-8.31286
11
12.359
21
-8.31286
0
LINE
8
BLACK
6
CONTINUOUS
10
12.359
20
-8.31286
11
12.3616
21
-8.31364
0
LINE
8
BLACK
6
CONTINUOUS
10
12.3616
20
-8.31364
11
12.3616
21
-8.31364
0
LINE
8
BLACK
6
CONTINUOUS
10
12.3616
20
-8.31364
11
12.3616
21
-8.31364
0
LINE
8
BLACK
6
CONTINUOUS
10
12.3616
20
-8.31364
11
12.3639
21
-8.3149
0
LINE
8
BLACK
6
CONTINUOUS
10
12.3639
20
-8.3149
11
12.3639
21
-8.3149
0
LINE
8
BLACK
6
CONTINUOUS
10
12.3639
20
-8.3149
11
12.3639
21
-8.3149
0
LINE
8
BLACK
6
CONTINUOUS
10
12.3639
20
-8.3149
11
12.3639
21
-8.3149
0
LINE
8
BLACK
6
CONTINUOUS
10
12.3639
20
-8.3149
11
12.366
21
-8.3166
0
LINE
8
BLACK
6
CONTINUOUS
10
12.366
20
-8.3166
11
12.366
21
-8.3166
0
LINE
8
BLACK
6
CONTINUOUS
10
12.366
20
-8.3166
11
12.3677
21
-8.31867
0
LINE
8
BLACK
6
CONTINUOUS
10
12.3425
20
-8.37372
11
12.3428
21
-8.37639
0
LINE
8
BLACK
6
CONTINUOUS
10
12.3428
20
-8.37639
11
12.3436
21
-8.37896
0
LINE
8
BLACK
6
CONTINUOUS
10
12.3436
20
-8.37896
11
12.3449
21
-8.38133
0
LINE
8
BLACK
6
CONTINUOUS
10
12.3449
20
-8.38133
11
12.3466
21
-8.3834
0
LINE
8
BLACK
6
CONTINUOUS
10
12.3466
20
-8.3834
11
12.3487
21
-8.3851
0
LINE
8
BLACK
6
CONTINUOUS
10
12.3487
20
-8.3851
11
12.351
21
-8.38636
0
LINE
8
BLACK
6
CONTINUOUS
10
12.351
20
-8.38636
11
12.3536
21
-8.38714
0
LINE
8
BLACK
6
CONTINUOUS
10
12.3536
20
-8.38714
11
12.3563
21
-8.3874
0
LINE
8
BLACK
6
CONTINUOUS
10
12.3563
20
-8.3874
11
12.3564
21
-8.3874
0
LINE
8
BLACK
6
CONTINUOUS
10
12.3564
20
-8.3874
11
12.3591
21
-8.38712
0
LINE
8
BLACK
6
CONTINUOUS
10
12.3591
20
-8.38712
11
12.3616
21
-8.38632
0
LINE
8
BLACK
6
CONTINUOUS
10
12.3616
20
-8.38632
11
12.364
21
-8.38504
0
LINE
8
BLACK
6
CONTINUOUS
10
12.364
20
-8.38504
11
12.3661
21
-8.38333
0
LINE
8
BLACK
6
CONTINUOUS
10
12.3661
20
-8.38333
11
12.3678
21
-8.38125
0
LINE
8
BLACK
6
CONTINUOUS
10
12.3678
20
-8.38125
11
12.369
21
-8.37887
0
LINE
8
BLACK
6
CONTINUOUS
10
12.369
20
-8.37887
11
12.3698
21
-8.3763
0
LINE
8
BLACK
6
CONTINUOUS
10
12.3698
20
-8.3763
11
12.3701
21
-8.37362
0
LINE
8
BLACK
6
CONTINUOUS
10
12.3701
20
-8.37362
11
12.3701
21
-8.37362
0
LINE
8
BLACK
6
CONTINUOUS
10
12.3701
20
-8.37362
11
12.3701
21
-8.37362
0
LINE
8
BLACK
6
CONTINUOUS
10
12.3701
20
-8.37362
11
12.3701
21
-8.32638
0
LINE
8
BLACK
6
CONTINUOUS
10
12.3701
20
-8.32638
11
12.3701
21
-8.32628
0
LINE
8
BLACK
6
CONTINUOUS
10
12.3701
20
-8.32628
11
12.3698
21
-8.32361
0
LINE
8
BLACK
6
CONTINUOUS
10
12.3698
20
-8.32361
11
12.369
21
-8.32104
0
LINE
8
BLACK
6
CONTINUOUS
10
12.369
20
-8.32104
11
12.3677
21
-8.31867
0
LINE
8
BLACK
6
CONTINUOUS
10
12.3677
20
-8.31867
11
12.366
21
-8.3166
0
LINE
8
BLACK
6
CONTINUOUS
10
12.366
20
-8.3166
11
12.3639
21
-8.3149
0
LINE
8
BLACK
6
CONTINUOUS
10
12.3639
20
-8.3149
11
12.3615
21
-8.31364
0
LINE
8
BLACK
6
CONTINUOUS
10
12.3615
20
-8.31364
11
12.359
21
-8.31286
0
LINE
8
BLACK
6
CONTINUOUS
10
12.359
20
-8.31286
11
12.3563
21
-8.3126
0
LINE
8
BLACK
6
CONTINUOUS
10
12.3563
20
-8.3126
11
12.3562
21
-8.3126
0
LINE
8
BLACK
6
CONTINUOUS
10
12.3562
20
-8.3126
11
12.3535
21
-8.31288
0
LINE
8
BLACK
6
CONTINUOUS
10
12.3535
20
-8.31288
11
12.351
21
-8.31368
0
LINE
8
BLACK
6
CONTINUOUS
10
12.351
20
-8.31368
11
12.3486
21
-8.31496
0
LINE
8
BLACK
6
CONTINUOUS
10
12.3486
20
-8.31496
11
12.3465
21
-8.31667
0
LINE
8
BLACK
6
CONTINUOUS
10
12.3465
20
-8.31667
11
12.3448
21
-8.31875
0
LINE
8
BLACK
6
CONTINUOUS
10
12.3448
20
-8.31875
11
12.3436
21
-8.32113
0
LINE
8
BLACK
6
CONTINUOUS
10
12.3436
20
-8.32113
11
12.3428
21
-8.3237
0
LINE
8
BLACK
6
CONTINUOUS
10
12.3428
20
-8.3237
11
12.3425
21
-8.32638
0
LINE
8
BLACK
6
CONTINUOUS
10
12.3425
20
-8.32638
11
12.3425
21
-8.37362
0
LINE
8
BLACK
6
CONTINUOUS
10
12.3425
20
-8.37362
11
12.3425
21
-8.37372
0
LINE
8
BLACK
6
CONTINUOUS
10
12.1551
20
-8.31867
11
12.1551
21
-8.31867
0
LINE
8
BLACK
6
CONTINUOUS
10
12.1551
20
-8.31867
11
12.1551
21
-8.31867
0
LINE
8
BLACK
6
CONTINUOUS
10
12.1551
20
-8.31867
11
12.1564
21
-8.32104
0
LINE
8
BLACK
6
CONTINUOUS
10
12.1564
20
-8.32104
11
12.1564
21
-8.32104
0
LINE
8
BLACK
6
CONTINUOUS
10
12.1564
20
-8.32104
11
12.1564
21
-8.32104
0
LINE
8
BLACK
6
CONTINUOUS
10
12.1564
20
-8.32104
11
12.1564
21
-8.32104
0
LINE
8
BLACK
6
CONTINUOUS
10
12.1564
20
-8.32104
11
12.1572
21
-8.32361
0
LINE
8
BLACK
6
CONTINUOUS
10
12.1572
20
-8.32361
11
12.1572
21
-8.32361
0
LINE
8
BLACK
6
CONTINUOUS
10
12.1572
20
-8.32361
11
12.1575
21
-8.32628
0
LINE
8
BLACK
6
CONTINUOUS
10
12.1575
20
-8.32628
11
12.1575
21
-8.32628
0
LINE
8
BLACK
6
CONTINUOUS
10
12.1575
20
-8.32628
11
12.1575
21
-8.32638
0
LINE
8
BLACK
6
CONTINUOUS
10
12.1575
20
-8.32638
11
12.1575
21
-8.37362
0
LINE
8
BLACK
6
CONTINUOUS
10
12.1575
20
-8.37362
11
12.1572
21
-8.3763
0
LINE
8
BLACK
6
CONTINUOUS
10
12.1572
20
-8.3763
11
12.1572
21
-8.3763
0
LINE
8
BLACK
6
CONTINUOUS
10
12.1572
20
-8.3763
11
12.1564
21
-8.37887
0
LINE
8
BLACK
6
CONTINUOUS
10
12.1564
20
-8.37887
11
12.1564
21
-8.37887
0
LINE
8
BLACK
6
CONTINUOUS
10
12.1564
20
-8.37887
11
12.1564
21
-8.37887
0
LINE
8
BLACK
6
CONTINUOUS
10
12.1564
20
-8.37887
11
12.1564
21
-8.37887
0
LINE
8
BLACK
6
CONTINUOUS
10
12.1564
20
-8.37887
11
12.1552
21
-8.38125
0
LINE
8
BLACK
6
CONTINUOUS
10
12.1552
20
-8.38125
11
12.1552
21
-8.38125
0
LINE
8
BLACK
6
CONTINUOUS
10
12.1552
20
-8.38125
11
12.1552
21
-8.38125
0
LINE
8
BLACK
6
CONTINUOUS
10
12.1552
20
-8.38125
11
12.1552
21
-8.38125
0
LINE
8
BLACK
6
CONTINUOUS
10
12.1552
20
-8.38125
11
12.1552
21
-8.38125
0
LINE
8
BLACK
6
CONTINUOUS
10
12.1552
20
-8.38125
11
12.1535
21
-8.38333
0
LINE
8
BLACK
6
CONTINUOUS
10
12.1535
20
-8.38333
11
12.1535
21
-8.38333
0
LINE
8
BLACK
6
CONTINUOUS
10
12.1535
20
-8.38333
11
12.1535
21
-8.38333
0
LINE
8
BLACK
6
CONTINUOUS
10
12.1535
20
-8.38333
11
12.1535
21
-8.38333
0
LINE
8
BLACK
6
CONTINUOUS
10
12.1535
20
-8.38333
11
12.1514
21
-8.38505
0
LINE
8
BLACK
6
CONTINUOUS
10
12.1514
20
-8.38505
11
12.1514
21
-8.38505
0
LINE
8
BLACK
6
CONTINUOUS
10
12.1514
20
-8.38505
11
12.1514
21
-8.38505
0
LINE
8
BLACK
6
CONTINUOUS
10
12.1514
20
-8.38505
11
12.149
21
-8.38633
0
LINE
8
BLACK
6
CONTINUOUS
10
12.149
20
-8.38633
11
12.149
21
-8.38633
0
LINE
8
BLACK
6
CONTINUOUS
10
12.149
20
-8.38633
11
12.1465
21
-8.38712
0
LINE
8
BLACK
6
CONTINUOUS
10
12.1465
20
-8.38712
11
12.1465
21
-8.38712
0
LINE
8
BLACK
6
CONTINUOUS
10
12.1465
20
-8.38712
11
12.1438
21
-8.3874
0
LINE
8
BLACK
6
CONTINUOUS
10
12.1438
20
-8.3874
11
12.1438
21
-8.3874
0
LINE
8
BLACK
6
CONTINUOUS
10
12.1438
20
-8.3874
11
12.1437
21
-8.3874
0
LINE
8
BLACK
6
CONTINUOUS
10
12.1437
20
-8.3874
11
12.1437
21
-8.3874
0
LINE
8
BLACK
6
CONTINUOUS
10
12.1437
20
-8.3874
11
12.141
21
-8.38714
0
LINE
8
BLACK
6
CONTINUOUS
10
12.141
20
-8.38714
11
12.141
21
-8.38714
0
LINE
8
BLACK
6
CONTINUOUS
10
12.141
20
-8.38714
11
12.141
21
-8.38714
0
LINE
8
BLACK
6
CONTINUOUS
10
12.141
20
-8.38714
11
12.1384
21
-8.38636
0
LINE
8
BLACK
6
CONTINUOUS
10
12.1384
20
-8.38636
11
12.1384
21
-8.38636
0
LINE
8
BLACK
6
CONTINUOUS
10
12.1384
20
-8.38636
11
12.1384
21
-8.38636
0
LINE
8
BLACK
6
CONTINUOUS
10
12.1384
20
-8.38636
11
12.1384
21
-8.38636
0
LINE
8
BLACK
6
CONTINUOUS
10
12.1384
20
-8.38636
11
12.1361
21
-8.3851
0
LINE
8
BLACK
6
CONTINUOUS
10
12.1361
20
-8.3851
11
12.1361
21
-8.3851
0
LINE
8
BLACK
6
CONTINUOUS
10
12.1361
20
-8.3851
11
12.1361
21
-8.3851
0
LINE
8
BLACK
6
CONTINUOUS
10
12.1361
20
-8.3851
11
12.1361
21
-8.3851
0
LINE
8
BLACK
6
CONTINUOUS
10
12.1361
20
-8.3851
11
12.134
21
-8.3834
0
LINE
8
BLACK
6
CONTINUOUS
10
12.134
20
-8.3834
11
12.134
21
-8.3834
0
LINE
8
BLACK
6
CONTINUOUS
10
12.134
20
-8.3834
11
12.134
21
-8.3834
0
LINE
8
BLACK
6
CONTINUOUS
10
12.134
20
-8.3834
11
12.134
21
-8.3834
0
LINE
8
BLACK
6
CONTINUOUS
10
12.134
20
-8.3834
11
12.1323
21
-8.38133
0
LINE
8
BLACK
6
CONTINUOUS
10
12.1323
20
-8.38133
11
12.1323
21
-8.38133
0
LINE
8
BLACK
6
CONTINUOUS
10
12.1323
20
-8.38133
11
12.1323
21
-8.38133
0
LINE
8
BLACK
6
CONTINUOUS
10
12.1323
20
-8.38133
11
12.131
21
-8.37896
0
LINE
8
BLACK
6
CONTINUOUS
10
12.131
20
-8.37896
11
12.131
21
-8.37896
0
LINE
8
BLACK
6
CONTINUOUS
10
12.131
20
-8.37896
11
12.131
21
-8.37896
0
LINE
8
BLACK
6
CONTINUOUS
10
12.131
20
-8.37896
11
12.1302
21
-8.37639
0
LINE
8
BLACK
6
CONTINUOUS
10
12.1302
20
-8.37639
11
12.1302
21
-8.37639
0
LINE
8
BLACK
6
CONTINUOUS
10
12.1302
20
-8.37639
11
12.1302
21
-8.37639
0
LINE
8
BLACK
6
CONTINUOUS
10
12.1302
20
-8.37639
11
12.1299
21
-8.37372
0
LINE
8
BLACK
6
CONTINUOUS
10
12.1299
20
-8.37372
11
12.1299
21
-8.37372
0
LINE
8
BLACK
6
CONTINUOUS
10
12.1299
20
-8.37372
11
12.1299
21
-8.37362
0
LINE
8
BLACK
6
CONTINUOUS
10
12.1299
20
-8.37362
11
12.1299
21
-8.37362
0
LINE
8
BLACK
6
CONTINUOUS
10
12.1299
20
-8.37362
11
12.1299
21
-8.37362
0
LINE
8
BLACK
6
CONTINUOUS
10
12.1299
20
-8.37362
11
12.1299
21
-8.32638
0
LINE
8
BLACK
6
CONTINUOUS
10
12.1299
20
-8.32638
11
12.1299
21
-8.32638
0
LINE
8
BLACK
6
CONTINUOUS
10
12.1299
20
-8.32638
11
12.1302
21
-8.3237
0
LINE
8
BLACK
6
CONTINUOUS
10
12.1302
20
-8.3237
11
12.1302
21
-8.3237
0
LINE
8
BLACK
6
CONTINUOUS
10
12.1302
20
-8.3237
11
12.1302
21
-8.3237
0
LINE
8
BLACK
6
CONTINUOUS
10
12.1302
20
-8.3237
11
12.1302
21
-8.3237
0
LINE
8
BLACK
6
CONTINUOUS
10
12.1302
20
-8.3237
11
12.131
21
-8.32113
0
LINE
8
BLACK
6
CONTINUOUS
10
12.131
20
-8.32113
11
12.131
21
-8.32113
0
LINE
8
BLACK
6
CONTINUOUS
10
12.131
20
-8.32113
11
12.131
21
-8.32113
0
LINE
8
BLACK
6
CONTINUOUS
10
12.131
20
-8.32113
11
12.1322
21
-8.31875
0
LINE
8
BLACK
6
CONTINUOUS
10
12.1322
20
-8.31875
11
12.1322
21
-8.31875
0
LINE
8
BLACK
6
CONTINUOUS
10
12.1322
20
-8.31875
11
12.1322
21
-8.31875
0
LINE
8
BLACK
6
CONTINUOUS
10
12.1322
20
-8.31875
11
12.1322
21
-8.31875
0
LINE
8
BLACK
6
CONTINUOUS
10
12.1322
20
-8.31875
11
12.1339
21
-8.31667
0
LINE
8
BLACK
6
CONTINUOUS
10
12.1339
20
-8.31667
11
12.1339
21
-8.31667
0
LINE
8
BLACK
6
CONTINUOUS
10
12.1339
20
-8.31667
11
12.136
21
-8.31495
0
LINE
8
BLACK
6
CONTINUOUS
10
12.136
20
-8.31495
11
12.136
21
-8.31495
0
LINE
8
BLACK
6
CONTINUOUS
10
12.136
20
-8.31495
11
12.136
21
-8.31495
0
LINE
8
BLACK
6
CONTINUOUS
10
12.136
20
-8.31495
11
12.1384
21
-8.31367
0
LINE
8
BLACK
6
CONTINUOUS
10
12.1384
20
-8.31367
11
12.1384
21
-8.31367
0
LINE
8
BLACK
6
CONTINUOUS
10
12.1384
20
-8.31367
11
12.1384
21
-8.31367
0
LINE
8
BLACK
6
CONTINUOUS
10
12.1384
20
-8.31367
11
12.1384
21
-8.31367
0
LINE
8
BLACK
6
CONTINUOUS
10
12.1384
20
-8.31367
11
12.1409
21
-8.31288
0
LINE
8
BLACK
6
CONTINUOUS
10
12.1409
20
-8.31288
11
12.1409
21
-8.31288
0
LINE
8
BLACK
6
CONTINUOUS
10
12.1409
20
-8.31288
11
12.1436
21
-8.3126
0
LINE
8
BLACK
6
CONTINUOUS
10
12.1436
20
-8.3126
11
12.1436
21
-8.3126
0
LINE
8
BLACK
6
CONTINUOUS
10
12.1436
20
-8.3126
11
12.1437
21
-8.3126
0
LINE
8
BLACK
6
CONTINUOUS
10
12.1437
20
-8.3126
11
12.1437
21
-8.3126
0
LINE
8
BLACK
6
CONTINUOUS
10
12.1437
20
-8.3126
11
12.1464
21
-8.31286
0
LINE
8
BLACK
6
CONTINUOUS
10
12.1464
20
-8.31286
11
12.1464
21
-8.31286
0
LINE
8
BLACK
6
CONTINUOUS
10
12.1464
20
-8.31286
11
12.1464
21
-8.31286
0
LINE
8
BLACK
6
CONTINUOUS
10
12.1464
20
-8.31286
11
12.1464
21
-8.31286
0
LINE
8
BLACK
6
CONTINUOUS
10
12.1464
20
-8.31286
11
12.149
21
-8.31364
0
LINE
8
BLACK
6
CONTINUOUS
10
12.149
20
-8.31364
11
12.149
21
-8.31364
0
LINE
8
BLACK
6
CONTINUOUS
10
12.149
20
-8.31364
11
12.149
21
-8.31364
0
LINE
8
BLACK
6
CONTINUOUS
10
12.149
20
-8.31364
11
12.1513
21
-8.3149
0
LINE
8
BLACK
6
CONTINUOUS
10
12.1513
20
-8.3149
11
12.1513
21
-8.3149
0
LINE
8
BLACK
6
CONTINUOUS
10
12.1513
20
-8.3149
11
12.1513
21
-8.3149
0
LINE
8
BLACK
6
CONTINUOUS
10
12.1513
20
-8.3149
11
12.1513
21
-8.3149
0
LINE
8
BLACK
6
CONTINUOUS
10
12.1513
20
-8.3149
11
12.1534
21
-8.3166
0
LINE
8
BLACK
6
CONTINUOUS
10
12.1534
20
-8.3166
11
12.1534
21
-8.3166
0
LINE
8
BLACK
6
CONTINUOUS
10
12.1534
20
-8.3166
11
12.1551
21
-8.31867
0
LINE
8
BLACK
6
CONTINUOUS
10
12.1299
20
-8.37372
11
12.1302
21
-8.37639
0
LINE
8
BLACK
6
CONTINUOUS
10
12.1302
20
-8.37639
11
12.131
21
-8.37896
0
LINE
8
BLACK
6
CONTINUOUS
10
12.131
20
-8.37896
11
12.1323
21
-8.38133
0
LINE
8
BLACK
6
CONTINUOUS
10
12.1323
20
-8.38133
11
12.134
21
-8.3834
0
LINE
8
BLACK
6
CONTINUOUS
10
12.134
20
-8.3834
11
12.1361
21
-8.3851
0
LINE
8
BLACK
6
CONTINUOUS
10
12.1361
20
-8.3851
11
12.1385
21
-8.38636
0
LINE
8
BLACK
6
CONTINUOUS
10
12.1385
20
-8.38636
11
12.141
21
-8.38714
0
LINE
8
BLACK
6
CONTINUOUS
10
12.141
20
-8.38714
11
12.1437
21
-8.3874
0
LINE
8
BLACK
6
CONTINUOUS
10
12.1437
20
-8.3874
11
12.1438
21
-8.3874
0
LINE
8
BLACK
6
CONTINUOUS
10
12.1438
20
-8.3874
11
12.1465
21
-8.38712
0
LINE
8
BLACK
6
CONTINUOUS
10
12.1465
20
-8.38712
11
12.149
21
-8.38632
0
LINE
8
BLACK
6
CONTINUOUS
10
12.149
20
-8.38632
11
12.1514
21
-8.38504
0
LINE
8
BLACK
6
CONTINUOUS
10
12.1514
20
-8.38504
11
12.1535
21
-8.38333
0
LINE
8
BLACK
6
CONTINUOUS
10
12.1535
20
-8.38333
11
12.1552
21
-8.38125
0
LINE
8
BLACK
6
CONTINUOUS
10
12.1552
20
-8.38125
11
12.1564
21
-8.37887
0
LINE
8
BLACK
6
CONTINUOUS
10
12.1564
20
-8.37887
11
12.1572
21
-8.3763
0
LINE
8
BLACK
6
CONTINUOUS
10
12.1572
20
-8.3763
11
12.1575
21
-8.37362
0
LINE
8
BLACK
6
CONTINUOUS
10
12.1575
20
-8.37362
11
12.1575
21
-8.37362
0
LINE
8
BLACK
6
CONTINUOUS
10
12.1575
20
-8.37362
11
12.1575
21
-8.37362
0
LINE
8
BLACK
6
CONTINUOUS
10
12.1575
20
-8.37362
11
12.1575
21
-8.32638
0
LINE
8
BLACK
6
CONTINUOUS
10
12.1575
20
-8.32638
11
12.1575
21
-8.32628
0
LINE
8
BLACK
6
CONTINUOUS
10
12.1575
20
-8.32628
11
12.1572
21
-8.32361
0
LINE
8
BLACK
6
CONTINUOUS
10
12.1572
20
-8.32361
11
12.1564
21
-8.32104
0
LINE
8
BLACK
6
CONTINUOUS
10
12.1564
20
-8.32104
11
12.1551
21
-8.31867
0
LINE
8
BLACK
6
CONTINUOUS
10
12.1551
20
-8.31867
11
12.1534
21
-8.3166
0
LINE
8
BLACK
6
CONTINUOUS
10
12.1534
20
-8.3166
11
12.1513
21
-8.3149
0
LINE
8
BLACK
6
CONTINUOUS
10
12.1513
20
-8.3149
11
12.149
21
-8.31364
0
LINE
8
BLACK
6
CONTINUOUS
10
12.149
20
-8.31364
11
12.1464
21
-8.31286
0
LINE
8
BLACK
6
CONTINUOUS
10
12.1464
20
-8.31286
11
12.1437
21
-8.3126
0
LINE
8
BLACK
6
CONTINUOUS
10
12.1437
20
-8.3126
11
12.1436
21
-8.3126
0
LINE
8
BLACK
6
CONTINUOUS
10
12.1436
20
-8.3126
11
12.1409
21
-8.31288
0
LINE
8
BLACK
6
CONTINUOUS
10
12.1409
20
-8.31288
11
12.1384
21
-8.31368
0
LINE
8
BLACK
6
CONTINUOUS
10
12.1384
20
-8.31368
11
12.136
21
-8.31496
0
LINE
8
BLACK
6
CONTINUOUS
10
12.136
20
-8.31496
11
12.1339
21
-8.31667
0
LINE
8
BLACK
6
CONTINUOUS
10
12.1339
20
-8.31667
11
12.1322
21
-8.31875
0
LINE
8
BLACK
6
CONTINUOUS
10
12.1322
20
-8.31875
11
12.131
21
-8.32113
0
LINE
8
BLACK
6
CONTINUOUS
10
12.131
20
-8.32113
11
12.1302
21
-8.3237
0
LINE
8
BLACK
6
CONTINUOUS
10
12.1302
20
-8.3237
11
12.1299
21
-8.32638
0
LINE
8
BLACK
6
CONTINUOUS
10
12.1299
20
-8.32638
11
12.1299
21
-8.37362
0
LINE
8
BLACK
6
CONTINUOUS
10
12.1299
20
-8.37362
11
12.1299
21
-8.37372
  0
ENDSEC
  0
EOF
